<?xml version="1.0" standalone="no"?>
<mlt LC_NUMERIC="C" version="7.3.0" title="Shotcut version 21.10.24" producer="main_bin">
  <profile description="PAL 4:3 DV or DVD" width="1920" height="1080" progressive="1" sample_aspect_num="1" sample_aspect_den="1" display_aspect_num="16" display_aspect_den="9" frame_rate_num="60" frame_rate_den="1" colorspace="709"/>
  <playlist id="main_bin">
    <property name="xml_retain">1</property>
  </playlist>
  <producer id="black" in="00:00:00.000" out="00:37:32.166">
    <property name="length">00:37:32.183</property>
    <property name="eof">pause</property>
    <property name="resource">0</property>
    <property name="aspect_ratio">1</property>
    <property name="mlt_service">color</property>
    <property name="mlt_image_format">rgba</property>
    <property name="set.test_audio">0</property>
  </producer>
  <playlist id="background">
    <entry producer="black" in="00:00:00.000" out="00:37:32.166"/>
  </playlist>
  <producer id="original_xml" title="Shotcut version 21.10.24" in="00:00:00.000" out="00:37:32.166">
    <property name="length">00:37:32.183</property>
    <property name="eof">pause</property>
    <property name="resource">10_a_topologia_dos_espacos_metricos/a_topologia_dos_espacos_metricos.mlt</property>
    <property name="mlt_service">xml</property>
    <property name="shotcut">1</property>
    <property name="shotcut:projectAudioChannels">2</property>
    <property name="shotcut:projectFolder">1</property>
    <property name="shotcut:scaleFactor">20.2106</property>
    <property name="shotcut:trackHeight">30</property>
    <property name="xml">was here</property>
    <property name="seekable">1</property>
    <property name="shotcut:virtual">1</property>
    <property name="shotcut:hash">cabd9a5cf64f073df9b2c530a84274aa</property>
  </producer>
  <playlist id="playlist0">
    <property name="shotcut:video">1</property>
    <property name="shotcut:name">V1</property>
    <entry producer="original_xml" in="00:00:00.000" out="00:37:32.166"/>
  </playlist>

<!-- Producers (template: vinheta - 1) -->
  <producer id="1_overlay_producer0" in="00:00:00.000" out="03:59:59.983">
    <property name="length">04:00:00.000</property>
    <property name="eof">pause</property>
    <property name="resource">10_a_topologia_dos_espacos_metricos/generated/vinheta_static/papito.svg</property>
    <property name="ttl">1</property>
    <property name="aspect_ratio">1</property>
    <property name="progressive">1</property>
    <property name="seekable">1</property>
    <property name="mlt_service">qimage</property>
    <property name="creation_time">2021-11-20T16:56:36</property>
    <property name="shotcut:caption">papito.svg</property>
    <property name="shotcut:hash">24c313bd35ae36447ae1ce8444f40447</property>
    <property name="ignore_points">0</property>
    <property name="xml">was here</property>
  </producer>
  <producer id="1_overlay_producer1" in="00:00:00.000" out="03:59:59.983">
    <property name="length">04:00:00.000</property>
    <property name="eof">pause</property>
    <property name="resource">10_a_topologia_dos_espacos_metricos/generated/vinheta_static/topologia_vinheta_fundo.png</property>
    <property name="ttl">1</property>
    <property name="aspect_ratio">1</property>
    <property name="progressive">1</property>
    <property name="seekable">1</property>
    <property name="mlt_service">qimage</property>
    <property name="creation_time">2021-11-20T19:01:53</property>
    <property name="xml">was here</property>
    <property name="shotcut:hash">8484b376b4acb1b814deba621de948c8</property>
  </producer>
  <producer id="1_overlay_producer2" in="00:00:00.000" out="03:59:59.983">
    <property name="length">04:00:00.000</property>
    <property name="eof">pause</property>
    <property name="resource">10_a_topologia_dos_espacos_metricos/generated/vinheta_static/topologia_vinheta_professor.png</property>
    <property name="ttl">1</property>
    <property name="aspect_ratio">1</property>
    <property name="progressive">1</property>
    <property name="seekable">1</property>
    <property name="mlt_service">qimage</property>
    <property name="creation_time">2021-11-20T19:11:29</property>
    <property name="xml">was here</property>
    <property name="shotcut:hash">16fc54ac1b0458e72937c57a28071ba9</property>
  </producer>
  <producer id="1_overlay_producer3" in="00:00:00.000" out="03:59:59.983">
    <property name="length">04:00:00.000</property>
    <property name="eof">pause</property>
    <property name="resource">#FFDEDDDA</property>
    <property name="aspect_ratio">1</property>
    <property name="mlt_service">color</property>
    <property name="mlt_image_format">rgba</property>
    <property name="shotcut:caption">#FFDEDDDA</property>
    <property name="shotcut:detail">#FFDEDDDA</property>
    <property name="ignore_points">0</property>
    <property name="xml">was here</property>
    <property name="seekable">1</property>
  </producer>
  <producer id="1_overlay_producer4" in="00:00:00.000" out="03:59:59.983">
    <property name="length">04:00:00.000</property>
    <property name="eof">pause</property>
    <property name="resource">10_a_topologia_dos_espacos_metricos/generated/vinheta_static/topologia_vinheta_titulo.png</property>
    <property name="ttl">1</property>
    <property name="aspect_ratio">1</property>
    <property name="progressive">1</property>
    <property name="seekable">1</property>
    <property name="mlt_service">qimage</property>
    <property name="creation_time">2021-11-20T19:04:16</property>
    <property name="xml">was here</property>
    <property name="shotcut:hash">06ede2955800f75cc2ec8b9bbf882f63</property>
  </producer>
  <producer id="1_overlay_producer5" in="00:00:00.000" out="03:59:59.983">
    <property name="length">04:00:00.000</property>
    <property name="eof">pause</property>
    <property name="resource">#FFDEDDDA</property>
    <property name="aspect_ratio">1</property>
    <property name="mlt_service">color</property>
    <property name="mlt_image_format">rgba</property>
    <property name="shotcut:caption">#FFDEDDDA</property>
    <property name="shotcut:detail">#FFDEDDDA</property>
    <property name="ignore_points">0</property>
    <property name="xml">was here</property>
    <property name="seekable">1</property>
  </producer>
  <producer id="1_overlay_producer6" in="00:00:00.000" out="03:59:59.983">
    <property name="length">04:00:00.000</property>
    <property name="eof">pause</property>
    <property name="resource">10_a_topologia_dos_espacos_metricos/generated/vinheta_static/topologia_vinheta_fundo.png</property>
    <property name="ttl">1</property>
    <property name="aspect_ratio">1</property>
    <property name="progressive">1</property>
    <property name="seekable">1</property>
    <property name="mlt_service">qimage</property>
    <property name="creation_time">2021-11-20T19:01:53</property>
    <property name="xml">was here</property>
    <property name="shotcut:hash">8484b376b4acb1b814deba621de948c8</property>
    <property name="shotcut:caption">topologia_vinheta_fundo.png</property>
    <filter id="1_overlay_filter3" out="00:00:07.983">
      <property name="background">color:#00000000</property>
      <property name="mlt_service">affine</property>
      <property name="shotcut:filter">affineSizePosition</property>
      <property name="transition.fill">1</property>
      <property name="transition.distort">0</property>
      <property name="transition.rect">00:00:00.017~=1313 0 1920 1080 1;00:00:00.650|=0 0 1920 1080 1;00:00:06.783~=0 0 1920 1080 1;00:00:07.983~=1400 0 1920 1080 1;00:00:08.000~=1261 0 1920 1080 1</property>
      <property name="transition.valign">middle</property>
      <property name="transition.halign">center</property>
      <property name="shotcut:animIn">00:00:00.000</property>
      <property name="shotcut:animOut">00:00:00.000</property>
      <property name="transition.threads">0</property>
      <property name="disable">0</property>
    </filter>
    <filter id="1_overlay_filter4" out="00:00:07.983">
      <property name="start">1</property>
      <property name="level">1</property>
      <property name="mlt_service">brightness</property>
      <property name="shotcut:filter">brightnessOpacity</property>
      <property name="alpha">00:00:05.767~=1;00:00:07.983~=0.2;00:00:08.000=0</property>
      <property name="opacity">00:00:05.767~=1;00:00:07.983~=0.2;00:00:08.000=0</property>
      <property name="disable">0</property>
    </filter>
  </producer>
  <producer id="1_overlay_producer7" in="00:00:00.000" out="03:59:59.983">
    <property name="length">04:00:00.000</property>
    <property name="eof">pause</property>
    <property name="resource">10_a_topologia_dos_espacos_metricos/generated/vinheta_static/topologia_vinheta_titulo.png</property>
    <property name="ttl">1</property>
    <property name="aspect_ratio">1</property>
    <property name="progressive">1</property>
    <property name="seekable">1</property>
    <property name="mlt_service">qimage</property>
    <property name="creation_time">2021-11-20T19:04:16</property>
    <property name="xml">was here</property>
    <property name="shotcut:hash">06ede2955800f75cc2ec8b9bbf882f63</property>
    <property name="shotcut:caption">topologia_vinheta_titulo.png</property>
    <filter id="1_overlay_filter5" out="00:00:07.983">
      <property name="background">color:#00000000</property>
      <property name="mlt_service">affine</property>
      <property name="shotcut:filter">affineSizePosition</property>
      <property name="transition.fill">1</property>
      <property name="transition.distort">0</property>
      <property name="transition.rect">00:00:00.000~=1161 0 1920 1080 1;00:00:02.133~=0 0 1920 1080 1;00:00:02.150=0 0 1920 1080 1;00:00:06.433~=0 0 1920 1080 1;00:00:07.017~=1161 0 1920 1080 1</property>
      <property name="transition.valign">middle</property>
      <property name="transition.halign">center</property>
      <property name="shotcut:animIn">00:00:00.000</property>
      <property name="shotcut:animOut">00:00:00.000</property>
      <property name="transition.threads">0</property>
    </filter>
  </producer>
  <producer id="1_overlay_producer8" in="00:00:00.000" out="03:59:59.983">
    <property name="length">04:00:00.000</property>
    <property name="eof">pause</property>
    <property name="resource">10_a_topologia_dos_espacos_metricos/generated/vinheta_static/topologia_vinheta_professor.png</property>
    <property name="ttl">1</property>
    <property name="aspect_ratio">1</property>
    <property name="progressive">1</property>
    <property name="seekable">1</property>
    <property name="mlt_service">qimage</property>
    <property name="creation_time">2021-11-20T19:11:29</property>
    <property name="xml">was here</property>
    <property name="shotcut:hash">16fc54ac1b0458e72937c57a28071ba9</property>
    <property name="shotcut:caption">topologia_vinheta_professor.png</property>
    <filter id="1_overlay_filter6" out="00:00:07.983">
      <property name="background">color:#00000000</property>
      <property name="mlt_service">affine</property>
      <property name="shotcut:filter">affineSizePosition</property>
      <property name="transition.fill">1</property>
      <property name="transition.distort">0</property>
      <property name="transition.rect">00:00:00.000~=1119 0 1920 1080 1;00:00:03.650~=0 0 1920 1080 1;00:00:03.667=0 0 1920 1080 1;00:00:05.600=0 0 1920 1080 1;00:00:06.800=1119 0 1920 1080 1</property>
      <property name="transition.valign">middle</property>
      <property name="transition.halign">center</property>
      <property name="shotcut:animIn">00:00:00.000</property>
      <property name="shotcut:animOut">00:00:00.000</property>
      <property name="transition.threads">0</property>
      <property name="disable">0</property>
    </filter>
  </producer>
  <producer id="1_overlay_producer9" in="00:00:00.000" out="03:59:59.983">
    <property name="length">04:00:00.000</property>
    <property name="eof">pause</property>
    <property name="resource">10_a_topologia_dos_espacos_metricos/generated/vinheta_static/papito.svg</property>
    <property name="ttl">1</property>
    <property name="aspect_ratio">1</property>
    <property name="progressive">1</property>
    <property name="seekable">1</property>
    <property name="mlt_service">qimage</property>
    <property name="creation_time">2021-11-20T16:56:36</property>
    <property name="shotcut:caption">papito.svg</property>
    <property name="shotcut:hash">24c313bd35ae36447ae1ce8444f40447</property>
    <property name="ignore_points">0</property>
    <property name="xml">was here</property>
    <filter id="1_overlay_filter7" out="00:00:07.983">
      <property name="background">color:#00000000</property>
      <property name="mlt_service">affine</property>
      <property name="shotcut:filter">affineSizePosition</property>
      <property name="transition.fill">1</property>
      <property name="transition.distort">0</property>
      <property name="transition.rect">00:00:00.000=2146 500 200 200 1;00:00:02.717=890 500 200 200 1;00:00:06.000=890 500 200 200 1;00:00:07.000=2146 500 200 200 1</property>
      <property name="transition.valign">middle</property>
      <property name="transition.halign">center</property>
      <property name="shotcut:animIn">00:00:00.000</property>
      <property name="shotcut:animOut">00:00:00.000</property>
      <property name="transition.threads">0</property>
      <property name="transition.fix_rotate_x">00:00:00.000=360;00:00:02.717=-360;00:00:06.000=-360;00:00:07.000=360</property>
    </filter>
  </producer>
<!-- Producers (template: parte - 2) -->
  <producer id="2_overlay_producer0" in="00:00:00.000" out="00:00:03.983">
    <property name="length">04:00:00.000</property>
    <property name="eof">pause</property>
    <property name="resource">10_a_topologia_dos_espacos_metricos/generated/2_parte_fg_texto.png</property>
    <property name="ttl">1</property>
    <property name="aspect_ratio">1</property>
    <property name="progressive">1</property>
    <property name="seekable">1</property>
    <property name="mlt_service">qimage</property>
    <property name="creation_time">2021-11-20T22:27:33</property>
    <property name="shotcut:caption">fg_texto.png</property>
    <property name="shotcut:hash">14cffc2775cce99ab027cd51102cef3f</property>
    <property name="ignore_points">1</property>
    <property name="xml">was here</property>
  </producer>
  <producer id="2_overlay_producer1" in="00:00:00.000" out="00:00:03.983">
    <property name="length">04:00:00.000</property>
    <property name="eof">pause</property>
    <property name="resource">10_a_topologia_dos_espacos_metricos/generated/parte_static/papito.svg</property>
    <property name="ttl">1</property>
    <property name="aspect_ratio">1</property>
    <property name="progressive">1</property>
    <property name="seekable">1</property>
    <property name="mlt_service">qimage</property>
    <property name="creation_time">2021-11-20T22:27:18</property>
    <property name="xml">was here</property>
    <property name="shotcut:hash">24c313bd35ae36447ae1ce8444f40447</property>
    <property name="shotcut:caption">papito.svg</property>
    <property name="ignore_points">1</property>
  </producer>
  <producer id="2_overlay_producer2" in="00:00:00.000" out="00:00:03.983">
    <property name="length">04:00:00.000</property>
    <property name="eof">pause</property>
    <property name="resource">10_a_topologia_dos_espacos_metricos/generated/2_parte_bg_logo.png</property>
    <property name="ttl">1</property>
    <property name="aspect_ratio">1</property>
    <property name="progressive">1</property>
    <property name="seekable">1</property>
    <property name="mlt_service">qimage</property>
    <property name="creation_time">2021-11-23T15:36:23</property>
    <property name="xml">was here</property>
    <property name="shotcut:hash">5dcd114eb000f9bd9ee59792e9729b4e</property>
    <property name="shotcut:caption">bg_logo.png</property>
    <property name="ignore_points">1</property>
  </producer>
  <producer id="2_overlay_producer3" in="00:00:00.000" out="00:00:03.983">
    <property name="length">04:00:00.000</property>
    <property name="eof">pause</property>
    <property name="resource">10_a_topologia_dos_espacos_metricos/generated/2_parte_bg_texto.png</property>
    <property name="ttl">1</property>
    <property name="aspect_ratio">1</property>
    <property name="progressive">1</property>
    <property name="seekable">1</property>
    <property name="mlt_service">qimage</property>
    <property name="creation_time">2021-11-23T15:36:23</property>
    <property name="xml">was here</property>
    <property name="shotcut:hash">781a029be6548ca1285f7e382737fb45</property>
    <property name="shotcut:caption">bg_texto.png</property>
    <property name="ignore_points">1</property>
  </producer>
  <producer id="2_overlay_producer4" in="00:00:00.000" out="00:00:03.983">
    <property name="length">04:00:00.000</property>
    <property name="eof">pause</property>
    <property name="resource">#FFFFFFFF</property>
    <property name="aspect_ratio">1</property>
    <property name="mlt_service">color</property>
    <property name="mlt_image_format">rgba</property>
    <property name="shotcut:caption">#FFFFFFFF</property>
    <property name="ignore_points">1</property>
    <property name="xml">was here</property>
    <property name="seekable">1</property>
  </producer>
  <producer id="2_overlay_producer5" in="00:00:00.000" out="03:59:59.983">
    <property name="length">04:00:00.000</property>
    <property name="eof">pause</property>
    <property name="resource">#FFFFFFFF</property>
    <property name="aspect_ratio">1</property>
    <property name="mlt_service">color</property>
    <property name="mlt_image_format">rgba</property>
    <property name="shotcut:caption">#FFFFFFFF</property>
    <property name="ignore_points">0</property>
    <property name="xml">was here</property>
    <property name="seekable">1</property>
  </producer>
  <producer id="2_overlay_producer6" in="00:00:00.000" out="03:59:59.983">
    <property name="length">04:00:00.000</property>
    <property name="eof">pause</property>
    <property name="resource">10_a_topologia_dos_espacos_metricos/generated/2_parte_bg_texto.png</property>
    <property name="ttl">1</property>
    <property name="aspect_ratio">1</property>
    <property name="progressive">1</property>
    <property name="seekable">1</property>
    <property name="mlt_service">qimage</property>
    <property name="creation_time">2021-11-23T15:36:23</property>
    <property name="xml">was here</property>
    <property name="shotcut:hash">781a029be6548ca1285f7e382737fb45</property>
    <property name="shotcut:caption">bg_texto.png</property>
    <filter id="2_overlay_filter0" out="00:00:10.983">
      <property name="background">color:#00000000</property>
      <property name="mlt_service">affine</property>
      <property name="shotcut:filter">affineSizePosition</property>
      <property name="transition.fill">1</property>
      <property name="transition.distort">0</property>
      <property name="transition.rect">00:00:00.000~=1600 0 1920 1080 1;00:00:02.500=0 0 1920 1080 1;00:00:10.033=0 0 1920 1080 1;00:00:10.983=1600 0 1920 1080 1;00:00:11.000~=0 0 1920 1080 1</property>
      <property name="transition.valign">middle</property>
      <property name="transition.halign">center</property>
      <property name="shotcut:animIn">00:00:00.000</property>
      <property name="shotcut:animOut">00:00:00.000</property>
      <property name="transition.threads">0</property>
    </filter>
  </producer>
  <producer id="2_overlay_producer7" in="00:00:00.000" out="03:59:59.983">
    <property name="length">04:00:00.000</property>
    <property name="eof">pause</property>
    <property name="resource">10_a_topologia_dos_espacos_metricos/generated/2_parte_fg_texto.png</property>
    <property name="ttl">1</property>
    <property name="aspect_ratio">1</property>
    <property name="progressive">1</property>
    <property name="seekable">1</property>
    <property name="mlt_service">qimage</property>
    <property name="creation_time">2021-11-20T22:27:33</property>
    <property name="shotcut:caption">fg_texto.png</property>
    <property name="shotcut:hash">14cffc2775cce99ab027cd51102cef3f</property>
    <property name="ignore_points">0</property>
    <property name="xml">was here</property>
    <filter id="2_overlay_filter2" out="00:00:10.983">
      <property name="background">color:#00000000</property>
      <property name="mlt_service">affine</property>
      <property name="shotcut:filter">affineSizePosition</property>
      <property name="transition.fill">1</property>
      <property name="transition.distort">0</property>
      <property name="transition.rect">00:00:00.000~=1800 0 1920 1080 1;00:00:02.217~=1800 0 1920 1080 1;00:00:02.867=0 0 1920 1080 1;00:00:09.783=0 0 1920 1080 1;00:00:10.983=1800 0 1920 1080 1;00:00:11.000=0 0 1920 1080 1</property>
      <property name="transition.valign">middle</property>
      <property name="transition.halign">center</property>
      <property name="shotcut:animIn">00:00:00.000</property>
      <property name="shotcut:animOut">00:00:00.000</property>
      <property name="transition.threads">0</property>
    </filter>
  </producer>
  <producer id="2_overlay_producer8" in="00:00:00.000" out="03:59:59.983">
    <property name="length">04:00:00.000</property>
    <property name="eof">pause</property>
    <property name="resource">10_a_topologia_dos_espacos_metricos/generated/2_parte_bg_logo.png</property>
    <property name="ttl">1</property>
    <property name="aspect_ratio">1</property>
    <property name="progressive">1</property>
    <property name="seekable">1</property>
    <property name="mlt_service">qimage</property>
    <property name="creation_time">2021-11-23T15:36:23</property>
    <property name="xml">was here</property>
    <property name="shotcut:hash">5dcd114eb000f9bd9ee59792e9729b4e</property>
    <property name="shotcut:caption">bg_logo.png</property>
    <filter id="2_overlay_filter1" out="00:00:10.983">
      <property name="background">color:#00000000</property>
      <property name="mlt_service">affine</property>
      <property name="shotcut:filter">affineSizePosition</property>
      <property name="transition.fill">1</property>
      <property name="transition.distort">0</property>
      <property name="transition.rect">00:00:00.000~=-400 0 1920 1080 1;00:00:01.750=0 0 1920 1080 1;00:00:10.133=0 0 1920 1080 1;00:00:11.000=-400 0 1920 1080 1</property>
      <property name="transition.valign">middle</property>
      <property name="transition.halign">center</property>
      <property name="shotcut:animIn">00:00:00.000</property>
      <property name="shotcut:animOut">00:00:00.000</property>
      <property name="transition.threads">0</property>
    </filter>
  </producer>
  <producer id="2_overlay_producer9" in="00:00:00.000" out="03:59:59.983">
    <property name="length">04:00:00.000</property>
    <property name="eof">pause</property>
    <property name="resource">10_a_topologia_dos_espacos_metricos/generated/parte_static/papito.svg</property>
    <property name="ttl">1</property>
    <property name="aspect_ratio">1</property>
    <property name="progressive">1</property>
    <property name="seekable">1</property>
    <property name="mlt_service">qimage</property>
    <property name="creation_time">2021-11-20T16:56:36</property>
    <property name="shotcut:caption">papito.svg</property>
    <property name="shotcut:hash">24c313bd35ae36447ae1ce8444f40447</property>
    <property name="ignore_points">0</property>
    <property name="xml">was here</property>
    <filter id="2_overlay_filter3" out="00:00:10.983">
      <property name="background">color:#00000000</property>
      <property name="mlt_service">affine</property>
      <property name="shotcut:filter">affineSizePosition</property>
      <property name="transition.fill">1</property>
      <property name="transition.distort">0</property>
      <property name="transition.rect">00:00:01.000=-260 790 224.74 224.74 1;00:00:02.500=93.2948 790 224.74 224.74 1;00:00:09.867=93.2948 790 224.74 224.74 1;00:00:10.667=-260 790 224.74 224.74 1</property>
      <property name="transition.valign">middle</property>
      <property name="transition.halign">center</property>
      <property name="shotcut:animIn">00:00:00.000</property>
      <property name="shotcut:animOut">00:00:00.000</property>
      <property name="transition.threads">0</property>
      <property name="transition.fix_rotate_x">00:00:00.000=0;00:00:01.000=-180;00:00:02.500=0;00:00:09.867=0;00:00:10.667=-180</property>
    </filter>
  </producer>
<!-- Producers (template: topico - 3) -->
  <producer id="3_overlay_producer0" in="00:00:00.000" out="03:59:59.983">
    <property name="length">04:00:00.000</property>
    <property name="eof">pause</property>
    <property name="resource">10_a_topologia_dos_espacos_metricos/generated/3_topico_bg_texto.png</property>
    <property name="ttl">1</property>
    <property name="aspect_ratio">1</property>
    <property name="progressive">1</property>
    <property name="seekable">1</property>
    <property name="mlt_service">qimage</property>
    <property name="creation_time">2021-11-24T18:39:48</property>
    <property name="shotcut:caption">bg_texto.png</property>
    <property name="shotcut:hash">4c2be964607cf7aed64002ed43acb8b8</property>
    <property name="ignore_points">0</property>
    <property name="xml">was here</property>
  </producer>
  <producer id="3_overlay_producer1" in="00:00:00.000" out="00:00:03.983">
    <property name="length">04:00:00.000</property>
    <property name="eof">pause</property>
    <property name="resource">10_a_topologia_dos_espacos_metricos/generated/3_topico_fg_texto.png</property>
    <property name="ttl">1</property>
    <property name="aspect_ratio">1</property>
    <property name="progressive">1</property>
    <property name="seekable">1</property>
    <property name="mlt_service">qimage</property>
    <property name="creation_time">2021-11-24T18:39:48</property>
    <property name="xml">was here</property>
    <property name="shotcut:hash">5bacec81b23f1d0d466c0a533b621f3a</property>
    <property name="shotcut:caption">fg_texto.png</property>
    <property name="ignore_points">1</property>
  </producer>
  <producer id="3_overlay_producer2" in="00:00:00.000" out="03:59:59.983">
    <property name="length">04:00:00.000</property>
    <property name="eof">pause</property>
    <property name="resource">#FF99C1F1</property>
    <property name="aspect_ratio">1</property>
    <property name="mlt_service">color</property>
    <property name="mlt_image_format">rgba</property>
    <property name="shotcut:caption">#FF99C1F1</property>
    <property name="shotcut:detail">#FF99C1F1</property>
    <property name="ignore_points">0</property>
    <property name="xml">was here</property>
    <property name="seekable">1</property>
  </producer>
  <producer id="3_overlay_producer3" in="00:00:00.000" out="03:59:59.983">
    <property name="length">04:00:00.000</property>
    <property name="eof">pause</property>
    <property name="resource">#FF99C1F1</property>
    <property name="aspect_ratio">1</property>
    <property name="mlt_service">color</property>
    <property name="mlt_image_format">rgba</property>
    <property name="shotcut:caption">#FF99C1F1</property>
    <property name="shotcut:detail">#FF99C1F1</property>
    <property name="ignore_points">0</property>
    <property name="xml">was here</property>
    <property name="seekable">1</property>
  </producer>
  <producer id="3_overlay_producer4" in="00:00:00.000" out="03:59:59.983">
    <property name="length">04:00:00.000</property>
    <property name="eof">pause</property>
    <property name="resource">10_a_topologia_dos_espacos_metricos/generated/3_topico_bg_texto.png</property>
    <property name="ttl">1</property>
    <property name="aspect_ratio">1</property>
    <property name="progressive">1</property>
    <property name="seekable">1</property>
    <property name="mlt_service">qimage</property>
    <property name="creation_time">2021-11-24T18:39:48</property>
    <property name="shotcut:caption">bg_texto.png</property>
    <property name="shotcut:hash">4c2be964607cf7aed64002ed43acb8b8</property>
    <property name="ignore_points">0</property>
    <property name="xml">was here</property>
    <filter id="3_overlay_filter1" out="00:00:02.983">
      <property name="start">1</property>
      <property name="level">1</property>
      <property name="mlt_service">brightness</property>
      <property name="shotcut:filter">brightnessOpacity</property>
      <property name="alpha">00:00:00.000=0;00:00:00.250=1;00:00:02.250=1;00:00:02.800=0</property>
      <property name="opacity">00:00:00.000=0;00:00:00.250=1;00:00:02.250=1;00:00:02.800=0</property>
    </filter>
  </producer>
  <producer id="3_overlay_producer5" in="00:00:00.000" out="03:59:59.983">
    <property name="length">04:00:00.000</property>
    <property name="eof">pause</property>
    <property name="resource">10_a_topologia_dos_espacos_metricos/generated/3_topico_fg_texto.png</property>
    <property name="ttl">1</property>
    <property name="aspect_ratio">1</property>
    <property name="progressive">1</property>
    <property name="seekable">1</property>
    <property name="mlt_service">qimage</property>
    <property name="creation_time">2021-11-24T18:39:48</property>
    <property name="xml">was here</property>
    <property name="shotcut:hash">5bacec81b23f1d0d466c0a533b621f3a</property>
    <property name="shotcut:caption">fg_texto.png</property>
    <property name="ignore_points">1</property>
    <filter id="3_overlay_filter0" out="00:00:02.983">
      <property name="start">1</property>
      <property name="level">1</property>
      <property name="mlt_service">brightness</property>
      <property name="shotcut:filter">brightnessOpacity</property>
      <property name="alpha">00:00:00.000=0;00:00:00.250=1;00:00:02.250=1;00:00:02.800=0</property>
      <property name="opacity">00:00:00.000=0;00:00:00.250=1;00:00:02.250=1;00:00:02.800=0</property>
    </filter>
  </producer>
<!-- Producers (template: topico - 4) -->
  <producer id="4_overlay_producer0" in="00:00:00.000" out="03:59:59.983">
    <property name="length">04:00:00.000</property>
    <property name="eof">pause</property>
    <property name="resource">10_a_topologia_dos_espacos_metricos/generated/4_topico_bg_texto.png</property>
    <property name="ttl">1</property>
    <property name="aspect_ratio">1</property>
    <property name="progressive">1</property>
    <property name="seekable">1</property>
    <property name="mlt_service">qimage</property>
    <property name="creation_time">2021-11-24T18:39:48</property>
    <property name="shotcut:caption">bg_texto.png</property>
    <property name="shotcut:hash">76a90bfa90cfd1b814e14caf12ba685b</property>
    <property name="ignore_points">0</property>
    <property name="xml">was here</property>
  </producer>
  <producer id="4_overlay_producer1" in="00:00:00.000" out="00:00:03.983">
    <property name="length">04:00:00.000</property>
    <property name="eof">pause</property>
    <property name="resource">10_a_topologia_dos_espacos_metricos/generated/4_topico_fg_texto.png</property>
    <property name="ttl">1</property>
    <property name="aspect_ratio">1</property>
    <property name="progressive">1</property>
    <property name="seekable">1</property>
    <property name="mlt_service">qimage</property>
    <property name="creation_time">2021-11-24T18:39:48</property>
    <property name="xml">was here</property>
    <property name="shotcut:hash">60b8fdcec51b80bb07f8138499e9c0f9</property>
    <property name="shotcut:caption">fg_texto.png</property>
    <property name="ignore_points">1</property>
  </producer>
  <producer id="4_overlay_producer2" in="00:00:00.000" out="03:59:59.983">
    <property name="length">04:00:00.000</property>
    <property name="eof">pause</property>
    <property name="resource">#FF99C1F1</property>
    <property name="aspect_ratio">1</property>
    <property name="mlt_service">color</property>
    <property name="mlt_image_format">rgba</property>
    <property name="shotcut:caption">#FF99C1F1</property>
    <property name="shotcut:detail">#FF99C1F1</property>
    <property name="ignore_points">0</property>
    <property name="xml">was here</property>
    <property name="seekable">1</property>
  </producer>
  <producer id="4_overlay_producer3" in="00:00:00.000" out="03:59:59.983">
    <property name="length">04:00:00.000</property>
    <property name="eof">pause</property>
    <property name="resource">#FF99C1F1</property>
    <property name="aspect_ratio">1</property>
    <property name="mlt_service">color</property>
    <property name="mlt_image_format">rgba</property>
    <property name="shotcut:caption">#FF99C1F1</property>
    <property name="shotcut:detail">#FF99C1F1</property>
    <property name="ignore_points">0</property>
    <property name="xml">was here</property>
    <property name="seekable">1</property>
  </producer>
  <producer id="4_overlay_producer4" in="00:00:00.000" out="03:59:59.983">
    <property name="length">04:00:00.000</property>
    <property name="eof">pause</property>
    <property name="resource">10_a_topologia_dos_espacos_metricos/generated/4_topico_bg_texto.png</property>
    <property name="ttl">1</property>
    <property name="aspect_ratio">1</property>
    <property name="progressive">1</property>
    <property name="seekable">1</property>
    <property name="mlt_service">qimage</property>
    <property name="creation_time">2021-11-24T18:39:48</property>
    <property name="shotcut:caption">bg_texto.png</property>
    <property name="shotcut:hash">76a90bfa90cfd1b814e14caf12ba685b</property>
    <property name="ignore_points">0</property>
    <property name="xml">was here</property>
    <filter id="4_overlay_filter1" out="00:00:02.983">
      <property name="start">1</property>
      <property name="level">1</property>
      <property name="mlt_service">brightness</property>
      <property name="shotcut:filter">brightnessOpacity</property>
      <property name="alpha">00:00:00.000=0;00:00:00.250=1;00:00:02.250=1;00:00:02.800=0</property>
      <property name="opacity">00:00:00.000=0;00:00:00.250=1;00:00:02.250=1;00:00:02.800=0</property>
    </filter>
  </producer>
  <producer id="4_overlay_producer5" in="00:00:00.000" out="03:59:59.983">
    <property name="length">04:00:00.000</property>
    <property name="eof">pause</property>
    <property name="resource">10_a_topologia_dos_espacos_metricos/generated/4_topico_fg_texto.png</property>
    <property name="ttl">1</property>
    <property name="aspect_ratio">1</property>
    <property name="progressive">1</property>
    <property name="seekable">1</property>
    <property name="mlt_service">qimage</property>
    <property name="creation_time">2021-11-24T18:39:48</property>
    <property name="xml">was here</property>
    <property name="shotcut:hash">60b8fdcec51b80bb07f8138499e9c0f9</property>
    <property name="shotcut:caption">fg_texto.png</property>
    <property name="ignore_points">1</property>
    <filter id="4_overlay_filter0" out="00:00:02.983">
      <property name="start">1</property>
      <property name="level">1</property>
      <property name="mlt_service">brightness</property>
      <property name="shotcut:filter">brightnessOpacity</property>
      <property name="alpha">00:00:00.000=0;00:00:00.250=1;00:00:02.250=1;00:00:02.800=0</property>
      <property name="opacity">00:00:00.000=0;00:00:00.250=1;00:00:02.250=1;00:00:02.800=0</property>
    </filter>
  </producer>
<!-- Producers (template: topico - 5) -->
  <producer id="5_overlay_producer0" in="00:00:00.000" out="03:59:59.983">
    <property name="length">04:00:00.000</property>
    <property name="eof">pause</property>
    <property name="resource">10_a_topologia_dos_espacos_metricos/generated/5_topico_bg_texto.png</property>
    <property name="ttl">1</property>
    <property name="aspect_ratio">1</property>
    <property name="progressive">1</property>
    <property name="seekable">1</property>
    <property name="mlt_service">qimage</property>
    <property name="creation_time">2021-11-24T18:39:48</property>
    <property name="shotcut:caption">bg_texto.png</property>
    <property name="shotcut:hash">521de6667f242e32207ca7d857b84c8a</property>
    <property name="ignore_points">0</property>
    <property name="xml">was here</property>
  </producer>
  <producer id="5_overlay_producer1" in="00:00:00.000" out="00:00:03.983">
    <property name="length">04:00:00.000</property>
    <property name="eof">pause</property>
    <property name="resource">10_a_topologia_dos_espacos_metricos/generated/5_topico_fg_texto.png</property>
    <property name="ttl">1</property>
    <property name="aspect_ratio">1</property>
    <property name="progressive">1</property>
    <property name="seekable">1</property>
    <property name="mlt_service">qimage</property>
    <property name="creation_time">2021-11-24T18:39:48</property>
    <property name="xml">was here</property>
    <property name="shotcut:hash">a316087b47fde375272bf04d73249ff3</property>
    <property name="shotcut:caption">fg_texto.png</property>
    <property name="ignore_points">1</property>
  </producer>
  <producer id="5_overlay_producer2" in="00:00:00.000" out="03:59:59.983">
    <property name="length">04:00:00.000</property>
    <property name="eof">pause</property>
    <property name="resource">#FF99C1F1</property>
    <property name="aspect_ratio">1</property>
    <property name="mlt_service">color</property>
    <property name="mlt_image_format">rgba</property>
    <property name="shotcut:caption">#FF99C1F1</property>
    <property name="shotcut:detail">#FF99C1F1</property>
    <property name="ignore_points">0</property>
    <property name="xml">was here</property>
    <property name="seekable">1</property>
  </producer>
  <producer id="5_overlay_producer3" in="00:00:00.000" out="03:59:59.983">
    <property name="length">04:00:00.000</property>
    <property name="eof">pause</property>
    <property name="resource">#FF99C1F1</property>
    <property name="aspect_ratio">1</property>
    <property name="mlt_service">color</property>
    <property name="mlt_image_format">rgba</property>
    <property name="shotcut:caption">#FF99C1F1</property>
    <property name="shotcut:detail">#FF99C1F1</property>
    <property name="ignore_points">0</property>
    <property name="xml">was here</property>
    <property name="seekable">1</property>
  </producer>
  <producer id="5_overlay_producer4" in="00:00:00.000" out="03:59:59.983">
    <property name="length">04:00:00.000</property>
    <property name="eof">pause</property>
    <property name="resource">10_a_topologia_dos_espacos_metricos/generated/5_topico_bg_texto.png</property>
    <property name="ttl">1</property>
    <property name="aspect_ratio">1</property>
    <property name="progressive">1</property>
    <property name="seekable">1</property>
    <property name="mlt_service">qimage</property>
    <property name="creation_time">2021-11-24T18:39:48</property>
    <property name="shotcut:caption">bg_texto.png</property>
    <property name="shotcut:hash">521de6667f242e32207ca7d857b84c8a</property>
    <property name="ignore_points">0</property>
    <property name="xml">was here</property>
    <filter id="5_overlay_filter1" out="00:00:02.983">
      <property name="start">1</property>
      <property name="level">1</property>
      <property name="mlt_service">brightness</property>
      <property name="shotcut:filter">brightnessOpacity</property>
      <property name="alpha">00:00:00.000=0;00:00:00.250=1;00:00:02.250=1;00:00:02.800=0</property>
      <property name="opacity">00:00:00.000=0;00:00:00.250=1;00:00:02.250=1;00:00:02.800=0</property>
    </filter>
  </producer>
  <producer id="5_overlay_producer5" in="00:00:00.000" out="03:59:59.983">
    <property name="length">04:00:00.000</property>
    <property name="eof">pause</property>
    <property name="resource">10_a_topologia_dos_espacos_metricos/generated/5_topico_fg_texto.png</property>
    <property name="ttl">1</property>
    <property name="aspect_ratio">1</property>
    <property name="progressive">1</property>
    <property name="seekable">1</property>
    <property name="mlt_service">qimage</property>
    <property name="creation_time">2021-11-24T18:39:48</property>
    <property name="xml">was here</property>
    <property name="shotcut:hash">a316087b47fde375272bf04d73249ff3</property>
    <property name="shotcut:caption">fg_texto.png</property>
    <property name="ignore_points">1</property>
    <filter id="5_overlay_filter0" out="00:00:02.983">
      <property name="start">1</property>
      <property name="level">1</property>
      <property name="mlt_service">brightness</property>
      <property name="shotcut:filter">brightnessOpacity</property>
      <property name="alpha">00:00:00.000=0;00:00:00.250=1;00:00:02.250=1;00:00:02.800=0</property>
      <property name="opacity">00:00:00.000=0;00:00:00.250=1;00:00:02.250=1;00:00:02.800=0</property>
    </filter>
  </producer>
<!-- Producers (template: topico - 6) -->
  <producer id="6_overlay_producer0" in="00:00:00.000" out="03:59:59.983">
    <property name="length">04:00:00.000</property>
    <property name="eof">pause</property>
    <property name="resource">10_a_topologia_dos_espacos_metricos/generated/6_topico_bg_texto.png</property>
    <property name="ttl">1</property>
    <property name="aspect_ratio">1</property>
    <property name="progressive">1</property>
    <property name="seekable">1</property>
    <property name="mlt_service">qimage</property>
    <property name="creation_time">2021-11-24T18:39:48</property>
    <property name="shotcut:caption">bg_texto.png</property>
    <property name="shotcut:hash">370e5ea7c56ada67a3a193788834fcf1</property>
    <property name="ignore_points">0</property>
    <property name="xml">was here</property>
  </producer>
  <producer id="6_overlay_producer1" in="00:00:00.000" out="00:00:03.983">
    <property name="length">04:00:00.000</property>
    <property name="eof">pause</property>
    <property name="resource">10_a_topologia_dos_espacos_metricos/generated/6_topico_fg_texto.png</property>
    <property name="ttl">1</property>
    <property name="aspect_ratio">1</property>
    <property name="progressive">1</property>
    <property name="seekable">1</property>
    <property name="mlt_service">qimage</property>
    <property name="creation_time">2021-11-24T18:39:48</property>
    <property name="xml">was here</property>
    <property name="shotcut:hash">560506c54aed8055d71ba7c763f6d251</property>
    <property name="shotcut:caption">fg_texto.png</property>
    <property name="ignore_points">1</property>
  </producer>
  <producer id="6_overlay_producer2" in="00:00:00.000" out="03:59:59.983">
    <property name="length">04:00:00.000</property>
    <property name="eof">pause</property>
    <property name="resource">#FF99C1F1</property>
    <property name="aspect_ratio">1</property>
    <property name="mlt_service">color</property>
    <property name="mlt_image_format">rgba</property>
    <property name="shotcut:caption">#FF99C1F1</property>
    <property name="shotcut:detail">#FF99C1F1</property>
    <property name="ignore_points">0</property>
    <property name="xml">was here</property>
    <property name="seekable">1</property>
  </producer>
  <producer id="6_overlay_producer3" in="00:00:00.000" out="03:59:59.983">
    <property name="length">04:00:00.000</property>
    <property name="eof">pause</property>
    <property name="resource">#FF99C1F1</property>
    <property name="aspect_ratio">1</property>
    <property name="mlt_service">color</property>
    <property name="mlt_image_format">rgba</property>
    <property name="shotcut:caption">#FF99C1F1</property>
    <property name="shotcut:detail">#FF99C1F1</property>
    <property name="ignore_points">0</property>
    <property name="xml">was here</property>
    <property name="seekable">1</property>
  </producer>
  <producer id="6_overlay_producer4" in="00:00:00.000" out="03:59:59.983">
    <property name="length">04:00:00.000</property>
    <property name="eof">pause</property>
    <property name="resource">10_a_topologia_dos_espacos_metricos/generated/6_topico_bg_texto.png</property>
    <property name="ttl">1</property>
    <property name="aspect_ratio">1</property>
    <property name="progressive">1</property>
    <property name="seekable">1</property>
    <property name="mlt_service">qimage</property>
    <property name="creation_time">2021-11-24T18:39:48</property>
    <property name="shotcut:caption">bg_texto.png</property>
    <property name="shotcut:hash">370e5ea7c56ada67a3a193788834fcf1</property>
    <property name="ignore_points">0</property>
    <property name="xml">was here</property>
    <filter id="6_overlay_filter1" out="00:00:02.983">
      <property name="start">1</property>
      <property name="level">1</property>
      <property name="mlt_service">brightness</property>
      <property name="shotcut:filter">brightnessOpacity</property>
      <property name="alpha">00:00:00.000=0;00:00:00.250=1;00:00:02.250=1;00:00:02.800=0</property>
      <property name="opacity">00:00:00.000=0;00:00:00.250=1;00:00:02.250=1;00:00:02.800=0</property>
    </filter>
  </producer>
  <producer id="6_overlay_producer5" in="00:00:00.000" out="03:59:59.983">
    <property name="length">04:00:00.000</property>
    <property name="eof">pause</property>
    <property name="resource">10_a_topologia_dos_espacos_metricos/generated/6_topico_fg_texto.png</property>
    <property name="ttl">1</property>
    <property name="aspect_ratio">1</property>
    <property name="progressive">1</property>
    <property name="seekable">1</property>
    <property name="mlt_service">qimage</property>
    <property name="creation_time">2021-11-24T18:39:48</property>
    <property name="xml">was here</property>
    <property name="shotcut:hash">560506c54aed8055d71ba7c763f6d251</property>
    <property name="shotcut:caption">fg_texto.png</property>
    <property name="ignore_points">1</property>
    <filter id="6_overlay_filter0" out="00:00:02.983">
      <property name="start">1</property>
      <property name="level">1</property>
      <property name="mlt_service">brightness</property>
      <property name="shotcut:filter">brightnessOpacity</property>
      <property name="alpha">00:00:00.000=0;00:00:00.250=1;00:00:02.250=1;00:00:02.800=0</property>
      <property name="opacity">00:00:00.000=0;00:00:00.250=1;00:00:02.250=1;00:00:02.800=0</property>
    </filter>
  </producer>
<!-- Producers (template: topico - 7) -->
  <producer id="7_overlay_producer0" in="00:00:00.000" out="03:59:59.983">
    <property name="length">04:00:00.000</property>
    <property name="eof">pause</property>
    <property name="resource">10_a_topologia_dos_espacos_metricos/generated/7_topico_bg_texto.png</property>
    <property name="ttl">1</property>
    <property name="aspect_ratio">1</property>
    <property name="progressive">1</property>
    <property name="seekable">1</property>
    <property name="mlt_service">qimage</property>
    <property name="creation_time">2021-11-24T18:39:48</property>
    <property name="shotcut:caption">bg_texto.png</property>
    <property name="shotcut:hash">1f8418b870f399bcaea25e85ebf0352b</property>
    <property name="ignore_points">0</property>
    <property name="xml">was here</property>
  </producer>
  <producer id="7_overlay_producer1" in="00:00:00.000" out="00:00:03.983">
    <property name="length">04:00:00.000</property>
    <property name="eof">pause</property>
    <property name="resource">10_a_topologia_dos_espacos_metricos/generated/7_topico_fg_texto.png</property>
    <property name="ttl">1</property>
    <property name="aspect_ratio">1</property>
    <property name="progressive">1</property>
    <property name="seekable">1</property>
    <property name="mlt_service">qimage</property>
    <property name="creation_time">2021-11-24T18:39:48</property>
    <property name="xml">was here</property>
    <property name="shotcut:hash">2fe9e6c27f335fb0d68021313bc2164a</property>
    <property name="shotcut:caption">fg_texto.png</property>
    <property name="ignore_points">1</property>
  </producer>
  <producer id="7_overlay_producer2" in="00:00:00.000" out="03:59:59.983">
    <property name="length">04:00:00.000</property>
    <property name="eof">pause</property>
    <property name="resource">#FF99C1F1</property>
    <property name="aspect_ratio">1</property>
    <property name="mlt_service">color</property>
    <property name="mlt_image_format">rgba</property>
    <property name="shotcut:caption">#FF99C1F1</property>
    <property name="shotcut:detail">#FF99C1F1</property>
    <property name="ignore_points">0</property>
    <property name="xml">was here</property>
    <property name="seekable">1</property>
  </producer>
  <producer id="7_overlay_producer3" in="00:00:00.000" out="03:59:59.983">
    <property name="length">04:00:00.000</property>
    <property name="eof">pause</property>
    <property name="resource">#FF99C1F1</property>
    <property name="aspect_ratio">1</property>
    <property name="mlt_service">color</property>
    <property name="mlt_image_format">rgba</property>
    <property name="shotcut:caption">#FF99C1F1</property>
    <property name="shotcut:detail">#FF99C1F1</property>
    <property name="ignore_points">0</property>
    <property name="xml">was here</property>
    <property name="seekable">1</property>
  </producer>
  <producer id="7_overlay_producer4" in="00:00:00.000" out="03:59:59.983">
    <property name="length">04:00:00.000</property>
    <property name="eof">pause</property>
    <property name="resource">10_a_topologia_dos_espacos_metricos/generated/7_topico_bg_texto.png</property>
    <property name="ttl">1</property>
    <property name="aspect_ratio">1</property>
    <property name="progressive">1</property>
    <property name="seekable">1</property>
    <property name="mlt_service">qimage</property>
    <property name="creation_time">2021-11-24T18:39:48</property>
    <property name="shotcut:caption">bg_texto.png</property>
    <property name="shotcut:hash">1f8418b870f399bcaea25e85ebf0352b</property>
    <property name="ignore_points">0</property>
    <property name="xml">was here</property>
    <filter id="7_overlay_filter1" out="00:00:02.983">
      <property name="start">1</property>
      <property name="level">1</property>
      <property name="mlt_service">brightness</property>
      <property name="shotcut:filter">brightnessOpacity</property>
      <property name="alpha">00:00:00.000=0;00:00:00.250=1;00:00:02.250=1;00:00:02.800=0</property>
      <property name="opacity">00:00:00.000=0;00:00:00.250=1;00:00:02.250=1;00:00:02.800=0</property>
    </filter>
  </producer>
  <producer id="7_overlay_producer5" in="00:00:00.000" out="03:59:59.983">
    <property name="length">04:00:00.000</property>
    <property name="eof">pause</property>
    <property name="resource">10_a_topologia_dos_espacos_metricos/generated/7_topico_fg_texto.png</property>
    <property name="ttl">1</property>
    <property name="aspect_ratio">1</property>
    <property name="progressive">1</property>
    <property name="seekable">1</property>
    <property name="mlt_service">qimage</property>
    <property name="creation_time">2021-11-24T18:39:48</property>
    <property name="xml">was here</property>
    <property name="shotcut:hash">2fe9e6c27f335fb0d68021313bc2164a</property>
    <property name="shotcut:caption">fg_texto.png</property>
    <property name="ignore_points">1</property>
    <filter id="7_overlay_filter0" out="00:00:02.983">
      <property name="start">1</property>
      <property name="level">1</property>
      <property name="mlt_service">brightness</property>
      <property name="shotcut:filter">brightnessOpacity</property>
      <property name="alpha">00:00:00.000=0;00:00:00.250=1;00:00:02.250=1;00:00:02.800=0</property>
      <property name="opacity">00:00:00.000=0;00:00:00.250=1;00:00:02.250=1;00:00:02.800=0</property>
    </filter>
  </producer>
<!-- Producers (template: topico - 8) -->
  <producer id="8_overlay_producer0" in="00:00:00.000" out="03:59:59.983">
    <property name="length">04:00:00.000</property>
    <property name="eof">pause</property>
    <property name="resource">10_a_topologia_dos_espacos_metricos/generated/8_topico_bg_texto.png</property>
    <property name="ttl">1</property>
    <property name="aspect_ratio">1</property>
    <property name="progressive">1</property>
    <property name="seekable">1</property>
    <property name="mlt_service">qimage</property>
    <property name="creation_time">2021-11-24T18:39:48</property>
    <property name="shotcut:caption">bg_texto.png</property>
    <property name="shotcut:hash">95d065f3fa290a10c0ffcb11c757cbf7</property>
    <property name="ignore_points">0</property>
    <property name="xml">was here</property>
  </producer>
  <producer id="8_overlay_producer1" in="00:00:00.000" out="00:00:03.983">
    <property name="length">04:00:00.000</property>
    <property name="eof">pause</property>
    <property name="resource">10_a_topologia_dos_espacos_metricos/generated/8_topico_fg_texto.png</property>
    <property name="ttl">1</property>
    <property name="aspect_ratio">1</property>
    <property name="progressive">1</property>
    <property name="seekable">1</property>
    <property name="mlt_service">qimage</property>
    <property name="creation_time">2021-11-24T18:39:48</property>
    <property name="xml">was here</property>
    <property name="shotcut:hash">a85044d59f65c130b40b27565cf166b1</property>
    <property name="shotcut:caption">fg_texto.png</property>
    <property name="ignore_points">1</property>
  </producer>
  <producer id="8_overlay_producer2" in="00:00:00.000" out="03:59:59.983">
    <property name="length">04:00:00.000</property>
    <property name="eof">pause</property>
    <property name="resource">#FF99C1F1</property>
    <property name="aspect_ratio">1</property>
    <property name="mlt_service">color</property>
    <property name="mlt_image_format">rgba</property>
    <property name="shotcut:caption">#FF99C1F1</property>
    <property name="shotcut:detail">#FF99C1F1</property>
    <property name="ignore_points">0</property>
    <property name="xml">was here</property>
    <property name="seekable">1</property>
  </producer>
  <producer id="8_overlay_producer3" in="00:00:00.000" out="03:59:59.983">
    <property name="length">04:00:00.000</property>
    <property name="eof">pause</property>
    <property name="resource">#FF99C1F1</property>
    <property name="aspect_ratio">1</property>
    <property name="mlt_service">color</property>
    <property name="mlt_image_format">rgba</property>
    <property name="shotcut:caption">#FF99C1F1</property>
    <property name="shotcut:detail">#FF99C1F1</property>
    <property name="ignore_points">0</property>
    <property name="xml">was here</property>
    <property name="seekable">1</property>
  </producer>
  <producer id="8_overlay_producer4" in="00:00:00.000" out="03:59:59.983">
    <property name="length">04:00:00.000</property>
    <property name="eof">pause</property>
    <property name="resource">10_a_topologia_dos_espacos_metricos/generated/8_topico_bg_texto.png</property>
    <property name="ttl">1</property>
    <property name="aspect_ratio">1</property>
    <property name="progressive">1</property>
    <property name="seekable">1</property>
    <property name="mlt_service">qimage</property>
    <property name="creation_time">2021-11-24T18:39:48</property>
    <property name="shotcut:caption">bg_texto.png</property>
    <property name="shotcut:hash">95d065f3fa290a10c0ffcb11c757cbf7</property>
    <property name="ignore_points">0</property>
    <property name="xml">was here</property>
    <filter id="8_overlay_filter1" out="00:00:02.983">
      <property name="start">1</property>
      <property name="level">1</property>
      <property name="mlt_service">brightness</property>
      <property name="shotcut:filter">brightnessOpacity</property>
      <property name="alpha">00:00:00.000=0;00:00:00.250=1;00:00:02.250=1;00:00:02.800=0</property>
      <property name="opacity">00:00:00.000=0;00:00:00.250=1;00:00:02.250=1;00:00:02.800=0</property>
    </filter>
  </producer>
  <producer id="8_overlay_producer5" in="00:00:00.000" out="03:59:59.983">
    <property name="length">04:00:00.000</property>
    <property name="eof">pause</property>
    <property name="resource">10_a_topologia_dos_espacos_metricos/generated/8_topico_fg_texto.png</property>
    <property name="ttl">1</property>
    <property name="aspect_ratio">1</property>
    <property name="progressive">1</property>
    <property name="seekable">1</property>
    <property name="mlt_service">qimage</property>
    <property name="creation_time">2021-11-24T18:39:48</property>
    <property name="xml">was here</property>
    <property name="shotcut:hash">a85044d59f65c130b40b27565cf166b1</property>
    <property name="shotcut:caption">fg_texto.png</property>
    <property name="ignore_points">1</property>
    <filter id="8_overlay_filter0" out="00:00:02.983">
      <property name="start">1</property>
      <property name="level">1</property>
      <property name="mlt_service">brightness</property>
      <property name="shotcut:filter">brightnessOpacity</property>
      <property name="alpha">00:00:00.000=0;00:00:00.250=1;00:00:02.250=1;00:00:02.800=0</property>
      <property name="opacity">00:00:00.000=0;00:00:00.250=1;00:00:02.250=1;00:00:02.800=0</property>
    </filter>
  </producer>
<!-- Producers (template: topico - 9) -->
  <producer id="9_overlay_producer0" in="00:00:00.000" out="03:59:59.983">
    <property name="length">04:00:00.000</property>
    <property name="eof">pause</property>
    <property name="resource">10_a_topologia_dos_espacos_metricos/generated/9_topico_bg_texto.png</property>
    <property name="ttl">1</property>
    <property name="aspect_ratio">1</property>
    <property name="progressive">1</property>
    <property name="seekable">1</property>
    <property name="mlt_service">qimage</property>
    <property name="creation_time">2021-11-24T18:39:48</property>
    <property name="shotcut:caption">bg_texto.png</property>
    <property name="shotcut:hash">357a3719cbc61dfc2c642e69da931ac1</property>
    <property name="ignore_points">0</property>
    <property name="xml">was here</property>
  </producer>
  <producer id="9_overlay_producer1" in="00:00:00.000" out="00:00:03.983">
    <property name="length">04:00:00.000</property>
    <property name="eof">pause</property>
    <property name="resource">10_a_topologia_dos_espacos_metricos/generated/9_topico_fg_texto.png</property>
    <property name="ttl">1</property>
    <property name="aspect_ratio">1</property>
    <property name="progressive">1</property>
    <property name="seekable">1</property>
    <property name="mlt_service">qimage</property>
    <property name="creation_time">2021-11-24T18:39:48</property>
    <property name="xml">was here</property>
    <property name="shotcut:hash">80e3a280b2f24405524d6a4e98a3fba5</property>
    <property name="shotcut:caption">fg_texto.png</property>
    <property name="ignore_points">1</property>
  </producer>
  <producer id="9_overlay_producer2" in="00:00:00.000" out="03:59:59.983">
    <property name="length">04:00:00.000</property>
    <property name="eof">pause</property>
    <property name="resource">#FF99C1F1</property>
    <property name="aspect_ratio">1</property>
    <property name="mlt_service">color</property>
    <property name="mlt_image_format">rgba</property>
    <property name="shotcut:caption">#FF99C1F1</property>
    <property name="shotcut:detail">#FF99C1F1</property>
    <property name="ignore_points">0</property>
    <property name="xml">was here</property>
    <property name="seekable">1</property>
  </producer>
  <producer id="9_overlay_producer3" in="00:00:00.000" out="03:59:59.983">
    <property name="length">04:00:00.000</property>
    <property name="eof">pause</property>
    <property name="resource">#FF99C1F1</property>
    <property name="aspect_ratio">1</property>
    <property name="mlt_service">color</property>
    <property name="mlt_image_format">rgba</property>
    <property name="shotcut:caption">#FF99C1F1</property>
    <property name="shotcut:detail">#FF99C1F1</property>
    <property name="ignore_points">0</property>
    <property name="xml">was here</property>
    <property name="seekable">1</property>
  </producer>
  <producer id="9_overlay_producer4" in="00:00:00.000" out="03:59:59.983">
    <property name="length">04:00:00.000</property>
    <property name="eof">pause</property>
    <property name="resource">10_a_topologia_dos_espacos_metricos/generated/9_topico_bg_texto.png</property>
    <property name="ttl">1</property>
    <property name="aspect_ratio">1</property>
    <property name="progressive">1</property>
    <property name="seekable">1</property>
    <property name="mlt_service">qimage</property>
    <property name="creation_time">2021-11-24T18:39:48</property>
    <property name="shotcut:caption">bg_texto.png</property>
    <property name="shotcut:hash">357a3719cbc61dfc2c642e69da931ac1</property>
    <property name="ignore_points">0</property>
    <property name="xml">was here</property>
    <filter id="9_overlay_filter1" out="00:00:02.983">
      <property name="start">1</property>
      <property name="level">1</property>
      <property name="mlt_service">brightness</property>
      <property name="shotcut:filter">brightnessOpacity</property>
      <property name="alpha">00:00:00.000=0;00:00:00.250=1;00:00:02.250=1;00:00:02.800=0</property>
      <property name="opacity">00:00:00.000=0;00:00:00.250=1;00:00:02.250=1;00:00:02.800=0</property>
    </filter>
  </producer>
  <producer id="9_overlay_producer5" in="00:00:00.000" out="03:59:59.983">
    <property name="length">04:00:00.000</property>
    <property name="eof">pause</property>
    <property name="resource">10_a_topologia_dos_espacos_metricos/generated/9_topico_fg_texto.png</property>
    <property name="ttl">1</property>
    <property name="aspect_ratio">1</property>
    <property name="progressive">1</property>
    <property name="seekable">1</property>
    <property name="mlt_service">qimage</property>
    <property name="creation_time">2021-11-24T18:39:48</property>
    <property name="xml">was here</property>
    <property name="shotcut:hash">80e3a280b2f24405524d6a4e98a3fba5</property>
    <property name="shotcut:caption">fg_texto.png</property>
    <property name="ignore_points">1</property>
    <filter id="9_overlay_filter0" out="00:00:02.983">
      <property name="start">1</property>
      <property name="level">1</property>
      <property name="mlt_service">brightness</property>
      <property name="shotcut:filter">brightnessOpacity</property>
      <property name="alpha">00:00:00.000=0;00:00:00.250=1;00:00:02.250=1;00:00:02.800=0</property>
      <property name="opacity">00:00:00.000=0;00:00:00.250=1;00:00:02.250=1;00:00:02.800=0</property>
    </filter>
  </producer>
<!-- Producers (template: topico - 10) -->
  <producer id="10_overlay_producer0" in="00:00:00.000" out="03:59:59.983">
    <property name="length">04:00:00.000</property>
    <property name="eof">pause</property>
    <property name="resource">10_a_topologia_dos_espacos_metricos/generated/10_topico_bg_texto.png</property>
    <property name="ttl">1</property>
    <property name="aspect_ratio">1</property>
    <property name="progressive">1</property>
    <property name="seekable">1</property>
    <property name="mlt_service">qimage</property>
    <property name="creation_time">2021-11-24T18:39:48</property>
    <property name="shotcut:caption">bg_texto.png</property>
    <property name="shotcut:hash">4c2be964607cf7aed64002ed43acb8b8</property>
    <property name="ignore_points">0</property>
    <property name="xml">was here</property>
  </producer>
  <producer id="10_overlay_producer1" in="00:00:00.000" out="00:00:03.983">
    <property name="length">04:00:00.000</property>
    <property name="eof">pause</property>
    <property name="resource">10_a_topologia_dos_espacos_metricos/generated/10_topico_fg_texto.png</property>
    <property name="ttl">1</property>
    <property name="aspect_ratio">1</property>
    <property name="progressive">1</property>
    <property name="seekable">1</property>
    <property name="mlt_service">qimage</property>
    <property name="creation_time">2021-11-24T18:39:48</property>
    <property name="xml">was here</property>
    <property name="shotcut:hash">5bacec81b23f1d0d466c0a533b621f3a</property>
    <property name="shotcut:caption">fg_texto.png</property>
    <property name="ignore_points">1</property>
  </producer>
  <producer id="10_overlay_producer2" in="00:00:00.000" out="03:59:59.983">
    <property name="length">04:00:00.000</property>
    <property name="eof">pause</property>
    <property name="resource">#FF99C1F1</property>
    <property name="aspect_ratio">1</property>
    <property name="mlt_service">color</property>
    <property name="mlt_image_format">rgba</property>
    <property name="shotcut:caption">#FF99C1F1</property>
    <property name="shotcut:detail">#FF99C1F1</property>
    <property name="ignore_points">0</property>
    <property name="xml">was here</property>
    <property name="seekable">1</property>
  </producer>
  <producer id="10_overlay_producer3" in="00:00:00.000" out="03:59:59.983">
    <property name="length">04:00:00.000</property>
    <property name="eof">pause</property>
    <property name="resource">#FF99C1F1</property>
    <property name="aspect_ratio">1</property>
    <property name="mlt_service">color</property>
    <property name="mlt_image_format">rgba</property>
    <property name="shotcut:caption">#FF99C1F1</property>
    <property name="shotcut:detail">#FF99C1F1</property>
    <property name="ignore_points">0</property>
    <property name="xml">was here</property>
    <property name="seekable">1</property>
  </producer>
  <producer id="10_overlay_producer4" in="00:00:00.000" out="03:59:59.983">
    <property name="length">04:00:00.000</property>
    <property name="eof">pause</property>
    <property name="resource">10_a_topologia_dos_espacos_metricos/generated/10_topico_bg_texto.png</property>
    <property name="ttl">1</property>
    <property name="aspect_ratio">1</property>
    <property name="progressive">1</property>
    <property name="seekable">1</property>
    <property name="mlt_service">qimage</property>
    <property name="creation_time">2021-11-24T18:39:48</property>
    <property name="shotcut:caption">bg_texto.png</property>
    <property name="shotcut:hash">4c2be964607cf7aed64002ed43acb8b8</property>
    <property name="ignore_points">0</property>
    <property name="xml">was here</property>
    <filter id="10_overlay_filter1" out="00:00:02.983">
      <property name="start">1</property>
      <property name="level">1</property>
      <property name="mlt_service">brightness</property>
      <property name="shotcut:filter">brightnessOpacity</property>
      <property name="alpha">00:00:00.000=0;00:00:00.250=1;00:00:02.250=1;00:00:02.800=0</property>
      <property name="opacity">00:00:00.000=0;00:00:00.250=1;00:00:02.250=1;00:00:02.800=0</property>
    </filter>
  </producer>
  <producer id="10_overlay_producer5" in="00:00:00.000" out="03:59:59.983">
    <property name="length">04:00:00.000</property>
    <property name="eof">pause</property>
    <property name="resource">10_a_topologia_dos_espacos_metricos/generated/10_topico_fg_texto.png</property>
    <property name="ttl">1</property>
    <property name="aspect_ratio">1</property>
    <property name="progressive">1</property>
    <property name="seekable">1</property>
    <property name="mlt_service">qimage</property>
    <property name="creation_time">2021-11-24T18:39:48</property>
    <property name="xml">was here</property>
    <property name="shotcut:hash">5bacec81b23f1d0d466c0a533b621f3a</property>
    <property name="shotcut:caption">fg_texto.png</property>
    <property name="ignore_points">1</property>
    <filter id="10_overlay_filter0" out="00:00:02.983">
      <property name="start">1</property>
      <property name="level">1</property>
      <property name="mlt_service">brightness</property>
      <property name="shotcut:filter">brightnessOpacity</property>
      <property name="alpha">00:00:00.000=0;00:00:00.250=1;00:00:02.250=1;00:00:02.800=0</property>
      <property name="opacity">00:00:00.000=0;00:00:00.250=1;00:00:02.250=1;00:00:02.800=0</property>
    </filter>
  </producer>
<!-- Producers (template: topico - 11) -->
  <producer id="11_overlay_producer0" in="00:00:00.000" out="03:59:59.983">
    <property name="length">04:00:00.000</property>
    <property name="eof">pause</property>
    <property name="resource">10_a_topologia_dos_espacos_metricos/generated/11_topico_bg_texto.png</property>
    <property name="ttl">1</property>
    <property name="aspect_ratio">1</property>
    <property name="progressive">1</property>
    <property name="seekable">1</property>
    <property name="mlt_service">qimage</property>
    <property name="creation_time">2021-11-24T18:39:48</property>
    <property name="shotcut:caption">bg_texto.png</property>
    <property name="shotcut:hash">85eb4ebb421621ccabce0278a2a6bd06</property>
    <property name="ignore_points">0</property>
    <property name="xml">was here</property>
  </producer>
  <producer id="11_overlay_producer1" in="00:00:00.000" out="00:00:03.983">
    <property name="length">04:00:00.000</property>
    <property name="eof">pause</property>
    <property name="resource">10_a_topologia_dos_espacos_metricos/generated/11_topico_fg_texto.png</property>
    <property name="ttl">1</property>
    <property name="aspect_ratio">1</property>
    <property name="progressive">1</property>
    <property name="seekable">1</property>
    <property name="mlt_service">qimage</property>
    <property name="creation_time">2021-11-24T18:39:48</property>
    <property name="xml">was here</property>
    <property name="shotcut:hash">7fd54ae6d584997bc1822b40a24bc635</property>
    <property name="shotcut:caption">fg_texto.png</property>
    <property name="ignore_points">1</property>
  </producer>
  <producer id="11_overlay_producer2" in="00:00:00.000" out="03:59:59.983">
    <property name="length">04:00:00.000</property>
    <property name="eof">pause</property>
    <property name="resource">#FF99C1F1</property>
    <property name="aspect_ratio">1</property>
    <property name="mlt_service">color</property>
    <property name="mlt_image_format">rgba</property>
    <property name="shotcut:caption">#FF99C1F1</property>
    <property name="shotcut:detail">#FF99C1F1</property>
    <property name="ignore_points">0</property>
    <property name="xml">was here</property>
    <property name="seekable">1</property>
  </producer>
  <producer id="11_overlay_producer3" in="00:00:00.000" out="03:59:59.983">
    <property name="length">04:00:00.000</property>
    <property name="eof">pause</property>
    <property name="resource">#FF99C1F1</property>
    <property name="aspect_ratio">1</property>
    <property name="mlt_service">color</property>
    <property name="mlt_image_format">rgba</property>
    <property name="shotcut:caption">#FF99C1F1</property>
    <property name="shotcut:detail">#FF99C1F1</property>
    <property name="ignore_points">0</property>
    <property name="xml">was here</property>
    <property name="seekable">1</property>
  </producer>
  <producer id="11_overlay_producer4" in="00:00:00.000" out="03:59:59.983">
    <property name="length">04:00:00.000</property>
    <property name="eof">pause</property>
    <property name="resource">10_a_topologia_dos_espacos_metricos/generated/11_topico_bg_texto.png</property>
    <property name="ttl">1</property>
    <property name="aspect_ratio">1</property>
    <property name="progressive">1</property>
    <property name="seekable">1</property>
    <property name="mlt_service">qimage</property>
    <property name="creation_time">2021-11-24T18:39:48</property>
    <property name="shotcut:caption">bg_texto.png</property>
    <property name="shotcut:hash">85eb4ebb421621ccabce0278a2a6bd06</property>
    <property name="ignore_points">0</property>
    <property name="xml">was here</property>
    <filter id="11_overlay_filter1" out="00:00:02.983">
      <property name="start">1</property>
      <property name="level">1</property>
      <property name="mlt_service">brightness</property>
      <property name="shotcut:filter">brightnessOpacity</property>
      <property name="alpha">00:00:00.000=0;00:00:00.250=1;00:00:02.250=1;00:00:02.800=0</property>
      <property name="opacity">00:00:00.000=0;00:00:00.250=1;00:00:02.250=1;00:00:02.800=0</property>
    </filter>
  </producer>
  <producer id="11_overlay_producer5" in="00:00:00.000" out="03:59:59.983">
    <property name="length">04:00:00.000</property>
    <property name="eof">pause</property>
    <property name="resource">10_a_topologia_dos_espacos_metricos/generated/11_topico_fg_texto.png</property>
    <property name="ttl">1</property>
    <property name="aspect_ratio">1</property>
    <property name="progressive">1</property>
    <property name="seekable">1</property>
    <property name="mlt_service">qimage</property>
    <property name="creation_time">2021-11-24T18:39:48</property>
    <property name="xml">was here</property>
    <property name="shotcut:hash">7fd54ae6d584997bc1822b40a24bc635</property>
    <property name="shotcut:caption">fg_texto.png</property>
    <property name="ignore_points">1</property>
    <filter id="11_overlay_filter0" out="00:00:02.983">
      <property name="start">1</property>
      <property name="level">1</property>
      <property name="mlt_service">brightness</property>
      <property name="shotcut:filter">brightnessOpacity</property>
      <property name="alpha">00:00:00.000=0;00:00:00.250=1;00:00:02.250=1;00:00:02.800=0</property>
      <property name="opacity">00:00:00.000=0;00:00:00.250=1;00:00:02.250=1;00:00:02.800=0</property>
    </filter>
  </producer>
<!-- Producers (template: topico - 12) -->
  <producer id="12_overlay_producer0" in="00:00:00.000" out="03:59:59.983">
    <property name="length">04:00:00.000</property>
    <property name="eof">pause</property>
    <property name="resource">10_a_topologia_dos_espacos_metricos/generated/12_topico_bg_texto.png</property>
    <property name="ttl">1</property>
    <property name="aspect_ratio">1</property>
    <property name="progressive">1</property>
    <property name="seekable">1</property>
    <property name="mlt_service">qimage</property>
    <property name="creation_time">2021-11-24T18:39:48</property>
    <property name="shotcut:caption">bg_texto.png</property>
    <property name="shotcut:hash">e33c35ffc77d5f118a3b0a248223ccb0</property>
    <property name="ignore_points">0</property>
    <property name="xml">was here</property>
  </producer>
  <producer id="12_overlay_producer1" in="00:00:00.000" out="00:00:03.983">
    <property name="length">04:00:00.000</property>
    <property name="eof">pause</property>
    <property name="resource">10_a_topologia_dos_espacos_metricos/generated/12_topico_fg_texto.png</property>
    <property name="ttl">1</property>
    <property name="aspect_ratio">1</property>
    <property name="progressive">1</property>
    <property name="seekable">1</property>
    <property name="mlt_service">qimage</property>
    <property name="creation_time">2021-11-24T18:39:48</property>
    <property name="xml">was here</property>
    <property name="shotcut:hash">417ef018284a0ab2a1a772c1ac5276d7</property>
    <property name="shotcut:caption">fg_texto.png</property>
    <property name="ignore_points">1</property>
  </producer>
  <producer id="12_overlay_producer2" in="00:00:00.000" out="03:59:59.983">
    <property name="length">04:00:00.000</property>
    <property name="eof">pause</property>
    <property name="resource">#FF99C1F1</property>
    <property name="aspect_ratio">1</property>
    <property name="mlt_service">color</property>
    <property name="mlt_image_format">rgba</property>
    <property name="shotcut:caption">#FF99C1F1</property>
    <property name="shotcut:detail">#FF99C1F1</property>
    <property name="ignore_points">0</property>
    <property name="xml">was here</property>
    <property name="seekable">1</property>
  </producer>
  <producer id="12_overlay_producer3" in="00:00:00.000" out="03:59:59.983">
    <property name="length">04:00:00.000</property>
    <property name="eof">pause</property>
    <property name="resource">#FF99C1F1</property>
    <property name="aspect_ratio">1</property>
    <property name="mlt_service">color</property>
    <property name="mlt_image_format">rgba</property>
    <property name="shotcut:caption">#FF99C1F1</property>
    <property name="shotcut:detail">#FF99C1F1</property>
    <property name="ignore_points">0</property>
    <property name="xml">was here</property>
    <property name="seekable">1</property>
  </producer>
  <producer id="12_overlay_producer4" in="00:00:00.000" out="03:59:59.983">
    <property name="length">04:00:00.000</property>
    <property name="eof">pause</property>
    <property name="resource">10_a_topologia_dos_espacos_metricos/generated/12_topico_bg_texto.png</property>
    <property name="ttl">1</property>
    <property name="aspect_ratio">1</property>
    <property name="progressive">1</property>
    <property name="seekable">1</property>
    <property name="mlt_service">qimage</property>
    <property name="creation_time">2021-11-24T18:39:48</property>
    <property name="shotcut:caption">bg_texto.png</property>
    <property name="shotcut:hash">e33c35ffc77d5f118a3b0a248223ccb0</property>
    <property name="ignore_points">0</property>
    <property name="xml">was here</property>
    <filter id="12_overlay_filter1" out="00:00:02.983">
      <property name="start">1</property>
      <property name="level">1</property>
      <property name="mlt_service">brightness</property>
      <property name="shotcut:filter">brightnessOpacity</property>
      <property name="alpha">00:00:00.000=0;00:00:00.250=1;00:00:02.250=1;00:00:02.800=0</property>
      <property name="opacity">00:00:00.000=0;00:00:00.250=1;00:00:02.250=1;00:00:02.800=0</property>
    </filter>
  </producer>
  <producer id="12_overlay_producer5" in="00:00:00.000" out="03:59:59.983">
    <property name="length">04:00:00.000</property>
    <property name="eof">pause</property>
    <property name="resource">10_a_topologia_dos_espacos_metricos/generated/12_topico_fg_texto.png</property>
    <property name="ttl">1</property>
    <property name="aspect_ratio">1</property>
    <property name="progressive">1</property>
    <property name="seekable">1</property>
    <property name="mlt_service">qimage</property>
    <property name="creation_time">2021-11-24T18:39:48</property>
    <property name="xml">was here</property>
    <property name="shotcut:hash">417ef018284a0ab2a1a772c1ac5276d7</property>
    <property name="shotcut:caption">fg_texto.png</property>
    <property name="ignore_points">1</property>
    <filter id="12_overlay_filter0" out="00:00:02.983">
      <property name="start">1</property>
      <property name="level">1</property>
      <property name="mlt_service">brightness</property>
      <property name="shotcut:filter">brightnessOpacity</property>
      <property name="alpha">00:00:00.000=0;00:00:00.250=1;00:00:02.250=1;00:00:02.800=0</property>
      <property name="opacity">00:00:00.000=0;00:00:00.250=1;00:00:02.250=1;00:00:02.800=0</property>
    </filter>
  </producer>
<!-- Producers (template: topico - 13) -->
  <producer id="13_overlay_producer0" in="00:00:00.000" out="03:59:59.983">
    <property name="length">04:00:00.000</property>
    <property name="eof">pause</property>
    <property name="resource">10_a_topologia_dos_espacos_metricos/generated/13_topico_bg_texto.png</property>
    <property name="ttl">1</property>
    <property name="aspect_ratio">1</property>
    <property name="progressive">1</property>
    <property name="seekable">1</property>
    <property name="mlt_service">qimage</property>
    <property name="creation_time">2021-11-24T18:39:48</property>
    <property name="shotcut:caption">bg_texto.png</property>
    <property name="shotcut:hash">e999dce818c113ec5475213ca4ed8a59</property>
    <property name="ignore_points">0</property>
    <property name="xml">was here</property>
  </producer>
  <producer id="13_overlay_producer1" in="00:00:00.000" out="00:00:03.983">
    <property name="length">04:00:00.000</property>
    <property name="eof">pause</property>
    <property name="resource">10_a_topologia_dos_espacos_metricos/generated/13_topico_fg_texto.png</property>
    <property name="ttl">1</property>
    <property name="aspect_ratio">1</property>
    <property name="progressive">1</property>
    <property name="seekable">1</property>
    <property name="mlt_service">qimage</property>
    <property name="creation_time">2021-11-24T18:39:48</property>
    <property name="xml">was here</property>
    <property name="shotcut:hash">95478fbd810ff096e9562be1e543c7b8</property>
    <property name="shotcut:caption">fg_texto.png</property>
    <property name="ignore_points">1</property>
  </producer>
  <producer id="13_overlay_producer2" in="00:00:00.000" out="03:59:59.983">
    <property name="length">04:00:00.000</property>
    <property name="eof">pause</property>
    <property name="resource">#FF99C1F1</property>
    <property name="aspect_ratio">1</property>
    <property name="mlt_service">color</property>
    <property name="mlt_image_format">rgba</property>
    <property name="shotcut:caption">#FF99C1F1</property>
    <property name="shotcut:detail">#FF99C1F1</property>
    <property name="ignore_points">0</property>
    <property name="xml">was here</property>
    <property name="seekable">1</property>
  </producer>
  <producer id="13_overlay_producer3" in="00:00:00.000" out="03:59:59.983">
    <property name="length">04:00:00.000</property>
    <property name="eof">pause</property>
    <property name="resource">#FF99C1F1</property>
    <property name="aspect_ratio">1</property>
    <property name="mlt_service">color</property>
    <property name="mlt_image_format">rgba</property>
    <property name="shotcut:caption">#FF99C1F1</property>
    <property name="shotcut:detail">#FF99C1F1</property>
    <property name="ignore_points">0</property>
    <property name="xml">was here</property>
    <property name="seekable">1</property>
  </producer>
  <producer id="13_overlay_producer4" in="00:00:00.000" out="03:59:59.983">
    <property name="length">04:00:00.000</property>
    <property name="eof">pause</property>
    <property name="resource">10_a_topologia_dos_espacos_metricos/generated/13_topico_bg_texto.png</property>
    <property name="ttl">1</property>
    <property name="aspect_ratio">1</property>
    <property name="progressive">1</property>
    <property name="seekable">1</property>
    <property name="mlt_service">qimage</property>
    <property name="creation_time">2021-11-24T18:39:48</property>
    <property name="shotcut:caption">bg_texto.png</property>
    <property name="shotcut:hash">e999dce818c113ec5475213ca4ed8a59</property>
    <property name="ignore_points">0</property>
    <property name="xml">was here</property>
    <filter id="13_overlay_filter1" out="00:00:02.983">
      <property name="start">1</property>
      <property name="level">1</property>
      <property name="mlt_service">brightness</property>
      <property name="shotcut:filter">brightnessOpacity</property>
      <property name="alpha">00:00:00.000=0;00:00:00.250=1;00:00:02.250=1;00:00:02.800=0</property>
      <property name="opacity">00:00:00.000=0;00:00:00.250=1;00:00:02.250=1;00:00:02.800=0</property>
    </filter>
  </producer>
  <producer id="13_overlay_producer5" in="00:00:00.000" out="03:59:59.983">
    <property name="length">04:00:00.000</property>
    <property name="eof">pause</property>
    <property name="resource">10_a_topologia_dos_espacos_metricos/generated/13_topico_fg_texto.png</property>
    <property name="ttl">1</property>
    <property name="aspect_ratio">1</property>
    <property name="progressive">1</property>
    <property name="seekable">1</property>
    <property name="mlt_service">qimage</property>
    <property name="creation_time">2021-11-24T18:39:48</property>
    <property name="xml">was here</property>
    <property name="shotcut:hash">95478fbd810ff096e9562be1e543c7b8</property>
    <property name="shotcut:caption">fg_texto.png</property>
    <property name="ignore_points">1</property>
    <filter id="13_overlay_filter0" out="00:00:02.983">
      <property name="start">1</property>
      <property name="level">1</property>
      <property name="mlt_service">brightness</property>
      <property name="shotcut:filter">brightnessOpacity</property>
      <property name="alpha">00:00:00.000=0;00:00:00.250=1;00:00:02.250=1;00:00:02.800=0</property>
      <property name="opacity">00:00:00.000=0;00:00:00.250=1;00:00:02.250=1;00:00:02.800=0</property>
    </filter>
  </producer>
<!-- Producers (template: topico - 14) -->
  <producer id="14_overlay_producer0" in="00:00:00.000" out="03:59:59.983">
    <property name="length">04:00:00.000</property>
    <property name="eof">pause</property>
    <property name="resource">10_a_topologia_dos_espacos_metricos/generated/14_topico_bg_texto.png</property>
    <property name="ttl">1</property>
    <property name="aspect_ratio">1</property>
    <property name="progressive">1</property>
    <property name="seekable">1</property>
    <property name="mlt_service">qimage</property>
    <property name="creation_time">2021-11-24T18:39:48</property>
    <property name="shotcut:caption">bg_texto.png</property>
    <property name="shotcut:hash">9d57d685e135191db2656afa0bd357f2</property>
    <property name="ignore_points">0</property>
    <property name="xml">was here</property>
  </producer>
  <producer id="14_overlay_producer1" in="00:00:00.000" out="00:00:03.983">
    <property name="length">04:00:00.000</property>
    <property name="eof">pause</property>
    <property name="resource">10_a_topologia_dos_espacos_metricos/generated/14_topico_fg_texto.png</property>
    <property name="ttl">1</property>
    <property name="aspect_ratio">1</property>
    <property name="progressive">1</property>
    <property name="seekable">1</property>
    <property name="mlt_service">qimage</property>
    <property name="creation_time">2021-11-24T18:39:48</property>
    <property name="xml">was here</property>
    <property name="shotcut:hash">28ff028235e52daf2620ef0ab4733686</property>
    <property name="shotcut:caption">fg_texto.png</property>
    <property name="ignore_points">1</property>
  </producer>
  <producer id="14_overlay_producer2" in="00:00:00.000" out="03:59:59.983">
    <property name="length">04:00:00.000</property>
    <property name="eof">pause</property>
    <property name="resource">#FF99C1F1</property>
    <property name="aspect_ratio">1</property>
    <property name="mlt_service">color</property>
    <property name="mlt_image_format">rgba</property>
    <property name="shotcut:caption">#FF99C1F1</property>
    <property name="shotcut:detail">#FF99C1F1</property>
    <property name="ignore_points">0</property>
    <property name="xml">was here</property>
    <property name="seekable">1</property>
  </producer>
  <producer id="14_overlay_producer3" in="00:00:00.000" out="03:59:59.983">
    <property name="length">04:00:00.000</property>
    <property name="eof">pause</property>
    <property name="resource">#FF99C1F1</property>
    <property name="aspect_ratio">1</property>
    <property name="mlt_service">color</property>
    <property name="mlt_image_format">rgba</property>
    <property name="shotcut:caption">#FF99C1F1</property>
    <property name="shotcut:detail">#FF99C1F1</property>
    <property name="ignore_points">0</property>
    <property name="xml">was here</property>
    <property name="seekable">1</property>
  </producer>
  <producer id="14_overlay_producer4" in="00:00:00.000" out="03:59:59.983">
    <property name="length">04:00:00.000</property>
    <property name="eof">pause</property>
    <property name="resource">10_a_topologia_dos_espacos_metricos/generated/14_topico_bg_texto.png</property>
    <property name="ttl">1</property>
    <property name="aspect_ratio">1</property>
    <property name="progressive">1</property>
    <property name="seekable">1</property>
    <property name="mlt_service">qimage</property>
    <property name="creation_time">2021-11-24T18:39:48</property>
    <property name="shotcut:caption">bg_texto.png</property>
    <property name="shotcut:hash">9d57d685e135191db2656afa0bd357f2</property>
    <property name="ignore_points">0</property>
    <property name="xml">was here</property>
    <filter id="14_overlay_filter1" out="00:00:02.983">
      <property name="start">1</property>
      <property name="level">1</property>
      <property name="mlt_service">brightness</property>
      <property name="shotcut:filter">brightnessOpacity</property>
      <property name="alpha">00:00:00.000=0;00:00:00.250=1;00:00:02.250=1;00:00:02.800=0</property>
      <property name="opacity">00:00:00.000=0;00:00:00.250=1;00:00:02.250=1;00:00:02.800=0</property>
    </filter>
  </producer>
  <producer id="14_overlay_producer5" in="00:00:00.000" out="03:59:59.983">
    <property name="length">04:00:00.000</property>
    <property name="eof">pause</property>
    <property name="resource">10_a_topologia_dos_espacos_metricos/generated/14_topico_fg_texto.png</property>
    <property name="ttl">1</property>
    <property name="aspect_ratio">1</property>
    <property name="progressive">1</property>
    <property name="seekable">1</property>
    <property name="mlt_service">qimage</property>
    <property name="creation_time">2021-11-24T18:39:48</property>
    <property name="xml">was here</property>
    <property name="shotcut:hash">28ff028235e52daf2620ef0ab4733686</property>
    <property name="shotcut:caption">fg_texto.png</property>
    <property name="ignore_points">1</property>
    <filter id="14_overlay_filter0" out="00:00:02.983">
      <property name="start">1</property>
      <property name="level">1</property>
      <property name="mlt_service">brightness</property>
      <property name="shotcut:filter">brightnessOpacity</property>
      <property name="alpha">00:00:00.000=0;00:00:00.250=1;00:00:02.250=1;00:00:02.800=0</property>
      <property name="opacity">00:00:00.000=0;00:00:00.250=1;00:00:02.250=1;00:00:02.800=0</property>
    </filter>
  </producer>
<!-- Producers (template: topico - 15) -->
  <producer id="15_overlay_producer0" in="00:00:00.000" out="03:59:59.983">
    <property name="length">04:00:00.000</property>
    <property name="eof">pause</property>
    <property name="resource">10_a_topologia_dos_espacos_metricos/generated/15_topico_bg_texto.png</property>
    <property name="ttl">1</property>
    <property name="aspect_ratio">1</property>
    <property name="progressive">1</property>
    <property name="seekable">1</property>
    <property name="mlt_service">qimage</property>
    <property name="creation_time">2021-11-24T18:39:48</property>
    <property name="shotcut:caption">bg_texto.png</property>
    <property name="shotcut:hash">733fbaad85e4e84b053e722906c3c6f8</property>
    <property name="ignore_points">0</property>
    <property name="xml">was here</property>
  </producer>
  <producer id="15_overlay_producer1" in="00:00:00.000" out="00:00:03.983">
    <property name="length">04:00:00.000</property>
    <property name="eof">pause</property>
    <property name="resource">10_a_topologia_dos_espacos_metricos/generated/15_topico_fg_texto.png</property>
    <property name="ttl">1</property>
    <property name="aspect_ratio">1</property>
    <property name="progressive">1</property>
    <property name="seekable">1</property>
    <property name="mlt_service">qimage</property>
    <property name="creation_time">2021-11-24T18:39:48</property>
    <property name="xml">was here</property>
    <property name="shotcut:hash">f41e43f2e32aafda94e1247406ce6c28</property>
    <property name="shotcut:caption">fg_texto.png</property>
    <property name="ignore_points">1</property>
  </producer>
  <producer id="15_overlay_producer2" in="00:00:00.000" out="03:59:59.983">
    <property name="length">04:00:00.000</property>
    <property name="eof">pause</property>
    <property name="resource">#FF99C1F1</property>
    <property name="aspect_ratio">1</property>
    <property name="mlt_service">color</property>
    <property name="mlt_image_format">rgba</property>
    <property name="shotcut:caption">#FF99C1F1</property>
    <property name="shotcut:detail">#FF99C1F1</property>
    <property name="ignore_points">0</property>
    <property name="xml">was here</property>
    <property name="seekable">1</property>
  </producer>
  <producer id="15_overlay_producer3" in="00:00:00.000" out="03:59:59.983">
    <property name="length">04:00:00.000</property>
    <property name="eof">pause</property>
    <property name="resource">#FF99C1F1</property>
    <property name="aspect_ratio">1</property>
    <property name="mlt_service">color</property>
    <property name="mlt_image_format">rgba</property>
    <property name="shotcut:caption">#FF99C1F1</property>
    <property name="shotcut:detail">#FF99C1F1</property>
    <property name="ignore_points">0</property>
    <property name="xml">was here</property>
    <property name="seekable">1</property>
  </producer>
  <producer id="15_overlay_producer4" in="00:00:00.000" out="03:59:59.983">
    <property name="length">04:00:00.000</property>
    <property name="eof">pause</property>
    <property name="resource">10_a_topologia_dos_espacos_metricos/generated/15_topico_bg_texto.png</property>
    <property name="ttl">1</property>
    <property name="aspect_ratio">1</property>
    <property name="progressive">1</property>
    <property name="seekable">1</property>
    <property name="mlt_service">qimage</property>
    <property name="creation_time">2021-11-24T18:39:48</property>
    <property name="shotcut:caption">bg_texto.png</property>
    <property name="shotcut:hash">733fbaad85e4e84b053e722906c3c6f8</property>
    <property name="ignore_points">0</property>
    <property name="xml">was here</property>
    <filter id="15_overlay_filter1" out="00:00:02.983">
      <property name="start">1</property>
      <property name="level">1</property>
      <property name="mlt_service">brightness</property>
      <property name="shotcut:filter">brightnessOpacity</property>
      <property name="alpha">00:00:00.000=0;00:00:00.250=1;00:00:02.250=1;00:00:02.800=0</property>
      <property name="opacity">00:00:00.000=0;00:00:00.250=1;00:00:02.250=1;00:00:02.800=0</property>
    </filter>
  </producer>
  <producer id="15_overlay_producer5" in="00:00:00.000" out="03:59:59.983">
    <property name="length">04:00:00.000</property>
    <property name="eof">pause</property>
    <property name="resource">10_a_topologia_dos_espacos_metricos/generated/15_topico_fg_texto.png</property>
    <property name="ttl">1</property>
    <property name="aspect_ratio">1</property>
    <property name="progressive">1</property>
    <property name="seekable">1</property>
    <property name="mlt_service">qimage</property>
    <property name="creation_time">2021-11-24T18:39:48</property>
    <property name="xml">was here</property>
    <property name="shotcut:hash">f41e43f2e32aafda94e1247406ce6c28</property>
    <property name="shotcut:caption">fg_texto.png</property>
    <property name="ignore_points">1</property>
    <filter id="15_overlay_filter0" out="00:00:02.983">
      <property name="start">1</property>
      <property name="level">1</property>
      <property name="mlt_service">brightness</property>
      <property name="shotcut:filter">brightnessOpacity</property>
      <property name="alpha">00:00:00.000=0;00:00:00.250=1;00:00:02.250=1;00:00:02.800=0</property>
      <property name="opacity">00:00:00.000=0;00:00:00.250=1;00:00:02.250=1;00:00:02.800=0</property>
    </filter>
  </producer>
<!-- Producers (template: topico - 16) -->
  <producer id="16_overlay_producer0" in="00:00:00.000" out="03:59:59.983">
    <property name="length">04:00:00.000</property>
    <property name="eof">pause</property>
    <property name="resource">10_a_topologia_dos_espacos_metricos/generated/16_topico_bg_texto.png</property>
    <property name="ttl">1</property>
    <property name="aspect_ratio">1</property>
    <property name="progressive">1</property>
    <property name="seekable">1</property>
    <property name="mlt_service">qimage</property>
    <property name="creation_time">2021-11-24T18:39:48</property>
    <property name="shotcut:caption">bg_texto.png</property>
    <property name="shotcut:hash">9e84c2faeba438b63bb19bfcc5753d55</property>
    <property name="ignore_points">0</property>
    <property name="xml">was here</property>
  </producer>
  <producer id="16_overlay_producer1" in="00:00:00.000" out="00:00:03.983">
    <property name="length">04:00:00.000</property>
    <property name="eof">pause</property>
    <property name="resource">10_a_topologia_dos_espacos_metricos/generated/16_topico_fg_texto.png</property>
    <property name="ttl">1</property>
    <property name="aspect_ratio">1</property>
    <property name="progressive">1</property>
    <property name="seekable">1</property>
    <property name="mlt_service">qimage</property>
    <property name="creation_time">2021-11-24T18:39:48</property>
    <property name="xml">was here</property>
    <property name="shotcut:hash">e1c6a18a7eedc2e3ff8c23d41c61993b</property>
    <property name="shotcut:caption">fg_texto.png</property>
    <property name="ignore_points">1</property>
  </producer>
  <producer id="16_overlay_producer2" in="00:00:00.000" out="03:59:59.983">
    <property name="length">04:00:00.000</property>
    <property name="eof">pause</property>
    <property name="resource">#FF99C1F1</property>
    <property name="aspect_ratio">1</property>
    <property name="mlt_service">color</property>
    <property name="mlt_image_format">rgba</property>
    <property name="shotcut:caption">#FF99C1F1</property>
    <property name="shotcut:detail">#FF99C1F1</property>
    <property name="ignore_points">0</property>
    <property name="xml">was here</property>
    <property name="seekable">1</property>
  </producer>
  <producer id="16_overlay_producer3" in="00:00:00.000" out="03:59:59.983">
    <property name="length">04:00:00.000</property>
    <property name="eof">pause</property>
    <property name="resource">#FF99C1F1</property>
    <property name="aspect_ratio">1</property>
    <property name="mlt_service">color</property>
    <property name="mlt_image_format">rgba</property>
    <property name="shotcut:caption">#FF99C1F1</property>
    <property name="shotcut:detail">#FF99C1F1</property>
    <property name="ignore_points">0</property>
    <property name="xml">was here</property>
    <property name="seekable">1</property>
  </producer>
  <producer id="16_overlay_producer4" in="00:00:00.000" out="03:59:59.983">
    <property name="length">04:00:00.000</property>
    <property name="eof">pause</property>
    <property name="resource">10_a_topologia_dos_espacos_metricos/generated/16_topico_bg_texto.png</property>
    <property name="ttl">1</property>
    <property name="aspect_ratio">1</property>
    <property name="progressive">1</property>
    <property name="seekable">1</property>
    <property name="mlt_service">qimage</property>
    <property name="creation_time">2021-11-24T18:39:48</property>
    <property name="shotcut:caption">bg_texto.png</property>
    <property name="shotcut:hash">9e84c2faeba438b63bb19bfcc5753d55</property>
    <property name="ignore_points">0</property>
    <property name="xml">was here</property>
    <filter id="16_overlay_filter1" out="00:00:02.983">
      <property name="start">1</property>
      <property name="level">1</property>
      <property name="mlt_service">brightness</property>
      <property name="shotcut:filter">brightnessOpacity</property>
      <property name="alpha">00:00:00.000=0;00:00:00.250=1;00:00:02.250=1;00:00:02.800=0</property>
      <property name="opacity">00:00:00.000=0;00:00:00.250=1;00:00:02.250=1;00:00:02.800=0</property>
    </filter>
  </producer>
  <producer id="16_overlay_producer5" in="00:00:00.000" out="03:59:59.983">
    <property name="length">04:00:00.000</property>
    <property name="eof">pause</property>
    <property name="resource">10_a_topologia_dos_espacos_metricos/generated/16_topico_fg_texto.png</property>
    <property name="ttl">1</property>
    <property name="aspect_ratio">1</property>
    <property name="progressive">1</property>
    <property name="seekable">1</property>
    <property name="mlt_service">qimage</property>
    <property name="creation_time">2021-11-24T18:39:48</property>
    <property name="xml">was here</property>
    <property name="shotcut:hash">e1c6a18a7eedc2e3ff8c23d41c61993b</property>
    <property name="shotcut:caption">fg_texto.png</property>
    <property name="ignore_points">1</property>
    <filter id="16_overlay_filter0" out="00:00:02.983">
      <property name="start">1</property>
      <property name="level">1</property>
      <property name="mlt_service">brightness</property>
      <property name="shotcut:filter">brightnessOpacity</property>
      <property name="alpha">00:00:00.000=0;00:00:00.250=1;00:00:02.250=1;00:00:02.800=0</property>
      <property name="opacity">00:00:00.000=0;00:00:00.250=1;00:00:02.250=1;00:00:02.800=0</property>
    </filter>
  </producer>
<!-- Producers (template: topico - 17) -->
  <producer id="17_overlay_producer0" in="00:00:00.000" out="03:59:59.983">
    <property name="length">04:00:00.000</property>
    <property name="eof">pause</property>
    <property name="resource">10_a_topologia_dos_espacos_metricos/generated/17_topico_bg_texto.png</property>
    <property name="ttl">1</property>
    <property name="aspect_ratio">1</property>
    <property name="progressive">1</property>
    <property name="seekable">1</property>
    <property name="mlt_service">qimage</property>
    <property name="creation_time">2021-11-24T18:39:48</property>
    <property name="shotcut:caption">bg_texto.png</property>
    <property name="shotcut:hash">e8593ddb6c0ca9054a430549f1fe2ae6</property>
    <property name="ignore_points">0</property>
    <property name="xml">was here</property>
  </producer>
  <producer id="17_overlay_producer1" in="00:00:00.000" out="00:00:03.983">
    <property name="length">04:00:00.000</property>
    <property name="eof">pause</property>
    <property name="resource">10_a_topologia_dos_espacos_metricos/generated/17_topico_fg_texto.png</property>
    <property name="ttl">1</property>
    <property name="aspect_ratio">1</property>
    <property name="progressive">1</property>
    <property name="seekable">1</property>
    <property name="mlt_service">qimage</property>
    <property name="creation_time">2021-11-24T18:39:48</property>
    <property name="xml">was here</property>
    <property name="shotcut:hash">d110588add490de54e8c933fb2e34b18</property>
    <property name="shotcut:caption">fg_texto.png</property>
    <property name="ignore_points">1</property>
  </producer>
  <producer id="17_overlay_producer2" in="00:00:00.000" out="03:59:59.983">
    <property name="length">04:00:00.000</property>
    <property name="eof">pause</property>
    <property name="resource">#FF99C1F1</property>
    <property name="aspect_ratio">1</property>
    <property name="mlt_service">color</property>
    <property name="mlt_image_format">rgba</property>
    <property name="shotcut:caption">#FF99C1F1</property>
    <property name="shotcut:detail">#FF99C1F1</property>
    <property name="ignore_points">0</property>
    <property name="xml">was here</property>
    <property name="seekable">1</property>
  </producer>
  <producer id="17_overlay_producer3" in="00:00:00.000" out="03:59:59.983">
    <property name="length">04:00:00.000</property>
    <property name="eof">pause</property>
    <property name="resource">#FF99C1F1</property>
    <property name="aspect_ratio">1</property>
    <property name="mlt_service">color</property>
    <property name="mlt_image_format">rgba</property>
    <property name="shotcut:caption">#FF99C1F1</property>
    <property name="shotcut:detail">#FF99C1F1</property>
    <property name="ignore_points">0</property>
    <property name="xml">was here</property>
    <property name="seekable">1</property>
  </producer>
  <producer id="17_overlay_producer4" in="00:00:00.000" out="03:59:59.983">
    <property name="length">04:00:00.000</property>
    <property name="eof">pause</property>
    <property name="resource">10_a_topologia_dos_espacos_metricos/generated/17_topico_bg_texto.png</property>
    <property name="ttl">1</property>
    <property name="aspect_ratio">1</property>
    <property name="progressive">1</property>
    <property name="seekable">1</property>
    <property name="mlt_service">qimage</property>
    <property name="creation_time">2021-11-24T18:39:48</property>
    <property name="shotcut:caption">bg_texto.png</property>
    <property name="shotcut:hash">e8593ddb6c0ca9054a430549f1fe2ae6</property>
    <property name="ignore_points">0</property>
    <property name="xml">was here</property>
    <filter id="17_overlay_filter1" out="00:00:02.983">
      <property name="start">1</property>
      <property name="level">1</property>
      <property name="mlt_service">brightness</property>
      <property name="shotcut:filter">brightnessOpacity</property>
      <property name="alpha">00:00:00.000=0;00:00:00.250=1;00:00:02.250=1;00:00:02.800=0</property>
      <property name="opacity">00:00:00.000=0;00:00:00.250=1;00:00:02.250=1;00:00:02.800=0</property>
    </filter>
  </producer>
  <producer id="17_overlay_producer5" in="00:00:00.000" out="03:59:59.983">
    <property name="length">04:00:00.000</property>
    <property name="eof">pause</property>
    <property name="resource">10_a_topologia_dos_espacos_metricos/generated/17_topico_fg_texto.png</property>
    <property name="ttl">1</property>
    <property name="aspect_ratio">1</property>
    <property name="progressive">1</property>
    <property name="seekable">1</property>
    <property name="mlt_service">qimage</property>
    <property name="creation_time">2021-11-24T18:39:48</property>
    <property name="xml">was here</property>
    <property name="shotcut:hash">d110588add490de54e8c933fb2e34b18</property>
    <property name="shotcut:caption">fg_texto.png</property>
    <property name="ignore_points">1</property>
    <filter id="17_overlay_filter0" out="00:00:02.983">
      <property name="start">1</property>
      <property name="level">1</property>
      <property name="mlt_service">brightness</property>
      <property name="shotcut:filter">brightnessOpacity</property>
      <property name="alpha">00:00:00.000=0;00:00:00.250=1;00:00:02.250=1;00:00:02.800=0</property>
      <property name="opacity">00:00:00.000=0;00:00:00.250=1;00:00:02.250=1;00:00:02.800=0</property>
    </filter>
  </producer>
<!-- Producers (template: topico - 18) -->
  <producer id="18_overlay_producer0" in="00:00:00.000" out="03:59:59.983">
    <property name="length">04:00:00.000</property>
    <property name="eof">pause</property>
    <property name="resource">10_a_topologia_dos_espacos_metricos/generated/18_topico_bg_texto.png</property>
    <property name="ttl">1</property>
    <property name="aspect_ratio">1</property>
    <property name="progressive">1</property>
    <property name="seekable">1</property>
    <property name="mlt_service">qimage</property>
    <property name="creation_time">2021-11-24T18:39:48</property>
    <property name="shotcut:caption">bg_texto.png</property>
    <property name="shotcut:hash">dc5bbcf83f2f24d9ca477a4012e96110</property>
    <property name="ignore_points">0</property>
    <property name="xml">was here</property>
  </producer>
  <producer id="18_overlay_producer1" in="00:00:00.000" out="00:00:03.983">
    <property name="length">04:00:00.000</property>
    <property name="eof">pause</property>
    <property name="resource">10_a_topologia_dos_espacos_metricos/generated/18_topico_fg_texto.png</property>
    <property name="ttl">1</property>
    <property name="aspect_ratio">1</property>
    <property name="progressive">1</property>
    <property name="seekable">1</property>
    <property name="mlt_service">qimage</property>
    <property name="creation_time">2021-11-24T18:39:48</property>
    <property name="xml">was here</property>
    <property name="shotcut:hash">a51080f6be48b09c74a003bddccc8bbf</property>
    <property name="shotcut:caption">fg_texto.png</property>
    <property name="ignore_points">1</property>
  </producer>
  <producer id="18_overlay_producer2" in="00:00:00.000" out="03:59:59.983">
    <property name="length">04:00:00.000</property>
    <property name="eof">pause</property>
    <property name="resource">#FF99C1F1</property>
    <property name="aspect_ratio">1</property>
    <property name="mlt_service">color</property>
    <property name="mlt_image_format">rgba</property>
    <property name="shotcut:caption">#FF99C1F1</property>
    <property name="shotcut:detail">#FF99C1F1</property>
    <property name="ignore_points">0</property>
    <property name="xml">was here</property>
    <property name="seekable">1</property>
  </producer>
  <producer id="18_overlay_producer3" in="00:00:00.000" out="03:59:59.983">
    <property name="length">04:00:00.000</property>
    <property name="eof">pause</property>
    <property name="resource">#FF99C1F1</property>
    <property name="aspect_ratio">1</property>
    <property name="mlt_service">color</property>
    <property name="mlt_image_format">rgba</property>
    <property name="shotcut:caption">#FF99C1F1</property>
    <property name="shotcut:detail">#FF99C1F1</property>
    <property name="ignore_points">0</property>
    <property name="xml">was here</property>
    <property name="seekable">1</property>
  </producer>
  <producer id="18_overlay_producer4" in="00:00:00.000" out="03:59:59.983">
    <property name="length">04:00:00.000</property>
    <property name="eof">pause</property>
    <property name="resource">10_a_topologia_dos_espacos_metricos/generated/18_topico_bg_texto.png</property>
    <property name="ttl">1</property>
    <property name="aspect_ratio">1</property>
    <property name="progressive">1</property>
    <property name="seekable">1</property>
    <property name="mlt_service">qimage</property>
    <property name="creation_time">2021-11-24T18:39:48</property>
    <property name="shotcut:caption">bg_texto.png</property>
    <property name="shotcut:hash">dc5bbcf83f2f24d9ca477a4012e96110</property>
    <property name="ignore_points">0</property>
    <property name="xml">was here</property>
    <filter id="18_overlay_filter1" out="00:00:02.983">
      <property name="start">1</property>
      <property name="level">1</property>
      <property name="mlt_service">brightness</property>
      <property name="shotcut:filter">brightnessOpacity</property>
      <property name="alpha">00:00:00.000=0;00:00:00.250=1;00:00:02.250=1;00:00:02.800=0</property>
      <property name="opacity">00:00:00.000=0;00:00:00.250=1;00:00:02.250=1;00:00:02.800=0</property>
    </filter>
  </producer>
  <producer id="18_overlay_producer5" in="00:00:00.000" out="03:59:59.983">
    <property name="length">04:00:00.000</property>
    <property name="eof">pause</property>
    <property name="resource">10_a_topologia_dos_espacos_metricos/generated/18_topico_fg_texto.png</property>
    <property name="ttl">1</property>
    <property name="aspect_ratio">1</property>
    <property name="progressive">1</property>
    <property name="seekable">1</property>
    <property name="mlt_service">qimage</property>
    <property name="creation_time">2021-11-24T18:39:48</property>
    <property name="xml">was here</property>
    <property name="shotcut:hash">a51080f6be48b09c74a003bddccc8bbf</property>
    <property name="shotcut:caption">fg_texto.png</property>
    <property name="ignore_points">1</property>
    <filter id="18_overlay_filter0" out="00:00:02.983">
      <property name="start">1</property>
      <property name="level">1</property>
      <property name="mlt_service">brightness</property>
      <property name="shotcut:filter">brightnessOpacity</property>
      <property name="alpha">00:00:00.000=0;00:00:00.250=1;00:00:02.250=1;00:00:02.800=0</property>
      <property name="opacity">00:00:00.000=0;00:00:00.250=1;00:00:02.250=1;00:00:02.800=0</property>
    </filter>
  </producer>
<!-- Producers (template: topico - 19) -->
  <producer id="19_overlay_producer0" in="00:00:00.000" out="03:59:59.983">
    <property name="length">04:00:00.000</property>
    <property name="eof">pause</property>
    <property name="resource">10_a_topologia_dos_espacos_metricos/generated/19_topico_bg_texto.png</property>
    <property name="ttl">1</property>
    <property name="aspect_ratio">1</property>
    <property name="progressive">1</property>
    <property name="seekable">1</property>
    <property name="mlt_service">qimage</property>
    <property name="creation_time">2021-11-24T18:39:48</property>
    <property name="shotcut:caption">bg_texto.png</property>
    <property name="shotcut:hash">6d4577b9b95682afc081ca4001d76316</property>
    <property name="ignore_points">0</property>
    <property name="xml">was here</property>
  </producer>
  <producer id="19_overlay_producer1" in="00:00:00.000" out="00:00:03.983">
    <property name="length">04:00:00.000</property>
    <property name="eof">pause</property>
    <property name="resource">10_a_topologia_dos_espacos_metricos/generated/19_topico_fg_texto.png</property>
    <property name="ttl">1</property>
    <property name="aspect_ratio">1</property>
    <property name="progressive">1</property>
    <property name="seekable">1</property>
    <property name="mlt_service">qimage</property>
    <property name="creation_time">2021-11-24T18:39:48</property>
    <property name="xml">was here</property>
    <property name="shotcut:hash">63767bcb54f053cf97915906d1e6c40b</property>
    <property name="shotcut:caption">fg_texto.png</property>
    <property name="ignore_points">1</property>
  </producer>
  <producer id="19_overlay_producer2" in="00:00:00.000" out="03:59:59.983">
    <property name="length">04:00:00.000</property>
    <property name="eof">pause</property>
    <property name="resource">#FF99C1F1</property>
    <property name="aspect_ratio">1</property>
    <property name="mlt_service">color</property>
    <property name="mlt_image_format">rgba</property>
    <property name="shotcut:caption">#FF99C1F1</property>
    <property name="shotcut:detail">#FF99C1F1</property>
    <property name="ignore_points">0</property>
    <property name="xml">was here</property>
    <property name="seekable">1</property>
  </producer>
  <producer id="19_overlay_producer3" in="00:00:00.000" out="03:59:59.983">
    <property name="length">04:00:00.000</property>
    <property name="eof">pause</property>
    <property name="resource">#FF99C1F1</property>
    <property name="aspect_ratio">1</property>
    <property name="mlt_service">color</property>
    <property name="mlt_image_format">rgba</property>
    <property name="shotcut:caption">#FF99C1F1</property>
    <property name="shotcut:detail">#FF99C1F1</property>
    <property name="ignore_points">0</property>
    <property name="xml">was here</property>
    <property name="seekable">1</property>
  </producer>
  <producer id="19_overlay_producer4" in="00:00:00.000" out="03:59:59.983">
    <property name="length">04:00:00.000</property>
    <property name="eof">pause</property>
    <property name="resource">10_a_topologia_dos_espacos_metricos/generated/19_topico_bg_texto.png</property>
    <property name="ttl">1</property>
    <property name="aspect_ratio">1</property>
    <property name="progressive">1</property>
    <property name="seekable">1</property>
    <property name="mlt_service">qimage</property>
    <property name="creation_time">2021-11-24T18:39:48</property>
    <property name="shotcut:caption">bg_texto.png</property>
    <property name="shotcut:hash">6d4577b9b95682afc081ca4001d76316</property>
    <property name="ignore_points">0</property>
    <property name="xml">was here</property>
    <filter id="19_overlay_filter1" out="00:00:02.983">
      <property name="start">1</property>
      <property name="level">1</property>
      <property name="mlt_service">brightness</property>
      <property name="shotcut:filter">brightnessOpacity</property>
      <property name="alpha">00:00:00.000=0;00:00:00.250=1;00:00:02.250=1;00:00:02.800=0</property>
      <property name="opacity">00:00:00.000=0;00:00:00.250=1;00:00:02.250=1;00:00:02.800=0</property>
    </filter>
  </producer>
  <producer id="19_overlay_producer5" in="00:00:00.000" out="03:59:59.983">
    <property name="length">04:00:00.000</property>
    <property name="eof">pause</property>
    <property name="resource">10_a_topologia_dos_espacos_metricos/generated/19_topico_fg_texto.png</property>
    <property name="ttl">1</property>
    <property name="aspect_ratio">1</property>
    <property name="progressive">1</property>
    <property name="seekable">1</property>
    <property name="mlt_service">qimage</property>
    <property name="creation_time">2021-11-24T18:39:48</property>
    <property name="xml">was here</property>
    <property name="shotcut:hash">63767bcb54f053cf97915906d1e6c40b</property>
    <property name="shotcut:caption">fg_texto.png</property>
    <property name="ignore_points">1</property>
    <filter id="19_overlay_filter0" out="00:00:02.983">
      <property name="start">1</property>
      <property name="level">1</property>
      <property name="mlt_service">brightness</property>
      <property name="shotcut:filter">brightnessOpacity</property>
      <property name="alpha">00:00:00.000=0;00:00:00.250=1;00:00:02.250=1;00:00:02.800=0</property>
      <property name="opacity">00:00:00.000=0;00:00:00.250=1;00:00:02.250=1;00:00:02.800=0</property>
    </filter>
  </producer>
<!-- Producers (template: topico - 20) -->
  <producer id="20_overlay_producer0" in="00:00:00.000" out="03:59:59.983">
    <property name="length">04:00:00.000</property>
    <property name="eof">pause</property>
    <property name="resource">10_a_topologia_dos_espacos_metricos/generated/20_topico_bg_texto.png</property>
    <property name="ttl">1</property>
    <property name="aspect_ratio">1</property>
    <property name="progressive">1</property>
    <property name="seekable">1</property>
    <property name="mlt_service">qimage</property>
    <property name="creation_time">2021-11-24T18:39:48</property>
    <property name="shotcut:caption">bg_texto.png</property>
    <property name="shotcut:hash">1b82affc1f88499709cbe3291e6119fe</property>
    <property name="ignore_points">0</property>
    <property name="xml">was here</property>
  </producer>
  <producer id="20_overlay_producer1" in="00:00:00.000" out="00:00:03.983">
    <property name="length">04:00:00.000</property>
    <property name="eof">pause</property>
    <property name="resource">10_a_topologia_dos_espacos_metricos/generated/20_topico_fg_texto.png</property>
    <property name="ttl">1</property>
    <property name="aspect_ratio">1</property>
    <property name="progressive">1</property>
    <property name="seekable">1</property>
    <property name="mlt_service">qimage</property>
    <property name="creation_time">2021-11-24T18:39:48</property>
    <property name="xml">was here</property>
    <property name="shotcut:hash">ef02bcd3a1422138a381cc34413ff962</property>
    <property name="shotcut:caption">fg_texto.png</property>
    <property name="ignore_points">1</property>
  </producer>
  <producer id="20_overlay_producer2" in="00:00:00.000" out="03:59:59.983">
    <property name="length">04:00:00.000</property>
    <property name="eof">pause</property>
    <property name="resource">#FF99C1F1</property>
    <property name="aspect_ratio">1</property>
    <property name="mlt_service">color</property>
    <property name="mlt_image_format">rgba</property>
    <property name="shotcut:caption">#FF99C1F1</property>
    <property name="shotcut:detail">#FF99C1F1</property>
    <property name="ignore_points">0</property>
    <property name="xml">was here</property>
    <property name="seekable">1</property>
  </producer>
  <producer id="20_overlay_producer3" in="00:00:00.000" out="03:59:59.983">
    <property name="length">04:00:00.000</property>
    <property name="eof">pause</property>
    <property name="resource">#FF99C1F1</property>
    <property name="aspect_ratio">1</property>
    <property name="mlt_service">color</property>
    <property name="mlt_image_format">rgba</property>
    <property name="shotcut:caption">#FF99C1F1</property>
    <property name="shotcut:detail">#FF99C1F1</property>
    <property name="ignore_points">0</property>
    <property name="xml">was here</property>
    <property name="seekable">1</property>
  </producer>
  <producer id="20_overlay_producer4" in="00:00:00.000" out="03:59:59.983">
    <property name="length">04:00:00.000</property>
    <property name="eof">pause</property>
    <property name="resource">10_a_topologia_dos_espacos_metricos/generated/20_topico_bg_texto.png</property>
    <property name="ttl">1</property>
    <property name="aspect_ratio">1</property>
    <property name="progressive">1</property>
    <property name="seekable">1</property>
    <property name="mlt_service">qimage</property>
    <property name="creation_time">2021-11-24T18:39:48</property>
    <property name="shotcut:caption">bg_texto.png</property>
    <property name="shotcut:hash">1b82affc1f88499709cbe3291e6119fe</property>
    <property name="ignore_points">0</property>
    <property name="xml">was here</property>
    <filter id="20_overlay_filter1" out="00:00:02.983">
      <property name="start">1</property>
      <property name="level">1</property>
      <property name="mlt_service">brightness</property>
      <property name="shotcut:filter">brightnessOpacity</property>
      <property name="alpha">00:00:00.000=0;00:00:00.250=1;00:00:02.250=1;00:00:02.800=0</property>
      <property name="opacity">00:00:00.000=0;00:00:00.250=1;00:00:02.250=1;00:00:02.800=0</property>
    </filter>
  </producer>
  <producer id="20_overlay_producer5" in="00:00:00.000" out="03:59:59.983">
    <property name="length">04:00:00.000</property>
    <property name="eof">pause</property>
    <property name="resource">10_a_topologia_dos_espacos_metricos/generated/20_topico_fg_texto.png</property>
    <property name="ttl">1</property>
    <property name="aspect_ratio">1</property>
    <property name="progressive">1</property>
    <property name="seekable">1</property>
    <property name="mlt_service">qimage</property>
    <property name="creation_time">2021-11-24T18:39:48</property>
    <property name="xml">was here</property>
    <property name="shotcut:hash">ef02bcd3a1422138a381cc34413ff962</property>
    <property name="shotcut:caption">fg_texto.png</property>
    <property name="ignore_points">1</property>
    <filter id="20_overlay_filter0" out="00:00:02.983">
      <property name="start">1</property>
      <property name="level">1</property>
      <property name="mlt_service">brightness</property>
      <property name="shotcut:filter">brightnessOpacity</property>
      <property name="alpha">00:00:00.000=0;00:00:00.250=1;00:00:02.250=1;00:00:02.800=0</property>
      <property name="opacity">00:00:00.000=0;00:00:00.250=1;00:00:02.250=1;00:00:02.800=0</property>
    </filter>
  </producer>
<!-- Producers (template: topico - 21) -->
  <producer id="21_overlay_producer0" in="00:00:00.000" out="03:59:59.983">
    <property name="length">04:00:00.000</property>
    <property name="eof">pause</property>
    <property name="resource">10_a_topologia_dos_espacos_metricos/generated/21_topico_bg_texto.png</property>
    <property name="ttl">1</property>
    <property name="aspect_ratio">1</property>
    <property name="progressive">1</property>
    <property name="seekable">1</property>
    <property name="mlt_service">qimage</property>
    <property name="creation_time">2021-11-24T18:39:48</property>
    <property name="shotcut:caption">bg_texto.png</property>
    <property name="shotcut:hash">0b0bf7200b87837436b54de2f76af7d9</property>
    <property name="ignore_points">0</property>
    <property name="xml">was here</property>
  </producer>
  <producer id="21_overlay_producer1" in="00:00:00.000" out="00:00:03.983">
    <property name="length">04:00:00.000</property>
    <property name="eof">pause</property>
    <property name="resource">10_a_topologia_dos_espacos_metricos/generated/21_topico_fg_texto.png</property>
    <property name="ttl">1</property>
    <property name="aspect_ratio">1</property>
    <property name="progressive">1</property>
    <property name="seekable">1</property>
    <property name="mlt_service">qimage</property>
    <property name="creation_time">2021-11-24T18:39:48</property>
    <property name="xml">was here</property>
    <property name="shotcut:hash">4b5f8446f33a946121c03d1475dc0184</property>
    <property name="shotcut:caption">fg_texto.png</property>
    <property name="ignore_points">1</property>
  </producer>
  <producer id="21_overlay_producer2" in="00:00:00.000" out="03:59:59.983">
    <property name="length">04:00:00.000</property>
    <property name="eof">pause</property>
    <property name="resource">#FF99C1F1</property>
    <property name="aspect_ratio">1</property>
    <property name="mlt_service">color</property>
    <property name="mlt_image_format">rgba</property>
    <property name="shotcut:caption">#FF99C1F1</property>
    <property name="shotcut:detail">#FF99C1F1</property>
    <property name="ignore_points">0</property>
    <property name="xml">was here</property>
    <property name="seekable">1</property>
  </producer>
  <producer id="21_overlay_producer3" in="00:00:00.000" out="03:59:59.983">
    <property name="length">04:00:00.000</property>
    <property name="eof">pause</property>
    <property name="resource">#FF99C1F1</property>
    <property name="aspect_ratio">1</property>
    <property name="mlt_service">color</property>
    <property name="mlt_image_format">rgba</property>
    <property name="shotcut:caption">#FF99C1F1</property>
    <property name="shotcut:detail">#FF99C1F1</property>
    <property name="ignore_points">0</property>
    <property name="xml">was here</property>
    <property name="seekable">1</property>
  </producer>
  <producer id="21_overlay_producer4" in="00:00:00.000" out="03:59:59.983">
    <property name="length">04:00:00.000</property>
    <property name="eof">pause</property>
    <property name="resource">10_a_topologia_dos_espacos_metricos/generated/21_topico_bg_texto.png</property>
    <property name="ttl">1</property>
    <property name="aspect_ratio">1</property>
    <property name="progressive">1</property>
    <property name="seekable">1</property>
    <property name="mlt_service">qimage</property>
    <property name="creation_time">2021-11-24T18:39:48</property>
    <property name="shotcut:caption">bg_texto.png</property>
    <property name="shotcut:hash">0b0bf7200b87837436b54de2f76af7d9</property>
    <property name="ignore_points">0</property>
    <property name="xml">was here</property>
    <filter id="21_overlay_filter1" out="00:00:02.983">
      <property name="start">1</property>
      <property name="level">1</property>
      <property name="mlt_service">brightness</property>
      <property name="shotcut:filter">brightnessOpacity</property>
      <property name="alpha">00:00:00.000=0;00:00:00.250=1;00:00:02.250=1;00:00:02.800=0</property>
      <property name="opacity">00:00:00.000=0;00:00:00.250=1;00:00:02.250=1;00:00:02.800=0</property>
    </filter>
  </producer>
  <producer id="21_overlay_producer5" in="00:00:00.000" out="03:59:59.983">
    <property name="length">04:00:00.000</property>
    <property name="eof">pause</property>
    <property name="resource">10_a_topologia_dos_espacos_metricos/generated/21_topico_fg_texto.png</property>
    <property name="ttl">1</property>
    <property name="aspect_ratio">1</property>
    <property name="progressive">1</property>
    <property name="seekable">1</property>
    <property name="mlt_service">qimage</property>
    <property name="creation_time">2021-11-24T18:39:48</property>
    <property name="xml">was here</property>
    <property name="shotcut:hash">4b5f8446f33a946121c03d1475dc0184</property>
    <property name="shotcut:caption">fg_texto.png</property>
    <property name="ignore_points">1</property>
    <filter id="21_overlay_filter0" out="00:00:02.983">
      <property name="start">1</property>
      <property name="level">1</property>
      <property name="mlt_service">brightness</property>
      <property name="shotcut:filter">brightnessOpacity</property>
      <property name="alpha">00:00:00.000=0;00:00:00.250=1;00:00:02.250=1;00:00:02.800=0</property>
      <property name="opacity">00:00:00.000=0;00:00:00.250=1;00:00:02.250=1;00:00:02.800=0</property>
    </filter>
  </producer>
<!-- Producers (template: topico - 22) -->
  <producer id="22_overlay_producer0" in="00:00:00.000" out="03:59:59.983">
    <property name="length">04:00:00.000</property>
    <property name="eof">pause</property>
    <property name="resource">10_a_topologia_dos_espacos_metricos/generated/22_topico_bg_texto.png</property>
    <property name="ttl">1</property>
    <property name="aspect_ratio">1</property>
    <property name="progressive">1</property>
    <property name="seekable">1</property>
    <property name="mlt_service">qimage</property>
    <property name="creation_time">2021-11-24T18:39:48</property>
    <property name="shotcut:caption">bg_texto.png</property>
    <property name="shotcut:hash">fef4f4619c01228f929de7800408d7be</property>
    <property name="ignore_points">0</property>
    <property name="xml">was here</property>
  </producer>
  <producer id="22_overlay_producer1" in="00:00:00.000" out="00:00:03.983">
    <property name="length">04:00:00.000</property>
    <property name="eof">pause</property>
    <property name="resource">10_a_topologia_dos_espacos_metricos/generated/22_topico_fg_texto.png</property>
    <property name="ttl">1</property>
    <property name="aspect_ratio">1</property>
    <property name="progressive">1</property>
    <property name="seekable">1</property>
    <property name="mlt_service">qimage</property>
    <property name="creation_time">2021-11-24T18:39:48</property>
    <property name="xml">was here</property>
    <property name="shotcut:hash">31be786f9afb32afffc2f80e9181def4</property>
    <property name="shotcut:caption">fg_texto.png</property>
    <property name="ignore_points">1</property>
  </producer>
  <producer id="22_overlay_producer2" in="00:00:00.000" out="03:59:59.983">
    <property name="length">04:00:00.000</property>
    <property name="eof">pause</property>
    <property name="resource">#FF99C1F1</property>
    <property name="aspect_ratio">1</property>
    <property name="mlt_service">color</property>
    <property name="mlt_image_format">rgba</property>
    <property name="shotcut:caption">#FF99C1F1</property>
    <property name="shotcut:detail">#FF99C1F1</property>
    <property name="ignore_points">0</property>
    <property name="xml">was here</property>
    <property name="seekable">1</property>
  </producer>
  <producer id="22_overlay_producer3" in="00:00:00.000" out="03:59:59.983">
    <property name="length">04:00:00.000</property>
    <property name="eof">pause</property>
    <property name="resource">#FF99C1F1</property>
    <property name="aspect_ratio">1</property>
    <property name="mlt_service">color</property>
    <property name="mlt_image_format">rgba</property>
    <property name="shotcut:caption">#FF99C1F1</property>
    <property name="shotcut:detail">#FF99C1F1</property>
    <property name="ignore_points">0</property>
    <property name="xml">was here</property>
    <property name="seekable">1</property>
  </producer>
  <producer id="22_overlay_producer4" in="00:00:00.000" out="03:59:59.983">
    <property name="length">04:00:00.000</property>
    <property name="eof">pause</property>
    <property name="resource">10_a_topologia_dos_espacos_metricos/generated/22_topico_bg_texto.png</property>
    <property name="ttl">1</property>
    <property name="aspect_ratio">1</property>
    <property name="progressive">1</property>
    <property name="seekable">1</property>
    <property name="mlt_service">qimage</property>
    <property name="creation_time">2021-11-24T18:39:48</property>
    <property name="shotcut:caption">bg_texto.png</property>
    <property name="shotcut:hash">fef4f4619c01228f929de7800408d7be</property>
    <property name="ignore_points">0</property>
    <property name="xml">was here</property>
    <filter id="22_overlay_filter1" out="00:00:02.983">
      <property name="start">1</property>
      <property name="level">1</property>
      <property name="mlt_service">brightness</property>
      <property name="shotcut:filter">brightnessOpacity</property>
      <property name="alpha">00:00:00.000=0;00:00:00.250=1;00:00:02.250=1;00:00:02.800=0</property>
      <property name="opacity">00:00:00.000=0;00:00:00.250=1;00:00:02.250=1;00:00:02.800=0</property>
    </filter>
  </producer>
  <producer id="22_overlay_producer5" in="00:00:00.000" out="03:59:59.983">
    <property name="length">04:00:00.000</property>
    <property name="eof">pause</property>
    <property name="resource">10_a_topologia_dos_espacos_metricos/generated/22_topico_fg_texto.png</property>
    <property name="ttl">1</property>
    <property name="aspect_ratio">1</property>
    <property name="progressive">1</property>
    <property name="seekable">1</property>
    <property name="mlt_service">qimage</property>
    <property name="creation_time">2021-11-24T18:39:48</property>
    <property name="xml">was here</property>
    <property name="shotcut:hash">31be786f9afb32afffc2f80e9181def4</property>
    <property name="shotcut:caption">fg_texto.png</property>
    <property name="ignore_points">1</property>
    <filter id="22_overlay_filter0" out="00:00:02.983">
      <property name="start">1</property>
      <property name="level">1</property>
      <property name="mlt_service">brightness</property>
      <property name="shotcut:filter">brightnessOpacity</property>
      <property name="alpha">00:00:00.000=0;00:00:00.250=1;00:00:02.250=1;00:00:02.800=0</property>
      <property name="opacity">00:00:00.000=0;00:00:00.250=1;00:00:02.250=1;00:00:02.800=0</property>
    </filter>
  </producer>
<!-- Producers (template: topico - 23) -->
  <producer id="23_overlay_producer0" in="00:00:00.000" out="03:59:59.983">
    <property name="length">04:00:00.000</property>
    <property name="eof">pause</property>
    <property name="resource">10_a_topologia_dos_espacos_metricos/generated/23_topico_bg_texto.png</property>
    <property name="ttl">1</property>
    <property name="aspect_ratio">1</property>
    <property name="progressive">1</property>
    <property name="seekable">1</property>
    <property name="mlt_service">qimage</property>
    <property name="creation_time">2021-11-24T18:39:48</property>
    <property name="shotcut:caption">bg_texto.png</property>
    <property name="shotcut:hash">f340a2ae75652d1365c01738031b27aa</property>
    <property name="ignore_points">0</property>
    <property name="xml">was here</property>
  </producer>
  <producer id="23_overlay_producer1" in="00:00:00.000" out="00:00:03.983">
    <property name="length">04:00:00.000</property>
    <property name="eof">pause</property>
    <property name="resource">10_a_topologia_dos_espacos_metricos/generated/23_topico_fg_texto.png</property>
    <property name="ttl">1</property>
    <property name="aspect_ratio">1</property>
    <property name="progressive">1</property>
    <property name="seekable">1</property>
    <property name="mlt_service">qimage</property>
    <property name="creation_time">2021-11-24T18:39:48</property>
    <property name="xml">was here</property>
    <property name="shotcut:hash">1c6b49963a5304bb510b052abe20df9c</property>
    <property name="shotcut:caption">fg_texto.png</property>
    <property name="ignore_points">1</property>
  </producer>
  <producer id="23_overlay_producer2" in="00:00:00.000" out="03:59:59.983">
    <property name="length">04:00:00.000</property>
    <property name="eof">pause</property>
    <property name="resource">#FF99C1F1</property>
    <property name="aspect_ratio">1</property>
    <property name="mlt_service">color</property>
    <property name="mlt_image_format">rgba</property>
    <property name="shotcut:caption">#FF99C1F1</property>
    <property name="shotcut:detail">#FF99C1F1</property>
    <property name="ignore_points">0</property>
    <property name="xml">was here</property>
    <property name="seekable">1</property>
  </producer>
  <producer id="23_overlay_producer3" in="00:00:00.000" out="03:59:59.983">
    <property name="length">04:00:00.000</property>
    <property name="eof">pause</property>
    <property name="resource">#FF99C1F1</property>
    <property name="aspect_ratio">1</property>
    <property name="mlt_service">color</property>
    <property name="mlt_image_format">rgba</property>
    <property name="shotcut:caption">#FF99C1F1</property>
    <property name="shotcut:detail">#FF99C1F1</property>
    <property name="ignore_points">0</property>
    <property name="xml">was here</property>
    <property name="seekable">1</property>
  </producer>
  <producer id="23_overlay_producer4" in="00:00:00.000" out="03:59:59.983">
    <property name="length">04:00:00.000</property>
    <property name="eof">pause</property>
    <property name="resource">10_a_topologia_dos_espacos_metricos/generated/23_topico_bg_texto.png</property>
    <property name="ttl">1</property>
    <property name="aspect_ratio">1</property>
    <property name="progressive">1</property>
    <property name="seekable">1</property>
    <property name="mlt_service">qimage</property>
    <property name="creation_time">2021-11-24T18:39:48</property>
    <property name="shotcut:caption">bg_texto.png</property>
    <property name="shotcut:hash">f340a2ae75652d1365c01738031b27aa</property>
    <property name="ignore_points">0</property>
    <property name="xml">was here</property>
    <filter id="23_overlay_filter1" out="00:00:02.983">
      <property name="start">1</property>
      <property name="level">1</property>
      <property name="mlt_service">brightness</property>
      <property name="shotcut:filter">brightnessOpacity</property>
      <property name="alpha">00:00:00.000=0;00:00:00.250=1;00:00:02.250=1;00:00:02.800=0</property>
      <property name="opacity">00:00:00.000=0;00:00:00.250=1;00:00:02.250=1;00:00:02.800=0</property>
    </filter>
  </producer>
  <producer id="23_overlay_producer5" in="00:00:00.000" out="03:59:59.983">
    <property name="length">04:00:00.000</property>
    <property name="eof">pause</property>
    <property name="resource">10_a_topologia_dos_espacos_metricos/generated/23_topico_fg_texto.png</property>
    <property name="ttl">1</property>
    <property name="aspect_ratio">1</property>
    <property name="progressive">1</property>
    <property name="seekable">1</property>
    <property name="mlt_service">qimage</property>
    <property name="creation_time">2021-11-24T18:39:48</property>
    <property name="xml">was here</property>
    <property name="shotcut:hash">1c6b49963a5304bb510b052abe20df9c</property>
    <property name="shotcut:caption">fg_texto.png</property>
    <property name="ignore_points">1</property>
    <filter id="23_overlay_filter0" out="00:00:02.983">
      <property name="start">1</property>
      <property name="level">1</property>
      <property name="mlt_service">brightness</property>
      <property name="shotcut:filter">brightnessOpacity</property>
      <property name="alpha">00:00:00.000=0;00:00:00.250=1;00:00:02.250=1;00:00:02.800=0</property>
      <property name="opacity">00:00:00.000=0;00:00:00.250=1;00:00:02.250=1;00:00:02.800=0</property>
    </filter>
  </producer>
<!-- Producers (template: topico - 24) -->
  <producer id="24_overlay_producer0" in="00:00:00.000" out="03:59:59.983">
    <property name="length">04:00:00.000</property>
    <property name="eof">pause</property>
    <property name="resource">10_a_topologia_dos_espacos_metricos/generated/24_topico_bg_texto.png</property>
    <property name="ttl">1</property>
    <property name="aspect_ratio">1</property>
    <property name="progressive">1</property>
    <property name="seekable">1</property>
    <property name="mlt_service">qimage</property>
    <property name="creation_time">2021-11-24T18:39:48</property>
    <property name="shotcut:caption">bg_texto.png</property>
    <property name="shotcut:hash">27741319237e8c93ca36805be7df8a0d</property>
    <property name="ignore_points">0</property>
    <property name="xml">was here</property>
  </producer>
  <producer id="24_overlay_producer1" in="00:00:00.000" out="00:00:03.983">
    <property name="length">04:00:00.000</property>
    <property name="eof">pause</property>
    <property name="resource">10_a_topologia_dos_espacos_metricos/generated/24_topico_fg_texto.png</property>
    <property name="ttl">1</property>
    <property name="aspect_ratio">1</property>
    <property name="progressive">1</property>
    <property name="seekable">1</property>
    <property name="mlt_service">qimage</property>
    <property name="creation_time">2021-11-24T18:39:48</property>
    <property name="xml">was here</property>
    <property name="shotcut:hash">bf9cef028faad40d18103969f4e1087d</property>
    <property name="shotcut:caption">fg_texto.png</property>
    <property name="ignore_points">1</property>
  </producer>
  <producer id="24_overlay_producer2" in="00:00:00.000" out="03:59:59.983">
    <property name="length">04:00:00.000</property>
    <property name="eof">pause</property>
    <property name="resource">#FF99C1F1</property>
    <property name="aspect_ratio">1</property>
    <property name="mlt_service">color</property>
    <property name="mlt_image_format">rgba</property>
    <property name="shotcut:caption">#FF99C1F1</property>
    <property name="shotcut:detail">#FF99C1F1</property>
    <property name="ignore_points">0</property>
    <property name="xml">was here</property>
    <property name="seekable">1</property>
  </producer>
  <producer id="24_overlay_producer3" in="00:00:00.000" out="03:59:59.983">
    <property name="length">04:00:00.000</property>
    <property name="eof">pause</property>
    <property name="resource">#FF99C1F1</property>
    <property name="aspect_ratio">1</property>
    <property name="mlt_service">color</property>
    <property name="mlt_image_format">rgba</property>
    <property name="shotcut:caption">#FF99C1F1</property>
    <property name="shotcut:detail">#FF99C1F1</property>
    <property name="ignore_points">0</property>
    <property name="xml">was here</property>
    <property name="seekable">1</property>
  </producer>
  <producer id="24_overlay_producer4" in="00:00:00.000" out="03:59:59.983">
    <property name="length">04:00:00.000</property>
    <property name="eof">pause</property>
    <property name="resource">10_a_topologia_dos_espacos_metricos/generated/24_topico_bg_texto.png</property>
    <property name="ttl">1</property>
    <property name="aspect_ratio">1</property>
    <property name="progressive">1</property>
    <property name="seekable">1</property>
    <property name="mlt_service">qimage</property>
    <property name="creation_time">2021-11-24T18:39:48</property>
    <property name="shotcut:caption">bg_texto.png</property>
    <property name="shotcut:hash">27741319237e8c93ca36805be7df8a0d</property>
    <property name="ignore_points">0</property>
    <property name="xml">was here</property>
    <filter id="24_overlay_filter1" out="00:00:02.983">
      <property name="start">1</property>
      <property name="level">1</property>
      <property name="mlt_service">brightness</property>
      <property name="shotcut:filter">brightnessOpacity</property>
      <property name="alpha">00:00:00.000=0;00:00:00.250=1;00:00:02.250=1;00:00:02.800=0</property>
      <property name="opacity">00:00:00.000=0;00:00:00.250=1;00:00:02.250=1;00:00:02.800=0</property>
    </filter>
  </producer>
  <producer id="24_overlay_producer5" in="00:00:00.000" out="03:59:59.983">
    <property name="length">04:00:00.000</property>
    <property name="eof">pause</property>
    <property name="resource">10_a_topologia_dos_espacos_metricos/generated/24_topico_fg_texto.png</property>
    <property name="ttl">1</property>
    <property name="aspect_ratio">1</property>
    <property name="progressive">1</property>
    <property name="seekable">1</property>
    <property name="mlt_service">qimage</property>
    <property name="creation_time">2021-11-24T18:39:48</property>
    <property name="xml">was here</property>
    <property name="shotcut:hash">bf9cef028faad40d18103969f4e1087d</property>
    <property name="shotcut:caption">fg_texto.png</property>
    <property name="ignore_points">1</property>
    <filter id="24_overlay_filter0" out="00:00:02.983">
      <property name="start">1</property>
      <property name="level">1</property>
      <property name="mlt_service">brightness</property>
      <property name="shotcut:filter">brightnessOpacity</property>
      <property name="alpha">00:00:00.000=0;00:00:00.250=1;00:00:02.250=1;00:00:02.800=0</property>
      <property name="opacity">00:00:00.000=0;00:00:00.250=1;00:00:02.250=1;00:00:02.800=0</property>
    </filter>
  </producer>
<!-- Producers (template: topico - 25) -->
  <producer id="25_overlay_producer0" in="00:00:00.000" out="03:59:59.983">
    <property name="length">04:00:00.000</property>
    <property name="eof">pause</property>
    <property name="resource">10_a_topologia_dos_espacos_metricos/generated/25_topico_bg_texto.png</property>
    <property name="ttl">1</property>
    <property name="aspect_ratio">1</property>
    <property name="progressive">1</property>
    <property name="seekable">1</property>
    <property name="mlt_service">qimage</property>
    <property name="creation_time">2021-11-24T18:39:48</property>
    <property name="shotcut:caption">bg_texto.png</property>
    <property name="shotcut:hash">413b71193a4f56169176bc966f347595</property>
    <property name="ignore_points">0</property>
    <property name="xml">was here</property>
  </producer>
  <producer id="25_overlay_producer1" in="00:00:00.000" out="00:00:03.983">
    <property name="length">04:00:00.000</property>
    <property name="eof">pause</property>
    <property name="resource">10_a_topologia_dos_espacos_metricos/generated/25_topico_fg_texto.png</property>
    <property name="ttl">1</property>
    <property name="aspect_ratio">1</property>
    <property name="progressive">1</property>
    <property name="seekable">1</property>
    <property name="mlt_service">qimage</property>
    <property name="creation_time">2021-11-24T18:39:48</property>
    <property name="xml">was here</property>
    <property name="shotcut:hash">de41e7fb5c31afb2e66f5fb61aa7356e</property>
    <property name="shotcut:caption">fg_texto.png</property>
    <property name="ignore_points">1</property>
  </producer>
  <producer id="25_overlay_producer2" in="00:00:00.000" out="03:59:59.983">
    <property name="length">04:00:00.000</property>
    <property name="eof">pause</property>
    <property name="resource">#FF99C1F1</property>
    <property name="aspect_ratio">1</property>
    <property name="mlt_service">color</property>
    <property name="mlt_image_format">rgba</property>
    <property name="shotcut:caption">#FF99C1F1</property>
    <property name="shotcut:detail">#FF99C1F1</property>
    <property name="ignore_points">0</property>
    <property name="xml">was here</property>
    <property name="seekable">1</property>
  </producer>
  <producer id="25_overlay_producer3" in="00:00:00.000" out="03:59:59.983">
    <property name="length">04:00:00.000</property>
    <property name="eof">pause</property>
    <property name="resource">#FF99C1F1</property>
    <property name="aspect_ratio">1</property>
    <property name="mlt_service">color</property>
    <property name="mlt_image_format">rgba</property>
    <property name="shotcut:caption">#FF99C1F1</property>
    <property name="shotcut:detail">#FF99C1F1</property>
    <property name="ignore_points">0</property>
    <property name="xml">was here</property>
    <property name="seekable">1</property>
  </producer>
  <producer id="25_overlay_producer4" in="00:00:00.000" out="03:59:59.983">
    <property name="length">04:00:00.000</property>
    <property name="eof">pause</property>
    <property name="resource">10_a_topologia_dos_espacos_metricos/generated/25_topico_bg_texto.png</property>
    <property name="ttl">1</property>
    <property name="aspect_ratio">1</property>
    <property name="progressive">1</property>
    <property name="seekable">1</property>
    <property name="mlt_service">qimage</property>
    <property name="creation_time">2021-11-24T18:39:48</property>
    <property name="shotcut:caption">bg_texto.png</property>
    <property name="shotcut:hash">413b71193a4f56169176bc966f347595</property>
    <property name="ignore_points">0</property>
    <property name="xml">was here</property>
    <filter id="25_overlay_filter1" out="00:00:02.983">
      <property name="start">1</property>
      <property name="level">1</property>
      <property name="mlt_service">brightness</property>
      <property name="shotcut:filter">brightnessOpacity</property>
      <property name="alpha">00:00:00.000=0;00:00:00.250=1;00:00:02.250=1;00:00:02.800=0</property>
      <property name="opacity">00:00:00.000=0;00:00:00.250=1;00:00:02.250=1;00:00:02.800=0</property>
    </filter>
  </producer>
  <producer id="25_overlay_producer5" in="00:00:00.000" out="03:59:59.983">
    <property name="length">04:00:00.000</property>
    <property name="eof">pause</property>
    <property name="resource">10_a_topologia_dos_espacos_metricos/generated/25_topico_fg_texto.png</property>
    <property name="ttl">1</property>
    <property name="aspect_ratio">1</property>
    <property name="progressive">1</property>
    <property name="seekable">1</property>
    <property name="mlt_service">qimage</property>
    <property name="creation_time">2021-11-24T18:39:48</property>
    <property name="xml">was here</property>
    <property name="shotcut:hash">de41e7fb5c31afb2e66f5fb61aa7356e</property>
    <property name="shotcut:caption">fg_texto.png</property>
    <property name="ignore_points">1</property>
    <filter id="25_overlay_filter0" out="00:00:02.983">
      <property name="start">1</property>
      <property name="level">1</property>
      <property name="mlt_service">brightness</property>
      <property name="shotcut:filter">brightnessOpacity</property>
      <property name="alpha">00:00:00.000=0;00:00:00.250=1;00:00:02.250=1;00:00:02.800=0</property>
      <property name="opacity">00:00:00.000=0;00:00:00.250=1;00:00:02.250=1;00:00:02.800=0</property>
    </filter>
  </producer>
<!-- Producers (template: topico - 26) -->
  <producer id="26_overlay_producer0" in="00:00:00.000" out="03:59:59.983">
    <property name="length">04:00:00.000</property>
    <property name="eof">pause</property>
    <property name="resource">10_a_topologia_dos_espacos_metricos/generated/26_topico_bg_texto.png</property>
    <property name="ttl">1</property>
    <property name="aspect_ratio">1</property>
    <property name="progressive">1</property>
    <property name="seekable">1</property>
    <property name="mlt_service">qimage</property>
    <property name="creation_time">2021-11-24T18:39:48</property>
    <property name="shotcut:caption">bg_texto.png</property>
    <property name="shotcut:hash">ed6634da10aaf3e76a4bd31d5411b27c</property>
    <property name="ignore_points">0</property>
    <property name="xml">was here</property>
  </producer>
  <producer id="26_overlay_producer1" in="00:00:00.000" out="00:00:03.983">
    <property name="length">04:00:00.000</property>
    <property name="eof">pause</property>
    <property name="resource">10_a_topologia_dos_espacos_metricos/generated/26_topico_fg_texto.png</property>
    <property name="ttl">1</property>
    <property name="aspect_ratio">1</property>
    <property name="progressive">1</property>
    <property name="seekable">1</property>
    <property name="mlt_service">qimage</property>
    <property name="creation_time">2021-11-24T18:39:48</property>
    <property name="xml">was here</property>
    <property name="shotcut:hash">be41e3842a8c4fb7a395a8f8b198eba9</property>
    <property name="shotcut:caption">fg_texto.png</property>
    <property name="ignore_points">1</property>
  </producer>
  <producer id="26_overlay_producer2" in="00:00:00.000" out="03:59:59.983">
    <property name="length">04:00:00.000</property>
    <property name="eof">pause</property>
    <property name="resource">#FF99C1F1</property>
    <property name="aspect_ratio">1</property>
    <property name="mlt_service">color</property>
    <property name="mlt_image_format">rgba</property>
    <property name="shotcut:caption">#FF99C1F1</property>
    <property name="shotcut:detail">#FF99C1F1</property>
    <property name="ignore_points">0</property>
    <property name="xml">was here</property>
    <property name="seekable">1</property>
  </producer>
  <producer id="26_overlay_producer3" in="00:00:00.000" out="03:59:59.983">
    <property name="length">04:00:00.000</property>
    <property name="eof">pause</property>
    <property name="resource">#FF99C1F1</property>
    <property name="aspect_ratio">1</property>
    <property name="mlt_service">color</property>
    <property name="mlt_image_format">rgba</property>
    <property name="shotcut:caption">#FF99C1F1</property>
    <property name="shotcut:detail">#FF99C1F1</property>
    <property name="ignore_points">0</property>
    <property name="xml">was here</property>
    <property name="seekable">1</property>
  </producer>
  <producer id="26_overlay_producer4" in="00:00:00.000" out="03:59:59.983">
    <property name="length">04:00:00.000</property>
    <property name="eof">pause</property>
    <property name="resource">10_a_topologia_dos_espacos_metricos/generated/26_topico_bg_texto.png</property>
    <property name="ttl">1</property>
    <property name="aspect_ratio">1</property>
    <property name="progressive">1</property>
    <property name="seekable">1</property>
    <property name="mlt_service">qimage</property>
    <property name="creation_time">2021-11-24T18:39:48</property>
    <property name="shotcut:caption">bg_texto.png</property>
    <property name="shotcut:hash">ed6634da10aaf3e76a4bd31d5411b27c</property>
    <property name="ignore_points">0</property>
    <property name="xml">was here</property>
    <filter id="26_overlay_filter1" out="00:00:02.983">
      <property name="start">1</property>
      <property name="level">1</property>
      <property name="mlt_service">brightness</property>
      <property name="shotcut:filter">brightnessOpacity</property>
      <property name="alpha">00:00:00.000=0;00:00:00.250=1;00:00:02.250=1;00:00:02.800=0</property>
      <property name="opacity">00:00:00.000=0;00:00:00.250=1;00:00:02.250=1;00:00:02.800=0</property>
    </filter>
  </producer>
  <producer id="26_overlay_producer5" in="00:00:00.000" out="03:59:59.983">
    <property name="length">04:00:00.000</property>
    <property name="eof">pause</property>
    <property name="resource">10_a_topologia_dos_espacos_metricos/generated/26_topico_fg_texto.png</property>
    <property name="ttl">1</property>
    <property name="aspect_ratio">1</property>
    <property name="progressive">1</property>
    <property name="seekable">1</property>
    <property name="mlt_service">qimage</property>
    <property name="creation_time">2021-11-24T18:39:48</property>
    <property name="xml">was here</property>
    <property name="shotcut:hash">be41e3842a8c4fb7a395a8f8b198eba9</property>
    <property name="shotcut:caption">fg_texto.png</property>
    <property name="ignore_points">1</property>
    <filter id="26_overlay_filter0" out="00:00:02.983">
      <property name="start">1</property>
      <property name="level">1</property>
      <property name="mlt_service">brightness</property>
      <property name="shotcut:filter">brightnessOpacity</property>
      <property name="alpha">00:00:00.000=0;00:00:00.250=1;00:00:02.250=1;00:00:02.800=0</property>
      <property name="opacity">00:00:00.000=0;00:00:00.250=1;00:00:02.250=1;00:00:02.800=0</property>
    </filter>
  </producer>
<!-- Producers (template: topico - 27) -->
  <producer id="27_overlay_producer0" in="00:00:00.000" out="03:59:59.983">
    <property name="length">04:00:00.000</property>
    <property name="eof">pause</property>
    <property name="resource">10_a_topologia_dos_espacos_metricos/generated/27_topico_bg_texto.png</property>
    <property name="ttl">1</property>
    <property name="aspect_ratio">1</property>
    <property name="progressive">1</property>
    <property name="seekable">1</property>
    <property name="mlt_service">qimage</property>
    <property name="creation_time">2021-11-24T18:39:48</property>
    <property name="shotcut:caption">bg_texto.png</property>
    <property name="shotcut:hash">cf46eefd5972bea448114fe07ac685ae</property>
    <property name="ignore_points">0</property>
    <property name="xml">was here</property>
  </producer>
  <producer id="27_overlay_producer1" in="00:00:00.000" out="00:00:03.983">
    <property name="length">04:00:00.000</property>
    <property name="eof">pause</property>
    <property name="resource">10_a_topologia_dos_espacos_metricos/generated/27_topico_fg_texto.png</property>
    <property name="ttl">1</property>
    <property name="aspect_ratio">1</property>
    <property name="progressive">1</property>
    <property name="seekable">1</property>
    <property name="mlt_service">qimage</property>
    <property name="creation_time">2021-11-24T18:39:48</property>
    <property name="xml">was here</property>
    <property name="shotcut:hash">ea2def2e75eae4d91ad2bbfe170a3cf1</property>
    <property name="shotcut:caption">fg_texto.png</property>
    <property name="ignore_points">1</property>
  </producer>
  <producer id="27_overlay_producer2" in="00:00:00.000" out="03:59:59.983">
    <property name="length">04:00:00.000</property>
    <property name="eof">pause</property>
    <property name="resource">#FF99C1F1</property>
    <property name="aspect_ratio">1</property>
    <property name="mlt_service">color</property>
    <property name="mlt_image_format">rgba</property>
    <property name="shotcut:caption">#FF99C1F1</property>
    <property name="shotcut:detail">#FF99C1F1</property>
    <property name="ignore_points">0</property>
    <property name="xml">was here</property>
    <property name="seekable">1</property>
  </producer>
  <producer id="27_overlay_producer3" in="00:00:00.000" out="03:59:59.983">
    <property name="length">04:00:00.000</property>
    <property name="eof">pause</property>
    <property name="resource">#FF99C1F1</property>
    <property name="aspect_ratio">1</property>
    <property name="mlt_service">color</property>
    <property name="mlt_image_format">rgba</property>
    <property name="shotcut:caption">#FF99C1F1</property>
    <property name="shotcut:detail">#FF99C1F1</property>
    <property name="ignore_points">0</property>
    <property name="xml">was here</property>
    <property name="seekable">1</property>
  </producer>
  <producer id="27_overlay_producer4" in="00:00:00.000" out="03:59:59.983">
    <property name="length">04:00:00.000</property>
    <property name="eof">pause</property>
    <property name="resource">10_a_topologia_dos_espacos_metricos/generated/27_topico_bg_texto.png</property>
    <property name="ttl">1</property>
    <property name="aspect_ratio">1</property>
    <property name="progressive">1</property>
    <property name="seekable">1</property>
    <property name="mlt_service">qimage</property>
    <property name="creation_time">2021-11-24T18:39:48</property>
    <property name="shotcut:caption">bg_texto.png</property>
    <property name="shotcut:hash">cf46eefd5972bea448114fe07ac685ae</property>
    <property name="ignore_points">0</property>
    <property name="xml">was here</property>
    <filter id="27_overlay_filter1" out="00:00:02.983">
      <property name="start">1</property>
      <property name="level">1</property>
      <property name="mlt_service">brightness</property>
      <property name="shotcut:filter">brightnessOpacity</property>
      <property name="alpha">00:00:00.000=0;00:00:00.250=1;00:00:02.250=1;00:00:02.800=0</property>
      <property name="opacity">00:00:00.000=0;00:00:00.250=1;00:00:02.250=1;00:00:02.800=0</property>
    </filter>
  </producer>
  <producer id="27_overlay_producer5" in="00:00:00.000" out="03:59:59.983">
    <property name="length">04:00:00.000</property>
    <property name="eof">pause</property>
    <property name="resource">10_a_topologia_dos_espacos_metricos/generated/27_topico_fg_texto.png</property>
    <property name="ttl">1</property>
    <property name="aspect_ratio">1</property>
    <property name="progressive">1</property>
    <property name="seekable">1</property>
    <property name="mlt_service">qimage</property>
    <property name="creation_time">2021-11-24T18:39:48</property>
    <property name="xml">was here</property>
    <property name="shotcut:hash">ea2def2e75eae4d91ad2bbfe170a3cf1</property>
    <property name="shotcut:caption">fg_texto.png</property>
    <property name="ignore_points">1</property>
    <filter id="27_overlay_filter0" out="00:00:02.983">
      <property name="start">1</property>
      <property name="level">1</property>
      <property name="mlt_service">brightness</property>
      <property name="shotcut:filter">brightnessOpacity</property>
      <property name="alpha">00:00:00.000=0;00:00:00.250=1;00:00:02.250=1;00:00:02.800=0</property>
      <property name="opacity">00:00:00.000=0;00:00:00.250=1;00:00:02.250=1;00:00:02.800=0</property>
    </filter>
  </producer>
<!-- Producers (template: topico - 28) -->
  <producer id="28_overlay_producer0" in="00:00:00.000" out="03:59:59.983">
    <property name="length">04:00:00.000</property>
    <property name="eof">pause</property>
    <property name="resource">10_a_topologia_dos_espacos_metricos/generated/28_topico_bg_texto.png</property>
    <property name="ttl">1</property>
    <property name="aspect_ratio">1</property>
    <property name="progressive">1</property>
    <property name="seekable">1</property>
    <property name="mlt_service">qimage</property>
    <property name="creation_time">2021-11-24T18:39:48</property>
    <property name="shotcut:caption">bg_texto.png</property>
    <property name="shotcut:hash">322ab6c4c076b0a1c6a21e4b49066d9f</property>
    <property name="ignore_points">0</property>
    <property name="xml">was here</property>
  </producer>
  <producer id="28_overlay_producer1" in="00:00:00.000" out="00:00:03.983">
    <property name="length">04:00:00.000</property>
    <property name="eof">pause</property>
    <property name="resource">10_a_topologia_dos_espacos_metricos/generated/28_topico_fg_texto.png</property>
    <property name="ttl">1</property>
    <property name="aspect_ratio">1</property>
    <property name="progressive">1</property>
    <property name="seekable">1</property>
    <property name="mlt_service">qimage</property>
    <property name="creation_time">2021-11-24T18:39:48</property>
    <property name="xml">was here</property>
    <property name="shotcut:hash">7747f5a3714ac417decc14d7bd151ffe</property>
    <property name="shotcut:caption">fg_texto.png</property>
    <property name="ignore_points">1</property>
  </producer>
  <producer id="28_overlay_producer2" in="00:00:00.000" out="03:59:59.983">
    <property name="length">04:00:00.000</property>
    <property name="eof">pause</property>
    <property name="resource">#FF99C1F1</property>
    <property name="aspect_ratio">1</property>
    <property name="mlt_service">color</property>
    <property name="mlt_image_format">rgba</property>
    <property name="shotcut:caption">#FF99C1F1</property>
    <property name="shotcut:detail">#FF99C1F1</property>
    <property name="ignore_points">0</property>
    <property name="xml">was here</property>
    <property name="seekable">1</property>
  </producer>
  <producer id="28_overlay_producer3" in="00:00:00.000" out="03:59:59.983">
    <property name="length">04:00:00.000</property>
    <property name="eof">pause</property>
    <property name="resource">#FF99C1F1</property>
    <property name="aspect_ratio">1</property>
    <property name="mlt_service">color</property>
    <property name="mlt_image_format">rgba</property>
    <property name="shotcut:caption">#FF99C1F1</property>
    <property name="shotcut:detail">#FF99C1F1</property>
    <property name="ignore_points">0</property>
    <property name="xml">was here</property>
    <property name="seekable">1</property>
  </producer>
  <producer id="28_overlay_producer4" in="00:00:00.000" out="03:59:59.983">
    <property name="length">04:00:00.000</property>
    <property name="eof">pause</property>
    <property name="resource">10_a_topologia_dos_espacos_metricos/generated/28_topico_bg_texto.png</property>
    <property name="ttl">1</property>
    <property name="aspect_ratio">1</property>
    <property name="progressive">1</property>
    <property name="seekable">1</property>
    <property name="mlt_service">qimage</property>
    <property name="creation_time">2021-11-24T18:39:48</property>
    <property name="shotcut:caption">bg_texto.png</property>
    <property name="shotcut:hash">322ab6c4c076b0a1c6a21e4b49066d9f</property>
    <property name="ignore_points">0</property>
    <property name="xml">was here</property>
    <filter id="28_overlay_filter1" out="00:00:02.983">
      <property name="start">1</property>
      <property name="level">1</property>
      <property name="mlt_service">brightness</property>
      <property name="shotcut:filter">brightnessOpacity</property>
      <property name="alpha">00:00:00.000=0;00:00:00.250=1;00:00:02.250=1;00:00:02.800=0</property>
      <property name="opacity">00:00:00.000=0;00:00:00.250=1;00:00:02.250=1;00:00:02.800=0</property>
    </filter>
  </producer>
  <producer id="28_overlay_producer5" in="00:00:00.000" out="03:59:59.983">
    <property name="length">04:00:00.000</property>
    <property name="eof">pause</property>
    <property name="resource">10_a_topologia_dos_espacos_metricos/generated/28_topico_fg_texto.png</property>
    <property name="ttl">1</property>
    <property name="aspect_ratio">1</property>
    <property name="progressive">1</property>
    <property name="seekable">1</property>
    <property name="mlt_service">qimage</property>
    <property name="creation_time">2021-11-24T18:39:48</property>
    <property name="xml">was here</property>
    <property name="shotcut:hash">7747f5a3714ac417decc14d7bd151ffe</property>
    <property name="shotcut:caption">fg_texto.png</property>
    <property name="ignore_points">1</property>
    <filter id="28_overlay_filter0" out="00:00:02.983">
      <property name="start">1</property>
      <property name="level">1</property>
      <property name="mlt_service">brightness</property>
      <property name="shotcut:filter">brightnessOpacity</property>
      <property name="alpha">00:00:00.000=0;00:00:00.250=1;00:00:02.250=1;00:00:02.800=0</property>
      <property name="opacity">00:00:00.000=0;00:00:00.250=1;00:00:02.250=1;00:00:02.800=0</property>
    </filter>
  </producer>
<!-- Producers (template: parte - 29) -->
  <producer id="29_overlay_producer0" in="00:00:00.000" out="00:00:03.983">
    <property name="length">04:00:00.000</property>
    <property name="eof">pause</property>
    <property name="resource">10_a_topologia_dos_espacos_metricos/generated/29_parte_fg_texto.png</property>
    <property name="ttl">1</property>
    <property name="aspect_ratio">1</property>
    <property name="progressive">1</property>
    <property name="seekable">1</property>
    <property name="mlt_service">qimage</property>
    <property name="creation_time">2021-11-20T22:27:33</property>
    <property name="shotcut:caption">fg_texto.png</property>
    <property name="shotcut:hash">87a9ad3b75f8042f02628b44c88556e1</property>
    <property name="ignore_points">1</property>
    <property name="xml">was here</property>
  </producer>
  <producer id="29_overlay_producer1" in="00:00:00.000" out="00:00:03.983">
    <property name="length">04:00:00.000</property>
    <property name="eof">pause</property>
    <property name="resource">10_a_topologia_dos_espacos_metricos/generated/parte_static/papito.svg</property>
    <property name="ttl">1</property>
    <property name="aspect_ratio">1</property>
    <property name="progressive">1</property>
    <property name="seekable">1</property>
    <property name="mlt_service">qimage</property>
    <property name="creation_time">2021-11-20T22:27:18</property>
    <property name="xml">was here</property>
    <property name="shotcut:hash">24c313bd35ae36447ae1ce8444f40447</property>
    <property name="shotcut:caption">papito.svg</property>
    <property name="ignore_points">1</property>
  </producer>
  <producer id="29_overlay_producer2" in="00:00:00.000" out="00:00:03.983">
    <property name="length">04:00:00.000</property>
    <property name="eof">pause</property>
    <property name="resource">10_a_topologia_dos_espacos_metricos/generated/29_parte_bg_logo.png</property>
    <property name="ttl">1</property>
    <property name="aspect_ratio">1</property>
    <property name="progressive">1</property>
    <property name="seekable">1</property>
    <property name="mlt_service">qimage</property>
    <property name="creation_time">2021-11-23T15:36:23</property>
    <property name="xml">was here</property>
    <property name="shotcut:hash">5dcd114eb000f9bd9ee59792e9729b4e</property>
    <property name="shotcut:caption">bg_logo.png</property>
    <property name="ignore_points">1</property>
  </producer>
  <producer id="29_overlay_producer3" in="00:00:00.000" out="00:00:03.983">
    <property name="length">04:00:00.000</property>
    <property name="eof">pause</property>
    <property name="resource">10_a_topologia_dos_espacos_metricos/generated/29_parte_bg_texto.png</property>
    <property name="ttl">1</property>
    <property name="aspect_ratio">1</property>
    <property name="progressive">1</property>
    <property name="seekable">1</property>
    <property name="mlt_service">qimage</property>
    <property name="creation_time">2021-11-23T15:36:23</property>
    <property name="xml">was here</property>
    <property name="shotcut:hash">781a029be6548ca1285f7e382737fb45</property>
    <property name="shotcut:caption">bg_texto.png</property>
    <property name="ignore_points">1</property>
  </producer>
  <producer id="29_overlay_producer4" in="00:00:00.000" out="00:00:03.983">
    <property name="length">04:00:00.000</property>
    <property name="eof">pause</property>
    <property name="resource">#FFFFFFFF</property>
    <property name="aspect_ratio">1</property>
    <property name="mlt_service">color</property>
    <property name="mlt_image_format">rgba</property>
    <property name="shotcut:caption">#FFFFFFFF</property>
    <property name="ignore_points">1</property>
    <property name="xml">was here</property>
    <property name="seekable">1</property>
  </producer>
  <producer id="29_overlay_producer5" in="00:00:00.000" out="03:59:59.983">
    <property name="length">04:00:00.000</property>
    <property name="eof">pause</property>
    <property name="resource">#FFFFFFFF</property>
    <property name="aspect_ratio">1</property>
    <property name="mlt_service">color</property>
    <property name="mlt_image_format">rgba</property>
    <property name="shotcut:caption">#FFFFFFFF</property>
    <property name="ignore_points">0</property>
    <property name="xml">was here</property>
    <property name="seekable">1</property>
  </producer>
  <producer id="29_overlay_producer6" in="00:00:00.000" out="03:59:59.983">
    <property name="length">04:00:00.000</property>
    <property name="eof">pause</property>
    <property name="resource">10_a_topologia_dos_espacos_metricos/generated/29_parte_bg_texto.png</property>
    <property name="ttl">1</property>
    <property name="aspect_ratio">1</property>
    <property name="progressive">1</property>
    <property name="seekable">1</property>
    <property name="mlt_service">qimage</property>
    <property name="creation_time">2021-11-23T15:36:23</property>
    <property name="xml">was here</property>
    <property name="shotcut:hash">781a029be6548ca1285f7e382737fb45</property>
    <property name="shotcut:caption">bg_texto.png</property>
    <filter id="29_overlay_filter0" out="00:00:10.983">
      <property name="background">color:#00000000</property>
      <property name="mlt_service">affine</property>
      <property name="shotcut:filter">affineSizePosition</property>
      <property name="transition.fill">1</property>
      <property name="transition.distort">0</property>
      <property name="transition.rect">00:00:00.000~=1600 0 1920 1080 1;00:00:02.500=0 0 1920 1080 1;00:00:10.033=0 0 1920 1080 1;00:00:10.983=1600 0 1920 1080 1;00:00:11.000~=0 0 1920 1080 1</property>
      <property name="transition.valign">middle</property>
      <property name="transition.halign">center</property>
      <property name="shotcut:animIn">00:00:00.000</property>
      <property name="shotcut:animOut">00:00:00.000</property>
      <property name="transition.threads">0</property>
    </filter>
  </producer>
  <producer id="29_overlay_producer7" in="00:00:00.000" out="03:59:59.983">
    <property name="length">04:00:00.000</property>
    <property name="eof">pause</property>
    <property name="resource">10_a_topologia_dos_espacos_metricos/generated/29_parte_fg_texto.png</property>
    <property name="ttl">1</property>
    <property name="aspect_ratio">1</property>
    <property name="progressive">1</property>
    <property name="seekable">1</property>
    <property name="mlt_service">qimage</property>
    <property name="creation_time">2021-11-20T22:27:33</property>
    <property name="shotcut:caption">fg_texto.png</property>
    <property name="shotcut:hash">87a9ad3b75f8042f02628b44c88556e1</property>
    <property name="ignore_points">0</property>
    <property name="xml">was here</property>
    <filter id="29_overlay_filter2" out="00:00:10.983">
      <property name="background">color:#00000000</property>
      <property name="mlt_service">affine</property>
      <property name="shotcut:filter">affineSizePosition</property>
      <property name="transition.fill">1</property>
      <property name="transition.distort">0</property>
      <property name="transition.rect">00:00:00.000~=1800 0 1920 1080 1;00:00:02.217~=1800 0 1920 1080 1;00:00:02.867=0 0 1920 1080 1;00:00:09.783=0 0 1920 1080 1;00:00:10.983=1800 0 1920 1080 1;00:00:11.000=0 0 1920 1080 1</property>
      <property name="transition.valign">middle</property>
      <property name="transition.halign">center</property>
      <property name="shotcut:animIn">00:00:00.000</property>
      <property name="shotcut:animOut">00:00:00.000</property>
      <property name="transition.threads">0</property>
    </filter>
  </producer>
  <producer id="29_overlay_producer8" in="00:00:00.000" out="03:59:59.983">
    <property name="length">04:00:00.000</property>
    <property name="eof">pause</property>
    <property name="resource">10_a_topologia_dos_espacos_metricos/generated/29_parte_bg_logo.png</property>
    <property name="ttl">1</property>
    <property name="aspect_ratio">1</property>
    <property name="progressive">1</property>
    <property name="seekable">1</property>
    <property name="mlt_service">qimage</property>
    <property name="creation_time">2021-11-23T15:36:23</property>
    <property name="xml">was here</property>
    <property name="shotcut:hash">5dcd114eb000f9bd9ee59792e9729b4e</property>
    <property name="shotcut:caption">bg_logo.png</property>
    <filter id="29_overlay_filter1" out="00:00:10.983">
      <property name="background">color:#00000000</property>
      <property name="mlt_service">affine</property>
      <property name="shotcut:filter">affineSizePosition</property>
      <property name="transition.fill">1</property>
      <property name="transition.distort">0</property>
      <property name="transition.rect">00:00:00.000~=-400 0 1920 1080 1;00:00:01.750=0 0 1920 1080 1;00:00:10.133=0 0 1920 1080 1;00:00:11.000=-400 0 1920 1080 1</property>
      <property name="transition.valign">middle</property>
      <property name="transition.halign">center</property>
      <property name="shotcut:animIn">00:00:00.000</property>
      <property name="shotcut:animOut">00:00:00.000</property>
      <property name="transition.threads">0</property>
    </filter>
  </producer>
  <producer id="29_overlay_producer9" in="00:00:00.000" out="03:59:59.983">
    <property name="length">04:00:00.000</property>
    <property name="eof">pause</property>
    <property name="resource">10_a_topologia_dos_espacos_metricos/generated/parte_static/papito.svg</property>
    <property name="ttl">1</property>
    <property name="aspect_ratio">1</property>
    <property name="progressive">1</property>
    <property name="seekable">1</property>
    <property name="mlt_service">qimage</property>
    <property name="creation_time">2021-11-20T16:56:36</property>
    <property name="shotcut:caption">papito.svg</property>
    <property name="shotcut:hash">24c313bd35ae36447ae1ce8444f40447</property>
    <property name="ignore_points">0</property>
    <property name="xml">was here</property>
    <filter id="29_overlay_filter3" out="00:00:10.983">
      <property name="background">color:#00000000</property>
      <property name="mlt_service">affine</property>
      <property name="shotcut:filter">affineSizePosition</property>
      <property name="transition.fill">1</property>
      <property name="transition.distort">0</property>
      <property name="transition.rect">00:00:01.000=-260 790 224.74 224.74 1;00:00:02.500=93.2948 790 224.74 224.74 1;00:00:09.867=93.2948 790 224.74 224.74 1;00:00:10.667=-260 790 224.74 224.74 1</property>
      <property name="transition.valign">middle</property>
      <property name="transition.halign">center</property>
      <property name="shotcut:animIn">00:00:00.000</property>
      <property name="shotcut:animOut">00:00:00.000</property>
      <property name="transition.threads">0</property>
      <property name="transition.fix_rotate_x">00:00:00.000=0;00:00:01.000=-180;00:00:02.500=0;00:00:09.867=0;00:00:10.667=-180</property>
    </filter>
  </producer>
<!-- Producers (template: topico - 30) -->
  <producer id="30_overlay_producer0" in="00:00:00.000" out="03:59:59.983">
    <property name="length">04:00:00.000</property>
    <property name="eof">pause</property>
    <property name="resource">10_a_topologia_dos_espacos_metricos/generated/30_topico_bg_texto.png</property>
    <property name="ttl">1</property>
    <property name="aspect_ratio">1</property>
    <property name="progressive">1</property>
    <property name="seekable">1</property>
    <property name="mlt_service">qimage</property>
    <property name="creation_time">2021-11-24T18:39:48</property>
    <property name="shotcut:caption">bg_texto.png</property>
    <property name="shotcut:hash">d5fc40c9de976d2f99533f2be27abde3</property>
    <property name="ignore_points">0</property>
    <property name="xml">was here</property>
  </producer>
  <producer id="30_overlay_producer1" in="00:00:00.000" out="00:00:03.983">
    <property name="length">04:00:00.000</property>
    <property name="eof">pause</property>
    <property name="resource">10_a_topologia_dos_espacos_metricos/generated/30_topico_fg_texto.png</property>
    <property name="ttl">1</property>
    <property name="aspect_ratio">1</property>
    <property name="progressive">1</property>
    <property name="seekable">1</property>
    <property name="mlt_service">qimage</property>
    <property name="creation_time">2021-11-24T18:39:48</property>
    <property name="xml">was here</property>
    <property name="shotcut:hash">c1c201fa238ef40512ba140451c14678</property>
    <property name="shotcut:caption">fg_texto.png</property>
    <property name="ignore_points">1</property>
  </producer>
  <producer id="30_overlay_producer2" in="00:00:00.000" out="03:59:59.983">
    <property name="length">04:00:00.000</property>
    <property name="eof">pause</property>
    <property name="resource">#FF99C1F1</property>
    <property name="aspect_ratio">1</property>
    <property name="mlt_service">color</property>
    <property name="mlt_image_format">rgba</property>
    <property name="shotcut:caption">#FF99C1F1</property>
    <property name="shotcut:detail">#FF99C1F1</property>
    <property name="ignore_points">0</property>
    <property name="xml">was here</property>
    <property name="seekable">1</property>
  </producer>
  <producer id="30_overlay_producer3" in="00:00:00.000" out="03:59:59.983">
    <property name="length">04:00:00.000</property>
    <property name="eof">pause</property>
    <property name="resource">#FF99C1F1</property>
    <property name="aspect_ratio">1</property>
    <property name="mlt_service">color</property>
    <property name="mlt_image_format">rgba</property>
    <property name="shotcut:caption">#FF99C1F1</property>
    <property name="shotcut:detail">#FF99C1F1</property>
    <property name="ignore_points">0</property>
    <property name="xml">was here</property>
    <property name="seekable">1</property>
  </producer>
  <producer id="30_overlay_producer4" in="00:00:00.000" out="03:59:59.983">
    <property name="length">04:00:00.000</property>
    <property name="eof">pause</property>
    <property name="resource">10_a_topologia_dos_espacos_metricos/generated/30_topico_bg_texto.png</property>
    <property name="ttl">1</property>
    <property name="aspect_ratio">1</property>
    <property name="progressive">1</property>
    <property name="seekable">1</property>
    <property name="mlt_service">qimage</property>
    <property name="creation_time">2021-11-24T18:39:48</property>
    <property name="shotcut:caption">bg_texto.png</property>
    <property name="shotcut:hash">d5fc40c9de976d2f99533f2be27abde3</property>
    <property name="ignore_points">0</property>
    <property name="xml">was here</property>
    <filter id="30_overlay_filter1" out="00:00:02.983">
      <property name="start">1</property>
      <property name="level">1</property>
      <property name="mlt_service">brightness</property>
      <property name="shotcut:filter">brightnessOpacity</property>
      <property name="alpha">00:00:00.000=0;00:00:00.250=1;00:00:02.250=1;00:00:02.800=0</property>
      <property name="opacity">00:00:00.000=0;00:00:00.250=1;00:00:02.250=1;00:00:02.800=0</property>
    </filter>
  </producer>
  <producer id="30_overlay_producer5" in="00:00:00.000" out="03:59:59.983">
    <property name="length">04:00:00.000</property>
    <property name="eof">pause</property>
    <property name="resource">10_a_topologia_dos_espacos_metricos/generated/30_topico_fg_texto.png</property>
    <property name="ttl">1</property>
    <property name="aspect_ratio">1</property>
    <property name="progressive">1</property>
    <property name="seekable">1</property>
    <property name="mlt_service">qimage</property>
    <property name="creation_time">2021-11-24T18:39:48</property>
    <property name="xml">was here</property>
    <property name="shotcut:hash">c1c201fa238ef40512ba140451c14678</property>
    <property name="shotcut:caption">fg_texto.png</property>
    <property name="ignore_points">1</property>
    <filter id="30_overlay_filter0" out="00:00:02.983">
      <property name="start">1</property>
      <property name="level">1</property>
      <property name="mlt_service">brightness</property>
      <property name="shotcut:filter">brightnessOpacity</property>
      <property name="alpha">00:00:00.000=0;00:00:00.250=1;00:00:02.250=1;00:00:02.800=0</property>
      <property name="opacity">00:00:00.000=0;00:00:00.250=1;00:00:02.250=1;00:00:02.800=0</property>
    </filter>
  </producer>
<!-- Producers (template: topico - 31) -->
  <producer id="31_overlay_producer0" in="00:00:00.000" out="03:59:59.983">
    <property name="length">04:00:00.000</property>
    <property name="eof">pause</property>
    <property name="resource">10_a_topologia_dos_espacos_metricos/generated/31_topico_bg_texto.png</property>
    <property name="ttl">1</property>
    <property name="aspect_ratio">1</property>
    <property name="progressive">1</property>
    <property name="seekable">1</property>
    <property name="mlt_service">qimage</property>
    <property name="creation_time">2021-11-24T18:39:48</property>
    <property name="shotcut:caption">bg_texto.png</property>
    <property name="shotcut:hash">338076569844c51f50087b379d90f8dc</property>
    <property name="ignore_points">0</property>
    <property name="xml">was here</property>
  </producer>
  <producer id="31_overlay_producer1" in="00:00:00.000" out="00:00:03.983">
    <property name="length">04:00:00.000</property>
    <property name="eof">pause</property>
    <property name="resource">10_a_topologia_dos_espacos_metricos/generated/31_topico_fg_texto.png</property>
    <property name="ttl">1</property>
    <property name="aspect_ratio">1</property>
    <property name="progressive">1</property>
    <property name="seekable">1</property>
    <property name="mlt_service">qimage</property>
    <property name="creation_time">2021-11-24T18:39:48</property>
    <property name="xml">was here</property>
    <property name="shotcut:hash">fe72a99df0b5a764397da93339d437cc</property>
    <property name="shotcut:caption">fg_texto.png</property>
    <property name="ignore_points">1</property>
  </producer>
  <producer id="31_overlay_producer2" in="00:00:00.000" out="03:59:59.983">
    <property name="length">04:00:00.000</property>
    <property name="eof">pause</property>
    <property name="resource">#FF99C1F1</property>
    <property name="aspect_ratio">1</property>
    <property name="mlt_service">color</property>
    <property name="mlt_image_format">rgba</property>
    <property name="shotcut:caption">#FF99C1F1</property>
    <property name="shotcut:detail">#FF99C1F1</property>
    <property name="ignore_points">0</property>
    <property name="xml">was here</property>
    <property name="seekable">1</property>
  </producer>
  <producer id="31_overlay_producer3" in="00:00:00.000" out="03:59:59.983">
    <property name="length">04:00:00.000</property>
    <property name="eof">pause</property>
    <property name="resource">#FF99C1F1</property>
    <property name="aspect_ratio">1</property>
    <property name="mlt_service">color</property>
    <property name="mlt_image_format">rgba</property>
    <property name="shotcut:caption">#FF99C1F1</property>
    <property name="shotcut:detail">#FF99C1F1</property>
    <property name="ignore_points">0</property>
    <property name="xml">was here</property>
    <property name="seekable">1</property>
  </producer>
  <producer id="31_overlay_producer4" in="00:00:00.000" out="03:59:59.983">
    <property name="length">04:00:00.000</property>
    <property name="eof">pause</property>
    <property name="resource">10_a_topologia_dos_espacos_metricos/generated/31_topico_bg_texto.png</property>
    <property name="ttl">1</property>
    <property name="aspect_ratio">1</property>
    <property name="progressive">1</property>
    <property name="seekable">1</property>
    <property name="mlt_service">qimage</property>
    <property name="creation_time">2021-11-24T18:39:48</property>
    <property name="shotcut:caption">bg_texto.png</property>
    <property name="shotcut:hash">338076569844c51f50087b379d90f8dc</property>
    <property name="ignore_points">0</property>
    <property name="xml">was here</property>
    <filter id="31_overlay_filter1" out="00:00:02.983">
      <property name="start">1</property>
      <property name="level">1</property>
      <property name="mlt_service">brightness</property>
      <property name="shotcut:filter">brightnessOpacity</property>
      <property name="alpha">00:00:00.000=0;00:00:00.250=1;00:00:02.250=1;00:00:02.800=0</property>
      <property name="opacity">00:00:00.000=0;00:00:00.250=1;00:00:02.250=1;00:00:02.800=0</property>
    </filter>
  </producer>
  <producer id="31_overlay_producer5" in="00:00:00.000" out="03:59:59.983">
    <property name="length">04:00:00.000</property>
    <property name="eof">pause</property>
    <property name="resource">10_a_topologia_dos_espacos_metricos/generated/31_topico_fg_texto.png</property>
    <property name="ttl">1</property>
    <property name="aspect_ratio">1</property>
    <property name="progressive">1</property>
    <property name="seekable">1</property>
    <property name="mlt_service">qimage</property>
    <property name="creation_time">2021-11-24T18:39:48</property>
    <property name="xml">was here</property>
    <property name="shotcut:hash">fe72a99df0b5a764397da93339d437cc</property>
    <property name="shotcut:caption">fg_texto.png</property>
    <property name="ignore_points">1</property>
    <filter id="31_overlay_filter0" out="00:00:02.983">
      <property name="start">1</property>
      <property name="level">1</property>
      <property name="mlt_service">brightness</property>
      <property name="shotcut:filter">brightnessOpacity</property>
      <property name="alpha">00:00:00.000=0;00:00:00.250=1;00:00:02.250=1;00:00:02.800=0</property>
      <property name="opacity">00:00:00.000=0;00:00:00.250=1;00:00:02.250=1;00:00:02.800=0</property>
    </filter>
  </producer>
<!-- Producers (template: topico - 32) -->
  <producer id="32_overlay_producer0" in="00:00:00.000" out="03:59:59.983">
    <property name="length">04:00:00.000</property>
    <property name="eof">pause</property>
    <property name="resource">10_a_topologia_dos_espacos_metricos/generated/32_topico_bg_texto.png</property>
    <property name="ttl">1</property>
    <property name="aspect_ratio">1</property>
    <property name="progressive">1</property>
    <property name="seekable">1</property>
    <property name="mlt_service">qimage</property>
    <property name="creation_time">2021-11-24T18:39:48</property>
    <property name="shotcut:caption">bg_texto.png</property>
    <property name="shotcut:hash">cb930b54f5258db3e40ccd8044c447c4</property>
    <property name="ignore_points">0</property>
    <property name="xml">was here</property>
  </producer>
  <producer id="32_overlay_producer1" in="00:00:00.000" out="00:00:03.983">
    <property name="length">04:00:00.000</property>
    <property name="eof">pause</property>
    <property name="resource">10_a_topologia_dos_espacos_metricos/generated/32_topico_fg_texto.png</property>
    <property name="ttl">1</property>
    <property name="aspect_ratio">1</property>
    <property name="progressive">1</property>
    <property name="seekable">1</property>
    <property name="mlt_service">qimage</property>
    <property name="creation_time">2021-11-24T18:39:48</property>
    <property name="xml">was here</property>
    <property name="shotcut:hash">145abdf325835dd1b77359bd81252625</property>
    <property name="shotcut:caption">fg_texto.png</property>
    <property name="ignore_points">1</property>
  </producer>
  <producer id="32_overlay_producer2" in="00:00:00.000" out="03:59:59.983">
    <property name="length">04:00:00.000</property>
    <property name="eof">pause</property>
    <property name="resource">#FF99C1F1</property>
    <property name="aspect_ratio">1</property>
    <property name="mlt_service">color</property>
    <property name="mlt_image_format">rgba</property>
    <property name="shotcut:caption">#FF99C1F1</property>
    <property name="shotcut:detail">#FF99C1F1</property>
    <property name="ignore_points">0</property>
    <property name="xml">was here</property>
    <property name="seekable">1</property>
  </producer>
  <producer id="32_overlay_producer3" in="00:00:00.000" out="03:59:59.983">
    <property name="length">04:00:00.000</property>
    <property name="eof">pause</property>
    <property name="resource">#FF99C1F1</property>
    <property name="aspect_ratio">1</property>
    <property name="mlt_service">color</property>
    <property name="mlt_image_format">rgba</property>
    <property name="shotcut:caption">#FF99C1F1</property>
    <property name="shotcut:detail">#FF99C1F1</property>
    <property name="ignore_points">0</property>
    <property name="xml">was here</property>
    <property name="seekable">1</property>
  </producer>
  <producer id="32_overlay_producer4" in="00:00:00.000" out="03:59:59.983">
    <property name="length">04:00:00.000</property>
    <property name="eof">pause</property>
    <property name="resource">10_a_topologia_dos_espacos_metricos/generated/32_topico_bg_texto.png</property>
    <property name="ttl">1</property>
    <property name="aspect_ratio">1</property>
    <property name="progressive">1</property>
    <property name="seekable">1</property>
    <property name="mlt_service">qimage</property>
    <property name="creation_time">2021-11-24T18:39:48</property>
    <property name="shotcut:caption">bg_texto.png</property>
    <property name="shotcut:hash">cb930b54f5258db3e40ccd8044c447c4</property>
    <property name="ignore_points">0</property>
    <property name="xml">was here</property>
    <filter id="32_overlay_filter1" out="00:00:02.983">
      <property name="start">1</property>
      <property name="level">1</property>
      <property name="mlt_service">brightness</property>
      <property name="shotcut:filter">brightnessOpacity</property>
      <property name="alpha">00:00:00.000=0;00:00:00.250=1;00:00:02.250=1;00:00:02.800=0</property>
      <property name="opacity">00:00:00.000=0;00:00:00.250=1;00:00:02.250=1;00:00:02.800=0</property>
    </filter>
  </producer>
  <producer id="32_overlay_producer5" in="00:00:00.000" out="03:59:59.983">
    <property name="length">04:00:00.000</property>
    <property name="eof">pause</property>
    <property name="resource">10_a_topologia_dos_espacos_metricos/generated/32_topico_fg_texto.png</property>
    <property name="ttl">1</property>
    <property name="aspect_ratio">1</property>
    <property name="progressive">1</property>
    <property name="seekable">1</property>
    <property name="mlt_service">qimage</property>
    <property name="creation_time">2021-11-24T18:39:48</property>
    <property name="xml">was here</property>
    <property name="shotcut:hash">145abdf325835dd1b77359bd81252625</property>
    <property name="shotcut:caption">fg_texto.png</property>
    <property name="ignore_points">1</property>
    <filter id="32_overlay_filter0" out="00:00:02.983">
      <property name="start">1</property>
      <property name="level">1</property>
      <property name="mlt_service">brightness</property>
      <property name="shotcut:filter">brightnessOpacity</property>
      <property name="alpha">00:00:00.000=0;00:00:00.250=1;00:00:02.250=1;00:00:02.800=0</property>
      <property name="opacity">00:00:00.000=0;00:00:00.250=1;00:00:02.250=1;00:00:02.800=0</property>
    </filter>
  </producer>
<!-- Producers (template: topico - 33) -->
  <producer id="33_overlay_producer0" in="00:00:00.000" out="03:59:59.983">
    <property name="length">04:00:00.000</property>
    <property name="eof">pause</property>
    <property name="resource">10_a_topologia_dos_espacos_metricos/generated/33_topico_bg_texto.png</property>
    <property name="ttl">1</property>
    <property name="aspect_ratio">1</property>
    <property name="progressive">1</property>
    <property name="seekable">1</property>
    <property name="mlt_service">qimage</property>
    <property name="creation_time">2021-11-24T18:39:48</property>
    <property name="shotcut:caption">bg_texto.png</property>
    <property name="shotcut:hash">0c2a7e431019abcfce009aeb5f07ee9b</property>
    <property name="ignore_points">0</property>
    <property name="xml">was here</property>
  </producer>
  <producer id="33_overlay_producer1" in="00:00:00.000" out="00:00:03.983">
    <property name="length">04:00:00.000</property>
    <property name="eof">pause</property>
    <property name="resource">10_a_topologia_dos_espacos_metricos/generated/33_topico_fg_texto.png</property>
    <property name="ttl">1</property>
    <property name="aspect_ratio">1</property>
    <property name="progressive">1</property>
    <property name="seekable">1</property>
    <property name="mlt_service">qimage</property>
    <property name="creation_time">2021-11-24T18:39:48</property>
    <property name="xml">was here</property>
    <property name="shotcut:hash">e9b9add4dfd9ebc02a55d0609ac7a608</property>
    <property name="shotcut:caption">fg_texto.png</property>
    <property name="ignore_points">1</property>
  </producer>
  <producer id="33_overlay_producer2" in="00:00:00.000" out="03:59:59.983">
    <property name="length">04:00:00.000</property>
    <property name="eof">pause</property>
    <property name="resource">#FF99C1F1</property>
    <property name="aspect_ratio">1</property>
    <property name="mlt_service">color</property>
    <property name="mlt_image_format">rgba</property>
    <property name="shotcut:caption">#FF99C1F1</property>
    <property name="shotcut:detail">#FF99C1F1</property>
    <property name="ignore_points">0</property>
    <property name="xml">was here</property>
    <property name="seekable">1</property>
  </producer>
  <producer id="33_overlay_producer3" in="00:00:00.000" out="03:59:59.983">
    <property name="length">04:00:00.000</property>
    <property name="eof">pause</property>
    <property name="resource">#FF99C1F1</property>
    <property name="aspect_ratio">1</property>
    <property name="mlt_service">color</property>
    <property name="mlt_image_format">rgba</property>
    <property name="shotcut:caption">#FF99C1F1</property>
    <property name="shotcut:detail">#FF99C1F1</property>
    <property name="ignore_points">0</property>
    <property name="xml">was here</property>
    <property name="seekable">1</property>
  </producer>
  <producer id="33_overlay_producer4" in="00:00:00.000" out="03:59:59.983">
    <property name="length">04:00:00.000</property>
    <property name="eof">pause</property>
    <property name="resource">10_a_topologia_dos_espacos_metricos/generated/33_topico_bg_texto.png</property>
    <property name="ttl">1</property>
    <property name="aspect_ratio">1</property>
    <property name="progressive">1</property>
    <property name="seekable">1</property>
    <property name="mlt_service">qimage</property>
    <property name="creation_time">2021-11-24T18:39:48</property>
    <property name="shotcut:caption">bg_texto.png</property>
    <property name="shotcut:hash">0c2a7e431019abcfce009aeb5f07ee9b</property>
    <property name="ignore_points">0</property>
    <property name="xml">was here</property>
    <filter id="33_overlay_filter1" out="00:00:02.983">
      <property name="start">1</property>
      <property name="level">1</property>
      <property name="mlt_service">brightness</property>
      <property name="shotcut:filter">brightnessOpacity</property>
      <property name="alpha">00:00:00.000=0;00:00:00.250=1;00:00:02.250=1;00:00:02.800=0</property>
      <property name="opacity">00:00:00.000=0;00:00:00.250=1;00:00:02.250=1;00:00:02.800=0</property>
    </filter>
  </producer>
  <producer id="33_overlay_producer5" in="00:00:00.000" out="03:59:59.983">
    <property name="length">04:00:00.000</property>
    <property name="eof">pause</property>
    <property name="resource">10_a_topologia_dos_espacos_metricos/generated/33_topico_fg_texto.png</property>
    <property name="ttl">1</property>
    <property name="aspect_ratio">1</property>
    <property name="progressive">1</property>
    <property name="seekable">1</property>
    <property name="mlt_service">qimage</property>
    <property name="creation_time">2021-11-24T18:39:48</property>
    <property name="xml">was here</property>
    <property name="shotcut:hash">e9b9add4dfd9ebc02a55d0609ac7a608</property>
    <property name="shotcut:caption">fg_texto.png</property>
    <property name="ignore_points">1</property>
    <filter id="33_overlay_filter0" out="00:00:02.983">
      <property name="start">1</property>
      <property name="level">1</property>
      <property name="mlt_service">brightness</property>
      <property name="shotcut:filter">brightnessOpacity</property>
      <property name="alpha">00:00:00.000=0;00:00:00.250=1;00:00:02.250=1;00:00:02.800=0</property>
      <property name="opacity">00:00:00.000=0;00:00:00.250=1;00:00:02.250=1;00:00:02.800=0</property>
    </filter>
  </producer>
<!-- Producers (template: topico - 34) -->
  <producer id="34_overlay_producer0" in="00:00:00.000" out="03:59:59.983">
    <property name="length">04:00:00.000</property>
    <property name="eof">pause</property>
    <property name="resource">10_a_topologia_dos_espacos_metricos/generated/34_topico_bg_texto.png</property>
    <property name="ttl">1</property>
    <property name="aspect_ratio">1</property>
    <property name="progressive">1</property>
    <property name="seekable">1</property>
    <property name="mlt_service">qimage</property>
    <property name="creation_time">2021-11-24T18:39:48</property>
    <property name="shotcut:caption">bg_texto.png</property>
    <property name="shotcut:hash">aaee968b69391d4dd91da2458a768788</property>
    <property name="ignore_points">0</property>
    <property name="xml">was here</property>
  </producer>
  <producer id="34_overlay_producer1" in="00:00:00.000" out="00:00:03.983">
    <property name="length">04:00:00.000</property>
    <property name="eof">pause</property>
    <property name="resource">10_a_topologia_dos_espacos_metricos/generated/34_topico_fg_texto.png</property>
    <property name="ttl">1</property>
    <property name="aspect_ratio">1</property>
    <property name="progressive">1</property>
    <property name="seekable">1</property>
    <property name="mlt_service">qimage</property>
    <property name="creation_time">2021-11-24T18:39:48</property>
    <property name="xml">was here</property>
    <property name="shotcut:hash">1b4a3d22aee3d22ed1aa8f6caca34812</property>
    <property name="shotcut:caption">fg_texto.png</property>
    <property name="ignore_points">1</property>
  </producer>
  <producer id="34_overlay_producer2" in="00:00:00.000" out="03:59:59.983">
    <property name="length">04:00:00.000</property>
    <property name="eof">pause</property>
    <property name="resource">#FF99C1F1</property>
    <property name="aspect_ratio">1</property>
    <property name="mlt_service">color</property>
    <property name="mlt_image_format">rgba</property>
    <property name="shotcut:caption">#FF99C1F1</property>
    <property name="shotcut:detail">#FF99C1F1</property>
    <property name="ignore_points">0</property>
    <property name="xml">was here</property>
    <property name="seekable">1</property>
  </producer>
  <producer id="34_overlay_producer3" in="00:00:00.000" out="03:59:59.983">
    <property name="length">04:00:00.000</property>
    <property name="eof">pause</property>
    <property name="resource">#FF99C1F1</property>
    <property name="aspect_ratio">1</property>
    <property name="mlt_service">color</property>
    <property name="mlt_image_format">rgba</property>
    <property name="shotcut:caption">#FF99C1F1</property>
    <property name="shotcut:detail">#FF99C1F1</property>
    <property name="ignore_points">0</property>
    <property name="xml">was here</property>
    <property name="seekable">1</property>
  </producer>
  <producer id="34_overlay_producer4" in="00:00:00.000" out="03:59:59.983">
    <property name="length">04:00:00.000</property>
    <property name="eof">pause</property>
    <property name="resource">10_a_topologia_dos_espacos_metricos/generated/34_topico_bg_texto.png</property>
    <property name="ttl">1</property>
    <property name="aspect_ratio">1</property>
    <property name="progressive">1</property>
    <property name="seekable">1</property>
    <property name="mlt_service">qimage</property>
    <property name="creation_time">2021-11-24T18:39:48</property>
    <property name="shotcut:caption">bg_texto.png</property>
    <property name="shotcut:hash">aaee968b69391d4dd91da2458a768788</property>
    <property name="ignore_points">0</property>
    <property name="xml">was here</property>
    <filter id="34_overlay_filter1" out="00:00:02.983">
      <property name="start">1</property>
      <property name="level">1</property>
      <property name="mlt_service">brightness</property>
      <property name="shotcut:filter">brightnessOpacity</property>
      <property name="alpha">00:00:00.000=0;00:00:00.250=1;00:00:02.250=1;00:00:02.800=0</property>
      <property name="opacity">00:00:00.000=0;00:00:00.250=1;00:00:02.250=1;00:00:02.800=0</property>
    </filter>
  </producer>
  <producer id="34_overlay_producer5" in="00:00:00.000" out="03:59:59.983">
    <property name="length">04:00:00.000</property>
    <property name="eof">pause</property>
    <property name="resource">10_a_topologia_dos_espacos_metricos/generated/34_topico_fg_texto.png</property>
    <property name="ttl">1</property>
    <property name="aspect_ratio">1</property>
    <property name="progressive">1</property>
    <property name="seekable">1</property>
    <property name="mlt_service">qimage</property>
    <property name="creation_time">2021-11-24T18:39:48</property>
    <property name="xml">was here</property>
    <property name="shotcut:hash">1b4a3d22aee3d22ed1aa8f6caca34812</property>
    <property name="shotcut:caption">fg_texto.png</property>
    <property name="ignore_points">1</property>
    <filter id="34_overlay_filter0" out="00:00:02.983">
      <property name="start">1</property>
      <property name="level">1</property>
      <property name="mlt_service">brightness</property>
      <property name="shotcut:filter">brightnessOpacity</property>
      <property name="alpha">00:00:00.000=0;00:00:00.250=1;00:00:02.250=1;00:00:02.800=0</property>
      <property name="opacity">00:00:00.000=0;00:00:00.250=1;00:00:02.250=1;00:00:02.800=0</property>
    </filter>
  </producer>
<!-- Producers (template: topico - 35) -->
  <producer id="35_overlay_producer0" in="00:00:00.000" out="03:59:59.983">
    <property name="length">04:00:00.000</property>
    <property name="eof">pause</property>
    <property name="resource">10_a_topologia_dos_espacos_metricos/generated/35_topico_bg_texto.png</property>
    <property name="ttl">1</property>
    <property name="aspect_ratio">1</property>
    <property name="progressive">1</property>
    <property name="seekable">1</property>
    <property name="mlt_service">qimage</property>
    <property name="creation_time">2021-11-24T18:39:48</property>
    <property name="shotcut:caption">bg_texto.png</property>
    <property name="shotcut:hash">52be3cf1bff436c6d47bbd6bc9a7183d</property>
    <property name="ignore_points">0</property>
    <property name="xml">was here</property>
  </producer>
  <producer id="35_overlay_producer1" in="00:00:00.000" out="00:00:03.983">
    <property name="length">04:00:00.000</property>
    <property name="eof">pause</property>
    <property name="resource">10_a_topologia_dos_espacos_metricos/generated/35_topico_fg_texto.png</property>
    <property name="ttl">1</property>
    <property name="aspect_ratio">1</property>
    <property name="progressive">1</property>
    <property name="seekable">1</property>
    <property name="mlt_service">qimage</property>
    <property name="creation_time">2021-11-24T18:39:48</property>
    <property name="xml">was here</property>
    <property name="shotcut:hash">e83aeb35ea8699d912e72b8c71b69a94</property>
    <property name="shotcut:caption">fg_texto.png</property>
    <property name="ignore_points">1</property>
  </producer>
  <producer id="35_overlay_producer2" in="00:00:00.000" out="03:59:59.983">
    <property name="length">04:00:00.000</property>
    <property name="eof">pause</property>
    <property name="resource">#FF99C1F1</property>
    <property name="aspect_ratio">1</property>
    <property name="mlt_service">color</property>
    <property name="mlt_image_format">rgba</property>
    <property name="shotcut:caption">#FF99C1F1</property>
    <property name="shotcut:detail">#FF99C1F1</property>
    <property name="ignore_points">0</property>
    <property name="xml">was here</property>
    <property name="seekable">1</property>
  </producer>
  <producer id="35_overlay_producer3" in="00:00:00.000" out="03:59:59.983">
    <property name="length">04:00:00.000</property>
    <property name="eof">pause</property>
    <property name="resource">#FF99C1F1</property>
    <property name="aspect_ratio">1</property>
    <property name="mlt_service">color</property>
    <property name="mlt_image_format">rgba</property>
    <property name="shotcut:caption">#FF99C1F1</property>
    <property name="shotcut:detail">#FF99C1F1</property>
    <property name="ignore_points">0</property>
    <property name="xml">was here</property>
    <property name="seekable">1</property>
  </producer>
  <producer id="35_overlay_producer4" in="00:00:00.000" out="03:59:59.983">
    <property name="length">04:00:00.000</property>
    <property name="eof">pause</property>
    <property name="resource">10_a_topologia_dos_espacos_metricos/generated/35_topico_bg_texto.png</property>
    <property name="ttl">1</property>
    <property name="aspect_ratio">1</property>
    <property name="progressive">1</property>
    <property name="seekable">1</property>
    <property name="mlt_service">qimage</property>
    <property name="creation_time">2021-11-24T18:39:48</property>
    <property name="shotcut:caption">bg_texto.png</property>
    <property name="shotcut:hash">52be3cf1bff436c6d47bbd6bc9a7183d</property>
    <property name="ignore_points">0</property>
    <property name="xml">was here</property>
    <filter id="35_overlay_filter1" out="00:00:02.983">
      <property name="start">1</property>
      <property name="level">1</property>
      <property name="mlt_service">brightness</property>
      <property name="shotcut:filter">brightnessOpacity</property>
      <property name="alpha">00:00:00.000=0;00:00:00.250=1;00:00:02.250=1;00:00:02.800=0</property>
      <property name="opacity">00:00:00.000=0;00:00:00.250=1;00:00:02.250=1;00:00:02.800=0</property>
    </filter>
  </producer>
  <producer id="35_overlay_producer5" in="00:00:00.000" out="03:59:59.983">
    <property name="length">04:00:00.000</property>
    <property name="eof">pause</property>
    <property name="resource">10_a_topologia_dos_espacos_metricos/generated/35_topico_fg_texto.png</property>
    <property name="ttl">1</property>
    <property name="aspect_ratio">1</property>
    <property name="progressive">1</property>
    <property name="seekable">1</property>
    <property name="mlt_service">qimage</property>
    <property name="creation_time">2021-11-24T18:39:48</property>
    <property name="xml">was here</property>
    <property name="shotcut:hash">e83aeb35ea8699d912e72b8c71b69a94</property>
    <property name="shotcut:caption">fg_texto.png</property>
    <property name="ignore_points">1</property>
    <filter id="35_overlay_filter0" out="00:00:02.983">
      <property name="start">1</property>
      <property name="level">1</property>
      <property name="mlt_service">brightness</property>
      <property name="shotcut:filter">brightnessOpacity</property>
      <property name="alpha">00:00:00.000=0;00:00:00.250=1;00:00:02.250=1;00:00:02.800=0</property>
      <property name="opacity">00:00:00.000=0;00:00:00.250=1;00:00:02.250=1;00:00:02.800=0</property>
    </filter>
  </producer>
<!-- Producers (template: topico - 36) -->
  <producer id="36_overlay_producer0" in="00:00:00.000" out="03:59:59.983">
    <property name="length">04:00:00.000</property>
    <property name="eof">pause</property>
    <property name="resource">10_a_topologia_dos_espacos_metricos/generated/36_topico_bg_texto.png</property>
    <property name="ttl">1</property>
    <property name="aspect_ratio">1</property>
    <property name="progressive">1</property>
    <property name="seekable">1</property>
    <property name="mlt_service">qimage</property>
    <property name="creation_time">2021-11-24T18:39:48</property>
    <property name="shotcut:caption">bg_texto.png</property>
    <property name="shotcut:hash">60e1d50725e5a822fceb6a45f6995b33</property>
    <property name="ignore_points">0</property>
    <property name="xml">was here</property>
  </producer>
  <producer id="36_overlay_producer1" in="00:00:00.000" out="00:00:03.983">
    <property name="length">04:00:00.000</property>
    <property name="eof">pause</property>
    <property name="resource">10_a_topologia_dos_espacos_metricos/generated/36_topico_fg_texto.png</property>
    <property name="ttl">1</property>
    <property name="aspect_ratio">1</property>
    <property name="progressive">1</property>
    <property name="seekable">1</property>
    <property name="mlt_service">qimage</property>
    <property name="creation_time">2021-11-24T18:39:48</property>
    <property name="xml">was here</property>
    <property name="shotcut:hash">427e3f99faab778f87df3452d491ba42</property>
    <property name="shotcut:caption">fg_texto.png</property>
    <property name="ignore_points">1</property>
  </producer>
  <producer id="36_overlay_producer2" in="00:00:00.000" out="03:59:59.983">
    <property name="length">04:00:00.000</property>
    <property name="eof">pause</property>
    <property name="resource">#FF99C1F1</property>
    <property name="aspect_ratio">1</property>
    <property name="mlt_service">color</property>
    <property name="mlt_image_format">rgba</property>
    <property name="shotcut:caption">#FF99C1F1</property>
    <property name="shotcut:detail">#FF99C1F1</property>
    <property name="ignore_points">0</property>
    <property name="xml">was here</property>
    <property name="seekable">1</property>
  </producer>
  <producer id="36_overlay_producer3" in="00:00:00.000" out="03:59:59.983">
    <property name="length">04:00:00.000</property>
    <property name="eof">pause</property>
    <property name="resource">#FF99C1F1</property>
    <property name="aspect_ratio">1</property>
    <property name="mlt_service">color</property>
    <property name="mlt_image_format">rgba</property>
    <property name="shotcut:caption">#FF99C1F1</property>
    <property name="shotcut:detail">#FF99C1F1</property>
    <property name="ignore_points">0</property>
    <property name="xml">was here</property>
    <property name="seekable">1</property>
  </producer>
  <producer id="36_overlay_producer4" in="00:00:00.000" out="03:59:59.983">
    <property name="length">04:00:00.000</property>
    <property name="eof">pause</property>
    <property name="resource">10_a_topologia_dos_espacos_metricos/generated/36_topico_bg_texto.png</property>
    <property name="ttl">1</property>
    <property name="aspect_ratio">1</property>
    <property name="progressive">1</property>
    <property name="seekable">1</property>
    <property name="mlt_service">qimage</property>
    <property name="creation_time">2021-11-24T18:39:48</property>
    <property name="shotcut:caption">bg_texto.png</property>
    <property name="shotcut:hash">60e1d50725e5a822fceb6a45f6995b33</property>
    <property name="ignore_points">0</property>
    <property name="xml">was here</property>
    <filter id="36_overlay_filter1" out="00:00:02.983">
      <property name="start">1</property>
      <property name="level">1</property>
      <property name="mlt_service">brightness</property>
      <property name="shotcut:filter">brightnessOpacity</property>
      <property name="alpha">00:00:00.000=0;00:00:00.250=1;00:00:02.250=1;00:00:02.800=0</property>
      <property name="opacity">00:00:00.000=0;00:00:00.250=1;00:00:02.250=1;00:00:02.800=0</property>
    </filter>
  </producer>
  <producer id="36_overlay_producer5" in="00:00:00.000" out="03:59:59.983">
    <property name="length">04:00:00.000</property>
    <property name="eof">pause</property>
    <property name="resource">10_a_topologia_dos_espacos_metricos/generated/36_topico_fg_texto.png</property>
    <property name="ttl">1</property>
    <property name="aspect_ratio">1</property>
    <property name="progressive">1</property>
    <property name="seekable">1</property>
    <property name="mlt_service">qimage</property>
    <property name="creation_time">2021-11-24T18:39:48</property>
    <property name="xml">was here</property>
    <property name="shotcut:hash">427e3f99faab778f87df3452d491ba42</property>
    <property name="shotcut:caption">fg_texto.png</property>
    <property name="ignore_points">1</property>
    <filter id="36_overlay_filter0" out="00:00:02.983">
      <property name="start">1</property>
      <property name="level">1</property>
      <property name="mlt_service">brightness</property>
      <property name="shotcut:filter">brightnessOpacity</property>
      <property name="alpha">00:00:00.000=0;00:00:00.250=1;00:00:02.250=1;00:00:02.800=0</property>
      <property name="opacity">00:00:00.000=0;00:00:00.250=1;00:00:02.250=1;00:00:02.800=0</property>
    </filter>
  </producer>
<!-- Producers (template: topico - 37) -->
  <producer id="37_overlay_producer0" in="00:00:00.000" out="03:59:59.983">
    <property name="length">04:00:00.000</property>
    <property name="eof">pause</property>
    <property name="resource">10_a_topologia_dos_espacos_metricos/generated/37_topico_bg_texto.png</property>
    <property name="ttl">1</property>
    <property name="aspect_ratio">1</property>
    <property name="progressive">1</property>
    <property name="seekable">1</property>
    <property name="mlt_service">qimage</property>
    <property name="creation_time">2021-11-24T18:39:48</property>
    <property name="shotcut:caption">bg_texto.png</property>
    <property name="shotcut:hash">7c6d076a6c56cc6dd204e91568434245</property>
    <property name="ignore_points">0</property>
    <property name="xml">was here</property>
  </producer>
  <producer id="37_overlay_producer1" in="00:00:00.000" out="00:00:03.983">
    <property name="length">04:00:00.000</property>
    <property name="eof">pause</property>
    <property name="resource">10_a_topologia_dos_espacos_metricos/generated/37_topico_fg_texto.png</property>
    <property name="ttl">1</property>
    <property name="aspect_ratio">1</property>
    <property name="progressive">1</property>
    <property name="seekable">1</property>
    <property name="mlt_service">qimage</property>
    <property name="creation_time">2021-11-24T18:39:48</property>
    <property name="xml">was here</property>
    <property name="shotcut:hash">f53aa3241f6f43d130937fbd0b0377c6</property>
    <property name="shotcut:caption">fg_texto.png</property>
    <property name="ignore_points">1</property>
  </producer>
  <producer id="37_overlay_producer2" in="00:00:00.000" out="03:59:59.983">
    <property name="length">04:00:00.000</property>
    <property name="eof">pause</property>
    <property name="resource">#FF99C1F1</property>
    <property name="aspect_ratio">1</property>
    <property name="mlt_service">color</property>
    <property name="mlt_image_format">rgba</property>
    <property name="shotcut:caption">#FF99C1F1</property>
    <property name="shotcut:detail">#FF99C1F1</property>
    <property name="ignore_points">0</property>
    <property name="xml">was here</property>
    <property name="seekable">1</property>
  </producer>
  <producer id="37_overlay_producer3" in="00:00:00.000" out="03:59:59.983">
    <property name="length">04:00:00.000</property>
    <property name="eof">pause</property>
    <property name="resource">#FF99C1F1</property>
    <property name="aspect_ratio">1</property>
    <property name="mlt_service">color</property>
    <property name="mlt_image_format">rgba</property>
    <property name="shotcut:caption">#FF99C1F1</property>
    <property name="shotcut:detail">#FF99C1F1</property>
    <property name="ignore_points">0</property>
    <property name="xml">was here</property>
    <property name="seekable">1</property>
  </producer>
  <producer id="37_overlay_producer4" in="00:00:00.000" out="03:59:59.983">
    <property name="length">04:00:00.000</property>
    <property name="eof">pause</property>
    <property name="resource">10_a_topologia_dos_espacos_metricos/generated/37_topico_bg_texto.png</property>
    <property name="ttl">1</property>
    <property name="aspect_ratio">1</property>
    <property name="progressive">1</property>
    <property name="seekable">1</property>
    <property name="mlt_service">qimage</property>
    <property name="creation_time">2021-11-24T18:39:48</property>
    <property name="shotcut:caption">bg_texto.png</property>
    <property name="shotcut:hash">7c6d076a6c56cc6dd204e91568434245</property>
    <property name="ignore_points">0</property>
    <property name="xml">was here</property>
    <filter id="37_overlay_filter1" out="00:00:02.983">
      <property name="start">1</property>
      <property name="level">1</property>
      <property name="mlt_service">brightness</property>
      <property name="shotcut:filter">brightnessOpacity</property>
      <property name="alpha">00:00:00.000=0;00:00:00.250=1;00:00:02.250=1;00:00:02.800=0</property>
      <property name="opacity">00:00:00.000=0;00:00:00.250=1;00:00:02.250=1;00:00:02.800=0</property>
    </filter>
  </producer>
  <producer id="37_overlay_producer5" in="00:00:00.000" out="03:59:59.983">
    <property name="length">04:00:00.000</property>
    <property name="eof">pause</property>
    <property name="resource">10_a_topologia_dos_espacos_metricos/generated/37_topico_fg_texto.png</property>
    <property name="ttl">1</property>
    <property name="aspect_ratio">1</property>
    <property name="progressive">1</property>
    <property name="seekable">1</property>
    <property name="mlt_service">qimage</property>
    <property name="creation_time">2021-11-24T18:39:48</property>
    <property name="xml">was here</property>
    <property name="shotcut:hash">f53aa3241f6f43d130937fbd0b0377c6</property>
    <property name="shotcut:caption">fg_texto.png</property>
    <property name="ignore_points">1</property>
    <filter id="37_overlay_filter0" out="00:00:02.983">
      <property name="start">1</property>
      <property name="level">1</property>
      <property name="mlt_service">brightness</property>
      <property name="shotcut:filter">brightnessOpacity</property>
      <property name="alpha">00:00:00.000=0;00:00:00.250=1;00:00:02.250=1;00:00:02.800=0</property>
      <property name="opacity">00:00:00.000=0;00:00:00.250=1;00:00:02.250=1;00:00:02.800=0</property>
    </filter>
  </producer>
<!-- Producers (template: parte - 38) -->
  <producer id="38_overlay_producer0" in="00:00:00.000" out="00:00:03.983">
    <property name="length">04:00:00.000</property>
    <property name="eof">pause</property>
    <property name="resource">10_a_topologia_dos_espacos_metricos/generated/38_parte_fg_texto.png</property>
    <property name="ttl">1</property>
    <property name="aspect_ratio">1</property>
    <property name="progressive">1</property>
    <property name="seekable">1</property>
    <property name="mlt_service">qimage</property>
    <property name="creation_time">2021-11-20T22:27:33</property>
    <property name="shotcut:caption">fg_texto.png</property>
    <property name="shotcut:hash">096089e7ea6fbcccd2950019545ce228</property>
    <property name="ignore_points">1</property>
    <property name="xml">was here</property>
  </producer>
  <producer id="38_overlay_producer1" in="00:00:00.000" out="00:00:03.983">
    <property name="length">04:00:00.000</property>
    <property name="eof">pause</property>
    <property name="resource">10_a_topologia_dos_espacos_metricos/generated/parte_static/papito.svg</property>
    <property name="ttl">1</property>
    <property name="aspect_ratio">1</property>
    <property name="progressive">1</property>
    <property name="seekable">1</property>
    <property name="mlt_service">qimage</property>
    <property name="creation_time">2021-11-20T22:27:18</property>
    <property name="xml">was here</property>
    <property name="shotcut:hash">24c313bd35ae36447ae1ce8444f40447</property>
    <property name="shotcut:caption">papito.svg</property>
    <property name="ignore_points">1</property>
  </producer>
  <producer id="38_overlay_producer2" in="00:00:00.000" out="00:00:03.983">
    <property name="length">04:00:00.000</property>
    <property name="eof">pause</property>
    <property name="resource">10_a_topologia_dos_espacos_metricos/generated/38_parte_bg_logo.png</property>
    <property name="ttl">1</property>
    <property name="aspect_ratio">1</property>
    <property name="progressive">1</property>
    <property name="seekable">1</property>
    <property name="mlt_service">qimage</property>
    <property name="creation_time">2021-11-23T15:36:23</property>
    <property name="xml">was here</property>
    <property name="shotcut:hash">5dcd114eb000f9bd9ee59792e9729b4e</property>
    <property name="shotcut:caption">bg_logo.png</property>
    <property name="ignore_points">1</property>
  </producer>
  <producer id="38_overlay_producer3" in="00:00:00.000" out="00:00:03.983">
    <property name="length">04:00:00.000</property>
    <property name="eof">pause</property>
    <property name="resource">10_a_topologia_dos_espacos_metricos/generated/38_parte_bg_texto.png</property>
    <property name="ttl">1</property>
    <property name="aspect_ratio">1</property>
    <property name="progressive">1</property>
    <property name="seekable">1</property>
    <property name="mlt_service">qimage</property>
    <property name="creation_time">2021-11-23T15:36:23</property>
    <property name="xml">was here</property>
    <property name="shotcut:hash">781a029be6548ca1285f7e382737fb45</property>
    <property name="shotcut:caption">bg_texto.png</property>
    <property name="ignore_points">1</property>
  </producer>
  <producer id="38_overlay_producer4" in="00:00:00.000" out="00:00:03.983">
    <property name="length">04:00:00.000</property>
    <property name="eof">pause</property>
    <property name="resource">#FFFFFFFF</property>
    <property name="aspect_ratio">1</property>
    <property name="mlt_service">color</property>
    <property name="mlt_image_format">rgba</property>
    <property name="shotcut:caption">#FFFFFFFF</property>
    <property name="ignore_points">1</property>
    <property name="xml">was here</property>
    <property name="seekable">1</property>
  </producer>
  <producer id="38_overlay_producer5" in="00:00:00.000" out="03:59:59.983">
    <property name="length">04:00:00.000</property>
    <property name="eof">pause</property>
    <property name="resource">#FFFFFFFF</property>
    <property name="aspect_ratio">1</property>
    <property name="mlt_service">color</property>
    <property name="mlt_image_format">rgba</property>
    <property name="shotcut:caption">#FFFFFFFF</property>
    <property name="ignore_points">0</property>
    <property name="xml">was here</property>
    <property name="seekable">1</property>
  </producer>
  <producer id="38_overlay_producer6" in="00:00:00.000" out="03:59:59.983">
    <property name="length">04:00:00.000</property>
    <property name="eof">pause</property>
    <property name="resource">10_a_topologia_dos_espacos_metricos/generated/38_parte_bg_texto.png</property>
    <property name="ttl">1</property>
    <property name="aspect_ratio">1</property>
    <property name="progressive">1</property>
    <property name="seekable">1</property>
    <property name="mlt_service">qimage</property>
    <property name="creation_time">2021-11-23T15:36:23</property>
    <property name="xml">was here</property>
    <property name="shotcut:hash">781a029be6548ca1285f7e382737fb45</property>
    <property name="shotcut:caption">bg_texto.png</property>
    <filter id="38_overlay_filter0" out="00:00:10.983">
      <property name="background">color:#00000000</property>
      <property name="mlt_service">affine</property>
      <property name="shotcut:filter">affineSizePosition</property>
      <property name="transition.fill">1</property>
      <property name="transition.distort">0</property>
      <property name="transition.rect">00:00:00.000~=1600 0 1920 1080 1;00:00:02.500=0 0 1920 1080 1;00:00:10.033=0 0 1920 1080 1;00:00:10.983=1600 0 1920 1080 1;00:00:11.000~=0 0 1920 1080 1</property>
      <property name="transition.valign">middle</property>
      <property name="transition.halign">center</property>
      <property name="shotcut:animIn">00:00:00.000</property>
      <property name="shotcut:animOut">00:00:00.000</property>
      <property name="transition.threads">0</property>
    </filter>
  </producer>
  <producer id="38_overlay_producer7" in="00:00:00.000" out="03:59:59.983">
    <property name="length">04:00:00.000</property>
    <property name="eof">pause</property>
    <property name="resource">10_a_topologia_dos_espacos_metricos/generated/38_parte_fg_texto.png</property>
    <property name="ttl">1</property>
    <property name="aspect_ratio">1</property>
    <property name="progressive">1</property>
    <property name="seekable">1</property>
    <property name="mlt_service">qimage</property>
    <property name="creation_time">2021-11-20T22:27:33</property>
    <property name="shotcut:caption">fg_texto.png</property>
    <property name="shotcut:hash">096089e7ea6fbcccd2950019545ce228</property>
    <property name="ignore_points">0</property>
    <property name="xml">was here</property>
    <filter id="38_overlay_filter2" out="00:00:10.983">
      <property name="background">color:#00000000</property>
      <property name="mlt_service">affine</property>
      <property name="shotcut:filter">affineSizePosition</property>
      <property name="transition.fill">1</property>
      <property name="transition.distort">0</property>
      <property name="transition.rect">00:00:00.000~=1800 0 1920 1080 1;00:00:02.217~=1800 0 1920 1080 1;00:00:02.867=0 0 1920 1080 1;00:00:09.783=0 0 1920 1080 1;00:00:10.983=1800 0 1920 1080 1;00:00:11.000=0 0 1920 1080 1</property>
      <property name="transition.valign">middle</property>
      <property name="transition.halign">center</property>
      <property name="shotcut:animIn">00:00:00.000</property>
      <property name="shotcut:animOut">00:00:00.000</property>
      <property name="transition.threads">0</property>
    </filter>
  </producer>
  <producer id="38_overlay_producer8" in="00:00:00.000" out="03:59:59.983">
    <property name="length">04:00:00.000</property>
    <property name="eof">pause</property>
    <property name="resource">10_a_topologia_dos_espacos_metricos/generated/38_parte_bg_logo.png</property>
    <property name="ttl">1</property>
    <property name="aspect_ratio">1</property>
    <property name="progressive">1</property>
    <property name="seekable">1</property>
    <property name="mlt_service">qimage</property>
    <property name="creation_time">2021-11-23T15:36:23</property>
    <property name="xml">was here</property>
    <property name="shotcut:hash">5dcd114eb000f9bd9ee59792e9729b4e</property>
    <property name="shotcut:caption">bg_logo.png</property>
    <filter id="38_overlay_filter1" out="00:00:10.983">
      <property name="background">color:#00000000</property>
      <property name="mlt_service">affine</property>
      <property name="shotcut:filter">affineSizePosition</property>
      <property name="transition.fill">1</property>
      <property name="transition.distort">0</property>
      <property name="transition.rect">00:00:00.000~=-400 0 1920 1080 1;00:00:01.750=0 0 1920 1080 1;00:00:10.133=0 0 1920 1080 1;00:00:11.000=-400 0 1920 1080 1</property>
      <property name="transition.valign">middle</property>
      <property name="transition.halign">center</property>
      <property name="shotcut:animIn">00:00:00.000</property>
      <property name="shotcut:animOut">00:00:00.000</property>
      <property name="transition.threads">0</property>
    </filter>
  </producer>
  <producer id="38_overlay_producer9" in="00:00:00.000" out="03:59:59.983">
    <property name="length">04:00:00.000</property>
    <property name="eof">pause</property>
    <property name="resource">10_a_topologia_dos_espacos_metricos/generated/parte_static/papito.svg</property>
    <property name="ttl">1</property>
    <property name="aspect_ratio">1</property>
    <property name="progressive">1</property>
    <property name="seekable">1</property>
    <property name="mlt_service">qimage</property>
    <property name="creation_time">2021-11-20T16:56:36</property>
    <property name="shotcut:caption">papito.svg</property>
    <property name="shotcut:hash">24c313bd35ae36447ae1ce8444f40447</property>
    <property name="ignore_points">0</property>
    <property name="xml">was here</property>
    <filter id="38_overlay_filter3" out="00:00:10.983">
      <property name="background">color:#00000000</property>
      <property name="mlt_service">affine</property>
      <property name="shotcut:filter">affineSizePosition</property>
      <property name="transition.fill">1</property>
      <property name="transition.distort">0</property>
      <property name="transition.rect">00:00:01.000=-260 790 224.74 224.74 1;00:00:02.500=93.2948 790 224.74 224.74 1;00:00:09.867=93.2948 790 224.74 224.74 1;00:00:10.667=-260 790 224.74 224.74 1</property>
      <property name="transition.valign">middle</property>
      <property name="transition.halign">center</property>
      <property name="shotcut:animIn">00:00:00.000</property>
      <property name="shotcut:animOut">00:00:00.000</property>
      <property name="transition.threads">0</property>
      <property name="transition.fix_rotate_x">00:00:00.000=0;00:00:01.000=-180;00:00:02.500=0;00:00:09.867=0;00:00:10.667=-180</property>
    </filter>
  </producer>
<!-- Producers (template: topico - 39) -->
  <producer id="39_overlay_producer0" in="00:00:00.000" out="03:59:59.983">
    <property name="length">04:00:00.000</property>
    <property name="eof">pause</property>
    <property name="resource">10_a_topologia_dos_espacos_metricos/generated/39_topico_bg_texto.png</property>
    <property name="ttl">1</property>
    <property name="aspect_ratio">1</property>
    <property name="progressive">1</property>
    <property name="seekable">1</property>
    <property name="mlt_service">qimage</property>
    <property name="creation_time">2021-11-24T18:39:48</property>
    <property name="shotcut:caption">bg_texto.png</property>
    <property name="shotcut:hash">9b051a8564a1410b981e909c173700aa</property>
    <property name="ignore_points">0</property>
    <property name="xml">was here</property>
  </producer>
  <producer id="39_overlay_producer1" in="00:00:00.000" out="00:00:03.983">
    <property name="length">04:00:00.000</property>
    <property name="eof">pause</property>
    <property name="resource">10_a_topologia_dos_espacos_metricos/generated/39_topico_fg_texto.png</property>
    <property name="ttl">1</property>
    <property name="aspect_ratio">1</property>
    <property name="progressive">1</property>
    <property name="seekable">1</property>
    <property name="mlt_service">qimage</property>
    <property name="creation_time">2021-11-24T18:39:48</property>
    <property name="xml">was here</property>
    <property name="shotcut:hash">0ba082b787850adfca3c252bbf95b040</property>
    <property name="shotcut:caption">fg_texto.png</property>
    <property name="ignore_points">1</property>
  </producer>
  <producer id="39_overlay_producer2" in="00:00:00.000" out="03:59:59.983">
    <property name="length">04:00:00.000</property>
    <property name="eof">pause</property>
    <property name="resource">#FF99C1F1</property>
    <property name="aspect_ratio">1</property>
    <property name="mlt_service">color</property>
    <property name="mlt_image_format">rgba</property>
    <property name="shotcut:caption">#FF99C1F1</property>
    <property name="shotcut:detail">#FF99C1F1</property>
    <property name="ignore_points">0</property>
    <property name="xml">was here</property>
    <property name="seekable">1</property>
  </producer>
  <producer id="39_overlay_producer3" in="00:00:00.000" out="03:59:59.983">
    <property name="length">04:00:00.000</property>
    <property name="eof">pause</property>
    <property name="resource">#FF99C1F1</property>
    <property name="aspect_ratio">1</property>
    <property name="mlt_service">color</property>
    <property name="mlt_image_format">rgba</property>
    <property name="shotcut:caption">#FF99C1F1</property>
    <property name="shotcut:detail">#FF99C1F1</property>
    <property name="ignore_points">0</property>
    <property name="xml">was here</property>
    <property name="seekable">1</property>
  </producer>
  <producer id="39_overlay_producer4" in="00:00:00.000" out="03:59:59.983">
    <property name="length">04:00:00.000</property>
    <property name="eof">pause</property>
    <property name="resource">10_a_topologia_dos_espacos_metricos/generated/39_topico_bg_texto.png</property>
    <property name="ttl">1</property>
    <property name="aspect_ratio">1</property>
    <property name="progressive">1</property>
    <property name="seekable">1</property>
    <property name="mlt_service">qimage</property>
    <property name="creation_time">2021-11-24T18:39:48</property>
    <property name="shotcut:caption">bg_texto.png</property>
    <property name="shotcut:hash">9b051a8564a1410b981e909c173700aa</property>
    <property name="ignore_points">0</property>
    <property name="xml">was here</property>
    <filter id="39_overlay_filter1" out="00:00:02.983">
      <property name="start">1</property>
      <property name="level">1</property>
      <property name="mlt_service">brightness</property>
      <property name="shotcut:filter">brightnessOpacity</property>
      <property name="alpha">00:00:00.000=0;00:00:00.250=1;00:00:02.250=1;00:00:02.800=0</property>
      <property name="opacity">00:00:00.000=0;00:00:00.250=1;00:00:02.250=1;00:00:02.800=0</property>
    </filter>
  </producer>
  <producer id="39_overlay_producer5" in="00:00:00.000" out="03:59:59.983">
    <property name="length">04:00:00.000</property>
    <property name="eof">pause</property>
    <property name="resource">10_a_topologia_dos_espacos_metricos/generated/39_topico_fg_texto.png</property>
    <property name="ttl">1</property>
    <property name="aspect_ratio">1</property>
    <property name="progressive">1</property>
    <property name="seekable">1</property>
    <property name="mlt_service">qimage</property>
    <property name="creation_time">2021-11-24T18:39:48</property>
    <property name="xml">was here</property>
    <property name="shotcut:hash">0ba082b787850adfca3c252bbf95b040</property>
    <property name="shotcut:caption">fg_texto.png</property>
    <property name="ignore_points">1</property>
    <filter id="39_overlay_filter0" out="00:00:02.983">
      <property name="start">1</property>
      <property name="level">1</property>
      <property name="mlt_service">brightness</property>
      <property name="shotcut:filter">brightnessOpacity</property>
      <property name="alpha">00:00:00.000=0;00:00:00.250=1;00:00:02.250=1;00:00:02.800=0</property>
      <property name="opacity">00:00:00.000=0;00:00:00.250=1;00:00:02.250=1;00:00:02.800=0</property>
    </filter>
  </producer>
<!-- Producers (template: topico - 40) -->
  <producer id="40_overlay_producer0" in="00:00:00.000" out="03:59:59.983">
    <property name="length">04:00:00.000</property>
    <property name="eof">pause</property>
    <property name="resource">10_a_topologia_dos_espacos_metricos/generated/40_topico_bg_texto.png</property>
    <property name="ttl">1</property>
    <property name="aspect_ratio">1</property>
    <property name="progressive">1</property>
    <property name="seekable">1</property>
    <property name="mlt_service">qimage</property>
    <property name="creation_time">2021-11-24T18:39:48</property>
    <property name="shotcut:caption">bg_texto.png</property>
    <property name="shotcut:hash">874c06db3f5959e2198a7048a40656a2</property>
    <property name="ignore_points">0</property>
    <property name="xml">was here</property>
  </producer>
  <producer id="40_overlay_producer1" in="00:00:00.000" out="00:00:03.983">
    <property name="length">04:00:00.000</property>
    <property name="eof">pause</property>
    <property name="resource">10_a_topologia_dos_espacos_metricos/generated/40_topico_fg_texto.png</property>
    <property name="ttl">1</property>
    <property name="aspect_ratio">1</property>
    <property name="progressive">1</property>
    <property name="seekable">1</property>
    <property name="mlt_service">qimage</property>
    <property name="creation_time">2021-11-24T18:39:48</property>
    <property name="xml">was here</property>
    <property name="shotcut:hash">daed73cad54a0eb14809e7d9b2956e12</property>
    <property name="shotcut:caption">fg_texto.png</property>
    <property name="ignore_points">1</property>
  </producer>
  <producer id="40_overlay_producer2" in="00:00:00.000" out="03:59:59.983">
    <property name="length">04:00:00.000</property>
    <property name="eof">pause</property>
    <property name="resource">#FF99C1F1</property>
    <property name="aspect_ratio">1</property>
    <property name="mlt_service">color</property>
    <property name="mlt_image_format">rgba</property>
    <property name="shotcut:caption">#FF99C1F1</property>
    <property name="shotcut:detail">#FF99C1F1</property>
    <property name="ignore_points">0</property>
    <property name="xml">was here</property>
    <property name="seekable">1</property>
  </producer>
  <producer id="40_overlay_producer3" in="00:00:00.000" out="03:59:59.983">
    <property name="length">04:00:00.000</property>
    <property name="eof">pause</property>
    <property name="resource">#FF99C1F1</property>
    <property name="aspect_ratio">1</property>
    <property name="mlt_service">color</property>
    <property name="mlt_image_format">rgba</property>
    <property name="shotcut:caption">#FF99C1F1</property>
    <property name="shotcut:detail">#FF99C1F1</property>
    <property name="ignore_points">0</property>
    <property name="xml">was here</property>
    <property name="seekable">1</property>
  </producer>
  <producer id="40_overlay_producer4" in="00:00:00.000" out="03:59:59.983">
    <property name="length">04:00:00.000</property>
    <property name="eof">pause</property>
    <property name="resource">10_a_topologia_dos_espacos_metricos/generated/40_topico_bg_texto.png</property>
    <property name="ttl">1</property>
    <property name="aspect_ratio">1</property>
    <property name="progressive">1</property>
    <property name="seekable">1</property>
    <property name="mlt_service">qimage</property>
    <property name="creation_time">2021-11-24T18:39:48</property>
    <property name="shotcut:caption">bg_texto.png</property>
    <property name="shotcut:hash">874c06db3f5959e2198a7048a40656a2</property>
    <property name="ignore_points">0</property>
    <property name="xml">was here</property>
    <filter id="40_overlay_filter1" out="00:00:02.983">
      <property name="start">1</property>
      <property name="level">1</property>
      <property name="mlt_service">brightness</property>
      <property name="shotcut:filter">brightnessOpacity</property>
      <property name="alpha">00:00:00.000=0;00:00:00.250=1;00:00:02.250=1;00:00:02.800=0</property>
      <property name="opacity">00:00:00.000=0;00:00:00.250=1;00:00:02.250=1;00:00:02.800=0</property>
    </filter>
  </producer>
  <producer id="40_overlay_producer5" in="00:00:00.000" out="03:59:59.983">
    <property name="length">04:00:00.000</property>
    <property name="eof">pause</property>
    <property name="resource">10_a_topologia_dos_espacos_metricos/generated/40_topico_fg_texto.png</property>
    <property name="ttl">1</property>
    <property name="aspect_ratio">1</property>
    <property name="progressive">1</property>
    <property name="seekable">1</property>
    <property name="mlt_service">qimage</property>
    <property name="creation_time">2021-11-24T18:39:48</property>
    <property name="xml">was here</property>
    <property name="shotcut:hash">daed73cad54a0eb14809e7d9b2956e12</property>
    <property name="shotcut:caption">fg_texto.png</property>
    <property name="ignore_points">1</property>
    <filter id="40_overlay_filter0" out="00:00:02.983">
      <property name="start">1</property>
      <property name="level">1</property>
      <property name="mlt_service">brightness</property>
      <property name="shotcut:filter">brightnessOpacity</property>
      <property name="alpha">00:00:00.000=0;00:00:00.250=1;00:00:02.250=1;00:00:02.800=0</property>
      <property name="opacity">00:00:00.000=0;00:00:00.250=1;00:00:02.250=1;00:00:02.800=0</property>
    </filter>
  </producer>
<!-- Producers (template: topico - 41) -->
  <producer id="41_overlay_producer0" in="00:00:00.000" out="03:59:59.983">
    <property name="length">04:00:00.000</property>
    <property name="eof">pause</property>
    <property name="resource">10_a_topologia_dos_espacos_metricos/generated/41_topico_bg_texto.png</property>
    <property name="ttl">1</property>
    <property name="aspect_ratio">1</property>
    <property name="progressive">1</property>
    <property name="seekable">1</property>
    <property name="mlt_service">qimage</property>
    <property name="creation_time">2021-11-24T18:39:48</property>
    <property name="shotcut:caption">bg_texto.png</property>
    <property name="shotcut:hash">357a3719cbc61dfc2c642e69da931ac1</property>
    <property name="ignore_points">0</property>
    <property name="xml">was here</property>
  </producer>
  <producer id="41_overlay_producer1" in="00:00:00.000" out="00:00:03.983">
    <property name="length">04:00:00.000</property>
    <property name="eof">pause</property>
    <property name="resource">10_a_topologia_dos_espacos_metricos/generated/41_topico_fg_texto.png</property>
    <property name="ttl">1</property>
    <property name="aspect_ratio">1</property>
    <property name="progressive">1</property>
    <property name="seekable">1</property>
    <property name="mlt_service">qimage</property>
    <property name="creation_time">2021-11-24T18:39:48</property>
    <property name="xml">was here</property>
    <property name="shotcut:hash">7737e2f1127bcf5f41e54b3900dfdaf2</property>
    <property name="shotcut:caption">fg_texto.png</property>
    <property name="ignore_points">1</property>
  </producer>
  <producer id="41_overlay_producer2" in="00:00:00.000" out="03:59:59.983">
    <property name="length">04:00:00.000</property>
    <property name="eof">pause</property>
    <property name="resource">#FF99C1F1</property>
    <property name="aspect_ratio">1</property>
    <property name="mlt_service">color</property>
    <property name="mlt_image_format">rgba</property>
    <property name="shotcut:caption">#FF99C1F1</property>
    <property name="shotcut:detail">#FF99C1F1</property>
    <property name="ignore_points">0</property>
    <property name="xml">was here</property>
    <property name="seekable">1</property>
  </producer>
  <producer id="41_overlay_producer3" in="00:00:00.000" out="03:59:59.983">
    <property name="length">04:00:00.000</property>
    <property name="eof">pause</property>
    <property name="resource">#FF99C1F1</property>
    <property name="aspect_ratio">1</property>
    <property name="mlt_service">color</property>
    <property name="mlt_image_format">rgba</property>
    <property name="shotcut:caption">#FF99C1F1</property>
    <property name="shotcut:detail">#FF99C1F1</property>
    <property name="ignore_points">0</property>
    <property name="xml">was here</property>
    <property name="seekable">1</property>
  </producer>
  <producer id="41_overlay_producer4" in="00:00:00.000" out="03:59:59.983">
    <property name="length">04:00:00.000</property>
    <property name="eof">pause</property>
    <property name="resource">10_a_topologia_dos_espacos_metricos/generated/41_topico_bg_texto.png</property>
    <property name="ttl">1</property>
    <property name="aspect_ratio">1</property>
    <property name="progressive">1</property>
    <property name="seekable">1</property>
    <property name="mlt_service">qimage</property>
    <property name="creation_time">2021-11-24T18:39:48</property>
    <property name="shotcut:caption">bg_texto.png</property>
    <property name="shotcut:hash">357a3719cbc61dfc2c642e69da931ac1</property>
    <property name="ignore_points">0</property>
    <property name="xml">was here</property>
    <filter id="41_overlay_filter1" out="00:00:02.983">
      <property name="start">1</property>
      <property name="level">1</property>
      <property name="mlt_service">brightness</property>
      <property name="shotcut:filter">brightnessOpacity</property>
      <property name="alpha">00:00:00.000=0;00:00:00.250=1;00:00:02.250=1;00:00:02.800=0</property>
      <property name="opacity">00:00:00.000=0;00:00:00.250=1;00:00:02.250=1;00:00:02.800=0</property>
    </filter>
  </producer>
  <producer id="41_overlay_producer5" in="00:00:00.000" out="03:59:59.983">
    <property name="length">04:00:00.000</property>
    <property name="eof">pause</property>
    <property name="resource">10_a_topologia_dos_espacos_metricos/generated/41_topico_fg_texto.png</property>
    <property name="ttl">1</property>
    <property name="aspect_ratio">1</property>
    <property name="progressive">1</property>
    <property name="seekable">1</property>
    <property name="mlt_service">qimage</property>
    <property name="creation_time">2021-11-24T18:39:48</property>
    <property name="xml">was here</property>
    <property name="shotcut:hash">7737e2f1127bcf5f41e54b3900dfdaf2</property>
    <property name="shotcut:caption">fg_texto.png</property>
    <property name="ignore_points">1</property>
    <filter id="41_overlay_filter0" out="00:00:02.983">
      <property name="start">1</property>
      <property name="level">1</property>
      <property name="mlt_service">brightness</property>
      <property name="shotcut:filter">brightnessOpacity</property>
      <property name="alpha">00:00:00.000=0;00:00:00.250=1;00:00:02.250=1;00:00:02.800=0</property>
      <property name="opacity">00:00:00.000=0;00:00:00.250=1;00:00:02.250=1;00:00:02.800=0</property>
    </filter>
  </producer>
<!-- Producers (template: topico - 42) -->
  <producer id="42_overlay_producer0" in="00:00:00.000" out="03:59:59.983">
    <property name="length">04:00:00.000</property>
    <property name="eof">pause</property>
    <property name="resource">10_a_topologia_dos_espacos_metricos/generated/42_topico_bg_texto.png</property>
    <property name="ttl">1</property>
    <property name="aspect_ratio">1</property>
    <property name="progressive">1</property>
    <property name="seekable">1</property>
    <property name="mlt_service">qimage</property>
    <property name="creation_time">2021-11-24T18:39:48</property>
    <property name="shotcut:caption">bg_texto.png</property>
    <property name="shotcut:hash">5fd56c072822d0d402782a54c4b459f1</property>
    <property name="ignore_points">0</property>
    <property name="xml">was here</property>
  </producer>
  <producer id="42_overlay_producer1" in="00:00:00.000" out="00:00:03.983">
    <property name="length">04:00:00.000</property>
    <property name="eof">pause</property>
    <property name="resource">10_a_topologia_dos_espacos_metricos/generated/42_topico_fg_texto.png</property>
    <property name="ttl">1</property>
    <property name="aspect_ratio">1</property>
    <property name="progressive">1</property>
    <property name="seekable">1</property>
    <property name="mlt_service">qimage</property>
    <property name="creation_time">2021-11-24T18:39:48</property>
    <property name="xml">was here</property>
    <property name="shotcut:hash">de607c2b71536429cf253b1c29c75bbe</property>
    <property name="shotcut:caption">fg_texto.png</property>
    <property name="ignore_points">1</property>
  </producer>
  <producer id="42_overlay_producer2" in="00:00:00.000" out="03:59:59.983">
    <property name="length">04:00:00.000</property>
    <property name="eof">pause</property>
    <property name="resource">#FF99C1F1</property>
    <property name="aspect_ratio">1</property>
    <property name="mlt_service">color</property>
    <property name="mlt_image_format">rgba</property>
    <property name="shotcut:caption">#FF99C1F1</property>
    <property name="shotcut:detail">#FF99C1F1</property>
    <property name="ignore_points">0</property>
    <property name="xml">was here</property>
    <property name="seekable">1</property>
  </producer>
  <producer id="42_overlay_producer3" in="00:00:00.000" out="03:59:59.983">
    <property name="length">04:00:00.000</property>
    <property name="eof">pause</property>
    <property name="resource">#FF99C1F1</property>
    <property name="aspect_ratio">1</property>
    <property name="mlt_service">color</property>
    <property name="mlt_image_format">rgba</property>
    <property name="shotcut:caption">#FF99C1F1</property>
    <property name="shotcut:detail">#FF99C1F1</property>
    <property name="ignore_points">0</property>
    <property name="xml">was here</property>
    <property name="seekable">1</property>
  </producer>
  <producer id="42_overlay_producer4" in="00:00:00.000" out="03:59:59.983">
    <property name="length">04:00:00.000</property>
    <property name="eof">pause</property>
    <property name="resource">10_a_topologia_dos_espacos_metricos/generated/42_topico_bg_texto.png</property>
    <property name="ttl">1</property>
    <property name="aspect_ratio">1</property>
    <property name="progressive">1</property>
    <property name="seekable">1</property>
    <property name="mlt_service">qimage</property>
    <property name="creation_time">2021-11-24T18:39:48</property>
    <property name="shotcut:caption">bg_texto.png</property>
    <property name="shotcut:hash">5fd56c072822d0d402782a54c4b459f1</property>
    <property name="ignore_points">0</property>
    <property name="xml">was here</property>
    <filter id="42_overlay_filter1" out="00:00:02.983">
      <property name="start">1</property>
      <property name="level">1</property>
      <property name="mlt_service">brightness</property>
      <property name="shotcut:filter">brightnessOpacity</property>
      <property name="alpha">00:00:00.000=0;00:00:00.250=1;00:00:02.250=1;00:00:02.800=0</property>
      <property name="opacity">00:00:00.000=0;00:00:00.250=1;00:00:02.250=1;00:00:02.800=0</property>
    </filter>
  </producer>
  <producer id="42_overlay_producer5" in="00:00:00.000" out="03:59:59.983">
    <property name="length">04:00:00.000</property>
    <property name="eof">pause</property>
    <property name="resource">10_a_topologia_dos_espacos_metricos/generated/42_topico_fg_texto.png</property>
    <property name="ttl">1</property>
    <property name="aspect_ratio">1</property>
    <property name="progressive">1</property>
    <property name="seekable">1</property>
    <property name="mlt_service">qimage</property>
    <property name="creation_time">2021-11-24T18:39:48</property>
    <property name="xml">was here</property>
    <property name="shotcut:hash">de607c2b71536429cf253b1c29c75bbe</property>
    <property name="shotcut:caption">fg_texto.png</property>
    <property name="ignore_points">1</property>
    <filter id="42_overlay_filter0" out="00:00:02.983">
      <property name="start">1</property>
      <property name="level">1</property>
      <property name="mlt_service">brightness</property>
      <property name="shotcut:filter">brightnessOpacity</property>
      <property name="alpha">00:00:00.000=0;00:00:00.250=1;00:00:02.250=1;00:00:02.800=0</property>
      <property name="opacity">00:00:00.000=0;00:00:00.250=1;00:00:02.250=1;00:00:02.800=0</property>
    </filter>
  </producer>
<!-- Producers (template: topico - 43) -->
  <producer id="43_overlay_producer0" in="00:00:00.000" out="03:59:59.983">
    <property name="length">04:00:00.000</property>
    <property name="eof">pause</property>
    <property name="resource">10_a_topologia_dos_espacos_metricos/generated/43_topico_bg_texto.png</property>
    <property name="ttl">1</property>
    <property name="aspect_ratio">1</property>
    <property name="progressive">1</property>
    <property name="seekable">1</property>
    <property name="mlt_service">qimage</property>
    <property name="creation_time">2021-11-24T18:39:48</property>
    <property name="shotcut:caption">bg_texto.png</property>
    <property name="shotcut:hash">f9971c97048bf8b8c1eeb9375ab1c8ad</property>
    <property name="ignore_points">0</property>
    <property name="xml">was here</property>
  </producer>
  <producer id="43_overlay_producer1" in="00:00:00.000" out="00:00:03.983">
    <property name="length">04:00:00.000</property>
    <property name="eof">pause</property>
    <property name="resource">10_a_topologia_dos_espacos_metricos/generated/43_topico_fg_texto.png</property>
    <property name="ttl">1</property>
    <property name="aspect_ratio">1</property>
    <property name="progressive">1</property>
    <property name="seekable">1</property>
    <property name="mlt_service">qimage</property>
    <property name="creation_time">2021-11-24T18:39:48</property>
    <property name="xml">was here</property>
    <property name="shotcut:hash">00516beb83c447fde41b736724dfbc56</property>
    <property name="shotcut:caption">fg_texto.png</property>
    <property name="ignore_points">1</property>
  </producer>
  <producer id="43_overlay_producer2" in="00:00:00.000" out="03:59:59.983">
    <property name="length">04:00:00.000</property>
    <property name="eof">pause</property>
    <property name="resource">#FF99C1F1</property>
    <property name="aspect_ratio">1</property>
    <property name="mlt_service">color</property>
    <property name="mlt_image_format">rgba</property>
    <property name="shotcut:caption">#FF99C1F1</property>
    <property name="shotcut:detail">#FF99C1F1</property>
    <property name="ignore_points">0</property>
    <property name="xml">was here</property>
    <property name="seekable">1</property>
  </producer>
  <producer id="43_overlay_producer3" in="00:00:00.000" out="03:59:59.983">
    <property name="length">04:00:00.000</property>
    <property name="eof">pause</property>
    <property name="resource">#FF99C1F1</property>
    <property name="aspect_ratio">1</property>
    <property name="mlt_service">color</property>
    <property name="mlt_image_format">rgba</property>
    <property name="shotcut:caption">#FF99C1F1</property>
    <property name="shotcut:detail">#FF99C1F1</property>
    <property name="ignore_points">0</property>
    <property name="xml">was here</property>
    <property name="seekable">1</property>
  </producer>
  <producer id="43_overlay_producer4" in="00:00:00.000" out="03:59:59.983">
    <property name="length">04:00:00.000</property>
    <property name="eof">pause</property>
    <property name="resource">10_a_topologia_dos_espacos_metricos/generated/43_topico_bg_texto.png</property>
    <property name="ttl">1</property>
    <property name="aspect_ratio">1</property>
    <property name="progressive">1</property>
    <property name="seekable">1</property>
    <property name="mlt_service">qimage</property>
    <property name="creation_time">2021-11-24T18:39:48</property>
    <property name="shotcut:caption">bg_texto.png</property>
    <property name="shotcut:hash">f9971c97048bf8b8c1eeb9375ab1c8ad</property>
    <property name="ignore_points">0</property>
    <property name="xml">was here</property>
    <filter id="43_overlay_filter1" out="00:00:02.983">
      <property name="start">1</property>
      <property name="level">1</property>
      <property name="mlt_service">brightness</property>
      <property name="shotcut:filter">brightnessOpacity</property>
      <property name="alpha">00:00:00.000=0;00:00:00.250=1;00:00:02.250=1;00:00:02.800=0</property>
      <property name="opacity">00:00:00.000=0;00:00:00.250=1;00:00:02.250=1;00:00:02.800=0</property>
    </filter>
  </producer>
  <producer id="43_overlay_producer5" in="00:00:00.000" out="03:59:59.983">
    <property name="length">04:00:00.000</property>
    <property name="eof">pause</property>
    <property name="resource">10_a_topologia_dos_espacos_metricos/generated/43_topico_fg_texto.png</property>
    <property name="ttl">1</property>
    <property name="aspect_ratio">1</property>
    <property name="progressive">1</property>
    <property name="seekable">1</property>
    <property name="mlt_service">qimage</property>
    <property name="creation_time">2021-11-24T18:39:48</property>
    <property name="xml">was here</property>
    <property name="shotcut:hash">00516beb83c447fde41b736724dfbc56</property>
    <property name="shotcut:caption">fg_texto.png</property>
    <property name="ignore_points">1</property>
    <filter id="43_overlay_filter0" out="00:00:02.983">
      <property name="start">1</property>
      <property name="level">1</property>
      <property name="mlt_service">brightness</property>
      <property name="shotcut:filter">brightnessOpacity</property>
      <property name="alpha">00:00:00.000=0;00:00:00.250=1;00:00:02.250=1;00:00:02.800=0</property>
      <property name="opacity">00:00:00.000=0;00:00:00.250=1;00:00:02.250=1;00:00:02.800=0</property>
    </filter>
  </producer>
<!-- Producers (template: topico - 44) -->
  <producer id="44_overlay_producer0" in="00:00:00.000" out="03:59:59.983">
    <property name="length">04:00:00.000</property>
    <property name="eof">pause</property>
    <property name="resource">10_a_topologia_dos_espacos_metricos/generated/44_topico_bg_texto.png</property>
    <property name="ttl">1</property>
    <property name="aspect_ratio">1</property>
    <property name="progressive">1</property>
    <property name="seekable">1</property>
    <property name="mlt_service">qimage</property>
    <property name="creation_time">2021-11-24T18:39:48</property>
    <property name="shotcut:caption">bg_texto.png</property>
    <property name="shotcut:hash">2ffbe5501b1bfc5a6afa2f153cce2a22</property>
    <property name="ignore_points">0</property>
    <property name="xml">was here</property>
  </producer>
  <producer id="44_overlay_producer1" in="00:00:00.000" out="00:00:03.983">
    <property name="length">04:00:00.000</property>
    <property name="eof">pause</property>
    <property name="resource">10_a_topologia_dos_espacos_metricos/generated/44_topico_fg_texto.png</property>
    <property name="ttl">1</property>
    <property name="aspect_ratio">1</property>
    <property name="progressive">1</property>
    <property name="seekable">1</property>
    <property name="mlt_service">qimage</property>
    <property name="creation_time">2021-11-24T18:39:48</property>
    <property name="xml">was here</property>
    <property name="shotcut:hash">2b4a8bcd79a952a1b3185e7219f991d7</property>
    <property name="shotcut:caption">fg_texto.png</property>
    <property name="ignore_points">1</property>
  </producer>
  <producer id="44_overlay_producer2" in="00:00:00.000" out="03:59:59.983">
    <property name="length">04:00:00.000</property>
    <property name="eof">pause</property>
    <property name="resource">#FF99C1F1</property>
    <property name="aspect_ratio">1</property>
    <property name="mlt_service">color</property>
    <property name="mlt_image_format">rgba</property>
    <property name="shotcut:caption">#FF99C1F1</property>
    <property name="shotcut:detail">#FF99C1F1</property>
    <property name="ignore_points">0</property>
    <property name="xml">was here</property>
    <property name="seekable">1</property>
  </producer>
  <producer id="44_overlay_producer3" in="00:00:00.000" out="03:59:59.983">
    <property name="length">04:00:00.000</property>
    <property name="eof">pause</property>
    <property name="resource">#FF99C1F1</property>
    <property name="aspect_ratio">1</property>
    <property name="mlt_service">color</property>
    <property name="mlt_image_format">rgba</property>
    <property name="shotcut:caption">#FF99C1F1</property>
    <property name="shotcut:detail">#FF99C1F1</property>
    <property name="ignore_points">0</property>
    <property name="xml">was here</property>
    <property name="seekable">1</property>
  </producer>
  <producer id="44_overlay_producer4" in="00:00:00.000" out="03:59:59.983">
    <property name="length">04:00:00.000</property>
    <property name="eof">pause</property>
    <property name="resource">10_a_topologia_dos_espacos_metricos/generated/44_topico_bg_texto.png</property>
    <property name="ttl">1</property>
    <property name="aspect_ratio">1</property>
    <property name="progressive">1</property>
    <property name="seekable">1</property>
    <property name="mlt_service">qimage</property>
    <property name="creation_time">2021-11-24T18:39:48</property>
    <property name="shotcut:caption">bg_texto.png</property>
    <property name="shotcut:hash">2ffbe5501b1bfc5a6afa2f153cce2a22</property>
    <property name="ignore_points">0</property>
    <property name="xml">was here</property>
    <filter id="44_overlay_filter1" out="00:00:02.983">
      <property name="start">1</property>
      <property name="level">1</property>
      <property name="mlt_service">brightness</property>
      <property name="shotcut:filter">brightnessOpacity</property>
      <property name="alpha">00:00:00.000=0;00:00:00.250=1;00:00:02.250=1;00:00:02.800=0</property>
      <property name="opacity">00:00:00.000=0;00:00:00.250=1;00:00:02.250=1;00:00:02.800=0</property>
    </filter>
  </producer>
  <producer id="44_overlay_producer5" in="00:00:00.000" out="03:59:59.983">
    <property name="length">04:00:00.000</property>
    <property name="eof">pause</property>
    <property name="resource">10_a_topologia_dos_espacos_metricos/generated/44_topico_fg_texto.png</property>
    <property name="ttl">1</property>
    <property name="aspect_ratio">1</property>
    <property name="progressive">1</property>
    <property name="seekable">1</property>
    <property name="mlt_service">qimage</property>
    <property name="creation_time">2021-11-24T18:39:48</property>
    <property name="xml">was here</property>
    <property name="shotcut:hash">2b4a8bcd79a952a1b3185e7219f991d7</property>
    <property name="shotcut:caption">fg_texto.png</property>
    <property name="ignore_points">1</property>
    <filter id="44_overlay_filter0" out="00:00:02.983">
      <property name="start">1</property>
      <property name="level">1</property>
      <property name="mlt_service">brightness</property>
      <property name="shotcut:filter">brightnessOpacity</property>
      <property name="alpha">00:00:00.000=0;00:00:00.250=1;00:00:02.250=1;00:00:02.800=0</property>
      <property name="opacity">00:00:00.000=0;00:00:00.250=1;00:00:02.250=1;00:00:02.800=0</property>
    </filter>
  </producer>
<!-- Producers (template: topico - 45) -->
  <producer id="45_overlay_producer0" in="00:00:00.000" out="03:59:59.983">
    <property name="length">04:00:00.000</property>
    <property name="eof">pause</property>
    <property name="resource">10_a_topologia_dos_espacos_metricos/generated/45_topico_bg_texto.png</property>
    <property name="ttl">1</property>
    <property name="aspect_ratio">1</property>
    <property name="progressive">1</property>
    <property name="seekable">1</property>
    <property name="mlt_service">qimage</property>
    <property name="creation_time">2021-11-24T18:39:48</property>
    <property name="shotcut:caption">bg_texto.png</property>
    <property name="shotcut:hash">a6542b0e623b79ed22d7188144bbd497</property>
    <property name="ignore_points">0</property>
    <property name="xml">was here</property>
  </producer>
  <producer id="45_overlay_producer1" in="00:00:00.000" out="00:00:03.983">
    <property name="length">04:00:00.000</property>
    <property name="eof">pause</property>
    <property name="resource">10_a_topologia_dos_espacos_metricos/generated/45_topico_fg_texto.png</property>
    <property name="ttl">1</property>
    <property name="aspect_ratio">1</property>
    <property name="progressive">1</property>
    <property name="seekable">1</property>
    <property name="mlt_service">qimage</property>
    <property name="creation_time">2021-11-24T18:39:48</property>
    <property name="xml">was here</property>
    <property name="shotcut:hash">5c4399231f9cf7ede0676bdba0002d19</property>
    <property name="shotcut:caption">fg_texto.png</property>
    <property name="ignore_points">1</property>
  </producer>
  <producer id="45_overlay_producer2" in="00:00:00.000" out="03:59:59.983">
    <property name="length">04:00:00.000</property>
    <property name="eof">pause</property>
    <property name="resource">#FF99C1F1</property>
    <property name="aspect_ratio">1</property>
    <property name="mlt_service">color</property>
    <property name="mlt_image_format">rgba</property>
    <property name="shotcut:caption">#FF99C1F1</property>
    <property name="shotcut:detail">#FF99C1F1</property>
    <property name="ignore_points">0</property>
    <property name="xml">was here</property>
    <property name="seekable">1</property>
  </producer>
  <producer id="45_overlay_producer3" in="00:00:00.000" out="03:59:59.983">
    <property name="length">04:00:00.000</property>
    <property name="eof">pause</property>
    <property name="resource">#FF99C1F1</property>
    <property name="aspect_ratio">1</property>
    <property name="mlt_service">color</property>
    <property name="mlt_image_format">rgba</property>
    <property name="shotcut:caption">#FF99C1F1</property>
    <property name="shotcut:detail">#FF99C1F1</property>
    <property name="ignore_points">0</property>
    <property name="xml">was here</property>
    <property name="seekable">1</property>
  </producer>
  <producer id="45_overlay_producer4" in="00:00:00.000" out="03:59:59.983">
    <property name="length">04:00:00.000</property>
    <property name="eof">pause</property>
    <property name="resource">10_a_topologia_dos_espacos_metricos/generated/45_topico_bg_texto.png</property>
    <property name="ttl">1</property>
    <property name="aspect_ratio">1</property>
    <property name="progressive">1</property>
    <property name="seekable">1</property>
    <property name="mlt_service">qimage</property>
    <property name="creation_time">2021-11-24T18:39:48</property>
    <property name="shotcut:caption">bg_texto.png</property>
    <property name="shotcut:hash">a6542b0e623b79ed22d7188144bbd497</property>
    <property name="ignore_points">0</property>
    <property name="xml">was here</property>
    <filter id="45_overlay_filter1" out="00:00:02.983">
      <property name="start">1</property>
      <property name="level">1</property>
      <property name="mlt_service">brightness</property>
      <property name="shotcut:filter">brightnessOpacity</property>
      <property name="alpha">00:00:00.000=0;00:00:00.250=1;00:00:02.250=1;00:00:02.800=0</property>
      <property name="opacity">00:00:00.000=0;00:00:00.250=1;00:00:02.250=1;00:00:02.800=0</property>
    </filter>
  </producer>
  <producer id="45_overlay_producer5" in="00:00:00.000" out="03:59:59.983">
    <property name="length">04:00:00.000</property>
    <property name="eof">pause</property>
    <property name="resource">10_a_topologia_dos_espacos_metricos/generated/45_topico_fg_texto.png</property>
    <property name="ttl">1</property>
    <property name="aspect_ratio">1</property>
    <property name="progressive">1</property>
    <property name="seekable">1</property>
    <property name="mlt_service">qimage</property>
    <property name="creation_time">2021-11-24T18:39:48</property>
    <property name="xml">was here</property>
    <property name="shotcut:hash">5c4399231f9cf7ede0676bdba0002d19</property>
    <property name="shotcut:caption">fg_texto.png</property>
    <property name="ignore_points">1</property>
    <filter id="45_overlay_filter0" out="00:00:02.983">
      <property name="start">1</property>
      <property name="level">1</property>
      <property name="mlt_service">brightness</property>
      <property name="shotcut:filter">brightnessOpacity</property>
      <property name="alpha">00:00:00.000=0;00:00:00.250=1;00:00:02.250=1;00:00:02.800=0</property>
      <property name="opacity">00:00:00.000=0;00:00:00.250=1;00:00:02.250=1;00:00:02.800=0</property>
    </filter>
  </producer>
<!-- Producers (template: parte - 46) -->
  <producer id="46_overlay_producer0" in="00:00:00.000" out="00:00:03.983">
    <property name="length">04:00:00.000</property>
    <property name="eof">pause</property>
    <property name="resource">10_a_topologia_dos_espacos_metricos/generated/46_parte_fg_texto.png</property>
    <property name="ttl">1</property>
    <property name="aspect_ratio">1</property>
    <property name="progressive">1</property>
    <property name="seekable">1</property>
    <property name="mlt_service">qimage</property>
    <property name="creation_time">2021-11-20T22:27:33</property>
    <property name="shotcut:caption">fg_texto.png</property>
    <property name="shotcut:hash">77f0a40e9b6980d291469afe4bd350d3</property>
    <property name="ignore_points">1</property>
    <property name="xml">was here</property>
  </producer>
  <producer id="46_overlay_producer1" in="00:00:00.000" out="00:00:03.983">
    <property name="length">04:00:00.000</property>
    <property name="eof">pause</property>
    <property name="resource">10_a_topologia_dos_espacos_metricos/generated/parte_static/papito.svg</property>
    <property name="ttl">1</property>
    <property name="aspect_ratio">1</property>
    <property name="progressive">1</property>
    <property name="seekable">1</property>
    <property name="mlt_service">qimage</property>
    <property name="creation_time">2021-11-20T22:27:18</property>
    <property name="xml">was here</property>
    <property name="shotcut:hash">24c313bd35ae36447ae1ce8444f40447</property>
    <property name="shotcut:caption">papito.svg</property>
    <property name="ignore_points">1</property>
  </producer>
  <producer id="46_overlay_producer2" in="00:00:00.000" out="00:00:03.983">
    <property name="length">04:00:00.000</property>
    <property name="eof">pause</property>
    <property name="resource">10_a_topologia_dos_espacos_metricos/generated/46_parte_bg_logo.png</property>
    <property name="ttl">1</property>
    <property name="aspect_ratio">1</property>
    <property name="progressive">1</property>
    <property name="seekable">1</property>
    <property name="mlt_service">qimage</property>
    <property name="creation_time">2021-11-23T15:36:23</property>
    <property name="xml">was here</property>
    <property name="shotcut:hash">5dcd114eb000f9bd9ee59792e9729b4e</property>
    <property name="shotcut:caption">bg_logo.png</property>
    <property name="ignore_points">1</property>
  </producer>
  <producer id="46_overlay_producer3" in="00:00:00.000" out="00:00:03.983">
    <property name="length">04:00:00.000</property>
    <property name="eof">pause</property>
    <property name="resource">10_a_topologia_dos_espacos_metricos/generated/46_parte_bg_texto.png</property>
    <property name="ttl">1</property>
    <property name="aspect_ratio">1</property>
    <property name="progressive">1</property>
    <property name="seekable">1</property>
    <property name="mlt_service">qimage</property>
    <property name="creation_time">2021-11-23T15:36:23</property>
    <property name="xml">was here</property>
    <property name="shotcut:hash">781a029be6548ca1285f7e382737fb45</property>
    <property name="shotcut:caption">bg_texto.png</property>
    <property name="ignore_points">1</property>
  </producer>
  <producer id="46_overlay_producer4" in="00:00:00.000" out="00:00:03.983">
    <property name="length">04:00:00.000</property>
    <property name="eof">pause</property>
    <property name="resource">#FFFFFFFF</property>
    <property name="aspect_ratio">1</property>
    <property name="mlt_service">color</property>
    <property name="mlt_image_format">rgba</property>
    <property name="shotcut:caption">#FFFFFFFF</property>
    <property name="ignore_points">1</property>
    <property name="xml">was here</property>
    <property name="seekable">1</property>
  </producer>
  <producer id="46_overlay_producer5" in="00:00:00.000" out="03:59:59.983">
    <property name="length">04:00:00.000</property>
    <property name="eof">pause</property>
    <property name="resource">#FFFFFFFF</property>
    <property name="aspect_ratio">1</property>
    <property name="mlt_service">color</property>
    <property name="mlt_image_format">rgba</property>
    <property name="shotcut:caption">#FFFFFFFF</property>
    <property name="ignore_points">0</property>
    <property name="xml">was here</property>
    <property name="seekable">1</property>
  </producer>
  <producer id="46_overlay_producer6" in="00:00:00.000" out="03:59:59.983">
    <property name="length">04:00:00.000</property>
    <property name="eof">pause</property>
    <property name="resource">10_a_topologia_dos_espacos_metricos/generated/46_parte_bg_texto.png</property>
    <property name="ttl">1</property>
    <property name="aspect_ratio">1</property>
    <property name="progressive">1</property>
    <property name="seekable">1</property>
    <property name="mlt_service">qimage</property>
    <property name="creation_time">2021-11-23T15:36:23</property>
    <property name="xml">was here</property>
    <property name="shotcut:hash">781a029be6548ca1285f7e382737fb45</property>
    <property name="shotcut:caption">bg_texto.png</property>
    <filter id="46_overlay_filter0" out="00:00:10.983">
      <property name="background">color:#00000000</property>
      <property name="mlt_service">affine</property>
      <property name="shotcut:filter">affineSizePosition</property>
      <property name="transition.fill">1</property>
      <property name="transition.distort">0</property>
      <property name="transition.rect">00:00:00.000~=1600 0 1920 1080 1;00:00:02.500=0 0 1920 1080 1;00:00:10.033=0 0 1920 1080 1;00:00:10.983=1600 0 1920 1080 1;00:00:11.000~=0 0 1920 1080 1</property>
      <property name="transition.valign">middle</property>
      <property name="transition.halign">center</property>
      <property name="shotcut:animIn">00:00:00.000</property>
      <property name="shotcut:animOut">00:00:00.000</property>
      <property name="transition.threads">0</property>
    </filter>
  </producer>
  <producer id="46_overlay_producer7" in="00:00:00.000" out="03:59:59.983">
    <property name="length">04:00:00.000</property>
    <property name="eof">pause</property>
    <property name="resource">10_a_topologia_dos_espacos_metricos/generated/46_parte_fg_texto.png</property>
    <property name="ttl">1</property>
    <property name="aspect_ratio">1</property>
    <property name="progressive">1</property>
    <property name="seekable">1</property>
    <property name="mlt_service">qimage</property>
    <property name="creation_time">2021-11-20T22:27:33</property>
    <property name="shotcut:caption">fg_texto.png</property>
    <property name="shotcut:hash">77f0a40e9b6980d291469afe4bd350d3</property>
    <property name="ignore_points">0</property>
    <property name="xml">was here</property>
    <filter id="46_overlay_filter2" out="00:00:10.983">
      <property name="background">color:#00000000</property>
      <property name="mlt_service">affine</property>
      <property name="shotcut:filter">affineSizePosition</property>
      <property name="transition.fill">1</property>
      <property name="transition.distort">0</property>
      <property name="transition.rect">00:00:00.000~=1800 0 1920 1080 1;00:00:02.217~=1800 0 1920 1080 1;00:00:02.867=0 0 1920 1080 1;00:00:09.783=0 0 1920 1080 1;00:00:10.983=1800 0 1920 1080 1;00:00:11.000=0 0 1920 1080 1</property>
      <property name="transition.valign">middle</property>
      <property name="transition.halign">center</property>
      <property name="shotcut:animIn">00:00:00.000</property>
      <property name="shotcut:animOut">00:00:00.000</property>
      <property name="transition.threads">0</property>
    </filter>
  </producer>
  <producer id="46_overlay_producer8" in="00:00:00.000" out="03:59:59.983">
    <property name="length">04:00:00.000</property>
    <property name="eof">pause</property>
    <property name="resource">10_a_topologia_dos_espacos_metricos/generated/46_parte_bg_logo.png</property>
    <property name="ttl">1</property>
    <property name="aspect_ratio">1</property>
    <property name="progressive">1</property>
    <property name="seekable">1</property>
    <property name="mlt_service">qimage</property>
    <property name="creation_time">2021-11-23T15:36:23</property>
    <property name="xml">was here</property>
    <property name="shotcut:hash">5dcd114eb000f9bd9ee59792e9729b4e</property>
    <property name="shotcut:caption">bg_logo.png</property>
    <filter id="46_overlay_filter1" out="00:00:10.983">
      <property name="background">color:#00000000</property>
      <property name="mlt_service">affine</property>
      <property name="shotcut:filter">affineSizePosition</property>
      <property name="transition.fill">1</property>
      <property name="transition.distort">0</property>
      <property name="transition.rect">00:00:00.000~=-400 0 1920 1080 1;00:00:01.750=0 0 1920 1080 1;00:00:10.133=0 0 1920 1080 1;00:00:11.000=-400 0 1920 1080 1</property>
      <property name="transition.valign">middle</property>
      <property name="transition.halign">center</property>
      <property name="shotcut:animIn">00:00:00.000</property>
      <property name="shotcut:animOut">00:00:00.000</property>
      <property name="transition.threads">0</property>
    </filter>
  </producer>
  <producer id="46_overlay_producer9" in="00:00:00.000" out="03:59:59.983">
    <property name="length">04:00:00.000</property>
    <property name="eof">pause</property>
    <property name="resource">10_a_topologia_dos_espacos_metricos/generated/parte_static/papito.svg</property>
    <property name="ttl">1</property>
    <property name="aspect_ratio">1</property>
    <property name="progressive">1</property>
    <property name="seekable">1</property>
    <property name="mlt_service">qimage</property>
    <property name="creation_time">2021-11-20T16:56:36</property>
    <property name="shotcut:caption">papito.svg</property>
    <property name="shotcut:hash">24c313bd35ae36447ae1ce8444f40447</property>
    <property name="ignore_points">0</property>
    <property name="xml">was here</property>
    <filter id="46_overlay_filter3" out="00:00:10.983">
      <property name="background">color:#00000000</property>
      <property name="mlt_service">affine</property>
      <property name="shotcut:filter">affineSizePosition</property>
      <property name="transition.fill">1</property>
      <property name="transition.distort">0</property>
      <property name="transition.rect">00:00:01.000=-260 790 224.74 224.74 1;00:00:02.500=93.2948 790 224.74 224.74 1;00:00:09.867=93.2948 790 224.74 224.74 1;00:00:10.667=-260 790 224.74 224.74 1</property>
      <property name="transition.valign">middle</property>
      <property name="transition.halign">center</property>
      <property name="shotcut:animIn">00:00:00.000</property>
      <property name="shotcut:animOut">00:00:00.000</property>
      <property name="transition.threads">0</property>
      <property name="transition.fix_rotate_x">00:00:00.000=0;00:00:01.000=-180;00:00:02.500=0;00:00:09.867=0;00:00:10.667=-180</property>
    </filter>
  </producer>
<!-- Producers (template: topico - 47) -->
  <producer id="47_overlay_producer0" in="00:00:00.000" out="03:59:59.983">
    <property name="length">04:00:00.000</property>
    <property name="eof">pause</property>
    <property name="resource">10_a_topologia_dos_espacos_metricos/generated/47_topico_bg_texto.png</property>
    <property name="ttl">1</property>
    <property name="aspect_ratio">1</property>
    <property name="progressive">1</property>
    <property name="seekable">1</property>
    <property name="mlt_service">qimage</property>
    <property name="creation_time">2021-11-24T18:39:48</property>
    <property name="shotcut:caption">bg_texto.png</property>
    <property name="shotcut:hash">5b650665e00eb5dd587189e9d4a9c2b7</property>
    <property name="ignore_points">0</property>
    <property name="xml">was here</property>
  </producer>
  <producer id="47_overlay_producer1" in="00:00:00.000" out="00:00:03.983">
    <property name="length">04:00:00.000</property>
    <property name="eof">pause</property>
    <property name="resource">10_a_topologia_dos_espacos_metricos/generated/47_topico_fg_texto.png</property>
    <property name="ttl">1</property>
    <property name="aspect_ratio">1</property>
    <property name="progressive">1</property>
    <property name="seekable">1</property>
    <property name="mlt_service">qimage</property>
    <property name="creation_time">2021-11-24T18:39:48</property>
    <property name="xml">was here</property>
    <property name="shotcut:hash">c1b2d61ed7ec1c70929fdca44d9e418f</property>
    <property name="shotcut:caption">fg_texto.png</property>
    <property name="ignore_points">1</property>
  </producer>
  <producer id="47_overlay_producer2" in="00:00:00.000" out="03:59:59.983">
    <property name="length">04:00:00.000</property>
    <property name="eof">pause</property>
    <property name="resource">#FF99C1F1</property>
    <property name="aspect_ratio">1</property>
    <property name="mlt_service">color</property>
    <property name="mlt_image_format">rgba</property>
    <property name="shotcut:caption">#FF99C1F1</property>
    <property name="shotcut:detail">#FF99C1F1</property>
    <property name="ignore_points">0</property>
    <property name="xml">was here</property>
    <property name="seekable">1</property>
  </producer>
  <producer id="47_overlay_producer3" in="00:00:00.000" out="03:59:59.983">
    <property name="length">04:00:00.000</property>
    <property name="eof">pause</property>
    <property name="resource">#FF99C1F1</property>
    <property name="aspect_ratio">1</property>
    <property name="mlt_service">color</property>
    <property name="mlt_image_format">rgba</property>
    <property name="shotcut:caption">#FF99C1F1</property>
    <property name="shotcut:detail">#FF99C1F1</property>
    <property name="ignore_points">0</property>
    <property name="xml">was here</property>
    <property name="seekable">1</property>
  </producer>
  <producer id="47_overlay_producer4" in="00:00:00.000" out="03:59:59.983">
    <property name="length">04:00:00.000</property>
    <property name="eof">pause</property>
    <property name="resource">10_a_topologia_dos_espacos_metricos/generated/47_topico_bg_texto.png</property>
    <property name="ttl">1</property>
    <property name="aspect_ratio">1</property>
    <property name="progressive">1</property>
    <property name="seekable">1</property>
    <property name="mlt_service">qimage</property>
    <property name="creation_time">2021-11-24T18:39:48</property>
    <property name="shotcut:caption">bg_texto.png</property>
    <property name="shotcut:hash">5b650665e00eb5dd587189e9d4a9c2b7</property>
    <property name="ignore_points">0</property>
    <property name="xml">was here</property>
    <filter id="47_overlay_filter1" out="00:00:02.983">
      <property name="start">1</property>
      <property name="level">1</property>
      <property name="mlt_service">brightness</property>
      <property name="shotcut:filter">brightnessOpacity</property>
      <property name="alpha">00:00:00.000=0;00:00:00.250=1;00:00:02.250=1;00:00:02.800=0</property>
      <property name="opacity">00:00:00.000=0;00:00:00.250=1;00:00:02.250=1;00:00:02.800=0</property>
    </filter>
  </producer>
  <producer id="47_overlay_producer5" in="00:00:00.000" out="03:59:59.983">
    <property name="length">04:00:00.000</property>
    <property name="eof">pause</property>
    <property name="resource">10_a_topologia_dos_espacos_metricos/generated/47_topico_fg_texto.png</property>
    <property name="ttl">1</property>
    <property name="aspect_ratio">1</property>
    <property name="progressive">1</property>
    <property name="seekable">1</property>
    <property name="mlt_service">qimage</property>
    <property name="creation_time">2021-11-24T18:39:48</property>
    <property name="xml">was here</property>
    <property name="shotcut:hash">c1b2d61ed7ec1c70929fdca44d9e418f</property>
    <property name="shotcut:caption">fg_texto.png</property>
    <property name="ignore_points">1</property>
    <filter id="47_overlay_filter0" out="00:00:02.983">
      <property name="start">1</property>
      <property name="level">1</property>
      <property name="mlt_service">brightness</property>
      <property name="shotcut:filter">brightnessOpacity</property>
      <property name="alpha">00:00:00.000=0;00:00:00.250=1;00:00:02.250=1;00:00:02.800=0</property>
      <property name="opacity">00:00:00.000=0;00:00:00.250=1;00:00:02.250=1;00:00:02.800=0</property>
    </filter>
  </producer>
<!-- Producers (template: topico - 48) -->
  <producer id="48_overlay_producer0" in="00:00:00.000" out="03:59:59.983">
    <property name="length">04:00:00.000</property>
    <property name="eof">pause</property>
    <property name="resource">10_a_topologia_dos_espacos_metricos/generated/48_topico_bg_texto.png</property>
    <property name="ttl">1</property>
    <property name="aspect_ratio">1</property>
    <property name="progressive">1</property>
    <property name="seekable">1</property>
    <property name="mlt_service">qimage</property>
    <property name="creation_time">2021-11-24T18:39:48</property>
    <property name="shotcut:caption">bg_texto.png</property>
    <property name="shotcut:hash">bac789f7edcb82c32877913258347422</property>
    <property name="ignore_points">0</property>
    <property name="xml">was here</property>
  </producer>
  <producer id="48_overlay_producer1" in="00:00:00.000" out="00:00:03.983">
    <property name="length">04:00:00.000</property>
    <property name="eof">pause</property>
    <property name="resource">10_a_topologia_dos_espacos_metricos/generated/48_topico_fg_texto.png</property>
    <property name="ttl">1</property>
    <property name="aspect_ratio">1</property>
    <property name="progressive">1</property>
    <property name="seekable">1</property>
    <property name="mlt_service">qimage</property>
    <property name="creation_time">2021-11-24T18:39:48</property>
    <property name="xml">was here</property>
    <property name="shotcut:hash">5be96528ccffa0594e4c99986d594b33</property>
    <property name="shotcut:caption">fg_texto.png</property>
    <property name="ignore_points">1</property>
  </producer>
  <producer id="48_overlay_producer2" in="00:00:00.000" out="03:59:59.983">
    <property name="length">04:00:00.000</property>
    <property name="eof">pause</property>
    <property name="resource">#FF99C1F1</property>
    <property name="aspect_ratio">1</property>
    <property name="mlt_service">color</property>
    <property name="mlt_image_format">rgba</property>
    <property name="shotcut:caption">#FF99C1F1</property>
    <property name="shotcut:detail">#FF99C1F1</property>
    <property name="ignore_points">0</property>
    <property name="xml">was here</property>
    <property name="seekable">1</property>
  </producer>
  <producer id="48_overlay_producer3" in="00:00:00.000" out="03:59:59.983">
    <property name="length">04:00:00.000</property>
    <property name="eof">pause</property>
    <property name="resource">#FF99C1F1</property>
    <property name="aspect_ratio">1</property>
    <property name="mlt_service">color</property>
    <property name="mlt_image_format">rgba</property>
    <property name="shotcut:caption">#FF99C1F1</property>
    <property name="shotcut:detail">#FF99C1F1</property>
    <property name="ignore_points">0</property>
    <property name="xml">was here</property>
    <property name="seekable">1</property>
  </producer>
  <producer id="48_overlay_producer4" in="00:00:00.000" out="03:59:59.983">
    <property name="length">04:00:00.000</property>
    <property name="eof">pause</property>
    <property name="resource">10_a_topologia_dos_espacos_metricos/generated/48_topico_bg_texto.png</property>
    <property name="ttl">1</property>
    <property name="aspect_ratio">1</property>
    <property name="progressive">1</property>
    <property name="seekable">1</property>
    <property name="mlt_service">qimage</property>
    <property name="creation_time">2021-11-24T18:39:48</property>
    <property name="shotcut:caption">bg_texto.png</property>
    <property name="shotcut:hash">bac789f7edcb82c32877913258347422</property>
    <property name="ignore_points">0</property>
    <property name="xml">was here</property>
    <filter id="48_overlay_filter1" out="00:00:02.983">
      <property name="start">1</property>
      <property name="level">1</property>
      <property name="mlt_service">brightness</property>
      <property name="shotcut:filter">brightnessOpacity</property>
      <property name="alpha">00:00:00.000=0;00:00:00.250=1;00:00:02.250=1;00:00:02.800=0</property>
      <property name="opacity">00:00:00.000=0;00:00:00.250=1;00:00:02.250=1;00:00:02.800=0</property>
    </filter>
  </producer>
  <producer id="48_overlay_producer5" in="00:00:00.000" out="03:59:59.983">
    <property name="length">04:00:00.000</property>
    <property name="eof">pause</property>
    <property name="resource">10_a_topologia_dos_espacos_metricos/generated/48_topico_fg_texto.png</property>
    <property name="ttl">1</property>
    <property name="aspect_ratio">1</property>
    <property name="progressive">1</property>
    <property name="seekable">1</property>
    <property name="mlt_service">qimage</property>
    <property name="creation_time">2021-11-24T18:39:48</property>
    <property name="xml">was here</property>
    <property name="shotcut:hash">5be96528ccffa0594e4c99986d594b33</property>
    <property name="shotcut:caption">fg_texto.png</property>
    <property name="ignore_points">1</property>
    <filter id="48_overlay_filter0" out="00:00:02.983">
      <property name="start">1</property>
      <property name="level">1</property>
      <property name="mlt_service">brightness</property>
      <property name="shotcut:filter">brightnessOpacity</property>
      <property name="alpha">00:00:00.000=0;00:00:00.250=1;00:00:02.250=1;00:00:02.800=0</property>
      <property name="opacity">00:00:00.000=0;00:00:00.250=1;00:00:02.250=1;00:00:02.800=0</property>
    </filter>
  </producer>
<!-- Producers (template: topico - 49) -->
  <producer id="49_overlay_producer0" in="00:00:00.000" out="03:59:59.983">
    <property name="length">04:00:00.000</property>
    <property name="eof">pause</property>
    <property name="resource">10_a_topologia_dos_espacos_metricos/generated/49_topico_bg_texto.png</property>
    <property name="ttl">1</property>
    <property name="aspect_ratio">1</property>
    <property name="progressive">1</property>
    <property name="seekable">1</property>
    <property name="mlt_service">qimage</property>
    <property name="creation_time">2021-11-24T18:39:48</property>
    <property name="shotcut:caption">bg_texto.png</property>
    <property name="shotcut:hash">b5d7804210b0aa8b0e2555f9a47fbb1e</property>
    <property name="ignore_points">0</property>
    <property name="xml">was here</property>
  </producer>
  <producer id="49_overlay_producer1" in="00:00:00.000" out="00:00:03.983">
    <property name="length">04:00:00.000</property>
    <property name="eof">pause</property>
    <property name="resource">10_a_topologia_dos_espacos_metricos/generated/49_topico_fg_texto.png</property>
    <property name="ttl">1</property>
    <property name="aspect_ratio">1</property>
    <property name="progressive">1</property>
    <property name="seekable">1</property>
    <property name="mlt_service">qimage</property>
    <property name="creation_time">2021-11-24T18:39:48</property>
    <property name="xml">was here</property>
    <property name="shotcut:hash">870f7d29576b57703883819ff28fe73b</property>
    <property name="shotcut:caption">fg_texto.png</property>
    <property name="ignore_points">1</property>
  </producer>
  <producer id="49_overlay_producer2" in="00:00:00.000" out="03:59:59.983">
    <property name="length">04:00:00.000</property>
    <property name="eof">pause</property>
    <property name="resource">#FF99C1F1</property>
    <property name="aspect_ratio">1</property>
    <property name="mlt_service">color</property>
    <property name="mlt_image_format">rgba</property>
    <property name="shotcut:caption">#FF99C1F1</property>
    <property name="shotcut:detail">#FF99C1F1</property>
    <property name="ignore_points">0</property>
    <property name="xml">was here</property>
    <property name="seekable">1</property>
  </producer>
  <producer id="49_overlay_producer3" in="00:00:00.000" out="03:59:59.983">
    <property name="length">04:00:00.000</property>
    <property name="eof">pause</property>
    <property name="resource">#FF99C1F1</property>
    <property name="aspect_ratio">1</property>
    <property name="mlt_service">color</property>
    <property name="mlt_image_format">rgba</property>
    <property name="shotcut:caption">#FF99C1F1</property>
    <property name="shotcut:detail">#FF99C1F1</property>
    <property name="ignore_points">0</property>
    <property name="xml">was here</property>
    <property name="seekable">1</property>
  </producer>
  <producer id="49_overlay_producer4" in="00:00:00.000" out="03:59:59.983">
    <property name="length">04:00:00.000</property>
    <property name="eof">pause</property>
    <property name="resource">10_a_topologia_dos_espacos_metricos/generated/49_topico_bg_texto.png</property>
    <property name="ttl">1</property>
    <property name="aspect_ratio">1</property>
    <property name="progressive">1</property>
    <property name="seekable">1</property>
    <property name="mlt_service">qimage</property>
    <property name="creation_time">2021-11-24T18:39:48</property>
    <property name="shotcut:caption">bg_texto.png</property>
    <property name="shotcut:hash">b5d7804210b0aa8b0e2555f9a47fbb1e</property>
    <property name="ignore_points">0</property>
    <property name="xml">was here</property>
    <filter id="49_overlay_filter1" out="00:00:02.983">
      <property name="start">1</property>
      <property name="level">1</property>
      <property name="mlt_service">brightness</property>
      <property name="shotcut:filter">brightnessOpacity</property>
      <property name="alpha">00:00:00.000=0;00:00:00.250=1;00:00:02.250=1;00:00:02.800=0</property>
      <property name="opacity">00:00:00.000=0;00:00:00.250=1;00:00:02.250=1;00:00:02.800=0</property>
    </filter>
  </producer>
  <producer id="49_overlay_producer5" in="00:00:00.000" out="03:59:59.983">
    <property name="length">04:00:00.000</property>
    <property name="eof">pause</property>
    <property name="resource">10_a_topologia_dos_espacos_metricos/generated/49_topico_fg_texto.png</property>
    <property name="ttl">1</property>
    <property name="aspect_ratio">1</property>
    <property name="progressive">1</property>
    <property name="seekable">1</property>
    <property name="mlt_service">qimage</property>
    <property name="creation_time">2021-11-24T18:39:48</property>
    <property name="xml">was here</property>
    <property name="shotcut:hash">870f7d29576b57703883819ff28fe73b</property>
    <property name="shotcut:caption">fg_texto.png</property>
    <property name="ignore_points">1</property>
    <filter id="49_overlay_filter0" out="00:00:02.983">
      <property name="start">1</property>
      <property name="level">1</property>
      <property name="mlt_service">brightness</property>
      <property name="shotcut:filter">brightnessOpacity</property>
      <property name="alpha">00:00:00.000=0;00:00:00.250=1;00:00:02.250=1;00:00:02.800=0</property>
      <property name="opacity">00:00:00.000=0;00:00:00.250=1;00:00:02.250=1;00:00:02.800=0</property>
    </filter>
  </producer>
<!-- Producers (template: topico - 50) -->
  <producer id="50_overlay_producer0" in="00:00:00.000" out="03:59:59.983">
    <property name="length">04:00:00.000</property>
    <property name="eof">pause</property>
    <property name="resource">10_a_topologia_dos_espacos_metricos/generated/50_topico_bg_texto.png</property>
    <property name="ttl">1</property>
    <property name="aspect_ratio">1</property>
    <property name="progressive">1</property>
    <property name="seekable">1</property>
    <property name="mlt_service">qimage</property>
    <property name="creation_time">2021-11-24T18:39:48</property>
    <property name="shotcut:caption">bg_texto.png</property>
    <property name="shotcut:hash">2824b2826d84be2f033583bf1980b9e1</property>
    <property name="ignore_points">0</property>
    <property name="xml">was here</property>
  </producer>
  <producer id="50_overlay_producer1" in="00:00:00.000" out="00:00:03.983">
    <property name="length">04:00:00.000</property>
    <property name="eof">pause</property>
    <property name="resource">10_a_topologia_dos_espacos_metricos/generated/50_topico_fg_texto.png</property>
    <property name="ttl">1</property>
    <property name="aspect_ratio">1</property>
    <property name="progressive">1</property>
    <property name="seekable">1</property>
    <property name="mlt_service">qimage</property>
    <property name="creation_time">2021-11-24T18:39:48</property>
    <property name="xml">was here</property>
    <property name="shotcut:hash">fe000c579813d5ebbede36d1f180d553</property>
    <property name="shotcut:caption">fg_texto.png</property>
    <property name="ignore_points">1</property>
  </producer>
  <producer id="50_overlay_producer2" in="00:00:00.000" out="03:59:59.983">
    <property name="length">04:00:00.000</property>
    <property name="eof">pause</property>
    <property name="resource">#FF99C1F1</property>
    <property name="aspect_ratio">1</property>
    <property name="mlt_service">color</property>
    <property name="mlt_image_format">rgba</property>
    <property name="shotcut:caption">#FF99C1F1</property>
    <property name="shotcut:detail">#FF99C1F1</property>
    <property name="ignore_points">0</property>
    <property name="xml">was here</property>
    <property name="seekable">1</property>
  </producer>
  <producer id="50_overlay_producer3" in="00:00:00.000" out="03:59:59.983">
    <property name="length">04:00:00.000</property>
    <property name="eof">pause</property>
    <property name="resource">#FF99C1F1</property>
    <property name="aspect_ratio">1</property>
    <property name="mlt_service">color</property>
    <property name="mlt_image_format">rgba</property>
    <property name="shotcut:caption">#FF99C1F1</property>
    <property name="shotcut:detail">#FF99C1F1</property>
    <property name="ignore_points">0</property>
    <property name="xml">was here</property>
    <property name="seekable">1</property>
  </producer>
  <producer id="50_overlay_producer4" in="00:00:00.000" out="03:59:59.983">
    <property name="length">04:00:00.000</property>
    <property name="eof">pause</property>
    <property name="resource">10_a_topologia_dos_espacos_metricos/generated/50_topico_bg_texto.png</property>
    <property name="ttl">1</property>
    <property name="aspect_ratio">1</property>
    <property name="progressive">1</property>
    <property name="seekable">1</property>
    <property name="mlt_service">qimage</property>
    <property name="creation_time">2021-11-24T18:39:48</property>
    <property name="shotcut:caption">bg_texto.png</property>
    <property name="shotcut:hash">2824b2826d84be2f033583bf1980b9e1</property>
    <property name="ignore_points">0</property>
    <property name="xml">was here</property>
    <filter id="50_overlay_filter1" out="00:00:02.983">
      <property name="start">1</property>
      <property name="level">1</property>
      <property name="mlt_service">brightness</property>
      <property name="shotcut:filter">brightnessOpacity</property>
      <property name="alpha">00:00:00.000=0;00:00:00.250=1;00:00:02.250=1;00:00:02.800=0</property>
      <property name="opacity">00:00:00.000=0;00:00:00.250=1;00:00:02.250=1;00:00:02.800=0</property>
    </filter>
  </producer>
  <producer id="50_overlay_producer5" in="00:00:00.000" out="03:59:59.983">
    <property name="length">04:00:00.000</property>
    <property name="eof">pause</property>
    <property name="resource">10_a_topologia_dos_espacos_metricos/generated/50_topico_fg_texto.png</property>
    <property name="ttl">1</property>
    <property name="aspect_ratio">1</property>
    <property name="progressive">1</property>
    <property name="seekable">1</property>
    <property name="mlt_service">qimage</property>
    <property name="creation_time">2021-11-24T18:39:48</property>
    <property name="xml">was here</property>
    <property name="shotcut:hash">fe000c579813d5ebbede36d1f180d553</property>
    <property name="shotcut:caption">fg_texto.png</property>
    <property name="ignore_points">1</property>
    <filter id="50_overlay_filter0" out="00:00:02.983">
      <property name="start">1</property>
      <property name="level">1</property>
      <property name="mlt_service">brightness</property>
      <property name="shotcut:filter">brightnessOpacity</property>
      <property name="alpha">00:00:00.000=0;00:00:00.250=1;00:00:02.250=1;00:00:02.800=0</property>
      <property name="opacity">00:00:00.000=0;00:00:00.250=1;00:00:02.250=1;00:00:02.800=0</property>
    </filter>
  </producer>
<!-- Producers (template: topico - 51) -->
  <producer id="51_overlay_producer0" in="00:00:00.000" out="03:59:59.983">
    <property name="length">04:00:00.000</property>
    <property name="eof">pause</property>
    <property name="resource">10_a_topologia_dos_espacos_metricos/generated/51_topico_bg_texto.png</property>
    <property name="ttl">1</property>
    <property name="aspect_ratio">1</property>
    <property name="progressive">1</property>
    <property name="seekable">1</property>
    <property name="mlt_service">qimage</property>
    <property name="creation_time">2021-11-24T18:39:48</property>
    <property name="shotcut:caption">bg_texto.png</property>
    <property name="shotcut:hash">63bac2b0b68aff22be77aba7d656c685</property>
    <property name="ignore_points">0</property>
    <property name="xml">was here</property>
  </producer>
  <producer id="51_overlay_producer1" in="00:00:00.000" out="00:00:03.983">
    <property name="length">04:00:00.000</property>
    <property name="eof">pause</property>
    <property name="resource">10_a_topologia_dos_espacos_metricos/generated/51_topico_fg_texto.png</property>
    <property name="ttl">1</property>
    <property name="aspect_ratio">1</property>
    <property name="progressive">1</property>
    <property name="seekable">1</property>
    <property name="mlt_service">qimage</property>
    <property name="creation_time">2021-11-24T18:39:48</property>
    <property name="xml">was here</property>
    <property name="shotcut:hash">f6f0a198e3e4dbca7aab02e80e431d10</property>
    <property name="shotcut:caption">fg_texto.png</property>
    <property name="ignore_points">1</property>
  </producer>
  <producer id="51_overlay_producer2" in="00:00:00.000" out="03:59:59.983">
    <property name="length">04:00:00.000</property>
    <property name="eof">pause</property>
    <property name="resource">#FF99C1F1</property>
    <property name="aspect_ratio">1</property>
    <property name="mlt_service">color</property>
    <property name="mlt_image_format">rgba</property>
    <property name="shotcut:caption">#FF99C1F1</property>
    <property name="shotcut:detail">#FF99C1F1</property>
    <property name="ignore_points">0</property>
    <property name="xml">was here</property>
    <property name="seekable">1</property>
  </producer>
  <producer id="51_overlay_producer3" in="00:00:00.000" out="03:59:59.983">
    <property name="length">04:00:00.000</property>
    <property name="eof">pause</property>
    <property name="resource">#FF99C1F1</property>
    <property name="aspect_ratio">1</property>
    <property name="mlt_service">color</property>
    <property name="mlt_image_format">rgba</property>
    <property name="shotcut:caption">#FF99C1F1</property>
    <property name="shotcut:detail">#FF99C1F1</property>
    <property name="ignore_points">0</property>
    <property name="xml">was here</property>
    <property name="seekable">1</property>
  </producer>
  <producer id="51_overlay_producer4" in="00:00:00.000" out="03:59:59.983">
    <property name="length">04:00:00.000</property>
    <property name="eof">pause</property>
    <property name="resource">10_a_topologia_dos_espacos_metricos/generated/51_topico_bg_texto.png</property>
    <property name="ttl">1</property>
    <property name="aspect_ratio">1</property>
    <property name="progressive">1</property>
    <property name="seekable">1</property>
    <property name="mlt_service">qimage</property>
    <property name="creation_time">2021-11-24T18:39:48</property>
    <property name="shotcut:caption">bg_texto.png</property>
    <property name="shotcut:hash">63bac2b0b68aff22be77aba7d656c685</property>
    <property name="ignore_points">0</property>
    <property name="xml">was here</property>
    <filter id="51_overlay_filter1" out="00:00:02.983">
      <property name="start">1</property>
      <property name="level">1</property>
      <property name="mlt_service">brightness</property>
      <property name="shotcut:filter">brightnessOpacity</property>
      <property name="alpha">00:00:00.000=0;00:00:00.250=1;00:00:02.250=1;00:00:02.800=0</property>
      <property name="opacity">00:00:00.000=0;00:00:00.250=1;00:00:02.250=1;00:00:02.800=0</property>
    </filter>
  </producer>
  <producer id="51_overlay_producer5" in="00:00:00.000" out="03:59:59.983">
    <property name="length">04:00:00.000</property>
    <property name="eof">pause</property>
    <property name="resource">10_a_topologia_dos_espacos_metricos/generated/51_topico_fg_texto.png</property>
    <property name="ttl">1</property>
    <property name="aspect_ratio">1</property>
    <property name="progressive">1</property>
    <property name="seekable">1</property>
    <property name="mlt_service">qimage</property>
    <property name="creation_time">2021-11-24T18:39:48</property>
    <property name="xml">was here</property>
    <property name="shotcut:hash">f6f0a198e3e4dbca7aab02e80e431d10</property>
    <property name="shotcut:caption">fg_texto.png</property>
    <property name="ignore_points">1</property>
    <filter id="51_overlay_filter0" out="00:00:02.983">
      <property name="start">1</property>
      <property name="level">1</property>
      <property name="mlt_service">brightness</property>
      <property name="shotcut:filter">brightnessOpacity</property>
      <property name="alpha">00:00:00.000=0;00:00:00.250=1;00:00:02.250=1;00:00:02.800=0</property>
      <property name="opacity">00:00:00.000=0;00:00:00.250=1;00:00:02.250=1;00:00:02.800=0</property>
    </filter>
  </producer>
<!-- Producers (template: topico - 52) -->
  <producer id="52_overlay_producer0" in="00:00:00.000" out="03:59:59.983">
    <property name="length">04:00:00.000</property>
    <property name="eof">pause</property>
    <property name="resource">10_a_topologia_dos_espacos_metricos/generated/52_topico_bg_texto.png</property>
    <property name="ttl">1</property>
    <property name="aspect_ratio">1</property>
    <property name="progressive">1</property>
    <property name="seekable">1</property>
    <property name="mlt_service">qimage</property>
    <property name="creation_time">2021-11-24T18:39:48</property>
    <property name="shotcut:caption">bg_texto.png</property>
    <property name="shotcut:hash">3a8ceb51178f6fb34868db50f5479232</property>
    <property name="ignore_points">0</property>
    <property name="xml">was here</property>
  </producer>
  <producer id="52_overlay_producer1" in="00:00:00.000" out="00:00:03.983">
    <property name="length">04:00:00.000</property>
    <property name="eof">pause</property>
    <property name="resource">10_a_topologia_dos_espacos_metricos/generated/52_topico_fg_texto.png</property>
    <property name="ttl">1</property>
    <property name="aspect_ratio">1</property>
    <property name="progressive">1</property>
    <property name="seekable">1</property>
    <property name="mlt_service">qimage</property>
    <property name="creation_time">2021-11-24T18:39:48</property>
    <property name="xml">was here</property>
    <property name="shotcut:hash">0aab19c19e8c604f6713dd3caa88e92b</property>
    <property name="shotcut:caption">fg_texto.png</property>
    <property name="ignore_points">1</property>
  </producer>
  <producer id="52_overlay_producer2" in="00:00:00.000" out="03:59:59.983">
    <property name="length">04:00:00.000</property>
    <property name="eof">pause</property>
    <property name="resource">#FF99C1F1</property>
    <property name="aspect_ratio">1</property>
    <property name="mlt_service">color</property>
    <property name="mlt_image_format">rgba</property>
    <property name="shotcut:caption">#FF99C1F1</property>
    <property name="shotcut:detail">#FF99C1F1</property>
    <property name="ignore_points">0</property>
    <property name="xml">was here</property>
    <property name="seekable">1</property>
  </producer>
  <producer id="52_overlay_producer3" in="00:00:00.000" out="03:59:59.983">
    <property name="length">04:00:00.000</property>
    <property name="eof">pause</property>
    <property name="resource">#FF99C1F1</property>
    <property name="aspect_ratio">1</property>
    <property name="mlt_service">color</property>
    <property name="mlt_image_format">rgba</property>
    <property name="shotcut:caption">#FF99C1F1</property>
    <property name="shotcut:detail">#FF99C1F1</property>
    <property name="ignore_points">0</property>
    <property name="xml">was here</property>
    <property name="seekable">1</property>
  </producer>
  <producer id="52_overlay_producer4" in="00:00:00.000" out="03:59:59.983">
    <property name="length">04:00:00.000</property>
    <property name="eof">pause</property>
    <property name="resource">10_a_topologia_dos_espacos_metricos/generated/52_topico_bg_texto.png</property>
    <property name="ttl">1</property>
    <property name="aspect_ratio">1</property>
    <property name="progressive">1</property>
    <property name="seekable">1</property>
    <property name="mlt_service">qimage</property>
    <property name="creation_time">2021-11-24T18:39:48</property>
    <property name="shotcut:caption">bg_texto.png</property>
    <property name="shotcut:hash">3a8ceb51178f6fb34868db50f5479232</property>
    <property name="ignore_points">0</property>
    <property name="xml">was here</property>
    <filter id="52_overlay_filter1" out="00:00:02.983">
      <property name="start">1</property>
      <property name="level">1</property>
      <property name="mlt_service">brightness</property>
      <property name="shotcut:filter">brightnessOpacity</property>
      <property name="alpha">00:00:00.000=0;00:00:00.250=1;00:00:02.250=1;00:00:02.800=0</property>
      <property name="opacity">00:00:00.000=0;00:00:00.250=1;00:00:02.250=1;00:00:02.800=0</property>
    </filter>
  </producer>
  <producer id="52_overlay_producer5" in="00:00:00.000" out="03:59:59.983">
    <property name="length">04:00:00.000</property>
    <property name="eof">pause</property>
    <property name="resource">10_a_topologia_dos_espacos_metricos/generated/52_topico_fg_texto.png</property>
    <property name="ttl">1</property>
    <property name="aspect_ratio">1</property>
    <property name="progressive">1</property>
    <property name="seekable">1</property>
    <property name="mlt_service">qimage</property>
    <property name="creation_time">2021-11-24T18:39:48</property>
    <property name="xml">was here</property>
    <property name="shotcut:hash">0aab19c19e8c604f6713dd3caa88e92b</property>
    <property name="shotcut:caption">fg_texto.png</property>
    <property name="ignore_points">1</property>
    <filter id="52_overlay_filter0" out="00:00:02.983">
      <property name="start">1</property>
      <property name="level">1</property>
      <property name="mlt_service">brightness</property>
      <property name="shotcut:filter">brightnessOpacity</property>
      <property name="alpha">00:00:00.000=0;00:00:00.250=1;00:00:02.250=1;00:00:02.800=0</property>
      <property name="opacity">00:00:00.000=0;00:00:00.250=1;00:00:02.250=1;00:00:02.800=0</property>
    </filter>
  </producer>
<!-- Producers (template: topico - 53) -->
  <producer id="53_overlay_producer0" in="00:00:00.000" out="03:59:59.983">
    <property name="length">04:00:00.000</property>
    <property name="eof">pause</property>
    <property name="resource">10_a_topologia_dos_espacos_metricos/generated/53_topico_bg_texto.png</property>
    <property name="ttl">1</property>
    <property name="aspect_ratio">1</property>
    <property name="progressive">1</property>
    <property name="seekable">1</property>
    <property name="mlt_service">qimage</property>
    <property name="creation_time">2021-11-24T18:39:48</property>
    <property name="shotcut:caption">bg_texto.png</property>
    <property name="shotcut:hash">52893ee35227996b563a3c5e4cba869d</property>
    <property name="ignore_points">0</property>
    <property name="xml">was here</property>
  </producer>
  <producer id="53_overlay_producer1" in="00:00:00.000" out="00:00:03.983">
    <property name="length">04:00:00.000</property>
    <property name="eof">pause</property>
    <property name="resource">10_a_topologia_dos_espacos_metricos/generated/53_topico_fg_texto.png</property>
    <property name="ttl">1</property>
    <property name="aspect_ratio">1</property>
    <property name="progressive">1</property>
    <property name="seekable">1</property>
    <property name="mlt_service">qimage</property>
    <property name="creation_time">2021-11-24T18:39:48</property>
    <property name="xml">was here</property>
    <property name="shotcut:hash">0c1eb26b6245638e824cae816302d9cd</property>
    <property name="shotcut:caption">fg_texto.png</property>
    <property name="ignore_points">1</property>
  </producer>
  <producer id="53_overlay_producer2" in="00:00:00.000" out="03:59:59.983">
    <property name="length">04:00:00.000</property>
    <property name="eof">pause</property>
    <property name="resource">#FF99C1F1</property>
    <property name="aspect_ratio">1</property>
    <property name="mlt_service">color</property>
    <property name="mlt_image_format">rgba</property>
    <property name="shotcut:caption">#FF99C1F1</property>
    <property name="shotcut:detail">#FF99C1F1</property>
    <property name="ignore_points">0</property>
    <property name="xml">was here</property>
    <property name="seekable">1</property>
  </producer>
  <producer id="53_overlay_producer3" in="00:00:00.000" out="03:59:59.983">
    <property name="length">04:00:00.000</property>
    <property name="eof">pause</property>
    <property name="resource">#FF99C1F1</property>
    <property name="aspect_ratio">1</property>
    <property name="mlt_service">color</property>
    <property name="mlt_image_format">rgba</property>
    <property name="shotcut:caption">#FF99C1F1</property>
    <property name="shotcut:detail">#FF99C1F1</property>
    <property name="ignore_points">0</property>
    <property name="xml">was here</property>
    <property name="seekable">1</property>
  </producer>
  <producer id="53_overlay_producer4" in="00:00:00.000" out="03:59:59.983">
    <property name="length">04:00:00.000</property>
    <property name="eof">pause</property>
    <property name="resource">10_a_topologia_dos_espacos_metricos/generated/53_topico_bg_texto.png</property>
    <property name="ttl">1</property>
    <property name="aspect_ratio">1</property>
    <property name="progressive">1</property>
    <property name="seekable">1</property>
    <property name="mlt_service">qimage</property>
    <property name="creation_time">2021-11-24T18:39:48</property>
    <property name="shotcut:caption">bg_texto.png</property>
    <property name="shotcut:hash">52893ee35227996b563a3c5e4cba869d</property>
    <property name="ignore_points">0</property>
    <property name="xml">was here</property>
    <filter id="53_overlay_filter1" out="00:00:02.983">
      <property name="start">1</property>
      <property name="level">1</property>
      <property name="mlt_service">brightness</property>
      <property name="shotcut:filter">brightnessOpacity</property>
      <property name="alpha">00:00:00.000=0;00:00:00.250=1;00:00:02.250=1;00:00:02.800=0</property>
      <property name="opacity">00:00:00.000=0;00:00:00.250=1;00:00:02.250=1;00:00:02.800=0</property>
    </filter>
  </producer>
  <producer id="53_overlay_producer5" in="00:00:00.000" out="03:59:59.983">
    <property name="length">04:00:00.000</property>
    <property name="eof">pause</property>
    <property name="resource">10_a_topologia_dos_espacos_metricos/generated/53_topico_fg_texto.png</property>
    <property name="ttl">1</property>
    <property name="aspect_ratio">1</property>
    <property name="progressive">1</property>
    <property name="seekable">1</property>
    <property name="mlt_service">qimage</property>
    <property name="creation_time">2021-11-24T18:39:48</property>
    <property name="xml">was here</property>
    <property name="shotcut:hash">0c1eb26b6245638e824cae816302d9cd</property>
    <property name="shotcut:caption">fg_texto.png</property>
    <property name="ignore_points">1</property>
    <filter id="53_overlay_filter0" out="00:00:02.983">
      <property name="start">1</property>
      <property name="level">1</property>
      <property name="mlt_service">brightness</property>
      <property name="shotcut:filter">brightnessOpacity</property>
      <property name="alpha">00:00:00.000=0;00:00:00.250=1;00:00:02.250=1;00:00:02.800=0</property>
      <property name="opacity">00:00:00.000=0;00:00:00.250=1;00:00:02.250=1;00:00:02.800=0</property>
    </filter>
  </producer>
<!-- Producers (template: topico - 54) -->
  <producer id="54_overlay_producer0" in="00:00:00.000" out="03:59:59.983">
    <property name="length">04:00:00.000</property>
    <property name="eof">pause</property>
    <property name="resource">10_a_topologia_dos_espacos_metricos/generated/54_topico_bg_texto.png</property>
    <property name="ttl">1</property>
    <property name="aspect_ratio">1</property>
    <property name="progressive">1</property>
    <property name="seekable">1</property>
    <property name="mlt_service">qimage</property>
    <property name="creation_time">2021-11-24T18:39:48</property>
    <property name="shotcut:caption">bg_texto.png</property>
    <property name="shotcut:hash">c129b87614c5aa32c78867278350f41a</property>
    <property name="ignore_points">0</property>
    <property name="xml">was here</property>
  </producer>
  <producer id="54_overlay_producer1" in="00:00:00.000" out="00:00:03.983">
    <property name="length">04:00:00.000</property>
    <property name="eof">pause</property>
    <property name="resource">10_a_topologia_dos_espacos_metricos/generated/54_topico_fg_texto.png</property>
    <property name="ttl">1</property>
    <property name="aspect_ratio">1</property>
    <property name="progressive">1</property>
    <property name="seekable">1</property>
    <property name="mlt_service">qimage</property>
    <property name="creation_time">2021-11-24T18:39:48</property>
    <property name="xml">was here</property>
    <property name="shotcut:hash">53e3efb387a9abd5083125d952110ee6</property>
    <property name="shotcut:caption">fg_texto.png</property>
    <property name="ignore_points">1</property>
  </producer>
  <producer id="54_overlay_producer2" in="00:00:00.000" out="03:59:59.983">
    <property name="length">04:00:00.000</property>
    <property name="eof">pause</property>
    <property name="resource">#FF99C1F1</property>
    <property name="aspect_ratio">1</property>
    <property name="mlt_service">color</property>
    <property name="mlt_image_format">rgba</property>
    <property name="shotcut:caption">#FF99C1F1</property>
    <property name="shotcut:detail">#FF99C1F1</property>
    <property name="ignore_points">0</property>
    <property name="xml">was here</property>
    <property name="seekable">1</property>
  </producer>
  <producer id="54_overlay_producer3" in="00:00:00.000" out="03:59:59.983">
    <property name="length">04:00:00.000</property>
    <property name="eof">pause</property>
    <property name="resource">#FF99C1F1</property>
    <property name="aspect_ratio">1</property>
    <property name="mlt_service">color</property>
    <property name="mlt_image_format">rgba</property>
    <property name="shotcut:caption">#FF99C1F1</property>
    <property name="shotcut:detail">#FF99C1F1</property>
    <property name="ignore_points">0</property>
    <property name="xml">was here</property>
    <property name="seekable">1</property>
  </producer>
  <producer id="54_overlay_producer4" in="00:00:00.000" out="03:59:59.983">
    <property name="length">04:00:00.000</property>
    <property name="eof">pause</property>
    <property name="resource">10_a_topologia_dos_espacos_metricos/generated/54_topico_bg_texto.png</property>
    <property name="ttl">1</property>
    <property name="aspect_ratio">1</property>
    <property name="progressive">1</property>
    <property name="seekable">1</property>
    <property name="mlt_service">qimage</property>
    <property name="creation_time">2021-11-24T18:39:48</property>
    <property name="shotcut:caption">bg_texto.png</property>
    <property name="shotcut:hash">c129b87614c5aa32c78867278350f41a</property>
    <property name="ignore_points">0</property>
    <property name="xml">was here</property>
    <filter id="54_overlay_filter1" out="00:00:02.983">
      <property name="start">1</property>
      <property name="level">1</property>
      <property name="mlt_service">brightness</property>
      <property name="shotcut:filter">brightnessOpacity</property>
      <property name="alpha">00:00:00.000=0;00:00:00.250=1;00:00:02.250=1;00:00:02.800=0</property>
      <property name="opacity">00:00:00.000=0;00:00:00.250=1;00:00:02.250=1;00:00:02.800=0</property>
    </filter>
  </producer>
  <producer id="54_overlay_producer5" in="00:00:00.000" out="03:59:59.983">
    <property name="length">04:00:00.000</property>
    <property name="eof">pause</property>
    <property name="resource">10_a_topologia_dos_espacos_metricos/generated/54_topico_fg_texto.png</property>
    <property name="ttl">1</property>
    <property name="aspect_ratio">1</property>
    <property name="progressive">1</property>
    <property name="seekable">1</property>
    <property name="mlt_service">qimage</property>
    <property name="creation_time">2021-11-24T18:39:48</property>
    <property name="xml">was here</property>
    <property name="shotcut:hash">53e3efb387a9abd5083125d952110ee6</property>
    <property name="shotcut:caption">fg_texto.png</property>
    <property name="ignore_points">1</property>
    <filter id="54_overlay_filter0" out="00:00:02.983">
      <property name="start">1</property>
      <property name="level">1</property>
      <property name="mlt_service">brightness</property>
      <property name="shotcut:filter">brightnessOpacity</property>
      <property name="alpha">00:00:00.000=0;00:00:00.250=1;00:00:02.250=1;00:00:02.800=0</property>
      <property name="opacity">00:00:00.000=0;00:00:00.250=1;00:00:02.250=1;00:00:02.800=0</property>
    </filter>
  </producer>
<!-- Producers (template: topico - 55) -->
  <producer id="55_overlay_producer0" in="00:00:00.000" out="03:59:59.983">
    <property name="length">04:00:00.000</property>
    <property name="eof">pause</property>
    <property name="resource">10_a_topologia_dos_espacos_metricos/generated/55_topico_bg_texto.png</property>
    <property name="ttl">1</property>
    <property name="aspect_ratio">1</property>
    <property name="progressive">1</property>
    <property name="seekable">1</property>
    <property name="mlt_service">qimage</property>
    <property name="creation_time">2021-11-24T18:39:48</property>
    <property name="shotcut:caption">bg_texto.png</property>
    <property name="shotcut:hash">51fdee0ee6c0494e066836b708637617</property>
    <property name="ignore_points">0</property>
    <property name="xml">was here</property>
  </producer>
  <producer id="55_overlay_producer1" in="00:00:00.000" out="00:00:03.983">
    <property name="length">04:00:00.000</property>
    <property name="eof">pause</property>
    <property name="resource">10_a_topologia_dos_espacos_metricos/generated/55_topico_fg_texto.png</property>
    <property name="ttl">1</property>
    <property name="aspect_ratio">1</property>
    <property name="progressive">1</property>
    <property name="seekable">1</property>
    <property name="mlt_service">qimage</property>
    <property name="creation_time">2021-11-24T18:39:48</property>
    <property name="xml">was here</property>
    <property name="shotcut:hash">4c7c0d6159d74cb35f3df552df69d413</property>
    <property name="shotcut:caption">fg_texto.png</property>
    <property name="ignore_points">1</property>
  </producer>
  <producer id="55_overlay_producer2" in="00:00:00.000" out="03:59:59.983">
    <property name="length">04:00:00.000</property>
    <property name="eof">pause</property>
    <property name="resource">#FF99C1F1</property>
    <property name="aspect_ratio">1</property>
    <property name="mlt_service">color</property>
    <property name="mlt_image_format">rgba</property>
    <property name="shotcut:caption">#FF99C1F1</property>
    <property name="shotcut:detail">#FF99C1F1</property>
    <property name="ignore_points">0</property>
    <property name="xml">was here</property>
    <property name="seekable">1</property>
  </producer>
  <producer id="55_overlay_producer3" in="00:00:00.000" out="03:59:59.983">
    <property name="length">04:00:00.000</property>
    <property name="eof">pause</property>
    <property name="resource">#FF99C1F1</property>
    <property name="aspect_ratio">1</property>
    <property name="mlt_service">color</property>
    <property name="mlt_image_format">rgba</property>
    <property name="shotcut:caption">#FF99C1F1</property>
    <property name="shotcut:detail">#FF99C1F1</property>
    <property name="ignore_points">0</property>
    <property name="xml">was here</property>
    <property name="seekable">1</property>
  </producer>
  <producer id="55_overlay_producer4" in="00:00:00.000" out="03:59:59.983">
    <property name="length">04:00:00.000</property>
    <property name="eof">pause</property>
    <property name="resource">10_a_topologia_dos_espacos_metricos/generated/55_topico_bg_texto.png</property>
    <property name="ttl">1</property>
    <property name="aspect_ratio">1</property>
    <property name="progressive">1</property>
    <property name="seekable">1</property>
    <property name="mlt_service">qimage</property>
    <property name="creation_time">2021-11-24T18:39:48</property>
    <property name="shotcut:caption">bg_texto.png</property>
    <property name="shotcut:hash">51fdee0ee6c0494e066836b708637617</property>
    <property name="ignore_points">0</property>
    <property name="xml">was here</property>
    <filter id="55_overlay_filter1" out="00:00:02.983">
      <property name="start">1</property>
      <property name="level">1</property>
      <property name="mlt_service">brightness</property>
      <property name="shotcut:filter">brightnessOpacity</property>
      <property name="alpha">00:00:00.000=0;00:00:00.250=1;00:00:02.250=1;00:00:02.800=0</property>
      <property name="opacity">00:00:00.000=0;00:00:00.250=1;00:00:02.250=1;00:00:02.800=0</property>
    </filter>
  </producer>
  <producer id="55_overlay_producer5" in="00:00:00.000" out="03:59:59.983">
    <property name="length">04:00:00.000</property>
    <property name="eof">pause</property>
    <property name="resource">10_a_topologia_dos_espacos_metricos/generated/55_topico_fg_texto.png</property>
    <property name="ttl">1</property>
    <property name="aspect_ratio">1</property>
    <property name="progressive">1</property>
    <property name="seekable">1</property>
    <property name="mlt_service">qimage</property>
    <property name="creation_time">2021-11-24T18:39:48</property>
    <property name="xml">was here</property>
    <property name="shotcut:hash">4c7c0d6159d74cb35f3df552df69d413</property>
    <property name="shotcut:caption">fg_texto.png</property>
    <property name="ignore_points">1</property>
    <filter id="55_overlay_filter0" out="00:00:02.983">
      <property name="start">1</property>
      <property name="level">1</property>
      <property name="mlt_service">brightness</property>
      <property name="shotcut:filter">brightnessOpacity</property>
      <property name="alpha">00:00:00.000=0;00:00:00.250=1;00:00:02.250=1;00:00:02.800=0</property>
      <property name="opacity">00:00:00.000=0;00:00:00.250=1;00:00:02.250=1;00:00:02.800=0</property>
    </filter>
  </producer>
<!-- Producers (template: topico - 56) -->
  <producer id="56_overlay_producer0" in="00:00:00.000" out="03:59:59.983">
    <property name="length">04:00:00.000</property>
    <property name="eof">pause</property>
    <property name="resource">10_a_topologia_dos_espacos_metricos/generated/56_topico_bg_texto.png</property>
    <property name="ttl">1</property>
    <property name="aspect_ratio">1</property>
    <property name="progressive">1</property>
    <property name="seekable">1</property>
    <property name="mlt_service">qimage</property>
    <property name="creation_time">2021-11-24T18:39:48</property>
    <property name="shotcut:caption">bg_texto.png</property>
    <property name="shotcut:hash">b0a1de1fade16e102e3d6239f8d70779</property>
    <property name="ignore_points">0</property>
    <property name="xml">was here</property>
  </producer>
  <producer id="56_overlay_producer1" in="00:00:00.000" out="00:00:03.983">
    <property name="length">04:00:00.000</property>
    <property name="eof">pause</property>
    <property name="resource">10_a_topologia_dos_espacos_metricos/generated/56_topico_fg_texto.png</property>
    <property name="ttl">1</property>
    <property name="aspect_ratio">1</property>
    <property name="progressive">1</property>
    <property name="seekable">1</property>
    <property name="mlt_service">qimage</property>
    <property name="creation_time">2021-11-24T18:39:48</property>
    <property name="xml">was here</property>
    <property name="shotcut:hash">1938b56d0690e575e49b0499281544c4</property>
    <property name="shotcut:caption">fg_texto.png</property>
    <property name="ignore_points">1</property>
  </producer>
  <producer id="56_overlay_producer2" in="00:00:00.000" out="03:59:59.983">
    <property name="length">04:00:00.000</property>
    <property name="eof">pause</property>
    <property name="resource">#FF99C1F1</property>
    <property name="aspect_ratio">1</property>
    <property name="mlt_service">color</property>
    <property name="mlt_image_format">rgba</property>
    <property name="shotcut:caption">#FF99C1F1</property>
    <property name="shotcut:detail">#FF99C1F1</property>
    <property name="ignore_points">0</property>
    <property name="xml">was here</property>
    <property name="seekable">1</property>
  </producer>
  <producer id="56_overlay_producer3" in="00:00:00.000" out="03:59:59.983">
    <property name="length">04:00:00.000</property>
    <property name="eof">pause</property>
    <property name="resource">#FF99C1F1</property>
    <property name="aspect_ratio">1</property>
    <property name="mlt_service">color</property>
    <property name="mlt_image_format">rgba</property>
    <property name="shotcut:caption">#FF99C1F1</property>
    <property name="shotcut:detail">#FF99C1F1</property>
    <property name="ignore_points">0</property>
    <property name="xml">was here</property>
    <property name="seekable">1</property>
  </producer>
  <producer id="56_overlay_producer4" in="00:00:00.000" out="03:59:59.983">
    <property name="length">04:00:00.000</property>
    <property name="eof">pause</property>
    <property name="resource">10_a_topologia_dos_espacos_metricos/generated/56_topico_bg_texto.png</property>
    <property name="ttl">1</property>
    <property name="aspect_ratio">1</property>
    <property name="progressive">1</property>
    <property name="seekable">1</property>
    <property name="mlt_service">qimage</property>
    <property name="creation_time">2021-11-24T18:39:48</property>
    <property name="shotcut:caption">bg_texto.png</property>
    <property name="shotcut:hash">b0a1de1fade16e102e3d6239f8d70779</property>
    <property name="ignore_points">0</property>
    <property name="xml">was here</property>
    <filter id="56_overlay_filter1" out="00:00:02.983">
      <property name="start">1</property>
      <property name="level">1</property>
      <property name="mlt_service">brightness</property>
      <property name="shotcut:filter">brightnessOpacity</property>
      <property name="alpha">00:00:00.000=0;00:00:00.250=1;00:00:02.250=1;00:00:02.800=0</property>
      <property name="opacity">00:00:00.000=0;00:00:00.250=1;00:00:02.250=1;00:00:02.800=0</property>
    </filter>
  </producer>
  <producer id="56_overlay_producer5" in="00:00:00.000" out="03:59:59.983">
    <property name="length">04:00:00.000</property>
    <property name="eof">pause</property>
    <property name="resource">10_a_topologia_dos_espacos_metricos/generated/56_topico_fg_texto.png</property>
    <property name="ttl">1</property>
    <property name="aspect_ratio">1</property>
    <property name="progressive">1</property>
    <property name="seekable">1</property>
    <property name="mlt_service">qimage</property>
    <property name="creation_time">2021-11-24T18:39:48</property>
    <property name="xml">was here</property>
    <property name="shotcut:hash">1938b56d0690e575e49b0499281544c4</property>
    <property name="shotcut:caption">fg_texto.png</property>
    <property name="ignore_points">1</property>
    <filter id="56_overlay_filter0" out="00:00:02.983">
      <property name="start">1</property>
      <property name="level">1</property>
      <property name="mlt_service">brightness</property>
      <property name="shotcut:filter">brightnessOpacity</property>
      <property name="alpha">00:00:00.000=0;00:00:00.250=1;00:00:02.250=1;00:00:02.800=0</property>
      <property name="opacity">00:00:00.000=0;00:00:00.250=1;00:00:02.250=1;00:00:02.800=0</property>
    </filter>
  </producer>
<!-- Producers (template: topico - 57) -->
  <producer id="57_overlay_producer0" in="00:00:00.000" out="03:59:59.983">
    <property name="length">04:00:00.000</property>
    <property name="eof">pause</property>
    <property name="resource">10_a_topologia_dos_espacos_metricos/generated/57_topico_bg_texto.png</property>
    <property name="ttl">1</property>
    <property name="aspect_ratio">1</property>
    <property name="progressive">1</property>
    <property name="seekable">1</property>
    <property name="mlt_service">qimage</property>
    <property name="creation_time">2021-11-24T18:39:48</property>
    <property name="shotcut:caption">bg_texto.png</property>
    <property name="shotcut:hash">e9f2e7d3f872a0e27f3b23b53c766fff</property>
    <property name="ignore_points">0</property>
    <property name="xml">was here</property>
  </producer>
  <producer id="57_overlay_producer1" in="00:00:00.000" out="00:00:03.983">
    <property name="length">04:00:00.000</property>
    <property name="eof">pause</property>
    <property name="resource">10_a_topologia_dos_espacos_metricos/generated/57_topico_fg_texto.png</property>
    <property name="ttl">1</property>
    <property name="aspect_ratio">1</property>
    <property name="progressive">1</property>
    <property name="seekable">1</property>
    <property name="mlt_service">qimage</property>
    <property name="creation_time">2021-11-24T18:39:48</property>
    <property name="xml">was here</property>
    <property name="shotcut:hash">d03ee147547110e7da4c754baa2a6c6a</property>
    <property name="shotcut:caption">fg_texto.png</property>
    <property name="ignore_points">1</property>
  </producer>
  <producer id="57_overlay_producer2" in="00:00:00.000" out="03:59:59.983">
    <property name="length">04:00:00.000</property>
    <property name="eof">pause</property>
    <property name="resource">#FF99C1F1</property>
    <property name="aspect_ratio">1</property>
    <property name="mlt_service">color</property>
    <property name="mlt_image_format">rgba</property>
    <property name="shotcut:caption">#FF99C1F1</property>
    <property name="shotcut:detail">#FF99C1F1</property>
    <property name="ignore_points">0</property>
    <property name="xml">was here</property>
    <property name="seekable">1</property>
  </producer>
  <producer id="57_overlay_producer3" in="00:00:00.000" out="03:59:59.983">
    <property name="length">04:00:00.000</property>
    <property name="eof">pause</property>
    <property name="resource">#FF99C1F1</property>
    <property name="aspect_ratio">1</property>
    <property name="mlt_service">color</property>
    <property name="mlt_image_format">rgba</property>
    <property name="shotcut:caption">#FF99C1F1</property>
    <property name="shotcut:detail">#FF99C1F1</property>
    <property name="ignore_points">0</property>
    <property name="xml">was here</property>
    <property name="seekable">1</property>
  </producer>
  <producer id="57_overlay_producer4" in="00:00:00.000" out="03:59:59.983">
    <property name="length">04:00:00.000</property>
    <property name="eof">pause</property>
    <property name="resource">10_a_topologia_dos_espacos_metricos/generated/57_topico_bg_texto.png</property>
    <property name="ttl">1</property>
    <property name="aspect_ratio">1</property>
    <property name="progressive">1</property>
    <property name="seekable">1</property>
    <property name="mlt_service">qimage</property>
    <property name="creation_time">2021-11-24T18:39:48</property>
    <property name="shotcut:caption">bg_texto.png</property>
    <property name="shotcut:hash">e9f2e7d3f872a0e27f3b23b53c766fff</property>
    <property name="ignore_points">0</property>
    <property name="xml">was here</property>
    <filter id="57_overlay_filter1" out="00:00:02.983">
      <property name="start">1</property>
      <property name="level">1</property>
      <property name="mlt_service">brightness</property>
      <property name="shotcut:filter">brightnessOpacity</property>
      <property name="alpha">00:00:00.000=0;00:00:00.250=1;00:00:02.250=1;00:00:02.800=0</property>
      <property name="opacity">00:00:00.000=0;00:00:00.250=1;00:00:02.250=1;00:00:02.800=0</property>
    </filter>
  </producer>
  <producer id="57_overlay_producer5" in="00:00:00.000" out="03:59:59.983">
    <property name="length">04:00:00.000</property>
    <property name="eof">pause</property>
    <property name="resource">10_a_topologia_dos_espacos_metricos/generated/57_topico_fg_texto.png</property>
    <property name="ttl">1</property>
    <property name="aspect_ratio">1</property>
    <property name="progressive">1</property>
    <property name="seekable">1</property>
    <property name="mlt_service">qimage</property>
    <property name="creation_time">2021-11-24T18:39:48</property>
    <property name="xml">was here</property>
    <property name="shotcut:hash">d03ee147547110e7da4c754baa2a6c6a</property>
    <property name="shotcut:caption">fg_texto.png</property>
    <property name="ignore_points">1</property>
    <filter id="57_overlay_filter0" out="00:00:02.983">
      <property name="start">1</property>
      <property name="level">1</property>
      <property name="mlt_service">brightness</property>
      <property name="shotcut:filter">brightnessOpacity</property>
      <property name="alpha">00:00:00.000=0;00:00:00.250=1;00:00:02.250=1;00:00:02.800=0</property>
      <property name="opacity">00:00:00.000=0;00:00:00.250=1;00:00:02.250=1;00:00:02.800=0</property>
    </filter>
  </producer>
<!-- Producers (template: topico - 58) -->
  <producer id="58_overlay_producer0" in="00:00:00.000" out="03:59:59.983">
    <property name="length">04:00:00.000</property>
    <property name="eof">pause</property>
    <property name="resource">10_a_topologia_dos_espacos_metricos/generated/58_topico_bg_texto.png</property>
    <property name="ttl">1</property>
    <property name="aspect_ratio">1</property>
    <property name="progressive">1</property>
    <property name="seekable">1</property>
    <property name="mlt_service">qimage</property>
    <property name="creation_time">2021-11-24T18:39:48</property>
    <property name="shotcut:caption">bg_texto.png</property>
    <property name="shotcut:hash">138a9c89bf6d293d42605871023f8ac2</property>
    <property name="ignore_points">0</property>
    <property name="xml">was here</property>
  </producer>
  <producer id="58_overlay_producer1" in="00:00:00.000" out="00:00:03.983">
    <property name="length">04:00:00.000</property>
    <property name="eof">pause</property>
    <property name="resource">10_a_topologia_dos_espacos_metricos/generated/58_topico_fg_texto.png</property>
    <property name="ttl">1</property>
    <property name="aspect_ratio">1</property>
    <property name="progressive">1</property>
    <property name="seekable">1</property>
    <property name="mlt_service">qimage</property>
    <property name="creation_time">2021-11-24T18:39:48</property>
    <property name="xml">was here</property>
    <property name="shotcut:hash">bcab0082764e60aeae518154d4e8e40c</property>
    <property name="shotcut:caption">fg_texto.png</property>
    <property name="ignore_points">1</property>
  </producer>
  <producer id="58_overlay_producer2" in="00:00:00.000" out="03:59:59.983">
    <property name="length">04:00:00.000</property>
    <property name="eof">pause</property>
    <property name="resource">#FF99C1F1</property>
    <property name="aspect_ratio">1</property>
    <property name="mlt_service">color</property>
    <property name="mlt_image_format">rgba</property>
    <property name="shotcut:caption">#FF99C1F1</property>
    <property name="shotcut:detail">#FF99C1F1</property>
    <property name="ignore_points">0</property>
    <property name="xml">was here</property>
    <property name="seekable">1</property>
  </producer>
  <producer id="58_overlay_producer3" in="00:00:00.000" out="03:59:59.983">
    <property name="length">04:00:00.000</property>
    <property name="eof">pause</property>
    <property name="resource">#FF99C1F1</property>
    <property name="aspect_ratio">1</property>
    <property name="mlt_service">color</property>
    <property name="mlt_image_format">rgba</property>
    <property name="shotcut:caption">#FF99C1F1</property>
    <property name="shotcut:detail">#FF99C1F1</property>
    <property name="ignore_points">0</property>
    <property name="xml">was here</property>
    <property name="seekable">1</property>
  </producer>
  <producer id="58_overlay_producer4" in="00:00:00.000" out="03:59:59.983">
    <property name="length">04:00:00.000</property>
    <property name="eof">pause</property>
    <property name="resource">10_a_topologia_dos_espacos_metricos/generated/58_topico_bg_texto.png</property>
    <property name="ttl">1</property>
    <property name="aspect_ratio">1</property>
    <property name="progressive">1</property>
    <property name="seekable">1</property>
    <property name="mlt_service">qimage</property>
    <property name="creation_time">2021-11-24T18:39:48</property>
    <property name="shotcut:caption">bg_texto.png</property>
    <property name="shotcut:hash">138a9c89bf6d293d42605871023f8ac2</property>
    <property name="ignore_points">0</property>
    <property name="xml">was here</property>
    <filter id="58_overlay_filter1" out="00:00:02.983">
      <property name="start">1</property>
      <property name="level">1</property>
      <property name="mlt_service">brightness</property>
      <property name="shotcut:filter">brightnessOpacity</property>
      <property name="alpha">00:00:00.000=0;00:00:00.250=1;00:00:02.250=1;00:00:02.800=0</property>
      <property name="opacity">00:00:00.000=0;00:00:00.250=1;00:00:02.250=1;00:00:02.800=0</property>
    </filter>
  </producer>
  <producer id="58_overlay_producer5" in="00:00:00.000" out="03:59:59.983">
    <property name="length">04:00:00.000</property>
    <property name="eof">pause</property>
    <property name="resource">10_a_topologia_dos_espacos_metricos/generated/58_topico_fg_texto.png</property>
    <property name="ttl">1</property>
    <property name="aspect_ratio">1</property>
    <property name="progressive">1</property>
    <property name="seekable">1</property>
    <property name="mlt_service">qimage</property>
    <property name="creation_time">2021-11-24T18:39:48</property>
    <property name="xml">was here</property>
    <property name="shotcut:hash">bcab0082764e60aeae518154d4e8e40c</property>
    <property name="shotcut:caption">fg_texto.png</property>
    <property name="ignore_points">1</property>
    <filter id="58_overlay_filter0" out="00:00:02.983">
      <property name="start">1</property>
      <property name="level">1</property>
      <property name="mlt_service">brightness</property>
      <property name="shotcut:filter">brightnessOpacity</property>
      <property name="alpha">00:00:00.000=0;00:00:00.250=1;00:00:02.250=1;00:00:02.800=0</property>
      <property name="opacity">00:00:00.000=0;00:00:00.250=1;00:00:02.250=1;00:00:02.800=0</property>
    </filter>
  </producer>
<!-- Producers (template: topico - 59) -->
  <producer id="59_overlay_producer0" in="00:00:00.000" out="03:59:59.983">
    <property name="length">04:00:00.000</property>
    <property name="eof">pause</property>
    <property name="resource">10_a_topologia_dos_espacos_metricos/generated/59_topico_bg_texto.png</property>
    <property name="ttl">1</property>
    <property name="aspect_ratio">1</property>
    <property name="progressive">1</property>
    <property name="seekable">1</property>
    <property name="mlt_service">qimage</property>
    <property name="creation_time">2021-11-24T18:39:48</property>
    <property name="shotcut:caption">bg_texto.png</property>
    <property name="shotcut:hash">8755942077c4807fc715eb7a324295cb</property>
    <property name="ignore_points">0</property>
    <property name="xml">was here</property>
  </producer>
  <producer id="59_overlay_producer1" in="00:00:00.000" out="00:00:03.983">
    <property name="length">04:00:00.000</property>
    <property name="eof">pause</property>
    <property name="resource">10_a_topologia_dos_espacos_metricos/generated/59_topico_fg_texto.png</property>
    <property name="ttl">1</property>
    <property name="aspect_ratio">1</property>
    <property name="progressive">1</property>
    <property name="seekable">1</property>
    <property name="mlt_service">qimage</property>
    <property name="creation_time">2021-11-24T18:39:48</property>
    <property name="xml">was here</property>
    <property name="shotcut:hash">3a154d44030ad2945230aebe91408c7b</property>
    <property name="shotcut:caption">fg_texto.png</property>
    <property name="ignore_points">1</property>
  </producer>
  <producer id="59_overlay_producer2" in="00:00:00.000" out="03:59:59.983">
    <property name="length">04:00:00.000</property>
    <property name="eof">pause</property>
    <property name="resource">#FF99C1F1</property>
    <property name="aspect_ratio">1</property>
    <property name="mlt_service">color</property>
    <property name="mlt_image_format">rgba</property>
    <property name="shotcut:caption">#FF99C1F1</property>
    <property name="shotcut:detail">#FF99C1F1</property>
    <property name="ignore_points">0</property>
    <property name="xml">was here</property>
    <property name="seekable">1</property>
  </producer>
  <producer id="59_overlay_producer3" in="00:00:00.000" out="03:59:59.983">
    <property name="length">04:00:00.000</property>
    <property name="eof">pause</property>
    <property name="resource">#FF99C1F1</property>
    <property name="aspect_ratio">1</property>
    <property name="mlt_service">color</property>
    <property name="mlt_image_format">rgba</property>
    <property name="shotcut:caption">#FF99C1F1</property>
    <property name="shotcut:detail">#FF99C1F1</property>
    <property name="ignore_points">0</property>
    <property name="xml">was here</property>
    <property name="seekable">1</property>
  </producer>
  <producer id="59_overlay_producer4" in="00:00:00.000" out="03:59:59.983">
    <property name="length">04:00:00.000</property>
    <property name="eof">pause</property>
    <property name="resource">10_a_topologia_dos_espacos_metricos/generated/59_topico_bg_texto.png</property>
    <property name="ttl">1</property>
    <property name="aspect_ratio">1</property>
    <property name="progressive">1</property>
    <property name="seekable">1</property>
    <property name="mlt_service">qimage</property>
    <property name="creation_time">2021-11-24T18:39:48</property>
    <property name="shotcut:caption">bg_texto.png</property>
    <property name="shotcut:hash">8755942077c4807fc715eb7a324295cb</property>
    <property name="ignore_points">0</property>
    <property name="xml">was here</property>
    <filter id="59_overlay_filter1" out="00:00:02.983">
      <property name="start">1</property>
      <property name="level">1</property>
      <property name="mlt_service">brightness</property>
      <property name="shotcut:filter">brightnessOpacity</property>
      <property name="alpha">00:00:00.000=0;00:00:00.250=1;00:00:02.250=1;00:00:02.800=0</property>
      <property name="opacity">00:00:00.000=0;00:00:00.250=1;00:00:02.250=1;00:00:02.800=0</property>
    </filter>
  </producer>
  <producer id="59_overlay_producer5" in="00:00:00.000" out="03:59:59.983">
    <property name="length">04:00:00.000</property>
    <property name="eof">pause</property>
    <property name="resource">10_a_topologia_dos_espacos_metricos/generated/59_topico_fg_texto.png</property>
    <property name="ttl">1</property>
    <property name="aspect_ratio">1</property>
    <property name="progressive">1</property>
    <property name="seekable">1</property>
    <property name="mlt_service">qimage</property>
    <property name="creation_time">2021-11-24T18:39:48</property>
    <property name="xml">was here</property>
    <property name="shotcut:hash">3a154d44030ad2945230aebe91408c7b</property>
    <property name="shotcut:caption">fg_texto.png</property>
    <property name="ignore_points">1</property>
    <filter id="59_overlay_filter0" out="00:00:02.983">
      <property name="start">1</property>
      <property name="level">1</property>
      <property name="mlt_service">brightness</property>
      <property name="shotcut:filter">brightnessOpacity</property>
      <property name="alpha">00:00:00.000=0;00:00:00.250=1;00:00:02.250=1;00:00:02.800=0</property>
      <property name="opacity">00:00:00.000=0;00:00:00.250=1;00:00:02.250=1;00:00:02.800=0</property>
    </filter>
  </producer>
<!-- ENTRY POINT child_producers -->

  <playlist id="overlay_track_overA_0">
    <property name="shotcut:video">1</property>
    <property name="shotcut:name">V2</property>
    <blank length='00:00:03.000'/>
    <entry producer="1_overlay_producer5" in="00:00:00.000" out="00:00:07.983"/>
    <blank length='00:00:01.017'/>
    <entry producer="2_overlay_producer5" in="00:00:00.033" out="00:00:11.017"/>
    <blank length='00:00:02.016'/>
    <entry producer="3_overlay_producer3" in="00:00:00.000" out="00:00:02.983"/>
    <blank length='00:00:10.517'/>
    <entry producer="4_overlay_producer3" in="00:00:00.000" out="00:00:02.983"/>
    <blank length='00:00:25.517'/>
    <entry producer="5_overlay_producer3" in="00:00:00.000" out="00:00:02.983"/>
    <blank length='00:00:53.517'/>
    <entry producer="6_overlay_producer3" in="00:00:00.000" out="00:00:02.983"/>
    <blank length='00:00:29.517'/>
    <entry producer="7_overlay_producer3" in="00:00:00.000" out="00:00:02.983"/>
    <blank length='00:00:40.017'/>
    <entry producer="9_overlay_producer3" in="00:00:00.000" out="00:00:02.983"/>
    <blank length='00:00:21.517'/>
    <entry producer="10_overlay_producer3" in="00:00:00.000" out="00:00:02.983"/>
    <blank length='00:01:41.517'/>
    <entry producer="11_overlay_producer3" in="00:00:00.000" out="00:00:02.983"/>
    <blank length='00:00:22.017'/>
    <entry producer="13_overlay_producer3" in="00:00:00.000" out="00:00:02.983"/>
    <blank length='00:00:04.017'/>
    <entry producer="15_overlay_producer3" in="00:00:00.000" out="00:00:02.983"/>
    <blank length='00:01:42.017'/>
    <entry producer="16_overlay_producer3" in="00:00:00.000" out="00:00:02.983"/>
    <blank length='00:00:00.017'/>
    <entry producer="17_overlay_producer3" in="00:00:00.000" out="00:00:02.983"/>
    <blank length='00:00:23.017'/>
    <entry producer="18_overlay_producer3" in="00:00:00.000" out="00:00:02.983"/>
    <blank length='00:00:30.017'/>
    <entry producer="19_overlay_producer3" in="00:00:00.000" out="00:00:02.983"/>
    <blank length='00:00:19.017'/>
    <entry producer="20_overlay_producer3" in="00:00:00.000" out="00:00:02.983"/>
    <blank length='00:00:55.017'/>
    <entry producer="21_overlay_producer3" in="00:00:00.000" out="00:00:02.983"/>
    <blank length='00:00:25.017'/>
    <entry producer="22_overlay_producer3" in="00:00:00.000" out="00:00:02.983"/>
    <blank length='00:01:26.017'/>
    <entry producer="23_overlay_producer3" in="00:00:00.000" out="00:00:02.983"/>
    <blank length='00:00:28.017'/>
    <entry producer="24_overlay_producer3" in="00:00:00.000" out="00:00:02.983"/>
    <blank length='00:01:02.017'/>
    <entry producer="25_overlay_producer3" in="00:00:00.000" out="00:00:02.983"/>
    <blank length='00:00:03.017'/>
    <entry producer="26_overlay_producer3" in="00:00:00.000" out="00:00:02.983"/>
    <blank length='00:00:01.017'/>
    <entry producer="27_overlay_producer3" in="00:00:00.000" out="00:00:02.983"/>
    <blank length='00:00:03.017'/>
    <entry producer="28_overlay_producer3" in="00:00:00.000" out="00:00:02.983"/>
    <blank length='00:00:59.017'/>
    <entry producer="29_overlay_producer5" in="00:00:00.033" out="00:00:11.017"/>
    <blank length='00:00:16.016'/>
    <entry producer="30_overlay_producer3" in="00:00:00.000" out="00:00:02.983"/>
    <blank length='00:01:36.517'/>
    <entry producer="31_overlay_producer3" in="00:00:00.000" out="00:00:02.983"/>
    <blank length='00:00:16.517'/>
    <entry producer="32_overlay_producer3" in="00:00:00.000" out="00:00:02.983"/>
    <blank length='00:00:21.017'/>
    <entry producer="33_overlay_producer3" in="00:00:00.000" out="00:00:02.983"/>
    <blank length='00:00:01.017'/>
    <entry producer="34_overlay_producer3" in="00:00:00.000" out="00:00:02.983"/>
    <blank length='00:00:28.017'/>
    <entry producer="35_overlay_producer3" in="00:00:00.000" out="00:00:02.983"/>
    <blank length='00:00:01.017'/>
    <entry producer="36_overlay_producer3" in="00:00:00.000" out="00:00:02.983"/>
    <blank length='00:00:08.017'/>
    <entry producer="37_overlay_producer3" in="00:00:00.000" out="00:00:02.983"/>
    <blank length='00:00:27.017'/>
    <entry producer="38_overlay_producer5" in="00:00:00.033" out="00:00:11.017"/>
    <blank length='00:01:13.016'/>
    <entry producer="40_overlay_producer3" in="00:00:00.000" out="00:00:02.983"/>
    <blank length='00:00:42.017'/>
    <entry producer="41_overlay_producer3" in="00:00:00.000" out="00:00:02.983"/>
    <blank length='00:02:32.017'/>
    <entry producer="42_overlay_producer3" in="00:00:00.000" out="00:00:02.983"/>
    <blank length='00:00:30.017'/>
    <entry producer="44_overlay_producer3" in="00:00:00.000" out="00:00:02.983"/>
    <blank length='00:00:09.017'/>
    <entry producer="45_overlay_producer3" in="00:00:00.000" out="00:00:02.983"/>
    <blank length='00:00:23.017'/>
    <entry producer="46_overlay_producer5" in="00:00:00.033" out="00:00:11.017"/>
    <blank length='00:02:35.016'/>
    <entry producer="47_overlay_producer3" in="00:00:00.000" out="00:00:02.983"/>
    <blank length='00:00:01.017'/>
    <entry producer="49_overlay_producer3" in="00:00:00.000" out="00:00:02.983"/>
    <blank length='00:02:02.017'/>
    <entry producer="50_overlay_producer3" in="00:00:00.000" out="00:00:02.983"/>
    <blank length='00:01:59.017'/>
    <entry producer="52_overlay_producer3" in="00:00:00.000" out="00:00:02.983"/>
    <blank length='00:01:57.017'/>
    <entry producer="53_overlay_producer3" in="00:00:00.000" out="00:00:02.983"/>
    <blank length='00:00:12.017'/>
    <entry producer="57_overlay_producer3" in="00:00:00.000" out="00:00:02.983"/>
    <blank length='00:00:45.017'/>
    <entry producer="58_overlay_producer3" in="00:00:00.000" out="00:00:02.983"/>
    <blank length='00:02:04.017'/>
    <entry producer="59_overlay_producer3" in="00:00:00.000" out="00:00:02.983"/>
<!-- ENTRY POINT blank_and_producer_overA_0 -->
  </playlist>
  <playlist id="overlay_track_overA_1">
    <property name="shotcut:video">1</property>
    <property name="shotcut:name">V2</property>
    <blank length='00:00:03.000'/>
    <entry producer="1_overlay_producer6" in="00:00:00.000" out="00:00:07.983"/>
    <blank length='00:00:01.017'/>
    <entry producer="2_overlay_producer6" in="00:00:00.000" out="00:00:10.983"/>
    <blank length='00:00:02.017'/>
    <entry producer="3_overlay_producer4" in="00:00:00.000" out="00:00:02.983"/>
    <blank length='00:00:10.517'/>
    <entry producer="4_overlay_producer4" in="00:00:00.000" out="00:00:02.983"/>
    <blank length='00:00:25.517'/>
    <entry producer="5_overlay_producer4" in="00:00:00.000" out="00:00:02.983"/>
    <blank length='00:00:53.517'/>
    <entry producer="6_overlay_producer4" in="00:00:00.000" out="00:00:02.983"/>
    <blank length='00:00:29.517'/>
    <entry producer="7_overlay_producer4" in="00:00:00.000" out="00:00:02.983"/>
    <blank length='00:00:40.017'/>
    <entry producer="9_overlay_producer4" in="00:00:00.000" out="00:00:02.983"/>
    <blank length='00:00:21.517'/>
    <entry producer="10_overlay_producer4" in="00:00:00.000" out="00:00:02.983"/>
    <blank length='00:01:41.517'/>
    <entry producer="11_overlay_producer4" in="00:00:00.000" out="00:00:02.983"/>
    <blank length='00:00:22.017'/>
    <entry producer="13_overlay_producer4" in="00:00:00.000" out="00:00:02.983"/>
    <blank length='00:00:04.017'/>
    <entry producer="15_overlay_producer4" in="00:00:00.000" out="00:00:02.983"/>
    <blank length='00:01:42.017'/>
    <entry producer="16_overlay_producer4" in="00:00:00.000" out="00:00:02.983"/>
    <blank length='00:00:00.017'/>
    <entry producer="17_overlay_producer4" in="00:00:00.000" out="00:00:02.983"/>
    <blank length='00:00:23.017'/>
    <entry producer="18_overlay_producer4" in="00:00:00.000" out="00:00:02.983"/>
    <blank length='00:00:30.017'/>
    <entry producer="19_overlay_producer4" in="00:00:00.000" out="00:00:02.983"/>
    <blank length='00:00:19.017'/>
    <entry producer="20_overlay_producer4" in="00:00:00.000" out="00:00:02.983"/>
    <blank length='00:00:55.017'/>
    <entry producer="21_overlay_producer4" in="00:00:00.000" out="00:00:02.983"/>
    <blank length='00:00:25.017'/>
    <entry producer="22_overlay_producer4" in="00:00:00.000" out="00:00:02.983"/>
    <blank length='00:01:26.017'/>
    <entry producer="23_overlay_producer4" in="00:00:00.000" out="00:00:02.983"/>
    <blank length='00:00:28.017'/>
    <entry producer="24_overlay_producer4" in="00:00:00.000" out="00:00:02.983"/>
    <blank length='00:01:02.017'/>
    <entry producer="25_overlay_producer4" in="00:00:00.000" out="00:00:02.983"/>
    <blank length='00:00:03.017'/>
    <entry producer="26_overlay_producer4" in="00:00:00.000" out="00:00:02.983"/>
    <blank length='00:00:01.017'/>
    <entry producer="27_overlay_producer4" in="00:00:00.000" out="00:00:02.983"/>
    <blank length='00:00:03.017'/>
    <entry producer="28_overlay_producer4" in="00:00:00.000" out="00:00:02.983"/>
    <blank length='00:00:59.017'/>
    <entry producer="29_overlay_producer6" in="00:00:00.000" out="00:00:10.983"/>
    <blank length='00:00:16.017'/>
    <entry producer="30_overlay_producer4" in="00:00:00.000" out="00:00:02.983"/>
    <blank length='00:01:36.517'/>
    <entry producer="31_overlay_producer4" in="00:00:00.000" out="00:00:02.983"/>
    <blank length='00:00:16.517'/>
    <entry producer="32_overlay_producer4" in="00:00:00.000" out="00:00:02.983"/>
    <blank length='00:00:21.017'/>
    <entry producer="33_overlay_producer4" in="00:00:00.000" out="00:00:02.983"/>
    <blank length='00:00:01.017'/>
    <entry producer="34_overlay_producer4" in="00:00:00.000" out="00:00:02.983"/>
    <blank length='00:00:28.017'/>
    <entry producer="35_overlay_producer4" in="00:00:00.000" out="00:00:02.983"/>
    <blank length='00:00:01.017'/>
    <entry producer="36_overlay_producer4" in="00:00:00.000" out="00:00:02.983"/>
    <blank length='00:00:08.017'/>
    <entry producer="37_overlay_producer4" in="00:00:00.000" out="00:00:02.983"/>
    <blank length='00:00:27.017'/>
    <entry producer="38_overlay_producer6" in="00:00:00.000" out="00:00:10.983"/>
    <blank length='00:01:13.017'/>
    <entry producer="40_overlay_producer4" in="00:00:00.000" out="00:00:02.983"/>
    <blank length='00:00:42.017'/>
    <entry producer="41_overlay_producer4" in="00:00:00.000" out="00:00:02.983"/>
    <blank length='00:02:32.017'/>
    <entry producer="42_overlay_producer4" in="00:00:00.000" out="00:00:02.983"/>
    <blank length='00:00:30.017'/>
    <entry producer="44_overlay_producer4" in="00:00:00.000" out="00:00:02.983"/>
    <blank length='00:00:09.017'/>
    <entry producer="45_overlay_producer4" in="00:00:00.000" out="00:00:02.983"/>
    <blank length='00:00:23.017'/>
    <entry producer="46_overlay_producer6" in="00:00:00.000" out="00:00:10.983"/>
    <blank length='00:02:35.017'/>
    <entry producer="47_overlay_producer4" in="00:00:00.000" out="00:00:02.983"/>
    <blank length='00:00:01.017'/>
    <entry producer="49_overlay_producer4" in="00:00:00.000" out="00:00:02.983"/>
    <blank length='00:02:02.017'/>
    <entry producer="50_overlay_producer4" in="00:00:00.000" out="00:00:02.983"/>
    <blank length='00:01:59.017'/>
    <entry producer="52_overlay_producer4" in="00:00:00.000" out="00:00:02.983"/>
    <blank length='00:01:57.017'/>
    <entry producer="53_overlay_producer4" in="00:00:00.000" out="00:00:02.983"/>
    <blank length='00:00:12.017'/>
    <entry producer="57_overlay_producer4" in="00:00:00.000" out="00:00:02.983"/>
    <blank length='00:00:45.017'/>
    <entry producer="58_overlay_producer4" in="00:00:00.000" out="00:00:02.983"/>
    <blank length='00:02:04.017'/>
    <entry producer="59_overlay_producer4" in="00:00:00.000" out="00:00:02.983"/>
<!-- ENTRY POINT blank_and_producer_overA_1 -->
  </playlist>
  <playlist id="overlay_track_overA_2">
    <property name="shotcut:video">1</property>
    <property name="shotcut:name">V2</property>
    <blank length='00:00:03.000'/>
    <entry producer="1_overlay_producer7" in="00:00:00.000" out="00:00:07.983"/>
    <blank length='00:00:01.017'/>
    <entry producer="2_overlay_producer7" in="00:00:00.000" out="00:00:10.983"/>
    <blank length='00:00:02.017'/>
    <entry producer="3_overlay_producer5" in="00:00:00.000" out="00:00:02.983"/>
    <blank length='00:00:10.517'/>
    <entry producer="4_overlay_producer5" in="00:00:00.000" out="00:00:02.983"/>
    <blank length='00:00:25.517'/>
    <entry producer="5_overlay_producer5" in="00:00:00.000" out="00:00:02.983"/>
    <blank length='00:00:53.517'/>
    <entry producer="6_overlay_producer5" in="00:00:00.000" out="00:00:02.983"/>
    <blank length='00:00:29.517'/>
    <entry producer="7_overlay_producer5" in="00:00:00.000" out="00:00:02.983"/>
    <blank length='00:00:40.017'/>
    <entry producer="9_overlay_producer5" in="00:00:00.000" out="00:00:02.983"/>
    <blank length='00:00:21.517'/>
    <entry producer="10_overlay_producer5" in="00:00:00.000" out="00:00:02.983"/>
    <blank length='00:01:41.517'/>
    <entry producer="11_overlay_producer5" in="00:00:00.000" out="00:00:02.983"/>
    <blank length='00:00:22.017'/>
    <entry producer="13_overlay_producer5" in="00:00:00.000" out="00:00:02.983"/>
    <blank length='00:00:04.017'/>
    <entry producer="15_overlay_producer5" in="00:00:00.000" out="00:00:02.983"/>
    <blank length='00:01:42.017'/>
    <entry producer="16_overlay_producer5" in="00:00:00.000" out="00:00:02.983"/>
    <blank length='00:00:00.017'/>
    <entry producer="17_overlay_producer5" in="00:00:00.000" out="00:00:02.983"/>
    <blank length='00:00:23.017'/>
    <entry producer="18_overlay_producer5" in="00:00:00.000" out="00:00:02.983"/>
    <blank length='00:00:30.017'/>
    <entry producer="19_overlay_producer5" in="00:00:00.000" out="00:00:02.983"/>
    <blank length='00:00:19.017'/>
    <entry producer="20_overlay_producer5" in="00:00:00.000" out="00:00:02.983"/>
    <blank length='00:00:55.017'/>
    <entry producer="21_overlay_producer5" in="00:00:00.000" out="00:00:02.983"/>
    <blank length='00:00:25.017'/>
    <entry producer="22_overlay_producer5" in="00:00:00.000" out="00:00:02.983"/>
    <blank length='00:01:26.017'/>
    <entry producer="23_overlay_producer5" in="00:00:00.000" out="00:00:02.983"/>
    <blank length='00:00:28.017'/>
    <entry producer="24_overlay_producer5" in="00:00:00.000" out="00:00:02.983"/>
    <blank length='00:01:02.017'/>
    <entry producer="25_overlay_producer5" in="00:00:00.000" out="00:00:02.983"/>
    <blank length='00:00:03.017'/>
    <entry producer="26_overlay_producer5" in="00:00:00.000" out="00:00:02.983"/>
    <blank length='00:00:01.017'/>
    <entry producer="27_overlay_producer5" in="00:00:00.000" out="00:00:02.983"/>
    <blank length='00:00:03.017'/>
    <entry producer="28_overlay_producer5" in="00:00:00.000" out="00:00:02.983"/>
    <blank length='00:00:59.017'/>
    <entry producer="29_overlay_producer7" in="00:00:00.000" out="00:00:10.983"/>
    <blank length='00:00:16.017'/>
    <entry producer="30_overlay_producer5" in="00:00:00.000" out="00:00:02.983"/>
    <blank length='00:01:36.517'/>
    <entry producer="31_overlay_producer5" in="00:00:00.000" out="00:00:02.983"/>
    <blank length='00:00:16.517'/>
    <entry producer="32_overlay_producer5" in="00:00:00.000" out="00:00:02.983"/>
    <blank length='00:00:21.017'/>
    <entry producer="33_overlay_producer5" in="00:00:00.000" out="00:00:02.983"/>
    <blank length='00:00:01.017'/>
    <entry producer="34_overlay_producer5" in="00:00:00.000" out="00:00:02.983"/>
    <blank length='00:00:28.017'/>
    <entry producer="35_overlay_producer5" in="00:00:00.000" out="00:00:02.983"/>
    <blank length='00:00:01.017'/>
    <entry producer="36_overlay_producer5" in="00:00:00.000" out="00:00:02.983"/>
    <blank length='00:00:08.017'/>
    <entry producer="37_overlay_producer5" in="00:00:00.000" out="00:00:02.983"/>
    <blank length='00:00:27.017'/>
    <entry producer="38_overlay_producer7" in="00:00:00.000" out="00:00:10.983"/>
    <blank length='00:01:13.017'/>
    <entry producer="40_overlay_producer5" in="00:00:00.000" out="00:00:02.983"/>
    <blank length='00:00:42.017'/>
    <entry producer="41_overlay_producer5" in="00:00:00.000" out="00:00:02.983"/>
    <blank length='00:02:32.017'/>
    <entry producer="42_overlay_producer5" in="00:00:00.000" out="00:00:02.983"/>
    <blank length='00:00:30.017'/>
    <entry producer="44_overlay_producer5" in="00:00:00.000" out="00:00:02.983"/>
    <blank length='00:00:09.017'/>
    <entry producer="45_overlay_producer5" in="00:00:00.000" out="00:00:02.983"/>
    <blank length='00:00:23.017'/>
    <entry producer="46_overlay_producer7" in="00:00:00.000" out="00:00:10.983"/>
    <blank length='00:02:35.017'/>
    <entry producer="47_overlay_producer5" in="00:00:00.000" out="00:00:02.983"/>
    <blank length='00:00:01.017'/>
    <entry producer="49_overlay_producer5" in="00:00:00.000" out="00:00:02.983"/>
    <blank length='00:02:02.017'/>
    <entry producer="50_overlay_producer5" in="00:00:00.000" out="00:00:02.983"/>
    <blank length='00:01:59.017'/>
    <entry producer="52_overlay_producer5" in="00:00:00.000" out="00:00:02.983"/>
    <blank length='00:01:57.017'/>
    <entry producer="53_overlay_producer5" in="00:00:00.000" out="00:00:02.983"/>
    <blank length='00:00:12.017'/>
    <entry producer="57_overlay_producer5" in="00:00:00.000" out="00:00:02.983"/>
    <blank length='00:00:45.017'/>
    <entry producer="58_overlay_producer5" in="00:00:00.000" out="00:00:02.983"/>
    <blank length='00:02:04.017'/>
    <entry producer="59_overlay_producer5" in="00:00:00.000" out="00:00:02.983"/>
<!-- ENTRY POINT blank_and_producer_overA_2 -->
  </playlist>
  <playlist id="overlay_track_overA_3">
    <property name="shotcut:video">1</property>
    <property name="shotcut:name">V2</property>
    <blank length='00:00:03.000'/>
    <entry producer="1_overlay_producer8" in="00:00:00.000" out="00:00:07.983"/>
    <blank length='00:00:01.017'/>
    <entry producer="2_overlay_producer8" in="00:00:00.000" out="00:00:10.983"/>
    <blank length='00:00:02.017'/>
    <blank length='00:00:13.500'/>
    <blank length='00:00:28.500'/>
    <blank length='00:00:56.500'/>
    <blank length='00:00:32.500'/>
    <blank length='00:00:43.000'/>
    <blank length='00:00:24.500'/>
    <blank length='00:01:44.500'/>
    <blank length='00:00:25.000'/>
    <blank length='00:00:07.000'/>
    <blank length='00:01:45.000'/>
    <blank length='00:00:03.000'/>
    <blank length='00:00:26.000'/>
    <blank length='00:00:33.000'/>
    <blank length='00:00:22.000'/>
    <blank length='00:00:58.000'/>
    <blank length='00:00:28.000'/>
    <blank length='00:01:29.000'/>
    <blank length='00:00:31.000'/>
    <blank length='00:01:05.000'/>
    <blank length='00:00:06.000'/>
    <blank length='00:00:04.000'/>
    <blank length='00:00:06.000'/>
    <blank length='00:01:02.000'/>
    <entry producer="29_overlay_producer8" in="00:00:00.000" out="00:00:10.983"/>
    <blank length='00:00:16.017'/>
    <blank length='00:01:39.500'/>
    <blank length='00:00:19.500'/>
    <blank length='00:00:24.000'/>
    <blank length='00:00:04.000'/>
    <blank length='00:00:31.000'/>
    <blank length='00:00:04.000'/>
    <blank length='00:00:11.000'/>
    <blank length='00:00:30.000'/>
    <entry producer="38_overlay_producer8" in="00:00:00.000" out="00:00:10.983"/>
    <blank length='00:01:13.017'/>
    <blank length='00:00:45.000'/>
    <blank length='00:02:35.000'/>
    <blank length='00:00:33.000'/>
    <blank length='00:00:12.000'/>
    <blank length='00:00:26.000'/>
    <entry producer="46_overlay_producer8" in="00:00:00.000" out="00:00:10.983"/>
    <blank length='00:02:35.017'/>
    <blank length='00:00:04.000'/>
    <blank length='00:02:05.000'/>
    <blank length='00:02:02.000'/>
    <blank length='00:02:00.000'/>
    <blank length='00:00:15.000'/>
    <blank length='00:00:48.000'/>
    <blank length='00:02:07.000'/>
<!-- ENTRY POINT blank_and_producer_overA_3 -->
  </playlist>
  <playlist id="overlay_track_overA_4">
    <property name="shotcut:video">1</property>
    <property name="shotcut:name">V2</property>
    <blank length='00:00:03.000'/>
    <entry producer="1_overlay_producer9" in="00:00:00.000" out="00:00:07.983"/>
    <blank length='00:00:01.017'/>
    <entry producer="2_overlay_producer9" in="00:00:00.000" out="00:00:10.983"/>
    <blank length='00:00:02.017'/>
    <blank length='00:00:13.500'/>
    <blank length='00:00:28.500'/>
    <blank length='00:00:56.500'/>
    <blank length='00:00:32.500'/>
    <blank length='00:00:43.000'/>
    <blank length='00:00:24.500'/>
    <blank length='00:01:44.500'/>
    <blank length='00:00:25.000'/>
    <blank length='00:00:07.000'/>
    <blank length='00:01:45.000'/>
    <blank length='00:00:03.000'/>
    <blank length='00:00:26.000'/>
    <blank length='00:00:33.000'/>
    <blank length='00:00:22.000'/>
    <blank length='00:00:58.000'/>
    <blank length='00:00:28.000'/>
    <blank length='00:01:29.000'/>
    <blank length='00:00:31.000'/>
    <blank length='00:01:05.000'/>
    <blank length='00:00:06.000'/>
    <blank length='00:00:04.000'/>
    <blank length='00:00:06.000'/>
    <blank length='00:01:02.000'/>
    <entry producer="29_overlay_producer9" in="00:00:00.000" out="00:00:10.983"/>
    <blank length='00:00:16.017'/>
    <blank length='00:01:39.500'/>
    <blank length='00:00:19.500'/>
    <blank length='00:00:24.000'/>
    <blank length='00:00:04.000'/>
    <blank length='00:00:31.000'/>
    <blank length='00:00:04.000'/>
    <blank length='00:00:11.000'/>
    <blank length='00:00:30.000'/>
    <entry producer="38_overlay_producer9" in="00:00:00.000" out="00:00:10.983"/>
    <blank length='00:01:13.017'/>
    <blank length='00:00:45.000'/>
    <blank length='00:02:35.000'/>
    <blank length='00:00:33.000'/>
    <blank length='00:00:12.000'/>
    <blank length='00:00:26.000'/>
    <entry producer="46_overlay_producer9" in="00:00:00.000" out="00:00:10.983"/>
    <blank length='00:02:35.017'/>
    <blank length='00:00:04.000'/>
    <blank length='00:02:05.000'/>
    <blank length='00:02:02.000'/>
    <blank length='00:02:00.000'/>
    <blank length='00:00:15.000'/>
    <blank length='00:00:48.000'/>
    <blank length='00:02:07.000'/>
<!-- ENTRY POINT blank_and_producer_overA_4 -->
  </playlist>
  <playlist id="overlay_track_overB_0">
    <property name="shotcut:video">1</property>
    <property name="shotcut:name">V2</property>
    <blank length='00:02:37.000'/>
    <entry producer="8_overlay_producer3" in="00:00:00.000" out="00:00:02.983"/>
    <blank length='00:02:43.017'/>
    <entry producer="12_overlay_producer3" in="00:00:00.000" out="00:00:02.983"/>
    <blank length='00:00:29.017'/>
    <entry producer="14_overlay_producer3" in="00:00:00.000" out="00:00:02.983"/>
    <blank length='00:13:16.017'/>
    <entry producer="39_overlay_producer3" in="00:00:00.000" out="00:00:02.983"/>
    <blank length='00:04:36.017'/>
    <entry producer="43_overlay_producer3" in="00:00:00.000" out="00:00:02.983"/>
    <blank length='00:03:55.017'/>
    <entry producer="48_overlay_producer3" in="00:00:00.000" out="00:00:02.983"/>
    <blank length='00:02:06.017'/>
    <entry producer="51_overlay_producer3" in="00:00:00.000" out="00:00:02.983"/>
    <blank length='00:00:48.017'/>
    <entry producer="54_overlay_producer3" in="00:00:00.000" out="00:00:02.983"/>
    <blank length='00:00:36.017'/>
    <entry producer="55_overlay_producer3" in="00:00:00.000" out="00:00:02.983"/>
    <blank length='00:00:42.017'/>
    <entry producer="56_overlay_producer3" in="00:00:00.000" out="00:00:02.983"/>
<!-- ENTRY POINT blank_and_producer_overB_0 -->
  </playlist>
  <playlist id="overlay_track_overB_1">
    <property name="shotcut:video">1</property>
    <property name="shotcut:name">V2</property>
    <blank length='00:02:37.000'/>
    <entry producer="8_overlay_producer4" in="00:00:00.000" out="00:00:02.983"/>
    <blank length='00:02:43.017'/>
    <entry producer="12_overlay_producer4" in="00:00:00.000" out="00:00:02.983"/>
    <blank length='00:00:29.017'/>
    <entry producer="14_overlay_producer4" in="00:00:00.000" out="00:00:02.983"/>
    <blank length='00:13:16.017'/>
    <entry producer="39_overlay_producer4" in="00:00:00.000" out="00:00:02.983"/>
    <blank length='00:04:36.017'/>
    <entry producer="43_overlay_producer4" in="00:00:00.000" out="00:00:02.983"/>
    <blank length='00:03:55.017'/>
    <entry producer="48_overlay_producer4" in="00:00:00.000" out="00:00:02.983"/>
    <blank length='00:02:06.017'/>
    <entry producer="51_overlay_producer4" in="00:00:00.000" out="00:00:02.983"/>
    <blank length='00:00:48.017'/>
    <entry producer="54_overlay_producer4" in="00:00:00.000" out="00:00:02.983"/>
    <blank length='00:00:36.017'/>
    <entry producer="55_overlay_producer4" in="00:00:00.000" out="00:00:02.983"/>
    <blank length='00:00:42.017'/>
    <entry producer="56_overlay_producer4" in="00:00:00.000" out="00:00:02.983"/>
<!-- ENTRY POINT blank_and_producer_overB_1 -->
  </playlist>
  <playlist id="overlay_track_overB_2">
    <property name="shotcut:video">1</property>
    <property name="shotcut:name">V2</property>
    <blank length='00:02:37.000'/>
    <entry producer="8_overlay_producer5" in="00:00:00.000" out="00:00:02.983"/>
    <blank length='00:02:43.017'/>
    <entry producer="12_overlay_producer5" in="00:00:00.000" out="00:00:02.983"/>
    <blank length='00:00:29.017'/>
    <entry producer="14_overlay_producer5" in="00:00:00.000" out="00:00:02.983"/>
    <blank length='00:13:16.017'/>
    <entry producer="39_overlay_producer5" in="00:00:00.000" out="00:00:02.983"/>
    <blank length='00:04:36.017'/>
    <entry producer="43_overlay_producer5" in="00:00:00.000" out="00:00:02.983"/>
    <blank length='00:03:55.017'/>
    <entry producer="48_overlay_producer5" in="00:00:00.000" out="00:00:02.983"/>
    <blank length='00:02:06.017'/>
    <entry producer="51_overlay_producer5" in="00:00:00.000" out="00:00:02.983"/>
    <blank length='00:00:48.017'/>
    <entry producer="54_overlay_producer5" in="00:00:00.000" out="00:00:02.983"/>
    <blank length='00:00:36.017'/>
    <entry producer="55_overlay_producer5" in="00:00:00.000" out="00:00:02.983"/>
    <blank length='00:00:42.017'/>
    <entry producer="56_overlay_producer5" in="00:00:00.000" out="00:00:02.983"/>
<!-- ENTRY POINT blank_and_producer_overB_2 -->
  </playlist>
<!-- FOREACH track -->
<!-- REMOVE LINE
  <playlist id="overlay_track_@track_id@">
    <property name="shotcut:video">1</property>
    <property name="shotcut:name">V2</property>
REMOVE LINE -->
<!-- ENTRY POINT blank_and_producer_@track_id@ -->
<!-- REMOVE LINE
  </playlist>
REMOVE LINE -->
<!-- END FOREACH track -->

  <tractor id="tractor1" title="Shotcut version 21.10.24" in="00:00:00.000" out="00:37:32.166">
    <property name="shotcut">1</property>
    <property name="shotcut:projectAudioChannels">2</property>
    <property name="shotcut:projectFolder">0</property>
    <track producer="background"/>
    <track producer="playlist0"/>
    <track producer="overlay_track_overA_0" hide="video"/>
    <track producer="overlay_track_overA_1"/>
    <track producer="overlay_track_overA_2"/>
    <track producer="overlay_track_overA_3"/>
    <track producer="overlay_track_overA_4"/>
    <track producer="overlay_track_overB_0" hide="video"/>
    <track producer="overlay_track_overB_1"/>
    <track producer="overlay_track_overB_2"/>
<!-- FOREACH track -->
<!-- REMOVE LINE
    <track producer="overlay_track_@track_id@"/>
REMOVE LINE -->
<!-- END FOREACH track -->
    <transition id="transition0">
      <property name="a_track">0</property>
      <property name="b_track">1</property>
      <property name="mlt_service">mix</property>
      <property name="always_active">1</property>
      <property name="sum">1</property>
    </transition>
    <transition id="transition1">
      <property name="a_track">0</property>
      <property name="b_track">1</property>
      <property name="version">0.9</property>
      <property name="mlt_service">frei0r.cairoblend</property>
      <property name="threads">0</property>
      <property name="disable">1</property>
    </transition>
    <transition id="audio_transition_overA_0">
      <property name="a_track">0</property>
      <property name="b_track">2</property>
      <property name="mlt_service">mix</property>
      <property name="always_active">1</property>
      <property name="sum">1</property>
    </transition>
    <transition id="video_transition_overA_0">
      <property name="a_track">1</property>
      <property name="b_track">2</property>
      <property name="version">0.9</property>
      <property name="mlt_service">frei0r.cairoblend</property>
      <property name="threads">0</property>
      <property name="disable">0</property>
    </transition>
    <transition id="audio_transition_overA_1">
      <property name="a_track">0</property>
      <property name="b_track">3</property>
      <property name="mlt_service">mix</property>
      <property name="always_active">1</property>
      <property name="sum">1</property>
    </transition>
    <transition id="video_transition_overA_1">
      <property name="a_track">1</property>
      <property name="b_track">3</property>
      <property name="version">0.9</property>
      <property name="mlt_service">frei0r.cairoblend</property>
      <property name="threads">0</property>
      <property name="disable">0</property>
    </transition>
    <transition id="audio_transition_overA_2">
      <property name="a_track">0</property>
      <property name="b_track">4</property>
      <property name="mlt_service">mix</property>
      <property name="always_active">1</property>
      <property name="sum">1</property>
    </transition>
    <transition id="video_transition_overA_2">
      <property name="a_track">1</property>
      <property name="b_track">4</property>
      <property name="version">0.9</property>
      <property name="mlt_service">frei0r.cairoblend</property>
      <property name="threads">0</property>
      <property name="disable">0</property>
    </transition>
    <transition id="audio_transition_overA_3">
      <property name="a_track">0</property>
      <property name="b_track">5</property>
      <property name="mlt_service">mix</property>
      <property name="always_active">1</property>
      <property name="sum">1</property>
    </transition>
    <transition id="video_transition_overA_3">
      <property name="a_track">1</property>
      <property name="b_track">5</property>
      <property name="version">0.9</property>
      <property name="mlt_service">frei0r.cairoblend</property>
      <property name="threads">0</property>
      <property name="disable">0</property>
    </transition>
    <transition id="audio_transition_overA_4">
      <property name="a_track">0</property>
      <property name="b_track">6</property>
      <property name="mlt_service">mix</property>
      <property name="always_active">1</property>
      <property name="sum">1</property>
    </transition>
    <transition id="video_transition_overA_4">
      <property name="a_track">1</property>
      <property name="b_track">6</property>
      <property name="version">0.9</property>
      <property name="mlt_service">frei0r.cairoblend</property>
      <property name="threads">0</property>
      <property name="disable">0</property>
    </transition>
    <transition id="audio_transition_overB_0">
      <property name="a_track">0</property>
      <property name="b_track">7</property>
      <property name="mlt_service">mix</property>
      <property name="always_active">1</property>
      <property name="sum">1</property>
    </transition>
    <transition id="video_transition_overB_0">
      <property name="a_track">1</property>
      <property name="b_track">7</property>
      <property name="version">0.9</property>
      <property name="mlt_service">frei0r.cairoblend</property>
      <property name="threads">0</property>
      <property name="disable">0</property>
    </transition>
    <transition id="audio_transition_overB_1">
      <property name="a_track">0</property>
      <property name="b_track">8</property>
      <property name="mlt_service">mix</property>
      <property name="always_active">1</property>
      <property name="sum">1</property>
    </transition>
    <transition id="video_transition_overB_1">
      <property name="a_track">1</property>
      <property name="b_track">8</property>
      <property name="version">0.9</property>
      <property name="mlt_service">frei0r.cairoblend</property>
      <property name="threads">0</property>
      <property name="disable">0</property>
    </transition>
    <transition id="audio_transition_overB_2">
      <property name="a_track">0</property>
      <property name="b_track">9</property>
      <property name="mlt_service">mix</property>
      <property name="always_active">1</property>
      <property name="sum">1</property>
    </transition>
    <transition id="video_transition_overB_2">
      <property name="a_track">1</property>
      <property name="b_track">9</property>
      <property name="version">0.9</property>
      <property name="mlt_service">frei0r.cairoblend</property>
      <property name="threads">0</property>
      <property name="disable">0</property>
    </transition>
<!-- FOREACH track -->
<!-- REMOVE LINE
    <transition id="audio_transition_@track_id@">
      <property name="a_track">0</property>
      <property name="b_track">@track_number@</property>
      <property name="mlt_service">mix</property>
      <property name="always_active">1</property>
      <property name="sum">1</property>
    </transition>
    <transition id="video_transition_@track_id@">
      <property name="a_track">1</property>
      <property name="b_track">@track_number@</property>
      <property name="version">0.9</property>
      <property name="mlt_service">frei0r.cairoblend</property>
      <property name="threads">0</property>
      <property name="disable">0</property>
    </transition>
REMOVE LINE -->
<!-- END FOREACH track -->
  </tractor>
</mlt>
