<?xml version="1.0" encoding="UTF-8"?>
<!DOCTYPE svg PUBLIC "-//W3C//DTD SVG 1.1//EN" "http://www.w3.org/Graphics/SVG/1.1/DTD/svg11.dtd">
<svg version="1.1" xmlns="http://www.w3.org/2000/svg" xmlns:xlink="http://www.w3.org/1999/xlink" x="0" y="0" width="576" height="160" viewBox="0, 0, 576, 160">
  <defs>
    <linearGradient id="Gradient_1" gradientUnits="userSpaceOnUse" x1="5.03" y1="79.949" x2="570.495" y2="79.949">
      <stop offset="0" stop-color="#FFFFFE"/>
      <stop offset="1" stop-color="#1B1A19"/>
    </linearGradient>
  </defs>
  <g id="Layer_1">
    <path d="M403.405,6.436 C417.261,6.495 430.888,9.746 442.64,17.178 C446.889,20.01 449.191,22.021 450.105,23.699 C450.75,24.879 450.864,26.038 449.451,28.158 C446.558,32.497 440.312,56.294 447.947,70.04 L448.074,70.267 C452.476,78.191 455.953,84.45 454.372,88.138 C453.555,90.045 451.275,91.458 447.404,92.462 C445.434,92.974 439.696,92.416 433.051,91.768 C419.054,90.407 399.883,88.542 388.112,93.224 L388.111,93.225 L385.271,94.691 C384.354,95.256 383.444,95.833 382.565,96.451 C380.866,97.783 379.218,99.359 378.337,101.464 C377.424,103.574 377.785,106.048 378.906,107.854 C379.502,108.74 380.152,109.579 380.962,110.248 C381.75,110.924 382.609,111.546 383.588,111.886 C383.344,111.756 383.111,111.613 382.885,111.461 C379.265,106.917 385.71,90.284 448.149,97.668 C450.471,98.075 452.532,98.359 454.179,98.433 C454.194,98.435 454.209,98.436 454.225,98.439 C454.232,98.438 454.238,98.436 454.245,98.435 C454.43,98.443 454.622,98.453 454.797,98.454 C459.08,98.508 470.067,95.211 467.951,86.402 L471.071,86.095 C473.341,85.847 475.594,85.562 477.843,85.261 C482.338,84.657 486.811,83.98 491.273,83.27 C486.761,83.019 482.253,82.735 477.764,82.378 C475.521,82.197 473.281,82 471.057,81.769 L467.741,81.386 L467.715,81.382 C468.479,81.336 469.243,81.286 470.015,81.233 C472.946,81.026 475.861,80.745 478.768,80.43 C484.578,79.796 490.35,79.001 496.094,78.086 C490.277,78.042 484.472,77.876 478.692,77.546 C475.805,77.38 472.923,77.18 470.06,76.906 C468.696,76.777 467.309,76.632 465.942,76.468 C466.949,76.434 467.956,76.393 468.969,76.347 C472.556,76.175 476.129,75.919 479.691,75.607 C486.813,74.95 493.892,74.048 500.914,72.904 C493.801,73.091 486.697,73.03 479.627,72.722 C476.091,72.554 472.563,72.329 469.053,72.022 C467.452,71.878 465.838,71.72 464.235,71.542 C465.465,71.519 466.696,71.491 467.93,71.452 C472.169,71.316 476.398,71.099 480.615,70.768 C489.047,70.132 497.435,69.111 505.734,67.718 C497.328,68.154 488.93,68.21 480.561,67.885 C476.377,67.734 472.2,67.469 468.04,67.128 C466.205,66.974 464.361,66.801 462.524,66.609 C463.981,66.599 465.437,66.584 466.896,66.555 C471.787,66.464 476.669,66.251 481.541,65.93 C486.412,65.621 491.271,65.186 496.109,64.62 C500.952,64.093 505.766,63.336 510.554,62.534 C505.705,62.86 500.863,63.135 496.015,63.181 C491.17,63.266 486.328,63.219 481.494,63.046 C476.661,62.885 471.836,62.617 467.024,62.231 C464.955,62.066 462.877,61.878 460.808,61.671 C462.491,61.676 464.177,61.672 465.865,61.655 C471.407,61.594 476.942,61.403 482.467,61.092 C487.99,60.797 493.505,60.319 498.995,59.721 C504.488,59.138 509.949,58.296 515.375,57.35 C509.883,57.819 504.395,58.181 498.898,58.282 C493.403,58.398 487.913,58.394 482.429,58.207 C476.944,58.036 471.469,57.748 466.006,57.331 C463.427,57.132 460.838,56.905 458.259,56.652 C458.289,56.608 458.326,56.566 458.358,56.523 C496.53,57.946 554.015,49.666 570.169,42.83 C570.345,42.987 570.354,43.116 570.357,43.192 C570.571,46.624 557.58,58 520.488,79.636 L518.109,81.025 L520.605,82.189 C540.257,91.361 554.82,115.094 555.433,123.724 C540.991,114.534 488.998,101.427 447.311,111.934 C413.304,120.503 393.571,121.805 383.338,116.155 C374.883,111.488 373.42,106.284 374.273,101.373 C377.898,92.041 386.855,89.186 400.083,87.367 C411.992,85.732 432.818,89.176 441.832,90.078 C446.646,90.56 449.254,90.165 450.466,88.925 C452.612,87.747 452.984,86.036 453.021,85.159 C453.174,81.555 448.819,77.542 443.707,76.576 C394.357,67.242 318.935,105.091 304.316,112.771 C241.393,145.831 172.55,158.463 142.335,151.583 C132.95,149.444 128.246,143.967 126.974,139.554 C126.373,137.467 126.617,135.813 127.171,135.26 C129.794,132.637 132.866,112.703 130.136,99.396 C128.591,91.877 125.491,87.136 120.918,85.308 C118.326,84.271 116.919,80.217 117.715,76.08 C118.178,73.683 120.61,65.855 132.521,65.855 C133.338,65.855 136.161,66.287 139.734,66.836 C154.805,69.152 182.858,73.46 193.193,67.716 L193.194,67.716 C195.078,66.456 196.268,64.761 197.17,62.992 C198.054,61.212 198.598,59.292 198.733,57.341 C198.868,55.395 198.554,53.395 197.667,51.681 C196.792,49.956 195.361,48.617 193.756,47.706 C195.237,48.823 196.417,50.291 197.006,51.969 C197.608,53.642 197.646,55.449 197.302,57.155 C196.958,58.863 196.25,60.493 195.297,61.912 C194.351,63.32 193.104,64.563 191.793,65.195 L191.793,65.196 C182.318,70.457 153.854,66.088 140.17,63.985 C135.826,63.318 133.514,62.969 132.521,62.969 C131.562,62.969 130.661,63.033 129.787,63.124 C126.873,62.784 118.355,62.641 110.043,70.669 C108.945,71.729 108.154,72.848 107.602,73.982 L105.945,74.193 L99.515,75.12 C95.242,75.77 90.984,76.46 86.731,77.168 C91.036,77.421 95.337,77.691 99.627,78.003 L106.044,78.519 L106.554,78.569 C106.554,78.725 106.557,78.882 106.563,79.036 C103.855,79.279 101.162,79.566 98.477,79.893 C92.843,80.573 87.246,81.395 81.672,82.31 C87.32,82.353 92.962,82.493 98.579,82.776 C101.387,82.915 104.188,83.091 106.974,83.325 C107.179,83.343 107.387,83.363 107.593,83.38 C107.665,83.542 107.738,83.698 107.813,83.855 C104.343,84.056 100.887,84.337 97.442,84.667 C90.451,85.368 83.506,86.298 76.611,87.45 C83.599,87.255 90.578,87.288 97.527,87.552 C101.002,87.697 104.468,87.892 107.92,88.171 C109.464,88.298 111.024,88.439 112.572,88.6 C111.37,88.629 110.168,88.664 108.961,88.708 C104.764,88.871 100.58,89.109 96.406,89.459 C88.061,90.138 79.764,91.188 71.552,92.59 C79.872,92.143 88.189,92.059 96.476,92.343 C100.618,92.473 104.753,92.718 108.875,93.035 C110.655,93.175 112.445,93.333 114.227,93.511 C112.802,93.526 111.377,93.547 109.949,93.579 C105.079,93.69 100.219,93.919 95.369,94.256 C90.521,94.582 85.684,95.031 80.868,95.612 C76.048,96.155 71.258,96.92 66.492,97.732 C71.32,97.397 76.14,97.112 80.967,97.051 C85.791,96.951 90.612,96.985 95.425,97.14 C100.239,97.284 105.044,97.536 109.835,97.905 C111.85,98.059 113.873,98.235 115.889,98.429 C114.238,98.429 112.587,98.436 110.932,98.455 C105.389,98.53 99.855,98.734 94.331,99.057 C88.808,99.364 83.295,99.854 77.806,100.464 C72.314,101.059 66.855,101.914 61.432,102.871 C66.923,102.391 72.41,102.017 77.906,101.903 C83.4,101.775 88.891,101.767 94.376,101.941 C99.86,102.099 105.337,102.375 110.8,102.78 C111.569,102.838 112.34,102.903 113.109,102.966 C75.028,102.19 20.716,110.152 5.086,116.765 C4.91,116.61 4.902,116.482 4.897,116.405 C4.685,112.973 17.675,101.597 54.768,79.96 L57.146,78.572 L54.65,77.407 C34.999,68.236 20.435,44.503 19.823,35.874 C34.265,45.061 86.259,58.17 127.945,47.663 C161.949,39.093 181.679,37.789 191.917,43.441 C203.061,49.593 202.062,56.677 199.614,62.796 C199.198,63.837 198.3,64.842 197.35,65.903 C196.464,66.894 195.482,67.994 194.76,69.302 C180.747,74.734 165.028,72.688 152.032,70.642 C144.704,69.489 138.242,68.334 133.44,68.521 C128.126,68.465 120.681,71.024 119.711,75.195 C118.875,78.792 122.604,81.818 130.799,84.186 C161.723,93.127 238.501,63.731 282.555,41.787 C318.569,24.027 356.856,8.837 397.315,6.436 L403.405,6.436 z M185.523,84.193 C177.956,87.158 170.086,88.856 162.179,89.864 C158.221,90.336 154.25,90.616 150.286,90.732 C149.431,90.75 148.576,90.761 147.722,90.761 C144.613,90.761 141.51,90.638 138.42,90.434 L134.022,90.143 L136.07,94.213 C136.773,95.608 137.306,97.355 137.668,99.154 C138.048,100.954 138.272,102.827 138.466,104.708 C138.846,108.478 138.886,112.322 138.671,116.132 C138.435,119.94 137.983,123.736 137.163,127.379 C136.338,130.977 135.062,134.574 133.083,137.01 L131.523,138.925 L133.093,140.616 C134.371,141.994 135.742,142.847 137.097,143.579 C138.457,144.302 139.826,144.833 141.197,145.317 C143.939,146.249 146.696,146.888 149.457,147.354 C154.988,148.216 160.521,148.482 166.019,148.334 C171.514,148.126 176.975,147.591 182.344,146.592 C187.721,145.652 193,144.255 198.14,142.532 C192.781,143.368 187.42,143.975 182.068,144.343 C176.712,144.671 171.363,144.787 166.052,144.507 C160.747,144.255 155.461,143.687 150.367,142.558 C149.889,142.459 149.415,142.349 148.941,142.237 C151.436,142.424 153.919,142.493 156.391,142.482 C159.771,142.441 163.13,142.232 166.465,141.903 C169.798,141.562 173.114,141.118 176.389,140.489 C169.733,140.757 163.079,140.447 156.565,139.603 C153.314,139.146 150.102,138.548 146.985,137.733 C146.233,137.525 145.488,137.302 144.75,137.068 C145.437,137.153 146.123,137.237 146.809,137.302 C150.234,137.578 153.635,137.625 157.011,137.527 C163.759,137.255 170.421,136.455 176.95,135.107 C170.305,135.502 163.649,135.329 157.117,134.645 C153.855,134.269 150.628,133.748 147.484,133.028 C146.738,132.846 145.997,132.65 145.263,132.442 C145.985,132.511 146.708,132.572 147.428,132.621 C150.857,132.792 154.255,132.758 157.627,132.575 C164.364,132.14 171.008,131.202 177.51,129.726 C170.872,130.251 164.214,130.216 157.663,129.691 C154.39,129.394 151.149,128.952 147.979,128.329 C147.246,128.173 146.518,128.004 145.795,127.824 C146.545,127.873 147.295,127.914 148.043,127.943 C151.473,128.009 154.87,127.894 158.238,127.626 C164.966,127.029 171.594,125.95 178.072,124.345 C171.438,125.002 164.775,125.11 158.204,124.741 C154.918,124.528 151.663,124.163 148.467,123.637 C147.755,123.506 147.048,123.362 146.345,123.212 C147.115,123.238 147.885,123.258 148.651,123.262 C152.084,123.231 155.48,123.033 158.843,122.679 C165.564,121.923 172.178,120.7 178.632,118.963 C172.002,119.756 165.333,120.007 158.74,119.797 C155.445,119.669 152.172,119.381 148.952,118.945 C148.27,118.843 147.591,118.726 146.915,118.605 C151.149,118.612 155.325,118.268 159.445,117.736 C166.159,116.821 172.759,115.452 179.193,113.582 C172.565,114.513 165.888,114.912 159.272,114.857 C155.965,114.815 152.677,114.608 149.433,114.261 C148.787,114.185 148.145,114.093 147.504,113.999 C151.745,113.881 155.922,113.433 160.043,112.797 C166.751,111.725 173.34,110.209 179.753,108.199 C173.127,109.273 166.439,109.821 159.801,109.923 C155.881,109.966 151.965,109.815 148.132,109.393 C152.365,109.151 156.531,108.6 160.637,107.864 C167.341,106.632 173.919,104.968 180.315,102.819 C173.686,104.036 166.988,104.737 160.326,104.996 C156.451,105.135 152.576,105.085 148.767,104.786 C152.988,104.423 157.139,103.77 161.229,102.937 C167.929,101.544 174.499,99.731 180.875,97.437 C174.246,98.804 167.535,99.657 160.85,100.076 C157.024,100.306 153.195,100.358 149.419,100.178 C153.622,99.695 157.751,98.945 161.816,98.014 C168.516,96.461 175.077,94.496 181.436,92.055 C174.805,93.574 168.081,94.583 161.371,95.163 C156.243,95.597 151.103,95.724 146.07,95.408 C147.565,95.329 149.06,95.228 150.548,95.085 C154.66,94.715 158.741,94.071 162.754,93.152 C166.774,92.274 170.719,91.077 174.555,89.627 C178.378,88.152 182.1,86.392 185.523,84.193 z M406.01,11.457 L402.25,11.739 C397.249,12.177 392.335,13.198 387.553,14.536 C392.504,14.095 397.436,13.872 402.328,14.003 C407.218,14.158 412.073,14.606 416.796,15.579 C420.791,16.374 424.709,17.486 428.408,19.013 C426.821,18.824 425.235,18.675 423.651,18.562 C420.276,18.348 416.913,18.301 413.562,18.376 C410.212,18.462 406.872,18.653 403.56,19.032 C410.216,19.272 416.828,20.085 423.259,21.42 C426.466,22.122 429.624,22.961 432.67,24.011 C433.403,24.276 434.13,24.554 434.847,24.843 C434.169,24.706 433.491,24.572 432.813,24.454 C429.419,23.918 426.03,23.613 422.657,23.455 C415.908,23.214 409.204,23.507 402.593,24.356 C409.248,24.467 415.871,25.144 422.333,26.322 C425.557,26.945 428.734,27.709 431.815,28.664 C432.545,28.903 433.27,29.155 433.985,29.417 C433.27,29.294 432.555,29.176 431.84,29.074 C428.434,28.644 425.043,28.42 421.667,28.346 C414.916,28.269 408.22,28.701 401.625,29.679 C408.282,29.659 414.92,30.2 421.412,31.219 C424.654,31.764 427.852,32.45 430.966,33.312 C431.685,33.523 432.396,33.748 433.104,33.981 C432.36,33.876 431.614,33.778 430.872,33.694 C427.456,33.367 424.062,33.223 420.683,33.236 C413.929,33.32 407.238,33.893 400.657,35.003 C407.321,34.85 413.974,35.248 420.499,36.114 C423.757,36.575 426.976,37.187 430.122,37.955 C430.823,38.138 431.517,38.335 432.207,38.538 C431.44,38.453 430.675,38.376 429.91,38.314 C426.486,38.084 423.085,38.024 419.702,38.123 C412.944,38.366 406.258,39.084 399.69,40.326 C406.36,40.039 413.03,40.294 419.589,41.004 C422.865,41.382 426.104,41.915 429.282,42.595 C429.956,42.749 430.623,42.917 431.289,43.09 C427.066,42.761 422.878,42.787 418.729,43.005 C411.965,43.407 405.28,44.271 398.723,45.65 C405.402,45.224 412.09,45.333 418.684,45.89 C421.978,46.182 425.241,46.638 428.448,47.229 C429.087,47.355 429.721,47.496 430.354,47.638 C426.114,47.433 421.915,47.564 417.758,47.884 C410.987,48.445 404.303,49.457 397.755,50.972 C404.444,50.406 411.155,50.367 417.782,50.767 C421.692,51.024 425.587,51.471 429.376,52.182 C425.137,52.103 420.941,52.336 416.791,52.758 C410.014,53.478 403.327,54.639 396.788,56.297 C403.488,55.586 410.222,55.395 416.884,55.64 C420.758,55.798 424.619,56.14 428.395,56.727 C424.157,56.77 419.97,57.106 415.828,57.627 C409.04,58.507 402.353,59.817 395.819,61.62 C402.535,60.761 409.291,60.419 415.988,60.507 C419.821,60.568 423.643,60.809 427.395,61.275 C423.166,61.437 418.993,61.871 414.868,62.49 C408.07,63.531 401.379,64.993 394.854,66.945 C401.581,65.932 408.363,65.436 415.097,65.365 C421.462,65.313 427.813,65.732 433.898,66.859 C431.733,66.623 429.561,66.49 427.395,66.458 C423.35,66.376 419.317,66.661 415.351,67.274 C411.379,67.849 407.478,68.794 403.683,70.009 C399.897,71.251 396.211,72.79 392.781,74.749 C396.532,73.519 400.33,72.582 404.159,71.905 C407.981,71.204 411.841,70.806 415.684,70.597 C419.531,70.427 423.372,70.497 427.171,70.816 C430.969,71.156 434.718,71.796 438.385,72.679 L443.312,73.866 L441.226,69.085 C439.953,66.171 439.462,62.389 439.196,58.776 C438.914,55.114 438.97,51.389 439.276,47.711 C439.606,44.035 440.162,40.38 441.09,36.902 C442.024,33.463 443.426,30.085 445.474,27.845 L447.138,26.028 L445.664,24.243 C443.766,21.94 441.584,20.346 439.337,18.907 C437.072,17.515 434.724,16.345 432.31,15.389 C427.462,13.528 422.432,12.379 417.38,11.797 C411.067,11.289 414.853,11.497 406.01,11.457 z" fill="url(#Gradient_1)"/>
    <path d="M439.276,47.71 C438.97,51.389 438.914,55.114 439.196,58.776 C439.462,62.388 439.953,66.17 441.226,69.085 L443.312,73.866 L438.385,72.68 C434.718,71.796 430.969,71.155 427.171,70.814 C423.372,70.496 419.531,70.427 415.684,70.595 C411.841,70.806 407.982,71.204 404.159,71.904 C400.33,72.583 396.533,73.519 392.781,74.748 C396.211,72.79 399.897,71.249 403.683,70.009 C407.478,68.794 411.379,67.849 415.35,67.274 C419.317,66.661 423.35,66.376 427.395,66.458 C429.561,66.49 431.733,66.624 433.898,66.859 C427.813,65.732 421.462,65.314 415.097,65.366 C408.362,65.436 401.581,65.932 394.854,66.944 C401.379,64.993 408.07,63.531 414.868,62.49 C418.993,61.871 423.167,61.436 427.395,61.274 C423.643,60.808 419.821,60.568 415.988,60.507 C409.291,60.419 402.535,60.761 395.82,61.62 C402.353,59.817 409.04,58.507 415.828,57.627 C419.97,57.106 424.157,56.77 428.395,56.727 C424.619,56.141 420.758,55.798 416.884,55.641 C410.222,55.395 403.488,55.586 396.788,56.297 C403.326,54.638 410.013,53.478 416.791,52.758 C420.941,52.336 425.137,52.103 429.376,52.183 C425.587,51.471 421.692,51.024 417.781,50.768 C411.155,50.366 404.444,50.407 397.755,50.973 C404.303,49.456 410.987,48.445 417.758,47.884 C421.915,47.564 426.114,47.433 430.353,47.637 C429.721,47.495 429.087,47.355 428.447,47.229 C425.24,46.637 421.978,46.182 418.683,45.889 C412.091,45.332 405.402,45.224 398.723,45.65 C405.28,44.271 411.965,43.407 418.729,43.005 C422.878,42.787 427.066,42.761 431.289,43.089 C430.623,42.917 429.956,42.749 429.282,42.595 C426.105,41.916 422.865,41.382 419.588,41.004 C413.03,40.293 406.36,40.039 399.69,40.327 C406.258,39.084 412.945,38.366 419.702,38.122 C423.085,38.023 426.485,38.085 429.91,38.314 C430.675,38.377 431.44,38.453 432.207,38.538 C431.517,38.336 430.823,38.138 430.122,37.954 C426.976,37.186 423.757,36.575 420.498,36.114 C413.973,35.249 407.321,34.851 400.657,35.003 C407.238,33.893 413.929,33.32 420.683,33.236 C424.062,33.223 427.456,33.367 430.872,33.693 C431.615,33.777 432.36,33.876 433.104,33.982 C432.398,33.748 431.685,33.523 430.966,33.312 C427.852,32.45 424.654,31.764 421.412,31.22 C414.92,30.199 408.283,29.66 401.624,29.679 C408.22,28.7 414.916,28.27 421.668,28.347 C425.043,28.42 428.434,28.644 431.84,29.074 C432.555,29.176 433.27,29.294 433.985,29.417 C433.27,29.154 432.545,28.903 431.815,28.664 C428.734,27.708 425.557,26.945 422.333,26.322 C415.872,25.144 409.248,24.466 402.593,24.356 C409.203,23.507 415.907,23.213 422.657,23.456 C426.03,23.613 429.418,23.918 432.813,24.454 C433.49,24.571 434.169,24.706 434.847,24.843 C434.13,24.553 433.403,24.276 432.67,24.011 C429.624,22.961 426.466,22.122 423.259,21.42 C416.828,20.085 410.216,19.271 403.56,19.032 C406.872,18.654 410.212,18.463 413.562,18.376 C416.912,18.3 420.276,18.347 423.651,18.562 C425.235,18.675 426.821,18.824 428.409,19.013 C424.708,17.486 420.791,16.373 416.796,15.58 C412.073,14.606 407.218,14.158 402.329,14.002 C397.436,13.872 392.504,14.094 387.554,14.536 C392.334,13.199 397.249,12.176 402.25,11.738 C407.246,11.226 412.321,11.265 417.38,11.797 C422.432,12.379 427.462,13.528 432.31,15.389 C434.724,16.345 437.073,17.515 439.337,18.907 C441.584,20.346 443.766,21.94 445.664,24.243 L447.137,26.028 L445.475,27.845 C443.425,30.085 442.023,33.462 441.09,36.901 C440.162,40.38 439.607,44.035 439.276,47.71 M182.068,144.343 C187.421,143.975 192.78,143.368 198.14,142.532 C192.999,144.254 187.721,145.652 182.344,146.591 C176.975,147.591 171.514,148.126 166.018,148.334 C160.521,148.482 154.988,148.216 149.456,147.355 C146.696,146.888 143.94,146.249 141.197,145.317 C139.826,144.833 138.457,144.302 137.098,143.58 C135.743,142.846 134.371,141.994 133.092,140.617 L131.523,138.925 L133.082,137.01 C135.062,134.575 136.338,130.977 137.163,127.379 C137.982,123.736 138.436,119.94 138.671,116.132 C138.885,112.322 138.846,108.477 138.467,104.708 C138.272,102.827 138.048,100.954 137.669,99.152 C137.306,97.356 136.773,95.608 136.07,94.213 L134.023,90.143 L138.419,90.434 C142.359,90.694 146.319,90.822 150.286,90.732 C154.25,90.616 158.221,90.336 162.179,89.864 C170.086,88.856 177.956,87.158 185.523,84.193 C182.1,86.392 178.378,88.152 174.555,89.628 C170.72,91.077 166.774,92.274 162.755,93.154 C158.742,94.071 154.66,94.715 150.547,95.085 C149.06,95.228 147.565,95.329 146.07,95.408 C151.104,95.724 156.244,95.597 161.371,95.163 C168.081,94.583 174.805,93.574 181.436,92.055 C175.077,94.495 168.516,96.461 161.816,98.014 C157.75,98.945 153.622,99.695 149.42,100.177 C153.195,100.358 157.024,100.306 160.85,100.077 C167.535,99.657 174.247,98.804 180.875,97.437 C174.499,99.731 167.93,101.544 161.229,102.938 C157.138,103.77 152.988,104.422 148.766,104.786 C152.575,105.085 156.451,105.134 160.326,104.996 C166.988,104.737 173.687,104.036 180.314,102.819 C173.92,104.968 167.341,106.632 160.637,107.865 C156.531,108.6 152.366,109.151 148.132,109.394 C151.965,109.815 155.881,109.966 159.801,109.924 C166.439,109.821 173.126,109.273 179.754,108.199 C173.341,110.209 166.751,111.725 160.042,112.798 C155.922,113.433 151.745,113.881 147.503,113.999 C148.145,114.093 148.787,114.184 149.433,114.261 C152.676,114.608 155.965,114.815 159.272,114.857 C165.888,114.912 172.565,114.513 179.193,113.582 C172.759,115.453 166.159,116.821 159.445,117.736 C155.324,118.268 151.149,118.612 146.915,118.605 C147.591,118.726 148.269,118.843 148.952,118.945 C152.172,119.382 155.444,119.668 158.74,119.796 C165.333,120.008 172.003,119.756 178.632,118.963 C172.177,120.7 165.564,121.923 158.843,122.679 C155.48,123.033 152.083,123.231 148.652,123.262 C147.885,123.258 147.115,123.238 146.345,123.212 C147.048,123.362 147.755,123.506 148.468,123.636 C151.664,124.163 154.918,124.528 158.203,124.741 C164.776,125.11 171.439,125.002 178.071,124.345 C171.594,125.95 164.966,127.029 158.238,127.626 C154.87,127.894 151.474,128.009 148.043,127.943 C147.295,127.914 146.546,127.873 145.795,127.824 C146.518,128.003 147.245,128.173 147.979,128.329 C151.148,128.952 154.389,129.394 157.662,129.691 C164.214,130.216 170.872,130.251 177.51,129.726 C171.008,131.202 164.364,132.14 157.627,132.575 C154.255,132.758 150.856,132.792 147.428,132.621 C146.708,132.573 145.986,132.511 145.263,132.442 C145.997,132.65 146.737,132.846 147.485,133.028 C150.628,133.748 153.854,134.268 157.117,134.645 C163.649,135.329 170.304,135.502 176.95,135.108 C170.422,136.455 163.759,137.256 157.011,137.527 C153.634,137.626 150.234,137.578 146.808,137.302 C146.123,137.237 145.438,137.154 144.751,137.069 C145.489,137.302 146.234,137.525 146.985,137.732 C150.102,138.548 153.314,139.146 156.564,139.603 C163.079,140.446 169.734,140.756 176.389,140.489 C173.114,141.118 169.799,141.563 166.465,141.903 C163.13,142.232 159.772,142.441 156.39,142.482 C153.919,142.493 151.436,142.424 148.941,142.238 C149.416,142.349 149.889,142.459 150.366,142.559 C155.461,143.686 160.746,144.254 166.051,144.507 C171.363,144.786 176.713,144.672 182.068,144.343 M520.488,79.636 L518.109,81.025 L520.605,82.189 C540.257,91.361 554.82,115.094 555.433,123.723 C540.991,114.534 488.997,101.427 447.311,111.933 C413.304,120.503 393.571,121.805 383.338,116.155 C374.883,111.488 373.42,106.285 374.273,101.373 C377.898,92.041 386.855,89.186 400.083,87.367 C411.992,85.731 432.818,89.176 441.832,90.077 C446.646,90.56 449.254,90.164 450.466,88.925 C452.611,87.747 452.984,86.038 453.021,85.16 C453.173,81.554 448.819,77.543 443.707,76.576 C394.357,67.242 318.934,105.091 304.316,112.772 C241.393,145.831 172.55,158.463 142.335,151.583 C132.95,149.445 128.245,143.967 126.974,139.554 C126.372,137.468 126.618,135.814 127.171,135.26 C129.794,132.637 132.866,112.703 130.136,99.396 C128.592,91.876 125.491,87.136 120.917,85.308 C118.326,84.271 116.919,80.217 117.715,76.08 C118.178,73.681 120.611,65.854 132.521,65.854 C133.339,65.854 136.161,66.287 139.734,66.836 C154.805,69.152 182.858,73.46 193.193,67.717 L193.194,67.717 C195.079,66.456 196.269,64.761 197.171,62.993 C198.053,61.212 198.598,59.293 198.733,57.34 C198.868,55.395 198.553,53.395 197.667,51.68 C196.792,49.955 195.361,48.618 193.755,47.707 C195.237,48.822 196.417,50.291 197.006,51.968 C197.609,53.641 197.646,55.449 197.302,57.155 C196.958,58.864 196.25,60.492 195.297,61.913 C194.352,63.32 193.104,64.564 191.793,65.195 C182.318,70.457 153.853,66.088 140.17,63.985 C135.826,63.318 133.513,62.969 132.521,62.969 C131.562,62.969 130.661,63.033 129.787,63.124 C126.872,62.785 118.355,62.64 110.043,70.669 C108.946,71.73 108.154,72.848 107.602,73.983 L105.944,74.193 L99.514,75.12 C95.242,75.769 90.984,76.46 86.732,77.169 C91.036,77.421 95.337,77.691 99.627,78.003 L106.045,78.519 L106.555,78.569 C106.555,78.726 106.557,78.882 106.563,79.037 C103.856,79.277 101.162,79.567 98.477,79.894 C92.844,80.573 87.246,81.395 81.672,82.31 C87.32,82.353 92.962,82.493 98.579,82.776 C101.387,82.915 104.189,83.091 106.975,83.325 C107.179,83.343 107.387,83.363 107.593,83.38 C107.664,83.542 107.737,83.7 107.813,83.855 C104.343,84.056 100.887,84.337 97.442,84.667 C90.451,85.368 83.506,86.298 76.612,87.449 C83.599,87.255 90.578,87.288 97.528,87.551 C101.002,87.697 104.468,87.892 107.919,88.17 C109.464,88.298 111.024,88.439 112.572,88.6 C111.37,88.629 110.167,88.664 108.961,88.708 C104.765,88.871 100.58,89.108 96.407,89.459 C88.062,90.138 79.764,91.188 71.552,92.59 C79.873,92.144 88.19,92.059 96.476,92.343 C100.619,92.473 104.754,92.718 108.875,93.034 C110.655,93.175 112.444,93.334 114.227,93.511 C112.802,93.526 111.377,93.548 109.948,93.579 C105.079,93.69 100.218,93.919 95.369,94.256 C90.522,94.582 85.684,95.031 80.868,95.612 C76.048,96.154 71.258,96.92 66.492,97.732 C71.32,97.397 76.14,97.112 80.967,97.051 C85.791,96.952 90.612,96.985 95.425,97.141 C100.238,97.284 105.044,97.536 109.836,97.905 C111.85,98.059 113.873,98.235 115.889,98.429 C114.237,98.429 112.586,98.436 110.931,98.456 C105.39,98.53 99.855,98.734 94.331,99.057 C88.808,99.364 83.295,99.854 77.806,100.464 C72.314,101.059 66.855,101.914 61.432,102.871 C66.923,102.391 72.409,102.016 77.906,101.903 C83.4,101.775 88.891,101.766 94.376,101.941 C99.859,102.1 105.337,102.376 110.8,102.78 C111.569,102.838 112.34,102.903 113.109,102.966 C75.027,102.19 20.715,110.153 5.086,116.766 C4.91,116.61 4.902,116.482 4.898,116.405 C4.685,112.973 17.675,101.597 54.767,79.961 L57.147,78.572 L54.65,77.407 C34.998,68.236 20.436,44.503 19.823,35.873 C34.265,45.062 86.259,58.17 127.945,47.663 C161.949,39.093 181.679,37.789 191.916,43.441 C203.061,49.593 202.062,56.677 199.614,62.795 C199.198,63.837 198.3,64.842 197.35,65.904 C196.463,66.895 195.482,67.994 194.76,69.302 C172.847,77.796 146.759,68.001 133.44,68.521 C128.126,68.465 120.681,71.025 119.711,75.194 C118.874,78.792 122.605,81.818 130.798,84.186 C161.724,93.127 238.501,63.73 282.555,41.787 C324.664,20.81 401.458,-10.28 442.64,17.178 C446.888,20.01 449.19,22.022 450.105,23.699 C450.749,24.879 450.864,26.037 449.451,28.158 C446.558,32.497 440.312,56.294 447.947,70.04 L448.073,70.267 C452.476,78.191 455.954,84.45 454.372,88.138 C453.555,90.044 451.276,91.458 447.404,92.462 C445.435,92.974 439.696,92.415 433.051,91.768 C419.054,90.407 399.883,88.542 388.112,93.223 L388.112,93.224 L385.271,94.691 C384.354,95.256 383.444,95.833 382.565,96.451 C380.866,97.783 379.219,99.359 378.337,101.464 C377.424,103.574 377.785,106.048 378.906,107.854 C379.502,108.741 380.152,109.58 380.963,110.247 C381.75,110.925 382.609,111.546 383.588,111.886 C383.344,111.756 383.111,111.613 382.885,111.461 C379.265,106.917 385.71,90.283 448.15,97.668 C450.471,98.076 452.532,98.359 454.179,98.433 C454.194,98.435 454.209,98.436 454.225,98.439 C454.232,98.438 454.238,98.436 454.244,98.435 C454.431,98.443 454.622,98.453 454.797,98.455 C459.08,98.508 470.067,95.211 467.951,86.402 L471.071,86.095 C473.341,85.847 475.594,85.562 477.843,85.262 C482.338,84.657 486.81,83.98 491.273,83.27 C486.761,83.019 482.253,82.736 477.764,82.378 C475.521,82.197 473.281,82 471.057,81.769 L467.742,81.386 L467.715,81.383 C468.479,81.336 469.243,81.286 470.015,81.234 C472.946,81.026 475.861,80.745 478.768,80.431 C484.578,79.796 490.35,79.001 496.094,78.087 C490.277,78.043 484.471,77.875 478.693,77.546 C475.805,77.38 472.923,77.179 470.059,76.906 C468.696,76.776 467.309,76.633 465.941,76.469 C466.949,76.434 467.956,76.392 468.969,76.347 C472.556,76.175 476.13,75.919 479.691,75.607 C486.813,74.95 493.892,74.048 500.914,72.902 C493.801,73.091 486.697,73.03 479.627,72.722 C476.091,72.554 472.563,72.329 469.053,72.023 C467.452,71.878 465.838,71.72 464.235,71.542 C465.466,71.52 466.696,71.491 467.931,71.452 C472.169,71.316 476.398,71.099 480.615,70.768 C489.048,70.132 497.435,69.11 505.734,67.719 C497.328,68.155 488.929,68.21 480.561,67.884 C476.377,67.734 472.199,67.469 468.04,67.127 C466.205,66.974 464.361,66.801 462.524,66.609 C463.98,66.599 465.437,66.583 466.896,66.555 C471.787,66.464 476.669,66.251 481.541,65.929 C486.411,65.621 491.271,65.186 496.109,64.62 C500.952,64.093 505.766,63.337 510.554,62.535 C505.705,62.86 500.863,63.135 496.015,63.181 C491.17,63.265 486.328,63.219 481.494,63.045 C476.661,62.886 471.836,62.618 467.024,62.231 C464.955,62.066 462.878,61.878 460.808,61.671 C462.491,61.676 464.177,61.672 465.865,61.655 C471.407,61.594 476.942,61.402 482.467,61.091 C487.991,60.796 493.505,60.32 498.995,59.721 C504.488,59.139 509.949,58.296 515.375,57.35 C509.883,57.819 504.395,58.18 498.898,58.282 C493.403,58.398 487.913,58.394 482.429,58.207 C476.944,58.037 471.469,57.748 466.006,57.332 C463.427,57.132 460.838,56.905 458.259,56.651 C458.29,56.608 458.326,56.566 458.358,56.523 C496.53,57.945 554.015,49.667 570.169,42.83 C570.345,42.987 570.354,43.115 570.357,43.192 C570.57,46.624 557.58,58 520.488,79.636 M574.732,42.923 L574.732,42.922 C574.676,42.002 574.239,39.732 571.409,38.52 L570.217,38.009 L569.033,38.546 C554.663,45.079 486.54,55.209 448.672,51.503 C448.941,41.849 451.672,32.726 453.097,30.588 C458.085,23.105 452.146,18.25 445.07,13.532 C402.049,-15.149 323.559,16.466 280.6,37.864 C254.793,50.718 224.477,62.979 198.882,70.942 C199.334,70.258 199.946,69.574 200.628,68.812 C201.731,67.576 202.982,66.176 203.684,64.422 C205.263,60.473 210.069,48.457 194.034,39.606 C182.602,33.293 162.518,34.431 126.875,43.414 C84.195,54.173 30.797,39.777 20.619,31.053 L17.502,28.38 L15.977,32.193 C12.285,41.423 28.593,67.142 48.033,78.833 C-0.055,107.284 0.351,113.847 0.523,116.675 C0.581,117.595 1.019,119.864 3.847,121.076 L5.039,121.588 L6.222,121.051 C20.642,114.495 88.938,104.345 126.781,108.112 C127.314,119.296 124.962,130.765 124.004,132.231 C122.219,134.085 121.754,137.266 122.764,140.767 C123.55,143.491 127.213,152.632 141.364,155.854 C147.079,157.156 154.024,157.817 162.008,157.817 L162.035,157.817 C193.923,157.817 248.581,147.003 306.354,116.652 C314.439,112.403 342.959,97.982 374.807,88.414 C374.871,89.796 374.369,90.522 373.514,91.755 C372.906,92.634 372.15,93.727 371.571,95.175 C369.992,99.123 365.185,111.14 381.221,119.99 C392.649,126.302 412.736,125.165 448.38,116.182 C491.064,105.426 544.459,119.82 554.637,128.543 L557.755,131.215 L559.279,127.403 C562.97,118.174 546.663,92.456 527.222,80.763 C575.312,52.311 574.905,45.75 574.732,42.923" fill="#0A0B09"/>
  </g>
</svg>