<?xml version="1.0" encoding="UTF-8"?>
<!DOCTYPE svg PUBLIC "-//W3C//DTD SVG 1.1//EN" "http://www.w3.org/Graphics/SVG/1.1/DTD/svg11.dtd">
<svg version="1.1" xmlns="http://www.w3.org/2000/svg" xmlns:xlink="http://www.w3.org/1999/xlink" x="0" y="0" width="897" height="1047" viewBox="0, 0, 897, 1047">
  <defs>
    <clipPath id="Clip_1">
      <path d="M0.06,0.87 L896.567,0.87 L896.567,1047 L0.06,1047 z"/>
    </clipPath>
  </defs>
  <g id="Layer_1">
    <g clip-path="url(#Clip_1)">
      <path d="M538.642,895.892 C525.03,903.539 511.251,910.836 496.999,917.239 C488.845,920.902 480.15,922.233 471.46,923.648 C468.607,924.112 466.224,923.204 464.498,920.76 C463.443,919.266 462.36,917.781 461.174,916.391 C456.6,911.03 451.101,908.356 443.931,910.53 C436.595,912.755 432.716,917.87 431.525,925.237 C431.313,926.545 431.029,927.976 431.339,929.209 C432.907,935.447 430.597,938.232 424.22,939.367 C418.212,940.437 412.642,943.342 406.863,947.397 C389.919,891.007 373.11,835.065 355.951,777.963 C392.577,796.729 429.009,812.816 465.648,828.44 C468.283,829.564 468.913,830.724 467.767,833.263 C467.092,834.759 466.835,836.444 466.408,838.049 C464.808,844.067 466.39,847.163 472.338,848.999 C492.637,855.263 512.934,861.537 533.304,867.565 C536.703,868.571 538.121,870.117 538.504,873.588 C539.122,879.195 540.161,884.765 541.244,890.308 C541.766,892.979 541.11,894.506 538.642,895.892 z M794.301,466.367 C764.609,431.384 726.489,409.019 682.851,395.857 C644.486,384.286 605.413,380.961 565.905,388.529 C523.817,396.591 487.06,416.051 454.108,443.058 C451.606,445.108 449.109,446.53 445.771,447.037 C429.596,449.49 413.86,453.565 399.071,460.789 C381.847,469.201 366.729,480.109 357.43,497.417 C351.046,509.299 350.649,521.27 358.812,532.708 C363.922,539.868 371.048,544.375 379.121,547.44 C381.34,548.282 382.083,548.857 380.664,551.232 C375.545,559.794 372.826,569.251 371.927,579.083 C369.797,602.356 373.648,623.563 394.051,638.548 C387.084,648.555 385.948,651.463 385.111,663.291 C383.665,683.727 392.238,704.269 416.817,705.743 C418.208,705.826 418.884,706.421 419.331,707.666 C420.983,712.265 422.702,716.839 424.534,721.799 C423.44,721.735 422.713,721.897 422.209,721.634 C409.677,715.09 397.099,708.61 386.118,699.54 C382.664,696.687 380.644,693.262 380.145,688.516 C379.358,681.028 379.699,673.543 379.292,666.068 C378.047,643.236 365.662,628.158 344.391,624.22 C334.452,622.38 324.46,623.147 314.715,625.826 C311.62,626.677 310.339,626.507 309.284,622.939 C296.415,579.449 283.35,536.016 270.208,492.607 C269.408,489.965 269.554,487.879 270.796,485.524 C279.636,468.773 288.423,451.994 297.17,435.194 C298.495,432.651 300.151,430.453 302.191,428.437 C315.837,414.953 326.58,399.401 334.416,381.924 C353.19,340.048 355.891,296.668 344.273,252.666 C329.323,196.045 297.742,151.633 244.082,125.667 C202.172,105.386 159.5,105.025 117.897,127.044 C82.794,145.624 60.776,175.54 47.533,212.429 C45.685,217.576 44.473,222.915 42.03,227.893 C23.243,266.184 9.135,306.123 3.842,348.541 C-2.949,402.967 -0.966,457.188 11.624,510.797 C18.313,539.276 28.928,565.934 47.505,588.949 C78.762,627.672 120.882,638.353 165.111,618.646 C191.657,606.818 211.287,587.047 227.768,563.694 C235.598,552.6 242.311,540.821 249.091,528.807 C249.622,529.525 250.048,529.874 250.18,530.312 C261.2,566.899 272.195,603.494 283.208,640.083 C283.714,641.765 283.734,643.175 282.535,644.714 C270.103,660.675 266.68,679.211 267.67,698.811 C268.835,721.875 278.933,739.515 300.059,750.044 C304.962,752.487 309.874,754.952 314.948,756.993 C317.896,758.18 319.26,759.995 320.146,762.958 C342.202,836.649 364.344,910.314 386.477,983.982 C391.735,1001.48 396.814,1019.04 402.353,1036.46 C405.782,1047.23 413.727,1048.1 421.79,1046.21 C429.267,1044.47 433.196,1035.68 430.94,1027.65 C430.598,1026.43 430.177,1025.24 429.611,1023.47 C439.253,1026.28 448.342,1024.44 457.343,1021.94 C486.819,1013.74 514.018,1000.146 541.163,986.436 C545.824,984.082 550.426,981.61 555.05,979.195 C556.477,981.874 556.281,984.446 556.725,986.887 C558.005,993.911 559.248,995.319 566.305,995.989 C591.022,998.336 615.559,996.632 639.826,991.704 C703.698,978.736 754.914,946.354 791.821,892.111 C795.096,887.298 795.172,883.363 791.905,878.502 C769.901,845.771 748.098,812.904 726.204,780.099 C724.807,778.007 723.283,776.59 726.222,774.024 C746.369,756.439 760.05,734.461 768.977,709.426 C769.963,706.661 771.123,705.738 774.154,705.492 C796.382,703.684 808.85,690.284 809.388,668.013 C809.432,666.188 809.383,664.505 810.763,662.918 C829.146,641.778 835.819,616.188 837.073,589.155 C839.228,542.692 824.229,501.63 794.301,466.367" fill="#6E4100"/>
      <path d="M462.891,119.076 C460.192,114.084 457.856,110.244 456.577,105.936 C451.69,89.483 462.925,77.529 479.727,81.335 C489.7,83.594 498.051,89.096 506.102,95.027 C523.469,107.821 538.747,122.927 553.203,138.837 C556.627,142.605 558.601,143.425 562.967,140.033 C574.919,130.746 587.339,122.062 599.599,113.175 C608.068,107.037 617.998,108.614 624.084,117 C630.204,125.432 628.733,135.428 620.417,141.514 C610.245,148.958 600.038,156.355 589.3,164.17 C604.626,169.628 619.159,175.051 633.149,181.792 C644.258,187.144 655.119,192.899 664.337,201.281 C667.568,204.219 670.319,207.533 672.248,211.473 C678.195,223.623 671.657,235.881 658.241,237.871 C653.41,238.588 648.603,238.331 643.803,237.784 C641.526,237.525 640.378,237.414 640.642,240.595 C641.555,251.627 634.891,259.067 623.882,259.868 C613.25,260.641 603.55,257.099 593.982,253.196 C574.987,245.45 557.348,235.134 540.062,224.203 C537.541,222.61 536.365,222.298 534.295,225.195 C529.208,232.31 521.819,235.119 513.232,233.486 C504.442,231.815 498.738,226.327 496.496,217.633 C495.93,215.436 495.1,214.882 492.915,214.575 C478.744,212.584 471.125,201.941 473.993,187.862 C474.585,184.957 473.081,184.463 471.439,183.428 C458.478,175.26 445.636,166.921 434.433,156.359 C429.814,152.005 425.542,147.314 422.677,141.581 C416.235,128.692 423.037,116.264 437.382,114.578 C445.855,113.583 453.761,116.195 462.891,119.076" fill="#6E4100"/>
      <path d="M896.235,758.897 C897.384,763.728 894.795,765.611 890.644,766.614 C885.153,767.94 879.768,769.709 874.267,770.988 C871.42,771.649 870.193,773.19 869.628,775.915 C868.042,783.565 866.124,791.147 864.629,798.813 C863.739,803.376 860.714,804.805 856.755,804.824 C852.738,804.843 849.862,803.248 848.974,798.724 C847.469,791.062 845.396,783.51 843.932,775.841 C843.371,772.897 841.958,771.672 839.273,770.984 C833.477,769.501 827.764,767.694 821.965,766.227 C817.9,765.198 816.137,762.672 816.267,758.651 C816.388,754.93 817.95,752.446 821.865,751.475 C827.348,750.115 832.681,748.106 838.199,746.957 C842.062,746.153 843.609,744.239 844.298,740.494 C845.65,733.146 847.601,725.909 849.089,718.583 C850.02,714.001 853.192,712.75 857.128,712.847 C860.876,712.941 863.752,714.346 864.595,718.686 C866.022,726.027 867.955,733.27 869.377,740.612 C870.045,744.062 871.314,746.138 875.079,746.888 C880.281,747.924 885.316,749.765 890.484,751.008 C894.829,752.052 897.548,754.01 896.235,758.897" fill="#FFCF00"/>
      <path d="M786.814,8.516 C786.737,12.746 783.424,15.912 779.121,15.87 C774.931,15.829 771.524,12.377 771.603,8.254 C771.681,4.205 775.244,0.841 779.423,0.87 C783.622,0.899 786.892,4.281 786.814,8.516" fill="#6F4401"/>
    </g>
    <path d="M653.294,83.393 C657.502,83.293 660.879,86.621 660.918,90.904 C660.956,95.154 657.604,98.499 653.344,98.462 C649.291,98.428 646.08,95.294 645.938,91.236 C645.79,87.034 649.113,83.491 653.294,83.393" fill="#6F4300"/>
    <path d="M686.247,74.296 C686.305,78.436 682.868,81.857 678.643,81.862 C674.297,81.867 671.4,79.114 671.252,74.837 C671.102,70.484 674.217,67.01 678.398,66.868 C682.497,66.729 686.19,70.223 686.247,74.296" fill="#6F4400"/>
    <path d="M711.383,57.703 C711.489,61.91 708.143,65.322 703.868,65.368 C699.683,65.412 696.498,62.479 696.282,58.382 C696.057,54.102 699.196,50.637 703.485,50.43 C707.702,50.227 711.278,53.52 711.383,57.703" fill="#6F4300"/>
    <path d="M736.409,41.441 C736.391,45.776 733.155,48.917 728.762,48.864 C724.461,48.812 721.255,45.44 721.411,41.13 C721.556,37.118 724.812,33.942 728.854,33.87 C733.048,33.794 736.427,37.18 736.409,41.441" fill="#6F4300"/>
    <path d="M753.941,32.372 C749.666,32.319 746.405,28.896 746.574,24.639 C746.732,20.689 750.066,17.445 754.037,17.378 C758.325,17.306 761.6,20.589 761.563,24.921 C761.526,29.274 758.301,32.426 753.941,32.372" fill="#6F4300"/>
    <path d="M794.297,664.17 C794.196,662.351 793.92,660.53 793.58,658.737 C791.724,648.936 787.413,646.192 777.653,648.539 C769.512,650.496 765.816,647.754 765.911,639.408 C766.208,613.219 759.858,588.386 751.088,563.974 C749.402,559.282 747.195,556.441 741.863,556.01 C737.229,555.636 732.926,553.524 728.684,551.59 C720.475,547.848 713.116,542.735 705.982,537.168 C702.01,548.375 698.393,552.77 690.649,555.669 C684.104,558.119 677.334,558.649 670.517,557.254 C655.867,554.255 643.254,546.952 631.338,538.27 C625.442,533.975 620.277,528.832 615.033,523.49 C614.065,525.881 613.367,527.909 612.446,529.828 C606.796,541.59 598.846,551.011 585.28,553.324 C573.147,555.393 562.597,550.651 553.373,543.292 C533.598,527.513 521.227,506.76 514.244,482.683 C513.143,478.886 512.239,478.502 508.762,480.515 C491.564,490.467 476.128,502.583 464.129,518.426 C431.487,561.524 418.666,610.175 424.653,663.845 C425.739,665.828 426.815,664.723 427.749,663.755 C429.258,662.193 430.275,660.252 431.564,658.517 C444.125,641.604 465.46,638.142 480.523,650.845 C487.159,656.442 491.127,663.885 493.756,672.177 C499.287,689.626 485.618,712.071 467.626,715.548 C458.985,717.218 451.169,715.289 443.248,712.538 C441.323,711.87 439.41,710.208 437.165,711.787 C437.75,713.336 438.247,714.925 438.932,716.428 C456.621,755.273 486.389,780.285 526.938,792.628 C558.112,802.118 590.072,803.799 622.302,800.492 C646.791,797.979 670.379,791.969 692.076,779.833 C721.783,763.216 742.164,738.719 753.703,706.771 C750.194,706.107 748.441,709.139 745.966,710.562 C739.028,714.552 731.904,717.151 723.661,716.017 C711.395,714.33 703.609,706.756 698.03,696.587 C686.067,674.783 697.583,648.604 721.302,643.787 C730.598,641.899 739.533,644.31 747.864,648.518 C761.063,655.184 767.438,668.809 764.408,683.253 C763.018,689.875 763.018,689.875 769.326,690.629 C787.233,690.482 795.284,681.969 794.297,664.17" fill="#FEF8EA"/>
    <path d="M323.543,303.81 C322.938,341.264 312.885,375.429 287.493,403.851 C254.053,441.281 201.471,451.122 155.743,428.38 C111.603,406.428 85.01,369.897 71.65,323.351 C60.6,284.85 61.86,246.631 78.395,209.711 C93.034,177.025 116.382,153.165 151.466,142.941 C188.288,132.209 222.034,140.692 252.613,162.375 C288.785,188.022 309.77,223.821 319.421,266.635 C322.174,278.843 323.507,291.252 323.543,303.81" fill="#FEFEFE"/>
    <path d="M427.443,466.831 C434.234,463.797 441.571,463.069 448.774,461.771 C453.528,460.915 457.871,459.597 461.836,456.292 C494.621,428.969 531.403,409.635 573.787,402.322 C596.228,398.451 618.868,398.781 641.392,402.025 C673.179,406.604 703.187,416.596 730.836,433.047 C775.697,459.738 807.278,496.751 818.815,548.752 C825.526,579.003 823.285,608.572 810.297,637.011 C810.021,637.616 809.7,638.201 809.391,638.792 C806.011,645.26 806.015,645.256 801.19,640.084 C797.021,635.616 791.826,632.931 785.781,632.931 C781.962,632.931 781.053,631.511 780.833,628.117 C779.494,607.432 774.995,587.376 768.454,567.747 C768.139,566.802 767.792,565.866 767.451,564.929 C766.54,562.429 764.694,559.831 764.949,557.457 C765.258,554.573 769.219,555.258 771.284,553.769 C774.458,551.481 776.086,548.625 774.753,544.786 C773.351,540.748 769.987,538.448 766.134,539.943 C747.549,547.156 733.177,538.126 719.194,528.08 C710.484,521.821 703.108,514.208 698.819,503.988 C696.938,499.505 693.082,498.183 688.999,499.8 C685.09,501.347 683.347,505.195 684.976,509.745 C687.154,515.828 690.123,521.577 690.75,528.224 C691.682,538.121 687.976,542.652 678.079,542.863 C672.431,542.983 667.276,541.123 662.24,538.893 C647.249,532.256 634.04,523.202 624.052,509.984 C620.191,504.874 617.535,499.232 617.271,492.597 C617.081,487.841 613.935,484.889 609.755,484.933 C605.415,484.978 602.377,488.222 602.344,493.182 C602.299,499.834 602.451,506.462 601.613,513.111 C600.637,520.868 597.497,527.526 592.266,533.106 C586.982,538.743 580.48,540.335 573.143,537.308 C560.621,532.142 551.885,522.637 544.477,511.789 C534.389,497.017 527.423,480.966 525.733,462.945 C525.532,460.808 525.625,458.625 525.773,456.477 C526.094,451.797 524.047,448.501 520.23,447.792 C515.44,446.903 510.933,449.15 511.255,453.866 C511.842,462.478 506.239,464.724 500.37,468.066 C462.737,489.497 437.746,521.581 422.602,561.729 C416.064,579.06 411.774,596.974 409.331,615.334 C409.178,616.479 408.79,617.593 408.512,618.721 C405.819,618.886 405.355,616.608 404.717,614.909 C396.164,592.17 396.79,570.009 409.444,548.818 C410.94,546.313 410.744,545.39 408.077,544.724 C407.079,544.475 406.363,543.74 405.702,542.979 C404.629,538.978 402.075,536.898 397.885,536.689 C395.582,536.575 393.315,536.084 391.368,534.686 C382.701,526.362 380.889,515.039 386.444,503.115 C394.842,485.09 409.303,473.87 427.443,466.831" fill="#C9A76F"/>
    <path d="M36.921,281.108 C37.83,289.541 38.258,297.263 39.544,304.839 C50.256,367.971 80.501,418.199 137.452,449.955 C165.414,465.547 195.692,471.09 227.57,466.219 C230.086,465.834 230.995,466.282 231.721,468.811 C235.156,480.782 238.835,492.683 242.473,504.596 C242.979,506.25 242.997,507.68 242.166,509.303 C229.775,533.487 216.518,557.125 197.571,576.947 C178.497,596.902 155.955,610.506 127.859,613.005 C106.128,614.938 87.693,606.996 71.878,592.692 C49.96,572.868 37.341,547.497 29.496,519.472 C18.094,478.735 14.468,437.123 15.34,394.962 C16.096,358.449 21.558,322.791 33.518,288.218 C34.283,286.007 34.592,283.508 36.921,281.108" fill="#FEFEFE"/>
    <path d="M770.362,873.579 C751.634,845.446 732.886,817.327 714.117,789.221 C712.942,787.461 712.388,784.973 709.011,787.181 C684.274,803.361 656.768,811.664 627.62,814.9 C582.718,819.884 538.886,816.629 497.31,797.142 C494.869,795.997 494.037,796.205 493.284,798.963 C490.134,810.51 486.784,822.005 483.329,833.465 C482.636,835.763 483.032,836.623 485.329,837.311 C501.097,842.029 516.828,846.868 532.566,851.687 C534.26,852.205 535.494,852.382 536.687,850.419 C538.483,847.463 541.422,846.234 544.88,847.238 C548.514,848.292 549.983,851.004 550.542,854.647 C552.075,864.647 553.833,874.613 555.635,885.39 C562.762,880.707 569.361,876.306 576.036,872.024 C578.098,870.702 579.378,869.573 579.079,866.593 C578.713,862.951 580.98,860.269 584.712,859.401 C589.219,858.352 591.834,860.854 593.951,864.457 C603.982,881.53 614.093,898.557 624.158,915.611 C630.74,926.764 630.731,926.777 640.026,917.541 C656.567,901.105 672.835,884.424 686.852,865.702 C689.415,862.278 693.691,861.56 697.082,863.679 C700.424,865.768 701.476,869.891 699.456,873.773 C698.542,875.529 697.348,877.169 696.101,878.717 C681.876,896.382 666.433,912.932 650.132,928.688 C645.108,933.544 640.139,938.483 633.962,941.952 C629.787,944.297 625.643,944.81 622.091,941.098 C620.211,939.132 619.045,940.079 617.478,941.194 C603.086,951.432 588.087,960.732 572.597,969.178 C567.472,971.973 570.785,975.43 570.705,978.597 C570.618,982.052 573.418,981.667 575.74,981.75 C594.605,982.424 613.33,981.252 631.923,977.868 C687.642,967.727 734.096,941.839 769.455,897.08 C772.44,893.301 777.051,889.365 777.296,885.285 C777.521,881.533 772.936,877.446 770.362,873.579" fill="#87C9D5"/>
    <path d="M609.411,920.408 C602.818,909.239 596.093,898.145 589.698,886.864 C587.844,883.594 586.648,882.942 583.255,885.251 C567.993,895.638 552.557,905.803 536.228,914.455 C521.563,922.226 507.262,931.033 490.982,935.101 C475.972,938.852 460.243,943.985 449.648,926.236 C449.223,925.524 448.456,924.939 447.565,925.394 C446.567,925.904 446.446,926.961 446.373,927.98 C446.068,932.214 447.269,936.204 448.229,940.256 C449.675,946.364 447.195,949.852 441.034,950.772 C434.595,951.734 428.295,953.271 422.329,955.906 C419.478,957.165 416.504,958.382 414.459,961.383 C415.879,962.389 417.167,963.424 418.568,964.273 C430.6,971.572 430.606,971.562 424.615,983.493 C435.274,985.166 437.334,990.168 431.031,999.121 C429.419,1001.41 427.75,1003.66 425.676,1006.52 C429.75,1006.7 431.748,1004.76 433.965,1002.98 C438.365,999.446 444.119,1000.64 445.835,1005.8 C446.883,1008.95 448.212,1009.06 450.703,1008.17 C451.949,1007.73 453.278,1007.52 454.555,1007.15 C476.849,1000.749 497.817,991.098 518.545,980.893 C549.152,965.823 578.988,949.394 607.126,930.019 C612.779,926.126 612.764,926.09 609.411,920.408" fill="#FEF8EA"/>
    <path d="M473.947,811.879 C475.731,805.134 477.515,798.375 479.729,791.766 C480.728,788.784 480.023,787.38 477.543,785.726 C463.124,776.109 450.88,764.184 440.914,750.008 C438.917,747.167 436.586,745.259 433.469,743.799 C414.34,734.836 395.311,725.67 378.404,712.752 C370.635,706.816 365.931,699.454 365.076,689.294 C364.279,679.83 365.169,670.312 363.527,660.893 C361.605,649.869 354.791,642.213 343.877,639.552 C335.253,637.449 326.746,638.359 318.205,640.369 C315.027,641.116 315.14,642.491 315.941,644.947 C317.845,650.79 319.955,656.612 321.223,662.603 C322.281,667.601 324.308,670.041 328.861,668.584 C337.218,668.628 344.445,670.328 350.983,674.339 C358.087,678.699 362.496,684.832 362.508,693.487 C362.514,698.149 359.605,701.375 355.429,701.598 C351.626,701.802 348.311,698.963 347.63,694.686 C347.34,692.869 347.244,691.104 345.976,689.581 C340.332,682.799 323.565,681.524 316.914,687.291 C314.545,689.345 314.252,691.194 316.281,693.61 C319.577,697.535 323.791,700.231 328.351,702.257 C332.512,704.106 334.771,706.952 336.012,711.326 C340.047,725.55 344.415,739.679 348.636,753.85 C349.312,756.118 350.241,757.878 352.604,759.138 C390.763,779.485 430.285,796.897 469.972,813.969 C472.756,815.167 473.31,814.284 473.947,811.879" fill="#FEF8EA"/>
    <path d="M753.703,706.771 C747.591,711.033 741.608,715.313 734.004,716.951 C725.09,718.871 716.738,717.288 709.823,712.155 C698.208,703.536 691.436,691.671 691.443,676.815 C691.453,656.907 712.946,639.35 732.566,642.506 C742.212,644.057 750.745,647.097 757.659,654.374 C765.7,662.837 768.184,672.682 765.459,683.725 C764.431,687.892 764.96,690.037 769.327,690.629 C759.433,690.927 759.456,690.935 756.118,700.87 C755.442,702.88 754.515,704.806 753.703,706.771" fill="#FFD9B4"/>
    <path d="M424.653,663.845 C427.698,664.752 427.615,661.771 428.53,660.432 C435.768,649.845 445.228,642.609 458.326,641.922 C474.054,641.097 487.061,651.364 493.524,667.142 C502.027,687.903 490.95,704.206 476.804,713.384 C468.615,718.697 459.222,718.893 449.9,716.025 C445.625,714.71 441.409,713.206 437.165,711.788 C430.364,696.493 426.752,680.367 424.653,663.845" fill="#FFD9B4"/>
    <path d="M313.101,739.862 C299.877,733.441 288.954,726.019 285.055,711.686 C280.487,694.897 281.936,678.622 289.898,662.608 C297.569,688.149 305.241,713.69 313.101,739.862" fill="#FEF8EA"/>
    <path d="M405.702,542.979 C408.431,543.64 411.16,544.302 413.787,544.939 C398.961,565.11 397.656,587.144 404.422,610.312 C405.297,613.311 406.413,616.277 408.512,618.721 C408.53,619.053 408.637,619.41 408.553,619.715 C407.929,621.972 409.805,625.421 406.985,626.365 C404.328,627.254 401.551,625.311 399.355,623.439 C391.24,616.522 388.016,607.155 386.793,597.035 C385.394,585.45 386.757,574.098 391.418,563.313 C393.676,558.087 396.443,553.238 402.048,550.627 C405.091,549.209 405.81,546.168 405.702,542.979" fill="#FEFEFE"/>
    <path d="M427.443,466.831 C420.239,471.786 411.988,475.068 405.295,480.861 C396.88,488.145 389.856,496.38 386.186,507.113 C383.224,515.776 384.468,523.779 389.657,531.25 C390.39,532.305 391.634,533.127 391.368,534.687 C382.94,534.739 372.211,527.817 368.994,520.356 C366.916,515.535 367.736,510.908 369.792,506.389 C373.83,497.515 380.492,490.803 388.078,484.98 C399.017,476.584 411.479,471.172 424.527,467.016 C425.428,466.729 426.468,466.882 427.443,466.831" fill="#FEFEFE"/>
    <path d="M413.917,689.948 C407.82,688.71 404.227,685.336 402.285,680.245 C399.089,671.864 399.266,663.302 401.675,654.778 C402.305,652.549 403.582,650.486 405.66,649.187 C406.836,648.452 408.186,647.706 408.298,650.159 C408.904,663.434 411.078,676.507 413.917,689.948" fill="#FEF7E9"/>
    <path d="M263.005,467.501 C258.617,456.714 259.093,455.75 270.531,452.754 C269.262,455.404 268.23,457.675 267.096,459.895 C265.893,462.251 264.594,464.559 263.005,467.501" fill="#FAFAF9"/>
    <path d="M620.641,245.031 C614.045,244.616 608.187,242.677 602.487,240.406 C579.848,231.388 559.217,218.66 538.782,205.586 C536.417,204.073 535.599,202.603 538.664,200.988 C538.81,200.911 538.93,200.788 539.065,200.692 C543.946,197.238 548.532,191.659 553.791,190.929 C559.053,190.2 564.469,195.393 569.691,198.215 C587.245,207.705 604.789,217.252 619.147,231.482 C621.132,233.449 622.776,235.803 624.342,238.136 C625.43,239.759 626.57,241.686 625.328,243.682 C624.157,245.565 621.994,244.661 620.641,245.031" fill="#FEFEFE"/>
    <path d="M545.211,152.261 C544.918,152.636 544.753,152.946 544.503,153.153 C534.378,161.544 534.409,161.495 523.641,154.069 C517.617,149.915 511.499,145.896 505.361,141.91 C491.034,132.605 481.014,119.466 472.568,104.976 C471.134,102.517 468.885,99.268 471.165,96.713 C473.412,94.194 476.846,95.972 479.596,96.994 C486.684,99.627 492.858,103.873 498.823,108.423 C515.841,121.4 530.781,136.57 545.211,152.261" fill="#FEFEFE"/>
    <path d="M520.127,169.829 C514.956,170.634 510.198,171.003 505.909,173.593 C504.755,174.289 503.729,173.784 502.61,173.343 C497.443,171.304 492.186,171.194 487.026,173.235 C485.38,173.886 484.215,173.581 482.875,172.749 C468.586,163.877 454.344,154.946 442.366,142.933 C440.122,140.683 438.084,138.267 436.557,135.477 C434.343,131.432 435.286,129.748 440.001,129.422 C442.839,129.227 445.617,129.741 448.371,130.488 C465.954,135.254 481.24,144.711 496.49,154.178 C504.515,159.16 512.257,164.598 520.127,169.829" fill="#FEFEFE"/>
    <path d="M568.102,180.264 C571.535,175.878 574.993,175 580.019,176.825 C601.387,184.585 622.83,192.11 642.46,203.853 C647.894,207.105 653.133,210.66 657.128,215.684 C658.333,217.199 659.931,218.918 659.164,221.027 C658.331,223.319 655.836,223.22 653.988,223.17 C642.517,222.857 631.457,222.001 621.965,213.742 C607.609,201.251 590.851,192.258 574.074,183.432 C572.17,182.43 570.272,181.416 568.102,180.264" fill="#FEFEFE"/>
    <path d="M537.233,183.25 C535.886,182.867 535.599,181.628 535.019,180.707 C533.897,178.925 535.609,178.434 536.59,177.716 C544.503,171.926 552.437,166.164 560.364,160.392 C575.68,149.241 590.975,138.06 606.346,126.987 C607.849,125.904 609.594,123.121 611.748,125.914 C613.854,128.645 611.017,129.64 609.403,130.818 C586.451,147.573 563.477,164.298 540.502,181.023 C539.431,181.803 538.311,182.518 537.233,183.25" fill="#FF7063"/>
    <path d="M523.597,212.584 C523.182,216.326 521.179,218.704 517.293,218.79 C513.322,218.877 511.267,216.325 510.821,212.665 C510.41,209.296 513.949,205.748 517.363,206.07 C521.127,206.424 523.237,208.697 523.597,212.584" fill="#FCFBFA"/>
    <path d="M488.278,192.873 C488.464,189.535 490.525,187.251 494.39,186.888 C497.78,186.57 500.899,189.538 500.908,193.017 C500.919,197.004 498.615,199.195 494.828,199.62 C491.529,199.99 488.416,196.87 488.278,192.873" fill="#FDFDFC"/>
    <path d="M523.07,191.624 C521.198,191.395 519.44,191.122 517.672,190.981 C516.247,190.867 515.61,190.102 515.511,188.776 C515.44,187.828 514.975,186.642 516.065,186.102 C517.127,185.575 518.341,185.796 519.379,186.459 C521.203,187.626 522.919,188.886 523.07,191.624" fill="#F96E5F"/>
    <path d="M588.689,737.379 C569.184,736.691 551.721,731.256 538.663,715.671 C535.978,712.466 533.883,708.873 532.265,705.015 C530.816,701.56 531.521,698.586 535.029,697.116 C538.175,695.799 540.937,696.842 542.457,700.139 C549.954,716.402 564.029,723.196 580.551,725.467 C594.678,727.408 608.449,725.333 620.943,717.739 C627.374,713.83 632.315,708.523 635.225,701.545 C636.801,697.764 639.154,695.656 643.295,697.095 C646.777,698.304 647.526,701.815 645.409,706.491 C637.626,723.687 623.061,731.728 605.582,735.667 C600.056,736.913 594.407,737.418 588.689,737.379" fill="#6E4100"/>
    <path d="M684.268,617.185 C684.283,621.178 683.716,624.096 682.578,626.896 C678.232,637.597 665.817,640.11 657.72,631.934 C648.155,622.276 651.047,603.982 663.143,597.624 C667.899,595.123 672.68,595.803 676.879,599.679 C682.266,604.651 683.846,611.173 684.268,617.185" fill="#6E4100"/>
    <path d="M531.57,618.158 C531.483,624.213 530.054,629.763 524.928,633.575 C514.838,641.08 500.802,633.961 499.383,620.546 C498.501,612.203 501.523,605.14 507.749,599.645 C513.712,594.383 520.492,595.051 525.678,601.096 C529.88,605.993 531.489,611.821 531.57,618.158" fill="#6E4100"/>
    <path d="M520.294,534.72 C518.738,534.274 516.614,533.841 514.621,533.066 C505.99,529.712 498.495,524.576 491.734,518.292 C489.253,515.986 487.845,513.279 490.359,510.52 C492.911,507.718 495.493,508.982 498.061,511.36 C505.066,517.847 512.776,523.259 522.238,525.664 C524.988,526.363 525.928,528.358 525.498,530.991 C525.083,533.537 523.247,534.483 520.294,534.72" fill="#6F4300"/>
    <path d="M579.391,622.807 C583.698,622.742 588.314,628.376 588.1,632.47 C587.945,635.442 586.315,637.474 583.153,637.75 C579.858,638.038 575.371,632.641 575.319,628.202 C575.28,624.872 576.986,622.933 579.391,622.807" fill="#704501"/>
    <path d="M109.441,533.665 C107.163,533.503 105.527,532.741 104.021,531.648 C77.498,512.399 59.031,487.688 52.137,455.128 C50.986,449.693 52.847,445.855 57.149,444.816 C61.885,443.672 65.423,446.072 66.659,451.739 C72.678,479.357 88.063,500.715 110.334,517.525 C111.791,518.625 113.357,519.643 114.588,520.964 C116.842,523.386 117.104,526.252 115.81,529.283 C114.535,532.268 111.933,533.158 109.441,533.665" fill="#6E4100"/>
  </g>
</svg>