<?xml version="1.0" encoding="UTF-8"?>
<!DOCTYPE svg PUBLIC "-//W3C//DTD SVG 1.1//EN" "http://www.w3.org/Graphics/SVG/1.1/DTD/svg11.dtd">
<svg version="1.1" xmlns="http://www.w3.org/2000/svg" xmlns:xlink="http://www.w3.org/1999/xlink" x="0" y="0" width="284" height="645" viewBox="0, 0, 284, 645">
  <g id="Layer_1">
    <path d="M171.526,230.481 C171.506,230.48 171.483,230.48 171.461,230.48 C171.483,230.479 171.506,230.478 171.528,230.478 C171.528,230.479 171.528,230.48 171.526,230.481 M206.483,308.497 L198.46,312.811 C197.813,310.377 197.418,308.9 197.418,308.9 L193.237,284.957 L197.225,283.627 z M95.498,198.362 C96.189,197.715 96.888,197.048 97.583,196.367 C97.214,198.195 99.503,201.365 102.726,204.746 C102.933,209.934 103.155,215.213 103.155,215.213 C103.155,215.213 99.98,207.273 95.498,198.362 M127.082,213.829 C127.427,214.255 127.779,214.668 128.138,215.071 C127.219,216.046 126.605,216.706 126.605,216.706 C126.605,216.706 126.802,215.595 127.082,213.829 M154.766,230.293 C154.741,230.262 154.708,230.235 154.676,230.206 C154.608,230.141 154.53,230.08 154.44,230.023 C154.397,229.995 154.35,229.967 154.301,229.941 C154.198,229.886 154.085,229.835 153.961,229.789 C153.911,229.769 153.864,229.749 153.811,229.73 C153.629,229.669 153.432,229.613 153.213,229.564 C153.182,229.556 153.145,229.551 153.112,229.545 C152.918,229.504 152.715,229.468 152.499,229.437 C152.417,229.424 152.327,229.415 152.241,229.404 C152.061,229.38 151.876,229.361 151.682,229.343 C151.585,229.334 151.487,229.326 151.387,229.319 C151.17,229.302 150.948,229.291 150.717,229.28 C150.639,229.277 150.563,229.271 150.483,229.268 C150.168,229.257 149.846,229.251 149.512,229.248 C149.446,229.248 149.374,229.25 149.305,229.249 C149.034,229.249 148.754,229.251 148.471,229.255 C148.362,229.257 148.251,229.26 148.139,229.263 C147.881,229.269 147.622,229.278 147.358,229.288 C147.251,229.293 147.143,229.296 147.034,229.3 C146.719,229.314 146.401,229.331 146.083,229.349 C146.03,229.351 145.977,229.354 145.924,229.357 C145.538,229.38 145.147,229.406 144.756,229.435 C144.704,229.439 144.653,229.443 144.602,229.447 C144.264,229.472 143.928,229.499 143.59,229.527 C143.504,229.535 143.42,229.543 143.335,229.549 C143.01,229.578 142.69,229.607 142.368,229.638 C142.307,229.644 142.247,229.649 142.184,229.656 C141.398,229.732 140.628,229.814 139.89,229.898 C139.887,229.898 139.884,229.899 139.881,229.899 L139.472,229.508 L139,230.002 C137.452,230.188 136.105,230.373 135.133,230.513 C135.107,230.516 135.083,230.52 135.06,230.523 C134.597,230.59 134.227,230.646 133.968,230.685 C133.94,230.689 133.924,230.692 133.899,230.696 C133.805,230.71 133.729,230.722 133.672,230.731 C133.647,230.735 133.635,230.737 133.616,230.74 C133.567,230.748 133.535,230.752 133.535,230.752 L133.682,230.887 C133.179,230.885 132.663,230.888 132.14,230.896 C132.604,228.01 132.673,225.838 132.739,225.606 C132.739,225.606 133.857,223.709 135.27,221.305 C142.446,226.169 150.26,228.153 155.104,228.955 L154.981,230.254 C154.981,230.254 154.993,230.338 155.014,230.478 C154.969,230.479 154.922,230.48 154.877,230.481 C154.842,230.418 154.817,230.351 154.766,230.293 M188.844,6.39 C118.498,-2.63 82.166,52.289 72.237,95.795 C62.31,139.3 74.864,155.991 79.339,174.127 C82.732,187.875 85.934,206.547 85.934,206.547 C85.934,206.547 86.417,206.173 87.221,205.527 C89.813,214.211 94.493,228.809 94.493,228.809 C94.493,228.809 92.513,227.903 87.102,224.977 C80.403,221.362 73.767,226.578 81.972,233.731 C93.692,243.952 102.077,248.719 102.077,248.719 L101.697,254.111 C98.846,270.435 93.8,302.371 96.126,311.963 C96.084,315.078 98.216,317.08 100.887,318.365 C106.212,322.085 114.629,322.434 119.257,308.778 L128.259,283.227 L128.259,283.226 L133.172,284.933 L128.985,308.9 C128.985,308.9 116.575,355.346 116.605,357.779 C116.608,358.095 118.192,358.369 120.929,358.603 C117.542,369.502 113.687,382.913 111.566,393.651 C107.158,415.983 94.066,492.401 94.066,492.401 L118.995,492.401 L120.246,534.673 L120.189,534.674 L121.88,589.914 L122.799,620.987 C118.82,621.982 114.918,623.818 112.377,627.129 C110.651,629.378 109.778,631.16 109.389,632.558 C109.388,632.558 109.383,632.561 109.383,632.561 C106.389,637.993 108.672,640.25 108.672,640.25 L137.547,640 L137.547,620.158 C137.547,620.158 137.535,620.156 137.532,620.156 L147.37,492.401 L178.704,492.401 L188.542,620.156 C188.54,620.156 188.528,620.158 188.528,620.158 L188.528,640 L217.403,640.25 C217.403,640.25 219.686,637.993 216.692,632.561 L216.686,632.558 C216.295,631.16 215.422,629.378 213.698,627.129 C211.155,623.817 207.252,621.982 203.274,620.986 L204.147,591.487 L205.885,534.674 L205.827,534.673 L207.079,492.401 L232.338,492.401 C232.338,492.401 219.247,415.983 214.838,393.651 C212.717,382.913 208.862,369.502 205.475,358.603 C208.211,358.369 209.795,358.095 209.799,357.779 C209.815,356.438 206.053,341.729 202.672,328.794 C212.997,325.269 224.299,321.235 226.719,319.679 C229.217,318.074 229.247,314.654 228.739,311.815 C228.708,310.929 228.518,309.963 228.1,308.89 C224.891,299.19 220.813,287.925 216.69,277.134 L220.475,275.873 C220.475,275.873 215.077,246.539 207.952,234.335 C206.252,231.425 198.659,230.862 192.723,230.887 L192.87,230.752 C192.87,230.752 192.836,230.748 192.788,230.74 C192.77,230.737 192.758,230.735 192.733,230.731 C192.676,230.722 192.6,230.71 192.504,230.696 C192.481,230.692 192.463,230.689 192.436,230.685 C192.178,230.646 191.807,230.59 191.344,230.523 C191.321,230.52 191.297,230.516 191.272,230.513 C190.299,230.373 188.952,230.188 187.405,230.002 L186.932,229.508 L186.524,229.899 C186.52,229.899 186.518,229.898 186.514,229.898 C185.776,229.814 185.006,229.732 184.219,229.656 C184.159,229.649 184.096,229.644 184.036,229.638 C183.715,229.607 183.393,229.578 183.069,229.549 C182.983,229.543 182.899,229.535 182.813,229.527 C182.477,229.499 182.139,229.472 181.801,229.447 C181.751,229.443 181.7,229.439 181.649,229.435 C181.444,229.42 181.243,229.408 181.04,229.394 C186.614,228.202 192.571,225.838 197.874,221.44 C198.352,221.302 198.821,221.152 199.293,221.005 C202.321,224.264 203.727,228.895 203.727,228.895 C209.241,227.078 228.948,218.065 229.217,213.248 C233.311,220.084 237.92,226.038 237.92,226.038 C237.92,226.038 245.731,208.777 252.483,196.331 C261.389,179.911 277.749,166.928 279.12,122.326 C280.491,77.722 259.192,15.412 188.844,6.39" fill="#797979"/>
    <path d="M171.526,230.481 C171.506,230.48 171.483,230.48 171.461,230.48 C171.483,230.479 171.506,230.478 171.528,230.478 C171.528,230.479 171.528,230.48 171.526,230.481 z M206.483,308.497 L198.46,312.811 C197.813,310.377 197.418,308.9 197.418,308.9 L193.237,284.957 L197.225,283.627 L206.483,308.497 z M95.498,198.362 C96.189,197.715 96.888,197.048 97.583,196.367 C97.214,198.195 99.503,201.365 102.726,204.746 C102.933,209.934 103.155,215.213 103.155,215.213 C103.155,215.213 99.98,207.273 95.498,198.362 z M127.082,213.829 C127.427,214.255 127.779,214.668 128.138,215.071 C127.219,216.046 126.605,216.706 126.605,216.706 C126.605,216.706 126.802,215.595 127.082,213.829 z M154.766,230.293 C154.741,230.262 154.708,230.235 154.676,230.206 C154.608,230.141 154.53,230.08 154.44,230.023 C154.397,229.995 154.35,229.967 154.301,229.941 C154.198,229.886 154.085,229.835 153.961,229.789 C153.911,229.769 153.864,229.749 153.811,229.73 C153.629,229.669 153.432,229.613 153.213,229.564 C153.182,229.556 153.145,229.551 153.112,229.545 C152.918,229.504 152.715,229.468 152.499,229.437 C152.417,229.424 152.327,229.415 152.241,229.404 C152.061,229.38 151.876,229.361 151.682,229.343 C151.585,229.334 151.487,229.326 151.387,229.319 C151.17,229.302 150.948,229.291 150.717,229.28 C150.639,229.277 150.563,229.271 150.483,229.268 C150.168,229.257 149.846,229.251 149.512,229.248 C149.446,229.248 149.374,229.25 149.305,229.249 C149.034,229.249 148.754,229.251 148.471,229.255 C148.362,229.257 148.251,229.26 148.139,229.263 C147.881,229.269 147.622,229.278 147.358,229.288 C147.251,229.293 147.143,229.296 147.034,229.3 C146.719,229.314 146.401,229.331 146.083,229.349 C146.03,229.351 145.977,229.354 145.924,229.357 C145.538,229.38 145.147,229.406 144.756,229.435 C144.704,229.439 144.653,229.443 144.602,229.447 C144.264,229.472 143.928,229.499 143.59,229.527 C143.504,229.535 143.42,229.543 143.335,229.549 C143.01,229.578 142.69,229.607 142.368,229.638 C142.307,229.644 142.247,229.649 142.184,229.656 C141.398,229.732 140.628,229.814 139.89,229.898 C139.887,229.898 139.884,229.899 139.881,229.899 L139.472,229.508 L139,230.002 C137.452,230.188 136.105,230.373 135.133,230.513 C135.107,230.516 135.083,230.52 135.06,230.523 C134.597,230.59 134.227,230.646 133.968,230.685 C133.94,230.689 133.924,230.692 133.899,230.696 C133.805,230.71 133.729,230.722 133.672,230.731 C133.647,230.735 133.635,230.737 133.616,230.74 C133.567,230.748 133.535,230.752 133.535,230.752 L133.682,230.887 C133.179,230.885 132.663,230.888 132.14,230.896 C132.604,228.01 132.673,225.838 132.739,225.606 C132.739,225.606 133.857,223.709 135.27,221.305 C142.446,226.169 150.26,228.153 155.104,228.955 L154.981,230.254 C154.981,230.254 154.993,230.338 155.014,230.478 C154.969,230.479 154.922,230.48 154.877,230.481 C154.842,230.418 154.817,230.351 154.766,230.293 z M188.844,6.39 C118.498,-2.63 82.166,52.289 72.237,95.795 C62.31,139.3 74.864,155.991 79.339,174.127 C82.732,187.875 85.934,206.547 85.934,206.547 C85.934,206.547 86.417,206.173 87.221,205.527 C89.813,214.211 94.493,228.809 94.493,228.809 C94.493,228.809 92.513,227.903 87.102,224.977 C80.403,221.362 73.767,226.578 81.972,233.731 C93.692,243.952 102.077,248.719 102.077,248.719 L101.697,254.111 C98.846,270.435 93.8,302.371 96.126,311.963 C96.084,315.078 98.216,317.08 100.887,318.365 C106.212,322.085 114.629,322.434 119.257,308.778 L128.259,283.227 L128.259,283.226 L133.172,284.933 L128.985,308.9 C128.985,308.9 116.575,355.346 116.605,357.779 C116.608,358.095 118.192,358.369 120.929,358.603 C117.542,369.502 113.687,382.913 111.566,393.651 C107.158,415.983 94.066,492.401 94.066,492.401 L118.995,492.401 L120.246,534.673 L120.189,534.674 L121.88,589.914 L122.799,620.987 C118.82,621.982 114.918,623.818 112.377,627.129 C110.651,629.378 109.778,631.16 109.389,632.558 C109.388,632.558 109.383,632.561 109.383,632.561 C106.389,637.993 108.672,640.25 108.672,640.25 L137.547,640 L137.547,620.158 C137.547,620.158 137.535,620.156 137.532,620.156 L147.37,492.401 L178.704,492.401 L188.542,620.156 C188.54,620.156 188.528,620.158 188.528,620.158 L188.528,640 L217.403,640.25 C217.403,640.25 219.686,637.993 216.692,632.561 L216.686,632.558 C216.295,631.16 215.422,629.378 213.698,627.129 C211.155,623.817 207.252,621.982 203.274,620.986 L204.147,591.487 L205.885,534.674 L205.827,534.673 L207.079,492.401 L232.338,492.401 C232.338,492.401 219.247,415.983 214.838,393.651 C212.717,382.913 208.862,369.502 205.475,358.603 C208.211,358.369 209.795,358.095 209.799,357.779 C209.815,356.438 206.053,341.729 202.672,328.794 C212.997,325.269 224.299,321.235 226.719,319.679 C229.217,318.074 229.247,314.654 228.739,311.815 C228.708,310.929 228.518,309.963 228.1,308.89 C224.891,299.19 220.813,287.925 216.69,277.134 L220.475,275.873 C220.475,275.873 215.077,246.539 207.952,234.335 C206.252,231.425 198.659,230.862 192.723,230.887 L192.87,230.752 C192.87,230.752 192.836,230.748 192.788,230.74 C192.77,230.737 192.758,230.735 192.733,230.731 C192.676,230.722 192.6,230.71 192.504,230.696 C192.481,230.692 192.463,230.689 192.436,230.685 C192.178,230.646 191.807,230.59 191.344,230.523 C191.321,230.52 191.297,230.516 191.272,230.513 C190.299,230.373 188.952,230.188 187.405,230.002 L186.932,229.508 L186.524,229.899 C186.52,229.899 186.518,229.898 186.514,229.898 C185.776,229.814 185.006,229.732 184.219,229.656 C184.159,229.649 184.096,229.644 184.036,229.638 C183.715,229.607 183.393,229.578 183.069,229.549 C182.983,229.543 182.899,229.535 182.813,229.527 C182.477,229.499 182.139,229.472 181.801,229.447 C181.751,229.443 181.7,229.439 181.649,229.435 C181.444,229.42 181.243,229.408 181.04,229.394 C186.614,228.202 192.571,225.838 197.874,221.44 C198.352,221.302 198.821,221.152 199.293,221.005 C202.321,224.264 203.727,228.895 203.727,228.895 C209.241,227.078 228.948,218.065 229.217,213.248 C233.311,220.084 237.92,226.038 237.92,226.038 C237.92,226.038 245.731,208.777 252.483,196.331 C261.389,179.911 277.749,166.928 279.12,122.326 C280.491,77.722 259.192,15.412 188.844,6.39 z" fill-opacity="0" stroke="#797979" stroke-width="8" stroke-linecap="round" stroke-linejoin="round"/>
    <path d="M279.12,122.326 C280.491,77.722 259.192,15.412 188.845,6.39 C118.498,-2.63 82.166,52.289 72.238,95.796 C62.31,139.301 74.865,155.991 79.339,174.128 C82.733,187.875 85.934,206.548 85.934,206.548 C85.934,206.548 91.898,201.949 97.583,196.367 C96.629,201.096 113.424,214.791 118.301,217.941 C118.301,217.941 121.053,213.439 125.078,211.115 C136.799,228.77 159.839,229.492 159.839,229.492 C159.839,229.492 160.038,229.023 160.409,228.135 C160.544,229.089 160.618,229.592 160.618,229.592 C160.618,229.592 183.095,234.708 198.891,220.581 C202.2,223.845 203.727,228.895 203.727,228.895 C209.241,227.078 228.948,218.065 229.218,213.248 C233.311,220.084 237.921,226.038 237.921,226.038 C237.921,226.038 245.731,208.777 252.483,196.331 C261.39,179.911 277.749,166.928 279.12,122.326" fill="#99877B"/>
    <path d="M279.12,122.326 C280.491,77.722 259.192,15.412 188.845,6.39 C118.498,-2.63 82.166,52.289 72.238,95.796 C62.31,139.301 74.865,155.991 79.339,174.128 C82.733,187.875 85.934,206.548 85.934,206.548 C85.934,206.548 91.898,201.949 97.583,196.367 C96.629,201.096 113.424,214.791 118.301,217.941 C118.301,217.941 121.053,213.439 125.078,211.115 C136.799,228.77 159.839,229.492 159.839,229.492 C159.839,229.492 160.038,229.023 160.409,228.135 C160.544,229.089 160.618,229.592 160.618,229.592 C160.618,229.592 183.095,234.708 198.891,220.581 C202.2,223.845 203.727,228.895 203.727,228.895 C209.241,227.078 228.948,218.065 229.218,213.248 C233.311,220.084 237.921,226.038 237.921,226.038 C237.921,226.038 245.731,208.777 252.483,196.331 C261.39,179.911 277.749,166.928 279.12,122.326 z" fill-opacity="0" stroke="#797979" stroke-width="4" stroke-linecap="round" stroke-linejoin="round"/>
    <path d="M209.735,402.609 L203.057,628.322 L189.295,629.931 L174.006,431.391 z" fill="#FFEFD9"/>
    <path d="M209.735,402.609 L203.057,628.322 L189.295,629.931 L174.006,431.391 L209.735,402.609 z" fill-opacity="0" stroke="#797979" stroke-width="4" stroke-linecap="round" stroke-linejoin="round"/>
    <path d="M116.34,402.609 L123.016,628.322 L136.779,629.931 L152.069,431.391 z" fill="#FFEFD9"/>
    <path d="M116.34,402.609 L123.016,628.322 L136.779,629.931 L152.069,431.391 L116.34,402.609 z" fill-opacity="0" stroke="#797979" stroke-width="4" stroke-linecap="round" stroke-linejoin="round"/>
    <path d="M123.017,627.051 L120.189,534.675 L143.917,534.219 L136.78,628.66 z" fill="#FFFFFF"/>
    <path d="M123.017,627.051 L120.189,534.675 L143.917,534.219 L136.78,628.66 L123.017,627.051 z" fill-opacity="0" stroke="#797979" stroke-width="4" stroke-linecap="round" stroke-linejoin="round"/>
    <path d="M203.057,627.051 L205.885,534.675 L182.159,534.219 L189.295,628.66 z" fill="#FFFFFF"/>
    <path d="M203.057,627.051 L205.885,534.675 L182.159,534.219 L189.295,628.66 L203.057,627.051 z" fill-opacity="0" stroke="#797979" stroke-width="4" stroke-linecap="round" stroke-linejoin="round"/>
    <path d="M110.191,636.948 L137.546,636.948 L137.546,620.158 C137.546,620.158 119.546,617.786 112.377,627.13 C106.673,634.565 110.191,636.948 110.191,636.948" fill="#8D8D8D"/>
    <path d="M110.191,636.948 L137.546,636.948 L137.546,620.158 C137.546,620.158 119.546,617.786 112.377,627.13 C106.673,634.565 110.191,636.948 110.191,636.948 z" fill-opacity="0" stroke="#797979" stroke-width="4" stroke-linecap="round" stroke-linejoin="round"/>
    <path d="M109.383,632.562 C109.383,632.562 116.422,628.5 124.672,630 C132.922,631.5 137.547,636.948 137.547,636.948 L137.547,640 L108.672,640.25 C108.672,640.25 106.389,637.994 109.383,632.562" fill="#8D8D8D"/>
    <path d="M109.383,632.562 C109.383,632.562 116.422,628.5 124.672,630 C132.922,631.5 137.547,636.948 137.547,636.948 L137.547,640 L108.672,640.25 C108.672,640.25 106.389,637.994 109.383,632.562 z" fill-opacity="0" stroke="#797979" stroke-width="4" stroke-linecap="round" stroke-linejoin="round"/>
    <path d="M215.883,636.948 L188.528,636.948 L188.528,620.158 C188.528,620.158 206.528,617.786 213.697,627.13 C219.401,634.565 215.883,636.948 215.883,636.948" fill="#8D8D8D"/>
    <path d="M215.883,636.948 L188.528,636.948 L188.528,620.158 C188.528,620.158 206.528,617.786 213.697,627.13 C219.401,634.565 215.883,636.948 215.883,636.948 z" fill-opacity="0" stroke="#797979" stroke-width="4" stroke-linecap="round" stroke-linejoin="round"/>
    <path d="M216.692,632.562 C216.692,632.562 209.653,628.5 201.403,630 C193.153,631.5 188.528,636.948 188.528,636.948 L188.528,640 L217.403,640.25 C217.403,640.25 219.686,637.994 216.692,632.562" fill="#8D8D8D"/>
    <path d="M216.692,632.562 C216.692,632.562 209.653,628.5 201.403,630 C193.153,631.5 188.528,636.948 188.528,636.948 L188.528,640 L217.403,640.25 C217.403,640.25 219.686,637.994 216.692,632.562 z" fill-opacity="0" stroke="#797979" stroke-width="4" stroke-linecap="round" stroke-linejoin="round"/>
    <path d="M198.028,233.765 C192.346,230.683 172.909,230.421 165.821,230.431 C164.198,230.434 163.225,230.451 163.202,230.451 C163.178,230.451 162.204,230.434 160.583,230.431 C153.495,230.421 134.058,230.683 128.375,233.765 C128.032,233.952 126.954,236.251 126.954,236.251 C126.89,242.958 138.085,267.453 138.085,267.453 L188.319,267.453 C188.319,267.453 199.514,242.958 199.45,236.251 C199.45,236.251 198.372,233.952 198.028,233.765" fill="#FFFFFF"/>
    <path d="M198.028,233.765 C192.346,230.683 172.909,230.421 165.821,230.431 C164.198,230.434 163.225,230.451 163.202,230.451 C163.178,230.451 162.204,230.434 160.583,230.431 C153.495,230.421 134.058,230.683 128.375,233.765 C128.032,233.952 126.954,236.251 126.954,236.251 C126.89,242.958 138.085,267.453 138.085,267.453 L188.319,267.453 C188.319,267.453 199.514,242.958 199.45,236.251 C199.45,236.251 198.372,233.952 198.028,233.765 z" fill-opacity="0" stroke="#797979" stroke-width="4" stroke-linecap="round" stroke-linejoin="round"/>
    <path d="M169.692,211.976 L163.202,207.756 L156.711,211.976 L154.981,230.255 C154.981,230.255 156.424,241.507 163.202,241.507 C169.977,241.507 171.422,230.255 171.422,230.255 z" fill="#FFEFD9"/>
    <path d="M169.692,211.976 L163.202,207.756 L156.711,211.976 L154.981,230.255 C154.981,230.255 156.424,241.507 163.202,241.507 C169.977,241.507 171.422,230.255 171.422,230.255 L169.692,211.976 z" fill-opacity="0" stroke="#797979" stroke-width="4" stroke-linecap="round" stroke-linejoin="round"/>
    <g>
      <path d="M136.458,259.954 L119.257,308.778 C119.257,308.778 110.007,321.214 104.05,319.54 C99.296,318.203 94.292,315.271 96.773,308.89 C106.483,279.54 124.153,235.86 126.899,234.336 L128.405,233.689" fill="#FFEFD9"/>
      <path d="M136.458,259.954 L119.257,308.778 C119.257,308.778 110.007,321.214 104.05,319.54 C99.296,318.203 94.292,315.271 96.773,308.89 C106.483,279.54 124.153,235.86 126.899,234.336 L128.405,233.689" fill-opacity="0" stroke="#797979" stroke-width="4" stroke-linecap="round" stroke-linejoin="round"/>
    </g>
    <g>
      <path d="M188.415,259.954 L209.724,317.206 C209.724,317.206 214.866,321.214 220.823,319.54 C225.577,318.203 230.581,315.271 228.101,308.89 C218.39,279.54 200.72,235.86 197.974,234.336 L196.468,233.689" fill="#FFEFD9"/>
      <path d="M188.415,259.954 L209.724,317.206 C209.724,317.206 214.866,321.214 220.823,319.54 C225.577,318.203 230.581,315.271 228.101,308.89 C218.39,279.54 200.72,235.86 197.974,234.336 L196.468,233.689" fill-opacity="0" stroke="#797979" stroke-width="4" stroke-linecap="round" stroke-linejoin="round"/>
    </g>
    <g>
      <path d="M227.452,307.322 C227.452,307.322 231.388,316.68 226.72,319.68 C222.054,322.68 184.341,334.901 184.341,334.901 L176.565,324.589 L209.565,306.839" fill="#FFEFD9"/>
      <path d="M227.452,307.322 C227.452,307.322 231.388,316.68 226.72,319.68 C222.054,322.68 184.341,334.901 184.341,334.901 L176.565,324.589 L209.565,306.839" fill-opacity="0" stroke="#797979" stroke-width="4" stroke-linecap="round" stroke-linejoin="round"/>
    </g>
    <g>
      <path d="M141.12,231.207 C141.12,231.207 121.329,229.408 118.452,234.336 C111.328,246.539 111.225,277.31 111.225,277.31 L134.913,285.539 L140.866,263.072" fill="#FFFFFF"/>
      <path d="M141.12,231.207 C141.12,231.207 121.329,229.408 118.452,234.336 C111.328,246.539 111.225,277.31 111.225,277.31 L134.913,285.539 L140.866,263.072" fill-opacity="0" stroke="#797979" stroke-width="4" stroke-linecap="round" stroke-linejoin="round"/>
    </g>
    <g>
      <path d="M185.284,231.207 C185.284,231.207 205.075,229.408 207.952,234.336 C215.077,246.539 220.475,275.873 220.475,275.873 L191.493,285.539 L185.538,263.072" fill="#FFFFFF"/>
      <path d="M185.284,231.207 C185.284,231.207 205.075,229.408 207.952,234.336 C215.077,246.539 220.475,275.873 220.475,275.873 L191.493,285.539 L185.538,263.072" fill-opacity="0" stroke="#797979" stroke-width="4" stroke-linecap="round" stroke-linejoin="round"/>
    </g>
    <path d="M214.838,393.651 C210.508,371.715 198.926,338.603 198.926,338.603 L163.201,331.401 L127.478,338.603 C127.478,338.603 115.896,371.715 111.566,393.651 C107.158,415.983 94.066,492.401 94.066,492.401 L232.338,492.401 C232.338,492.401 219.246,415.983 214.838,393.651" fill="#96969E"/>
    <path d="M214.838,393.651 C210.508,371.715 198.926,338.603 198.926,338.603 L163.201,331.401 L127.478,338.603 C127.478,338.603 115.896,371.715 111.566,393.651 C107.158,415.983 94.066,492.401 94.066,492.401 L232.338,492.401 C232.338,492.401 219.246,415.983 214.838,393.651 z" fill-opacity="0" stroke="#797979" stroke-width="4" stroke-linecap="round" stroke-linejoin="round"/>
    <path d="M112.316,492.401 L133.316,373.15 L119.231,492.401 z" fill="#87878D"/>
    <path d="M112.316,492.401 L133.316,373.15 L119.231,492.401 L112.316,492.401 z" fill-opacity="0" stroke="#797979" stroke-width="4" stroke-linecap="round" stroke-linejoin="round"/>
    <path d="M142.551,492.401 L153.485,373.151 L150.067,492.401 z" fill="#87878D"/>
    <path d="M142.551,492.401 L153.485,373.151 L150.067,492.401 L142.551,492.401 z" fill-opacity="0" stroke="#797979" stroke-width="4" stroke-linecap="round" stroke-linejoin="round"/>
    <path d="M214.088,492.401 L193.088,373.15 L207.172,492.401 z" fill="#87878D"/>
    <path d="M214.088,492.401 L193.088,373.15 L207.172,492.401 L214.088,492.401 z" fill-opacity="0" stroke="#797979" stroke-width="4" stroke-linecap="round" stroke-linejoin="round"/>
    <path d="M183.854,492.401 L172.92,373.151 L176.338,492.401 z" fill="#87878D"/>
    <path d="M183.854,492.401 L172.92,373.151 L176.338,492.401 L183.854,492.401 z" fill-opacity="0" stroke="#797979" stroke-width="4" stroke-linecap="round" stroke-linejoin="round"/>
    <g>
      <path d="M138.078,256.852 L128.985,308.901 C128.985,308.901 116.575,355.346 116.604,357.78 C116.634,360.212 209.77,360.212 209.799,357.78 C209.829,355.346 197.418,308.901 197.418,308.901 L188.329,256.852" fill="#FFFFFF"/>
      <path d="M138.078,256.852 L128.985,308.901 C128.985,308.901 116.575,355.346 116.604,357.78 C116.634,360.212 209.77,360.212 209.799,357.78 C209.829,355.346 197.418,308.901 197.418,308.901 L188.329,256.852" fill-opacity="0" stroke="#797979" stroke-width="4" stroke-linecap="round" stroke-linejoin="round"/>
    </g>
    <path d="M185.356,236.23 L163.202,250.935 L141.049,236.23 C141.049,236.23 137.535,251.307 146.868,258.836 C155.604,265.881 159.96,266.614 160.481,266.001 C159.934,266.67 151.157,278.939 150.309,288.405 C149.42,298.342 150.536,325.418 150.536,325.418 C150.536,325.418 162.233,289.822 162.868,281.873 C163.006,280.15 163.399,280.15 163.536,281.873 C164.172,289.822 175.868,325.418 175.868,325.418 C175.868,325.418 176.983,298.342 176.094,288.405 C175.249,278.939 166.469,266.67 165.922,266.001 C166.446,266.614 170.801,265.881 179.536,258.836 C188.87,251.307 185.356,236.23 185.356,236.23" fill="#96969E"/>
    <path d="M185.356,236.23 L163.202,250.935 L141.049,236.23 C141.049,236.23 137.535,251.307 146.868,258.836 C155.604,265.881 159.96,266.614 160.481,266.001 C159.934,266.67 151.157,278.939 150.309,288.405 C149.42,298.342 150.536,325.418 150.536,325.418 C150.536,325.418 162.233,289.822 162.868,281.873 C163.006,280.15 163.399,280.15 163.536,281.873 C164.172,289.822 175.868,325.418 175.868,325.418 C175.868,325.418 176.983,298.342 176.094,288.405 C175.249,278.939 166.469,266.67 165.922,266.001 C166.446,266.614 170.801,265.881 179.536,258.836 C188.87,251.307 185.356,236.23 185.356,236.23 z" fill-opacity="0" stroke="#797979" stroke-width="4" stroke-linecap="round" stroke-linejoin="round"/>
    <path d="M153.868,239.42 L163.202,258.086 L172.536,239.42 z" fill="#FFFFFF"/>
    <path d="M153.868,239.42 L163.202,258.086 L172.536,239.42 L153.868,239.42 z" fill-opacity="0" stroke="#797979" stroke-width="4" stroke-linecap="round" stroke-linejoin="round"/>
    <path d="M154.95,230.605 L163.202,258.086 L133.535,230.753 C133.535,230.753 154.007,227.465 154.95,230.605" fill="#96969E"/>
    <path d="M136.708,232.401 L158.819,253.531 L161.582,250.638 L139.472,229.508 z" fill="#FFFFFF"/>
    <path d="M154.95,230.605 L163.202,258.086 L133.535,230.753 C133.535,230.753 154.007,227.465 154.95,230.605 z" fill-opacity="0" stroke="#797979" stroke-width="4" stroke-linecap="round" stroke-linejoin="round"/>
    <path d="M171.454,230.605 L163.202,258.086 L192.87,230.753 C192.87,230.753 172.397,227.465 171.454,230.605" fill="#96969E"/>
    <path d="M189.696,232.401 L167.585,253.531 L164.821,250.638 L186.932,229.508 z" fill="#FFFFFF"/>
    <path d="M171.454,230.605 L163.202,258.086 L192.87,230.753 C192.87,230.753 172.397,227.465 171.454,230.605 z" fill-opacity="0" stroke="#797979" stroke-width="4" stroke-linecap="round" stroke-linejoin="round"/>
    <g>
      <path d="M169.293,270.502 L157.11,270.502 L157.11,265.502 L169.293,265.502 z" fill="#FFFFFF"/>
      <path d="M169.293,270.502 L157.11,270.502 L157.11,265.502 L169.293,265.502 z" fill-opacity="0" stroke="#797979" stroke-width="4" stroke-linecap="round" stroke-linejoin="round"/>
    </g>
    <g>
      <path d="M102.79,118.982 C102.79,118.982 75.492,110.005 72.594,135.283 C70.89,150.153 79.741,158.007 99.496,160.56" fill="#FFEFD9"/>
      <path d="M102.79,118.982 C102.79,118.982 75.492,110.005 72.594,135.283 C70.89,150.153 79.741,158.007 99.496,160.56" fill-opacity="0" stroke="#797979" stroke-width="4" stroke-linecap="round" stroke-linejoin="round"/>
    </g>
    <g>
      <path d="M83.093,137.873 C83.093,137.873 86.952,136.601 90.443,137.021" fill="#FFEFD9"/>
      <path d="M83.093,137.873 C83.093,137.873 86.952,136.601 90.443,137.021" fill-opacity="0" stroke="#797979" stroke-width="4" stroke-linecap="round" stroke-linejoin="round"/>
    </g>
    <g>
      <path d="M244.085,135.185 C244.085,135.185 272.706,132.62 269.808,157.898 C268.103,172.768 257.702,178.416 237.882,176.43" fill="#FFEFD9"/>
      <path d="M244.085,135.185 C244.085,135.185 272.706,132.62 269.808,157.898 C268.103,172.768 257.702,178.416 237.882,176.43" fill-opacity="0" stroke="#797979" stroke-width="4" stroke-linecap="round" stroke-linejoin="round"/>
    </g>
    <g>
      <path d="M258.997,158.044 C258.997,158.044 255.524,155.932 252.032,155.553" fill="#FFEFD9"/>
      <path d="M258.997,158.044 C258.997,158.044 255.524,155.932 252.032,155.553" fill-opacity="0" stroke="#797979" stroke-width="4" stroke-linecap="round" stroke-linejoin="round"/>
    </g>
    <path d="M162.321,224.015 C42.348,210.256 76.393,15.922 184.76,28.35 C293.126,40.777 282.296,237.772 162.321,224.015" fill="#FFEFD9"/>
    <path d="M162.321,224.015 C42.348,210.256 76.393,15.922 184.76,28.35 C293.126,40.777 282.296,237.772 162.321,224.015 z" fill-opacity="0" stroke="#797979" stroke-width="4" stroke-linecap="round" stroke-linejoin="round"/>
    <path d="M268.856,109.231 C264.965,95.335 263.51,47.766 237.625,36.75 C237.639,36.59 237.645,36.501 237.645,36.501 C203.741,1.994 144.081,8.64 119.284,32.978 C100.739,51.178 94.891,77.75 84.999,84.125 C115.895,82.991 163.342,65.105 181.543,50.643 C178.563,57.424 176.413,66.229 169.389,73.593 C203.124,78.453 220.216,68.44 228.86,57.599 C238.316,77.36 257.513,103.503 268.856,109.231" fill="#99877B"/>
    <path d="M105.03,51.749 C96.66,65.895 91.779,79.754 84.999,84.124 C115.894,82.99 163.342,65.104 181.543,50.643 C178.563,57.424 176.412,66.228 169.389,73.593 C203.121,78.452 220.215,68.44 228.86,57.601 C238.315,77.36 257.514,103.503 268.856,109.23 C266.805,101.901 265.432,85.202 260.791,69.44" fill-opacity="0" stroke="#797979" stroke-width="4" stroke-linecap="round" stroke-linejoin="round"/>
    <path d="M165.325,162.37 C165.325,162.37 163.317,168.179 168.573,168.446" fill-opacity="0" stroke="#797979" stroke-width="4" stroke-linecap="round" stroke-linejoin="round"/>
    <g>
      <path d="M220.106,147.319 C220.106,147.319 230.051,154.97 231.127,161.395 C232.067,167 227.379,169.149 223.68,164.303 C221.829,161.879 221.551,159.717 221.551,159.717" fill="#B4E2EB"/>
      <path d="M220.106,147.319 C220.106,147.319 230.051,154.97 231.127,161.395 C232.067,167 227.379,169.149 223.68,164.303 C221.829,161.879 221.551,159.717 221.551,159.717" fill-opacity="0" stroke="#797979" stroke-width="4" stroke-linecap="round" stroke-linejoin="round"/>
    </g>
    <path d="M166.251,179.94 C152.536,178.467 133.095,195.082 144.106,204.387 C147.101,206.914 155.546,206.417 163.53,207.274 C171.505,208.18 179.642,210.509 183.11,208.697 C195.892,202.02 179.966,181.413 166.251,179.94" fill="#F4ACA6"/>
    <path d="M166.251,179.94 C152.536,178.467 133.095,195.082 144.106,204.387 C147.101,206.914 155.546,206.417 163.53,207.274 C171.505,208.18 179.642,210.509 183.11,208.697 C195.892,202.02 179.966,181.413 166.251,179.94 z" fill-opacity="0" stroke="#797979" stroke-width="4" stroke-linecap="round" stroke-linejoin="round"/>
    <path d="M200.895,136.135 C200.895,136.135 202.09,142.176 208.284,142.861 C213.502,143.438 216.538,141.006 216.538,141.006" fill-opacity="0" stroke="#797979" stroke-width="4" stroke-linecap="round" stroke-linejoin="round"/>
    <path d="M143.631,129.807 C143.631,129.807 141.146,135.443 134.954,134.758 C129.735,134.181 127.302,131.146 127.302,131.146" fill-opacity="0" stroke="#797979" stroke-width="4" stroke-linecap="round" stroke-linejoin="round"/>
    <path d="M128.533,86.888 C128.533,86.888 133.581,81.41 140.64,80.512 C146.272,79.796 148.85,82.091 148.85,82.091" fill-opacity="0" stroke="#797979" stroke-width="4" stroke-linecap="round" stroke-linejoin="round"/>
    <path d="M224.668,101.733 C224.668,101.733 217.238,102.298 211.463,98.141 C206.858,94.828 206.533,91.39 206.533,91.39" fill-opacity="0" stroke="#797979" stroke-width="4" stroke-linecap="round" stroke-linejoin="round"/>
    <g>
      <path d="M121.053,281.214 C121.296,263.972 120.919,245.417 120.919,245.417 L103.478,244.321 C103.478,244.321 92.343,302.069 96.431,312.988 C98.906,319.592 112.786,327.872 119.257,308.778 L128.259,283.228" fill="#FFEFD9"/>
      <path d="M121.053,281.214 C121.296,263.972 120.919,245.417 120.919,245.417 L103.478,244.321 C103.478,244.321 92.343,302.069 96.431,312.988 C98.906,319.592 112.786,327.872 119.257,308.778 L128.259,283.228" fill-opacity="0" stroke="#797979" stroke-width="4" stroke-linecap="round" stroke-linejoin="round"/>
    </g>
    <g>
      <path d="M120.862,290.039 C120.948,287.209 121.009,284.231 121.052,281.214" fill="#FFEFD9"/>
      <path d="M120.862,290.039 C120.948,287.209 121.009,284.231 121.052,281.214" fill-opacity="0" stroke="#797979" stroke-width="4" stroke-linecap="round" stroke-linejoin="round"/>
    </g>
    <g>
      <path d="M120.952,247.219 C132.33,244.929 132.538,226.315 132.739,225.607 C132.739,225.607 139.079,214.849 140.643,212.101 C144.166,205.906 139.47,203.802 135.905,207.103 C133.357,209.46 126.604,216.706 126.604,216.706 C126.604,216.706 128.301,207.204 128.868,199.013 C129.436,190.821 122.239,191.724 120.749,197.081 C119.631,201.103 115.27,214.802 115.27,214.802 C115.27,214.802 113.403,201.747 110.968,193.255 C108.841,185.841 102.191,188.743 102.391,195.765 C102.506,199.804 103.155,215.213 103.155,215.213 C103.155,215.213 99.897,207.065 95.322,198.011 C90.847,189.156 84.419,194.839 85.706,200.167 C86.921,205.197 94.493,228.81 94.493,228.81 C94.493,228.81 92.513,227.904 87.102,224.978 C80.403,221.363 73.766,226.578 81.972,233.732 C93.692,243.952 102.077,248.72 102.077,248.72 L101.697,254.112" fill="#FFEFD9"/>
      <path d="M120.952,247.219 C132.33,244.929 132.538,226.315 132.739,225.607 C132.739,225.607 139.079,214.849 140.643,212.101 C144.166,205.906 139.47,203.802 135.905,207.103 C133.357,209.46 126.604,216.706 126.604,216.706 C126.604,216.706 128.301,207.204 128.868,199.013 C129.436,190.821 122.239,191.724 120.749,197.081 C119.631,201.103 115.27,214.802 115.27,214.802 C115.27,214.802 113.403,201.747 110.968,193.255 C108.841,185.841 102.191,188.743 102.391,195.765 C102.506,199.804 103.155,215.213 103.155,215.213 C103.155,215.213 99.897,207.065 95.322,198.011 C90.847,189.156 84.419,194.839 85.706,200.167 C86.921,205.197 94.493,228.81 94.493,228.81 C94.493,228.81 92.513,227.904 87.102,224.978 C80.403,221.363 73.766,226.578 81.972,233.732 C93.692,243.952 102.077,248.72 102.077,248.72 L101.697,254.112" fill-opacity="0" stroke="#797979" stroke-width="4" stroke-linecap="round" stroke-linejoin="round"/>
    </g>
    <path d="M9.423,176.931 C15.847,180.67 12.859,185.889 19.079,189.438 C25.3,192.986 29.052,186.954 33.495,190.363 C37.939,193.771 38.39,201.836 42.148,202.309 C45.907,202.783 47.778,199.57 51.954,200.818 C56.132,202.065 55.509,207.21 59.649,207.276" fill-opacity="0" stroke="#F5DEF2" stroke-width="8" stroke-linecap="round" stroke-linejoin="round"/>
    <path d="M17.078,158.155 C23.263,162.28 19.959,167.307 25.951,171.229 C31.943,175.151 36.057,169.362 40.282,173.036 C44.509,176.71 44.464,184.788 48.187,185.49 C51.911,186.192 53.976,183.1 58.067,184.602 C62.161,186.103 61.222,191.2 65.351,191.52" fill-opacity="0" stroke="#F5DEF2" stroke-width="8" stroke-linecap="round" stroke-linejoin="round"/>
    <path d="M6,198.769 C12.86,201.63 10.585,207.198 17.219,209.896 C23.852,212.594 26.777,206.122 31.63,208.918 C36.482,211.71 37.991,219.648 41.78,219.622 C45.568,219.594 47.001,216.165 51.306,216.853 C55.61,217.538 55.668,222.721 59.781,222.243" fill-opacity="0" stroke="#F5DEF2" stroke-width="8" stroke-linecap="round" stroke-linejoin="round"/>
  </g>
</svg>