<?xml version="1.0" encoding="UTF-8" standalone="no"?>
<svg xmlns:dc="http://purl.org/dc/elements/1.1/" xmlns:cc="http://creativecommons.org/ns#" xmlns:rdf="http://www.w3.org/1999/02/22-rdf-syntax-ns#" xmlns:svg="http://www.w3.org/2000/svg" xmlns="http://www.w3.org/2000/svg" xmlns:sodipodi="http://sodipodi.sourceforge.net/DTD/sodipodi-0.dtd" xmlns:inkscape="http://www.inkscape.org/namespaces/inkscape" version="1.1" x="0" y="0" width="475" height="715" viewBox="0 0 475 715" id="svg18235" inkscape:version="0.91 r13725" sodipodi:docname="African-officerworkerfemale3.svg">
  <metadata id="metadata18344">
    <rdf:RDF>
      <cc:Work rdf:about="">
        <dc:format>image/svg+xml</dc:format>
        <dc:type rdf:resource="http://purl.org/dc/dcmitype/StillImage"/>
        <dc:title/>
        <dc:description>remix by j4p4n</dc:description>
        <cc:license rdf:resource="http://creativecommons.org/publicdomain/zero/1.0/"/>
      </cc:Work>
      <cc:License rdf:about="http://creativecommons.org/publicdomain/zero/1.0/">
        <cc:permits rdf:resource="http://creativecommons.org/ns#Reproduction"/>
        <cc:permits rdf:resource="http://creativecommons.org/ns#Distribution"/>
        <cc:permits rdf:resource="http://creativecommons.org/ns#DerivativeWorks"/>
      </cc:License>
    </rdf:RDF>
  </metadata>
  <defs id="defs18342"/>
  <sodipodi:namedview pagecolor="#ffffff" bordercolor="#666666" borderopacity="1" objecttolerance="10" gridtolerance="10" guidetolerance="10" inkscape:pageopacity="0" inkscape:pageshadow="2" inkscape:window-width="1916" inkscape:window-height="1035" id="namedview18340" showgrid="false" inkscape:zoom="0.7660845" inkscape:cx="316.77966" inkscape:cy="360.28184" inkscape:window-x="4" inkscape:window-y="1" inkscape:window-maximized="1" inkscape:current-layer="Layer_1"/>
  <g id="Layer_1" transform="translate(0,3)">
    <g id="g18886" transform="translate(2,0)">
      <g id="g18238">
        <path style="fill:#3e302c;fill-opacity:1" id="path18240" d="M 340.912,353.268 C 398.768,347.124 424.02,307.1 424.02,307.1 440.816,277.152 456.832,213.424 456.832,213.424 474.28,120.6 404.684,18.552 365.104,23.72 354.152,5.032 312.98,-3.556 272.816,11.092 c -40.16,14.644 -129.332,79.704 -106.28,202.332 0,0 9.32,56.508 37.984,98.176 19.9,28.932 51.5,36.024 77.936,41.668" inkscape:connector-curvature="0"/>
        <path style="fill:#82736b;fill-opacity:1" id="path18242" d="m 280.392,30.092 c 38.772,-14.644 78.52,-6.056 89.092,12.628 10.104,-6.22 54.636,17.876 75.456,69.62 C 427.948,47.728 374.536,17.076 363.268,24.004 352.7,5.316 312.952,-3.272 274.176,11.38 235.408,26.024 142.732,82.424 164.98,205.056 l 3.228,7 C 158.52,96.052 243.348,44.08 280.392,30.092" inkscape:connector-curvature="0"/>
      </g>
      <path style="fill:#82736b;fill-opacity:1" id="path18244" d="m 233.044,44.768 c 0,0 32.98,31.508 88.076,31.692 0,0 15.648,4.336 -12.56,6.064 -28.22,1.752 -77.308,-2.804 -95.188,-14.32 l 19.672,-23.436" inkscape:connector-curvature="0"/>
      <path id="path18246" d="m 342.284,353.124 c 52.736,-8.5 70.832,-30.708 81.236,-46.772 19.748,-30.5 33.312,-92.928 33.312,-92.928 C 474.28,120.6 404.684,18.552 365.104,23.72 354.152,5.032 312.98,-3.556 272.816,11.092 c -40.16,14.644 -129.332,79.704 -106.28,202.332 0,0 11.988,60.64 34.984,94.676 12.5,18.5 30.5,35.524 80.936,45.168" inkscape:connector-curvature="0" style="fill-opacity:0;stroke:#1a1919;stroke-width:5.5999999;stroke-linecap:round;stroke-linejoin:round"/>
      <path id="path18248" d="m 212.244,709.6 c 4.668,-29.332 11.112,-86.524 11.112,-86.524 L 206.172,513.424 c 0,0 -49.892,66.968 -71.528,71.324 -16.836,3.38 -22.192,-3.284 -28.144,-19.928 -5.228,-14.66 -15,-86.208 -15.588,-88.528 -1.084,-4.316 5.48,-13.46 5.48,-13.46 l 29.44,-16.04 c 4.352,-1.652 8.16,1.356 8.16,1.356 0,0 4.18,23.492 8.448,46.908 l 2.316,9.288 c 0,0 21.172,-47.884 28.86,-59.596 10.66,-16.256 22.588,-22.108 22.588,-22.108 23.6,-14.448 75.996,-35.06 75.996,-35.06 0,0 10.844,-13.252 22.22,-18.076 l 34.192,-1.44 c 11.38,4.824 22.224,18.076 22.224,18.076 0,0 82.724,20.792 98.724,52.792 8.412,16.836 20.216,107.98 17.548,152.312 l -71.772,31.832 c 0,0 16.22,57.192 20.888,86.524 l -203.98,0" inkscape:connector-curvature="0" style="fill:#8a8b8a"/>
      <path id="path18250" d="m 388.832,620.78 c 7.78,-1.532 30.804,-74.984 30.804,-74.984 -32.444,17.408 -73.284,27.78 -117.664,27.78 -32.032,0 -62.2,-5.428 -88.72,-14.984 l 10.104,64.484 c 0,0 -6.444,57.192 -11.112,86.524 l 203.98,0 c -4.668,-29.332 -16,-55.332 -16,-55.332 L 388.832,620.78" inkscape:connector-curvature="0" style="fill:#717271"/>
      <path style="fill:#b18767;fill-opacity:1" id="path18252" d="m 289.66,382.764 1.428,-4.304 c 3.652,-6 6.372,-14.768 6.776,-20.508 l 27.432,-0.264 c 0.38,5.656 3.076,16.112 6.784,22.208 l 1.908,3.244 -22.404,31.184 c 0,0 -24.568,-28.1 -21.924,-31.56" inkscape:connector-curvature="0"/>
      <path style="fill:#a1785a;fill-opacity:1" id="path18254" d="m 296.436,358.412 30.92,0 0,7.504 c 0,0 -9.436,14.624 -33.58,9.624 l 2.66,-17.128" inkscape:connector-curvature="0"/>
      <path id="path18256" d="M 311.692,576.724 C 333.76,493.34 338.92,425.912 332.732,380.968 l -0.652,-0.18 c 0,0 0.46,8.776 -15.304,16.812 l -5.192,2.252 -5.196,-2.252 c -15.76,-8.036 -15.3,-16.812 -15.3,-16.812 l -0.656,0.18 c -5.656,41.08 1.128,116.376 19.188,193.968 l 2.072,1.788" inkscape:connector-curvature="0" style="fill:#fffffe"/>
      <path id="path18258" d="m 291.952,424.124 19.416,-22.216 19.588,22.568 -20.288,-7.524 -18.716,7.172" inkscape:connector-curvature="0" style="fill:#cbcccb"/>
      <g id="g18260">
        <path id="path18262" d="m 350.836,386.14 29.064,31 -21.208,13.376 21.344,18.14 c 0,0 -33.76,75.512 -67.516,138.28 m -40.192,-200.796 -29.06,31 21.204,13.376 -21.344,18.14 c 0,0 32.632,87.12 69.06,148.948" inkscape:connector-curvature="0" style="fill-opacity:0;stroke:#1a1919;stroke-width:4;stroke-linecap:round;stroke-linejoin:round"/>
        <path id="path18264" d="m 197.904,460.672 25.452,162.404 c 0,0 -6.444,57.192 -11.112,86.524 m 215.66,-254.456 -23.36,149.104 m -9.208,18.828 c 0,0 16.22,57.192 20.888,86.524" inkscape:connector-curvature="0" style="fill-opacity:0;stroke:#1a1919;stroke-width:4.80000019;stroke-linecap:round;stroke-linejoin:round"/>
        <path id="path18266" d="m 328.612,368.064 c 11.38,4.824 22.224,18.076 22.224,18.076 0,0 82.724,20.792 98.724,52.792 8.412,16.836 20.216,107.98 17.548,152.312 M 296.78,357.952 c -0.432,5.74 -2.4,17.016 -6.348,23.016 -6.184,44.944 2.508,132.312 24.588,215.7" inkscape:connector-curvature="0" style="fill-opacity:0;stroke:#1a1919;stroke-width:5.5999999;stroke-linecap:round;stroke-linejoin:round"/>
        <path id="path18268" d="m 315.02,596.668 0,110.908" inkscape:connector-curvature="0" style="fill-opacity:0;stroke:#1a1919;stroke-width:4;stroke-linecap:round;stroke-linejoin:round"/>
      </g>
      <path id="path18270" d="m 310.584,579.112 c 22.068,-83.388 28.336,-153.2 22.148,-198.144 -3.944,-6 -5.916,-17.276 -6.344,-23.016" inkscape:connector-curvature="0" style="fill-opacity:0;stroke:#1a1919;stroke-width:5.5999999;stroke-linecap:round;stroke-linejoin:round"/>
      <path id="path18272" d="M 311.584,401.036 C 295.82,393 291.088,380.788 291.088,380.788 m 40.992,0 c 0,0 -4.732,12.212 -20.496,20.248 l -22.92,26.576 m 22.92,-26.576 22.916,26.576" inkscape:connector-curvature="0" style="fill-opacity:0;stroke:#1a1919;stroke-width:4.80000019;stroke-linecap:round;stroke-linejoin:round"/>
      <path id="path18274" d="M 413.12,666.672 257.004,649.348 279.228,449.076 435.34,466.388 413.12,666.672" inkscape:connector-curvature="0" style="fill:#fff156"/>
      <path id="path18276" d="M 413.12,666.672 257.004,649.348 279.228,449.076 435.34,466.388 413.12,666.672 Z" inkscape:connector-curvature="0" style="fill-opacity:0;stroke:#1a1919;stroke-width:4.80000019;stroke-linecap:round;stroke-linejoin:round"/>
      <path style="fill:#b18767;fill-opacity:1" id="path18278" d="m 328.068,559.112 -8.408,-2.02 c 0,0 -5.976,-18.764 -13.344,-23.304 -10.064,-6.2 -37.72,-5.124 -43.812,-7.448 -6.092,-2.32 -7.836,3.768 -2.9,9.572 0,0 -10.732,-1.74 -16.828,0.292 -2.704,0.904 -3.172,9.884 -1.164,12.476 4.068,5.216 8.704,6.672 8.704,6.672 0,0 0.296,31.04 7.836,36.844 8.188,6.296 60.056,6.1 60.056,6.1 l 11.024,2.328" inkscape:connector-curvature="0"/>
      <path id="path18280" d="m 328.068,559.112 -8.408,-2.02 c 0,0 -5.976,-18.764 -13.344,-23.304 -10.064,-6.2 -37.72,-5.124 -43.812,-7.448 -6.092,-2.32 -7.836,3.768 -2.9,9.572 0,0 -10.732,-1.74 -16.828,0.292 -2.704,0.904 -3.172,9.884 -1.164,12.476 4.068,5.216 8.704,6.672 8.704,6.672 0,0 0.296,31.04 7.836,36.844 8.188,6.296 60.056,6.1 60.056,6.1 l 11.024,2.328" inkscape:connector-curvature="0" style="fill-opacity:0;stroke:#1a1919;stroke-width:5.5999999;stroke-linecap:round;stroke-linejoin:round"/>
      <path id="path18282" d="m 258.152,535.624 39.46,7.264" inkscape:connector-curvature="0" style="fill-opacity:0;stroke:#1a1919;stroke-width:4.80000019;stroke-linecap:round;stroke-linejoin:round"/>
      <path id="path18284" d="m 467.108,591.244 c -1.22,20.312 0,38.628 -28.56,38.424 -20.536,-0.144 -108.084,-23.28 -108.084,-23.28 l -2.076,-50.516 107.68,15.088 31.04,20.284" inkscape:connector-curvature="0" style="fill:#8a8b8a"/>
      <g id="g18286">
        <path id="path18288" d="m 330.464,606.388 -2.076,-50.516 107.68,15.088 m 31.04,20.284 c -1.22,20.312 0.74,38.612 -28.56,38.424 -20.536,-0.132 -108.084,-23.28 -108.084,-23.28" inkscape:connector-curvature="0" style="fill-opacity:0;stroke:#1a1919;stroke-width:5.5999999;stroke-linecap:round;stroke-linejoin:round"/>
        <path style="fill:#b18767;fill-opacity:1" id="path18290" d="m 100.68,478.044 -9.568,-35.912 c 0,0 -21.632,-5.36 -51.86,-34.564 0,0 -19.18,-13.044 -34.112,-21.504 -9.82,-5.58 4.868,-7.572 4.868,-7.572 0,0 -6.228,-1.1 -5.372,-4.644 1.192,-4.92 9.448,-4.296 9.448,-4.296 0,0 -2.312,-3.56 1.932,-5.936 4.188,-2.328 10.968,-0.484 10.968,-0.484 0,0 -1.536,-4.056 2.664,-5.524 9.796,-3.448 38.288,8.58 54.936,25.172 l 5.048,0.432 c -1.1,-2.024 -1.716,-6.312 -1.896,-8.688 -0.68,-8.828 0.42,-11.048 3.172,-11.812 2.756,-0.792 7.384,2.812 10.312,7.42 2.92,4.612 10.268,15.084 13.748,19.16 2.656,3.124 11.984,17.772 9.756,32.276 l -4.312,14.292 8.524,22.108 c 0,0 -3.056,7.112 -11.692,12.56 -8.636,5.452 -16.564,7.516 -16.564,7.516" inkscape:connector-curvature="0"/>
        <path id="path18292" d="m 144.756,504.344 c 0,0 21.172,-47.884 28.86,-59.596 10.66,-16.256 22.588,-22.108 22.588,-22.108 23.6,-14.448 75.996,-35.06 75.996,-35.06 0,0 10.844,-13.252 22.22,-18.076 m -168.588,77.288 c 4.352,-1.652 8.16,1.356 8.16,1.356 0,0 12.236,68.768 16.204,88.244 m -53.804,-73.56 c 0,0 -6.564,9.144 -5.48,13.46 0.588,2.32 10.36,73.868 15.588,88.528 5.952,16.644 11.308,23.308 28.144,19.928 21.636,-4.356 70.964,-70.568 70.964,-70.568 M 97.796,443.296 c 0,0 -27.952,-2.704 -59.168,-34.544 0,0 -18.736,-12.108 -32.268,-23.188 -9.768,-8 3.664,-8 3.664,-8 0,0 -6.708,-0.292 -5.768,-3.844 1.324,-4.992 9.648,-4.18 9.648,-4.18 0,0 -2.232,-3.66 2.144,-5.964 4.292,-2.264 11.14,-0.24 11.14,-0.24 0,0 -1.412,-4.124 2.864,-5.524 10.036,-3.272 34.856,7.064 54.856,24.212 l 5.216,1.04 m 27.784,54.584 c 13.848,-18.176 1.452,-41.424 -1.988,-45.664 -3.428,-4.224 -11.984,-15.072 -15.044,-19.672 -3.664,-5.5 -6.284,-10.352 -9.088,-9.616 -2.812,0.716 -4.48,2.784 -2.88,11.616 1.216,6.752 8.4,17.984 8.4,17.984 0,0 -5.472,12.516 -2.544,24.264" inkscape:connector-curvature="0" style="fill-opacity:0;stroke:#1a1919;stroke-width:5.5999999;stroke-linecap:round;stroke-linejoin:round"/>
        <path id="path18294" d="m 83.776,382.312 c 0,0 -20.284,0.804 -41.368,19.788 M 9.78,377.312 c 0,0 20.248,6.008 36.144,19.752 m -32.236,-27.5 c 0,0 20.076,2.784 45.132,20.676 M 26.768,363.092 c 0.46,0.056 22.576,2.972 41.868,21.972" inkscape:connector-curvature="0" style="fill-opacity:0;stroke:#1a1919;stroke-width:4.80000019;stroke-linecap:round;stroke-linejoin:round"/>
      </g>
      <path id="path18296" d="m 120.572,433.52 c 0,0 1.6,15.028 7.344,27.148 M 93.008,443.296 c 0,0 5.352,21.62 7.672,34.748 m -9.08,2.56 c 26.58,0.808 43.848,-24.3 42.508,-31.808" inkscape:connector-curvature="0" style="fill-opacity:0;stroke:#1a1919;stroke-width:5.5999999;stroke-linecap:round;stroke-linejoin:round"/>
      <path style="fill:#b18767;fill-opacity:1" id="path18298" d="m 195.972,219.204 c -5.748,33.968 13.672,72.208 29.364,93.7 23.508,32.184 67.472,50.316 86.436,50.316 18.964,0 62.936,-18.132 86.436,-50.316 14.98,-20.512 25.38,-56.216 28.688,-87.42 -30.952,-42.004 -64.18,-117.932 -61.592,-142.764 0,0 -14.408,17.924 -96.408,46.26 -42.16,14.572 -63.912,36.992 -72.924,90.224" inkscape:connector-curvature="0"/>
      <path id="path18300" d="m 289.036,212.056 c 0,15.772 -11.788,28.568 -26.332,28.568 -14.552,0 -26.336,-12.796 -26.336,-28.568 0,-15.788 11.784,-28.576 26.336,-28.576 14.544,0 26.332,12.788 26.332,28.576" inkscape:connector-curvature="0" style="fill:#fffffe"/>
      <path id="path18302" d="m 236.128,207.376 c 0,0 2.772,-18.096 21.608,-23.116 22.044,-5.88 27.696,14.068 27.696,14.068 0,0 -11.48,-7.648 -25.152,-4.52 -12.892,2.948 -24.152,13.568 -24.152,13.568" inkscape:connector-curvature="0" style="fill:#d8e9f1"/>
      <path id="path18304" d="m 334.516,212.056 c 0,15.772 11.788,28.568 26.332,28.568 14.552,0 26.332,-12.796 26.332,-28.568 0,-15.788 -11.78,-28.576 -26.332,-28.576 -14.544,0 -26.332,12.788 -26.332,28.576" inkscape:connector-curvature="0" style="fill:#fffffe"/>
      <path id="path18306" d="m 387.42,207.376 c 0,0 -2.768,-18.096 -21.608,-23.116 -22.048,-5.88 -27.696,14.068 -27.696,14.068 0,0 11.476,-7.648 25.152,-4.52 12.896,2.948 24.152,13.568 24.152,13.568" inkscape:connector-curvature="0" style="fill:#d8e9f1"/>
      <path style="fill:#c08a8b;fill-opacity:1" id="path18308" d="m 211.916,251.404 c 0,5.96 9.52,10.788 21.264,10.788 11.744,0 21.268,-4.828 21.268,-10.788 0,-5.956 -9.524,-10.78 -21.268,-10.78 -11.744,0 -21.264,4.824 -21.264,10.78" inkscape:connector-curvature="0"/>
      <path style="fill:#c08a8b;fill-opacity:1" id="path18310" d="m 368.788,251.404 c 0,5.96 9.52,10.788 21.264,10.788 11.736,0 21.268,-4.828 21.268,-10.788 0,-5.956 -9.532,-10.78 -21.268,-10.78 -11.744,0 -21.264,4.824 -21.264,10.78" inkscape:connector-curvature="0"/>
      <path id="path18312" d="m 286.444,199.956 c 0,0 -6.924,-23.312 -28.552,-17.836 -23.644,6.004 -21.7,38.276 -21.7,38.276" inkscape:connector-curvature="0" style="fill-opacity:0;stroke:#1a1919;stroke-width:5.5999999;stroke-linecap:round;stroke-linejoin:round"/>
      <path id="path18314" d="m 235.316,211.828 -7.712,-1.816" inkscape:connector-curvature="0" style="fill-opacity:0;stroke:#1a1919;stroke-width:4.80000019;stroke-linecap:round;stroke-linejoin:round"/>
      <path id="path18316" d="m 337.104,199.956 c 0,0 6.928,-23.312 28.556,-17.836 23.644,6.004 21.7,38.276 21.7,38.276" inkscape:connector-curvature="0" style="fill-opacity:0;stroke:#1a1919;stroke-width:5.5999999;stroke-linecap:round;stroke-linejoin:round"/>
      <path id="path18318" d="m 388.236,211.828 7.708,-1.816" inkscape:connector-curvature="0" style="fill-opacity:0;stroke:#1a1919;stroke-width:4.80000019;stroke-linecap:round;stroke-linejoin:round"/>
      <path id="path18320" d="m 282.196,214.1 c 0,12.276 -5.956,22.236 -13.296,22.236 -7.344,0 -13.308,-9.96 -13.308,-22.236 0,-12.296 5.964,-22.256 13.308,-22.256 7.34,0 13.296,9.96 13.296,22.256" inkscape:connector-curvature="0" style="fill:#1a1919"/>
      <path id="path18322" d="m 281.676,205.804 c 0,2.632 -2.112,4.764 -4.724,4.764 -2.608,0 -4.716,-2.132 -4.716,-4.764 0,-2.644 2.108,-4.78 4.716,-4.78 2.612,0 4.724,2.136 4.724,4.78" inkscape:connector-curvature="0" style="fill:#fffffe"/>
      <path id="path18324" d="m 341.36,214.1 c 0,12.276 5.952,22.236 13.292,22.236 7.348,0 13.304,-9.96 13.304,-22.236 0,-12.296 -5.956,-22.256 -13.304,-22.256 -7.34,0 -13.292,9.96 -13.292,22.256" inkscape:connector-curvature="0" style="fill:#1a1919"/>
      <path id="path18326" d="m 367.436,205.804 c 0,2.632 -2.112,4.764 -4.724,4.764 -2.604,0 -4.716,-2.132 -4.716,-4.764 0,-2.644 2.112,-4.78 4.716,-4.78 2.612,0 4.724,2.136 4.724,4.78" inkscape:connector-curvature="0" style="fill:#fffffe"/>
      <path id="path18328" d="m 195.972,219.204 c -5.748,33.968 13.672,72.208 29.364,93.7 23.508,32.184 67.472,50.316 86.436,50.316 18.964,0 62.936,-18.132 86.436,-50.316 14.98,-20.512 25.38,-56.216 28.688,-87.42 -30.952,-42.004 -64.18,-117.932 -61.592,-142.764 0,0 -14.408,17.924 -96.408,46.26 -42.16,14.572 -63.912,36.992 -72.924,90.224 z" inkscape:connector-curvature="0" style="fill-opacity:0;stroke:#1a1919;stroke-width:5.5999999;stroke-linecap:round;stroke-linejoin:round"/>
      <path id="path18330" d="m 340.648,161.048 c 7.64,-10.412 41.64,-14.664 51.288,4.924 m -109.804,-4.924 c -7.64,-10.412 -41.64,-14.664 -51.288,4.924" inkscape:connector-curvature="0" style="fill-opacity:0;stroke:#1a1919;stroke-width:4.80000019;stroke-linecap:round;stroke-linejoin:round"/>
      <path id="path18332" d="m 311.532,266.484 0,-5.944" inkscape:connector-curvature="0" style="fill-opacity:0;stroke:#1a1919;stroke-width:5.5999999;stroke-linecap:round;stroke-linejoin:round"/>
      <path id="path18334" d="m 278.396,283.804 c 6.944,4.944 22.352,8.572 33.42,8.572 l -0.22,0 c 11.068,0 26.476,-3.628 33.42,-8.572 0,0 -10.684,55.688 -33.636,55.688 -22.956,0 -32.984,-55.688 -32.984,-55.688" inkscape:connector-curvature="0" style="fill:#de737e"/>
      <path id="path18336" d="m 286.808,311.88 c 6.82,-5.716 15.068,-9.076 23.968,-9.076 9.532,0 18.3,3.884 25.376,10.368 5.452,-15.156 8.864,-29.368 8.864,-29.368 0.364,-0.064 -22.256,4.608 -33.316,4.632 -11.048,-0.024 -33.304,-4.632 -33.304,-4.632 0,0 3.22,13.416 8.412,28.076" inkscape:connector-curvature="0" style="fill:#c35953"/>
      <path id="path18338" d="m 312.032,339.788 c -21.088,0 -33.636,-55.984 -33.636,-55.984 0,0 11.248,4.632 33.42,4.632 22.172,0 33.2,-4.632 33.2,-4.632 0,0 -11.904,55.984 -32.984,55.984 z" inkscape:connector-curvature="0" style="fill-opacity:0;stroke:#1a1919;stroke-width:4.80000019;stroke-linecap:round;stroke-linejoin:round"/>
    </g>
  </g>
</svg>