<?xml version="1.0" encoding="UTF-8" standalone="no"?>
<!-- Created with Inkscape (http://www.inkscape.org/) -->
<svg xmlns:dc="http://purl.org/dc/elements/1.1/" xmlns:cc="http://creativecommons.org/ns#" xmlns:rdf="http://www.w3.org/1999/02/22-rdf-syntax-ns#" xmlns:svg="http://www.w3.org/2000/svg" xmlns="http://www.w3.org/2000/svg" xmlns:xlink="http://www.w3.org/1999/xlink" xmlns:sodipodi="http://sodipodi.sourceforge.net/DTD/sodipodi-0.dtd" xmlns:inkscape="http://www.inkscape.org/namespaces/inkscape" id="svg6460" sodipodi:docname="Aussie-Earth-PlusJapan-Plane.svg" viewBox="0 0 712.53697 504.64047" sodipodi:version="0.32" version="1.0" inkscape:output_extension="org.inkscape.output.svg.inkscape" inkscape:version="0.91 r13725" width="712.53699" height="504.6405" inkscape:export-filename="/Users/user/PROJECTS/clipart/Aussie-Earth-PlusJapan-Plane.png" inkscape:export-xdpi="400" inkscape:export-ydpi="400">
  <defs id="defs6462">
    <linearGradient id="linearGradient3352">
      <stop id="stop3354" style="stop-color:#c3d889" offset="0"/>
      <stop id="stop3356" style="stop-color:#ffffff" offset="1"/>
    </linearGradient>
    <linearGradient id="linearGradient3275">
      <stop id="stop3277" style="stop-color:#008954" offset="0"/>
      <stop id="stop3279" style="stop-color:#4cf022" offset="1"/>
    </linearGradient>
    <linearGradient id="linearGradient2568" y2="208.55" xlink:href="#linearGradient3352" gradientUnits="userSpaceOnUse" x2="-194.66" gradientTransform="translate(884.89,20.203)" y1="190.8" x1="-173.11" inkscape:collect="always"/>
    <linearGradient id="linearGradient2572" y2="332.31" xlink:href="#linearGradient3352" gradientUnits="userSpaceOnUse" x2="-243.66" gradientTransform="translate(884.89,20.203)" y1="378.29001" x1="-189.31" inkscape:collect="always"/>
    <linearGradient id="linearGradient2574" y2="403.88" gradientUnits="userSpaceOnUse" x2="733.46997" y1="639.09003" x1="911.32001" inkscape:collect="always">
      <stop id="stop3346" style="stop-color:#2f5ca8" offset="0"/>
      <stop id="stop3348" style="stop-color:#dbe8ff" offset="1"/>
    </linearGradient>
    <linearGradient id="linearGradient2576" y2="297.76001" xlink:href="#linearGradient3275" gradientUnits="userSpaceOnUse" x2="-377.85001" y1="623.03003" x1="-776.85999" inkscape:collect="always"/>
    <linearGradient id="linearGradient2580" y2="323.01001" xlink:href="#linearGradient3275" gradientUnits="userSpaceOnUse" x2="-351.59" y1="511.91" x1="-776.02002" inkscape:collect="always"/>
    <linearGradient id="linearGradient2588" y2="-846.14001" xlink:href="#linearGradient3275" gradientUnits="userSpaceOnUse" x2="161.11" y1="944.46997" x1="-1356" inkscape:collect="always"/>
    <linearGradient id="linearGradient2592" y2="620" xlink:href="#linearGradient3352" gradientUnits="userSpaceOnUse" x2="-494.01999" gradientTransform="translate(884.89,20.203)" y1="666.37" x1="-557.65997" inkscape:collect="always"/>
    <linearGradient inkscape:collect="always" xlink:href="#linearGradient3352" id="linearGradient14959" gradientUnits="userSpaceOnUse" gradientTransform="matrix(0.64481833,0,0,0.72890546,238.714,53.430637)" x1="-189.31" y1="378.29001" x2="-243.66" y2="332.31"/>
    <linearGradient inkscape:collect="always" xlink:href="#linearGradient3275" id="linearGradient15842" gradientUnits="userSpaceOnUse" x1="-776.85999" y1="623.03003" x2="-377.85001" y2="297.76001"/>
    <linearGradient inkscape:collect="always" xlink:href="#linearGradient3275" id="linearGradient15844" gradientUnits="userSpaceOnUse" x1="-776.85999" y1="623.03003" x2="-377.85001" y2="297.76001"/>
    <linearGradient inkscape:collect="always" xlink:href="#linearGradient3275" id="linearGradient15846" gradientUnits="userSpaceOnUse" x1="-776.85999" y1="623.03003" x2="-377.85001" y2="297.76001"/>
    <linearGradient inkscape:collect="always" xlink:href="#linearGradient3275" id="linearGradient15848" gradientUnits="userSpaceOnUse" x1="-776.85999" y1="623.03003" x2="-377.85001" y2="297.76001"/>
    <linearGradient inkscape:collect="always" xlink:href="#linearGradient3275" id="linearGradient15850" gradientUnits="userSpaceOnUse" x1="-1356" y1="944.46997" x2="161.11" y2="-846.14001"/>
  </defs>
  <sodipodi:namedview id="base" bordercolor="#666666" inkscape:pageshadow="2" guidetolerance="10" pagecolor="#ffffff" gridtolerance="10000" inkscape:window-height="1043" width="703.02px" inkscape:zoom="0.78349551" objecttolerance="10" height="519.03px" borderopacity="1.0" inkscape:current-layer="layer1" inkscape:cx="365.17451" inkscape:cy="601.19901" inkscape:window-y="0" inkscape:window-x="0" inkscape:window-width="1931" inkscape:pageopacity="0.0" inkscape:document-units="px" showgrid="false" inkscape:window-maximized="0" fit-margin-top="0" fit-margin-left="0" fit-margin-right="0" fit-margin-bottom="0"/>
  <g id="layer1" inkscape:label="Layer 1" inkscape:groupmode="layer" transform="translate(-38.325008,-209.56548)">
    <g id="g2537" transform="translate(3.1602,9.9151)"/>
    <g id="g15702">
      <path d="m 691.56,252.22 c 8.21,-1.56 14.71,-6.4 16.33,-11.61 1.16,0.53 2.4,0.72 3.64,0.48 1.84,-0.35 3.44,-1.57 4.68,-3.37 0.57,0.08 1.16,0.07 1.75,-0.04 3.81,-0.73 6.45,-5.27 5.89,-10.13 -0.48,-4.14 -3.13,-7.17 -6.26,-7.54 -1.48,-3.95 -4.02,-6.75 -6.85,-7.48 -0.01,-0.06 -0.01,-0.12 -0.01,-0.18 -0.4,-3.39 -3.88,-5.54 -7.98,-5.13 -2.72,-5.01 -7.78,-7.89 -13.14,-6.87 -5.6,1.07 -9.91,6.09 -11.19,12.25 -3.79,-1.74 -8.57,-2.34 -13.64,-1.37 -10.98,2.1 -19.1,10.69 -18.11,19.19 0.79,6.81 7.2,11.49 15.37,12 l 0,0.11 c 0.42,3.58 4.96,5.68 10.14,4.69 0.34,-0.07 0.65,-0.17 0.98,-0.26 2.61,4.55 10.05,6.86 18.4,5.26 z" style="fill:#000000;stroke:#000000;stroke-width:0.99247998;stroke-linecap:round;stroke-linejoin:round" id="path2284" transform="translate(3.1602,9.9151)" inkscape:connector-curvature="0"/>
      <path d="m 687.25,254.54 c 8.2,-1.57 14.71,-6.4 16.33,-11.61 1.16,0.53 2.39,0.71 3.63,0.47 1.84,-0.35 3.44,-1.57 4.69,-3.36 0.57,0.07 1.15,0.07 1.75,-0.05 3.81,-0.72 6.45,-5.26 5.88,-10.12 -0.48,-4.14 -3.12,-7.17 -6.25,-7.54 -1.48,-3.96 -4.02,-6.76 -6.86,-7.48 0,-0.07 0,-0.13 -0.01,-0.19 -0.39,-3.39 -3.88,-5.54 -7.97,-5.13 -2.73,-5 -7.78,-7.89 -13.15,-6.86 -5.6,1.07 -9.9,6.08 -11.18,12.24 -3.8,-1.74 -8.58,-2.33 -13.64,-1.37 -10.99,2.1 -19.1,10.7 -18.11,19.19 0.79,6.82 7.19,11.5 15.36,12.01 0.01,0.03 0,0.07 0.01,0.1 0.41,3.58 4.96,5.68 10.14,4.69 0.33,-0.06 0.65,-0.17 0.98,-0.26 2.6,4.55 10.04,6.86 18.4,5.27 z" style="fill:url(#linearGradient2568);stroke:#000000;stroke-width:0.99247998;stroke-linecap:round;stroke-linejoin:round" id="path2288" transform="translate(3.1602,9.9151)" inkscape:connector-curvature="0"/>
      <ellipse transform="matrix(0,1.5051,-1.7866,0,1249.6602,-730.5849)" style="fill:#000000;stroke:#000000;stroke-width:5.42689991;stroke-linecap:round;stroke-linejoin:round;stroke-miterlimit:8.30000019" id="path2296" cx="807.8811" cy="516.68646" rx="149.3356" ry="130.36264"/>
      <path d="m 654.48,327.92 c 15.08,2.47 27.05,10.09 30.03,18.32 2.14,-0.84 4.4,-1.13 6.69,-0.75 3.38,0.55 6.33,2.47 8.61,5.31 1.05,-0.12 2.13,-0.11 3.22,0.06 7.01,1.15 11.86,8.31 10.83,15.98 -0.89,6.53 -5.75,11.32 -11.5,11.9 -2.73,6.24 -7.4,10.65 -12.62,11.8 -0.01,0.1 0,0.2 -0.01,0.29 -0.73,5.34 -7.14,8.74 -14.67,8.09 -5.02,7.9 -14.31,12.45 -24.18,10.84 -10.3,-1.69 -18.22,-9.6 -20.58,-19.32 -6.97,2.74 -15.77,3.68 -25.08,2.16 -20.2,-3.31 -35.12,-16.88 -33.31,-30.28 1.45,-10.75 13.24,-18.13 28.26,-18.94 0.01,-0.05 0,-0.11 0.01,-0.16 0.77,-5.65 9.12,-8.96 18.65,-7.4 0.62,0.1 1.2,0.27 1.8,0.4 4.79,-7.17 18.48,-10.82 33.85,-8.3 z" style="fill:#000000;stroke:#000000;stroke-width:1.69070005;stroke-linecap:round;stroke-linejoin:round" id="path2292" transform="translate(3.1602,9.9151)" inkscape:connector-curvature="0"/>
      <path d="m 652.84,322.73 c 15.08,2.47 27.05,10.09 30.03,18.31 2.14,-0.84 4.4,-1.12 6.69,-0.75 3.38,0.56 6.33,2.48 8.61,5.31 1.05,-0.12 2.13,-0.11 3.22,0.07 7.01,1.15 11.86,8.31 10.82,15.98 -0.88,6.53 -5.75,11.31 -11.5,11.89 -2.72,6.25 -7.39,10.66 -12.61,11.81 -0.01,0.09 0,0.19 -0.02,0.29 -0.72,5.34 -7.14,8.74 -14.67,8.09 -5.01,7.9 -14.3,12.45 -24.17,10.83 -10.3,-1.69 -18.22,-9.6 -20.58,-19.32 -6.98,2.75 -15.77,3.69 -25.08,2.16 -20.2,-3.31 -35.13,-16.87 -33.31,-30.27 1.45,-10.75 13.23,-18.14 28.26,-18.94 0.01,-0.06 0,-0.11 0.01,-0.17 0.76,-5.64 9.12,-8.96 18.65,-7.4 0.62,0.11 1.2,0.27 1.8,0.41 4.79,-7.18 18.47,-10.82 33.85,-8.3 z" style="fill:url(#linearGradient2572);stroke:#000000;stroke-width:1.69070005;stroke-linecap:round;stroke-linejoin:round" id="path2294" transform="translate(3.1602,9.9151)" inkscape:connector-curvature="0"/>
      <ellipse transform="matrix(0,1.5051,-1.7866,0,1259.0602,-744.7749)" style="fill:url(#linearGradient2574);stroke:#000000;stroke-width:5.42689991;stroke-linecap:round;stroke-linejoin:round;stroke-miterlimit:8.30000019" id="path2298" cx="807.8811" cy="516.68646" rx="149.3356" ry="130.36264"/>
      <path d="m 207.85,298.25 c -20.12,1.54 -13.38,18.28 0,0 z" style="fill:#000000;stroke:#000000;stroke-width:2.91330004;stroke-linecap:round;stroke-linejoin:round;stroke-miterlimit:8.30000019" id="path2304" transform="translate(3.1602,9.9151)" inkscape:connector-curvature="0"/>
      <path d="m 177.44,332.62 c -12.76,3.01 -18.81,33.2 -1.01,16.56 2.04,-5.94 3.83,-12.16 1.01,-16.56 z" style="fill:#000000;stroke:#000000;stroke-width:2.91330004;stroke-linecap:round;stroke-linejoin:round;stroke-miterlimit:8.30000019" sodipodi:nodetypes="ccc" id="path2308" transform="translate(3.1602,9.9151)" inkscape:connector-curvature="0"/>
      <path d="m 281.67,277.51 c -10.17,-0.77 -80.65,13.75 -73.26,44.88 13.78,6.29 54.26,-17.18 35.8,12.86 -20.98,9.52 -49.58,3.27 -55.94,29.59 -17.99,19.72 -62.57,16.47 -60.91,48.97 10.19,33.22 34.75,-10.3 54,-13.38 11.49,-4.37 15.2,19.38 17.4,0.55 5.36,-18.37 15.47,2.33 19.9,1.9 4.06,-14 20.28,-18.42 24.16,-13.04 25.09,10.97 11.4,51.77 -17.05,39.48 -30.26,7.84 -65.61,-3.25 -91.84,14.74 -33.63,14.16 -35.538,56.79 -12.19,79.41 18.73,18.53 54.16,3.03 59.4,34.19 14.42,36.56 80.54,70.74 87.75,67.72 10.1,-5.89 -4.26,-41.4 -2.73,-61.86 -10.22,-28.17 22.21,-57.26 8.73,-82.12 -16.28,-4.33 -7.45,-51.06 7.72,-22.35 22.09,41.85 70.95,67.04 42.9,-2.51 -15.12,-32.97 14.76,-34.18 19.48,-13.25 18.68,49.5 23.94,72.86 42,19.46 5.73,-23.11 18.63,-61.56 43.02,-34.4 13.41,14.43 10.13,40.09 33.68,42.39 4.79,-5.61 -34.47,-33.57 -9.84,-36.53 22.33,27.58 30.42,11.43 25.8,-8.32 -0.26,-25.57 -15.04,-52.88 7.83,-73.59 14.34,-9.38 36.58,-15.87 18,-33.68 -20.28,-15.28 -40.97,-44.56 -70.57,-38.96 -24.34,5.62 -45.62,21.4 -71.97,16.46 -34.18,-2.89 -64.15,20.67 -97.74,19.11 -10.46,-10.88 31.38,-36.37 16.47,-37.72 z" style="fill:#000000;stroke:#000000;stroke-width:2.91330004;stroke-linecap:round;stroke-linejoin:round;stroke-miterlimit:8.30000019" sodipodi:nodetypes="ccccccccccccccccsccccccccccccc" id="path2300" transform="translate(3.1602,9.9151)" inkscape:connector-curvature="0"/>
      <path d="m 152.27,339.6 c -3.75,4.38 7.48,0.78 0,0 z" style="fill:#000000;stroke:#000000;stroke-width:2.91330004;stroke-linecap:round;stroke-linejoin:round;stroke-miterlimit:8.30000019" id="path2312" transform="translate(3.1602,9.9151)" inkscape:connector-curvature="0"/>
      <path d="m 467.02,477.3 c -0.07,4.67 5.03,4.71 12.39,6.53 6.9,1.7 11.75,-1.28 19.68,1.01 7.92,2.29 18.94,-11.4 27.82,9.82 0,0 23.89,6.46 21.83,2.19 -2.06,-4.27 -14.63,-4.29 -14.82,-9.4 -1.12,-29.38 -14.52,-22.08 -20.98,-17.5 -6.63,4.71 -20.08,9.96 -26.02,4.79 -15.14,-13.19 -17.26,-0.2 -19.9,2.56 z" style="fill:#000000;stroke:#000000;stroke-width:2.33060002;stroke-linecap:round;stroke-linejoin:round;stroke-miterlimit:7.68569994" sodipodi:nodetypes="csscsszsc" id="path2316" transform="translate(3.1602,9.9151)" inkscape:connector-curvature="0"/>
      <path d="m 282.71,568.66 c -16.78,13.4 12.8,34.22 8.66,8.49 -1.42,-3.76 -4.56,-7.03 -8.66,-8.49 z" style="fill:#000000;stroke:#000000;stroke-width:2.33060002;stroke-linecap:round;stroke-linejoin:round;stroke-miterlimit:7.68569994" id="path2320" transform="translate(3.1602,9.9151)" inkscape:connector-curvature="0"/>
      <g transform="matrix(0.19116,0.024703,-0.060871,0.20258,424.3202,500.2651)" style="fill:#000000;stroke:#000000;stroke-width:14.80900002;stroke-miterlimit:7.68569994" id="g2328">
        <path transform="matrix(2.1471,6.7427,-7.8276,0.95449,2044.6,-6239.4)" style="fill:#000000;stroke:#000000;stroke-width:2;stroke-miterlimit:7.68569994" d="m 904.78,431.88 c -2.61,-0.06 -5.2,0.4 -7.44,1.12 -6.84,2.42 -13.83,5.48 -22.03,4.5 -2.48,-0.47 -11.72,-0.42 -8.56,2.53 3.01,1.24 10.38,2.83 13.03,5 8.27,5.29 1.32,9.2 -5.22,7.53 -2.94,-0.19 -7.05,-0.22 -7.53,2.85 -0.6,4.35 4.78,7.82 5.41,12.09 0.56,4.43 1.94,9.62 6.56,12.72 3.92,1.85 5.9,5.66 7,9.12 1.3,3.82 2.84,8.59 7.47,10.54 5.79,2.31 10.92,-0.4 16.31,-0.63 2.99,0.11 6.38,0.19 8.1,-2.03 2.27,-2.33 2.06,-6.15 -0.1,-9.22 -2.42,-4.9 -6.9,-9.88 -6.28,-15.09 0.87,-3.24 3.52,-4.91 4.88,-7.97 0.61,-1.36 4.3,0.33 5.03,-0.44 0.73,-0.77 -0.68,-2.1 -0.25,-2.81 0.42,-0.71 2.42,-0.56 3.18,-0.66 2.15,-1.02 6.22,-5.22 4.44,-6.78 -1.72,-1.52 2.84,-3.67 2.53,-5.31 -0.21,-1.4 -10.84,-9.59 -16.87,-13.78 -2.89,-2.29 -6.3,-3.22 -9.66,-3.28 z m 31.75,18.43 c -0.47,-0.01 -0.66,0.34 -0.34,1.28 0.54,2.96 -1.64,4.13 0.69,4.6 2,0.17 5.66,-1.67 4.5,-2.6 -1.4,-1.43 -3.81,-3.25 -4.85,-3.28 z" id="path2330" inkscape:connector-curvature="0"/>
      </g>
      <g transform="translate(888.0502,30.1181)" id="g2504">
        <path d="m -674.83,274.88 c -20.12,1.55 -13.38,18.29 0,0 z" style="fill:url(#linearGradient15842);stroke:#000000;stroke-width:2.91330004;stroke-linecap:round;stroke-linejoin:round;stroke-miterlimit:8.30000019" id="path2306" inkscape:connector-curvature="0"/>
        <path d="m -704.67,307.97 c -12.75,3.01 -18.81,33.2 -1,16.56 2.04,-5.59 3.83,-12.16 1,-16.56 z" style="fill:url(#linearGradient15844);stroke:#000000;stroke-width:2.91330004;stroke-linecap:round;stroke-linejoin:round;stroke-miterlimit:8.30000019" sodipodi:nodetypes="ccc" id="path2310" inkscape:connector-curvature="0"/>
        <path d="m -599.01,252.15 c -5.88,-3.45 -80.64,13.75 -73.26,44.87 13.78,6.3 54.27,-17.17 35.8,12.87 -20.98,9.52 -49.58,3.26 -55.94,29.59 -17.99,19.72 -62.57,16.47 -60.9,48.97 10.18,33.21 34.75,-12.31 54,-15.39 13.63,-5.08 12.69,19.74 17.4,0.56 5.36,-18.38 11.68,4.82 16.11,4.4 1.92,-24.01 23.71,-26.79 27.95,-13.55 25.09,10.98 11.39,51.78 -17.06,39.49 -30.26,7.83 -65.6,-3.26 -91.84,14.74 -33.62,14.15 -35.53,56.78 -12.19,79.41 18.73,18.53 54.17,3.02 59.41,34.19 14.41,36.55 71.96,69.67 84.53,63.43 14.39,-5.53 -1.04,-37.12 0.49,-57.58 -10.23,-28.17 22.21,-57.26 8.72,-82.12 -16.27,-4.32 -7.44,-51.06 7.72,-22.34 22.1,41.84 70.95,67.04 42.9,-2.52 -15.12,-32.97 14.05,-34.89 19.49,-13.24 18.68,49.49 23.93,72.85 41.99,19.45 5.74,-22.03 18.64,-61.56 43.02,-34.4 13.41,14.44 6.6,35.81 30.15,38.1 1.76,-4.85 -26.14,-39.13 -6.3,-32.23 12.47,17.47 30.26,14.33 27.82,-8.32 -2.44,-22.66 -17.06,-52.88 5.8,-73.59 14.34,-9.39 36.59,-15.88 18,-33.69 -20.27,-15.28 -40.96,-44.55 -70.56,-38.95 -24.34,5.61 -45.63,21.4 -71.98,16.45 -34.18,-2.88 -87.36,21.75 -96.31,17.33 -10.45,-10.88 25.67,-26.73 15.04,-35.93 z" style="fill:url(#linearGradient2580);stroke:#000000;stroke-width:2.97029996;stroke-linecap:round;stroke-linejoin:round;stroke-miterlimit:8.30000019" sodipodi:nodetypes="ccccccccccccccccscccccczcccccc" id="path2302" inkscape:connector-curvature="0"/>
        <path d="m -731.52,315.38 c -4.92,8.42 9.82,1.5 0,0 z" style="fill:url(#linearGradient15846);stroke:#000000;stroke-width:1.41299999;stroke-linecap:round;stroke-linejoin:round;stroke-miterlimit:8.30000019" id="path2314" inkscape:connector-curvature="0"/>
        <path d="m -413.66,451.94 c -0.07,4.67 5.03,4.7 12.39,6.52 6.91,1.71 11.76,-1.27 19.68,1.02 7.93,2.29 18.95,-11.41 27.82,9.81 0,0 23.9,6.46 21.84,2.19 -2.07,-4.27 -14.63,-4.29 -14.83,-9.4 -1.12,-29.38 -17.5,-22.22 -25.52,-18 -8.23,4.33 -15.54,10.46 -21.47,5.29 -15.15,-13.18 -17.26,-0.19 -19.91,2.57 z" style="fill:url(#linearGradient15848);stroke:#000000;stroke-width:2.33060002;stroke-linecap:round;stroke-linejoin:round;stroke-miterlimit:7.68569994" sodipodi:nodetypes="csscsszsc" id="path2318" inkscape:connector-curvature="0"/>
        <path d="m -597.97,543.3 c -16.77,13.39 12.81,34.21 8.66,8.48 -1.42,-3.75 -4.56,-7.03 -8.66,-8.48 z" style="fill:url(#linearGradient2576);stroke:#000000;stroke-width:2.33060002;stroke-linecap:round;stroke-linejoin:round;stroke-miterlimit:7.68569994" id="path2322" inkscape:connector-curvature="0"/>
        <g transform="matrix(0.19116,0.024703,-0.060871,0.20258,-460.15,465.19)" style="fill:url(#linearGradient2588);stroke:#000000;stroke-width:14.80900002;stroke-miterlimit:7.68569994" id="g2332">
          <path transform="matrix(2.1471,6.7427,-7.8276,0.95449,2044.6,-6239.4)" style="fill:url(#linearGradient15850);stroke:#000000;stroke-width:2;stroke-miterlimit:7.68569994" d="m 904.78,431.88 c -2.61,-0.06 -5.2,0.4 -7.44,1.12 -6.84,2.42 -13.83,5.48 -22.03,4.5 -2.48,-0.47 -11.72,-0.42 -8.56,2.53 3.01,1.24 10.38,2.83 13.03,5 8.27,5.29 1.32,9.2 -5.22,7.53 -2.94,-0.19 -7.05,-0.22 -7.53,2.85 -0.6,4.35 4.78,7.82 5.41,12.09 0.56,4.43 1.94,9.62 6.56,12.72 3.92,1.85 5.9,5.66 7,9.12 1.3,3.82 2.84,8.59 7.47,10.54 5.79,2.31 10.92,-0.4 16.31,-0.63 2.99,0.11 6.38,0.19 8.1,-2.03 2.27,-2.33 2.06,-6.15 -0.1,-9.22 -2.42,-4.9 -6.9,-9.88 -6.28,-15.09 0.87,-3.24 3.52,-4.91 4.88,-7.97 0.61,-1.36 4.3,0.33 5.03,-0.44 0.73,-0.77 -0.68,-2.1 -0.25,-2.81 0.42,-0.71 2.42,-0.56 3.18,-0.66 2.15,-1.02 6.22,-5.22 4.44,-6.78 -1.72,-1.52 2.84,-3.67 2.53,-5.31 -0.21,-1.4 -10.84,-9.59 -16.87,-13.78 -2.89,-2.29 -6.3,-3.22 -9.66,-3.28 z m 31.75,18.43 c -0.47,-0.01 -0.66,0.34 -0.34,1.28 0.54,2.96 -1.64,4.13 0.69,4.6 2,0.17 5.66,-1.67 4.5,-2.6 -1.4,-1.43 -3.81,-3.25 -4.85,-3.28 z" id="path2334" inkscape:connector-curvature="0"/>
        </g>
      </g>
      <path d="m 371.17,652.03 c -37.69,3.78 -76.34,6.89 -111.47,20.91 44.92,17.27 95.82,8.12 141.19,-2.74 16.34,-2.53 22.21,-14.36 0.66,-15.02 -10.01,-1.89 -20.27,-1.97 -30.38,-3.15 z" style="fill:#000000;stroke:#000000;stroke-width:2.33060002;stroke-linecap:round;stroke-linejoin:round;stroke-miterlimit:7.68569994" id="path2324" transform="translate(3.1602,9.9151)" inkscape:connector-curvature="0"/>
      <path d="m 377.39,654.87 c -37.69,3.78 -76.34,6.88 -111.47,20.91 44.92,17.27 95.81,8.12 141.19,-2.74 16.34,-2.53 22.21,-14.36 0.65,-15.02 -10,-1.89 -20.26,-1.98 -30.37,-3.15 z" style="fill:url(#linearGradient2592);stroke:#000000;stroke-width:2.33060002;stroke-linecap:round;stroke-linejoin:round;stroke-miterlimit:7.68569994" id="path2326" transform="translate(3.1602,9.9151)" inkscape:connector-curvature="0"/>
      <path inkscape:connector-curvature="0" id="path14955" style="fill:#000000;stroke:#000000;stroke-width:1.15909982;stroke-linecap:round;stroke-linejoin:round" d="m 90.141412,277.72723 c 9.723858,1.80041 17.442328,7.35466 19.363898,13.35356 1.3799,-0.61228 2.83719,-0.82367 4.31383,-0.54669 2.17949,0.4009 4.0817,1.8004 5.55189,3.87049 0.67706,-0.0875 1.37345,-0.0802 2.07631,0.0437 4.52018,0.83825 7.64754,6.05721 6.98338,11.64792 -0.57388,4.75975 -3.7077,8.25121 -7.41541,8.67397 -1.76035,4.54837 -4.77165,7.76284 -8.13761,8.60108 -0.006,0.0729 0,0.14579 -0.006,0.21139 -0.47071,3.89235 -4.604,6.37064 -9.45948,5.89684 -3.23699,5.75836 -9.227347,9.07488 -15.591704,7.90134 -6.641629,-1.23185 -11.748589,-6.99749 -13.27036,-14.08245 -4.494384,1.9972 -10.168784,2.68237 -16.172043,1.57443 -13.025331,-2.41268 -22.64602,-12.30392 -21.478899,-22.07126 0.934987,-7.83573 8.537395,-13.21505 18.222566,-13.80546 0.0064,-0.0365 0,-0.0802 0.0064,-0.11663 0.496509,-4.11831 5.880742,-6.53099 12.025862,-5.3939 0.399787,0.0729 0.773781,0.1968 1.160673,0.29157 3.088679,-5.22626 11.916241,-7.88677 21.827097,-6.04993 z" transform="translate(3.1602,9.9151)"/>
      <path inkscape:connector-curvature="0" id="path14957" style="fill:url(#linearGradient14959);stroke:#000000;stroke-width:1.15909982;stroke-linecap:round;stroke-linejoin:round" d="m 89.08391,273.94422 c 9.72386,1.80039 17.44233,7.35465 19.3639,13.34626 1.3799,-0.61228 2.83719,-0.81637 4.31383,-0.54668 2.17948,0.40818 4.0817,1.80768 5.55189,3.87049 0.67705,-0.0875 1.37345,-0.0802 2.07631,0.051 4.52018,0.83824 7.64754,6.0572 6.97694,11.64791 -0.56745,4.75975 -3.70771,8.24392 -7.41542,8.66669 -1.75391,4.55565 -4.76521,7.77013 -8.13116,8.60837 -0.006,0.0656 0,0.13849 -0.0129,0.21139 -0.46426,3.89235 -4.604,6.37062 -9.45948,5.89684 -3.23055,5.75835 -9.220906,9.07487 -15.585263,7.89404 -6.641628,-1.23185 -11.748588,-6.99749 -13.270359,-14.08245 -4.500832,2.00449 -10.168786,2.68966 -16.172044,1.57443 -13.02533,-2.41267 -22.652468,-12.29663 -21.478899,-22.06396 0.934987,-7.83573 8.530947,-13.22235 18.222567,-13.80547 0.0064,-0.0437 0,-0.0802 0.0064,-0.12392 0.490062,-4.11102 5.880743,-6.53099 12.025861,-5.3939 0.399788,0.0802 0.773783,0.19681 1.160673,0.29885 3.088681,-5.23354 11.909795,-7.88675 21.827099,-6.04991 z" transform="translate(3.1602,9.9151)"/>
      <path sodipodi:nodetypes="csscscsssssscscssssssssssscsscsssscsscsssssscscsssssscsssssssscssscssssssssssssscc" inkscape:connector-curvature="0" id="path15564" d="m 661.93664,646.68714 c -6.18858,-2.08746 -10.8799,-9.09832 -10.86576,-16.23813 0.008,-4.15599 1.32484,-8.06053 3.73568,-11.07862 l 1.20018,-1.50247 -3.48315,-0.81165 c -1.91573,-0.44638 -3.56954,-0.81044 -3.67513,-0.80898 -0.10559,0.002 -0.51144,0.87003 -0.90189,1.93019 -1.9574,5.31485 -6.74885,10.03189 -13.71022,13.49731 -1.93598,0.96373 -4.88355,2.14587 -9.97328,3.9998 -3.18631,1.16061 -7.99523,2.00956 -11.38375,2.00966 -2.55625,5e-5 -3.00465,-0.0933 -4.91309,-1.02371 -4.05488,-1.9767 -7.50671,-6.35525 -8.79672,-11.15835 -0.59386,-2.21114 -0.5882,-6.78682 0.0112,-9.11036 1.03024,-3.99324 3.43362,-7.53328 6.41023,-9.44191 l 1.5628,-1.00208 -2.5374,-0.68529 c -2.35543,-0.63613 -2.63043,-0.65214 -3.83406,-0.22334 -3.53114,1.25802 -11.11161,2.93892 -13.91908,3.08642 -2.07808,0.10918 -4.777,0.6026 -9.05249,1.65502 -10.92242,2.68856 -21.78683,4.7127 -29.90563,5.57172 -5.29341,0.56007 -15.58779,0.48402 -20.04034,-0.14808 -10.18076,-1.44524 -16.98365,-4.40748 -22.35496,-9.7342 -3.33317,-3.30551 -4.75143,-5.84148 -5.43447,-9.71733 -0.92078,-5.22501 -0.46538,-9.09625 1.86957,-15.89267 7.13895,-20.77953 13.97206,-31.19852 25.3903,-38.7145 1.62845,-1.07192 3.33221,-2.11455 3.78612,-2.31695 l 0.8253,-0.368 -0.87181,-2.50919 c -0.47949,-1.38007 -2.84943,-8.18761 -5.26653,-15.12787 -2.41709,-6.94027 -4.39335,-13.04676 -4.39167,-13.56996 0.002,-0.52323 0.34162,-1.6709 0.75543,-2.55039 0.79012,-1.67929 1.53947,-2.24287 3.76067,-2.82842 1.67328,-0.44112 10.28665,-1.89489 11.2269,-1.89489 1.24726,0 2.01887,1.12307 2.01887,2.9384 l 0,1.58843 6.93454,6.32024 c 3.814,3.47614 9.5109,8.58934 12.65977,11.36268 l 5.72522,5.04243 9.07887,-1.75089 c 17.77905,-3.42874 36.32453,-6.30876 62.80444,-9.7532 5.20801,-0.67745 9.51205,-1.27421 9.56453,-1.32614 0.0525,-0.0519 -1.01727,-1.96494 -2.37719,-4.25119 -2.69869,-4.53692 -3.04973,-5.86019 -1.84165,-6.94207 0.60302,-0.54003 0.95684,-0.54903 7.22846,-0.18401 3.62692,0.21109 6.76196,0.47981 6.96674,0.59713 0.20478,0.11732 2.43855,2.05219 4.96393,4.29972 4.3331,3.85636 4.66405,4.08617 5.87872,4.0822 2.45982,-0.009 2.34262,0.12489 7.70305,-8.73756 9.64174,-15.94076 22.39092,-36.47877 22.94626,-36.96477 0.39434,-0.3451 2.73716,-0.76573 7.9997,-1.43629 8.06486,-1.0276 7.75244,-1.04786 9.93329,0.64369 0.92597,0.71821 1.16874,1.11624 1.16874,1.91611 0,0.55527 -3.43934,10.62296 -7.643,22.37268 l -7.643,21.3631 0.92534,1.42695 c 2.15169,3.31808 3.95262,9.08935 3.6877,11.81761 -0.12867,1.32513 -0.0716,1.50776 0.51116,1.63474 0.36082,0.0786 4.583,0.76191 9.38264,1.51844 14.93002,2.35325 15.18074,2.40149 15.83255,3.0465 0.843,0.8342 0.54797,2.61406 -0.78575,4.74007 -2.26712,3.61397 -4.50839,5.83366 -6.40137,6.33977 -0.66206,0.17701 -7.31287,0.3757 -15.39769,0.46 l -14.23223,0.14841 -1.91361,2.44292 c -10.7702,13.74933 -20.62117,22.41949 -36.53342,32.15426 -1.53217,0.93735 -2.63296,1.86237 -3.0514,2.56416 -0.36002,0.60381 -0.61382,1.12436 -0.56401,1.15676 0.0498,0.0323 6.82255,2.74266 15.05051,6.02276 8.22796,3.28011 27.78146,11.14678 43.45224,17.48149 24.76114,10.00938 28.70245,11.51766 30.09702,11.51766 2.11077,0 4.725,0.78883 5.651,1.70515 1.29121,1.27771 1.00516,2.20343 -1.36191,4.40738 -5.57784,5.19348 -9.84792,7.83726 -14.54228,9.00372 -4.46475,1.10943 -8.11638,0.79143 -23.09128,-2.0109 -3.2569,-0.60948 -6.22523,-1.18269 -6.5963,-1.27382 -0.56473,-0.13867 -0.78033,0.0707 -1.32308,1.28487 -2.5664,5.74113 -9.22943,11.09146 -17.6717,14.19014 -1.18091,0.43346 -2.70811,1.04307 -3.39377,1.3547 -1.87652,0.85289 -5.24341,1.82465 -7.087,2.04544 -0.90179,0.10801 -2.33126,0.39057 -3.1766,0.62789 -2.18594,0.6137 -4.37873,0.5227 -6.76005,-0.28054 z" style="fill:#000000" transform="translate(3.1602,9.9151)"/>
      <g transform="translate(507.35474,475.78695)" id="Layer_1">
        <path style="fill-opacity:0;stroke:#1a1919;stroke-width:4;stroke-linecap:round;stroke-linejoin:round" inkscape:connector-curvature="0" d="m 23.817,43.13 c 0.333,1 10,29.334 11.667,33.667 1,-1 28,-11.333 28,-11.333 0,0 -27.334,-24.001 -27.334,-25.334 0,-1.333 0,-2.666 0,-2.666 -3.666,1 -10.666,1.333 -11.333,2.333 -0.667,1 -1.333,1.999 -1,3.333 z" id="path15225"/>
        <path style="fill:#fffffe" inkscape:connector-curvature="0" d="m 136.817,40.13 2.667,4.667 4.333,7 14,-2 -10,-9 -11,-0.667" id="path15227"/>
        <path style="fill-opacity:0;stroke:#1a1919;stroke-width:4;stroke-linecap:round;stroke-linejoin:round" inkscape:connector-curvature="0" d="m 136.817,40.13 2.667,4.667 4.333,7 14,-2 -10,-9 -11,-0.667 z" id="path15229"/>
        <path style="fill:#fffffe" inkscape:connector-curvature="0" d="m 194.15,58.464 c -4,8 -9,15 -19.666,27.666 -8.334,8.334 -14,14 -37,27.334 -27.341,15.85 -63,26.333 -87,29.666 -37.334,5 -45.667,-11 -46.667,-14.666 -1,-3.666 -1,-7.667 0,-12 10.333,-32 19,-39 39.333,-47.334 25.66,-10.517 130,-22 145.334,-23 3.333,2.334 5,7.667 5.666,12.334" id="path15231"/>
        <path style="fill-opacity:0;stroke:#1a1919;stroke-width:4;stroke-linecap:round;stroke-linejoin:round" inkscape:connector-curvature="0" d="m 194.15,58.464 c -4,8 -9,15 -19.666,27.666 -8.334,8.334 -14,14 -37,27.334 -27.341,15.85 -63,26.333 -87,29.666 -37.334,5 -45.667,-11 -46.667,-14.666 -1,-3.666 -1,-7.667 0,-12 10.333,-32 19,-39 39.333,-47.334 25.66,-10.517 130,-22 145.334,-23 3.333,2.334 5,7.667 5.666,12.334 z" id="path15233"/>
        <path style="fill:#9e9f9e" inkscape:connector-curvature="0" d="m 171.535,89.062 c -19.871,11.34 -50.088,24.585 -66.718,32.068 -20,9 -42.333,17.333 -62.667,19.333 -14.771,1.453 -22.854,0.267 -27.834,-1.001 6.947,3.609 18.188,6.076 36.168,3.668 24,-3.333 59.659,-13.816 87,-29.666 20.211,-11.718 27.037,-17.514 34.051,-24.402" id="path15235"/>
        <path style="fill-opacity:0;stroke:#1a1919;stroke-width:4;stroke-linecap:round;stroke-linejoin:round" inkscape:connector-curvature="0" d="m 171.535,89.062 c -19.871,11.34 -50.088,24.585 -66.718,32.068 -20,9 -42.333,17.333 -62.667,19.333 -14.771,1.453 -22.854,0.267 -27.834,-1.001 6.947,3.609 18.188,6.076 36.168,3.668 24,-3.333 59.659,-13.816 87,-29.666 20.211,-11.718 27.037,-17.514 34.051,-24.402 z M 194.15,58.464 c -4,8 -9,15 -19.666,27.666 -8.334,8.334 -14,14 -37,27.334 -27.341,15.85 -63,26.333 -87,29.666 -37.334,5 -45.667,-11 -46.667,-14.666 -1,-3.666 -1,-7.667 0,-12 10.333,-32 19,-39 39.333,-47.334 25.66,-10.517 130,-22 145.334,-23 3.333,2.334 5,7.667 5.666,12.334 z" id="path15237"/>
        <path style="fill:#fffffe" inkscape:connector-curvature="0" d="m 189.484,61.463 -13.667,8.334 c 0,0 -0.333,2.666 0.667,3.666 6,0.334 31.755,0.716 37,-0.333 2.333,-1.333 5,-5.667 5.333,-7 0,0 -26.333,-4.334 -29.333,-4.667" id="path15239"/>
        <path style="fill-opacity:0;stroke:#1a1919;stroke-width:4;stroke-linecap:round;stroke-linejoin:round" inkscape:connector-curvature="0" d="m 189.484,61.463 -13.667,8.334 c 0,0 -0.333,2.666 0.667,3.666 6,0.334 31.755,0.716 37,-0.333 2.333,-1.333 5,-5.667 5.333,-7 0,0 -26.333,-4.334 -29.333,-4.667 z" id="path15241"/>
        <path style="fill:#286aa6" inkscape:connector-curvature="0" d="m 69.301,109.047 c 0,1.199 0.8,6.399 0.8,9.999 0,3.601 -2.801,9.2 -2.801,9.2 0,0 -1.199,1.2 0.401,2.001 1.6,0.8 7.999,-1.2 7.999,-1.2 l 2.401,-1.601 c 0.552,-1.438 2.127,-2.497 3.2,-8.4 0.8,-4.4 -0.173,-9.663 -0.401,-10.8 -0.4,-2 -1.999,-1.999 -1.999,-1.999 0,0 -6.4,1.2 -7.6,1.6 l -2,1.2" id="path15243"/>
        <path style="fill-opacity:0;stroke:#1a1919;stroke-width:4;stroke-linecap:round;stroke-linejoin:round" inkscape:connector-curvature="0" d="m 69.301,109.047 c 0,1.199 0.8,6.399 0.8,9.999 0,3.601 -2.801,9.2 -2.801,9.2 0,0 -1.199,1.2 0.401,2.001 1.6,0.8 7.999,-1.2 7.999,-1.2 l 2.401,-1.601 c 0.552,-1.438 2.127,-2.497 3.2,-8.4 0.8,-4.4 -0.173,-9.663 -0.401,-10.8 -0.4,-2 -1.999,-1.999 -1.999,-1.999 0,0 -6.4,1.2 -7.6,1.6 l -2,1.2 z" id="path15245"/>
        <path style="fill:#35a0cd" inkscape:connector-curvature="0" d="m 17.484,99.463 c -0.732,-0.732 -2.71,-4.316 -3.851,-6.841 -2.272,4.004 -4.427,8.774 -6.592,14.552 1.149,2.861 3.192,6.61 4.776,7.289 10.667,2.333 26.333,0 30,-1 0.667,-1.334 4.333,-11.666 5.333,-14.666 -2,0.667 -11,1 -16,1.333 -5,0.333 -12.666,0.333 -13.666,-0.667" id="path15247"/>
        <path style="fill-opacity:0;stroke:#1a1919;stroke-width:4;stroke-linecap:round;stroke-linejoin:round" inkscape:connector-curvature="0" d="m 17.484,99.463 c -0.732,-0.732 -2.71,-4.316 -3.851,-6.841 -2.272,4.004 -4.427,8.774 -6.592,14.552 1.149,2.861 3.192,6.61 4.776,7.289 10.667,2.333 26.333,0 30,-1 0.667,-1.334 4.333,-11.666 5.333,-14.666 -2,0.667 -11,1 -16,1.333 -5,0.333 -12.666,0.333 -13.666,-0.667 z" id="path15249"/>
        <path style="fill:#286aa6" inkscape:connector-curvature="0" d="m 140.4,84.246 c 1.202,-0.4 6.401,-2.1 6.401,-2.1 1.399,0.6 1.8,2.401 1.8,2.401 0,0 0.439,3.904 0.299,6 -0.299,4.5 -0.9,5.399 -1.799,7.8 l -1.201,0.899 -6.9,2.401 c 0,0 -0.899,-0.901 -0.899,-1.8 0,-0.901 1.5,-4.8 1.799,-7.8 0.15,-1.493 -0.299,-4.801 -0.599,-5.7 C 139,85.446 140.4,84.246 140.4,84.246" id="path15251"/>
        <path style="fill-opacity:0;stroke:#1a1919;stroke-width:4;stroke-linecap:round;stroke-linejoin:round" inkscape:connector-curvature="0" d="m 140.4,84.246 c 1.202,-0.4 6.401,-2.1 6.401,-2.1 1.399,0.6 1.8,2.401 1.8,2.401 0,0 0.439,3.904 0.299,6 -0.299,4.5 -0.9,5.399 -1.799,7.8 l -1.201,0.899 -6.9,2.401 c 0,0 -0.899,-0.901 -0.899,-1.8 0,-0.901 1.5,-4.8 1.799,-7.8 0.15,-1.493 -0.299,-4.801 -0.599,-5.7 C 139,85.446 140.4,84.246 140.4,84.246 Z" id="path15253"/>
        <path style="fill:#283278" inkscape:connector-curvature="0" d="m 89.4,110.047 -0.5,8 4.75,-2 0.5,-7.5 -4.75,1.5" id="path15255"/>
        <path style="fill-opacity:0;stroke:#1a1919;stroke-width:4;stroke-linecap:round;stroke-linejoin:round" inkscape:connector-curvature="0" d="m 89.4,110.047 -0.5,8 4.75,-2 0.5,-7.5 -4.75,1.5 z" id="path15257"/>
        <path style="fill:#283278" inkscape:connector-curvature="0" d="m 108.15,104.047 -0.5,8 4.75,-2 0.5,-7.5 -4.75,1.5" id="path15259"/>
        <path style="fill-opacity:0;stroke:#1a1919;stroke-width:4;stroke-linecap:round;stroke-linejoin:round" inkscape:connector-curvature="0" d="m 108.15,104.047 -0.5,8 4.75,-2 0.5,-7.5 -4.75,1.5 z" id="path15261"/>
        <path style="fill:#283278" inkscape:connector-curvature="0" d="m 162.65,81.047 -0.5,8 4.75,-2 0.5,-7.5 -4.75,1.5" id="path15263"/>
        <path style="fill-opacity:0;stroke:#1a1919;stroke-width:4;stroke-linecap:round;stroke-linejoin:round" inkscape:connector-curvature="0" d="m 162.65,81.047 -0.5,8 4.75,-2 0.5,-7.5 -4.75,1.5 z" id="path15265"/>
        <path style="fill:#283278" inkscape:connector-curvature="0" d="m 126.9,96.797 -0.5,7.5 4.75,-2 0.5,-7.5 -4.75,2" id="path15267"/>
        <path style="fill-opacity:0;stroke:#1a1919;stroke-width:4;stroke-linecap:round;stroke-linejoin:round" inkscape:connector-curvature="0" d="m 126.9,96.797 -0.5,7.5 4.75,-2 0.5,-7.5 -4.75,2 z" id="path15269"/>
        <path style="fill:#283278" inkscape:connector-curvature="0" d="m 153.4,86.047 -0.5,7.5 4.75,-2 0.5,-7.5 -4.75,2" id="path15271"/>
        <path style="fill-opacity:0;stroke:#1a1919;stroke-width:4;stroke-linecap:round;stroke-linejoin:round" inkscape:connector-curvature="0" d="m 153.4,86.047 -0.5,7.5 4.75,-2 0.5,-7.5 -4.75,2 z" id="path15273"/>
        <path style="fill:#283278" inkscape:connector-curvature="0" d="m 99.15,107.047 -0.5,8 4.25,-1.5 0.75,-8.25 -4.5,1.75" id="path15275"/>
        <path style="fill-opacity:0;stroke:#1a1919;stroke-width:4;stroke-linecap:round;stroke-linejoin:round" inkscape:connector-curvature="0" d="m 99.15,107.047 -0.5,8 4.25,-1.5 0.75,-8.25 -4.5,1.75 z" id="path15277"/>
        <path style="fill:#283278" inkscape:connector-curvature="0" d="m 118.15,100.047 -0.5,8 4.25,-1.5 0.75,-8.25 -4.5,1.75" id="path15279"/>
        <path style="fill-opacity:0;stroke:#1a1919;stroke-width:4;stroke-linecap:round;stroke-linejoin:round" inkscape:connector-curvature="0" d="m 118.15,100.047 -0.5,8 4.25,-1.5 0.75,-8.25 -4.5,1.75 z M 4.817,118.463 c -0.471,0 -0.934,0.035 -1.396,0.07 -0.568,3.544 -0.442,6.857 0.396,9.931 0.671,2.458 4.654,10.453 18.448,13.953 0.57,-1.771 0.886,-3.658 0.886,-5.62 0,-10.125 -8.208,-18.334 -18.334,-18.334 z" id="path15281"/>
        <g id="g15283">
          <path style="fill:#fffffe" inkscape:connector-curvature="0" d="m 189.484,4.797 c -0.667,1 -26.334,43 -27.334,45.333 0,0 1.667,2.333 2.667,2.333 1,0 24,-4.666 24,-4.666 L 204.15,4.463 202.484,3.13 l -13,1.667" id="path15285"/>
          <path style="fill-opacity:0;stroke:#1a1919;stroke-width:4;stroke-linecap:round;stroke-linejoin:round" inkscape:connector-curvature="0" d="m 189.484,4.797 c -0.667,1 -26.334,43 -27.334,45.333 0,0 1.667,2.333 2.667,2.333 1,0 24,-4.666 24,-4.666 L 204.15,4.463 202.484,3.13 l -13,1.667 z" id="path15287"/>
        </g>
        <path style="fill:#35a0cd" inkscape:connector-curvature="0" d="m 175.279,50.509 c 6.471,-1.279 13.538,-2.712 13.538,-2.712 l 14.96,-42.28 -8.961,1.28 -19.537,43.712" id="path15289"/>
        <path style="fill-opacity:0;stroke:#1a1919;stroke-width:4;stroke-linecap:round;stroke-linejoin:round" inkscape:connector-curvature="0" d="m 175.279,50.509 c 6.471,-1.279 13.538,-2.712 13.538,-2.712 l 14.96,-42.28 -8.961,1.28 -19.537,43.712 z" id="path15291"/>
        <path style="fill:#fffffe" inkscape:connector-curvature="0" d="m 89.484,121.464 c -2.667,1.334 -8.544,7.368 -9.334,10 -1,3.333 1,5.333 1,5.333 4.334,2 45.334,-12.333 62.334,-25 3.333,-4.333 3,-6.667 -1.334,-7.667 -3.666,-0.334 -46,14 -52.666,17.334" id="path15293"/>
        <path style="fill-opacity:0;stroke:#1a1919;stroke-width:4;stroke-linecap:round;stroke-linejoin:round" inkscape:connector-curvature="0" d="m 89.484,121.464 c -2.667,1.334 -8.544,7.368 -9.334,10 -1,3.333 1,5.333 1,5.333 4.334,2 45.334,-12.333 62.334,-25 3.333,-4.333 3,-6.667 -1.334,-7.667 -3.666,-0.334 -46,14 -52.666,17.334 z" id="path15295"/>
        <path style="fill:#8a8b8a" inkscape:connector-curvature="0" d="m 118.896,162.188 c 1.284,0.407 7.657,-1.565 13.367,-5.743 5.71,-4.178 6.767,-7.932 7.387,-9.732 l -0.755,-5.795 c 0,0 -17.022,-6.522 -28.254,-2.44 l 8.255,23.71" id="path15297"/>
        <path style="fill-opacity:0;stroke:#1a1919;stroke-width:4;stroke-linecap:round;stroke-linejoin:round" inkscape:connector-curvature="0" d="m 118.896,162.188 c 1.284,0.407 7.657,-1.565 13.367,-5.743 5.71,-4.178 6.767,-7.932 7.387,-9.732 l -0.755,-5.795 c 0,0 -17.022,-6.522 -28.254,-2.44 l 8.255,23.71 z" id="path15299"/>
        <path style="fill:#fffffe" inkscape:connector-curvature="0" d="m 112.792,164.39 c 1.264,0.158 4.949,-0.865 7.619,-2.063 1.155,-1.338 4.52,-5.591 3.556,-13.045 -1.157,-8.939 -5.426,-9.989 -7.817,-11.819 0,0 -8.5,-2 -11.75,1 l 8.392,25.927" id="path15301"/>
        <path style="fill-opacity:0;stroke:#1a1919;stroke-width:4;stroke-linecap:round;stroke-linejoin:round" inkscape:connector-curvature="0" d="m 112.792,164.39 c 1.264,0.158 4.949,-0.865 7.619,-2.063 1.155,-1.338 4.52,-5.591 3.556,-13.045 -1.157,-8.939 -5.426,-9.989 -7.817,-11.819 0,0 -8.5,-2 -11.75,1 l 8.392,25.927 z" id="path15303"/>
        <path style="fill:#fffffe" inkscape:connector-curvature="0" d="m 108.925,165.225 c -5.634,0.413 -11.049,-4.97 -12.07,-11.998 -1.054,-7.263 2.978,-14.116 8.806,-14.963 0.198,-0.03 0.399,-0.051 0.599,-0.066 5.864,-0.429 11.292,5.014 12.101,12.134 0.91,8.003 -2.527,13.818 -8.755,14.814 -0.226,0.036 -0.454,0.062 -0.681,0.079" id="path15305"/>
        <path style="fill-opacity:0;stroke:#1a1919;stroke-width:4;stroke-linecap:round;stroke-linejoin:round" inkscape:connector-curvature="0" d="m 108.925,165.225 c -5.634,0.413 -11.049,-4.97 -12.07,-11.998 -1.054,-7.263 2.978,-14.116 8.806,-14.963 0.198,-0.03 0.399,-0.051 0.599,-0.066 5.864,-0.429 11.292,5.014 12.101,12.134 0.91,8.003 -2.527,13.818 -8.755,14.814 -0.226,0.036 -0.454,0.062 -0.681,0.079 z" id="path15307"/>
        <path style="fill:#283278" inkscape:connector-curvature="0" d="m 115.544,150.651 c 0.652,5.735 -1.209,10.869 -6.385,11.695 -4.09,0.653 -8.645,-3.651 -9.499,-9.528 -0.853,-5.876 2.309,-11.153 6.408,-11.75 4.099,-0.594 8.77,3.369 9.476,9.583" id="path15309"/>
        <path style="fill-opacity:0;stroke:#1a1919;stroke-width:4;stroke-linecap:round;stroke-linejoin:round" inkscape:connector-curvature="0" d="m 115.544,150.651 c 0.652,5.735 -1.209,10.869 -6.385,11.695 -4.09,0.653 -8.645,-3.651 -9.499,-9.528 -0.853,-5.876 2.309,-11.153 6.408,-11.75 4.099,-0.594 8.77,3.369 9.476,9.583 z" id="path15311"/>
        <path style="fill:#8a8b8a" inkscape:connector-curvature="0" d="m 168.563,171.188 c 1.283,0.407 7.656,-1.565 13.367,-5.743 5.709,-4.178 6.767,-7.932 7.386,-9.732 l -0.754,-5.795 c 0,0 -17.023,-6.522 -28.254,-2.44 l 8.255,23.71" id="path15313"/>
        <path style="fill-opacity:0;stroke:#1a1919;stroke-width:4;stroke-linecap:round;stroke-linejoin:round" inkscape:connector-curvature="0" d="m 168.563,171.188 c 1.283,0.407 7.656,-1.565 13.367,-5.743 5.709,-4.178 6.767,-7.932 7.386,-9.732 l -0.754,-5.795 c 0,0 -17.023,-6.522 -28.254,-2.44 l 8.255,23.71 z" id="path15315"/>
        <path style="fill:#fffffe" inkscape:connector-curvature="0" d="m 162.458,173.39 c 1.265,0.158 4.95,-0.865 7.62,-2.063 1.154,-1.338 4.52,-5.591 3.555,-13.045 -1.156,-8.939 -5.426,-9.989 -7.817,-11.819 0,0 -8.5,-2 -11.75,1 l 8.392,25.927" id="path15317"/>
        <path style="fill-opacity:0;stroke:#1a1919;stroke-width:4;stroke-linecap:round;stroke-linejoin:round" inkscape:connector-curvature="0" d="m 162.458,173.39 c 1.265,0.158 4.95,-0.865 7.62,-2.063 1.154,-1.338 4.52,-5.591 3.555,-13.045 -1.156,-8.939 -5.426,-9.989 -7.817,-11.819 0,0 -8.5,-2 -11.75,1 l 8.392,25.927 z" id="path15319"/>
        <path style="fill:#fffffe" inkscape:connector-curvature="0" d="m 158.592,174.225 c -5.635,0.413 -11.049,-4.97 -12.071,-11.998 -1.054,-7.263 2.979,-14.116 8.806,-14.963 0.198,-0.03 0.4,-0.051 0.6,-0.066 5.863,-0.429 11.292,5.014 12.1,12.134 0.911,8.003 -2.527,13.818 -8.755,14.814 -0.225,0.036 -0.454,0.062 -0.68,0.079" id="path15321"/>
        <path style="fill-opacity:0;stroke:#1a1919;stroke-width:4;stroke-linecap:round;stroke-linejoin:round" inkscape:connector-curvature="0" d="m 158.592,174.225 c -5.635,0.413 -11.049,-4.97 -12.071,-11.998 -1.054,-7.263 2.979,-14.116 8.806,-14.963 0.198,-0.03 0.4,-0.051 0.6,-0.066 5.863,-0.429 11.292,5.014 12.1,12.134 0.911,8.003 -2.527,13.818 -8.755,14.814 -0.225,0.036 -0.454,0.062 -0.68,0.079 z" id="path15323"/>
        <path style="fill:#283278" inkscape:connector-curvature="0" d="m 165.211,159.651 c 0.651,5.735 -1.209,10.869 -6.385,11.695 -4.09,0.653 -8.645,-3.651 -9.5,-9.528 -0.852,-5.876 2.31,-11.153 6.408,-11.75 4.1,-0.594 8.77,3.369 9.477,9.583" id="path15325"/>
        <path style="fill-opacity:0;stroke:#1a1919;stroke-width:4;stroke-linecap:round;stroke-linejoin:round" inkscape:connector-curvature="0" d="m 165.211,159.651 c 0.651,5.735 -1.209,10.869 -6.385,11.695 -4.09,0.653 -8.645,-3.651 -9.5,-9.528 -0.852,-5.876 2.31,-11.153 6.408,-11.75 4.1,-0.594 8.77,3.369 9.477,9.583 z" id="path15327"/>
        <path style="fill:#fffffe" inkscape:connector-curvature="0" d="m 132.484,109.797 c -1.667,0.667 -39.667,15.334 -41.667,16.667 0,0 -0.667,3 -0.333,4.333 18.333,6.667 98.332,24.667 121.666,28 2.666,0.333 5.667,0.333 9.334,-1 3.666,-1.333 6.666,-3.667 12,-8.667 -0.334,-1.333 -6,-1 -6,-1 -2.668,-1 -90.667,-37.333 -95,-38.333" id="path15329"/>
        <path style="fill-opacity:0;stroke:#1a1919;stroke-width:4;stroke-linecap:round;stroke-linejoin:round" inkscape:connector-curvature="0" d="m 132.484,109.797 c -1.667,0.667 -39.667,15.334 -41.667,16.667 0,0 -0.667,3 -0.333,4.333 18.333,6.667 98.332,24.667 121.666,28 2.666,0.333 5.667,0.333 9.334,-1 3.666,-1.333 6.666,-3.667 12,-8.667 -0.334,-1.333 -6,-1 -6,-1 -2.668,-1 -90.667,-37.333 -95,-38.333 z m -40,17.666 c 10,4.667 87,23.667 120.666,29.667 M 189.484,4.797 c -0.667,1 -26.334,43 -27.334,45.333 0,0 1.667,2.333 2.667,2.333 1,0 24,-4.666 24,-4.666 L 204.15,4.463 202.484,3.13 l -13,1.667 z" id="path15331"/>
        <path style="fill:#fffffe" inkscape:connector-curvature="0" d="m 23.817,43.13 c 0.333,1 10,29.334 11.667,33.667 1,-1 28,-11.333 28,-11.333 0,0 -27.334,-24.001 -27.334,-25.334 0,-1.333 0,-2.666 0,-2.666 -3.666,1 -10.666,1.333 -11.333,2.333 -0.667,1 -1.333,1.999 -1,3.333" id="path15333"/>
        <path style="fill-opacity:0;stroke:#1a1919;stroke-width:1.5;stroke-linecap:round;stroke-linejoin:round" inkscape:connector-curvature="0" d="m 23.817,43.13 c 0.333,1 10,29.334 11.667,33.667 1,-1 28,-11.333 28,-11.333 0,0 -27.334,-24.001 -27.334,-25.334 0,-1.333 0,-2.666 0,-2.666 -3.666,1 -10.666,1.333 -11.333,2.333 -0.667,1 -1.333,1.999 -1,3.333 z" id="path15335"/>
        <path style="fill:#fffffe" inkscape:connector-curvature="0" d="m 23.817,43.13 c 0.333,1 10,29.334 11.667,33.667 1,-1 28,-11.333 28,-11.333 0,0 -27.334,-24.001 -27.334,-25.334 0,-1.333 0,-2.666 0,-2.666 -3.666,1 -10.666,1.333 -11.333,2.333 -0.667,1 -1.333,1.999 -1,3.333" id="path15337"/>
        <path style="fill-opacity:0;stroke:#1a1919;stroke-width:1.5;stroke-linecap:round;stroke-linejoin:round" inkscape:connector-curvature="0" d="m 23.817,43.13 c 0.333,1 10,29.334 11.667,33.667 1,-1 28,-11.333 28,-11.333 0,0 -27.334,-24.001 -27.334,-25.334 0,-1.333 0,-2.666 0,-2.666 -3.666,1 -10.666,1.333 -11.333,2.333 -0.667,1 -1.333,1.999 -1,3.333 z" id="path15339"/>
        <path style="fill:#fffffe" inkscape:connector-curvature="0" d="m 136.817,40.13 2.667,4.667 4.333,7 14,-2 -10,-9 -11,-0.667" id="path15341"/>
        <path style="fill-opacity:0;stroke:#1a1919;stroke-width:1.5;stroke-linecap:round;stroke-linejoin:round" inkscape:connector-curvature="0" d="m 136.817,40.13 2.667,4.667 4.333,7 14,-2 -10,-9 -11,-0.667 z" id="path15343"/>
        <path style="fill:#fffffe" inkscape:connector-curvature="0" d="m 194.15,58.464 c -4,8 -9,15 -19.666,27.666 -8.334,8.334 -14,14 -37,27.334 -27.341,15.85 -63,26.333 -87,29.666 -37.334,5 -45.667,-11 -46.667,-14.666 -1,-3.666 -1,-7.667 0,-12 10.333,-32 19,-39 39.333,-47.334 25.66,-10.517 130,-22 145.334,-23 3.333,2.334 5,7.667 5.666,12.334" id="path15345"/>
        <path style="fill:#9e9f9e" inkscape:connector-curvature="0" d="m 171.535,89.062 c -19.871,11.34 -50.088,24.585 -66.718,32.068 -20,9 -42.333,17.333 -62.667,19.333 -14.771,1.453 -22.854,0.267 -27.834,-1.001 6.947,3.609 18.188,6.076 36.168,3.668 24,-3.333 59.659,-13.816 87,-29.666 20.211,-11.718 27.037,-17.514 34.051,-24.402" id="path15347"/>
        <path style="fill-opacity:0;stroke:#1a1919;stroke-width:1.5;stroke-linecap:round;stroke-linejoin:round" inkscape:connector-curvature="0" d="m 194.15,58.464 c -4,8 -9,15 -19.666,27.666 -8.334,8.334 -14,14 -37,27.334 -27.341,15.85 -63,26.333 -87,29.666 -37.334,5 -45.667,-11 -46.667,-14.666 -1,-3.666 -1,-7.667 0,-12 10.333,-32 19,-39 39.333,-47.334 25.66,-10.517 130,-22 145.334,-23 3.333,2.334 5,7.667 5.666,12.334 z" id="path15349"/>
        <path style="fill:#fffffe" inkscape:connector-curvature="0" d="m 189.484,61.463 -13.667,8.334 c 0,0 -0.333,2.666 0.667,3.666 6,0.334 31.755,0.716 37,-0.333 2.333,-1.333 5,-5.667 5.333,-7 0,0 -26.333,-4.334 -29.333,-4.667" id="path15351"/>
        <path style="fill-opacity:0;stroke:#1a1919;stroke-width:1.5;stroke-linecap:round;stroke-linejoin:round" inkscape:connector-curvature="0" d="m 189.484,61.463 -13.667,8.334 c 0,0 -0.333,2.666 0.667,3.666 6,0.334 31.755,0.716 37,-0.333 2.333,-1.333 5,-5.667 5.333,-7 0,0 -26.333,-4.334 -29.333,-4.667 z" id="path15353"/>
        <path style="fill:#286aa6" inkscape:connector-curvature="0" d="m 69.301,109.047 c 0,1.199 0.8,6.399 0.8,9.999 0,3.601 -2.801,9.2 -2.801,9.2 0,0 -1.199,1.2 0.401,2.001 1.6,0.8 7.999,-1.2 7.999,-1.2 l 2.401,-1.601 c 0.552,-1.438 2.127,-2.497 3.2,-8.4 0.8,-4.4 -0.173,-9.663 -0.401,-10.8 -0.4,-2 -1.999,-1.999 -1.999,-1.999 0,0 -6.4,1.2 -7.6,1.6 l -2,1.2" id="path15355"/>
        <path style="fill-opacity:0;stroke:#1a1919;stroke-width:1.5;stroke-linecap:round;stroke-linejoin:round" inkscape:connector-curvature="0" d="m 69.301,109.047 c 0,1.199 0.8,6.399 0.8,9.999 0,3.601 -2.801,9.2 -2.801,9.2 0,0 -1.199,1.2 0.401,2.001 1.6,0.8 7.999,-1.2 7.999,-1.2 l 2.401,-1.601 c 0.552,-1.438 2.127,-2.497 3.2,-8.4 0.8,-4.4 -0.173,-9.663 -0.401,-10.8 -0.4,-2 -1.999,-1.999 -1.999,-1.999 0,0 -6.4,1.2 -7.6,1.6 l -2,1.2 z" id="path15357"/>
        <path style="fill:#35a0cd" inkscape:connector-curvature="0" d="m 17.484,99.463 c -0.732,-0.732 -2.71,-4.316 -3.851,-6.841 -2.272,4.004 -4.427,8.774 -6.592,14.552 1.149,2.861 3.192,6.61 4.776,7.289 10.667,2.333 26.333,0 30,-1 0.667,-1.334 4.333,-11.666 5.333,-14.666 -2,0.667 -11,1 -16,1.333 -5,0.333 -12.666,0.333 -13.666,-0.667" id="path15359"/>
        <path style="fill-opacity:0;stroke:#1a1919;stroke-width:1.5;stroke-linecap:round;stroke-linejoin:round" inkscape:connector-curvature="0" d="m 17.484,99.463 c -0.732,-0.732 -2.71,-4.316 -3.851,-6.841 -2.272,4.004 -4.427,8.774 -6.592,14.552 1.149,2.861 3.192,6.61 4.776,7.289 10.667,2.333 26.333,0 30,-1 0.667,-1.334 4.333,-11.666 5.333,-14.666 -2,0.667 -11,1 -16,1.333 -5,0.333 -12.666,0.333 -13.666,-0.667 z" id="path15361"/>
        <path style="fill:#286aa6" inkscape:connector-curvature="0" d="m 140.4,84.246 c 1.202,-0.4 6.401,-2.1 6.401,-2.1 1.399,0.6 1.8,2.401 1.8,2.401 0,0 0.439,3.904 0.299,6 -0.299,4.5 -0.9,5.399 -1.799,7.8 l -1.201,0.899 -6.9,2.401 c 0,0 -0.899,-0.901 -0.899,-1.8 0,-0.901 1.5,-4.8 1.799,-7.8 0.15,-1.493 -0.299,-4.801 -0.599,-5.7 C 139,85.446 140.4,84.246 140.4,84.246" id="path15363"/>
        <path style="fill-opacity:0;stroke:#1a1919;stroke-width:1.5;stroke-linecap:round;stroke-linejoin:round" inkscape:connector-curvature="0" d="m 140.4,84.246 c 1.202,-0.4 6.401,-2.1 6.401,-2.1 1.399,0.6 1.8,2.401 1.8,2.401 0,0 0.439,3.904 0.299,6 -0.299,4.5 -0.9,5.399 -1.799,7.8 l -1.201,0.899 -6.9,2.401 c 0,0 -0.899,-0.901 -0.899,-1.8 0,-0.901 1.5,-4.8 1.799,-7.8 0.15,-1.493 -0.299,-4.801 -0.599,-5.7 C 139,85.446 140.4,84.246 140.4,84.246 Z" id="path15365"/>
        <path style="fill:#283278" inkscape:connector-curvature="0" d="m 89.4,110.047 -0.5,8 4.75,-2 0.5,-7.5 -4.75,1.5" id="path15367"/>
        <path style="fill-opacity:0;stroke:#1a1919;stroke-width:1.5;stroke-linecap:round;stroke-linejoin:round" inkscape:connector-curvature="0" d="m 89.4,110.047 -0.5,8 4.75,-2 0.5,-7.5 -4.75,1.5 z" id="path15369"/>
        <path style="fill:#283278" inkscape:connector-curvature="0" d="m 108.15,104.047 -0.5,8 4.75,-2 0.5,-7.5 -4.75,1.5" id="path15371"/>
        <path style="fill-opacity:0;stroke:#1a1919;stroke-width:1.5;stroke-linecap:round;stroke-linejoin:round" inkscape:connector-curvature="0" d="m 108.15,104.047 -0.5,8 4.75,-2 0.5,-7.5 -4.75,1.5 z" id="path15373"/>
        <path style="fill:#283278" inkscape:connector-curvature="0" d="m 162.65,81.047 -0.5,8 4.75,-2 0.5,-7.5 -4.75,1.5" id="path15375"/>
        <path style="fill-opacity:0;stroke:#1a1919;stroke-width:1.5;stroke-linecap:round;stroke-linejoin:round" inkscape:connector-curvature="0" d="m 162.65,81.047 -0.5,8 4.75,-2 0.5,-7.5 -4.75,1.5 z" id="path15377"/>
        <path style="fill:#283278" inkscape:connector-curvature="0" d="m 126.9,96.797 -0.5,7.5 4.75,-2 0.5,-7.5 -4.75,2" id="path15379"/>
        <path style="fill-opacity:0;stroke:#1a1919;stroke-width:1.5;stroke-linecap:round;stroke-linejoin:round" inkscape:connector-curvature="0" d="m 126.9,96.797 -0.5,7.5 4.75,-2 0.5,-7.5 -4.75,2 z" id="path15381"/>
        <path style="fill:#283278" inkscape:connector-curvature="0" d="m 153.4,86.047 -0.5,7.5 4.75,-2 0.5,-7.5 -4.75,2" id="path15383"/>
        <path style="fill-opacity:0;stroke:#1a1919;stroke-width:1.5;stroke-linecap:round;stroke-linejoin:round" inkscape:connector-curvature="0" d="m 153.4,86.047 -0.5,7.5 4.75,-2 0.5,-7.5 -4.75,2 z" id="path15385"/>
        <path style="fill:#283278" inkscape:connector-curvature="0" d="m 99.15,107.047 -0.5,8 4.25,-1.5 0.75,-8.25 -4.5,1.75" id="path15387"/>
        <path style="fill-opacity:0;stroke:#1a1919;stroke-width:1.5;stroke-linecap:round;stroke-linejoin:round" inkscape:connector-curvature="0" d="m 99.15,107.047 -0.5,8 4.25,-1.5 0.75,-8.25 -4.5,1.75 z" id="path15389"/>
        <path style="fill:#283278" inkscape:connector-curvature="0" d="m 118.15,100.047 -0.5,8 4.25,-1.5 0.75,-8.25 -4.5,1.75" id="path15391"/>
        <path style="fill-opacity:0;stroke:#1a1919;stroke-width:1.5;stroke-linecap:round;stroke-linejoin:round" inkscape:connector-curvature="0" d="m 118.15,100.047 -0.5,8 4.25,-1.5 0.75,-8.25 -4.5,1.75 z M 4.817,118.463 c -0.471,0 -0.934,0.035 -1.396,0.07 -0.568,3.544 -0.442,6.857 0.396,9.931 0.671,2.458 4.654,10.453 18.448,13.953 0.57,-1.771 0.886,-3.658 0.886,-5.62 0,-10.125 -8.208,-18.334 -18.334,-18.334 z" id="path15393"/>
        <path style="fill:#fffffe" inkscape:connector-curvature="0" d="m 189.484,4.797 c -0.667,1 -26.334,43 -27.334,45.333 0,0 1.667,2.333 2.667,2.333 1,0 24,-4.666 24,-4.666 L 204.15,4.463 202.484,3.13 l -13,1.667" id="path15395"/>
        <path style="fill:#35a0cd" inkscape:connector-curvature="0" d="m 175.279,50.509 c 6.471,-1.279 13.538,-2.712 13.538,-2.712 l 14.96,-42.28 -8.961,1.28 -19.537,43.712" id="path15397"/>
        <path style="fill:#fffffe" inkscape:connector-curvature="0" d="m 89.484,121.464 c -2.667,1.334 -8.544,7.368 -9.334,10 -1,3.333 1,5.333 1,5.333 4.334,2 45.334,-12.333 62.334,-25 3.333,-4.333 3,-6.667 -1.334,-7.667 -3.666,-0.334 -46,14 -52.666,17.334" id="path15399"/>
        <path style="fill-opacity:0;stroke:#1a1919;stroke-width:1.5;stroke-linecap:round;stroke-linejoin:round" inkscape:connector-curvature="0" d="m 89.484,121.464 c -2.667,1.334 -8.544,7.368 -9.334,10 -1,3.333 1,5.333 1,5.333 4.334,2 45.334,-12.333 62.334,-25 3.333,-4.333 3,-6.667 -1.334,-7.667 -3.666,-0.334 -46,14 -52.666,17.334 z" id="path15401"/>
        <path style="fill:#8a8b8a" inkscape:connector-curvature="0" d="m 118.896,162.188 c 1.284,0.407 7.657,-1.565 13.367,-5.743 5.71,-4.178 6.767,-7.932 7.387,-9.732 l -0.755,-5.795 c 0,0 -17.022,-6.522 -28.254,-2.44 l 8.255,23.71" id="path15403"/>
        <path style="fill-opacity:0;stroke:#1a1919;stroke-width:1.5;stroke-linecap:round;stroke-linejoin:round" inkscape:connector-curvature="0" d="m 118.896,162.188 c 1.284,0.407 7.657,-1.565 13.367,-5.743 5.71,-4.178 6.767,-7.932 7.387,-9.732 l -0.755,-5.795 c 0,0 -17.022,-6.522 -28.254,-2.44 l 8.255,23.71 z" id="path15405"/>
        <path style="fill:#fffffe" inkscape:connector-curvature="0" d="m 112.792,164.39 c 1.264,0.158 4.949,-0.865 7.619,-2.063 1.155,-1.338 4.52,-5.591 3.556,-13.045 -1.157,-8.939 -5.426,-9.989 -7.817,-11.819 0,0 -8.5,-2 -11.75,1 l 8.392,25.927" id="path15407"/>
        <path style="fill-opacity:0;stroke:#1a1919;stroke-width:1.5;stroke-linecap:round;stroke-linejoin:round" inkscape:connector-curvature="0" d="m 112.792,164.39 c 1.264,0.158 4.949,-0.865 7.619,-2.063 1.155,-1.338 4.52,-5.591 3.556,-13.045 -1.157,-8.939 -5.426,-9.989 -7.817,-11.819 0,0 -8.5,-2 -11.75,1 l 8.392,25.927 z" id="path15409"/>
        <path style="fill:#fffffe" inkscape:connector-curvature="0" d="m 108.925,165.225 c -5.634,0.413 -11.049,-4.97 -12.07,-11.998 -1.054,-7.263 2.978,-14.116 8.806,-14.963 0.198,-0.03 0.399,-0.051 0.599,-0.066 5.864,-0.429 11.292,5.014 12.101,12.134 0.91,8.003 -2.527,13.818 -8.755,14.814 -0.226,0.036 -0.454,0.062 -0.681,0.079" id="path15411"/>
        <path style="fill-opacity:0;stroke:#1a1919;stroke-width:1.5;stroke-linecap:round;stroke-linejoin:round" inkscape:connector-curvature="0" d="m 108.925,165.225 c -5.634,0.413 -11.049,-4.97 -12.07,-11.998 -1.054,-7.263 2.978,-14.116 8.806,-14.963 0.198,-0.03 0.399,-0.051 0.599,-0.066 5.864,-0.429 11.292,5.014 12.101,12.134 0.91,8.003 -2.527,13.818 -8.755,14.814 -0.226,0.036 -0.454,0.062 -0.681,0.079 z" id="path15413"/>
        <path style="fill:#283278" inkscape:connector-curvature="0" d="m 115.544,150.651 c 0.652,5.735 -1.209,10.869 -6.385,11.695 -4.09,0.653 -8.645,-3.651 -9.499,-9.528 -0.853,-5.876 2.309,-11.153 6.408,-11.75 4.099,-0.594 8.77,3.369 9.476,9.583" id="path15415"/>
        <path style="fill-opacity:0;stroke:#1a1919;stroke-width:1.5;stroke-linecap:round;stroke-linejoin:round" inkscape:connector-curvature="0" d="m 115.544,150.651 c 0.652,5.735 -1.209,10.869 -6.385,11.695 -4.09,0.653 -8.645,-3.651 -9.499,-9.528 -0.853,-5.876 2.309,-11.153 6.408,-11.75 4.099,-0.594 8.77,3.369 9.476,9.583 z" id="path15417"/>
        <path style="fill:#8a8b8a" inkscape:connector-curvature="0" d="m 168.563,171.188 c 1.283,0.407 7.656,-1.565 13.367,-5.743 5.709,-4.178 6.767,-7.932 7.386,-9.732 l -0.754,-5.795 c 0,0 -17.023,-6.522 -28.254,-2.44 l 8.255,23.71" id="path15419"/>
        <path style="fill-opacity:0;stroke:#1a1919;stroke-width:1.5;stroke-linecap:round;stroke-linejoin:round" inkscape:connector-curvature="0" d="m 168.563,171.188 c 1.283,0.407 7.656,-1.565 13.367,-5.743 5.709,-4.178 6.767,-7.932 7.386,-9.732 l -0.754,-5.795 c 0,0 -17.023,-6.522 -28.254,-2.44 l 8.255,23.71 z" id="path15421"/>
        <path style="fill:#fffffe" inkscape:connector-curvature="0" d="m 162.458,173.39 c 1.265,0.158 4.95,-0.865 7.62,-2.063 1.154,-1.338 4.52,-5.591 3.555,-13.045 -1.156,-8.939 -5.426,-9.989 -7.817,-11.819 0,0 -8.5,-2 -11.75,1 l 8.392,25.927" id="path15423"/>
        <path style="fill-opacity:0;stroke:#1a1919;stroke-width:1.5;stroke-linecap:round;stroke-linejoin:round" inkscape:connector-curvature="0" d="m 162.458,173.39 c 1.265,0.158 4.95,-0.865 7.62,-2.063 1.154,-1.338 4.52,-5.591 3.555,-13.045 -1.156,-8.939 -5.426,-9.989 -7.817,-11.819 0,0 -8.5,-2 -11.75,1 l 8.392,25.927 z" id="path15425"/>
        <path style="fill:#fffffe" inkscape:connector-curvature="0" d="m 158.592,174.225 c -5.635,0.413 -11.049,-4.97 -12.071,-11.998 -1.054,-7.263 2.979,-14.116 8.806,-14.963 0.198,-0.03 0.4,-0.051 0.6,-0.066 5.863,-0.429 11.292,5.014 12.1,12.134 0.911,8.003 -2.527,13.818 -8.755,14.814 -0.225,0.036 -0.454,0.062 -0.68,0.079" id="path15427"/>
        <path style="fill-opacity:0;stroke:#1a1919;stroke-width:1.5;stroke-linecap:round;stroke-linejoin:round" inkscape:connector-curvature="0" d="m 158.592,174.225 c -5.635,0.413 -11.049,-4.97 -12.071,-11.998 -1.054,-7.263 2.979,-14.116 8.806,-14.963 0.198,-0.03 0.4,-0.051 0.6,-0.066 5.863,-0.429 11.292,5.014 12.1,12.134 0.911,8.003 -2.527,13.818 -8.755,14.814 -0.225,0.036 -0.454,0.062 -0.68,0.079 z" id="path15429"/>
        <path style="fill:#283278" inkscape:connector-curvature="0" d="m 165.211,159.651 c 0.651,5.735 -1.209,10.869 -6.385,11.695 -4.09,0.653 -8.645,-3.651 -9.5,-9.528 -0.852,-5.876 2.31,-11.153 6.408,-11.75 4.1,-0.594 8.77,3.369 9.477,9.583" id="path15431"/>
        <path style="fill-opacity:0;stroke:#1a1919;stroke-width:1.5;stroke-linecap:round;stroke-linejoin:round" inkscape:connector-curvature="0" d="m 165.211,159.651 c 0.651,5.735 -1.209,10.869 -6.385,11.695 -4.09,0.653 -8.645,-3.651 -9.5,-9.528 -0.852,-5.876 2.31,-11.153 6.408,-11.75 4.1,-0.594 8.77,3.369 9.477,9.583 z" id="path15433"/>
        <path style="fill:#fffffe" inkscape:connector-curvature="0" d="m 132.484,109.797 c -1.667,0.667 -39.667,15.334 -41.667,16.667 0,0 -0.667,3 -0.333,4.333 18.333,6.667 98.332,24.667 121.666,28 2.666,0.333 5.667,0.333 9.334,-1 3.666,-1.333 6.666,-3.667 12,-8.667 -0.334,-1.333 -6,-1 -6,-1 -2.668,-1 -90.667,-37.333 -95,-38.333" id="path15435"/>
        <path style="fill-opacity:0;stroke:#1a1919;stroke-width:1.5;stroke-linecap:round;stroke-linejoin:round" inkscape:connector-curvature="0" d="m 132.484,109.797 c -1.667,0.667 -39.667,15.334 -41.667,16.667 0,0 -0.667,3 -0.333,4.333 18.333,6.667 98.332,24.667 121.666,28 2.666,0.333 5.667,0.333 9.334,-1 3.666,-1.333 6.666,-3.667 12,-8.667 -0.334,-1.333 -6,-1 -6,-1 -2.668,-1 -90.667,-37.333 -95,-38.333 z m 57,-105 c -0.667,1 -26.334,43 -27.334,45.333 0,0 1.667,2.333 2.667,2.333 1,0 24,-4.666 24,-4.666 L 204.15,4.463 202.484,3.13 l -13,1.667 z" id="path15437"/>
      </g>
      <path style="fill:#070000;fill-opacity:1;fill-rule:evenodd;stroke:#000000;stroke-width:2.0999999;stroke-linecap:butt;stroke-linejoin:miter;stroke-miterlimit:4;stroke-dasharray:none;stroke-opacity:1" d="m 521.42228,369.35237 c -4.43242,0.0931 -11.21882,9.12509 -4.72851,14.95898 7.20996,9.55086 18.89639,-7.27313 9.5664,-12.6289 -0.68027,-2.21034 -4.8751,-1.3928 -1.63476,-2.19727 l -0.98633,-0.0996 -1.36524,0.0723 c -0.26993,-0.0768 -0.55606,-0.11168 -0.85156,-0.10547 z m -3.59766,21.42968 c -0.18529,-0.0104 -0.36975,0.0181 -0.55078,0.10352 -8.15203,2.07406 -11.3423,10.49454 -12.90625,17.69922 -7.43378,2.16627 -10.39627,10.26228 -3.27343,15.29102 7.23596,6.08345 12.55388,-1.47238 10.61523,-8.62696 1.64975,-7.42403 12.53585,-8.52115 10.91211,-17.10351 1.34202,-3.67595 -5.60957,-7.34034 -3.2793,-6.6543 -0.40959,-0.29172 -0.9617,-0.67781 -1.51758,-0.70899 z" id="path14953" inkscape:connector-curvature="0"/>
      <path sodipodi:nodetypes="ccscccccc" inkscape:connector-curvature="0" id="path14936" d="m 514.69377,382.31135 c 7.20996,9.55086 18.89639,-7.27313 9.5664,-12.6289 -2.84715,-2.28983 -4.33682,1.12131 -7.13406,0.98114 -5.35987,-0.2686 -6.10136,8.01721 -2.43234,11.64776 z m -12.32618,24.27344 c -7.43378,2.16627 -10.39627,10.26228 -3.27343,15.29102 7.23596,6.08345 12.55388,-1.47238 10.61523,-8.62696 1.64975,-7.42403 12.53585,-8.52115 10.91211,-17.10351 -1.69441,-16.71233 -15.77101,-0.58934 -18.25391,10.43945 z" style="fill:#46e726;fill-opacity:1;fill-rule:evenodd;stroke:#000000;stroke-width:2.0999999;stroke-linecap:butt;stroke-linejoin:miter;stroke-miterlimit:4;stroke-dasharray:none;stroke-opacity:1"/>
    </g>
  </g>
  <metadata id="metadata14394">
    <rdf:RDF>
      <cc:Work>
        <dc:format>image/svg+xml</dc:format>
        <dc:type rdf:resource="http://purl.org/dc/dcmitype/StillImage"/>
        <cc:license rdf:resource="http://creativecommons.org/publicdomain/zero/1.0/"/>
        <dc:publisher>
          <cc:Agent rdf:about="http://openclipart.org/">
            <dc:title/>
          </cc:Agent>
        </dc:publisher>
        <dc:title/>
        <dc:date/>
        <dc:description>remix by j4p4n</dc:description>
        <dc:source/>
        <dc:creator>
          <cc:Agent>
            <dc:title/>
          </cc:Agent>
        </dc:creator>
        <dc:subject>
          <rdf:Bag>
            <rdf:li>Africa</rdf:li>
            <rdf:li>Antarctica</rdf:li>
            <rdf:li>Asia</rdf:li>
            <rdf:li>Aussie</rdf:li>
            <rdf:li>Australia</rdf:li>
            <rdf:li>China</rdf:li>
            <rdf:li>Earth</rdf:li>
            <rdf:li>Europe</rdf:li>
            <rdf:li>Ice</rdf:li>
            <rdf:li>India</rdf:li>
            <rdf:li>Moon</rdf:li>
            <rdf:li>Russia</rdf:li>
            <rdf:li>Sun</rdf:li>
            <rdf:li>bible</rdf:li>
            <rdf:li>cartoon</rdf:li>
            <rdf:li>clouds</rdf:li>
            <rdf:li>color</rdf:li>
            <rdf:li>colour</rdf:li>
            <rdf:li>colouring book</rdf:li>
            <rdf:li>creation</rdf:li>
            <rdf:li>crescent</rdf:li>
            <rdf:li>earth</rdf:li>
            <rdf:li>genesis</rdf:li>
            <rdf:li>globe</rdf:li>
            <rdf:li>line art</rdf:li>
            <rdf:li>moon</rdf:li>
            <rdf:li>nature</rdf:li>
            <rdf:li>planet</rdf:li>
            <rdf:li>polar</rdf:li>
            <rdf:li>solar</rdf:li>
            <rdf:li>star</rdf:li>
            <rdf:li>stars</rdf:li>
            <rdf:li>sun</rdf:li>
            <rdf:li>world</rdf:li>
          </rdf:Bag>
        </dc:subject>
      </cc:Work>
      <cc:License rdf:about="http://creativecommons.org/publicdomain/zero/1.0/">
        <cc:permits rdf:resource="http://creativecommons.org/ns#Reproduction"/>
        <cc:permits rdf:resource="http://creativecommons.org/ns#Distribution"/>
        <cc:permits rdf:resource="http://creativecommons.org/ns#DerivativeWorks"/>
      </cc:License>
    </rdf:RDF>
  </metadata>
</svg>