<?xml version="1.0" encoding="UTF-8" standalone="no"?>
<!-- Created with Inkscape (http://www.inkscape.org/) -->
<svg xmlns:inkscape="http://www.inkscape.org/namespaces/inkscape" xmlns:rdf="http://www.w3.org/1999/02/22-rdf-syntax-ns#" xmlns="http://www.w3.org/2000/svg" xmlns:sodipodi="http://sodipodi.sourceforge.net/DTD/sodipodi-0.dtd" xmlns:cc="http://creativecommons.org/ns#" xmlns:xlink="http://www.w3.org/1999/xlink" xmlns:dc="http://purl.org/dc/elements/1.1/" xmlns:svg="http://www.w3.org/2000/svg" xmlns:ns1="http://sozi.baierouge.fr" id="svg2" sodipodi:docname="Calculator.svg" viewBox="0 0 133.76 159.7" version="1.1" inkscape:version="0.48.3.1 r9886">
  <defs id="defs4">
    <filter id="filter4282" inkscape:collect="always" color-interpolation-filters="sRGB">
      <feGaussianBlur id="feGaussianBlur4284" stdDeviation="15.948153" inkscape:collect="always"/>
    </filter>
    <linearGradient id="linearGradient4367" y2="830.76" gradientUnits="userSpaceOnUse" x2="130.48" y1="120.38" x1="697.95" inkscape:collect="always">
      <stop id="stop4002" style="stop-color:#dbe3e2" offset="0"/>
      <stop id="stop4004" style="stop-color:#dbe3e2;stop-opacity:0" offset="1"/>
    </linearGradient>
    <radialGradient id="radialGradient4369" gradientUnits="userSpaceOnUse" cy="338.75" cx="761.04" gradientTransform="matrix(1 0 0 1.0619 0 -20.953)" r="36.439" inkscape:collect="always">
      <stop id="stop3845" style="stop-color:#ffffff" offset="0"/>
      <stop id="stop3847" style="stop-color:#ffffff;stop-opacity:0" offset="1"/>
    </radialGradient>
    <radialGradient id="radialGradient4371" gradientUnits="userSpaceOnUse" cy="338.75" cx="761.04" gradientTransform="matrix(1 0 0 1.0619 0 -20.953)" r="36.439" inkscape:collect="always">
      <stop id="stop3829" style="stop-color:#e6e6e6;stop-opacity:.57613" offset="0"/>
      <stop id="stop3831" style="stop-color:#ff0000" offset="1"/>
    </radialGradient>
  </defs>
  <sodipodi:namedview id="base" bordercolor="#666666" inkscape:pageshadow="2" inkscape:window-y="24" fit-margin-left="0" pagecolor="#ffffff" fit-margin-top="0" inkscape:window-maximized="1" inkscape:zoom="0.48284301" inkscape:window-x="49" inkscape:window-height="776" showgrid="false" borderopacity="1.0" inkscape:current-layer="layer1" inkscape:cx="494.10068" inkscape:cy="-206.21994" fit-margin-right="0" fit-margin-bottom="0" inkscape:window-width="1231" inkscape:pageopacity="0.0" inkscape:document-units="px"/>
  <g id="layer1" inkscape:label="Layer 1" inkscape:groupmode="layer" transform="translate(-6.2761 -7.627)">
    <g id="g4286" transform="matrix(.18474 0 0 .18474 4.3525 -7.5577)">
      <path id="path4248" style="filter:url(#filter4282);stroke:#000503;stroke-width:1.4668;fill:#1c2224" inkscape:connector-curvature="0" d="m67.168 121.19h610.51c9.8276 0 17.739 7.9117 17.739 17.739v750.96c0 9.8276-7.9117 17.739-17.739 17.739h-610.51c-9.8276 0-17.739-7.9117-17.739-17.739v-750.96c0-9.8276 7.9117-17.739 17.739-17.739z"/>
      <path id="rect3996" style="stroke:#008000;stroke-width:1.4958;fill:#00112b" inkscape:connector-curvature="0" d="m69.013 107.71h625.85c9.975 0 18.005 8.0304 18.005 18.005v762.23c0 9.975-8.0304 18.005-18.005 18.005h-625.85c-9.975 0-18.005-8.0304-18.005-18.005v-762.23c0-9.975 8.0304-18.005 18.005-18.005z"/>
      <path id="rect3998" style="opacity:.61728;fill:url(#linearGradient4367)" inkscape:connector-curvature="0" d="m69.013 107.71h625.85c9.975 0 18.005 8.0304 18.005 18.005v762.23c0 9.975-8.0304 18.005-18.005 18.005h-625.85c-9.975 0-18.005-8.0304-18.005-18.005v-762.23c0-9.975 8.0304-18.005 18.005-18.005z"/>
      <path id="rect2985" style="stroke:#003380;stroke-width:1.4668;fill:#214478" inkscape:connector-curvature="0" d="m67.168 121.19h610.51c9.8276 0 17.739 7.9117 17.739 17.739v750.96c0 9.8276-7.9117 17.739-17.739 17.739h-610.51c-9.8276 0-17.739-7.9117-17.739-17.739v-750.96c0-9.8276 7.9117-17.739 17.739-17.739z"/>
      <path id="rect2989" style="stroke:#008000;stroke-width:.50640;fill:#ffffff" inkscape:connector-curvature="0" d="m107.39 376.58h57.589c8.0518 0 14.534 6.4822 14.534 14.534v62.981c0 8.0518-6.4822 14.534-14.534 14.534h-57.589c-8.0518 0-14.534-6.4822-14.534-14.534v-62.981c0-8.0518 6.4822-14.534 14.534-14.534z"/>
      <path id="rect2991" style="stroke:#008000;stroke-width:.50640;fill:#ffffff" inkscape:connector-curvature="0" d="m222.25 376.58h57.589c8.0518 0 14.534 6.4822 14.534 14.534v62.981c0 8.0518-6.4822 14.534-14.534 14.534h-57.589c-8.0518 0-14.534-6.4822-14.534-14.534v-62.981c0-8.0518 6.4822-14.534 14.534-14.534z"/>
      <path id="rect2993" style="stroke:#008000;stroke-width:.50640;fill:#ffffff" inkscape:connector-curvature="0" d="m337.11 376.58h57.589c8.0518 0 14.534 6.4822 14.534 14.534v62.981c0 8.0518-6.4822 14.534-14.534 14.534h-57.589c-8.0518 0-14.534-6.4822-14.534-14.534v-62.981c0-8.0518 6.4822-14.534 14.534-14.534z"/>
      <path id="rect2995" style="stroke:#008000;stroke-width:.50640;fill:#ffffff" inkscape:connector-curvature="0" d="m451.96 376.58h57.589c8.0518 0 14.534 6.4822 14.534 14.534v62.981c0 8.0518-6.4822 14.534-14.534 14.534h-57.589c-8.0518 0-14.534-6.4822-14.534-14.534v-62.981c0-8.0518 6.4822-14.534 14.534-14.534z"/>
      <path id="rect3019" style="stroke:#008000;stroke-width:.50640;fill:#ffffff" inkscape:connector-curvature="0" d="m107.39 499.74h57.589c8.0518 0 14.534 6.4822 14.534 14.534v62.981c0 8.0518-6.4822 14.534-14.534 14.534h-57.589c-8.0518 0-14.534-6.4822-14.534-14.534v-62.981c0-8.0518 6.4822-14.534 14.534-14.534z"/>
      <path id="rect3021" style="stroke:#008000;stroke-width:.50640;fill:#ffffff" inkscape:connector-curvature="0" d="m222.25 499.74h57.589c8.0518 0 14.534 6.4822 14.534 14.534v62.981c0 8.0518-6.4822 14.534-14.534 14.534h-57.589c-8.0518 0-14.534-6.4822-14.534-14.534v-62.981c0-8.0518 6.4822-14.534 14.534-14.534z"/>
      <path id="rect3023" style="stroke:#008000;stroke-width:.50640;fill:#ffffff" inkscape:connector-curvature="0" d="m337.11 499.74h57.589c8.0518 0 14.534 6.4822 14.534 14.534v62.981c0 8.0518-6.4822 14.534-14.534 14.534h-57.589c-8.0518 0-14.534-6.4822-14.534-14.534v-62.981c0-8.0518 6.4822-14.534 14.534-14.534z"/>
      <path id="rect3025" style="stroke:#008000;stroke-width:.50640;fill:#ffffff" inkscape:connector-curvature="0" d="m451.96 499.74h57.589c8.0518 0 14.534 6.4822 14.534 14.534v62.981c0 8.0518-6.4822 14.534-14.534 14.534h-57.589c-8.0518 0-14.534-6.4822-14.534-14.534v-62.981c0-8.0518 6.4822-14.534 14.534-14.534z"/>
      <path id="rect3027" style="stroke:#008000;stroke-width:.50640;fill:#ffffff" inkscape:connector-curvature="0" d="m566.82 499.74h57.589c8.0518 0 14.534 6.4822 14.534 14.534v62.981c0 8.0518-6.4822 14.534-14.534 14.534h-57.589c-8.0518 0-14.534-6.4822-14.534-14.534v-62.981c0-8.0518 6.4822-14.534 14.534-14.534z"/>
      <path id="rect3031" style="stroke:#008000;stroke-width:.50640;fill:#ffffff" inkscape:connector-curvature="0" d="m107.39 631.74h57.589c8.0518 0 14.534 6.4822 14.534 14.534v62.981c0 8.0518-6.4822 14.534-14.534 14.534h-57.589c-8.0518 0-14.534-6.4822-14.534-14.534v-62.981c0-8.0518 6.4822-14.534 14.534-14.534z"/>
      <path id="rect3033" style="stroke:#008000;stroke-width:.50640;fill:#ffffff" inkscape:connector-curvature="0" d="m222.25 631.74h57.589c8.0518 0 14.534 6.4822 14.534 14.534v62.981c0 8.0518-6.4822 14.534-14.534 14.534h-57.589c-8.0518 0-14.534-6.4822-14.534-14.534v-62.981c0-8.0518 6.4822-14.534 14.534-14.534z"/>
      <path id="rect3035" style="stroke:#008000;stroke-width:.50640;fill:#ffffff" inkscape:connector-curvature="0" d="m337.11 631.74h57.589c8.0518 0 14.534 6.4822 14.534 14.534v62.981c0 8.0518-6.4822 14.534-14.534 14.534h-57.589c-8.0518 0-14.534-6.4822-14.534-14.534v-62.981c0-8.0518 6.4822-14.534 14.534-14.534z"/>
      <path id="rect3037" style="stroke:#008000;stroke-width:.50640;fill:#ffffff" inkscape:connector-curvature="0" d="m451.96 631.74h57.589c8.0518 0 14.534 6.4822 14.534 14.534v62.981c0 8.0518-6.4822 14.534-14.534 14.534h-57.589c-8.0518 0-14.534-6.4822-14.534-14.534v-62.981c0-8.0518 6.4822-14.534 14.534-14.534z"/>
      <path id="rect3039" style="stroke:#008000;stroke-width:.50640;fill:#ffffff" inkscape:connector-curvature="0" d="m568.82 631.74h57.589c8.0518 0 14.534 6.4822 14.534 14.534v62.981c0 8.0518-6.4822 14.534-14.534 14.534h-57.589c-8.0518 0-14.534-6.4822-14.534-14.534v-62.981c0-8.0518 6.4822-14.534 14.534-14.534z"/>
      <g id="g3855" transform="matrix(1.1989 0 0 1.1873 -311.63 20.385)">
        <path id="rect3043" style="stroke:#008000;stroke-width:.42340;fill:#ff0000" inkscape:connector-curvature="0" d="m736.97 300.27h48.151c6.7322 0 12.152 5.4198 12.152 12.152v52.658c0 6.7322-5.4198 12.152-12.152 12.152h-48.151c-6.7322 0-12.152-5.4198-12.152-12.152v-52.658c0-6.7322 5.4198-12.152 12.152-12.152z"/>
        <path id="rect3825" style="opacity:.61494;stroke:url(#radialGradient4371);stroke-width:.42340;fill:url(#radialGradient4369)" inkscape:connector-curvature="0" d="m736.97 300.27h48.151c6.7322 0 12.152 5.4198 12.152 12.152v52.658c0 6.7322-5.4198 12.152-12.152 12.152h-48.151c-6.7322 0-12.152-5.4198-12.152-12.152v-52.658c0-6.7322 5.4198-12.152 12.152-12.152z"/>
        <g id="g3821" style="stroke:#ffffff;stroke-width:31.174;fill:none" transform="matrix(.16039 0 0 .16039 847.33 311.03)">
          <path id="path3049" inkscape:connector-curvature="0" style="stroke:#ffffff;stroke-linecap:round" transform="matrix(-.43794 0.899 -0.899 -.43794 -618.45 719.95)" d="m-387.32 144.85c12.037 81.166-44.003 156.72-125.17 168.76-81.166 12.037-156.72-44.003-168.76-125.17-12.037-81.166 44.003-156.72 125.17-168.76 47.305-7.0154 95.096 9.1691 128.4 43.485"/>
          <path id="path3819" d="m-534.29 179.13v157.65" style="stroke:#ffffff;stroke-linecap:round;stroke-width:31.174;fill:none" inkscape:connector-curvature="0"/>
        </g>
      </g>
      <g id="text3851" style="fill:#000000">
        <path id="path4222" inkscape:connector-curvature="0" d="m124.79 406.81h21.973v4.2383l-11.367 24.922h-7.3242l10.762-23.633h-14.043v-5.5273"/>
        <path id="path4224" inkscape:connector-curvature="0" d="m247.29 422.92c-1.4063 0.00001-2.487 0.38413-3.2422 1.1523-0.75522 0.76824-1.1328 1.8685-1.1328 3.3008-0.00001 1.4323 0.37759 2.5326 1.1328 3.3008 0.7552 0.75521 1.8359 1.1328 3.2422 1.1328 1.3932 0 2.4609-0.3776 3.2031-1.1328 0.74217-0.76823 1.1133-1.8685 1.1133-3.3008-0.00001-1.4453-0.37111-2.5456-1.1133-3.3008-0.7422-0.76821-1.8099-1.1523-3.2031-1.1523m-5.4883-2.4805c-1.7708-0.53384-3.1055-1.3542-4.0039-2.4609-0.89844-1.1068-1.3477-2.487-1.3477-4.1406 0-2.4609 0.91797-4.3359 2.7539-5.625 1.8359-1.289 4.5312-1.9336 8.0859-1.9336 3.5286 0.00003 6.2109 0.64457 8.0469 1.9336 1.8359 1.2761 2.7539 3.1511 2.7539 5.625-0.00003 1.6537-0.45575 3.0339-1.3672 4.1406-0.89846 1.1068-2.2331 1.9271-4.0039 2.4609 1.9791 0.54689 3.47 1.4388 4.4726 2.6758 1.0156 1.224 1.5234 2.7734 1.5234 4.6484-0.00003 2.8906-0.96357 5.0781-2.8906 6.5625-1.9141 1.4714-4.7591 2.207-8.5352 2.207-3.7891 0-6.6536-0.73568-8.5938-2.207-1.9271-1.4844-2.8906-3.6719-2.8906-6.5625 0-1.875 0.5013-3.4245 1.5039-4.6484 1.0156-1.237 2.513-2.1289 4.4922-2.6758m1.7578-5.8398c-0.00001 1.1589 0.319 2.0508 0.95703 2.6758 0.65103 0.62502 1.5755 0.93752 2.7734 0.9375 1.1719 0.00002 2.0768-0.31248 2.7148-0.9375 0.63801-0.62498 0.95702-1.5169 0.95703-2.6758-0.00001-1.1588-0.31902-2.0442-0.95703-2.6562-0.63803-0.62498-1.543-0.93748-2.7148-0.9375-1.1979 0.00002-2.1224 0.31252-2.7734 0.9375-0.63803 0.62502-0.95704 1.5104-0.95703 2.6562"/>
        <path id="path4226" inkscape:connector-curvature="0" d="m362.52 435.32v-5.3906c1.1979 0.5599 2.3438 0.98308 3.4375 1.2695 1.0937 0.27344 2.1745 0.41016 3.2422 0.41016 2.2396 0 3.9844-0.61849 5.2344-1.8555 1.25-1.25 1.9857-3.099 2.207-5.5469-0.88544 0.65106-1.8294 1.1393-2.832 1.4648-1.0026 0.32553-2.0899 0.48829-3.2617 0.48828-2.9818 0.00001-5.3906-0.86588-7.2266-2.5977-1.8229-1.7448-2.7344-4.0364-2.7344-6.875 0-3.138 1.0156-5.651 3.0469-7.5391 2.0443-1.888 4.7786-2.832 8.2031-2.832 3.8021 0.00003 6.7448 1.2826 8.8281 3.8476 2.0833 2.5651 3.125 6.1914 3.125 10.879-0.00002 4.8177-1.2175 8.6068-3.6523 11.367-2.4349 2.7474-5.7748 4.1211-10.02 4.1211-1.3672 0-2.6758-0.10417-3.9258-0.3125-1.25-0.19531-2.474-0.49479-3.6719-0.89844m9.2774-14.043c1.3151 0.00002 2.3047-0.42316 2.9688-1.2695 0.66404-0.85935 0.99607-2.1419 0.99609-3.8476-0.00002-1.6927-0.33205-2.9687-0.99609-3.8281-0.66408-0.85935-1.6537-1.289-2.9688-1.2891-1.3151 0.00002-2.3047 0.42971-2.9688 1.2891-0.66407 0.8594-0.99611 2.1354-0.9961 3.8281-0.00001 1.7057 0.33203 2.9883 0.9961 3.8476 0.66405 0.84637 1.6536 1.2696 2.9688 1.2695"/>
      </g>
      <g id="text3880" style="fill:#000000">
        <path id="path4215" inkscape:connector-curvature="0" d="m130.25 537.34-8.2422 12.207h8.2422v-12.207m-1.25-6.1914h8.3594v18.398h4.1602v5.4492h-4.1602v5.3125h-7.1094v-5.3125h-12.93v-6.4453l11.68-17.402"/>
        <path id="path4217" inkscape:connector-curvature="0" d="m244.92 531.15h18.691v5.5273h-12.695v4.5117c0.57291-0.15623 1.1458-0.27342 1.7188-0.35156 0.58593-0.0911 1.1914-0.1367 1.8164-0.13672 3.5547 0.00002 6.3216 0.89195 8.3008 2.6758 1.9791 1.7708 2.9687 4.2448 2.9688 7.4219-0.00002 3.151-1.0808 5.6185-3.2422 7.4023-2.1484 1.7838-5.1367 2.6758-8.9648 2.6758-1.6537 0-3.2943-0.16276-4.9219-0.48828-1.6146-0.3125-3.2227-0.79427-4.8242-1.4453v-5.918c1.5885 0.91146 3.0924 1.5951 4.5117 2.0508 1.4323 0.45573 2.7799 0.6836 4.043 0.68359 1.8229 0.00001 3.2552-0.4427 4.2969-1.3281 1.0547-0.89843 1.582-2.1094 1.582-3.6328-0.00002-1.5364-0.52736-2.7474-1.582-3.6328-1.0417-0.8854-2.474-1.3281-4.2969-1.3281-1.0807 0.00001-2.2331 0.14324-3.457 0.42969-1.224 0.27345-2.5391 0.70313-3.9453 1.2891v-16.406"/>
        <path id="path4219" inkscape:connector-curvature="0" d="m366.4 545.91c-1.3151 0.00002-2.3047 0.42971-2.9688 1.2891-0.65105 0.84636-0.97657 2.1224-0.97656 3.8281-0.00001 1.7057 0.32551 2.9883 0.97656 3.8477 0.66405 0.84636 1.6536 1.2695 2.9688 1.2695 1.3281 0 2.3177-0.42317 2.9688-1.2695 0.66405-0.85937 0.99608-2.1419 0.9961-3.8477-0.00002-1.7057-0.33205-2.9818-0.9961-3.8281-0.65105-0.85936-1.6406-1.289-2.9688-1.2891m9.2969-14.004v5.3906c-1.237-0.58591-2.4024-1.0156-3.4961-1.2891-1.0938-0.28643-2.1615-0.42966-3.2031-0.42969-2.2396 0.00003-3.9844 0.62503-5.2344 1.875-1.25 1.237-1.9792 3.0794-2.1875 5.5274 0.85936-0.63801 1.7904-1.1133 2.793-1.4258 1.0026-0.32551 2.0963-0.48827 3.2812-0.48829 2.9818 0.00002 5.3841 0.87242 7.207 2.6172 1.8359 1.7448 2.7539 4.03 2.7539 6.8555-0.00002 3.125-1.0222 5.6315-3.0664 7.5195-2.0443 1.875-4.7852 2.8125-8.2227 2.8125-3.7891 0-6.7253-1.276-8.8086-3.8281-2.0703-2.5651-3.1055-6.1979-3.1055-10.898-0.00001-4.8177 1.2109-8.6002 3.6328-11.348 2.4349-2.7604 5.7682-4.1406 10-4.1406 1.3411 0.00003 2.6432 0.10419 3.9062 0.3125 1.263 0.20836 2.513 0.52086 3.75 0.9375"/>
      </g>
      <g id="text3884" style="fill:#000000">
        <path id="path4208" inkscape:connector-curvature="0" d="m118.59 687.13h6.6406v-18.848l-6.8164 1.4062v-5.1172l6.7773-1.4062h7.1484v23.965h6.6406v5.1953h-20.391v-5.1953"/>
        <path id="path4210" inkscape:connector-curvature="0" d="m250.58 686.8h12.832v5.5274h-21.191v-5.5274l10.645-9.3945c0.95051-0.85936 1.6536-1.6992 2.1094-2.5195 0.45571-0.82029 0.68357-1.6732 0.68359-2.5586-0.00002-1.3672-0.46225-2.4674-1.3867-3.3008-0.91147-0.83331-2.1289-1.25-3.6523-1.25-1.1719 0.00002-2.4544 0.25393-3.8477 0.76171-1.3932 0.49482-2.8841 1.237-4.4726 2.2266v-6.4062c1.6927-0.55987 3.3659-0.98305 5.0195-1.2695 1.6536-0.29945 3.2747-0.44919 4.8633-0.44922 3.4896 0.00003 6.1979 0.76825 8.125 2.3047 1.9401 1.5365 2.9101 3.6784 2.9102 6.4258-0.00003 1.5886-0.41018 3.0729-1.2305 4.4531-0.82034 1.3672-2.5456 3.2031-5.1758 5.5078l-6.2305 5.4688"/>
        <path id="path4212" inkscape:connector-curvature="0" d="m368.94 676.6c1.9661 0.50783 3.457 1.3932 4.4727 2.6562 1.0286 1.25 1.5429 2.8451 1.543 4.7852-0.00003 2.8906-1.1068 5.0912-3.3203 6.6016-2.2136 1.4974-5.4427 2.2461-9.6875 2.2461-1.4974 0-3.0013-0.1237-4.5117-0.37109-1.4974-0.23438-2.9818-0.59245-4.4531-1.0742v-5.8008c1.4062 0.70313 2.7995 1.237 4.1797 1.6016 1.3932 0.35157 2.7604 0.52735 4.1016 0.52735 1.9922 0 3.5156-0.34505 4.5703-1.0352 1.0677-0.6901 1.6016-1.6797 1.6016-2.9688-0.00002-1.3281-0.5469-2.3307-1.6406-3.0078-1.0807-0.6901-2.6823-1.0352-4.8047-1.0352h-3.0078v-4.8438h3.1641c1.888 0.00002 3.2943-0.29295 4.2188-0.87891 0.92447-0.59894 1.3867-1.5039 1.3867-2.7148-0.00001-1.1198-0.44923-1.9856-1.3476-2.5977-0.89846-0.61195-2.168-0.91794-3.8086-0.91796-1.211 0.00002-2.4349 0.13674-3.6719 0.41015-1.237 0.27346-2.4675 0.67711-3.6914 1.2109v-5.5078c1.4844-0.41664 2.9557-0.72914 4.4141-0.9375 1.4583-0.20831 2.8906-0.31247 4.2969-0.3125 3.789 0.00003 6.6211 0.62503 8.4961 1.875 1.888 1.237 2.832 3.1055 2.832 5.6055-0.00002 1.7057-0.44924 3.1055-1.3476 4.1992-0.89846 1.0808-2.2266 1.8425-3.9844 2.2852"/>
      </g>
      <g id="text3888" style="fill:#000000">
        <path id="path4203" inkscape:connector-curvature="0" d="m569.21 531.19h9.5703l6.6406 15.605 6.6797-15.605h9.5508v29.16h-7.1094v-21.328l-6.7188 15.723h-4.7656l-6.7188-15.723v21.328h-7.1289v-29.16"/>
        <path id="path4205" inkscape:connector-curvature="0" d="m624.46 535.27v10.234h10.195v4.6094h-10.195v10.234h-4.6484v-10.234h-10.195v-4.6094h10.195v-10.234h4.6484"/>
      </g>
      <g id="text3892" style="fill:#000000">
        <path id="path4198" inkscape:connector-curvature="0" d="m577.49 663.19h9.5703l6.6406 15.605 6.6797-15.605h9.5508v29.16h-7.1094v-21.328l-6.7188 15.723h-4.7656l-6.7188-15.723v21.328h-7.1289v-29.16"/>
        <path id="path4200" inkscape:connector-curvature="0" d="m615.83 677.99h12.266v5.6836h-12.266v-5.6836"/>
      </g>
      <path id="rect3904" style="stroke:#008000;stroke-width:.50640;fill:#ffffff" inkscape:connector-curvature="0" d="m107.39 749.74h57.589c8.0518 0 14.534 6.4822 14.534 14.534v62.981c0 8.0518-6.4822 14.534-14.534 14.534h-57.589c-8.0518 0-14.534-6.4822-14.534-14.534v-62.981c0-8.0518 6.4822-14.534 14.534-14.534z"/>
      <path id="rect3906" style="stroke:#008000;stroke-width:.50640;fill:#ffffff" inkscape:connector-curvature="0" d="m222.25 749.74h57.589c8.0518 0 14.534 6.4822 14.534 14.534v62.981c0 8.0518-6.4822 14.534-14.534 14.534h-57.589c-8.0518 0-14.534-6.4822-14.534-14.534v-62.981c0-8.0518 6.4822-14.534 14.534-14.534z"/>
      <path id="rect3908" style="stroke:#008000;stroke-width:.50640;fill:#ffffff" inkscape:connector-curvature="0" d="m337.11 749.74h57.589c8.0518 0 14.534 6.4822 14.534 14.534v62.981c0 8.0518-6.4822 14.534-14.534 14.534h-57.589c-8.0518 0-14.534-6.4822-14.534-14.534v-62.981c0-8.0518 6.4822-14.534 14.534-14.534z"/>
      <path id="rect3910" style="stroke:#008000;stroke-width:.50640;fill:#ffffff" inkscape:connector-curvature="0" d="m451.96 749.74h57.589c8.0518 0 14.534 6.4822 14.534 14.534v62.981c0 8.0518-6.4822 14.534-14.534 14.534h-57.589c-8.0518 0-14.534-6.4822-14.534-14.534v-62.981c0-8.0518 6.4822-14.534 14.534-14.534z"/>
      <path id="rect3912" style="stroke:#008000;stroke-width:.50640;fill:#ffffff" inkscape:connector-curvature="0" d="m568.82 749.74h57.589c8.0518 0 14.534 6.4822 14.534 14.534v62.981c0 8.0518-6.4822 14.534-14.534 14.534h-57.589c-8.0518 0-14.534-6.4822-14.534-14.534v-62.981c0-8.0518 6.4822-14.534 14.534-14.534z"/>
      <g id="text3918" style="fill:#000000">
        <path id="path4190" inkscape:connector-curvature="0" d="m136.44 795.72c-0.00001-3.6458-0.34507-6.2109-1.0352-7.6953-0.6771-1.4974-1.8229-2.2461-3.4375-2.2461-1.6146 0.00002-2.7669 0.74872-3.457 2.2461-0.69012 1.4844-1.0352 4.0495-1.0352 7.6953-0.00001 3.6849 0.34504 6.2826 1.0352 7.793 0.69009 1.5104 1.8424 2.2656 3.457 2.2656 1.6015 0 2.7474-0.75521 3.4375-2.2656 0.69008-1.5104 1.0351-4.1081 1.0352-7.793m7.5195 0.0586c-0.00003 4.8307-1.0417 8.5612-3.125 11.191-2.0834 2.6172-5.0391 3.9258-8.8672 3.9258-3.8412 0-6.8034-1.3086-8.8867-3.9258-2.0833-2.6302-3.125-6.3607-3.125-11.191 0-4.8437 1.0417-8.5742 3.125-11.191 2.0833-2.6302 5.0456-3.9453 8.8867-3.9453 3.8281 0.00003 6.7838 1.3151 8.8672 3.9453 2.0833 2.6172 3.125 6.3477 3.125 11.191"/>
      </g>
      <g id="text3922" style="fill:#000000">
        <path id="path4187" inkscape:connector-curvature="0" d="m586.77 789.01h25.039v4.5898h-25.039v-4.5898m0 8.8867h25.039v4.6289h-25.039v-4.6289"/>
      </g>
      <g id="text3926" style="fill:#000000">
        <path id="path4184" inkscape:connector-curvature="0" d="m481.06 783.23v10.234h10.195v4.6094h-10.195v10.234h-4.6484v-10.234h-10.195v-4.6094h10.195v-10.234h4.6484"/>
      </g>
      <g id="text3930" style="fill:#000000">
        <path id="path4181" inkscape:connector-curvature="0" d="m488.12 675.91v3.7109h-20v-3.7109h20"/>
      </g>
      <g id="text3934" style="fill:#000000">
        <path id="path4178" inkscape:connector-curvature="0" d="m486.04 545.46 10.117 14.883h-7.832l-6.8164-9.9609-6.7578 9.9609h-7.8711l10.117-14.883-9.7266-14.277h7.8516l6.3867 9.3945 6.3672-9.3945h7.8906l-9.7266 14.277"/>
      </g>
      <g id="text3938" style="fill:#000000">
        <path id="path4175" inkscape:connector-curvature="0" d="m364.34 779.33h4.3359l-10.293 32.871h-4.3164l10.273-32.871"/>
      </g>
      <g id="text3942" style="fill:#000000">
        <path id="path4172" inkscape:connector-curvature="0" d="m248.67 791.99h7.0312v7.5586h-7.0312v-7.5586"/>
      </g>
      <g id="text3946" style="fill:#000000">
        <path id="path4167" inkscape:connector-curvature="0" d="m480.49 435.56c-1.3802 0.71615-2.819 1.2565-4.3164 1.6211-1.4974 0.36458-3.0599 0.54687-4.6875 0.54687-4.8568 0-8.7044-1.3542-11.543-4.0625-2.8386-2.7214-4.2578-6.4062-4.2578-11.055 0-4.6614 1.4193-8.3463 4.2578-11.055 2.8385-2.7213 6.6862-4.082 11.543-4.082 1.6276 0.00003 3.1901 0.18232 4.6875 0.54687 1.4974 0.36461 2.9362 0.90498 4.3164 1.6211v6.0352c-1.3932-0.9505-2.767-1.6471-4.1211-2.0898-1.3542-0.44269-2.78-0.66404-4.2774-0.66407-2.6823 0.00003-4.7917 0.8594-6.3281 2.5781-1.5365 1.7188-2.3047 4.0886-2.3047 7.1094-0.00001 3.0078 0.76822 5.3711 2.3047 7.0898 1.5364 1.7188 3.6458 2.5781 6.3281 2.5781 1.4974 0.00001 2.9232-0.22135 4.2774-0.66406 1.3541-0.4427 2.7278-1.1393 4.1211-2.0898v6.0352"/>
        <path id="path4169" inkscape:connector-curvature="0" d="m486.74 408h20.293v5.6836h-12.773v5.4297h12.012v5.6836h-12.012v6.6797h13.203v5.6836h-20.723v-29.16"/>
      </g>
      <path id="rect3958" style="opacity:.61494;stroke:#ffffff;stroke-linecap:round;stroke-width:3;fill:none" inkscape:connector-curvature="0" d="m91.104 352.56h561.31c11.461 0 20.687 9.2265 20.687 20.687v489.01c0 11.461-9.2265 20.687-20.687 20.687h-561.31c-11.461 0-20.687-9.2265-20.687-20.687v-489.01c0-11.461 9.2265-20.687 20.687-20.687z"/>
      <g id="g3990" transform="translate(-7.148)">
        <path id="rect2987" style="stroke:#008000;stroke-width:1.2624;fill:#ffffff" inkscape:connector-curvature="0" d="m124.43 186.03h509.51c8.0518 0 14.534 6.4822 14.534 14.534v62.981c0 8.0518-6.4822 14.534-14.534 14.534h-509.51c-8.0518 0-14.534-6.4822-14.534-14.534v-62.981c0-8.0518 6.4822-14.534 14.534-14.534z"/>
        <path id="rect3960" inkscape:connector-curvature="0" style="opacity:.61494;stroke:#ffffff;stroke-linecap:round;stroke-width:2.7388;fill:none" transform="scale(1,-1)" d="m116.65-293.72h525.84c11.851 0 21.391 9.5404 21.391 21.391v79.213c0 11.851-9.5404 21.391-21.391 21.391h-525.84c-11.851 0-21.391-9.5404-21.391-21.391v-79.213c0-11.851 9.5404-21.391 21.391-21.391z"/>
        <g id="text3962" style="fill:#000000" transform="scale(.92649 1.0793)">
          <path id="path4145" inkscape:connector-curvature="0" d="m300.2 230.8h9.1007v-25.83l-9.3416 1.9272v-7.0129l9.288-1.9272h9.7966v32.843h9.1007v7.1199h-27.944v-7.1199"/>
          <path id="path4147" inkscape:connector-curvature="0" d="m347.69 230.35h17.586v7.575h-29.042v-7.575l14.588-12.875c1.3026-1.1777 2.2662-2.3287 2.8908-3.4529 0.62454-1.1242 0.93682-2.293 0.93684-3.5064-0.00002-1.8736-0.6335-3.3815-1.9004-4.5236-1.2491-1.142-2.9176-1.713-5.0054-1.7131-1.606 0.00003-3.3637 0.348-5.273 1.0439-1.9094 0.67812-3.9526 1.6952-6.1296 3.0514v-8.7795c2.3198-0.76727 4.6128-1.3472 6.879-1.7398 2.2662-0.41038 4.4879-0.61559 6.6649-0.61564 4.7823 0.00005 8.4939 1.0529 11.135 3.1585 2.6588 2.1057 3.9882 5.0411 3.9882 8.8062-0.00004 2.177-0.56214 4.2113-1.6863 6.1028-1.1242 1.8737-3.4886 4.3898-7.0932 7.5482l-8.5386 7.4947"/>
          <path id="path4149" inkscape:connector-curvature="0" d="m395.55 216.38c2.6945 0.69595 4.7377 1.9094 6.1296 3.6403 1.4097 1.7131 2.1145 3.899 2.1146 6.5578-0.00003 3.9615-1.5168 6.9772-4.5503 9.0471-3.0336 2.0521-7.459 3.0782-13.276 3.0782-2.0521 0-4.1132-0.16953-6.1831-0.50857-2.0521-0.3212-4.0864-0.81192-6.1028-1.4722v-7.9497c1.9272 0.96361 3.8366 1.6952 5.7281 2.1949 1.9094 0.48181 3.783 0.72271 5.621 0.7227 2.7302 0.00001 4.818-0.47287 6.2634-1.4186 1.4632-0.94575 2.1948-2.3019 2.1949-4.0685-0.00003-1.8201-0.74949-3.1941-2.2484-4.1221-1.4811-0.94574-3.676-1.4186-6.5846-1.4186h-4.1221v-6.6381h4.3362c2.5874 0.00003 4.5146-0.40147 5.7816-1.2045 1.2669-0.82082 1.9004-2.061 1.9004-3.7206-0.00003-1.5346-0.61566-2.7212-1.8469-3.56-1.2313-0.83866-2.9711-1.258-5.2195-1.258-1.6596 0.00003-3.3369 0.1874-5.0321 0.5621-1.6952 0.37476-3.3815 0.92794-5.0589 1.6595v-7.5482c2.0343-0.57098 4.0507-0.99925 6.0493-1.2848 1.9986-0.28547 3.9614-0.42822 5.8887-0.42827 5.1927 0.00005 9.0739 0.85658 11.643 2.5696 2.5874 1.6953 3.8811 4.2559 3.8812 7.682-0.00003 2.3376-0.61566 4.2559-1.8469 5.7548-1.2313 1.4811-3.0514 2.525-5.4604 3.1317"/>
          <path id="path4151" inkscape:connector-curvature="0" d="m428.31 206.45-11.296 16.729h11.296v-16.729m-1.7131-8.485h11.456v25.214h5.7013v7.4679h-5.7013v7.2805h-9.7431v-7.2805h-17.72v-8.833l16.006-23.849"/>
          <path id="path4153" inkscape:connector-curvature="0" d="m452.05 197.96h25.616v7.575h-17.398v6.1831c0.78514-0.21411 1.5703-0.37471 2.3555-0.4818 0.80299-0.12488 1.6328-0.18734 2.4893-0.18737 4.8715 0.00003 8.6634 1.2224 11.376 3.667 2.7123 2.4269 4.0685 5.8173 4.0685 10.171-0.00004 4.3184-1.4811 7.6999-4.4433 10.145-2.9444 2.4447-7.0396 3.667-12.286 3.667-2.2663 0-4.5146-0.22306-6.7452-0.66917-2.2127-0.42827-4.4165-1.0885-6.6114-1.9807v-8.1103c2.177 1.2491 4.238 2.186 6.1831 2.8105 1.9629 0.62456 3.8098 0.93684 5.5407 0.93683 2.4982 0.00001 4.4611-0.6067 5.8887-1.8201 1.4454-1.2313 2.1681-2.8908 2.1681-4.9786-0.00002-2.1056-0.72272-3.7652-2.1681-4.9786-1.4276-1.2134-3.3905-1.8201-5.8887-1.8201-1.4811 0.00002-3.0603 0.1963-4.7377 0.58886-1.6774 0.37475-3.4797 0.96362-5.4069 1.7666v-22.484"/>
          <path id="path4155" inkscape:connector-curvature="0" d="m504.19 218.2c-1.8023 0.00002-3.1585 0.58889-4.0685 1.7666-0.89223 1.1599-1.3384 2.9087-1.3383 5.2463-0.00002 2.3376 0.4461 4.0953 1.3383 5.273 0.91005 1.1599 2.2662 1.7398 4.0685 1.7398 1.8201 0.00001 3.1763-0.57993 4.0685-1.7398 0.91004-1.1777 1.3651-2.9354 1.3651-5.273-0.00003-2.3376-0.45506-4.0864-1.3651-5.2463-0.89225-1.1777-2.2484-1.7666-4.0685-1.7666m12.741-19.192v7.3876c-1.6953-0.80296-3.2923-1.3918-4.7912-1.7666-1.499-0.39254-2.9622-0.58883-4.3897-0.58886-3.0693 0.00003-5.4604 0.85656-7.1735 2.5696-1.7131 1.6952-2.7124 4.2202-2.9979 7.575 1.1777-0.87435 2.4536-1.5257 3.8276-1.954 1.374-0.44609 2.8729-0.66914 4.4968-0.66917 4.0864 0.00003 7.3786 1.1956 9.8769 3.5867 2.516 2.3912 3.7741 5.5229 3.7741 9.3951-0.00004 4.2827-1.4008 7.7177-4.2024 10.305-2.8016 2.5696-6.5578 3.8544-11.269 3.8544-5.1928 0-9.2167-1.7488-12.072-5.2463-2.8373-3.5154-4.2559-8.4939-4.2559-14.936 0-6.6024 1.6595-11.786 4.9786-15.551 3.3369-3.783 7.9051-5.6745 13.705-5.6745 1.838 0.00004 3.6224 0.14279 5.3533 0.42826 1.7309 0.28556 3.4439 0.71382 5.1392 1.2848"/>
          <path id="path4157" inkscape:connector-curvature="0" d="m526.14 197.96h30.112v5.8084l-15.578 34.154h-10.038l14.748-32.388h-19.245v-7.575"/>
          <path id="path4159" inkscape:connector-curvature="0" d="m579.68 220.04c-1.9272 0.00002-3.4083 0.52643-4.4433 1.5792s-1.5525 2.5607-1.5525 4.5236c-0.00001 1.9629 0.51748 3.4708 1.5525 4.5236 1.035 1.035 2.516 1.5525 4.4433 1.5525 1.9093 0.00001 3.3726-0.51748 4.3897-1.5525 1.0171-1.0528 1.5257-2.5607 1.5257-4.5236-0.00003-1.9807-0.50859-3.4886-1.5257-4.5236-1.0172-1.0528-2.4804-1.5792-4.3897-1.5792m-7.5214-3.3994c-2.4268-0.7316-4.2559-1.8558-5.4872-3.3726s-1.8469-3.4083-1.8469-5.6745c-0.00001-3.3726 1.258-5.9422 3.7741-7.7088 2.516-1.7666 6.2098-2.6498 11.081-2.6499 4.8358 0.00005 8.5118 0.88334 11.028 2.6499 2.516 1.7488 3.7741 4.3184 3.7741 7.7088-0.00003 2.2663-0.62459 4.1578-1.8737 5.6745-1.2313 1.5168-3.0604 2.641-5.4872 3.3726 2.7123 0.74948 4.7555 1.9718 6.1296 3.667 1.3918 1.6774 2.0878 3.8009 2.0878 6.3705-0.00003 3.9615-1.3205 6.9593-3.9615 8.9936-2.6232 2.0164-6.5222 3.0246-11.697 3.0246-5.1927 0-9.1185-1.0082-11.777-3.0246-2.641-2.0343-3.9615-5.0321-3.9615-8.9936-0.00001-2.5696 0.687-4.6931 2.061-6.3705 1.3919-1.6952 3.444-2.9176 6.1563-3.667m2.409-8.0032c-0.00001 1.5882 0.43718 2.8105 1.3116 3.667 0.8922 0.85655 2.1592 1.2848 3.8009 1.2848 1.606 0.00002 2.8462-0.42825 3.7206-1.2848 0.87435-0.85651 1.3115-2.0788 1.3116-3.667-0.00003-1.5881-0.43722-2.8015-1.3116-3.6403-0.8744-0.8565-2.1146-1.2848-3.7206-1.2848-1.6417 0.00003-2.9087 0.4283-3.8009 1.2848-0.87439 0.85656-1.3116 2.07-1.3116 3.6403"/>
          <path id="path4161" inkscape:connector-curvature="0" d="m604.19 237.04v-7.3876c1.6417 0.76732 3.212 1.3473 4.7109 1.7398 1.4989 0.37474 2.98 0.5621 4.4433 0.5621 3.0692 0 5.4604-0.84761 7.1735-2.5428 1.713-1.713 2.7212-4.247 3.0246-7.6017-1.2134 0.89224-2.5072 1.5614-3.8812 2.0075-1.374 0.44613-2.864 0.66918-4.47 0.66917-4.0864 0.00001-7.3876-1.1866-9.9037-3.56-2.4982-2.3911-3.7473-5.5318-3.7473-9.4219 0-4.3005 1.3919-7.7445 4.1756-10.332 2.8016-2.5874 6.5489-3.8811 11.242-3.8812 5.2106 0.00004 9.2434 1.7577 12.099 5.273 2.8551 3.5154 4.2826 8.4851 4.2827 14.909-0.00004 6.6025-1.6685 11.795-5.0054 15.578-3.3369 3.7652-7.914 5.6478-13.731 5.6478-1.8737 0-3.667-0.14276-5.3801-0.42827-1.7131-0.26767-3.3904-0.67809-5.0321-1.2313m12.714-19.245c1.8023 0.00002 3.1584-0.57992 4.0685-1.7398 0.91004-1.1777 1.3651-2.9354 1.3651-5.273-0.00002-2.3198-0.45506-4.0685-1.3651-5.2463-0.91009-1.1777-2.2663-1.7666-4.0685-1.7666-1.8023 0.00003-3.1585 0.5889-4.0685 1.7666-0.91008 1.1778-1.3651 2.9265-1.3651 5.2463-0.00001 2.3376 0.45502 4.0953 1.3651 5.273 0.91006 1.1599 2.2662 1.7398 4.0685 1.7398"/>
          <path id="path4163" inkscape:connector-curvature="0" d="m662.04 217.9c-0.00003-4.9964-0.47291-8.5118-1.4186-10.546-0.92793-2.0521-2.4982-3.0781-4.7109-3.0782-2.2127 0.00003-3.792 1.0261-4.7377 3.0782-0.94577 2.0343-1.4186 5.5496-1.4186 10.546-0.00002 5.05 0.47286 8.61 1.4186 10.68s2.525 3.1049 4.7377 3.1049c2.1948 0.00001 3.7652-1.035 4.7109-3.1049 0.94573-2.07 1.4186-5.6299 1.4186-10.68m10.305 0.0803c-0.00003 6.6203-1.4276 11.733-4.2827 15.337-2.8551 3.5867-6.9058 5.3801-12.152 5.3801-5.2641 0-9.3237-1.7934-12.179-5.3801-2.8551-3.6046-4.2827-8.717-4.2827-15.337 0-6.6381 1.4276-11.751 4.2827-15.337 2.8551-3.6045 6.9147-5.4068 12.179-5.4069 5.2462 0.00005 9.2969 1.8023 12.152 5.4069 2.8551 3.5868 4.2826 8.6992 4.2827 15.337"/>
        </g>
      </g>
    </g>
  </g>
  <metadata>
    <rdf:RDF>
      <cc:Work>
        <dc:format>image/svg+xml</dc:format>
        <dc:type rdf:resource="http://purl.org/dc/dcmitype/StillImage"/>
        <cc:license rdf:resource="http://creativecommons.org/licenses/publicdomain/"/>
        <dc:publisher>
          <cc:Agent rdf:about="http://openclipart.org/">
            <dc:title>Openclipart</dc:title>
          </cc:Agent>
        </dc:publisher>
        <dc:title>Calculator</dc:title>
        <dc:date>2012-06-24T09:26:41</dc:date>
        <dc:description>Simple calculator</dc:description>
        <dc:source>https://openclipart.org/detail/170891/calculator-by-gsagri04-170891</dc:source>
        <dc:creator>
          <cc:Agent>
            <dc:title>gsagri04</dc:title>
          </cc:Agent>
        </dc:creator>
        <dc:subject>
          <rdf:Bag>
            <rdf:li>Calculator</rdf:li>
            <rdf:li>calc</rdf:li>
            <rdf:li>calculation</rdf:li>
            <rdf:li>count</rdf:li>
            <rdf:li>inkscape</rdf:li>
            <rdf:li>open</rdf:li>
          </rdf:Bag>
        </dc:subject>
      </cc:Work>
      <cc:License rdf:about="http://creativecommons.org/licenses/publicdomain/">
        <cc:permits rdf:resource="http://creativecommons.org/ns#Reproduction"/>
        <cc:permits rdf:resource="http://creativecommons.org/ns#Distribution"/>
        <cc:permits rdf:resource="http://creativecommons.org/ns#DerivativeWorks"/>
      </cc:License>
    </rdf:RDF>
  </metadata>
</svg>