<?xml version="1.0" encoding="UTF-8" standalone="no"?>
<!-- Created with Inkscape (http://www.inkscape.org/) -->
<svg xmlns:inkscape="http://www.inkscape.org/namespaces/inkscape" xmlns:rdf="http://www.w3.org/1999/02/22-rdf-syntax-ns#" xmlns="http://www.w3.org/2000/svg" xmlns:sodipodi="http://sodipodi.sourceforge.net/DTD/sodipodi-0.dtd" xmlns:cc="http://creativecommons.org/ns#" xmlns:xlink="http://www.w3.org/1999/xlink" xmlns:dc="http://purl.org/dc/elements/1.1/" xmlns:svg="http://www.w3.org/2000/svg" xmlns:ns1="http://sozi.baierouge.fr" id="svg3496" sodipodi:docname="New document 2" viewBox="0 0 600 350" version="1.1" inkscape:version="0.48.1 ">
  <defs id="defs3498">
    <pattern id="pattern4559" xlink:href="#pattern3048" patternTransform="translate(313.5 700.37)" inkscape:collect="always"/>
    <pattern id="pattern3048" width="150.5766" patternUnits="userSpaceOnUse" patternTransform="translate(142.78 723.94)" height="21.163848">
      <path id="path3044" style="stroke:#000000;stroke-width:1px;fill:none" d="m0.0759 0.56796c1.4572-0.18839 2.9684 0.063476 4.2857 0.71429 1.7904 0.88455 3.1612 2.453 4.2027 4.1569 1.0414 1.7039 1.7952 3.5645 2.6738 5.3578 0.87856 1.7934 1.9087 3.5546 3.3859 4.8983 0.73863 0.6719 1.5854 1.2321 2.5152 1.5962 0.92977 0.36406 1.9442 0.52816 2.9367 0.41929 1.0205-0.11194 1.9996-0.51016 2.8499-1.0855 0.85023-0.57535 1.575-1.3242 2.1813-2.1526 1.2127-1.6568 1.9474-3.606 2.6873-5.5213 0.73981-1.9153 1.5165-3.8543 2.7945-5.4613 0.63901-0.80349 1.4017-1.5163 2.2849-2.0396 0.88323-0.52329 1.8903-0.85268 2.9164-0.88264 1.2232-0.035716 2.4401 0.35697 3.4707 1.0169 1.0306 0.65995 1.8811 1.5781 2.551 2.6022 1.3399 2.0482 1.9564 4.4707 2.5999 6.8321 0.64351 2.3614 1.3659 4.7722 2.867 6.7054 0.75054 0.96658 1.6937 1.7975 2.7966 2.3277 1.1029 0.53028 2.3705 0.74813 3.572 0.51572 1.0513-0.20336 2.0233-0.74399 2.8097-1.4708 0.78643-0.72677 1.3931-1.6344 1.8429-2.6062 0.89965-1.9435 1.1755-4.1071 1.4783-6.2273 0.30283-2.1201 0.65986-4.2842 1.6956-6.1587 0.51787-0.93728 1.2054-1.7903 2.0649-2.429 0.85948-0.63873 1.8962-1.056 2.9657-1.108 1.14-0.055403 2.2815 0.3068 3.2367 0.9314 0.95529 0.6246 1.7305 1.5018 2.3195 2.4795 1.1779 1.9553 1.6108 4.2564 2.0134 6.5033 0.40252 2.247 0.81388 4.5484 1.9572 6.5242 0.57167 0.98788 1.3267 1.8811 2.2652 2.5307 0.93849 0.64957 2.0668 1.0463 3.208 1.031 1.1466-0.01536 2.2686-0.44603 3.1927-1.1249 0.9241-0.67891 1.6571-1.5969 2.2057-2.6038 1.0972-2.0139 1.4602-4.3322 1.8435-6.5934 0.38325-2.2611 0.82752-4.5789 2.0545-6.5164 0.61348-0.96877 1.4224-1.8265 2.4087-2.4113 0.98638-0.58476 2.1561-0.88511 3.2948-0.75022 1.0514 0.12455 2.043 0.61474 2.8416 1.3098 0.79863 0.69504 1.4109 1.588 1.8558 2.5486 0.88993 1.9214 1.1163 4.0716 1.3783 6.1728s0.59083 4.2548 1.6499 6.0884c0.52952 0.91679 1.2417 1.7391 2.1267 2.3203 0.88492 0.58121 1.9482 0.91156 3.0048 0.84584 1.0446-0.06497 2.0474-0.51436 2.852-1.1838 0.80459-0.66944 1.4179-1.5504 1.8527-2.5025 0.86972-1.9041 1.0326-4.0428 1.2044-6.1291 0.17181-2.0863 0.38125-4.2287 1.3289-6.0952 0.47383-0.93327 1.1334-1.7833 1.9779-2.4016 0.84453-0.6183 1.8804-0.99503 2.9269-0.97352 1.0622 0.021835 2.0962 0.45338 2.9208 1.1233 0.82462 0.66987 1.4472 1.5679 1.875 2.5404 0.85572 1.9449 0.94146 4.1287 1.0032 6.2527 0.0617 2.1239 0.124 4.3046 0.93954 6.2667 0.40778 0.98104 1.0063 1.8938 1.8099 2.5887 0.80357 0.69498 1.8198 1.1628 2.8801 1.2283 1.1552 0.07134 2.3132-0.33882 3.242-1.0296 0.92873-0.69076 1.6383-1.648 2.1432-2.6895 1.0098-2.083 1.2153-4.4472 1.574-6.7341 0.17932-1.1435 0.40195-2.2854 0.78747-3.3767 0.38553-1.0914 0.94006-2.1353 1.7247-2.9862 0.78463-0.85091 1.8106-1.501 2.9451-1.7302 1.1345-0.22913 2.3755-0.010031 3.2979 0.68919 0.54887 0.41608 0.97501 0.99209 1.2123 1.6387 0.2373 0.64659 0.28494 1.3615 0.13553 2.0339-0.14941 0.67236-0.49536 1.2998-0.98417 1.785-0.48882 0.48523-1.1188 0.82654-1.7922 0.971" sodipodi:nodetypes="caaaaaaaaaaac" inkscape:connector-curvature="0" inkscape:path-effect="#path-effect3046" inkscape:original-d="m 0.0759,0.56796248 c -1.06435,1.25715002 3.00539,0.0373 4.28571,0.71429002 6.69919,3.5422 8.1367,16.5090195 15.71429,16.4285795 7.75138,-0.0823 7.96263,-17.19359952 15.71428,-17.14285952 8.93711,0.0585 8.94755,20.70315952 17.85714,19.99999952 7.90082,-0.62355 4.93691,-19.71409952 12.85715,-19.99999952 8.32791,-0.30062 6.66666,19.99999952 15,19.99999952 8.33333,0 6.66987,-20.23121952 15,-19.99999952 7.72321,0.21436 5.13162,19.38645952 12.85714,19.28570952 7.59605,-0.0991 4.5479,-19.44816952 12.14286,-19.28570952 7.67658,0.16421 3.78956,19.22385952 11.42857,19.99999952 7.88835,0.80147 8.64565,-21.44920952 15.71428,-17.8571395 1.95695,0.99446 -1.42857,6.42857 -1.42857,6.42857"/>
    </pattern>
    <pattern id="pattern4551" xlink:href="#pattern3048" patternTransform="translate(262.78 782.51)" inkscape:collect="always"/>
    <pattern id="pattern4750" xlink:href="#pattern4725" patternTransform="translate(93.496 687.22)" inkscape:collect="always"/>
    <pattern id="pattern4725" xlink:href="#pattern3048" patternTransform="translate(142.78 723.94)" inkscape:collect="always"/>
  </defs>
  <sodipodi:namedview id="base" bordercolor="#666666" inkscape:pageshadow="2" inkscape:window-y="-4" pagecolor="#ffffff" inkscape:window-height="751" inkscape:window-maximized="1" inkscape:zoom="1.979899" inkscape:window-x="-4" showgrid="false" borderopacity="1.0" inkscape:current-layer="layer1" inkscape:cx="290.97688" inkscape:cy="136.14203" inkscape:window-width="1280" inkscape:pageopacity="0.0" inkscape:document-units="px"/>
  <g id="layer1" inkscape:label="Layer 1" inkscape:groupmode="layer" transform="translate(0 -702.36)">
    <g id="g5126" inkscape:export-ydpi="22.983002" inkscape:export-xdpi="22.983002" inkscape:export-filename="D:\Inkscape\Inkscape drawings\PNG\goldenlane1.png" transform="matrix(.63845 0 0 .63845 -29.718 619.65)">
      <path id="path5128" d="m105 473.08 4.29 123.57 135.71 2.14l2.1429-145z" style="stroke:#000000;stroke-width:1px;fill:none" inkscape:connector-curvature="0"/>
      <path id="path5130" d="m105 473.08 70-115.71 72.143 96.429l1.4286-90 157.86 2.1429-0.71428 235-160.72-2.15" sodipodi:nodetypes="cccccccc" style="stroke:#000000;stroke-width:1px;fill:none" inkscape:connector-curvature="0"/>
      <path id="path5132" d="m406.24 429.5 84.479-49.279h118.57l75.71 50.71z" style="stroke:#000000;stroke-width:1px;fill:none" inkscape:connector-curvature="0"/>
      <path id="path5134" d="m685 430.93-8.5714 161.43-270.71 8.5714" style="stroke:#000000;stroke-width:1px;fill:none" inkscape:connector-curvature="0"/>
      <path id="path5136" d="m430 478.08 12.857 82.143 69.286-13.571-10-81.429z" style="stroke:#000000;stroke-width:1px;fill:none" inkscape:connector-curvature="0"/>
      <path id="path5138" d="m558.57 465.22 96.43-9.29l-8.5714 97.857-75 0.71429z" style="stroke:#000000;stroke-width:1px;fill:none" inkscape:connector-curvature="0"/>
      <path id="path5140" d="m565.05 510.21 85.664-5.3499" style="stroke:#000000;stroke-width:1px;fill:none" inkscape:connector-curvature="0"/>
      <path id="path5142" d="m606.79 460.58 2.1429 93.571" style="stroke:#000000;stroke-width:1px;fill:none" inkscape:connector-curvature="0"/>
      <path id="path5144" d="m464.22 471.98 13.28 81.45" style="stroke:#000000;stroke-width:1px;fill:none" inkscape:connector-curvature="0"/>
      <path id="path5146" d="m436.43 519.15 70.714-13.214" style="stroke:#000000;stroke-width:1px;fill:none" inkscape:connector-curvature="0"/>
      <path id="path5148" d="m133.57 499.51 4.9814 97.605 60.008 0.94749 7.8681-112.84z" style="stroke:#000000;stroke-width:1px;fill:none" inkscape:connector-curvature="0"/>
      <path id="path5150" d="m248.57 363.79 157.14 237.14" style="stroke:#000000;stroke-width:1px;fill:none" inkscape:connector-curvature="0"/>
      <path id="path5152" d="m406.43 365.93-161.43 232.86" style="stroke:#000000;stroke-width:1px;fill:none" inkscape:connector-curvature="0"/>
      <path id="path5154" d="m247.02 462.17 20.124 54.478 59.302-35.339-25.012-37.745z" style="stroke:#000000;stroke-width:1px;fill:none" inkscape:connector-curvature="0"/>
      <path id="path5156" d="m278.71 451.33 18.085 47.644" style="stroke:#000000;stroke-width:1px;fill:none" inkscape:connector-curvature="0"/>
      <path id="path5158" d="m257.08 489.41 56.858-26.973" style="stroke:#000000;stroke-width:1px;fill:none" inkscape:connector-curvature="0"/>
      <path id="path5160" d="m342.22 458.56 5.488 54.835 58.265 3.2584-20.256-82.86z" style="stroke:#000000;stroke-width:1px;fill:none" inkscape:connector-curvature="0"/>
      <path id="path5162" d="m362.7 446.89 14.138 68.127" style="stroke:#000000;stroke-width:1px;fill:none" inkscape:connector-curvature="0"/>
      <path id="path5164" d="m344.96 485.97 50.88-10.75" style="stroke:#000000;stroke-width:1px;fill:none" inkscape:connector-curvature="0"/>
      <g id="g5166" transform="translate(-167.86 44.286)">
        <path id="path5168" style="color:#000000;stroke:#000000;stroke-width:.71429;fill:#d45500" inkscape:connector-curvature="0" d="m493.16 333.54c-49.764-3.3906-90.626-6.3255-90.805-6.5219-0.17895-0.19643 9.3756-14.5 21.232-31.786l21.558-31.429 5.3186-0.43496c2.9252-0.23923 25.594-0.6725 50.375-0.96284l45.056-0.52788 20.615 36.677c11.338 20.172 21.229 37.722 21.979 38.999l1.3636 2.3214-3.1063-0.0852c-1.7084-0.0469-43.822-2.8594-93.586-6.25z"/>
        <path id="path5170" style="stroke:#000000;stroke-width:1px;fill:url(#pattern4559)" inkscape:connector-curvature="0" d="m400 327.36 191.43 12.857-45-80-101.43 1.4286z"/>
      </g>
      <path id="path5172" d="m295.71 393.79 17.143 36.429 43.661 7.7089 9.1961-48.423z" style="stroke:#000000;stroke-width:1px;fill:none" inkscape:connector-curvature="0"/>
      <path id="path5174" d="m332.72 391.53 1.9692 42.549" style="stroke:#000000;stroke-width:1px;fill:none" inkscape:connector-curvature="0"/>
      <path id="path5176" d="m304.29 412.01 56.831 1.7116" style="stroke:#000000;stroke-width:1px;fill:none" inkscape:connector-curvature="0"/>
      <path id="path5178" d="m310 599.66-12.671-76.348 50.378-9.9172 6.5898 86.856" style="stroke:#000000;stroke-width:1px;fill:none" inkscape:connector-curvature="0"/>
      <path id="path5180" sodipodi:rx="8.3901119" sodipodi:ry="7.1476002" style="color:#000000;stroke:#000000;fill:#f9f9f9" sodipodi:type="arc" d="m202.49 548.79c0 3.9475-3.7564 7.1476-8.3901 7.1476s-8.3901-3.2001-8.3901-7.1476 3.7564-7.1476 8.3901-7.1476 8.3901 3.2001 8.3901 7.1476z" sodipodi:cy="548.78601" sodipodi:cx="194.1044"/>
      <path id="path5182" sodipodi:rx="3.5714285" sodipodi:ry="3.2142856" style="color:#000000;stroke:#000000;fill:#f9f9f9" sodipodi:type="arc" d="m349.29 559.86c0 1.7752-1.599 3.2143-3.5714 3.2143s-3.5714-1.4391-3.5714-3.2143 1.599-3.2143 3.5714-3.2143 3.5714 1.4391 3.5714 3.2143z" sodipodi:cy="559.86218" sodipodi:cx="345.71429"/>
      <path id="path5184" d="m108.13 469.04c0.79625-1.3037 16.117-26.638 34.047-56.299 17.929-29.661 32.744-53.929 32.922-53.929 0.89774 0 70.262 93.596 69.471 93.74-0.50853 0.093-30.657 4.1831-66.996 9.0891s-67.156 9.111-68.481 9.3442l-2.41 0.42414 1.4478-2.3704z" style="color:#000000;stroke:#000000;stroke-width:.71429;fill:#d45500" inkscape:connector-curvature="0"/>
      <path id="path5186" style="color:#000000;stroke:#000000;stroke-width:.71429;fill:url(#pattern4551)" inkscape:connector-curvature="0" d="m107.41 468.32c0.79625-1.3037 16.117-26.638 34.047-56.299 17.929-29.661 32.744-53.929 32.922-53.929 0.89774 0 70.262 93.596 69.471 93.74-0.50853 0.093-30.657 4.1831-66.996 9.0891s-67.156 9.111-68.481 9.3442l-2.41 0.42414 1.4478-2.3704z"/>
      <g id="g5188" transform="translate(-125.71 30.714)">
        <path id="path5190" style="color:#000000;stroke:#000000;stroke-width:.71429;fill:#d45500" inkscape:connector-curvature="0" d="m616.72 398.47c-45.06-0.23412-82.09-0.58828-82.289-0.78702-0.19873-0.19874 17.704-10.876 39.783-23.727l40.144-23.366h59.191 59.191l35.454 23.671c19.5 13.019 35.759 23.947 36.133 24.286 0.71736 0.65015-51.847 0.62865-187.61-0.0767z"/>
        <path id="path5192" d="m616.72 398.47c-45.06-0.23412-82.09-0.58828-82.289-0.78702-0.19873-0.19874 17.704-10.876 39.783-23.727l40.144-23.366h59.191 59.191l35.454 23.671c19.5 13.019 35.759 23.947 36.133 24.286 0.71736 0.65015-51.847 0.62865-187.61-0.0767z" style="color:#000000;stroke:#000000;stroke-width:.71429;fill:url(#pattern3048)" inkscape:connector-curvature="0"/>
      </g>
      <path id="path5194" d="m204.23 597.21-4.8905-0.25145 0.4315-4.7872c0.23733-2.633 1.0661-13.948 1.8418-25.144 0.77567-11.196 2.3866-34.306 3.5798-51.355s2.0673-31.1 1.9423-31.225c-0.28306-0.28305-73.604 14.056-74.062 14.484-0.18353 0.17126 0.71287 21.268 1.992 46.882s2.3132 47.506 2.298 48.648l-0.0277 2.0772-13.327-0.46374c-7.3298-0.25506-13.453-0.58985-13.607-0.74396-0.32353-0.32354-4.6438-121.28-4.3392-121.49 0.40974-0.28068 140.01-19.028 140.12-18.817 0.0634 0.12009-0.26331 24.004-0.72604 53.076-0.46273 29.071-0.87171 61.134-0.90884 71.25l-0.0675 18.393-17.679-0.1399c-9.7232-0.0769-19.879-0.25305-22.569-0.39135z" style="color:#000000;stroke:#000000;stroke-width:.71429;fill:#00aad4" inkscape:connector-curvature="0"/>
      <path id="path5196" d="m406.78 515.58c0.19683-46.366 0.5581-84.503 0.80283-84.748 0.61996-0.61996 275.33 0.80728 275.95 1.4337 0.48509 0.4851-7.5475 158.36-8.0895 158.99-0.24508 0.28662-253.51 8.527-264.1 8.593l-4.9242 0.0307 0.35785-84.303zm71.991 38.509c18.661-3.6187 34.019-6.6451 34.13-6.7254 0.21118-0.15286-9.8489-82.723-10.111-82.985-0.17373-0.17374-71.852 12.537-72.995 12.944-0.49758 0.17727 1.5192 14.69 5.8298 41.951 3.6248 22.924 6.6189 41.782 6.6536 41.907 0.0347 0.12468 0.62558 0.0604 1.3131-0.14301 0.6875-0.20334 16.518-3.3304 35.179-6.9491zm168.34 0.52723c0.22681-0.17976 8.8363-99.227 8.6417-99.418-0.10594-0.10416-21.407 1.8651-47.335 4.3761-25.929 2.511-47.969 4.5721-48.978 4.5801l-1.8354 0.0146 6.5795 45.536c3.6187 25.045 6.6143 45.56 6.6568 45.59 0.13842 0.0975 76.145-0.57849 76.271-0.67834z" style="color:#000000;stroke:#000000;stroke-width:.71429;fill:#ffcc00" inkscape:connector-curvature="0"/>
      <path id="path5198" d="m248.09 449.75c0.0668-19.513 1.2111-75.646 1.5489-75.984 0.18057-0.18057 1.3155-0.13089 2.522 0.11041 2.3517 0.47034 4.5182 3.5585 35.548 50.669l12.249 18.598-25.041 8.5451c-13.772 4.6998-25.451 8.649-25.953 8.776-0.71159 0.18016-0.90393-2.1758-0.87469-10.714z" style="color:#000000;stroke:#000000;stroke-width:.71429;fill:#ffeeaa" inkscape:connector-curvature="0"/>
      <path id="path5200" d="m395.66 470.77c-5.0495-20.721-9.2901-37.79-9.4235-37.931-0.1334-0.14124-9.1241 4.7902-19.979 10.959-10.855 6.1686-19.83 11.106-19.945 10.971-0.18496-0.21731 47.967-69.921 49.051-71.004 0.24045-0.24045 2.5469-0.21125 5.1255 0.0649l4.6883 0.50208 0.009 62.061c0.005 34.133-0.0703 62.059-0.16781 62.057-0.0975-0.002-4.3087-16.958-9.3582-37.679z" style="color:#000000;stroke:#000000;stroke-width:.71429;fill:#ffeeaa" inkscape:connector-curvature="0"/>
      <path id="path5202" d="m291.47 426.84c-19.069-28.777-34.468-52.395-34.221-52.485 0.65875-0.23974 135.13 8.8868 135.42 9.1912 0.13764 0.14191-7.3534 11.231-16.647 24.642-9.2933 13.411-17 24.11-17.127 23.776-0.12627-0.33461 1.5759-10.141 3.7826-21.792s3.9172-21.272 3.801-21.38c-0.23337-0.21763-71.522 4.0458-71.836 4.2962-0.10789 0.086 3.7858 8.6395 8.6527 19.008l8.8489 18.851 20.905 3.7243c11.498 2.0484 21.051 3.8702 21.229 4.0486 0.36772 0.36772-27.067 40.367-27.719 40.412-0.23197 0.0162-16.024-23.515-35.092-52.292z" style="color:#000000;stroke:#000000;stroke-width:.71429;fill:#ffeeaa" inkscape:connector-curvature="0"/>
      <path id="path5204" d="m377.21 556.24c-15.197-22.935-27.572-41.742-27.5-41.792 0.41899-0.29771 54.736 3.0097 55.08 3.3539 0.23045 0.23045 0.33592 18.356 0.23438 40.279l-0.18462 39.86-27.63-41.7z" style="color:#000000;stroke:#000000;stroke-width:.71429;fill:#ffeeaa" inkscape:connector-curvature="0"/>
      <path id="path5206" d="m359.34 599.35-4.0686-0.25657-0.38144-3.0012c-0.20979-1.6507-1.5103-18.43-2.8901-37.287s-2.6914-36.054-2.9147-38.214c-0.40466-3.9149-0.31157-3.7862 26.671 36.857 14.893 22.432 27.306 41.155 27.585 41.607 0.37924 0.61361-4.6182 0.78776-19.713 0.68695-11.121-0.0743-22.052-0.25053-24.289-0.39165z" style="color:#000000;stroke:#000000;stroke-width:.71429;fill:#ffeeaa" inkscape:connector-curvature="0"/>
      <path id="path5208" d="m303.2 516.52c2.1362-3.0637 8.1644-11.758 13.396-19.32 5.2318-7.5625 9.7092-13.726 9.9498-13.698 0.24062 0.0288 4.6923 6.5378 9.8925 14.464 8.0336 12.245 9.2685 14.49 8.2143 14.931-0.68242 0.28536-10.401 2.2943-21.598 4.4643-11.196 2.17-21.118 4.1217-22.048 4.3372-1.5029 0.34821-1.2591-0.2275 2.193-5.1786z" style="color:#000000;stroke:#000000;stroke-width:.71429;fill:#ffeeaa" inkscape:connector-curvature="0"/>
      <path id="path5210" d="m252.11 597.92c-2.6783-0.13803-4.7676-0.51615-4.6428-0.84024 0.42625-1.1072 48.797-70.727 49.155-70.749 0.19642-0.0119 2.8772 15.326 5.9573 34.085s5.7693 34.99 5.9761 36.071l0.37598 1.9643-25.976-0.1399c-14.287-0.0769-28.168-0.25284-30.846-0.39088z" style="color:#000000;stroke:#000000;stroke-width:.71429;fill:#ffeeaa" inkscape:connector-curvature="0"/>
      <path id="path5212" d="m246.19 575.24c0.23493-11.393 0.62866-38.232 0.87497-59.643 0.2463-21.411 0.64923-40.77 0.89541-43.021l0.44759-4.0928 8.8529 24.093c4.8691 13.251 9.0729 24.343 9.3417 24.649 0.26883 0.3058 12.839-6.8148 27.933-15.823 15.094-9.0087 27.546-16.282 27.67-16.163 0.17108 0.16361-70.038 101.92-75.402 109.29-0.91685 1.2585-0.98988-1.037-0.61358-19.286z" style="color:#000000;stroke:#000000;stroke-width:.71429;fill:#ffeeaa" inkscape:connector-curvature="0"/>
      <path id="path5214" d="m152.22 596.49-12.619-0.21238-0.42522-5.1623c-0.61137-7.4222-4.763-90.696-4.5309-90.88 0.49814-0.39366 70.23-13.756 70.486-13.507 0.25045 0.24344-2.0413 36.098-3.2927 51.516-0.39541 4.8713-0.49481 5.1078-1.8438 4.3859-4.7064-2.5188-10.024-1.9775-13.092 1.3327-2.3598 2.5463-2.3598 7.1472 0 9.6936 2.5216 2.7208 6.7248 3.6549 10.537 2.3416 1.6821-0.57953 3.103-0.98758 3.1575-0.90676 0.0545 0.0808-0.55073 9.5487-1.345 21.04l-1.444 20.893-16.484-0.161c-9.0664-0.0886-22.163-0.25657-29.103-0.37339z" style="color:#000000;stroke:#000000;stroke-width:.71429;fill:#552200" inkscape:connector-curvature="0"/>
      <path id="path5216" d="m310.64 597.92c-0.93386-3.2013-11.968-72.477-11.668-73.258 0.29234-0.76183 43.602-9.7776 46.97-9.7776 0.90113 0 1.2922 2.9357 2.3551 17.679 0.70101 9.7232 1.4354 19.607 1.6321 21.964 0.26344 3.158 0.15982 3.9778-0.39383 3.1154-1.1537-1.7969-4.2223-2.2861-6.2024-0.98871-1.997 1.3085-2.3284 4.6852-0.60059 6.1191 1.6398 1.3609 5.3589 1.1429 6.472-0.37932 0.74625-1.0206 1.0159-1.0846 1.254-0.29762 0.31108 1.028 2.6288 32.573 2.6058 35.467l-0.0127 1.6072h-21.023c-19.407 0-21.051-0.0961-21.388-1.25z" style="color:#000000;stroke:#000000;stroke-width:.71429;fill:#552200" inkscape:connector-curvature="0"/>
      <path id="path5218" d="m313.05 411.47-8.2143-0.24479-3.7069-7.9945c-2.0388-4.397-3.4852-8.194-3.2143-8.4379 0.27093-0.24389 7.8432-0.84415 16.827-1.3339 13.75-0.74957 16.432-0.73591 16.953 0.0863 0.34034 0.53723 0.62372 3.9098 0.62973 7.4946 0.006 3.5848 0.21184 7.5223 0.45737 8.75l0.44643 2.2321-5.9821-0.1536c-3.2902-0.0845-9.6786-0.26375-14.196-0.39838z" style="color:#000000;stroke:#000000;stroke-width:.71429;fill:#dbdee3" inkscape:connector-curvature="0"/>
      <path id="path5220" d="m339.76 412.22-5.0737-0.25525-0.46204-6.5091c-0.25411-3.58-0.46203-8.0132-0.46203-9.8514v-3.3423l15.079-0.87374c8.2935-0.48056 15.218-0.73453 15.388-0.56439 0.17014 0.17014-0.6052 5.0899-1.723 10.933l-2.0323 10.624-7.8203 0.0475c-4.3012 0.0261-10.103-0.0674-12.894-0.20774z" style="color:#000000;stroke:#000000;stroke-width:.71429;fill:#dbdee3" inkscape:connector-curvature="0"/>
      <path id="path5222" d="m345.2 435.11c-5.3014-0.9711-9.6766-1.821-9.7228-1.8887-0.0462-0.0676-0.27165-4.4623-0.50112-9.7659l-0.41721-9.6429 12.283 0.22331c6.7556 0.12281 12.476 0.44424 12.711 0.71428 0.53491 0.61338-3.6197 22.305-4.2522 22.201-0.25393-0.0416-4.7992-0.87017-10.101-1.8413z" style="color:#000000;stroke:#000000;stroke-width:.71429;fill:#dbdee3" inkscape:connector-curvature="0"/>
      <path id="path5224" d="m322.03 431.03-8.5175-1.5503-3.8123-8.1238c-2.0968-4.4681-3.7282-8.1908-3.6254-8.2728 0.10284-0.082 6.2138 0.0106 13.58 0.20558l13.393 0.35458 0.004 3.6551c0.002 2.0103 0.21071 6.3069 0.46301 9.5479 0.54202 6.9627 1.6218 6.5694-11.485 4.1838z" style="color:#000000;stroke:#000000;stroke-width:.71429;fill:#dbdee3" inkscape:connector-curvature="0"/>
      <path id="path5226" d="m367.38 464.96c-1.6604-8.0954-3.1694-15.372-3.3532-16.169-0.28337-1.2294 1.2642-2.3553 10.156-7.3887 6.7449-3.8182 10.663-5.6578 10.976-5.1526 0.66613 1.0778 9.5662 37.922 9.234 38.227-0.14652 0.13439-5.605 1.3599-12.13 2.7233l-11.863 2.479-3.0189-14.719z" style="color:#000000;stroke:#000000;stroke-width:.71429;fill:#dbdee3" inkscape:connector-curvature="0"/>
      <path id="path5228" d="m392.69 515.12c-1.9643-0.11932-6.174-0.40757-9.355-0.64055l-5.7836-0.4236-3.3596-16.099c-1.8478-8.8547-3.2414-16.218-3.097-16.362 0.49194-0.49194 23.638-5.2662 23.962-4.9425 0.34547 0.34547 9.4188 37.25 9.4188 38.31 0 0.59857-3.7184 0.64858-11.786 0.1585z" style="color:#000000;stroke:#000000;stroke-width:.71429;fill:#dbdee3" inkscape:connector-curvature="0"/>
      <path id="path5230" d="m359.84 513.29c-5.8928-0.36443-10.907-0.87845-11.142-1.1423-0.43134-0.48411-2.9791-25.224-2.6221-25.461 0.58296-0.38731 22.765-4.8175 22.952-4.5839 0.12291 0.15368 1.6842 7.4312 3.4696 16.172l3.2462 15.893-2.595-0.10773c-1.4272-0.0593-7.4164-0.4059-13.309-0.77032z" style="color:#000000;stroke:#000000;stroke-width:.71429;fill:#dbdee3" inkscape:connector-curvature="0"/>
      <path id="path5232" d="m345.6 483.28c-0.80181-3.8394-2.4309-23.804-1.9782-24.242 0.815-0.78993 18.182-10.644 18.38-10.429 0.23172 0.25161 6.2318 29.143 6.3304 30.482 0.0529 0.71848-2.6285 1.5659-9.5694 3.0242-5.3036 1.1143-10.359 2.1962-11.234 2.4043-1.2327 0.29303-1.6672 0.0141-1.9288-1.2385z" style="color:#000000;stroke:#000000;stroke-width:.71429;fill:#dbdee3" inkscape:connector-curvature="0"/>
      <path id="path5234" d="m293.03 486.56c-2.1487-5.7539-4.0002-10.695-4.1145-10.98-0.11428-0.28539 0.36786-0.68428 1.0714-0.88643 0.70356-0.20215 6.3116-2.786 12.462-5.742l11.183-5.3744 4.5854 6.901c2.522 3.7956 5.117 7.7186 5.7667 8.7179l1.1812 1.8169-13.452 8.0046c-7.3985 4.4025-13.75 8.0046-14.115 8.0046-0.36451 0-2.4208-4.7077-4.5695-10.462z" style="color:#000000;stroke:#000000;stroke-width:.71429;fill:#dbdee3" inkscape:connector-curvature="0"/>
      <path id="path5236" d="m287.42 471.84c-0.32616-0.88393-2.1413-5.7037-4.0336-10.711-1.8924-5.0069-3.305-9.2219-3.1393-9.3667 0.57776-0.50476 20.75-7.0334 20.957-6.7826 0.34656 0.42002 10.118 15.184 10.699 16.166 0.3892 0.65739-2.7915 2.5085-11.353 6.6071-6.5416 3.1316-12.038 5.6939-12.215 5.6939-0.17686 0-0.58842-0.72321-0.91458-1.6071z" style="color:#000000;stroke:#000000;stroke-width:.71429;fill:#dbdee3" inkscape:connector-curvature="0"/>
      <path id="path5238" d="m252.92 475.53c-4.009-10.917-4.507-12.78-3.5208-13.173 6.7525-2.6916 28.334-9.5034 28.76-9.0776 0.3054 0.30539 2.3057 5.2107 4.4451 10.901 2.5601 6.8089 3.6084 10.446 3.0664 10.641-0.45287 0.16245-6.9564 3.2493-14.452 6.8596l-13.629 6.5643-4.6695-12.715z" style="color:#000000;stroke:#000000;stroke-width:.71429;fill:#dbdee3" inkscape:connector-curvature="0"/>
      <path id="path5240" d="m263.18 503.27c-2.3668-6.3839-4.4095-12.013-4.5393-12.51-0.22215-0.85008 27.824-14.847 28.465-14.206 0.49992 0.49991 8.0851 20.634 8.0851 21.461 0 0.70905-26.123 16.862-27.27 16.862-0.24066 0-2.3741-5.2232-4.7409-11.607z" style="color:#000000;stroke:#000000;stroke-width:.71429;fill:#dbdee3" inkscape:connector-curvature="0"/>
      <path id="path5242" d="m437 516.84c-0.38071-1.1609-6.0531-37.966-5.8718-38.099 0.0759-0.0559 7.3702-1.3647 16.209-2.9084l16.071-2.8068 3.155 19.139c1.7352 10.527 2.9579 19.336 2.7171 19.577-0.44097 0.44098-29.16 5.9911-31 5.9911-0.54335 0-1.1197-0.40178-1.2807-0.89285z" style="color:#000000;stroke:#000000;stroke-width:.71429;fill:#dbdee3" inkscape:connector-curvature="0"/>
      <path id="path5244" d="m471.28 509.7c-0.88854-3.8582-5.973-36.601-5.7225-36.851 0.23267-0.23267 34.158-6.4867 35.411-6.5279 0.48759-0.016 5.321 38.432 4.8802 38.82-0.34704 0.30562-32.016 6.1664-33.319 6.1662-0.48358-0.00009-1.0458-0.72337-1.2494-1.6073z" style="color:#000000;stroke:#000000;stroke-width:.71429;fill:#dbdee3" inkscape:connector-curvature="0"/>
      <path id="path5246" d="m478.03 551.49c-0.0112-0.29464-1.4001-8.9624-3.0866-19.262l-3.0663-18.726 3.6223-0.74196c8.0648-1.6519 30.648-5.7307 30.786-5.5603 0.21084 0.26084 4.6508 36.387 4.6352 37.715-0.0101 0.86779-3.3377 1.75-15.549 4.1221-16.338 3.1738-17.309 3.3112-17.342 2.4524z" style="color:#000000;stroke:#000000;stroke-width:.71429;fill:#dbdee3" inkscape:connector-curvature="0"/>
      <path id="path5248" d="m443.44 558.26c-0.5068-1.6415-6.0043-38.002-5.7797-38.227 0.48105-0.48106 32.536-6.3161 32.555-5.9261 0.0112 0.22849 1.4203 8.9333 3.1315 19.344s3.0403 19.01 2.9536 19.109c-0.13249 0.15204-22.686 4.7328-30.24 6.1419-1.5652 0.29197-2.4393 0.14442-2.6204-0.44232z" style="color:#000000;stroke:#000000;stroke-width:.71429;fill:#dbdee3" inkscape:connector-curvature="0"/>
      <path id="path5250" d="m565.61 507.66c-0.42704-1.9102-5.3869-37.135-5.6194-39.908l-0.1484-1.7703 22.857-2.2238c12.571-1.2231 22.946-2.159 23.055-2.0799 0.10858 0.0791 0.43 10.262 0.71429 22.63l0.51688 22.486-14.643 0.8589c-8.0536 0.47238-17.277 1.0521-20.496 1.2883-5.745 0.42142-5.8606 0.39767-6.2357-1.2801z" style="color:#000000;stroke:#000000;stroke-width:.71429;fill:#dbdee3" inkscape:connector-curvature="0"/>
      <path id="path5252" d="m608.47 493.99c-0.70113-19.413-0.82243-32.681-0.29874-32.68 0.26467 0.00056 10.512-0.97517 22.771-2.1683s22.455-2.0038 22.658-1.8015c0.28457 0.28458-3.3431 46.118-3.6867 46.579-0.1383 0.18551-35.653 2.4028-38.397 2.3972l-2.6018-0.005-0.44502-12.321z" style="color:#000000;stroke:#000000;stroke-width:.71429;fill:#dbdee3" inkscape:connector-curvature="0"/>
      <path id="path5254" d="m609.22 531.2c-0.26733-12.236-0.34878-22.385-0.18099-22.553 0.39278-0.39278 39.983-2.9395 40.38-2.5975 0.16445 0.14174-0.60632 10.655-1.7128 23.363l-2.0118 23.105-11.794 0.46515c-6.4868 0.25583-14.584 0.46515-17.994 0.46515h-6.1999l-0.48605-22.248z" style="color:#000000;stroke:#000000;stroke-width:.71429;fill:#dbdee3" inkscape:connector-curvature="0"/>
      <path id="path5256" d="m571.99 551.84c-1.0742-4.6541-5.8758-40.242-5.4789-40.609 0.439-0.40566 40.219-2.9553 40.496-2.5956 0.0715 0.0927 0.34483 10.213 0.60747 22.49l0.47753 22.321h-17.866-17.866l-0.37095-1.6071z" style="color:#000000;stroke:#000000;stroke-width:.71429;fill:#d5f6ff" inkscape:connector-curvature="0"/>
      <path id="path5258" d="m609.23 494.77c-0.25777-5.9553-0.46867-15.729-0.46867-21.719v-10.891l3.3929-0.44026c6.1168-0.79371 34.75-3.259 37.89-3.2621 3.0585-0.003 3.067 0.004 2.713 2.3183-0.19527 1.2768-0.53614 5.2143-0.75749 8.75-0.43507 6.9495-2.6354 33.516-2.7878 33.659-0.10617 0.0999-37.538 2.4432-38.731 2.4247-0.50973-0.008-0.94425-3.7761-1.25-10.84z" style="color:#000000;stroke:#000000;stroke-width:.71429;fill:#d5f6ff" inkscape:connector-curvature="0"/>
      <path id="path5260" d="m441.73 542.92c-3.3854-21.907-3.4003-22.093-1.8018-22.555 6.5124-1.8799 29.103-5.4561 29.594-4.6848 0.67783 1.0652 5.8838 35.662 5.434 36.112-0.52981 0.52981-27.32 5.9494-29.41 5.9494-1.436 0-1.6614-0.87505-3.8166-14.821z" style="color:#000000;stroke:#000000;stroke-width:.71429;fill:#d5f6ff" inkscape:connector-curvature="0"/>
      <path id="path5262" d="m472.01 509.06c-1.3678-5.8711-5.7777-35.58-5.2895-35.635 0.14348-0.0162 7.6537-1.4115 16.689-3.1008 11.328-2.1178 16.567-2.8294 16.876-2.292 0.75613 1.3178 5.2823 36.085 4.75 36.486-0.10844 0.0817-6.7864 1.3434-14.84 2.8039s-15.352 2.8262-16.219 3.035c-1.2237 0.29468-1.6634 0.005-1.9667-1.2972z" style="color:#000000;stroke:#000000;stroke-width:.71429;fill:#d5f6ff" inkscape:connector-curvature="0"/>
      <path id="path5264" d="m370.57 476.84c-0.20352-0.88393-1.6104-7.6255-3.1263-14.981-3.1376-15.224-3.5005-13.53 3.8263-17.862 8.0613-4.7659 13.22-7.0878 13.561-6.1038 0.55958 1.6156 4.0051 15.628 6.389 25.984l2.3189 10.073-10.42 2.2586c-5.731 1.2422-10.816 2.254-11.299 2.2483-0.48359-0.006-1.0458-0.73355-1.2493-1.6175z" style="color:#000000;stroke:#000000;stroke-width:.71429;fill:#d5f6ff" inkscape:connector-curvature="0"/>
      <path id="path5266" d="m359.84 512.61c-6.7553-0.46214-9.5024-0.92149-10.081-1.6856-0.43731-0.57771-1.1768-5.1473-1.6432-10.155-0.46647-5.0074-1.0072-10.149-1.2015-11.426-0.19438-1.2768-0.0978-2.3242 0.21467-2.3277 0.31245-0.003 5.2205-0.94926 10.907-2.1018 5.6862-1.1526 10.38-2.0337 10.43-1.958 0.26846 0.40237 6.0167 28.507 6.0167 29.417 0 1.2168-0.24968 1.2208-14.643 0.23618z" style="color:#000000;stroke:#000000;stroke-width:.71429;fill:#d5f6ff" inkscape:connector-curvature="0"/>
      <path id="path5268" d="m257.25 485.07c-2.7609-7.0559-7.0586-19.791-7.0586-20.916 0-1.1122 2.3384-2.1115 13.562-5.7957 7.4593-2.4485 13.73-4.2846 13.934-4.0802 0.43006 0.43006 5.981 14.992 6.8376 17.938 0.57328 1.9712 0.51483 2.0118-10.629 7.3944-17.044 8.2327-15.73 7.8017-16.647 5.4596z" style="color:#000000;stroke:#000000;stroke-width:.71429;fill:#d5f6ff" inkscape:connector-curvature="0"/>
      <path id="path5270" d="m293.82 486.3c-1.992-5.1117-3.6218-9.6101-3.6218-9.9963 0-0.62603 21.616-11.424 22.869-11.424 0.27892 0 2.8657 3.5671 5.7484 7.9269 4.2322 6.4008 5.0417 8.0499 4.2047 8.5656-5.8458 3.6019-24.485 14.222-24.961 14.222-0.33963 0-2.2474-4.1823-4.2394-9.294z" style="color:#000000;stroke:#000000;stroke-width:.71429;fill:#d5f6ff" inkscape:connector-curvature="0"/>
      <path id="path5272" d="m312.96 410.78-7.5898-0.2287-2.6312-5.7562c-4.3396-9.4936-4.2698-9.0843-1.6255-9.5272 1.2614-0.21125 8.236-0.71684 15.499-1.1236 15.552-0.87084 15.004-1.1176 15.017 6.7685 0.004 2.7731 0.20709 6.2474 0.4506 7.7206l0.44274 2.6786-5.9863-0.1517c-3.2925-0.0834-9.4017-0.25462-13.576-0.38041z" style="color:#000000;stroke:#000000;stroke-width:.71429;fill:#d5f6ff" inkscape:connector-curvature="0"/>
      <path id="path5274" d="m345.02 434.34-9.1071-1.7432v-4.4664c0-2.4565-0.2065-6.4422-0.4589-8.8569l-0.45889-4.3905 10.995 0.0109c6.047 0.006 11.453 0.30084 12.013 0.65517 0.8668 0.54859 0.73773 2.0494-0.86931 10.108-1.038 5.2053-2.1389 9.6805-2.4465 9.9449-0.30759 0.26444-4.6575-0.30363-9.6664-1.2624z" style="color:#000000;stroke:#000000;stroke-width:.71429;fill:#d5f6ff" inkscape:connector-curvature="0"/>
      <path id="path5276" style="stroke:#000000;stroke-width:1px;fill:none" d="m676.43 592.36 9.2857-200.71 181.43 24.286 20 194.29-210.71-17.857" inkscape:connector-curvature="0" inkscape:path-effect="#path-effect4663" inkscape:original-d="m 676.42857,592.36218 9.28572,-200.71428 181.42857,24.28571 20,194.28572 z"/>
      <path id="path5278" style="stroke:#000000;stroke-width:1px;fill:none" d="m708.52 595.08 0.0489-114.15 88.571-1.4286-15.357 121.79" inkscape:connector-curvature="0" inkscape:path-effect="#path-effect4667" inkscape:original-d="m 708.52253,595.08201 0.0489,-114.1484 88.57143,-1.42857 -15.35715,121.78571"/>
      <path id="path5280" style="stroke:#000000;stroke-width:1px;fill:none" d="m805.71 448.08 15 85 57.736-7.2985-9.3751-91.073-63.361 13.371" inkscape:connector-curvature="0" inkscape:path-effect="#path-effect4671" inkscape:original-d="m 805.71429,448.07647 15,85 57.73608,-7.29846 -9.37513,-91.07273 z"/>
      <path id="path5282" style="stroke:#000000;stroke-width:1px;fill:none" d="m813.21 490.58 61.602-0.0985" inkscape:connector-curvature="0" inkscape:path-effect="#path-effect4675" inkscape:original-d="m 813.21429,490.57647 61.60226,-0.0985"/>
      <path id="path5284" style="stroke:#000000;stroke-width:1px;fill:none" d="m837.39 441.39 12.188 88.036" inkscape:connector-curvature="0" inkscape:path-effect="#path-effect4679" inkscape:original-d="m 837.39476,441.39088 12.18757,88.03636"/>
      <path id="path5286" style="stroke:#000000;stroke-width:1px;fill:none" d="m706.43 426.65 18.57 36.43l54.286-0.71429 13.571-41.429-86.429 5.7143" inkscape:connector-curvature="0" inkscape:path-effect="#path-effect4683" inkscape:original-d="M 706.42857,426.6479 725,463.07647 l 54.28572,-0.71429 13.57142,-41.42857 z"/>
      <path id="path5288" style="stroke:#000000;stroke-width:1px;fill:none" d="m749.64 423.79 2.5 38.929" inkscape:connector-curvature="0" inkscape:path-effect="#path-effect4687" inkscape:original-d="m 749.64286,423.79075 2.5,38.92858 0,0"/>
      <path id="path5290" style="stroke:#000000;stroke-width:1px;fill:none" d="m715.71 444.86 70.357-3.2143" inkscape:connector-curvature="0" inkscape:path-effect="#path-effect4691" inkscape:original-d="m 715.71429,444.86218 70.35714,-3.21429"/>
      <path id="path5292" sodipodi:rx="6.7532034" sodipodi:ry="8.1232567" style="color:#000000;stroke:#000000;fill:#d45500" sodipodi:type="arc" d="m787.08 551.2c0 4.4864-3.0235 8.1232-6.7532 8.1232s-6.7532-3.6369-6.7532-8.1232c0-4.4864 3.0235-8.1233 6.7532-8.1233s6.7532 3.6369 6.7532 8.1233z" sodipodi:cy="551.19971" sodipodi:cx="780.32465"/>
      <path id="path5294" d="m189.99 553.81c-1.0261-0.55769-2.2486-1.9385-2.7167-3.0685-2.5656-6.194 7.1322-10.92 12.137-5.9153 2.7708 2.7708 2.7293 5.3112-0.13049 7.9826-2.5066 2.3415-6.1095 2.7297-9.2901 1.0011z" style="color:#000000;stroke:#000000;stroke-width:.71429;fill:#d45500" inkscape:connector-curvature="0"/>
      <path id="path5296" d="m343.65 560.95c-0.70942-0.8548-0.70942-1.2881 0-2.1429 1.1392-1.3726 3.1465-1.3726 4.2857 0 1.0918 1.3155-0.1741 3.2143-2.1429 3.2143-0.6895 0-1.6538-0.48214-2.1428-1.0714z" style="color:#000000;stroke:#000000;stroke-width:.71429;fill:#dbdee3" inkscape:connector-curvature="0"/>
      <path id="path5298" d="m712.22 436.02c-2.3416-4.5211-4.1095-8.3391-3.9286-8.4844 0.46077-0.3701 40.045-2.8205 40.367-2.4988 0.1444 0.1444 0.48185 4.1432 0.7499 8.8861l0.48736 8.6236-13.138 0.47772c-7.2256 0.26275-14.745 0.64383-16.709 0.84684l-3.5714 0.36911-4.2575-8.2202z" style="color:#000000;stroke:#000000;stroke-width:.71429;fill:#dbdee3" inkscape:connector-curvature="0"/>
      <path id="path5300" d="m752.94 461.13c-0.15145-0.49107-0.46618-4.4708-0.69941-8.8439l-0.42406-7.9511 5.1861-0.42188c2.8524-0.23203 10.299-0.63284 16.548-0.89068 9.4958-0.39181 11.301-0.3071 10.992 0.51583-0.20333 0.54154-1.5939 4.715-3.0902 9.2742l-2.7204 8.2896-8.5622 0.46038c-12.9 0.69361-16.913 0.59286-17.23-0.43247z" style="color:#000000;stroke:#000000;stroke-width:.71429;fill:#dbdee3" inkscape:connector-curvature="0"/>
      <path id="path5302" d="m813.68 487.92c-1.2306-5.9569-6.8908-38.943-6.7088-39.098 0.4806-0.40894 29.215-6.2475 29.474-5.9888 0.15373 0.15373 1.5878 9.7584 3.1869 21.344 1.599 11.585 3.0836 22.109 3.299 23.386l0.39159 2.3214h-14.618-14.618l-0.4058-1.9643z" style="color:#000000;stroke:#000000;stroke-width:.71429;fill:#dbdee3" inkscape:connector-curvature="0"/>
      <path id="path5304" d="m850.06 526.13c-0.61906-3.4856-4.6524-32.899-4.6524-33.928 0-0.68513 3.32-0.8934 14.242-0.8934h14.242l0.41144 3.0357c1.0759 7.9383 3.1543 30.153 2.8496 30.457-0.25935 0.25934-23.371 3.4557-26.177 3.6202-0.27684 0.0162-0.68888-1.0151-0.91564-2.2919z" style="color:#000000;stroke:#000000;stroke-width:.71429;fill:#d5f6ff" inkscape:connector-curvature="0"/>
      <path id="path5306" d="m721.44 454.09c-2.188-4.3628-3.8734-8.0373-3.7453-8.1655 0.31223-0.31223 32.094-1.9089 32.341-1.6248 0.10677 0.12248 0.42268 4.1602 0.70203 8.9727l0.5079 8.75h-12.914-12.914l-3.9783-7.9324z" style="color:#000000;stroke:#000000;stroke-width:.71429;fill:#d5f6ff" inkscape:connector-curvature="0"/>
      <path id="path5308" d="m751.56 439.07c-0.20969-1.7143-0.53151-5.6081-0.71517-8.6529-0.31603-5.2392-0.25075-5.5526 1.2182-5.848 2.7138-0.54568 38.464-2.6566 38.828-2.2926 0.1919 0.19191-0.88801 4.2897-2.3998 9.1063-2.4513 7.8097-2.9505 8.8113-4.6132 9.256-1.0255 0.27426-8.6307 0.73478-16.901 1.0234l-15.036 0.52475-0.38124-3.1169z" style="color:#000000;stroke:#000000;stroke-width:.71429;fill:#d5f6ff" inkscape:connector-curvature="0"/>
      <path id="path5310" d="m841.69 466.13c-1.8163-13.062-3.222-23.831-3.1237-23.93 0.30612-0.30857 29.329-6.4084 29.57-6.2147 0.12519 0.10081 1.3195 10.902 2.654 24.003s2.6178 25.186 2.8518 26.856l0.42554 3.0357h-14.538-14.538l-3.3023-23.75z" style="color:#000000;stroke:#000000;stroke-width:.71429;fill:#d5f6ff" inkscape:connector-curvature="0"/>
      <path id="path5312" d="m817.84 511.73-3.5844-20.424h14.488c14.442 0 14.489 0.005 14.846 1.6072 0.93533 4.1985 4.7604 34.268 4.4591 35.053-0.22041 0.57439-4.1304 1.3429-10.959 2.154-5.8391 0.69354-11.752 1.4348-13.141 1.6472l-2.5243 0.38625-3.5844-20.424z" style="color:#000000;stroke:#000000;stroke-width:.71429;fill:#d5f6ff" inkscape:connector-curvature="0"/>
      <path id="path5314" d="m744.62 597.33c-19.25-1.6969-35.08-3.1023-35.179-3.1231-0.0982-0.0208-0.17858-25.235-0.17858-56.031v-55.993l7.6786-0.42361c4.2232-0.23298 23.782-0.62781 43.464-0.8774l35.785-0.45381-4.1459 32.406c-2.2802 17.824-4.1623 33.21-4.1824 34.192-0.0364 1.7847-0.0371 1.7845-1.1187-0.28951-2.125-4.0748-5.5367-5.3609-9.3814-3.5365-7.4021 3.5125-5.1345 16.683 2.8724 16.683 1.985 0 3.3941-0.49373 4.5868-1.6071l1.7217-1.6071-0.5302 4.2857c-3.4571 27.945-5.0821 39.197-5.6782 39.317-0.39285 0.0792-16.464-1.2445-35.714-2.9414z" style="color:#000000;stroke:#000000;stroke-width:.71429;fill:#550100" inkscape:connector-curvature="0"/>
      <path id="path5316" d="m832.16 604.78c-26.888-2.3229-48.993-4.33-49.124-4.4602-0.13021-0.13022 3.1456-27.056 7.2797-59.836s7.5165-60.183 7.5165-60.897c0-1.2122-0.64813-1.2695-9.8214-0.86773-5.4018 0.23655-25.652 0.63467-45 0.88471l-35.179 0.45461v57.145 57.145l-3.3928-0.41681c-1.8661-0.22924-8.4408-0.80521-14.611-1.2799-6.1698-0.47473-11.508-1.0518-11.863-1.2824-0.89005-0.57804 7.5833-158.91 8.522-159.24 0.39576-0.1393 0.17952-0.84742-0.482-1.5784-1.1057-1.2217-1.1322-2.7427-0.33857-19.39 0.47366-9.9355 0.95412-18.159 1.0677-18.274 0.16594-0.16812 178.94 23.508 179.46 23.768 0.3461 0.17093 1.8188 16.854 1.5146 17.158-0.1833 0.18331-14.374 3.297-31.535 6.9192-21.059 4.4451-31.201 6.8774-31.201 7.4826 0 1.2404 14.887 85.369 15.147 85.6 0.11556 0.10235 12.996-1.4279 28.623-3.4006s28.548-3.4517 28.713-3.2867c0.16502 0.16502 2.08 17.808 4.2556 39.206s4.1127 39.79 4.3047 40.87c0.33134 1.8641 0.21342 1.9602-2.3116 1.8842-1.4634-0.044-24.66-1.9806-51.548-4.3035zm-52.14-142.14c0.78463-1.2214 13.784-42.026 13.479-42.311-0.40141-0.37599-87.339 5.3476-87.81 5.7811-0.19643 0.18077 3.9244 8.7642 9.1574 19.074l9.5145 18.746 27.628-0.33182c15.196-0.18251 27.809-0.6136 28.031-0.95799z" style="color:#000000;stroke:#000000;stroke-width:.71429;fill:#f1895f" inkscape:connector-curvature="0"/>
      <g id="g5318" transform="translate(63.571 45.857)">
        <g id="g5320" transform="translate(-49.286 -36.714)">
          <path id="path5322" style="stroke:#000000;stroke-width:1px;fill:#d45500" d="m672.14 384.51 195 31.429-28.571-77.857-145.71-4.2857-20.714 50.714" inkscape:connector-curvature="0" inkscape:path-effect="#path-effect4695" inkscape:original-d="m 672.14286,384.50504 195,31.42857 -28.57143,-77.85714 -145.71429,-4.28572 z"/>
        </g>
        <path id="path5324" style="stroke:#000000;stroke-width:1px;fill:url(#pattern4750)" d="m622.86 347.79 195 31.429-28.571-77.857-145.71-4.2857-20.714 50.714" inkscape:connector-curvature="0" inkscape:path-effect="#path-effect4727" inkscape:original-d="m 622.85715,347.79075 195,31.42857 -28.57143,-77.85714 -145.71429,-4.28573 z"/>
      </g>
      <g id="g5326" transform="matrix(.60368 -.14477 .13862 .57802 481.17 291.57)">
        <path id="path5328" style="stroke:#000000;stroke-width:1px;fill:#e6e6e6" inkscape:connector-curvature="0" d="m505.71 163.79 10 150h34.286l-8.5714-158.57z"/>
        <path id="path5330" style="stroke:#000000;stroke-width:1px;fill:#000000" inkscape:connector-curvature="0" d="m513.07 164.01 4.2857-17.143 4.2857-1.4286 5.7143 14.286"/>
      </g>
      <g id="g5332" transform="matrix(.60253 0 0 .87264 60.52 89.764)">
        <path id="path5334" d="m505.71 163.79 10 150h34.286l-8.5714-158.57z" style="stroke:#000000;stroke-width:1px;fill:#e6e6e6" inkscape:connector-curvature="0"/>
        <path id="path5336" d="m513.07 164.01 4.2857-17.143 4.2857-1.4286 5.7143 14.286" style="stroke:#000000;stroke-width:1px;fill:#000000" inkscape:connector-curvature="0"/>
      </g>
      <g id="g5338" transform="matrix(.60751 .12775 -.12232 .58168 335.17 163.74)">
        <path id="path5340" style="stroke:#000000;stroke-width:1px;fill:#e6e6e6" inkscape:connector-curvature="0" d="m505.71 163.79 10 150h34.286l-8.5714-158.57z"/>
        <path id="path5342" style="stroke:#000000;stroke-width:1px;fill:#000000" inkscape:connector-curvature="0" d="m513.07 164.01 4.2857-17.143 4.2857-1.4286 5.7143 14.286"/>
      </g>
      <g id="g5344" transform="matrix(.61884 -.049191 0.0471 .59254 -206.71 294.05)">
        <path id="path5346" d="m505.71 163.79 10 150h34.286l-8.5714-158.57z" style="stroke:#000000;stroke-width:1px;fill:#e6e6e6" inkscape:connector-curvature="0"/>
        <path id="path5348" d="m513.07 164.01 4.2857-17.143 4.2857-1.4286 5.7143 14.286" style="stroke:#000000;stroke-width:1px;fill:#000000" inkscape:connector-curvature="0"/>
      </g>
    </g>
  </g>
  <metadata>
    <rdf:RDF>
      <cc:Work>
        <dc:format>image/svg+xml</dc:format>
        <dc:type rdf:resource="http://purl.org/dc/dcmitype/StillImage"/>
        <cc:license rdf:resource="http://creativecommons.org/licenses/publicdomain/"/>
        <dc:publisher>
          <cc:Agent rdf:about="http://openclipart.org/">
            <dc:title>Openclipart</dc:title>
          </cc:Agent>
        </dc:publisher>
        <dc:title>Crazy Houses</dc:title>
        <dc:date>2011-08-11T11:27:45</dc:date>
        <dc:description/>
        <dc:source>https://openclipart.org/detail/154681/crazy-houses-by-pupsik</dc:source>
        <dc:creator>
          <cc:Agent>
            <dc:title>pupsik</dc:title>
          </cc:Agent>
        </dc:creator>
        <dc:subject>
          <rdf:Bag>
            <rdf:li>blue</rdf:li>
            <rdf:li>chimney</rdf:li>
            <rdf:li>house</rdf:li>
            <rdf:li>pink</rdf:li>
            <rdf:li>roof</rdf:li>
            <rdf:li>yellow</rdf:li>
          </rdf:Bag>
        </dc:subject>
      </cc:Work>
      <cc:License rdf:about="http://creativecommons.org/licenses/publicdomain/">
        <cc:permits rdf:resource="http://creativecommons.org/ns#Reproduction"/>
        <cc:permits rdf:resource="http://creativecommons.org/ns#Distribution"/>
        <cc:permits rdf:resource="http://creativecommons.org/ns#DerivativeWorks"/>
      </cc:License>
    </rdf:RDF>
  </metadata>
</svg>