<svg width="273" height="506.00000000000006" xmlns="http://www.w3.org/2000/svg">

 <g id="imagebot_2" label="Capa 1">
  <title label="Capa 1"/>
  <path label="Capa 1" d="M89.7337,224.999C79.75263,224.999 67.0119,213.7532 85.01329,198.1395C114.25499,172.7776 121.97069,234.4183 100.00399,211.2696C90.88996,201.66538 99.82808,194.5413 102.61138,184.894C119.77628,178.95194 118.32388,161.7738 146.92098,175.26475C151.23394,193.70905 122.09168,179.40458 129.53358,169.47288C129.50507,169.36094 140.74948,136.08238 162.21628,152.57978C163.67363,153.69922 172.33088,157.36485 173.62198,159.8749" stroke="#7f3f00" stroke-width="6.95303" fill="none" clip-rule="evenodd" fill-rule="evenodd" transform="translate(-3.125 -15.625) matrix(-0.380951 0 0 0.473921 281.285 32.7283)" id="imagebot_37"/>
  <path label="Capa 1" d="M34.9466,162.661C38.03235,154.37786 59.2933,118.6184 67.598,143.8962C68.46643,146.53974 66.2505,151.72253 63.77175,152.72654C55.65131,146.68158 67.37133,120.17454 94.91995,117.43644C108.07715,116.12927 121.09745,145.00034 100.80638,145.00034C100.80638,107.93794 144.45058,110.58914 146.39878,134.42474C148.59385,161.28564 105.10548,130.8488 143.72882,113.82014C164.66712,104.58861 173.60802,121.50602 172.92112,141.68854C172.85646,143.59297 172.92112,151.36576 172.92112,153.83064" stroke="#7f3f00" stroke-width="6.95303" fill="none" clip-rule="evenodd" fill-rule="evenodd" transform="rotate(16.6053 233.278 82.0053) matrix(-0.380951 0 0 0.473921 272.878 17.1033)" id="imagebot_36"/>
  <polyline label="Capa 1" id="imagebot_35" points="260.107,699.206 226.814,981.345 150.395,993.971" stroke="rgb(55, 52, 53)" stroke-width="6.95303" fill="none" clip-rule="evenodd" fill-rule="evenodd" transform="translate(3.125 -34.375) matrix(0.380951 0 0 0.473921 3.05165 31.1658)"/>
  <polyline label="Capa 1" id="imagebot_34" points="361.856,698.112 342.068,977.002 426.846,982.498" stroke="rgb(55, 52, 53)" stroke-width="6.95303" fill="none" clip-rule="evenodd" fill-rule="evenodd" transform="translate(3.125 -31.25) matrix(0.380951 0 0 0.473921 3.05165 31.1658)"/>
  <metadata label="Capa 1" id="imagebot_33"/>
  <metadata label="Capa 1" id="imagebot_32"/>
  <polyline label="Capa 1" id="imagebot_31" points="126.316,474.667 66.2554,551.018 54.3782,591.972" stroke="rgb(55, 52, 53)" stroke-width="6.95303" fill="none" clip-rule="evenodd" fill-rule="evenodd" transform="translate(4.8916 11.1989) matrix(0.380951 0 0 0.473921 -1.83995 19.9669)"/>
  <polyline label="Capa 1" id="imagebot_30" points="1.11527,528.953 66.2554,551.018 108.453,601.652" stroke="rgb(55, 52, 53)" stroke-width="6.95303" fill="none" clip-rule="evenodd" fill-rule="evenodd" transform="translate(4.8916 11.1989) matrix(0.380951 0 0 0.473921 -1.83995 19.9669)"/>
  <polyline label="Capa 1" id="imagebot_29" points="78.8084,603.618 66.2554,551.018 17.6663,565.147" stroke="rgb(55, 52, 53)" stroke-width="6.95303" fill="none" clip-rule="evenodd" fill-rule="evenodd" transform="translate(4.8916 11.1989) matrix(0.380951 0 0 0.473921 -1.83995 19.9669)"/>
  <polyline label="Capa 1" id="imagebot_28" points="520.604,437.038 650.837,470.728 699.974,475.826" stroke="rgb(55, 52, 53)" stroke-width="6.95303" fill="none" clip-rule="evenodd" fill-rule="evenodd" transform="translate(4.8916 11.1989) matrix(0.380951 0 0 0.473921 -1.83995 19.9669)"/>
  <polyline label="Capa 1" id="imagebot_27" points="642.73,531.514 650.837,470.728 677.404,426.152" stroke="rgb(55, 52, 53)" stroke-width="6.95303" fill="none" clip-rule="evenodd" fill-rule="evenodd" transform="translate(4.8916 11.1989) matrix(0.380951 0 0 0.473921 -1.83995 19.9669)"/>
  <polyline label="Capa 1" id="imagebot_26" points="697.724,441.155 650.837,470.728 676.634,507.73 676.231,507.11" stroke="rgb(55, 52, 53)" stroke-width="6.95303" fill="none" clip-rule="evenodd" fill-rule="evenodd" transform="translate(4.8916 11.1989) matrix(0.380951 0 0 0.473921 -1.83995 19.9669)"/>
  <path label="Capa 1" id="imagebot_24" d="M122.731,409.394L173.4311,502.1536C157.0178,515.6084 142.7314,518.651 130.5733,511.28153C130.01428,495.42863 134.79726,483.89983 144.923,476.69583C112.9912,490.02273 104.5287,481.92868 119.5354,452.41243C95.0566,454.61584 91.8679,443.82336 109.96943,420.03423C114.50628,416.74614 118.76014,413.1994 122.73103,409.39403L122.731,409.394z" stroke="rgb(55, 52, 53)" stroke-width="6.95303" fill="#ffaad4" clip-rule="evenodd" fill-rule="evenodd" transform="translate(0 25) matrix(0.380951 0 0 0.473921 -9.44835 9.29082)"/>
  <path transform="translate(-3.125 14.0625) matrix(0.380951 0 0 0.473921 34.3017 15.5408)" label="Capa 1" id="imagebot_22" d="M 477.123 477.5853571626963 C 476.17669 473.6109427999677 476.79829 476.23962038255945 476.79829 475.91408623490946 L 513.90029 384.24834546778817 C 559.83689 398.1236564091267 560.10249 409.6068511030497 514.69572 418.6979295495571 C 561.99162 435.02981646243944 557.57642 443.2326716804923 501.45022 443.30708044115914 C 550.93912 467.24370990489143 548.11822 475.13906464908735 492.98769 466.99314467374694 C 522.23139 473.7299466538252 531.30649 481.62533484016075 520.21439 490.67920890633485 C 508.15089 501.79679740880147 493.78729 497.4322888478758 477.12299 477.58518995199813 L 477.123 477.5853571626963 z" stroke="rgb(55, 52, 53)" stroke-width="6.95303" fill="#ffaad4" clip-rule="evenodd" fill-rule="evenodd"/>
  <path label="Capa 1" id="imagebot_21" d="M89.7337,224.999C79.75263,224.999 67.0119,213.7532 85.01329,198.1395C114.25499,172.7776 121.97069,234.4183 100.00399,211.2696C90.88996,201.66538 99.82808,194.5413 102.61138,184.894C119.77628,178.95194 118.32388,161.7738 146.92098,175.26475C151.23394,193.70905 122.09168,179.40458 129.53358,169.47288C129.50507,169.36094 140.74948,136.08238 162.21628,152.57978C163.67363,153.69922 172.33088,157.36485 173.62198,159.8749" stroke="#7f3f00" stroke-width="6.95303" fill="none" clip-rule="evenodd" fill-rule="evenodd" transform="translate(0 -23.4375) matrix(0.380951 0 0 0.473921 -9.44835 45.2283)"/>
  <path label="Capa 1" id="imagebot_20" d="M34.9466,162.661C38.03235,154.37786 59.2933,118.6184 67.598,143.8962C68.46643,146.53974 66.2505,151.72253 63.77175,152.72654C55.65131,146.68158 67.37133,120.17454 94.91995,117.43644C108.07715,116.12927 121.09745,145.00034 100.80638,145.00034C100.80638,107.93794 144.45058,110.58914 146.39878,134.42474C148.59385,161.28564 105.10548,130.8488 143.72882,113.82014C164.66712,104.58861 173.60802,121.50602 172.92112,141.68854C172.85646,143.59297 172.92112,151.36576 172.92112,153.83064" stroke="#7f3f00" stroke-width="6.95303" fill="none" clip-rule="evenodd" fill-rule="evenodd" transform="translate(0 -14.0625) matrix(0.380951 0 0 0.473921 -0.0733485 31.1658)"/>
  <path label="Capa 1" id="imagebot_19" d="M700.129,57.9882L699.18269,58.26145C694.15078,59.71394 691.11092,61.74144 689.09109,62.40337C685.89617,96.38417 692.03153,72.69597 690.49908,68.56375C675.96798,29.37235 634.39508,88.14835 654.59988,81.29335C661.64469,78.90359 656.14345,59.29045 651.86665,60.25905C646.34595,52.47235 622.91565,66.82688 620.41325,72.12715C616.34851,72.7425 613.47274,87.68945 614.06375,91.43845C635.24195,94.78007 634.47365,48.31365 593.89095,63.07565C580.00155,68.12841 568.17935,98.82045 590.91644,91.53295C594.4159,80.61735 600.2773,44.03755 578.19584,55.38065L577.4185,55.78045C573.29466,59.11651 541.46159,61.78647 539.7101,68.28965" stroke="#7f3f00" stroke-width="6.95303" fill="none" clip-rule="evenodd" fill-rule="evenodd" transform="rotate(349.878 216.707 62.6065) matrix(0.380951 0 0 0.473921 -26.6358 28.0408)"/>
  <polygon label="Capa 1" id="imagebot_18" points="514.21,384.916 477.123,497.091 440.852,502.645 501.414,696.611 81.2969,701.13 181.423,516.773 121.017,406.257 269.326,356.554 352.14,355.384" stroke="rgb(55, 52, 53)" stroke-width="6.95303" fill="#ff007f" clip-rule="evenodd" fill-rule="evenodd" transform="translate(0 18.75) matrix(0.52251 0 0 0.435988 -35.3757 27.6529)"/>
  <line label="Capa 1" id="imagebot_17" x1="181.423" y1="516.774" x2="269.017" y2="357.09" stroke="rgb(55, 52, 53)" stroke-width="3.47651" fill="none" clip-rule="evenodd" fill-rule="evenodd" transform="translate(4.8916 11.1989) matrix(0.380951 0 0 0.473921 -1.83995 19.9669)"/>
  <ellipse label="Capa 1" id="imagebot_16" cx="156.833" cy="204.792" rx="21.8459" ry="18.0137" stroke="rgb(55, 52, 53)" stroke-width="6.95303" fill="rgb(253, 209, 161)" clip-rule="evenodd" fill-rule="evenodd" transform="translate(4.8916 11.1989) matrix(0.380951 0 0 0.473921 -1.83995 19.9669)"/>
  <ellipse label="Capa 1" id="imagebot_15" cx="549.275" cy="203.675" rx="21.8459" ry="18.0137" stroke="rgb(55, 52, 53)" stroke-width="6.95303" fill="rgb(253, 209, 161)" clip-rule="evenodd" fill-rule="evenodd" transform="translate(4.8916 11.1989) matrix(0.380951 0 0 0.473921 -1.83995 19.9669)"/>
  <path label="Capa 1" id="imagebot_14" d="M128.60981,257.189C52.32538,-4.257 560.96219,-58.426 579.65397,202.7649C537.10787,383.6049 229.94236,438.8039 128.60981,257.189z" stroke="rgb(55, 52, 53)" stroke-width="6.95303" fill="#bf5f00" clip-rule="evenodd" fill-rule="evenodd" transform="translate(4.8916 11.1989) matrix(0.380951 0 0 0.473921 -3.40245 19.9669)"/>
  <polygon label="Capa 1" id="imagebot_13" points="430.802,59.4595 466.123,3.42576 494.822,55.7807 552.955,87.4225 552.219,30.7609 482.313,56.5163" stroke="rgb(55, 52, 53)" stroke-width="3.47651" fill="#ff007f" clip-rule="evenodd" fill-rule="evenodd" transform="rotate(24.2619 201.371 71.4433) matrix(0.380951 0 0 0.473921 13.9892 49.9158)"/>
  <ellipse label="Capa 1" id="imagebot_12" cx="361.204" cy="119.977" rx="9.96473" ry="12.2643" stroke="rgb(55, 52, 53)" stroke-width="1.39061" fill="rgb(55, 52, 53)" clip-rule="evenodd" fill-rule="evenodd" transform="translate(4.8916 11.1989) matrix(0.380951 0 0 0.473921 -1.83995 19.9669)"/>
  <ellipse label="Capa 1" id="imagebot_11" cx="310.613" cy="125.343" rx="9.96473" ry="12.2643" stroke="rgb(55, 52, 53)" stroke-width="1.39061" fill="rgb(55, 52, 53)" clip-rule="evenodd" fill-rule="evenodd" transform="translate(4.8916 11.1989) matrix(0.380951 0 0 0.473921 -1.83995 19.9669)"/>
  <path label="Capa 1" id="imagebot_10" d="M457.021,162.903C438.932,346.859 243.465,345.071 222.461,169.03557" stroke="rgb(55, 52, 53)" stroke-width="10.4295" fill="none" clip-rule="evenodd" fill-rule="evenodd" transform="translate(4.8916 11.1989) matrix(0.380951 0 0 0.473921 -1.83995 19.9669)"/>
  <line label="Capa 1" id="imagebot_9" x1="403.877" y1="364.811" x2="440.852" y2="502.645" stroke="rgb(55, 52, 53)" stroke-width="3.47651" fill="none" clip-rule="evenodd" fill-rule="evenodd" transform="translate(4.8916 11.1989) matrix(0.380951 0 0 0.473921 -1.83995 19.9669)"/>
  <ellipse label="Capa 1" id="imagebot_8" cx="548.14246" cy="75.56248" rx="20.9717" ry="20.2361" stroke="rgb(55, 52, 53)" stroke-width="3.47651" fill="#ff007f" clip-rule="evenodd" fill-rule="evenodd" transform="translate(4.8916 11.1989) matrix(0.380951 0 0 0.473921 -8.08995 27.7794)"/>
  <path label="Capa 1" id="imagebot_7" d="M57.7199,67.1864C53.81717,63.40534 49.91513,49.1781 55.57559,45.1738C55.4115,44.4486 55.37952,44.78304 55.94341,44.08496C56.96411,39.86934 79.9404,22.29346 96.32101,43.27076C112.13011,63.51726 66.23871,95.65346 76.54731,67.64876C81.66265,53.75036 118.9079,46.01306 122.93791,65.71443C114.93427,75.50151 126.73774,71.39714 110.6707,84.07943C92.65471,98.30043 100.06941,71.79623 101.50383,70.29783C115.14633,48.29773 152.20673,49.01113 150.40723,77.7619C148.66967,105.5093 109.09933,71.01955 144.71965,63.9059C159.42255,60.97033 169.07196,62.17877 176.89475,83.8472C177.02895,84.83801 176.96915,84.51052 177.37799,85.6091" stroke="#7f3f00" stroke-width="6.95303" fill="none" clip-rule="evenodd" fill-rule="evenodd" transform="translate(4.8916 11.1989) matrix(0.380951 0 0 0.473921 -0.27745 15.2794)"/>
  <path label="Capa 1" id="imagebot_6" d="M447.359,91.8377C447.97573,73.3378 394.3157,66.4863 392.1693,93.67747C394.54445,95.72792 421.8775,89.12046 409.9558,68.01667C393.7719,39.36807 347.932,86.93167 381.2468,79.26457C398.1906,75.36531 434.1072,42.80007 381.5729,26.90267C379.45501,26.2623 377.27523,24.97251 375.24425,24.87447" stroke="#7f3f00" stroke-width="6.95303" fill="none" clip-rule="evenodd" fill-rule="evenodd" transform="translate(-15.625 -1.5625) matrix(0.380951 0 0 0.473921 3.05165 34.2908)"/>
  <path label="Capa 1" id="imagebot_5" d="M352.801,80.4319C345.266,83.55311 337.7192,80.65301 328.9639,82.1194C320.41098,83.55172 308.9955,104.4685 334.99287,85.55141C352.62717,72.72031 339.46645,55.49901 312.05557,56.91541C305.83122,57.23734 298.48467,67.18641 313.70552,67.18641C321.0945,67.18641 358.91482,45.72311 316.71201,35.11281C305.74431,32.35524 289.61261,33.19447 278.47871,34.80827" stroke="#7f3f00" stroke-width="6.95303" fill="none" clip-rule="evenodd" fill-rule="evenodd" transform="translate(-31.25 9.375) matrix(0.380951 0 0 0.473921 3.05165 31.1658)"/>
  <polygon label="Capa 1" id="imagebot_4" points="299.819,85.9505 294.681,39.5134 171.042,105.083 190.911,44.0064 233.591,82.6395" stroke="rgb(55, 52, 53)" stroke-width="3.47651" fill="#ff007f" clip-rule="evenodd" fill-rule="evenodd" transform="rotate(310.232 66.1766 77.9295) matrix(0.380951 0 0 0.473921 -23.5109 43.6658)"/>
  <ellipse label="Capa 1" id="imagebot_3" cx="233.591" cy="82.6395" rx="21.3395" ry="20.2361" stroke="rgb(55, 52, 53)" stroke-width="3.47651" fill="#ff007f" clip-rule="evenodd" fill-rule="evenodd" transform="translate(4.8916 11.1989) matrix(0.380951 0 0 0.473921 -29.965 29.3419)"/>
  <path id="imagebot_38" label="Capa 1" d="M352.801,80.4319C345.266,83.55311 337.7192,80.65301 328.9639,82.1194C320.41098,83.55172 308.9955,104.4685 334.99287,85.55141C352.62717,72.72031 339.46645,55.49901 312.05557,56.91541C305.83122,57.23734 298.48467,67.18641 313.70552,67.18641C321.0945,67.18641 358.91482,45.72311 316.71201,35.11281C305.74431,32.35524 289.61261,33.19447 278.47871,34.80827" stroke="#7f3f00" stroke-width="6.95303" fill="none" clip-rule="evenodd" fill-rule="evenodd" transform="translate(-215.625 -42.1875) matrix(-0.380951 0 0 0.473921 512.903 87.4158)"/>
 </g>
 <metadata id="imagebot_1">image/svg+xmlOpenclipart</metadata>
</svg>