<?xml version="1.0" encoding="UTF-8"?>
<!DOCTYPE svg PUBLIC "-//W3C//DTD SVG 1.1//EN" "http://www.w3.org/Graphics/SVG/1.1/DTD/svg11.dtd">
<svg version="1.1" xmlns="http://www.w3.org/2000/svg" xmlns:xlink="http://www.w3.org/1999/xlink" x="0" y="0" width="585" height="830" viewBox="0, 0, 585, 830">
  <g id="Layer_1">
    <g>
      <path d="M66.035,639.04 C60.28,645.29 53.08,656.645 57.66,665.25 C63.7,676.615 77.615,745.65 81.41,767.75 C85.195,789.86 103.495,815.87 124.12,806.495 C160.29,790.055 226.205,692.33 226.205,692.33 L267.485,534.95 C249.925,539.7 232.45,544.59 219.485,548.835 C212.355,551.175 198.495,557.12 183.495,582.745 C173.65,599.565 141.4,681.565 141.4,681.565 L138.755,671.86 C133.55,647.425 129.36,624.74 128.8,619.695 C127.435,607.435 109.345,614.275 109.345,614.275" fill="#99C762"/>
      <path d="M437.225,480.705 C495.285,478 506.87,443.865 506.87,443.865 L517.7,487.195 C541.355,467.595 550.335,395.11 552.89,368.4 L564.84,281.43 C590.995,50.67 473.12,52.335 473.12,52.335 C449.685,-0.165 262.325,-33.505 176.2,91.915 C121.775,171.175 144.78,285.38 144.78,285.38 L174.13,375.84 C179.13,399.33 187.44,450.4 172.51,478.03 C172.51,478.03 209.37,470.535 213.535,458.865 C213.535,458.865 221.62,475.64 267.655,478.335" fill="#7D4D3F"/>
    </g>
    <path d="M531.095,826.495 C546.48,668.995 547.69,564.665 507.39,556.05 C493.25,553.025 411.455,529.335 384.48,519.175 L326.165,518.845 C299.19,529.005 229.94,546.745 215.995,550.56 C196.075,556.01 178.05,596.55 173.975,675.275 C173.65,681.485 226.205,692.33 226.205,692.33 C226.205,692.33 237.885,788.895 241.15,826.495 L531.095,826.495" fill="#99C762"/>
    <path d="M370.58,750.38 C315.67,750.38 266.25,738.93 231.76,720.665 C235.245,750.73 239.405,806.37 241.15,826.495 L531.095,826.495 C534.985,786.665 537.965,731.625 539.6,699.285 C508.685,729.565 444.635,750.38 370.58,750.38" fill="#83BD52"/>
    <path d="M456.655,538.81 C437.225,590.79 355.53,598.995 307.675,582.66 C267.955,569.1 250.67,539.58 250.67,539.58 L330.205,516.795 L383.69,519.175 L454.58,539.065" fill="#F8D2B5"/>
    <path d="M332.285,501.445 L329.905,526.91 C329.905,526.91 344.28,546.495 356.985,546.495 C375.735,546.495 383.46,520.76 383.46,520.76 L382.375,500.395" fill="#F8D2B5"/>
    <g>
      <path d="M332.245,481.7 L382.375,481.7 L382.795,506.09 C382.795,506.09 379.295,538.805 328.77,526.735 L330.645,510.55 L332.245,481.7" fill="#CF957E"/>
      <path d="M474.745,54.91 C451.31,2.41 262.325,-33.505 176.2,91.915 C121.775,171.175 143.685,281.58 143.685,281.58 L160.825,277.37 C160.825,277.37 151.315,128.74 238.53,64.45 C338.375,-9.145 474.745,54.91 474.745,54.91" fill="#E0B79F"/>
      <path d="M187.2,290.175 C187.2,290.175 177.105,270.585 158.105,276.52 C118.48,288.905 131.185,374.795 196.665,382.205" fill="#F8D2B5"/>
      <path d="M525.035,290.505 C525.035,290.505 535.13,270.91 554.13,276.85 C593.755,289.23 583.23,375.125 516.725,382.535" fill="#F8D2B5"/>
    </g>
    <path d="M523.41,271.675 C524.98,304.86 523.735,357.865 509.37,400.865 C482.495,481.31 396.745,499.545 356.035,499.545 C315.325,499.545 229.575,481.31 202.7,400.865 C187.515,355.415 186.995,298.785 188.96,266.205 C246.15,110.04 436.765,123.165 436.765,123.165 L458.865,91.915 L453.5,128.165 C453.5,128.165 471.335,208.575 523.41,271.675" fill="#F8D2B5"/>
    <path d="M311.625,304.005 C311.625,328.835 296.195,348.96 277.165,348.96 C258.13,348.96 242.69,328.835 242.69,304.005 C242.69,279.175 258.13,259.05 277.165,259.05 C296.195,259.05 311.625,279.175 311.625,304.005" fill="#FFFFFE"/>
    <path d="M471.225,304.005 C471.225,328.835 455.795,348.96 436.765,348.96 C417.73,348.96 402.295,328.835 402.295,304.005 C402.295,279.175 417.73,259.05 436.765,259.05 C455.795,259.05 471.225,279.175 471.225,304.005" fill="#FFFFFE"/>
    <path d="M306.255,310.495 C306.255,327.41 296.74,341.12 285.005,341.12 C273.265,341.12 263.755,327.41 263.755,310.495 C263.755,293.58 273.265,279.87 285.005,279.87 C296.74,279.87 306.255,293.58 306.255,310.495" fill="#1A1919"/>
    <path d="M407.075,310.495 C407.075,327.41 416.585,341.12 428.325,341.12 C440.065,341.12 449.575,327.41 449.575,310.495 C449.575,293.58 440.065,279.87 428.325,279.87 C416.585,279.87 407.075,293.58 407.075,310.495" fill="#1A1919"/>
    <path d="M258.015,354.03 C258.015,361.8 244.905,368.105 228.74,368.105 C212.575,368.105 199.465,361.8 199.465,354.03 C199.465,346.255 212.575,339.955 228.74,339.955 C244.905,339.955 258.015,346.255 258.015,354.03" fill="#EC9896"/>
    <path d="M512.885,354.03 C512.885,361.8 499.775,368.105 483.61,368.105 C467.435,368.105 454.33,361.8 454.33,354.03 C454.33,346.255 467.435,339.955 483.61,339.955 C499.775,339.955 512.885,346.255 512.885,354.03" fill="#EC9896"/>
    <path d="M305.88,300.24 C305.88,303.71 303.07,306.515 299.605,306.515 C296.14,306.515 293.325,303.71 293.325,300.24 C293.325,296.775 296.14,293.96 299.605,293.96 C303.07,293.96 305.88,296.775 305.88,300.24" fill="#FFFFFE"/>
    <path d="M447.935,300.24 C447.935,303.71 445.12,306.515 441.655,306.515 C438.19,306.515 435.375,303.71 435.375,300.24 C435.375,296.775 438.19,293.96 441.655,293.96 C445.12,293.96 447.935,296.775 447.935,300.24" fill="#FFFFFE"/>
    <path d="M191.87,355.105 L188.95,323.505 C188.95,323.505 180.735,303.905 168.12,300.875 C151.87,296.97 151.54,323.155 162.7,337.935 C179.78,360.575 191.87,355.105 191.87,355.105" fill="#CF957E"/>
    <path d="M522.7,355.105 L525.62,323.505 C525.62,323.505 533.835,303.905 546.45,300.875 C562.7,296.97 563.03,323.155 551.87,337.935 C534.79,360.575 522.7,355.105 522.7,355.105" fill="#CF957E"/>
    <path d="M280.2,270.065 C288.185,270.065 295.79,271.51 302.81,274.055 C296.5,264.865 287.365,259.05 277.165,259.05 C265.64,259.05 255.475,266.45 249.215,277.77 C258.35,272.895 268.91,270.065 280.2,270.065" fill="#D2E0EB"/>
    <path d="M433.945,270.065 C425.96,270.065 418.355,271.51 411.34,274.055 C417.645,264.865 426.78,259.05 436.98,259.05 C448.505,259.05 458.67,266.45 464.93,277.77 C455.795,272.895 445.235,270.065 433.945,270.065" fill="#D2E0EB"/>
    <g>
      <path d="M204.015,82.335 C258.595,100.655 294.84,100.86 315.155,98.07 C328.805,96.195 321.61,91.31 315.395,90.23 C251.44,79.015 232.36,54.455 232.36,54.455 L204.015,82.335" fill="#E0B79F"/>
      <path d="M38.315,467.255 C38.315,467.255 18.655,409.435 9.325,389.825 C0.01,370.215 10.88,359.04 21.31,365.885 C31.715,372.735 41.28,382.78 47.005,407.195 C52.73,431.615 56.42,460.445 56.42,460.445" fill="#F8D2B5"/>
      <path d="M102.39,583.535 C102.39,583.535 104.415,617.11 114.755,633.48 L114.26,638.14 C106.855,647.91 94.97,659.705 78.215,665 L71.56,663.44 C71.56,663.44 61.115,608.25 51.09,594.745 C41.07,581.24 -12.68,530.44 8.33,506.09 L8.93,505.42 C8.93,505.42 9.315,492.555 18.82,484.945 L21.005,483.43 C21.005,483.43 34.705,462.68 58.01,460.465 C81.3,458.265 102.485,469.535 98.01,497.72 L97.42,501.06 C98.175,495.795 99.59,490.795 102.035,486.825 C111.83,470.95 124.38,468.545 122.98,480.92 C121.575,493.3 118.885,516.165 121.175,528.395 C123.235,539.335 123.03,565.77 104.37,581.925 L102.39,583.535" fill="#F8D2B5"/>
    </g>
    <path d="M258.08,552.75 L250.995,541.08 C250.995,541.08 218.91,546.08 210.995,552.33 C203.08,558.58 183.915,574.83 176.83,596.915 C169.745,619 141.83,680.665 141.83,680.665 L145.58,696.5 C145.58,696.5 189.115,589.635 203.08,575.665 C218.91,559.83 235.165,555.665 258.08,552.75" fill="#CDDF95"/>
    <g>
      <path d="M241.15,826.495 L218.08,637.865 C217.245,631.775 215.58,627.605 209.33,623.025" fill-opacity="0" stroke="#1A1919" stroke-width="6" stroke-linecap="round" stroke-linejoin="round"/>
      <path d="M383.69,519.175 C411.055,526.85 495.16,548.57 508.415,556.05 C519.625,562.375 530.52,568.295 535.645,597.335 C542.18,634.36 540.92,732.46 532.33,826.495" fill-opacity="0" stroke="#1A1919" stroke-width="7" stroke-linecap="round" stroke-linejoin="round"/>
      <path d="M468.65,826.495 L497.005,630.78 C498.67,623.7 500.755,616.62 507.005,613.285" fill-opacity="0" stroke="#1A1919" stroke-width="6" stroke-linecap="round" stroke-linejoin="round"/>
    </g>
    <path d="M306.45,222.11 C293.325,212.11 260.2,207.11 242.075,228.985" fill-opacity="0" stroke="#1A1919" stroke-width="7" stroke-linecap="round" stroke-linejoin="round"/>
    <path d="M307.855,277.945 C293.395,247.46 232.8,247.32 241.45,319.245" fill-opacity="0" stroke="#1A1919" stroke-width="8" stroke-linecap="round" stroke-linejoin="round"/>
    <path d="M187.2,290.175 C187.2,290.175 177.105,270.585 158.105,276.52 C118.48,288.905 131.185,374.795 196.665,382.205 M158.815,299.675 C158.815,299.675 171.88,290.77 187.91,325.8 M404.575,222.11 C417.7,212.11 450.825,207.11 468.95,228.985" fill-opacity="0" stroke="#1A1919" stroke-width="7" stroke-linecap="round" stroke-linejoin="round"/>
    <g>
      <path d="M404.65,280.9 C416.47,247.535 481.205,245.07 472.28,319.245" fill-opacity="0" stroke="#1A1919" stroke-width="8" stroke-linecap="round" stroke-linejoin="round"/>
      <path d="M525.035,290.505 C525.035,290.505 535.13,270.91 554.13,276.85 C593.755,289.23 583.23,375.125 516.725,382.535 M553.04,300.005 C553.04,300.005 539.985,291.1 523.95,326.13 M229.575,297.995 L240.61,304.87 M473.12,304.87 L487.905,297.995 M523.41,271.675 C524.98,304.86 523.735,357.865 509.37,400.865 C482.495,481.31 396.745,499.545 356.035,499.545 C315.325,499.545 229.575,481.31 202.7,400.865 C187.515,355.415 186.995,298.785 188.96,266.205 C246.15,110.04 436.765,123.165 436.765,123.165 L458.865,91.915 L453.5,128.165 C453.5,128.165 471.335,208.575 523.41,271.675 M144.78,285.38 C144.78,285.38 121.775,171.175 176.2,91.915 C262.325,-33.505 449.685,-0.165 473.12,52.335 C473.12,52.335 590.995,50.67 564.84,281.43 M174.13,375.84 C179.13,399.33 187.44,450.4 172.51,478.03 C172.51,478.03 209.37,470.535 213.535,458.865 C213.535,458.865 221.62,475.64 267.655,478.335 M552.89,368.4 C550.335,395.11 541.355,467.595 517.7,487.195 L506.87,443.865 C506.87,443.865 495.285,478 437.225,480.705 M384.13,529.42 L382.375,500.395 M332.285,501.445 L329.905,526.91 M250.67,542.37 C250.67,542.37 267.955,569.1 307.675,582.66 C355.53,598.995 433.185,592.54 455.02,542.75 M356.52,377.5 L356.52,367.5 M355.995,377.12 L355.995,367.12" fill-opacity="0" stroke="#1A1919" stroke-width="7" stroke-linecap="round" stroke-linejoin="round"/>
    </g>
    <path d="M358.645,468.59 C311.16,468.59 307.775,407.34 307.205,393.59 C307.205,393.59 357.695,411.09 408.195,393.59 C407.625,407.34 404.24,468.59 356.76,468.59" fill="#DF7370"/>
    <path d="M354.765,414.425 C372.625,414.425 388.585,423.65 399.26,438.145 C406.825,420.625 407.9,400.725 408.195,393.59 C357.695,411.09 307.205,393.59 307.205,393.59 C307.47,400.07 308.37,417.105 314.215,433.305 C324.69,421.64 338.98,414.425 354.765,414.425" fill="#C35953"/>
    <path d="M358.645,468.59 C311.16,468.59 307.775,407.34 307.205,393.59 C307.205,393.59 357.695,411.09 408.195,393.59 C407.625,407.34 404.24,468.59 356.76,468.59 M71.56,663.44 C71.56,663.44 61.115,608.25 51.09,594.745 C41.07,581.24 -12.68,530.44 8.33,506.09 C25.845,485.78 68.31,488.765 72.56,500.085 C76.66,511.03 77.75,534.895 65.28,539.185 C52.82,543.485 37.185,546.01 39.56,535.165 C41.935,524.32 56.9,519.3 56.9,519.3 M8.93,505.42 C8.93,505.42 9.47,487.395 25.035,481.4 C40.59,475.4 69.865,472.64 79.705,481.4 C86.88,487.805 100.045,517.895 75.93,530.22 M98.925,534.995 C98.925,534.995 92.25,502.71 102.035,486.825 C111.83,470.95 124.38,468.545 122.98,480.92 C121.575,493.3 118.885,516.165 121.175,528.395 C123.48,540.63 122.95,572.25 96.93,587.2 M97.065,523.055 C97.065,523.055 75,537.215 81.24,566.67 M21.005,483.43 C21.005,483.43 34.705,462.68 58.01,460.465 C81.3,458.265 102.485,469.535 98.01,497.72 M38.315,467.255 C38.315,467.255 18.655,409.435 9.325,389.825 C0.01,370.215 10.88,359.04 21.31,365.885 C31.715,372.735 41.28,382.78 47.005,407.195 C52.73,431.615 56.42,460.445 56.42,460.445 M102.39,583.535 C102.39,583.535 104.415,617.11 114.755,633.48 M109.345,614.275 C109.345,614.275 127.435,607.435 128.8,619.695 C129.995,630.43 147.65,721.23 156.5,738.415 M121.61,626.88 C115.73,637.49 97.085,665.64 63.66,667.69 M66.035,639.04 C60.28,645.29 53.08,656.645 57.66,665.25 C63.7,676.615 77.615,745.65 81.41,767.75 C85.195,789.86 101.81,810.46 124.12,806.495 C152.245,801.495 224.12,694.935 224.12,694.935 M141.4,681.565 C141.4,681.565 173.65,599.565 183.495,582.745 C198.495,557.12 212.355,551.175 219.485,548.835 C250.255,538.75 306.475,525.06 328.77,518.165" fill-opacity="0" stroke="#1A1919" stroke-width="7" stroke-linecap="round" stroke-linejoin="round"/>
  </g>
</svg>