<?xml version="1.0" encoding="UTF-8"?>
<!DOCTYPE svg PUBLIC "-//W3C//DTD SVG 1.1//EN" "http://www.w3.org/Graphics/SVG/1.1/DTD/svg11.dtd">
<svg version="1.1" id="Layer_1" xmlns="http://www.w3.org/2000/svg" xmlns:xlink="http://www.w3.org/1999/xlink" x="0px" y="0px" viewBox="0 0 1920 1232" enable-background="new 0 0 1920 1232" xml:space="preserve">
<g>
	<path stroke="#000000" stroke-width="0.0938" d="M92.02,52.89c21.88-2.83,44.49,0.48,64.68,9.4c9.82,4.16,19.21,9.66,26.99,17.01   c6.22,6.03,11.87,13.73,12.13,22.72c1.12,21.04,2.19,42.07,3.28,63.11c28.19,0.44,55.96,7.62,81.53,19.29   c11.47,4.91,22.36,11.04,33.26,17.08c16.9-23.52,39.42-42.57,64.09-57.52c45.95-27.45,98.78-42.11,151.9-46.64   c38.72-3.29,77.93-1.65,116.12,5.64c40.48,7.95,80.2,21.7,115.23,43.75c18.13,11.43,34.84,25.2,49.02,41.29   c15.5-7.81,31.13-15.55,47.64-21.05c19.26-7.02,39.51-11.04,59.87-13.03c4.48-13,11.36-25.28,21.09-35.08   c15.86-16.36,38.36-26.08,61.16-26.23c273.3199-0.02,546.65-0.02,819.98,0c21.09,0.24,41.97,8.62,57.4301,22.98   c12.98,11.84,22.13,27.7,26.0199,44.82c2.7301,10.99,2.03,22.36,2.1101,33.57c0,275.68,0,551.35,0,827.03   c0.09,17.48-5.3101,34.95-15.24,49.33c-15.51,22.9401-42.54,37.6901-70.3101,37.75c-272.33,0.01-544.67,0-817,0.01   c-26.88,0.9-53.63-11.8199-70.14-33c-11.96-14.9399-18.64-33.95-18.68-53.09c-0.04-151.76,0.02-303.53-0.03-455.29   c-18.11,18.76-38.71,35.32-61.86,47.47c-34.42,18.57-74.3,27.57-113.33,23.42c-1.91,1.54-3.05,3.81-4.69,5.62   c-6.02,6.94-14.93,11.77-24.27,11.55c-3.43,0.13-6.74-0.81-10.04-1.55c7.82,30.17,11.99,61.23,13.28,92.34   c14.73,3.15,29.02,8.94,41.02,18.16c12.13,9.18,22.22,21.64,26.75,36.32c3.55,10.84,3.57,23.11-1.45,33.52   c-3.9,9.0099-12.12,15.71-21.41,18.59c-11.08,3.66-23,1.68-33.81-1.89c-3.82,13.44-11.47,25.89-22.3,34.8   c-0.81,0.77-1.95,1.41-2.19,2.6c-8.14,30-17.65,60.21-34.7,86.49c-0.45,0.93-1.83,2.23-0.61,3.2c3.09,3.58,6.84,6.85,8.35,11.51   c1.65,3.9,1.17,8.16,1.44,12.27c20.85,4.6201,41.07,11.94,60.39,21.03c13.79,6.89,27.65,14.46,38.4301,25.7   c5.77,6.3199,10.52,14.33,10.64,23.11c-0.21,10.38-6.63,20.23-15.7599,25.04c-5.9301,3.12-12.6,4.3199-19.03,5.99   c-44.48,10.0399-91.47,5.1899-134.29-9.75c-19.7401-6.75-38.65-15.79-56.68-26.23c-17.73,10.23-36.38,19.0499-56.01,24.96   c-43.31,13.83-90.63,13.8-134.27,1.41c-6.46-1.77-12.9-4.67-17.38-9.8101c-6.94-7.35-9.69-18.64-5.9-28.15   c4.77-12.27,15.56-20.7899,26.29-27.73c25.29-15.9,53.79-26.17,82.74-33.12c2.35-7.85,8.96-13.03,14.08-19.04   c3.81-4.35,9.36-6.49,14.97-7.25c4.55-10.8,8.03-22.06,11.39-33.29c3.39-10.92,6.07-22.05,8.13-33.29   c-15.63,6.09-32.79,9.7-49.53,6.82c-13.68-2.29-26.74-10.25-33.67-22.48c-5.59-9.24-7.32-20.53-5.57-31.12   c1.58-11.09,6.92-21.26,13.31-30.31c0.16-1.11-0.4-2.64,0.88-3.23c14.62-9.34,29.26-18.67,43.95-27.89   c0.87-0.52,1.65-1.15,2.35-1.8701c7.92-36.8799,7.7-75.4-0.49-112.22c-1.34-5.74-2.43-11.59-4.51-17.12   c-3.15-4.3-6.69-8.31-10.1-12.39c-5.58,3.77-11.68,7.69-18.72,7.34c-7.94,0.04-14.56-4.95-20.11-10.08   c-5.94,2.28-11.73,5.02-17.87,6.74c-14.83,4.42-30.56,5.3-45.89,3.52c-40.12-2.78-78.7-18.78-110.71-42.82   c-12.98-9.52-24.62-20.71-35.61-32.43c1.72,148.27,3.77,296.54,5.6,444.81c-0.17,5.3099,1.21,11.0599-1.5,15.97   c-30.88,55.42-61.8,110.8201-92.69,166.25c-3.66,7.02-13.36,10.03-20.2,5.8101c-6.17-3.04-7.56-10.23-9.87-16.04   c-24.25-63.14-48.5-126.28-72.74-189.42c-1.06-2.75-2.55-5.47-2.4-8.5c-0.01-49.03,1.15-98.06,1.04-147.09   c0.77-56.19,0.92-112.39,1.48-168.59c1.16-140.46,2.24-280.93,3.32-421.39c0.96-22.3,1.73-44.62,2.59-66.93   c0.61-10.02,0.74-20.05,0.78-30.09c0.14-22.66,0.25-45.32,0.4-67.98c0.18-11.17,7.45-20.85,16.11-27.28   C56.23,59.93,74.26,54.99,92.02,52.89 M80.32,67.34l-0.35,0.75c-1.47-0.5-3,0.08-4.43,0.41c-8.22,2.46-16.34,5.65-23.34,10.7   c-4.74,3.5-9.49,8.01-10.77,13.99c-0.46,7.92,0.17,15.89-0.61,23.81c-0.22,17.44-0.46,34.91,0.01,52.34   c4.43-0.97,8.35-3.33,12.48-5.08c8.63-3.87,17.78-6.33,26.75-9.22c0.98-0.25,1.95-0.55,2.89-0.92c8.98-1.2,17.94-3,27.05-2.64   c24.2-0.79,47.96,8.07,67.45,22.06c2.96,2.12,5.72,4.51,8.78,6.49c-1.1-26.38-2.92-52.72-4.3-79.09   c-0.11-5.66-3.92-10.31-7.91-13.93c-8.92-7.94-19.91-13.15-31.1-17.04C122.92,62.88,100.89,62.65,80.32,67.34 M983.44,113.65   c-20.39,5.28-37.87,20.68-45.59,40.28c14.54,0.5,28.9301,3.23,42.87,7.3c27.04,8.3,51.5601,23.67,72.2001,42.86   c5.96,5.64,9.64,13.68,9.74,21.91c0.1899,9.99-5.05,19.75-13.12,25.54c-2.86,2.4-6.6001,3.27-9.66,5.27   c11.65,7.83,22.71,16.7,32,27.28c7.65,8.81,13.9,19.24,16.11,30.83c2.34,12.05-0.64,24.7-6.87,35.14   c-3.22,5.25-8.7,9.63-15.09,9.73c-10.29,0.5-19.67-5.08-27.0701-11.74c-16.0099-14.55-32.71-28.9-52.36-38.3   c3.01,4.76,6.88,8.92,9.89,13.7c8.84,13.01,16.74,27.56,17.78,43.56c0.93,11.95-3.24,24.12-11.09,33.14   c-4.88,5.68-12.61,8.81-20.07,7.73c-7.79-1.22-15.34-4.44-21.31-9.65c-11.44-9.76-19.6-22.55-28.89-34.2   c-0.16,20.59-0.12,41.2-0.02,61.79c3.59,1.21,7.36,1.88,10.9,3.3c10.48,3.82,20.02,11.43,24.34,21.93   c4.63,11.05,2.68,24.21-4.01,34c-6.89,10.52-18.03,17.41-29.66,21.6l-0.43,0.62c-0.35,8.22,0.29,16.47,0.11,24.72   c0.36,4.38-1.09,8.61-1.31,12.96c-0.01,159.01,0,318.03-0.01,477.04c0.04,19.5,9.1,38.6901,24.01,51.21   c12.15,10.4501,28.11,16.4501,44.17,16.25c268.67,0,537.33,0,806,0c8.73-0.08,17.58,0.49,26.1801-1.48   c24.85-5.22,45.7599-25.47,51.6399-50.2c3.4401-13.3301,1.7301-27.18,2.14-40.77c0-272.34,0.02-544.67-0.01-817   c0.03-19.28-8.3199-38.42-22.7799-51.23c-12.49-11.33-29.3101-17.59-46.14-17.51c-269.6801,0-539.35,0-809.03,0   C1000.44,111.13,991.73,111.21,983.44,113.65 M425.02,145.01c-29.95,12.82-58.53,30.17-80.72,54.32   c-17.87,19.2-31.08,43.43-34.33,69.69c-0.11,1.21-0.08,2.43,0.09,3.64c-1.03,5.83-0.93,11.88-0.08,17.73   c-0.24,1.84-0.14,3.71,0.14,5.55c1.43,9.71,4.08,19.26,7.96,28.27c8.82-3.51,17.12-8.25,25.64-12.43   c56.73-29.39,109.88-66.62,153.79-113.26c22.95-24.56,43.79-51.3,60.55-80.46C512.6,118.91,467.1,127.6,425.02,145.01    M562.41,118.28c-14.3,24.37-30.93,47.37-49.49,68.68c-52.45,60.38-119.91,106.2-191.93,140.13c-0.28,0.26-0.84,0.78-1.12,1.04   c12.03,25.9,32.6,46.93,55.73,63.25c31.5,22.08,67.96,36.23,105.29,44.83c48.52,10.67,99.03,12.42,148.1,4.63   c44.09-6.82,87.54-21.27,124.96-45.91c25.2-16.85,48.11-38.9,60.83-66.82c-1.38-1.65-3.86-2-5.69-3.07   C750.94,297.06,696,261.47,649.62,216.36c-27.45-26.62-51.7-56.56-71.86-89.07c-1.75-2.84-3.31-5.82-5.38-8.45   c-2.1,21.92,3.85,43.53,10.55,64.17c1.15,3.97,2.88,8,2.28,12.22c-1.18-0.14-2.18-0.62-3-1.43c-0.06-3.01-0.17-6.05-1.18-8.92   c-5.57-18.22-11.76-36.62-12.03-55.87l-1.11,0.65c-1.68,12.93-5.03,25.55-8.04,38.21c-2.11,9.06-4.96,17.97-6.18,27.22   c-1.16-0.32-2.65-0.85-2.87-2.21c0.22-4.06,1.28-8.01,2.14-11.96c5.14-20.74,11.17-41.46,12.87-62.85   C564.66,117.99,563.53,118.06,562.41,118.28 M576.84,118.12c3.87,7.83,9.08,14.93,13.7599,22.29   c11.4901,16.9,24.04,33.09,37.64,48.35c50.18,56.49,113.71,99.78,181.45,132.52c2.31,0.84,4.61,3.06,7.09,2.63   c2.77-5.49,4.1899-11.55,5.73-17.48c0.88-4.25,2.18-8.51,1.99-12.89c1.33-7.91,1.36-16.12-0.07-24.02   c-0.09-7.11-2.37-14.04-4.19-20.86c-10.3-31.42-33.5-56.99-60.08-75.84c-31.49-22.39-68.11-36.67-105.58-45.37   C629.04,121.94,603,118.27,576.84,118.12 M91.76,157.93C77.2,159.64,63,164.42,49.8,170.7c-3.04,1.19-6.12,2.42-8.87,4.21   c-0.55,7.03-0.43,14.09-0.7,21.13c0.24,2.31-1.99,3.76-2.29,5.91c0.54,0.32,1.62,0.97,2.16,1.29c-1.6,0.61-3.06,2.97-0.87,3.91   c0.49,7.24,0.19,14.56-0.5,21.78c0.09,2.39-3.84,5.22-0.47,6.65c-2.12,1.75-0.65,4.33-0.25,6.49c0.25,2.49,0.12,4.99,0.32,7.49   c-1.15,4.17-0.41,8.68-0.64,12.98c1.08-0.92,2.16-1.84,3.13-2.86C54.5,249.02,72,244.85,89.02,243.9   c28.01-1.45,57.09,5.36,79.87,22.16c4.27,3,7.78,6.89,11.83,10.14c3.98,4.83,7.65,9.87,11.16,15.05c-0.71-12.66-1.51-25.33-2.04-38   c0.42-0.29,1.25-0.85,1.66-1.13c-0.18-1.14-0.68-2.12-1.52-2.95c0.38-0.51,1.14-1.54,1.52-2.06c-0.86-2-2.55-3.75-2.42-6.07   c-0.22-5.24-0.88-10.52-0.32-15.76c1.29-1.23,1.15-3.07,0.01-4.32c2.39-1.56,0.69-3.78-1.02-4.95   c-0.16-10.18-0.96-20.35-1.42-30.52c-1.59-2.03-3.8-3.53-6.06-4.73c-9.46-7.84-20.59-13.5-32-17.96   c-8.58-2.86-17.48-5.46-26.58-5.68c0.02-2.01-3.6-1.93-4.55-0.57C108.7,155.64,100.07,156.32,91.76,157.93 M911.92,177.14   c-17.58,1.74-34.71,6.54-51.29,12.52c-17.47,6.69-34.5,14.68-50.48,24.41c0.61,1.25,1.37,2.44,2.14,3.62   c10.76,15.84,18.2401,34.19,19.93,53.36c-0.11,3.17,2.45,5.25,4.3,7.45c8.5,9.66,14.35,21.39,23.39,30.6   c4.36,4.23,9.73,8.43,16.11,8.42c2.55,0.11,4.85-1.98,4.8-4.57c0.71-8-4.46-14.74-8.9-20.84c-1.74-2.66-4.36-5.38-3.75-8.83   c5-1.08,10.17,0.1,14.97,1.6c12.22,4.2,22.52,12.44,31.64,21.37c18.58,18.46,32.93,40.52,48.84,61.19   c4.59,5.69,9.18,11.61,15.32,15.72c2.6,1.86,6.63,2.39,8.88-0.32c5-5.94,5.06-14.52,3.08-21.67c-3.76-13.1-11.81-24.39-20.04-35.05   c-11.23-14.31-24.08-27.22-36.17-40.78c-3.01-3.68-6.59-7.13-8.28-11.66c-0.84-1.69,1.21-2.78,2.66-2.48   c34.89,1.85,68.67,15.35,96.45,36.32c9.89,7.32,19.01,15.6,28.1799,23.79c2.52,2.02,4.9701,4.56,8.27,5.19   c2.23-0.26,2.3-3.03,2.99-4.67c2.89-9.59-0.33-19.92-6-27.81c-8.72-12.22-20.85-21.47-33.1799-29.77   c-21.6201-14.48-45.26-25.46-67.97-38.03c-3.08-1.9-6.42-3.64-8.7-6.52c-1.05-4.54,2.01-9.67,6.46-11.1   c5.07-1.6,10.52-0.85,15.64,0.18c18.32,3.93,35.24,12.63,53.6099,16.38c4.3301,0.93,9.42,0.7,12.7001-2.66   c3.49-3.04,3.5699-9.04,0.0499-12.09c-17.1299-15.96-37.2899-28.99-59.5599-36.46C956.9,176.53,934.09,174.84,911.92,177.14    M199.16,187.83c0.55,13.09,0.81,26.24,1.67,39.29c-0.12,3.1,0.24,6.21,0.55,9.29c-0.52,4.49,0.07,9,0.22,13.5   c0.5,9.74,0.56,19.49,1.25,29.22c0.03,1.43,0.15,2.85,0.36,4.27c0.21,22.83,1.64,45.72,2.13,68.58   c11.61-13.53,23.2-27.67,38.59-37.11c7.26-4.33,15.6-8.11,24.26-7.07c-1.62,3.63-5.1,5.83-7.78,8.61   c-5.44,5.02-9.22,11.77-10.9,18.97c-0.48,3.02-0.93,6.5,0.87,9.19c1.45,2.05,4.31,1.91,6.48,1.38c6.17-1.73,11.12-6.17,15.27-10.87   c10.35-11.95,17.4-26.32,27.59-38.4c0.86-1.1,1.79-2.18,2.37-3.47c0.3-0.2,0.9-0.62,1.2-0.82c-0.24-5.79-0.32-11.59-0.2-17.38   c2.78-13.78,5.05-27.9,11.18-40.7c0.55-1.63,1.87-3.22,1.61-5c-19.92-13.22-41.35-24.39-63.96-32.28   C234.91,191.56,217.13,187.21,199.16,187.83 M59.52,257.35c-1.17,0.56-2.81,0.6-3.51,1.83c-6.56,1.81-12.84,5.3-17.38,10.42   c-1.93,1.96-1.37,4.9-1.52,7.38c0.42,29.68-0.76,59.35-0.38,89.03C35.95,384,36.25,402,36.12,420   c-0.61,26.32,0.27,52.66-0.84,78.98c0.01,17.01,0.16,34.01-0.34,51.02c-0.14,14.67,0.15,29.35-0.17,44.03   c-0.98,17.31-0.14,34.65-0.57,51.97c-0.48,23.67-0.01,47.34-0.48,71.01c-0.34,18.99,0.4,38-0.56,56.97   c-0.28,17.68,0.22,35.35-0.41,53.02c-0.39,16.66,0.31,33.33-0.5,49.97c-0.29,15.67-0.13,31.35-0.14,47.03   c-0.43,19.99-0.16,40-0.37,60c0.11,4.16-0.85,8.5,0.44,12.56c3.26,1.15,6.61,2.05,9.93,3.04c2.03,2.71,4.68,4.98,6.1,8.11   c2.72,5.07,3.57,10.81,5.15,16.27c1.74-2.59,2.17-5.76,3.12-8.68c2.02-6.46,5.67-12.54,10.96-16.84c6.09-4.98,14.53-7.17,22.2-5.15   c10.35,2.38,18.73,10.09,23.97,19.09c5.26,8.53,7.33,18.4399,9.28,28.13c3.55-4.8101,5.87-10.39,9.46-15.17   c6.2-8.42,13.84-16.28,23.66-20.33c8.96-4.09,20.02-3.88,28.35,1.64c5.5,3.13,9.06,8.46,12.48,13.6   c1.35,4.02,3.04,7.9199,4.84,11.77c0.53-20.35-0.59-40.71-0.45-61.0701c0.02-1.8199-0.11-3.65-0.9-5.29   c0.4-34.91-1.09-69.8-0.7-104.71c0.15-2.09-0.34-4.11-0.43-6.16c0.07-10.73,0.54-21.53-0.79-32.19   c0.51-11.21,0.03-22.45,0.09-33.66c-0.64-12.7401-0.01-25.51-0.9-38.23c-0.23-18.58-0.17-37.16-0.27-55.74   c-1.24-24.6-0.51-49.25-0.91-73.87c-1.15-18.7-0.55-37.45-0.84-56.16c-0.26-3.72-1.93-7.2-1.97-10.95   c-0.14-9.54,0.29-19.09-0.1-28.61c-1.93-1.21-4.09-1.92-6.16-2.81c-10.84-4.56-20.5-12.4-26.09-22.87   c-3.88-7.6-5.81-16.56-3.57-24.95c2.62-12.19,12.52-21.68,23.73-26.38c3.83-1.74,8.15-2.28,11.81-4.42   c0.69-5.29,0.14-10.65,0.25-15.96c-0.21-14.34,0.26-28.69-0.63-43c-0.53-25.33,0.25-50.69-0.98-76.01   c-0.24-3.85,0.82-8.14-1.29-11.62c-8.09-12.98-19.76-23.59-33.21-30.81c-21.95-11.98-47.58-16.47-72.4-14.53   C76.27,252.43,67.8,254.77,59.52,257.35 M841.24,322.12c-3.28,10.1-7.83,19.75-13.21,28.9c-17.32,28.91-43.32,51.75-71.9901,69.01   c-34.11,20.43-72.27,33.4-111.2,40.9l0.3799,0.73c4.3101,1.8,7.84,4.93,11.76,7.3c28.81,6.97,56.86,18.68,80.19,37.24   c7.78-5.32,17.07-9.2,26.69-8.07c11.3,0.84,21.87,8.72,25.43,19.56c2.07,5.54,2.09,11.56,1.03,17.32c1.55,3.2,3.2,6.36,4.52,9.67   c18.23-8.69,33.36-22.71,46.54-37.77c-1.5-13.63-2.33-27.7,1.51-41.05c3.43-13.29,11.66-25.32,23.25-32.78   c14.1-9.21,31.54-10.99,47.98-9.98c0.06-27.99,0.14-55.99-0.04-83.98c-3.95-5.41-8.47-10.43-13.13-15.26   c-4.55,10.35-15.77,17.01-27.02,16.13C861.13,338.89,849.7,331.47,841.24,322.12 M278,360.02c-8.77,6.43-20.1,10.76-30.98,7.77   c-6.72-1.51-12.17-6.16-16.02-11.7c-8.43,10.01-16.4,20.43-23.88,31.15c-0.04,18.25,0.47,36.52,0.81,54.77   c12.25-1.17,24.83-1.4,36.76,2.1c14.52,3.69,27.38,13.49,34.54,26.68c7.89,14.64,9.03,31.89,7.35,48.16   c-0.12,2.57-1.69,5.81,0.68,7.82c13.11,14.28,27.62,28.04,45.43,36.22c1.14-4.21,4.9-7.83,3.98-12.39   c-0.92-6.6,0.25-13.53,3.59-19.3199c4.93-8.78,14.63-14.61,24.68-14.92c5.05-0.34,10,1.18,15.06,0.77   c7.76-0.38,15.39,1.24,22.9,3.01c10.75-12.07,22.84-23.09,36.64-31.62c18.9-11.96,40.39-19.64,62.42-23.23   c3.77-0.9,8.4,2.15,11.34-1.32c-19.31-2.67-38.41-6.85-57.2-12.05c-38.5-11.03-76.11-27.28-107.64-52.35   c-20.95-16.67-38.8-37.72-49.61-62.36C292.61,345.41,286.5,353.97,278,360.02 M886.73,447.86c-10.09,3.07-18.41,11.23-21.52,21.33   c-4.53,14.2-2.45,29.4,0.12,43.77c-4.51,6.48-10.12,12.15-15.38,18.03c-12.34,13.2-26.13,25.56-42.66,33.25   c-9.72,4.89-20.5,6.9-31.08,8.91c-4.11,3.68-7.97,8.11-13.7401,9.08c0.98,4.64,1.88,9.45,0.7,14.16   c-1.4,8.31-7.58,16.28-16.22,17.69c-5.09,1.14-10.07-0.65-14.91-1.95c0.56,1.37,1.23,2.71,2,3.99c36.06,8.28,74.7,0.71,106.61-17.5   c27-15.17,49.86-36.84,68.94-61.06c0.99-1.38,2.37-2.75,2.1-4.6c0.07-14.98-0.19-29.98,0.07-44.95   c11.5-0.45,23.68-3.81,31.67-12.56c4.15-4.5,6.75-11.57,3.35-17.23c-4.0601-6.58-12.02-9.1-19.19-10.53   C914.16,445.23,899.99,443.8,886.73,447.86 M542.67,454.05c0.94,8.84,1.52,17.75,2.83,26.54c3.85,4.48,9.92,6.12,15.53,7.07   c10.98,1.38,22.7,0.29,32.53-5.12c0.93-0.71,2.38-1.03,2.76-2.27l1.05-0.21c0.35-7.51-0.32-15.04-0.37-22.56l-1.18,0.07   C578.07,459.74,559.99,458.44,542.67,454.05 M188.59,469.55c-4.78,2.38-9.6,6.68-9.51,12.45c-0.36,5.51,3.1,10.36,6.96,13.95   c8.07,7.18,18.98,10.15,29.59,10.44c0.09,13.87,0.04,27.74,0,41.61c0.08,2.38-0.47,5.12,1.42,6.99   c11.19,14.32,23.73,27.64,37.71,39.27c26.4,22.19,58.58,38.69,93.19,42.34c19.37,2.05,39.2,0.08,57.72-5.98   c1.17-1.19,1.64-2.86,2.32-4.34c-2.96,0.71-5.9,1.77-8.99,1.6299c-6.76,0.1801-12.63-4.2-16.7-9.23   c-7.18-9.17-10.04-21.6-7.39-32.98c-3.01-0.47-6.4-0.61-8.65-2.95c-1.89-1.56-1.98-4.17-2.7-6.32   c-20.03-2.55-40.56-4.57-59.31-12.61c-16.4-6.95-30.88-18.24-41.97-32.14c2.06-12.68,3.97-25.77,1.54-38.58   c-1.8-9.42-7.04-18.54-15.47-23.47c-10.22-6.26-22.74-6.56-34.35-5.72C205.4,464.92,196.48,465.71,188.59,469.55 M610.86,479.95   c-4.64,4.67-9.16,9.6-14.89,12.99c-9.1299,6.06-20.78,7.89-31.3799,5.27c-11.96-2.74-22.1801-9.95-31.73-17.33   c-10.33,3.04-20.36,8.22-27.81,16.12c-4.26,4.57-7.89,10.9-6.33,17.35c1.42,5.26,7.32,7.39,12.26,7.41   c9.22-0.06,17.71-4.16,25.89-7.97c0.68,5.37,1.64,10.95,4.88,15.46c4.4,6.5,13.21,8.97,20.61,6.95c8.6-1.83,15.77-8.08,19.47-15.96   c2.11,2.53,4.14,5.28,7.1,6.9c9.32,5.63,21.82,3.43,30.09-3.14c3.59-2.97,6.76-7.7,5.39-12.54c-0.8799-3.81-4.1-6.24-6.85-8.69   c7.22,0.97,15.02,2.01,21.8-1.41c3.77-1.72,6.66-5.96,5.44-10.19c-1.92-6.1-8.06-9.61-13.93-11.07   C624.36,478.56,617.37,478.4,610.86,479.95 M419.84,534.89c-1.8,2.47-5.08,4.65-4.59,8.09c0.47,5.87,1.94,11.61,3.49,17.27   c3.59,13.75,15.69,23.5,28.35,28.72c5.94,2.85,12.61,1.3,18.9,1.33c4.37,0.08,7.94,2.9,11.17,5.53   c6.95,5.63,12.78,13.08,15.02,21.87c1.28,5.97-0.16,12.09-1.56,17.91c-0.75,3.45-3.3,6-5.19,8.84c-0.21,3.5,1.3,6.87,1.9,10.29   c9.27,43.36,10.07,88.34,3.84,132.18c-0.37,2.3-0.59,4.64-0.51,6.99c5.4-1.9,10.57-4.37,15.92-6.39   c39.84-15.6,81.76-26.31,124.47-29.79c19.92-1.95,39.95-1.3,59.92-0.98c-0.02-61.11-14.93-122.11-42.75-176.53   c12.8101,2.48,25.6801,4.6801,38.5,7.14c2.34,0.36,4.69,1.04,7.09,0.81c3.68-3.69,9.01-3.91,13.66-5.62   c11.2-4.45,20.9901-13.43,25.25-24.84c3.1-8.05-1.79-16.47,0.69-24.61c-0.42-0.71-0.92-1.35-1.5-1.91   c-18.25-17.11-40.99-28.93-64.8-36.23c-4.8-1.42-9.52-3.26-14.52-3.77c-0.27,4.59-0.95,9.57-4.52,12.86   c-3.97,4.6-10.11,5.62-15.63,7.16c-0.33,5.61-1.52,11.46-5.63,15.6c-8.21,8.79-21.2,12.63-32.93,10.32   c-3.9-0.78-7.27-2.97-10.89-4.47c-2.23,1.5-4.09,3.46-6.24,5.06c-10.78,8.19-27.83,9.3701-37.92-0.54   c-3.86-3.26-5.41-8.15-7.9-12.34c-4.95,1.31-9.72,3.43-14.87,3.8799c-5.99,0.55-12.52,0.39-17.68-3.1   c-6.56-4.05-9.16-12.87-6.78-20.04c1.73-7.02,6.87-12.29,11.51-17.53C470.91,492.93,440.81,510,419.84,534.89 M754.73,521.79   c-6.92,3.21-11.77,9.63-14.99,16.36c0.73,5.58,2.05,11.17,1.49,16.85c-0.48,9.76-5.54,19.03-13.22,25.01   c-7.66,6.35-17.36,9.24-26.63,12.32c-2.74,8.55-4.2,17.77-2.6,26.7c0.98,4.8199,3.08,10.06,7.67,12.48c3.57,1.93,8,0.42,10.57-2.46   c5.83-6.33,7.58-15.12,8.91-23.34c4.68,2.4,9.66,5.09,15.13,4.28c7.51-0.82,12.91-7.67,14.26-14.75   c1.62-5.72-0.05-11.65-2.43-16.89c3.41-0.38,7.03-0.53,10.04-2.39c6.91-4.04,10.67-12.14,10.99-19.95   c-0.02-4.28-1.65-9.22-5.82-11.11c-3.03-1.5-6.36-0.29-9.45,0.25c4.12-4.37,8.65-9.01,9.81-15.15c0.68-3.09-0.31-6.68-3.09-8.4   C762.13,519.58,758.01,520.25,754.73,521.79 M370.39,540.64c-4.31,1.23-8.72,3.75-10.52,8.08c-1.58,4.25,0.3,8.94,3.4,11.98   c6.86,7.06,16.64,9.85,25.83,12.48c-5.29,6.61-9.6,15.91-5.51,24.19c5.88,12.38,22.48,16.13,34.41,10.79   c-0.19,3.64-0.44,7.42,0.92,10.9c3.21,8.99,12.17,14.84,21.27,16.53c5.18,0.92,11.57,0.08,14.77-4.57   c2.5-3.59,1.59-8.12,1.18-12.15c4.13,5.17,8.7,10.4,14.96,13c3.47,1.59,8,1.89,11.03-0.77c3.38-2.87,3.52-7.8,2.72-11.83   c-2.15-8.64-8.77-15.28-15.86-20.24c-2.72-2.72-6.65-0.65-9.99-1.01c-12.54,0.77-25.94-2.91-34.64-12.39   c-10.26-10.55-13.85-25.34-16.43-39.36c-2.55-1.74-5.57-2.6-8.45-3.62C390.17,539.69,379.98,537.93,370.39,540.64 M628.28,767   c-39.58,5.07-78.5601,14.39-116.48,26.71c-10.22,3.35-20.57,6.61-29.86,12.13c-15.9,9.02-31.25,20.36-40.85,36.23   c-4.77,8.43-8.15,18.87-4.49,28.35c2.6,7.58,9.76,12.64,17.3,14.57c11.02,2.85,22.65,0.87,33.31-2.56   c16.27-5.19,30.87-14.4,44.61-24.34c1.84,8.83,4.23,17.89,9.98,25.08c5.3,7.31,14.95,11.11,23.81,9.28   c11.11-1.9,20.67-8.57,28.76-16.1c11.91-11.45,21.16-25.79,26.22-41.54c0.27-0.5,0.79-1.5,1.06-2c3.27,14.76,9.4,30.34,22.39,39.15   c9.05,6.18,21.09,7.44,31.2401,3.3c14.2-5.23,24.79-18.37,27.8-33.08c2.53-10.9,0.27-22.23-3.91-32.41   c11.24,8.37,22.88,16.96,36.61,20.68c6.28,1.65,13.52,2.23,19.18-1.52c5.1-3.42,6.79-10.11,6.07-15.92   c-0.9-8.68-5.46-16.51-11.0601-23.02c-9.7-10.93-23.14-18.07-37.2-21.59c-10.59-2.7401-21.58-2.75-32.39-3.88   C662.99,763.37,645.56,765.11,628.28,767 M614.48,859.39c-4.55,21.85-10.27,43.49-17.46,64.62c-6.47,20.23-14.44,39.94-21.49,59.96   c4.67,2.14,9.78,3.58,14.93,3.76c6.63,0.97,13.4,0.9,20.04,0c6.38-0.25,12.75-1.6,18.89-3.34c9.99-10.7,18.06-23.16,24.95-36.06   c11.33-21.81,18.1299-45.54,24.66-69.13c-11.19,5.27-25.12,6.61-35.95-0.25c-12.65-8.06-18.41-23.04-21.49-37.07   C619.53,847.86,616.94,853.6,614.48,859.39 M576.02,897.02c-9.4,4.02-21.14,4.93-29.85-1.21c-9.33-6.61-13.84-17.92-15.87-28.79   c-1.87,10.49-3,21.11-4.94,31.6c-5.19,29.66-14.58,58.39-25.32,86.46c20.95,7.73,44.56,7.07,65.4-0.68   c16.54-39.71,34.61-79.03,46.51-120.48C603.02,877.69,591.35,890.42,576.02,897.02 M622.79,991.76   c-17.03,3.48-34.61,4.01-51.81,1.57l-0.76,0.5c-0.17,6.07-0.75,12.13-0.9399,18.2l0.6,0.74c25.7,4.05,52.33,8.98,78.07,2.52   c-2.07-3.38-4.21-6.73-6.47-9.98c-19.74,1.12-39.87,3.76-59.55,0.11c18.02-0.11,36.03-1.34,53.87-3.93   c5.5-0.97,11.27-1.67,16.15-4.61c-2.78-3.17-5.58-6.33-8.45-9.41C636.52,988.33,629.75,990.65,622.79,991.76 M475.33,999.3   c1.26,1.35,3.21,1.67,4.92,2.17c6.48,1.48,13.15,1.95,19.77,2.5c17.28,0.9,34.65,1.77,51.92,0.41c-9.07,2.47-18.55,2.46-27.87,3.15   c-12.34,0.7599-24.73,0.42-37.06-0.52c-1.63-0.47-3.85,0.72-2.88,2.62c8.92,1.56,17.85,3.13,26.78,4.67   c9.91,1.89,20.08,1.54,30.08,0.65c6.92-1,13.68-2.89,20.45-4.56c2.03-6.12,3.41-12.45,5.24-18.63c-12.54,3.82-25.6,6.11-38.74,5.93   c-14.92-0.35-29.73-3.16-43.92-7.72C480.92,992.88,478.22,996.18,475.33,999.3 M31.8,1007.81c8.13,21.64,17.55,42.82,26.11,64.31   c9.96,24.0601,19.79,48.16,29.7,72.24c0.74,1.49,1.23,3.27,2.58,4.37c7.78-2.46,15.8-4.6,24.07-3.98   c5.67,0.66,11.22,2.16,16.42,4.54c1.91,0.8199,5.01,2.12,5.98-0.64c17.23-29.4301,34.48-58.86,51.7-88.3   c3.13-5.83,7.28-11.2,9.68-17.36c-1.71-7.78-5.36-15.3199-11.08-20.95c-6.39-6.32-16.05-9.4-24.85-7.1   c-13.53,3.14-23.97,13.5099-31.64,24.6c-3.66,4.88-6.05,10.5499-9.29,15.6799c-1.77-10.96-3.92-22.49-10.89-31.48   c-5.95-10.21-18.1-17.59-30.17-15.56c-8.13,1.31-14.94,6.96-18.96,13.98c-3.64,5.43-4.62,11.97-6.78,17.9901   c-2.19-9.13-4.28-18.73-10.19-26.29C41.28,1010.06,36.71,1007.41,31.8,1007.81 M463.76,1014.17c1.22,1.3,3.24,0.98,4.85,1.43   c4.86,0.63,10.25,2.77,12.33,7.56c1.93,4.2601-1.04,8.84-4.19,11.6201c-5.28,4.2999-12.12,6.4299-18.85,6.9   c-5.82,0.1799-12.26-0.78-16.68-4.89c-3.08-2.65-3.3-7.5-1.24-10.8301c2.11-3.5599,5.9-5.5599,9.05-8.05   c-12.67,2.6801-24.79,7.45-36.77,12.3c-12.36,5.42-24.62,11.41-35.48,19.51c-4.29,3.37-8.96,6.9401-10.94,12.23   c-1.17,2.77,0.47,5.99,3.12,7.2001c4.1,2.0399,8.69,2.71,13.1,3.8199c33.5,8.3201,69.14,8.52,102.56-0.2899   c20.27-4.89,39.51-13.3601,57.72-23.41c5.36-2.8301,10.23-6.54,15.69-9.16c5.12,2.25,9.5,5.92,14.5,8.4401   c28.5699,16.3999,59.91,28.2899,92.5,33.45c29.47,5.03,59.98,3.6899,88.83-4.1801c3.17-0.99,7.37-2.83,7.12-6.8199   c-0.59-5.29-5.07-8.92-8.8-12.23c-12.35-9.8101-26.74-16.65-41.21-22.73c-11.11-4.4-22.3799-8.75-34.14-11.04   c3.97,2.5699,8.76,4.85,10.38,9.6801c1.8,3.9099-0.08,8.6399-3.69,10.7699c-7.36,4.28-16.65,4.4701-24.53,1.52   c-4.95-1.7999-10.13-4.4299-12.69-9.28c-2.09-3.6-1.4-8.7799,2.12-11.23c4.49-3.5599,10.37-3.9299,15.79-4.89   c-3.9901-0.87-8.09-1.08-12.14-1.54c-6.12-0.75-11.96,1.8-18.01,2.24c-22.78,2.51-45.48-2.04-67.89-5.6   c-4.58-0.72-8.96,1.23-13.41,1.95c-19.11,3.33-39.04,3.37-57.86-1.65c-4.52-1.04-8.47-3.75-13.01-4.64   C475.81,1012.32,469.8,1013.57,463.76,1014.17 M458.36,1019.51c-5.22,0.95-11.08,3.53-13.08,8.84   c-1.25,3.3201,1.45,6.6901,4.44,7.89c5.66,2.3,12.26,1.6901,17.78-0.73c3.53-1.61,7.08-4.47,7.61-8.55   c-0.01-2.36-1.44-4.53-3.44-5.6799C467.71,1018.86,462.81,1018.93,458.36,1019.51 M657.37,1024.47   c-4.09,0.9501-8.65,3.13-9.76,7.5601c-0.83,4.9199,3.21,8.9199,7.09,11.22c6.49,3.74,14.49,4.88,21.78,3.17   c3.76-0.9701,7.94-3.3101,8.67-7.4701c0.77-4.0699-2.11-7.6399-5.1801-9.8899C673.47,1024.5601,665.08,1022.92,657.37,1024.47    M93.68,1157.0601c2.6,9.61,6.86,18.7,10.17,28.09c2,4.2999,2.67,9.4,6,12.9399c-0.03-0.46-0.08-1.38-0.1-1.85   c2.33-2.66,3.83-5.87,5.53-8.92c5.18-9.49,10.63-18.83,15.7-28.37c-5.97-4.0299-13.46-6.7799-20.75-5.99   c-0.35,14.11,0.55,28.27-0.55,42.36c-0.31-1.0699-0.48-2.1499-0.5-3.23c-0.09-13.0499,0.23-26.12-0.24-39.15   C103.63,1152.73,98.16,1154.1899,93.68,1157.0601z"/>
	<path fill="#FF6634" stroke="#FF6634" stroke-width="0.0938" d="M80.32,67.34c20.57-4.69,42.6-4.46,62.6,2.63   c11.19,3.89,22.18,9.1,31.1,17.04c3.99,3.62,7.8,8.27,7.91,13.93c1.38,26.37,3.2,52.71,4.3,79.09c-3.06-1.98-5.82-4.37-8.78-6.49   c-19.49-13.99-43.25-22.85-67.45-22.06c-9.11-0.36-18.07,1.44-27.05,2.64c9.44-4.75,20.46-3.93,30.72-4.62   c0.69-4.8,0.27-9.67,0.32-14.5c0.01-18.33-0.04-36.66,0.03-55c-0.08-4.09,0.53-8.32-0.68-12.3c-1.15-1.71-3.47-1.57-5.28-1.73   c-9.45-0.08-18.81,1.46-28.08,3.08l-0.01-0.96L80.32,67.34z"/>
	<path fill="#FE5D27" stroke="#FE5D27" stroke-width="0.0938" d="M79.98,69.05c9.27-1.62,18.63-3.16,28.08-3.08   c1.81,0.16,4.13,0.02,5.28,1.73c1.21,3.98,0.6,8.21,0.68,12.3c-0.07,18.34-0.02,36.67-0.03,55c-0.05,4.83,0.37,9.7-0.32,14.5   c-10.26,0.69-21.28-0.13-30.72,4.62c-0.94,0.37-1.91,0.67-2.89,0.92C79.96,126.37,80.14,97.71,79.98,69.05z"/>
	<path fill="#CD3301" stroke="#CD3301" stroke-width="0.0938" d="M75.54,68.5c1.43-0.33,2.96-0.91,4.43-0.41l0.01,0.96   c0.16,28.66-0.02,57.32,0.08,85.99c-8.97,2.89-18.12,5.35-26.75,9.22c-4.13,1.75-8.05,4.11-12.48,5.08   c-0.47-17.43-0.23-34.9-0.01-52.34c0.78-7.92,0.15-15.89,0.61-23.81c1.28-5.98,6.03-10.49,10.77-13.99   C59.2,74.15,67.32,70.96,75.54,68.5z"/>
	<path fill="#FFFFFF" stroke="#FFFFFF" stroke-width="0.0938" d="M983.44,113.65c8.29-2.44,17-2.52,25.56-2.39   c269.6801,0,539.35,0,809.03,0c16.83-0.08,33.65,6.18,46.14,17.51c14.46,12.81,22.8099,31.95,22.7799,51.23   c0.03,272.33,0.01,544.66,0.01,817c-0.4099,13.59,1.3,27.4399-2.14,40.77c-5.88,24.73-26.7899,44.98-51.6399,50.2   c-8.6001,1.97-17.4501,1.4-26.1801,1.48c-268.67,0-537.33,0-806,0c-16.06,0.2001-32.02-5.7999-44.17-16.25   c-14.91-12.5199-23.97-31.71-24.01-51.21c0.01-159.01,0-318.03,0.01-477.04c0.22-4.35,1.67-8.58,1.31-12.96   c0.18-8.25-0.46-16.5-0.11-24.72l0.43-0.62c11.63-4.19,22.77-11.08,29.66-21.6c6.69-9.79,8.64-22.95,4.01-34   c-4.32-10.5-13.86-18.11-24.34-21.93c-3.54-1.42-7.31-2.09-10.9-3.3c-0.1-20.59-0.14-41.2,0.02-61.79   c9.29,11.65,17.45,24.44,28.89,34.2c5.97,5.21,13.52,8.43,21.31,9.65c7.46,1.08,15.19-2.05,20.07-7.73   c7.85-9.02,12.02-21.19,11.09-33.14c-1.04-16-8.94-30.55-17.78-43.56c-3.01-4.78-6.88-8.94-9.89-13.7   c19.65,9.4,36.35,23.75,52.36,38.3c7.4,6.66,16.78,12.24,27.0701,11.74c6.39-0.1,11.87-4.48,15.09-9.73   c6.23-10.44,9.21-23.09,6.87-35.14c-2.21-11.59-8.46-22.02-16.11-30.83c-9.29-10.58-20.35-19.45-32-27.28   c3.0599-2,6.8-2.87,9.66-5.27c8.0699-5.79,13.3099-15.55,13.12-25.54c-0.1-8.23-3.78-16.27-9.74-21.91   c-20.64-19.19-45.16-34.56-72.2001-42.86c-13.9399-4.07-28.33-6.8-42.87-7.3C945.57,134.33,963.05,118.93,983.44,113.65z"/>
	<path fill="#989933" stroke="#989933" stroke-width="0.0938" d="M425.02,145.01c42.08-17.41,87.58-26.1,133.04-26.95   c-16.76,29.16-37.6,55.9-60.55,80.46c-43.91,46.64-97.06,83.87-153.79,113.26c-8.52,4.18-16.82,8.92-25.64,12.43   c-3.88-9.01-6.53-18.56-7.96-28.27c-0.28-1.84-0.38-3.71-0.14-5.55c1.45-5.84,1.3-11.86,0.08-17.73c-0.17-1.21-0.2-2.43-0.09-3.64   c3.25-26.26,16.46-50.49,34.33-69.69C366.49,175.18,395.07,157.83,425.02,145.01z"/>
	<path fill="#FFCB99" stroke="#FFCB99" stroke-width="0.0938" d="M562.41,118.28c1.1201-0.22,2.25-0.29,3.4-0.21   c-1.7,21.39-7.73,42.11-12.87,62.85c-0.86,3.95-1.92,7.9-2.14,11.96c0.22,1.36,1.71,1.89,2.87,2.21   c1.22-9.25,4.07-18.16,6.18-27.22c3.01-12.66,6.36-25.28,8.04-38.21l1.11-0.65c0.27,19.25,6.46,37.65,12.03,55.87   c1.0099,2.87,1.12,5.91,1.18,8.92c0.82,0.81,1.82,1.29,3,1.43c0.6-4.22-1.13-8.25-2.28-12.22c-6.7-20.64-12.65-42.25-10.55-64.17   c2.07,2.63,3.63,5.61,5.38,8.45c20.16,32.51,44.41,62.45,71.86,89.07c46.38,45.11,101.32,80.7,159.47,108.68   c1.83,1.07,4.31,1.42,5.69,3.07c-12.72,27.92-35.63,49.97-60.83,66.82c-37.42,24.64-80.87,39.09-124.96,45.91   c-49.07,7.79-99.58,6.04-148.1-4.63c-37.33-8.6-73.79-22.75-105.29-44.83c-23.13-16.32-43.7-37.35-55.73-63.25   c0.28-0.26,0.84-0.78,1.12-1.04c72.02-33.93,139.48-79.75,191.93-140.13C531.48,165.65,548.11,142.65,562.41,118.28 M618.37,195.24   c0.07,3.52,0.3,7.06,0.98,10.52c3.26,0.84,6.64,1.09,9.9,1.97c4.85,1.19,9.23,3.68,13.92,5.33   C637.06,204.76,628.3,198.17,618.37,195.24 M494.74,217.29c4.61-1.48,8.9-3.92,13.65-5c3.09-0.79,6.29-1,9.4-1.7   c0.7401-3.43,1.03-6.95,0.9901-10.46C509.22,203.02,500.56,209.16,494.74,217.29 M496.61,233.56c-7.22,3.57-10.69,12.77-7.38,20.18   c-0.01,0.48-0.04,1.46-0.06,1.95c2,5.51,7.94,7.76,13.15,9.22c-1.74,1.38-6.09,0.14-6.08,2.77c-18.13,2.63-36.25,5.48-54.19,9.25   c-2.12,0.48-4.43,0.73-6.17,2.16c0.09,1.11,0.59,1.96,1.51,2.57c4.29-0.51,8.47-1.68,12.71-2.47   c67.97-13.62,138.03-17.5,206.99-9.84c2.74,1.07,4-3.05,1.22-3.55c-10.39-1.13-20.82-2.4-31.27-2.35   c6.61-1.7,13.21-6.26,14.3-13.46c1.98-9.26-6.27-18.04-15.32-18.48c-9.66-1.11-19.79,7.44-18.38,17.51   c0.52,6.59,5.92,11.05,11.44,13.78c-28.84-1.8-57.81-0.96-86.62,1.05c-6.31-2.62-12.95,0.16-19.44,0c2.74-2.53,6.11-4.53,8.02-7.83   c2.2-3.85,3.09-8.63,1.68-12.9l-0.99,0.24C518.61,233.27,505.74,228.3,496.61,233.56 M525.04,273.7   c-21.76,1.68-43.39,4.83-64.89,8.51c-2.5,0.12-1.8,4.53,0.7,3.57c17.32-2.96,34.73-5.36,52.21-7.15   c40.83-4.43,81.98-3.21,122.96-2.34c3.52-0.14,7.28,0.98,10.64-0.44c0.14-1.08-0.14-2.01-0.86-2.8   C605.59,271.67,565.23,270.75,525.04,273.7 M564.38,285.38c-8.33,3.1-17.36,3.76-26.16,2.95c-1.6299,0.08-3.84-0.73-4.8199,1.03   c-0.45,1.62,1.08,2.73,2.59,2.59c12.65,1.14,25.88-0.24,37.3-6.05c-0.1-0.69-0.29-2.05-0.39-2.74   C569.88,282.91,567.19,284.57,564.38,285.38 M679.43,284.83c-0.87,4.77-0.09,10.2-2.06,14.58   c-50.32,22.25-104.25,35.37-158.6,43.11c-8.29,0.62-16.52,2.02-24.82,2.71c-14.2,1.62-28.48,2.42-42.72,3.61   c0.83,1.77,2.06,3.45,4,4.09c6,2.36,12.44-0.09,18.62,0.39c1.14,0.18,2.58,0.49,3.06,1.71c2.19,4.52,3.89,9.27,6.26,13.71   c7.81,15.37,19.76,29.31,35.75,36.43c18.72,8.8,40.06,8.62,60.23,6.85c9.42-0.75,18.83-2.55,27.5099-6.4   c15.58-6.45,28.38-18.58,37.02-32.94c8.77-14.71,14.06-31.59,14.65-48.74c0.3-3.13-0.17-6.28,0.1-9.4   c6.06-2.38,12.19-4.6,18.3-6.86c3.84-1.55,8.06-1.08,12.11-1.39c-0.02-2.43-1.54-4.49-2.42-6.65   C683.94,294.77,682.19,289.55,679.43,284.83z"/>
	<path fill="#989933" stroke="#989933" stroke-width="0.0938" d="M576.84,118.12c26.16,0.15,52.2,3.82,77.74,9.33   c37.47,8.7,74.09,22.98,105.58,45.37c26.58,18.85,49.78,44.42,60.08,75.84c1.82,6.82,4.1,13.75,4.19,20.86   c-1.01,7.96-0.76,16.05,0.07,24.02c0.19,4.38-1.11,8.64-1.99,12.89c-1.54,5.93-2.96,11.99-5.73,17.48   c-2.48,0.43-4.78-1.79-7.09-2.63c-67.74-32.74-131.27-76.03-181.45-132.52c-13.6-15.26-26.15-31.45-37.64-48.35   C585.92,133.05,580.71,125.95,576.84,118.12z"/>
	<path fill="#FFFC5F" stroke="#FFFC5F" stroke-width="0.0938" d="M91.76,157.93c8.31-1.61,16.94-2.29,25.38-1.38   c1.46,0.48,3.01,0.65,4.55,0.57c9.1,0.22,18,2.82,26.58,5.68c11.41,4.46,22.54,10.12,32,17.96c-6.42-2.61-11.52-7.49-17.82-10.34   c-11.54-6.16-24.09-10.65-37.14-12.01c-6.36-0.61-12.7-2.36-19.11-1.35C101.42,157.77,96.6,158.28,91.76,157.93z"/>
	<path fill="#7E6904" stroke="#7E6904" stroke-width="0.0938" d="M117.14,156.55c0.95-1.36,4.57-1.44,4.55,0.57   C120.15,157.2,118.6,157.03,117.14,156.55z"/>
	<path fill="#FECC01" stroke="#FECC01" stroke-width="0.0938" d="M91.76,157.93c4.84,0.35,9.66-0.16,14.44-0.87   c6.41-1.01,12.75,0.74,19.11,1.35c13.05,1.36,25.6,5.85,37.14,12.01c6.3,2.85,11.4,7.73,17.82,10.34c2.26,1.2,4.47,2.7,6.06,4.73   c0.46,10.17,1.26,20.34,1.42,30.52c-35.25-28.53-84.73-36.47-127.96-24.25c-6.46,1.55-12.44,4.56-18.88,6.15   c0.6-6.87,0.34-13.82,1.19-20.65c1.65-2.94,5.09-4.49,7.7-6.56C63,164.42,77.2,159.64,91.76,157.93z"/>
	<path fill="#FFFD60" stroke="#FFFD60" stroke-width="0.0938" d="M40.93,174.91c2.75-1.79,5.83-3.02,8.87-4.21   c-2.61,2.07-6.05,3.62-7.7,6.56c-0.85,6.83-0.59,13.78-1.19,20.65c6.44-1.59,12.42-4.6,18.88-6.15   c43.23-12.22,92.71-4.28,127.96,24.25c1.71,1.17,3.41,3.39,1.02,4.95c-2.16-1.43-4.49-2.58-6.53-4.18   c-19.43-15.22-43.66-23.2-67.98-25.92c-25.23-2.36-51.11,1.78-74.16,12.38c-0.54-0.32-1.62-0.97-2.16-1.29   c0.3-2.15,2.53-3.6,2.29-5.91C40.5,189,40.38,181.94,40.93,174.91z"/>
	<path fill="#989933" stroke="#989933" stroke-width="0.0938" d="M911.92,177.14c22.17-2.3,44.98-0.61,66.09,6.81   c22.27,7.47,42.43,20.5,59.5599,36.46c3.52,3.05,3.4401,9.05-0.0499,12.09c-3.28,3.36-8.37,3.59-12.7001,2.66   c-18.3699-3.75-35.2899-12.45-53.6099-16.38c-5.12-1.03-10.57-1.78-15.64-0.18c-4.45,1.43-7.51,6.56-6.46,11.1   c2.28,2.88,5.62,4.62,8.7,6.52c22.71,12.57,46.35,23.55,67.97,38.03c12.33,8.3,24.46,17.55,33.1799,29.77   c5.67,7.89,8.89,18.22,6,27.81c-0.6899,1.64-0.76,4.41-2.99,4.67c-3.2999-0.63-5.75-3.17-8.27-5.19   c-9.1699-8.19-18.2899-16.47-28.1799-23.79c-27.78-20.97-61.56-34.47-96.45-36.32c-1.45-0.3-3.5,0.79-2.66,2.48   c1.69,4.53,5.27,7.98,8.28,11.66c12.09,13.56,24.94,26.47,36.17,40.78c8.23,10.66,16.28,21.95,20.04,35.05   c1.98,7.15,1.92,15.73-3.08,21.67c-2.25,2.71-6.28,2.18-8.88,0.32c-6.14-4.11-10.73-10.03-15.32-15.72   c-15.91-20.67-30.26-42.73-48.84-61.19c-9.1201-8.93-19.42-17.17-31.64-21.37c-4.8-1.5-9.97-2.68-14.97-1.6   c-0.61,3.45,2.01,6.17,3.75,8.83c4.44,6.1,9.61,12.84,8.9,20.84c0.05,2.59-2.25,4.68-4.8,4.57c-6.38,0.01-11.75-4.19-16.11-8.42   c-9.04-9.21-14.89-20.94-23.39-30.6c-1.85-2.2-4.41-4.28-4.3-7.45c-1.6899-19.17-9.17-37.52-19.93-53.36   c-0.77-1.18-1.53-2.37-2.14-3.62c15.98-9.73,33.0099-17.72,50.48-24.41C877.21,183.68,894.34,178.88,911.92,177.14z"/>
	<path fill="#989933" stroke="#989933" stroke-width="0.0938" d="M199.16,187.83c17.97-0.62,35.75,3.73,52.76,9.2   c22.61,7.89,44.04,19.06,63.96,32.28c0.26,1.78-1.06,3.37-1.61,5c-6.13,12.8-8.4,26.92-11.18,40.7c-2.2,5.85-1.18,12.13-1,18.2   c-0.58,1.29-1.51,2.37-2.37,3.47c-10.19,12.08-17.24,26.45-27.59,38.4c-4.15,4.7-9.1,9.14-15.27,10.87   c-2.17,0.53-5.03,0.67-6.48-1.38c-1.8-2.69-1.35-6.17-0.87-9.19c1.68-7.2,5.46-13.95,10.9-18.97c2.68-2.78,6.16-4.98,7.78-8.61   c-8.66-1.04-17,2.74-24.26,7.07c-15.39,9.44-26.98,23.58-38.59,37.11c-0.49-22.86-1.92-45.75-2.13-68.58   c1.49-5.36,1.15-10.98,0.18-16.39c-0.11,4.04-0.68,8.07-0.54,12.12c-0.69-9.73-0.75-19.48-1.25-29.22   c-0.15-4.5-0.74-9.01-0.22-13.5c1.1-5.5,1.04-11.07,0.19-16.61c-0.26,2.44-0.6,4.87-0.74,7.32   C199.97,214.07,199.71,200.92,199.16,187.83z"/>
	<path fill="#F89E27" stroke="#F89E27" stroke-width="0.0938" d="M40.1,203.24c23.05-10.6,48.93-14.74,74.16-12.38   c24.32,2.72,48.55,10.7,67.98,25.92c2.04,1.6,4.37,2.75,6.53,4.18c1.14,1.25,1.28,3.09-0.01,4.32c-0.28,0.44-0.83,1.32-1.1,1.76   c-3.52-5.1-9.08-8.13-14.1-11.53c-25.13-16.29-56.02-22.48-85.66-19.92c-16.3,1.05-32.62,5.02-47.2,12.48   c-0.37-0.23-1.1-0.69-1.47-0.92C37.04,206.21,38.5,203.85,40.1,203.24z"/>
	<path fill="#FECC02" stroke="#FECC02" stroke-width="0.0938" d="M87.9,195.59c29.64-2.56,60.53,3.63,85.66,19.92   c5.02,3.4,10.58,6.43,14.1,11.53c-0.02,4.71,0.29,9.42,0.11,14.13c-3.34-2.26-6.33-4.95-9.46-7.46   c-14.95-10.8-32.48-17.52-50.38-21.58c-23.28-4.95-48.74-5.33-70.63,5.12c-6.22,2.71-11.2,7.38-16.9,10.93   c0-6.7,0.39-13.4,0.3-20.11C55.28,200.61,71.6,196.64,87.9,195.59z"/>
	<path fill="#999633" stroke="#999633" stroke-width="0.0938" d="M618.37,195.24c9.93,2.93,18.69,9.52,24.8,17.82   c-4.69-1.65-9.07-4.14-13.92-5.33c-3.26-0.88-6.64-1.13-9.9-1.97C618.67,202.3,618.44,198.76,618.37,195.24z"/>
	<path fill="#999733" stroke="#999733" stroke-width="0.0938" d="M494.74,217.29c5.82-8.13,14.48-14.27,24.04-17.16   c0.04,3.51-0.25,7.03-0.9901,10.46c-3.11,0.7-6.31,0.91-9.4,1.7C503.64,213.37,499.35,215.81,494.74,217.29z"/>
	<path fill="#FFFC5F" stroke="#FFFC5F" stroke-width="0.0938" d="M39.23,207.15c0.37,0.23,1.1,0.69,1.47,0.92   c0.09,6.71-0.3,13.41-0.3,20.11c5.7-3.55,10.68-8.22,16.9-10.93c21.89-10.45,47.35-10.07,70.63-5.12   c17.9,4.06,35.43,10.78,50.38,21.58c3.13,2.51,6.12,5.2,9.46,7.46c0.18-4.71-0.13-9.42-0.11-14.13c0.27-0.44,0.82-1.32,1.1-1.76   c-0.56,5.24,0.1,10.52,0.32,15.76c-0.13,2.32,1.56,4.07,2.42,6.07c-0.38,0.52-1.14,1.55-1.52,2.06   c-13.32-14.72-31.65-23.99-50.4-29.78c-23-6.98-48.21-9.48-71.46-2.23c-11.34,3.52-21.25,10.38-29.86,18.42   c-3.37-1.43,0.56-4.26,0.47-6.65C39.42,221.71,39.72,214.39,39.23,207.15z"/>
	<path fill="#F89D28" stroke="#F89D28" stroke-width="0.0938" d="M68.12,217.16c23.25-7.25,48.46-4.75,71.46,2.23   c18.75,5.79,37.08,15.06,50.4,29.78c0.84,0.83,1.34,1.81,1.52,2.95c-0.41,0.28-1.24,0.84-1.66,1.13l-0.82,0.27   c-4.43-4.42-8.58-9.22-13.86-12.66c-23.55-16.03-52.34-23.88-80.73-23.39c-19.35,0.44-39.42,6.61-53.2,20.74   c-2.99,2.57-2.28,6.77-2.67,10.27l-0.23,1.08c-0.2-2.5-0.07-5-0.32-7.49c-0.4-2.16-1.87-4.74,0.25-6.49   C46.87,227.54,56.78,220.68,68.12,217.16z"/>
	<path fill="#FECC01" stroke="#FECC01" stroke-width="0.0938" d="M94.43,217.47c28.39-0.49,57.18,7.36,80.73,23.39   c5.28,3.44,9.43,8.24,13.86,12.66c0.21,10.62,1.14,21.24,1,31.86c-3.07-3.09-5.77-6.59-9.3-9.18c-4.05-3.25-7.56-7.14-11.83-10.14   c-22.78-16.8-51.86-23.61-79.87-22.16c-17.02,0.95-34.52,5.12-48.2,15.78c-2.59-3.15-1.83-7.43-2.26-11.2   c0.39-3.5-0.32-7.7,2.67-10.27C55.01,224.08,75.08,217.91,94.43,217.47z"/>
	<path fill="#A7A75F" stroke="#A7A75F" stroke-width="0.0938" d="M201.57,219.8c0.85,5.54,0.91,11.11-0.19,16.61   c-0.31-3.08-0.67-6.19-0.55-9.29C200.97,224.67,201.31,222.24,201.57,219.8z"/>
	<path fill="#020102" stroke="#020102" stroke-width="0.0938" d="M496.61,233.56c9.13-5.26,22-0.29,25.12,9.8   c0.76,4.63,0.16,9.68-2.99,13.36c-5.64,7.28-17.13,8.62-24.36,2.96c-2.15-1.56-3.72-3.74-5.15-5.94   C485.92,246.33,489.39,237.13,496.61,233.56 M498.3,235.3c-5.38,1.26-8.27,8.5-4.36,12.75c4.16,5.5,14.41,3.74,15.8-3.25   C511.33,238.48,504.09,233.22,498.3,235.3z"/>
	<path fill="#050202" stroke="#050202" stroke-width="0.0938" d="M607.64,249.02c-1.41-10.07,8.72-18.62,18.38-17.51   c9.05,0.44,17.3,9.22,15.32,18.48c-1.09,7.2-7.69,11.76-14.3,13.46c10.45-0.05,20.88,1.22,31.27,2.35c2.78,0.5,1.52,4.62-1.22,3.55   c-68.96-7.66-139.02-3.78-206.99,9.84c-4.24,0.79-8.42,1.96-12.71,2.47c-0.92-0.61-1.42-1.46-1.51-2.57   c1.74-1.43,4.05-1.68,6.17-2.16c17.94-3.77,36.06-6.62,54.19-9.25c12.03-1.65,24.12-2.79,36.22-3.83   c28.81-2.01,57.78-2.85,86.62-1.05C613.56,260.07,608.16,255.61,607.64,249.02 M617.36,235.47c-4.96,1.54-7.46,8.13-4.08,12.3   c4.02,5.77,14.39,4.17,16.06-2.82C631.11,238.35,623.23,232.92,617.36,235.47z"/>
	<path fill="#FEFEFE" stroke="#FEFEFE" stroke-width="0.0938" d="M498.3,235.3c5.79-2.08,13.03,3.18,11.44,9.5   c-1.39,6.99-11.64,8.75-15.8,3.25C490.03,243.8,492.92,236.56,498.3,235.3z"/>
	<path fill="#FEFEFD" stroke="#FEFEFD" stroke-width="0.0938" d="M617.36,235.47c5.87-2.55,13.75,2.88,11.98,9.48   c-1.67,6.99-12.04,8.59-16.06,2.82C609.9,243.6,612.4,237.01,617.36,235.47z"/>
	<path fill="#F6D4A8" stroke="#F6D4A8" stroke-width="0.0938" d="M521.73,243.36l0.99-0.24c1.41,4.27,0.52,9.05-1.68,12.9   c-1.91,3.3-5.28,5.3-8.02,7.83c6.49,0.16,13.13-2.62,19.44,0c-12.1,1.04-24.19,2.18-36.22,3.83c-0.01-2.63,4.34-1.39,6.08-2.77   c-5.21-1.46-11.15-3.71-13.15-9.22c0.02-0.49,0.05-1.47,0.06-1.95c1.43,2.2,3,4.38,5.15,5.94c7.23,5.66,18.72,4.32,24.36-2.96   C521.89,253.04,522.49,247.99,521.73,243.36z"/>
	<path fill="#F3DD47" stroke="#F3DD47" stroke-width="0.0938" d="M38.33,249.56l0.23-1.08c0.43,3.77-0.33,8.05,2.26,11.2   c-0.97,1.02-2.05,1.94-3.13,2.86C37.92,258.24,37.18,253.73,38.33,249.56z"/>
	<path fill="#990100" stroke="#990100" stroke-width="0.0938" d="M59.52,257.35c8.28-2.58,16.75-4.92,25.45-5.31   c24.82-1.94,50.45,2.55,72.4,14.53c13.45,7.22,25.12,17.83,33.21,30.81c2.11,3.48,1.05,7.77,1.29,11.62   c1.23,25.32,0.45,50.68,0.98,76.01c0.89,14.31,0.42,28.66,0.63,43c-0.11,5.31,0.44,10.67-0.25,15.96   c-3.66,2.14-7.98,2.68-11.81,4.42c-11.21,4.7-21.11,14.19-23.73,26.38c-2.24,8.39-0.31,17.35,3.57,24.95   c5.59,10.47,15.25,18.31,26.09,22.87c2.07,0.89,4.23,1.6,6.16,2.81c0.39,9.52-0.04,19.0699,0.1,28.61   c0.04,3.75,1.71,7.23,1.97,10.95c0.29,18.71-0.31,37.46,0.84,56.16c0.4,24.62-0.33,49.27,0.91,73.87   c0.1,18.58,0.04,37.16,0.27,55.74c0.89,12.72,0.26,25.49,0.9,38.23c-0.06,11.21,0.42,22.45-0.09,33.66   c-1.32,11.08-0.23,22.25-0.57,33.38c-0.23,2.76,0.65,5.46,0.47,8.23c0.28-3.15,0.78-6.27,0.89-9.42c0.09,2.05,0.58,4.07,0.43,6.16   c-0.39,34.91,1.1,69.8,0.7,104.71c-0.93,18.68,0.64,37.41-0.25,56.09c-1.1-0.47-2.19-0.97-3.24-1.5   c-3.42-5.14-6.98-10.47-12.48-13.6c-8.33-5.52-19.39-5.73-28.35-1.64c-9.82,4.05-17.46,11.91-23.66,20.33   c-3.59,4.78-5.91,10.36-9.46,15.17c-1.95-9.6901-4.02-19.6-9.28-28.13c-5.24-9-13.62-16.71-23.97-19.09   c-7.67-2.02-16.11,0.17-22.2,5.15c-5.29,4.3-8.94,10.38-10.96,16.84c-0.95,2.92-1.38,6.09-3.12,8.68   c-1.58-5.46-2.43-11.2-5.15-16.27c-1.42-3.13-4.07-5.4-6.1-8.11c-0.53-7.88-0.28-15.8-0.08-23.69c-0.28-2.12,1.49-3.29,2.58-4.77   c1.51-1.67,1.22-4.05,1.39-6.11c0.11-9.6801,0.74-19.34,0.57-29.02c0.16-10.83-0.27-21.68,0.76-32.48   c0.63-15.83-0.02-31.6801,0.59-47.51c0.59-17.01,0.64-34.01,0.84-51.02c1.3-20.99-0.04-42.05,1.33-63.03   c0.87-15.65,0.2-31.33,0.7-46.98c1.54-17.95,0.26-36,1.2-53.98c0.24-14,0.75-28,0.61-42.01c1.58-17.61,0.7-35.32,1.1-52.98   c0.56-22.01,1-44.01,1.03-66.03c1.74-20.29,0.22-40.69,1.4-61c0.51-14.64-0.02-29.3,0.4-43.94c1.71-18.66,0.25-37.43,1.24-56.12   c0.43-7.64,0.42-15.29,0.64-22.93c-0.04-2.65,0.14-5.43-0.91-7.93c-1.05-2.22-2.5-4.41-2.27-6.99c0.18-7.3,0.41-14.6,0.78-21.9   C56.71,257.95,58.35,257.91,59.52,257.35 M142.68,294.67c-0.77,9.74,0.03,19.56-0.66,29.32c-1.25,16.02,0.21,32.14-1.44,48.13   c-0.46,14.62,0.2,29.27-0.69,43.87c-0.29,13-0.46,25.99-0.68,38.99c-1.28,12.96-0.53,25.99-0.98,38.99   c-0.9,21.34-0.57,42.71-1.59,64.04c0.26,24.34-1.67,48.64-1.27,72.98c-1.17,11.97-0.99,23.99-1,36   c0.04,12.68-1.11,25.33-0.93,38.01c-0.06,8.43,0.12,16.88-0.82,25.27c-0.48,13.56,0.04,27.15-0.55,40.71   c-0.92,16.66-0.2,33.37-1.35,50.02c-0.29,13,0.28,26.02-0.8,38.99c-0.1,7.34-0.38,14.67-0.51,22c0.23,16.69-1.15,33.35-0.83,50.04   c-0.92,19.97-1.23,39.97-1.29,59.96c0.18,4.8-1.69,9.9,0.29,14.48c0.91,0.3,1.82,0.26,2.73-0.11c1.5-26.4,1.21-52.88,2.22-79.31   c0.23-11.06-0.3-22.15,0.89-33.16c0.42-13.62-0.02-27.26,0.57-40.88c0.8-11.65,0.53-23.34,0.64-35.01c0.04-6.34,0.81-12.66,0.73-19   c0.21-12.9-0.38-25.84,0.97-38.69c0.6-16.09-0.34-32.22,1.19-48.26c-0.04-18.01,0.33-36.01,0.85-54.01   c0.48-9.34-0.13-18.72,0.76-28.04c0.47-10.96,0.07-21.94,0.4-32.9c1.49-21.67,0.58-43.42,1.79-65.11   c0.14-15.37,0.28-30.75,1.14-46.09c0.28-10.64-0.04-21.28,0.3-31.91c1.62-14.94,0.38-29.99,1.13-44.98   c0.83-14.77,0.13-29.58,0.76-44.36c1.19-11.82,0.48-23.7,0.87-35.55c0.19-11.66,1.59-23.4,0.29-35.01   C144.76,294.23,143.72,294.42,142.68,294.67z"/>
	<path fill="#FFFC5F" stroke="#FFFC5F" stroke-width="0.0938" d="M189.02,253.52l0.82-0.27c0.53,12.67,1.33,25.34,2.04,38   c-3.51-5.18-7.18-10.22-11.16-15.05c3.53,2.59,6.23,6.09,9.3,9.18C190.16,274.76,189.23,264.14,189.02,253.52z"/>
	<path fill="#600101" stroke="#600101" stroke-width="0.0938" d="M38.63,269.6c4.54-5.12,10.82-8.61,17.38-10.42   c-0.37,7.3-0.6,14.6-0.78,21.9c-0.23,2.58,1.22,4.77,2.27,6.99c-0.53,0.11-1.61,0.32-2.14,0.43c-1.31,8.77-0.3,17.71-0.73,26.55   c-0.77,15.64-0.73,31.3-0.84,46.95c0.23,9.35-0.94,18.65-0.87,28c-0.08,9.01-0.22,18.03-0.25,27.05   c-1.28,23.95-0.41,47.97-1.47,71.93c-0.67,14.98-0.14,30-1,44.97c-0.58,19.67-0.03,39.37-1.09,59.02   C49,615.32,48.04,637.65,47.92,660c-0.04,17.34-0.54,34.67-1.07,52c0.03,20.01-1,39.99-1,60c-0.27,8.32,0.07,16.65-0.28,24.97   c-1.05,15.66-0.73,31.3701-0.96,47.0601C43.68,863,43.95,882.01,43.68,901c0.19,9.34-1.01,18.65-0.9,27.99   c0.04,13.54-0.84,27.12-0.5,40.64c0.77,0.51,1.54,1.01,2.33,1.51c-1.09,1.48-2.86,2.65-2.58,4.77c-0.2,7.89-0.45,15.81,0.08,23.69   c-3.32-0.99-6.67-1.89-9.93-3.04c-1.29-4.06-0.33-8.4-0.44-12.56c0.21-20-0.06-40.01,0.37-60c0.01-15.68-0.15-31.36,0.14-47.03   c0.81-16.64,0.11-33.31,0.5-49.97c0.63-17.67,0.13-35.34,0.41-53.02c0.96-18.97,0.22-37.98,0.56-56.97   c0.47-23.67,0-47.34,0.48-71.01c0.43-17.32-0.41-34.66,0.57-51.97c0.32-14.6801,0.03-29.36,0.17-44.03   c0.5-17.01,0.35-34.01,0.34-51.02c1.11-26.32,0.23-52.66,0.84-78.98c0.13-18-0.17-36,0.61-53.99c-0.38-29.68,0.8-59.35,0.38-89.03   C37.26,274.5,36.7,271.56,38.63,269.6z"/>
	<path fill="#AAAD5C" stroke="#AAAD5C" stroke-width="0.0938" d="M203.39,267.01c0.97,5.41,1.31,11.03-0.18,16.39   c-0.21-1.42-0.33-2.84-0.36-4.27C202.71,275.08,203.28,271.05,203.39,267.01z"/>
	<path fill="#A3A45B" stroke="#A3A45B" stroke-width="0.0938" d="M824.5,293.54c-0.83-7.97-1.08-16.06-0.07-24.02   C825.86,277.42,825.83,285.63,824.5,293.54z"/>
	<path fill="#080100" stroke="#080100" stroke-width="0.0938" d="M525.04,273.7c40.19-2.95,80.55-2.03,120.76-0.65   c0.72,0.79,1,1.72,0.86,2.8c-3.36,1.42-7.12,0.3-10.64,0.44c-40.98-0.87-82.13-2.09-122.96,2.34c-17.48,1.79-34.89,4.19-52.21,7.15   c-2.5,0.96-3.2-3.45-0.7-3.57C481.65,278.53,503.28,275.38,525.04,273.7z"/>
	<path fill="#AAAD58" stroke="#AAAD58" stroke-width="0.0938" d="M310.06,272.66c1.22,5.87,1.37,11.89-0.08,17.73   C309.13,284.54,309.03,278.49,310.06,272.66z"/>
	<path fill="#A6A564" stroke="#A6A564" stroke-width="0.0938" d="M302.09,293.21c-0.18-6.07-1.2-12.35,1-18.2   c-0.12,5.79-0.04,11.59,0.2,17.38C302.99,292.59,302.39,293.01,302.09,293.21z"/>
	<path fill="#090200" stroke="#090200" stroke-width="0.0938" d="M564.38,285.38c2.81-0.81,5.5-2.47,8.52-2.22   c0.1,0.69,0.29,2.05,0.39,2.74c-11.42,5.81-24.65,7.19-37.3,6.05c-1.51,0.14-3.04-0.97-2.59-2.59c0.98-1.76,3.19-0.95,4.8199-1.03   C547.02,289.14,556.05,288.48,564.38,285.38z"/>
	<path fill="#040202" stroke="#040202" stroke-width="0.0938" d="M679.43,284.83c2.76,4.72,4.51,9.94,6.99,14.81   c0.88,2.16,2.4,4.22,2.42,6.65c-4.05,0.31-8.27-0.16-12.11,1.39c-6.11,2.26-12.24,4.48-18.3,6.86c-0.27,3.12,0.2,6.27-0.1,9.4   c-1.43-0.34-2.86-0.68-4.28-1.02c-0.44-2.63-0.87-5.26-1.52-7.83c-11.63,2.44-22.9301,6.34-34.4901,9.11   c-31.97,8.09-64.15,15.53-96.75,20.59c-0.84-0.76-1.68-1.52-2.52-2.27c54.35-7.74,108.28-20.86,158.6-43.11   C679.34,295.03,678.56,289.6,679.43,284.83z"/>
	<path fill="#130000" stroke="#130000" stroke-width="0.0938" d="M55.36,288.5c0.53-0.11,1.61-0.32,2.14-0.43   c1.05,2.5,0.87,5.28,0.91,7.93c-0.22,7.64-0.21,15.29-0.64,22.93c-0.99,18.69,0.47,37.46-1.24,56.12   c-0.42,14.64,0.11,29.3-0.4,43.94c-1.18,20.31,0.34,40.71-1.4,61c-0.03,22.02-0.47,44.02-1.03,66.03   c-0.4,17.66,0.48,35.37-1.1,52.98c0.14,14.01-0.37,28.01-0.61,42.01c-0.94,17.98,0.34,36.03-1.2,53.98   c-0.5,15.65,0.17,31.33-0.7,46.98c-1.37,20.98-0.03,42.04-1.33,63.03c-0.2,17.01-0.25,34.01-0.84,51.02   c-0.61,15.83,0.04,31.68-0.59,47.51c-1.03,10.8-0.6,21.65-0.76,32.48c0.17,9.68-0.46,19.34-0.57,29.02   c-0.17,2.06,0.12,4.4399-1.39,6.11c-0.79-0.5-1.56-1-2.33-1.51c-0.34-13.52,0.54-27.1,0.5-40.64c-0.11-9.34,1.09-18.65,0.9-27.99   c0.27-18.99,0-38,0.93-56.97c0.23-15.69-0.09-31.4,0.96-47.0601c0.35-8.3199,0.01-16.65,0.28-24.97c0-20.01,1.03-39.99,1-60   c0.53-17.33,1.03-34.66,1.07-52c0.12-22.35,1.08-44.68,1.19-67.03c1.06-19.65,0.51-39.35,1.09-59.02c0.86-14.97,0.33-29.99,1-44.97   c1.06-23.96,0.19-47.98,1.47-71.93c0.03-9.02,0.17-18.04,0.25-27.05c-0.07-9.35,1.1-18.65,0.87-28   c0.11-15.65,0.07-31.31,0.84-46.95C55.06,306.21,54.05,297.27,55.36,288.5z"/>
	<path fill="#130000" stroke="#130000" stroke-width="0.0938" d="M142.68,294.67c1.04-0.25,2.08-0.44,3.13-0.58   c1.3,11.61-0.1,23.35-0.29,35.01c-0.39,11.85,0.32,23.73-0.87,35.55c-0.63,14.78,0.07,29.59-0.76,44.36   c-0.75,14.99,0.49,30.04-1.13,44.98c-0.34,10.63-0.02,21.27-0.3,31.91c-0.86,15.34-1,30.72-1.14,46.09   c-1.21,21.69-0.3,43.44-1.79,65.11c-0.33,10.96,0.07,21.94-0.4,32.9c-0.89,9.32-0.28,18.7-0.76,28.04c-0.52,18-0.89,36-0.85,54.01   c-1.53,16.04-0.59,32.17-1.19,48.26c-1.35,12.85-0.76,25.79-0.97,38.69c0.08,6.34-0.69,12.66-0.73,19   c-0.11,11.67,0.16,23.36-0.64,35.01c-0.59,13.62-0.15,27.26-0.57,40.88c-1.19,11.01-0.66,22.1-0.89,33.16   c-1.01,26.43-0.72,52.91-2.22,79.31c-0.91,0.37-1.82,0.41-2.73,0.11c-1.98-4.58-0.11-9.68-0.29-14.48   c0.06-19.99,0.37-39.99,1.29-59.96c-0.32-16.69,1.06-33.35,0.83-50.04c0.13-7.33,0.41-14.66,0.51-22   c1.08-12.97,0.51-25.99,0.8-38.99c1.15-16.65,0.43-33.36,1.35-50.02c0.59-13.56,0.07-27.15,0.55-40.71   c0.94-8.39,0.76-16.84,0.82-25.27c-0.18-12.68,0.97-25.33,0.93-38.01c0.01-12.01-0.17-24.03,1-36c-0.4-24.34,1.53-48.64,1.27-72.98   c1.02-21.33,0.69-42.7,1.59-64.04c0.45-13-0.3-26.03,0.98-38.99c0.22-13,0.39-25.99,0.68-38.99c0.89-14.6,0.23-29.25,0.69-43.87   c1.65-15.99,0.19-32.11,1.44-48.13C142.71,314.23,141.91,304.41,142.68,294.67z"/>
	<path fill="#FFFFFF" stroke="#FFFFFF" stroke-width="0.0938" d="M618.04,324.2c11.56-2.77,22.86-6.67,34.4901-9.11   c0.65,2.57,1.08,5.2,1.52,7.83c0.79,9.37-3.17,18.73-10.16,24.95c-11.66,10.52-27.15,15.15-42.04,18.97   c-8.92,2.44-18.35,2.63-27.0099,5.99c-16.1,5.37-33.75,7.59-50.41,3.52c-15.68-3.98-29.26-14.03-39.49-26.34   c12.14-1.52,24.28-3.17,36.35-5.22C553.89,339.73,586.07,332.29,618.04,324.2 M580.19,335.27c-0.69,1.51-0.02,3.22,0.02,4.81   c1.3,8.98,1.58,18.1,3.39,27.01c-0.05-10.89-0.1-21.79-0.08-32.68C582.39,334.62,581.27,334.9,580.19,335.27z"/>
	<path stroke="#000000" stroke-width="0.0938" d="M654.05,322.92c1.42,0.34,2.85,0.68,4.28,1.02c-0.59,17.15-5.88,34.03-14.65,48.74   c-8.64,14.36-21.44,26.49-37.02,32.94c-8.68,3.85-18.09,5.65-27.5099,6.4c-20.17,1.77-41.51,1.95-60.23-6.85   c-15.99-7.12-27.94-21.06-35.75-36.43c-2.37-4.44-4.07-9.19-6.26-13.71c-0.48-1.22-1.92-1.53-3.06-1.71   c-6.18-0.48-12.62,1.97-18.62-0.39c-1.94-0.64-3.17-2.32-4-4.09c14.24-1.19,28.52-1.99,42.72-3.61c8.3-0.69,16.53-2.09,24.82-2.71   c0.84,0.75,1.68,1.51,2.52,2.27c-12.07,2.05-24.21,3.7-36.35,5.22c10.23,12.31,23.81,22.36,39.49,26.34   c16.66,4.07,34.31,1.85,50.41-3.52c8.66-3.36,18.09-3.55,27.0099-5.99c14.89-3.82,30.38-8.45,42.04-18.97   C650.88,341.65,654.84,332.29,654.05,322.92z"/>
	<path fill="#010101" stroke="#010101" stroke-width="0.0938" d="M580.19,335.27c1.08-0.37,2.2-0.65,3.33-0.86   c-0.02,10.89,0.03,21.79,0.08,32.68c-1.81-8.91-2.09-18.03-3.39-27.01C580.17,338.49,579.5,336.78,580.19,335.27z"/>
	<path fill="#FFCB99" stroke="#FFCB99" stroke-width="0.0938" d="M886.73,447.86c13.26-4.06,27.43-2.63,40.86-0.17   c7.17,1.43,15.1299,3.95,19.19,10.53c3.4,5.66,0.8,12.73-3.35,17.23c-7.99,8.75-20.17,12.11-31.67,12.56   c-0.26,14.97,0,29.97-0.07,44.95c0.27,1.85-1.11,3.22-2.1,4.6c-19.08,24.22-41.94,45.89-68.94,61.06   c-31.91,18.21-70.55,25.78-106.61,17.5c-0.77-1.28-1.44-2.62-2-3.99c4.84,1.3,9.82,3.09,14.91,1.95   c8.64-1.41,14.82-9.38,16.22-17.69c1.18-4.71,0.28-9.52-0.7-14.16c5.77-0.97,9.63-5.4,13.7401-9.08   c10.58-2.01,21.36-4.02,31.08-8.91c16.53-7.69,30.32-20.05,42.66-33.25c5.26-5.88,10.87-11.55,15.38-18.03   c-2.57-14.37-4.65-29.57-0.12-43.77C868.32,459.09,876.64,450.93,886.73,447.86z"/>
	<path fill="#FECB99" stroke="#FECB99" stroke-width="0.0938" d="M542.67,454.05c17.32,4.39,35.4,5.69,53.15,3.52   c0.03,7.57,0.29,15.14,0.5,22.7c-0.38,1.24-1.83,1.56-2.76,2.27c-9.83,5.41-21.55,6.5-32.53,5.12   c-5.61-0.95-11.6801-2.59-15.53-7.07C544.19,471.8,543.61,462.89,542.67,454.05z"/>
	<path fill="#FFE8C6" stroke="#FFE8C6" stroke-width="0.0938" d="M595.82,457.57l1.18-0.07c0.05,7.52,0.72,15.05,0.37,22.56   l-1.05,0.21C596.11,472.71,595.85,465.14,595.82,457.57z"/>
	<path fill="#FFCB99" stroke="#FFCB99" stroke-width="0.0938" d="M188.59,469.55c7.89-3.84,16.81-4.63,25.41-5.64   c11.61-0.84,24.13-0.54,34.35,5.72c8.43,4.93,13.67,14.05,15.47,23.47c2.43,12.81,0.52,25.9-1.54,38.58   c11.09,13.9,25.57,25.19,41.97,32.14c18.75,8.04,39.28,10.06,59.31,12.61c0.72,2.15,0.81,4.76,2.7,6.32   c2.25,2.34,5.64,2.48,8.65,2.95c-2.65,11.38,0.21,23.81,7.39,32.98c4.07,5.03,9.94,9.41,16.7,9.23c3.09,0.14,6.03-0.92,8.99-1.6299   c-0.68,1.48-1.15,3.15-2.32,4.34c-18.52,6.06-38.35,8.03-57.72,5.98c-34.61-3.65-66.79-20.15-93.19-42.34   c-13.98-11.63-26.52-24.95-37.71-39.27c-1.89-1.87-1.34-4.61-1.42-6.99c0.04-13.87,0.09-27.74,0-41.61   c-10.61-0.29-21.52-3.26-29.59-10.44c-3.86-3.59-7.32-8.44-6.96-13.95C178.99,476.23,183.81,471.93,188.59,469.55z"/>
	<path fill="#FEFEFE" stroke="#FEFEFE" stroke-width="0.0938" d="M610.86,479.95c6.51-1.55,13.5-1.39,20.01,0.15   c5.87,1.46,12.01,4.97,13.93,11.07c1.22,4.23-1.67,8.47-5.44,10.19c-6.78,3.42-14.58,2.38-21.8,1.41c2.75,2.45,5.97,4.88,6.85,8.69   c1.3701,4.84-1.8,9.57-5.39,12.54c-8.27,6.57-20.77,8.77-30.09,3.14c-2.96-1.62-4.99-4.37-7.1-6.9   c-3.7,7.88-10.87,14.13-19.47,15.96c-7.4,2.02-16.21-0.45-20.61-6.95c-3.24-4.51-4.2-10.09-4.88-15.46   c-8.18,3.81-16.67,7.91-25.89,7.97c-4.94-0.02-10.84-2.15-12.26-7.41c-1.56-6.45,2.07-12.78,6.33-17.35   c7.45-7.9,17.48-13.08,27.81-16.12c9.55,7.38,19.77,14.59,31.73,17.33c10.6,2.62,22.25,0.79,31.3799-5.27   C601.7,489.55,606.22,484.62,610.86,479.95 M623.39,489.33c-2.29,0.7-2.98,3.85-1.25,5.48c2.21,2.56,7.25,0.75,6.78-2.75   C628.8,489.42,625.5,488.55,623.39,489.33 M513.29,502.07c-1.33,1-2.76,2.67-1.69,4.38c1.33,3.51,8.02,2.44,7.44-1.47   C519.17,501.96,515.54,501.39,513.29,502.07 M599.37,512.27c-2.14,0.56-3.4,3.33-1.88,5.13c1.81,2.63,6.85,1.79,7.2-1.54   C605.11,513.11,601.71,511.29,599.37,512.27 M553.25,518.06c-1.36,0.81-2.54,2.68-1.6,4.22c1.48,3.3799,7.64,2.68,7.68-1.29   C559.18,518.09,555.57,516.93,553.25,518.06z"/>
	<path fill="#A53692" stroke="#A53692" stroke-width="0.0938" d="M419.84,534.89c20.97-24.89,51.07-41.96,83.27-46.84   c-4.64,5.24-9.78,10.51-11.51,17.53c-2.38,7.17,0.22,15.99,6.78,20.04c5.16,3.49,11.69,3.65,17.68,3.1   c5.15-0.45,9.92-2.5699,14.87-3.8799c2.49,4.19,4.04,9.08,7.9,12.34c10.09,9.91,27.14,8.73,37.92,0.54   c2.15-1.6,4.01-3.56,6.24-5.06c3.62,1.5,6.99,3.69,10.89,4.47c11.73,2.31,24.72-1.53,32.93-10.32c4.11-4.14,5.3-9.99,5.63-15.6   c5.52-1.54,11.66-2.56,15.63-7.16c3.57-3.29,4.25-8.27,4.52-12.86c5,0.51,9.72,2.35,14.52,3.77c23.81,7.3,46.55,19.12,64.8,36.23   c0.58,0.56,1.08,1.2,1.5,1.91c-2.48,8.14,2.41,16.56-0.69,24.61c-4.2599,11.41-14.05,20.39-25.25,24.84   c-4.65,1.71-9.98,1.93-13.66,5.62c-2.4,0.23-4.75-0.45-7.09-0.81c-12.8199-2.46-25.6899-4.66-38.5-7.14   c27.82,54.42,42.73,115.42,42.75,176.53c-19.97-0.32-40-0.97-59.92,0.98c-42.71,3.48-84.63,14.19-124.47,29.79   c-5.35,2.02-10.52,4.49-15.92,6.39c-0.08-2.35,0.14-4.69,0.51-6.99c6.23-43.84,5.43-88.82-3.84-132.18   c-0.6-3.42-2.11-6.79-1.9-10.29c1.89-2.84,4.44-5.39,5.19-8.84c1.4-5.82,2.84-11.94,1.56-17.91c-2.24-8.79-8.07-16.24-15.02-21.87   c-3.23-2.63-6.8-5.45-11.17-5.53c-6.29-0.03-12.96,1.52-18.9-1.33c-12.66-5.22-24.76-14.97-28.35-28.72   c-1.55-5.66-3.02-11.4-3.49-17.27C414.76,539.54,418.04,537.36,419.84,534.89z"/>
	<path fill="#B2B2B2" stroke="#B2B2B2" stroke-width="0.0938" d="M623.39,489.33c2.11-0.78,5.41,0.09,5.53,2.73   c0.47,3.5-4.57,5.31-6.78,2.75C620.41,493.18,621.1,490.03,623.39,489.33z"/>
	<path fill="#B2B2B2" stroke="#B2B2B2" stroke-width="0.0938" d="M513.29,502.07c2.25-0.68,5.88-0.11,5.75,2.91   c0.58,3.91-6.11,4.98-7.44,1.47C510.53,504.74,511.96,503.07,513.29,502.07z"/>
	<path fill="#B2B2B2" stroke="#B2B2B2" stroke-width="0.0938" d="M599.37,512.27c2.34-0.98,5.74,0.84,5.32,3.59   c-0.35,3.33-5.39,4.17-7.2,1.54C595.97,515.6,597.23,512.83,599.37,512.27z"/>
	<path fill="#B1B1B1" stroke="#B1B1B1" stroke-width="0.0938" d="M553.25,518.06c2.32-1.13,5.93,0.03,6.08,2.93   c-0.04,3.97-6.2,4.67-7.68,1.29C550.71,520.74,551.89,518.87,553.25,518.06z"/>
	<path fill="#FEFEFE" stroke="#FEFEFE" stroke-width="0.0938" d="M754.73,521.79c3.28-1.54,7.4-2.21,10.64-0.19   c2.78,1.72,3.77,5.31,3.09,8.4c-1.16,6.14-5.69,10.78-9.81,15.15c3.09-0.54,6.42-1.75,9.45-0.25c4.17,1.89,5.8,6.83,5.82,11.11   c-0.32,7.81-4.08,15.91-10.99,19.95c-3.01,1.86-6.63,2.0099-10.04,2.39c2.38,5.2401,4.05,11.17,2.43,16.89   c-1.35,7.08-6.75,13.93-14.26,14.75c-5.47,0.81-10.45-1.88-15.13-4.28c-1.33,8.22-3.08,17.0099-8.91,23.34   c-2.57,2.88-7,4.39-10.57,2.46c-4.59-2.42-6.69-7.66-7.67-12.48c-1.6-8.9301-0.14-18.15,2.6-26.7c9.27-3.08,18.97-5.97,26.63-12.32   c7.68-5.98,12.74-15.25,13.22-25.01c0.56-5.68-0.76-11.27-1.49-16.85C742.96,531.42,747.81,525,754.73,521.79 M753.33,537.78   c3.72,1.96,6.99-3.61,3.49-5.89C753.57,531.03,750.52,535.49,753.33,537.78 M757.43,560.36c-1.45,1.19-2.08,3.55-0.91,5.14   c2.3,1.91,5.93-0.56,5.44-3.37C762.03,559.78,759.06,559.52,757.43,560.36 M737.68,599.33c4.1,2.95,7.91-4.48,3.11-6.06   C737.91,593.65,735.99,596.72,737.68,599.33 M708.07,619.11c3.68,1.59,5.98-4.29,2.77-6.16   C707.35,611.88,704.5,617.62,708.07,619.11z"/>
	<path fill="#B1B1B1" stroke="#B1B1B1" stroke-width="0.0938" d="M753.33,537.78c-2.81-2.29,0.24-6.75,3.49-5.89   C760.32,534.17,757.05,539.74,753.33,537.78z"/>
	<path fill="#FEFEFE" stroke="#FEFEFE" stroke-width="0.0938" d="M370.39,540.64c9.59-2.71,19.78-0.95,29.09,2.01   c2.88,1.02,5.9,1.88,8.45,3.62c2.58,14.02,6.17,28.81,16.43,39.36c8.7,9.48,22.1,13.16,34.64,12.39c3.34,0.36,7.27-1.71,9.99,1.01   c7.09,4.96,13.71,11.6,15.86,20.24c0.8,4.03,0.66,8.96-2.72,11.83c-3.03,2.66-7.56,2.36-11.03,0.77c-6.26-2.6-10.83-7.83-14.96-13   c0.41,4.03,1.32,8.56-1.18,12.15c-3.2,4.65-9.59,5.49-14.77,4.57c-9.1-1.69-18.06-7.54-21.27-16.53c-1.36-3.48-1.11-7.26-0.92-10.9   c-11.93,5.34-28.53,1.59-34.41-10.79c-4.09-8.28,0.22-17.58,5.51-24.19c-9.19-2.63-18.97-5.42-25.83-12.48   c-3.1-3.04-4.98-7.73-3.4-11.98C361.67,544.39,366.08,541.87,370.39,540.64 M375.51,549.52c-2.62,4.06,3.16,9.02,6.51,5.24   c0.12-1.41,0.26-2.95-0.46-4.21C380.44,548.42,377.38,548.54,375.51,549.52 M396.4,587.39c-4.76,1.26-1.24,9.09,3,7.02   C403.85,592.74,400.33,586.05,396.4,587.39 M466.4,613.24c-1.44,0.64-1.53,2.25-1.35,3.61c0.29,3.4,6.31,4.66,7.19,0.98   C473.11,614.65,469.28,611.72,466.4,613.24 M432.33,614.29c-0.91,1.35-1.49,3.21-0.29,4.6c1.31,2.5,5.96,2.98,6.67-0.23   C439.79,615.09,435.28,612.41,432.33,614.29z"/>
	<path fill="#B2B2B2" stroke="#B2B2B2" stroke-width="0.0938" d="M375.51,549.52c1.87-0.98,4.93-1.1,6.05,1.03   c0.72,1.26,0.58,2.8,0.46,4.21C378.67,558.54,372.89,553.58,375.51,549.52z"/>
	<path fill="#B2B2B2" stroke="#B2B2B2" stroke-width="0.0938" d="M757.43,560.36c1.63-0.84,4.6-0.58,4.53,1.77   c0.49,2.81-3.14,5.28-5.44,3.37C755.35,563.91,755.98,561.55,757.43,560.36z"/>
	<path fill="#B2B2B2" stroke="#B2B2B2" stroke-width="0.0938" d="M396.4,587.39c3.93-1.34,7.45,5.35,3,7.02   C395.16,596.48,391.64,588.65,396.4,587.39z"/>
	<path fill="#B1B1B1" stroke="#B1B1B1" stroke-width="0.0938" d="M737.68,599.33c-1.69-2.61,0.23-5.68,3.11-6.06   C745.59,594.85,741.78,602.28,737.68,599.33z"/>
	<path fill="#B2B2B2" stroke="#B2B2B2" stroke-width="0.0938" d="M466.4,613.24c2.88-1.52,6.71,1.41,5.84,4.59   c-0.88,3.68-6.9,2.42-7.19-0.98C464.87,615.49,464.96,613.88,466.4,613.24z"/>
	<path fill="#B3B3B3" stroke="#B3B3B3" stroke-width="0.0938" d="M708.07,619.11c-3.57-1.49-0.72-7.23,2.77-6.16   C714.05,614.82,711.75,620.7,708.07,619.11z"/>
	<path fill="#B2B2B2" stroke="#B2B2B2" stroke-width="0.0938" d="M432.33,614.29c2.95-1.88,7.46,0.8,6.38,4.37   c-0.71,3.21-5.36,2.73-6.67,0.23C430.84,617.5,431.42,615.64,432.33,614.29z"/>
	<path fill="#FEFEFE" stroke="#FEFEFE" stroke-width="0.0938" d="M628.28,767c17.28-1.89,34.71-3.63,52.1-2.48   c10.81,1.13,21.8,1.14,32.39,3.88c14.06,3.52,27.5,10.66,37.2,21.59c5.6,6.51,10.16,14.34,11.0601,23.02   c0.72,5.81-0.97,12.5-6.07,15.92c-5.66,3.75-12.9,3.17-19.18,1.52c-13.73-3.72-25.3701-12.31-36.61-20.68   c4.18,10.18,6.44,21.51,3.91,32.41c-3.01,14.71-13.6,27.85-27.8,33.08c-10.15,4.14-22.19,2.88-31.2401-3.3   c-12.99-8.81-19.12-24.39-22.39-39.15c-0.27,0.5-0.79,1.5-1.06,2c-5.06,15.75-14.31,30.09-26.22,41.54   c-8.09,7.53-17.65,14.2-28.76,16.1c-8.86,1.83-18.51-1.97-23.81-9.28c-5.75-7.19-8.14-16.25-9.98-25.08   c-13.74,9.94-28.34,19.15-44.61,24.34c-10.66,3.43-22.29,5.41-33.31,2.56c-7.54-1.93-14.7-6.99-17.3-14.57   c-3.66-9.48-0.28-19.92,4.49-28.35c9.6-15.87,24.95-27.21,40.85-36.23c9.29-5.52,19.64-8.78,29.86-12.13   C549.72,781.39,588.7,772.07,628.28,767 M739.33,802.4c-4.98,0.8199-8.44,7.17-5.14,11.43c4.18,5.83,14.85,3.25,15.73-3.9   C750.64,804.31,744.2,800.81,739.33,802.4 M666.31,835.32c-4.84,1.13-7.79,7.73-4.24,11.62c4.39,5.38,14.66,2.85,15.46-4.25   C678.11,836.92,671.28,833.38,666.31,835.32 M479.31,840.18c-3.12,1.17-5.92,4.24-5.5,7.77c0.38,4.82,5.96,7.67,10.34,6.42   c3.8-0.71,7.2-4.15,6.64-8.21C490.37,840.81,483.83,838.45,479.31,840.18 M571.33,861.33c-4.8,0.87-8.34,6.49-5.59,10.94   c3.86,6.39,15.21,3.97,16.17-3.42C582.38,863.44,576.19,859.65,571.33,861.33z"/>
	<path fill="#B3B3B3" stroke="#B3B3B3" stroke-width="0.0938" d="M739.33,802.4c4.87-1.59,11.31,1.91,10.59,7.53   c-0.88,7.15-11.55,9.73-15.73,3.9C730.89,809.57,734.35,803.22,739.33,802.4z"/>
	<path fill="#781211" stroke="#781211" stroke-width="0.0938" d="M197.84,856c0.34-11.13-0.75-22.3,0.57-33.38   c1.33,10.66,0.86,21.46,0.79,32.19c-0.11,3.15-0.61,6.27-0.89,9.42C198.49,861.46,197.61,858.76,197.84,856z"/>
	<path fill="#B3B3B3" stroke="#B3B3B3" stroke-width="0.0938" d="M666.31,835.32c4.97-1.94,11.8,1.6,11.22,7.37   c-0.8,7.1-11.07,9.63-15.46,4.25C658.52,843.05,661.47,836.45,666.31,835.32z"/>
	<path fill="#B3B3B3" stroke="#B3B3B3" stroke-width="0.0938" d="M479.31,840.18c4.52-1.73,11.06,0.63,11.48,5.98   c0.56,4.06-2.84,7.5-6.64,8.21c-4.38,1.25-9.96-1.6-10.34-6.42C473.39,844.42,476.19,841.35,479.31,840.18z"/>
	<path fill="#FFCB99" stroke="#FFCB99" stroke-width="0.0938" d="M614.48,859.39c2.46-5.79,5.05-11.53,7.08-17.51   c3.08,14.03,8.84,29.01,21.49,37.07c10.83,6.86,24.76,5.52,35.95,0.25c-6.53,23.59-13.33,47.32-24.66,69.13   c-6.89,12.9-14.96,25.36-24.95,36.06c-6.14,1.74-12.51,3.09-18.89,3.34c-6.64-1.13-13.4-1.15-20.04,0   c-5.15-0.18-10.26-1.62-14.93-3.76c7.05-20.02,15.02-39.73,21.49-59.96C604.21,902.88,609.93,881.24,614.48,859.39z"/>
	<path fill="#B3B3B3" stroke="#B3B3B3" stroke-width="0.0938" d="M571.33,861.33c4.86-1.68,11.05,2.11,10.58,7.52   c-0.96,7.39-12.31,9.81-16.17,3.42C562.99,867.82,566.53,862.2,571.33,861.33z"/>
	<path fill="#FFCB99" stroke="#FFCB99" stroke-width="0.0938" d="M576.02,897.02c15.33-6.6,27-19.33,35.93-33.1   c-11.9,41.45-29.97,80.77-46.51,120.48c-20.84,7.75-44.45,8.41-65.4,0.68c10.74-28.07,20.13-56.8,25.32-86.46   c1.94-10.49,3.07-21.11,4.94-31.6c2.03,10.87,6.54,22.18,15.87,28.79C554.88,901.95,566.62,901.04,576.02,897.02z"/>
	<path fill="#640B0B" stroke="#640B0B" stroke-width="0.0938" d="M200.33,965.68c0.79,1.64,0.92,3.47,0.9,5.29   c-0.14,20.36,0.98,40.72,0.45,61.0701c-1.8-3.8501-3.49-7.75-4.84-11.77c1.05,0.53,2.14,1.03,3.24,1.5   C200.97,1003.09,199.4,984.36,200.33,965.68z"/>
	<path fill="#FEE5BB" stroke="#FEE5BB" stroke-width="0.0938" d="M590.46,987.73c6.64-1.15,13.4-1.13,20.04,0   C603.86,988.63,597.09,988.7,590.46,987.73z"/>
	<path fill="#FEFEFE" stroke="#FEFEFE" stroke-width="0.0938" d="M622.79,991.76c6.96-1.11,13.73-3.43,20.71-4.29   c2.87,3.08,5.67,6.2401,8.45,9.41c-4.88,2.94-10.65,3.64-16.15,4.61c-17.84,2.59-35.85,3.82-53.87,3.93   c19.68,3.65,39.81,1.01,59.55-0.11c2.26,3.25,4.4,6.6,6.47,9.98c-25.74,6.46-52.37,1.53-78.07-2.52l-0.6-0.74   c0.1899-6.07,0.77-12.13,0.9399-18.2l0.76-0.5C588.18,995.77,605.76,995.24,622.79,991.76z"/>
	<path fill="#FDFDFD" stroke="#FDFDFD" stroke-width="0.0938" d="M475.33,999.3c2.89-3.12,5.59-6.42,8.69-9.33   c14.19,4.5601,29,7.3701,43.92,7.72c13.14,0.18,26.2-2.11,38.74-5.93c-1.83,6.18-3.21,12.51-5.24,18.63   c-6.77,1.67-13.53,3.56-20.45,4.56c-10,0.89-20.17,1.24-30.08-0.65c-8.93-1.54-17.86-3.11-26.78-4.67   c-0.97-1.9,1.25-3.09,2.88-2.62c12.33,0.94,24.72,1.28,37.06,0.52c9.32-0.69,18.8-0.6801,27.87-3.15   c-17.27,1.36-34.64,0.49-51.92-0.41c-6.62-0.55-13.29-1.02-19.77-2.5C478.54,1000.97,476.59,1000.65,475.33,999.3z"/>
	<path fill="#996533" stroke="#996533" stroke-width="0.0938" d="M31.8,1007.81c4.91-0.4,9.48,2.25,12.39,6.05   c5.91,7.56,8,17.16,10.19,26.29c2.16-6.02,3.14-12.5601,6.78-17.9901c4.02-7.02,10.83-12.67,18.96-13.98   c12.07-2.03,24.22,5.35,30.17,15.56c-0.16,35.75-0.12,71.51-0.01,107.26c0.04,4.22-0.33,8.48,0.19,12.7   c1.22,0.4601,2.5,0.75,3.79,1.05c-8.27-0.62-16.29,1.52-24.07,3.98c-1.35-1.1-1.84-2.88-2.58-4.37   c-9.91-24.08-19.74-48.1799-29.7-72.24C49.35,1050.63,39.93,1029.45,31.8,1007.81z"/>
	<path fill="#363435" stroke="#363435" stroke-width="0.0938" d="M463.76,1014.17c6.04-0.6,12.05-1.85,18.13-1.84   c4.54,0.89,8.49,3.6,13.01,4.64c18.82,5.02,38.75,4.98,57.86,1.65c4.45-0.72,8.83-2.67,13.41-1.95c22.41,3.56,45.11,8.11,67.89,5.6   c6.05-0.44,11.89-2.99,18.01-2.24c4.05,0.46,8.15,0.67,12.14,1.54c-5.42,0.96-11.3,1.33-15.79,4.89   c-3.52,2.4501-4.21,7.63-2.12,11.23c2.56,4.8501,7.74,7.4801,12.69,9.28c7.88,2.9501,17.17,2.76,24.53-1.52   c3.61-2.13,5.49-6.86,3.69-10.7699c-1.62-4.8301-6.41-7.1101-10.38-9.6801c11.76,2.29,23.03,6.64,34.14,11.04   c14.47,6.08,28.86,12.9199,41.21,22.73c3.73,3.3099,8.21,6.9399,8.8,12.23c0.25,3.99-3.95,5.83-7.12,6.8199   c-28.85,7.87-59.36,9.2101-88.83,4.1801c-32.59-5.16-63.9301-17.05-92.5-33.45c-5-2.52-9.38-6.1901-14.5-8.4401   c-5.46,2.62-10.33,6.33-15.69,9.16c-18.21,10.0499-37.45,18.52-57.72,23.41c-33.42,8.8099-69.06,8.61-102.56,0.2899   c-4.41-1.11-9-1.78-13.1-3.8199c-2.65-1.2101-4.29-4.4301-3.12-7.2001c1.98-5.2899,6.65-8.86,10.94-12.23   c10.86-8.1,23.12-14.09,35.48-19.51c11.98-4.85,24.1-9.6199,36.77-12.3c-3.15,2.4901-6.94,4.4901-9.05,8.05   c-2.06,3.3301-1.84,8.1801,1.24,10.8301c4.42,4.11,10.86,5.0699,16.68,4.89c6.73-0.4701,13.57-2.6001,18.85-6.9   c3.15-2.78,6.12-7.36,4.19-11.6201c-2.08-4.79-7.47-6.93-12.33-7.56C467,1015.15,464.98,1015.47,463.76,1014.17z"/>
	<path fill="#CD9933" stroke="#CD9933" stroke-width="0.0938" d="M162.11,1014.94c8.8-2.3,18.46,0.78,24.85,7.1   c5.72,5.6301,9.37,13.17,11.08,20.95c-2.4,6.16-6.55,11.53-9.68,17.36c-17.22,29.4401-34.47,58.87-51.7,88.3   c-0.97,2.76-4.07,1.46-5.98,0.64c-5.2-2.38-10.75-3.88-16.42-4.54c-1.29-0.3-2.57-0.59-3.79-1.05c-0.52-4.22-0.15-8.48-0.19-12.7   c-0.11-35.75-0.15-71.51,0.01-107.26c6.97,8.99,9.12,20.52,10.89,31.48c3.24-5.13,5.63-10.7999,9.29-15.6799   C138.14,1028.45,148.58,1018.08,162.11,1014.94z"/>
	<path fill="#FEFEFE" stroke="#FEFEFE" stroke-width="0.0938" d="M458.36,1019.51c4.45-0.58,9.35-0.65,13.31,1.77   c2,1.15,3.43,3.3199,3.44,5.6799c-0.53,4.0801-4.08,6.9401-7.61,8.55c-5.52,2.42-12.12,3.03-17.78,0.73   c-2.99-1.2-5.69-4.5699-4.44-7.89C447.28,1023.04,453.14,1020.46,458.36,1019.51z"/>
	<path fill="#FEFEFE" stroke="#FEFEFE" stroke-width="0.0938" d="M657.37,1024.47c7.71-1.55,16.1,0.0901,22.6,4.5901   c3.07,2.25,5.95,5.8199,5.1801,9.8899c-0.73,4.16-4.91,6.5-8.67,7.4701c-7.29,1.71-15.29,0.5699-21.78-3.17   c-3.88-2.3-7.92-6.3-7.09-11.22C648.72,1027.6,653.28,1025.42,657.37,1024.47z"/>
	<path fill="#1A1A1A" stroke="#1A1A1A" stroke-width="0.0938" d="M93.68,1157.0601c4.48-2.8701,9.95-4.3301,15.26-4.1201   c0.47,13.03,0.15,26.1001,0.24,39.15c0.02,1.0801,0.19,2.16,0.5,3.23l0.07,0.92c0.02,0.47,0.07,1.39,0.1,1.85   c-3.33-3.5399-4-8.64-6-12.9399C100.54,1175.76,96.28,1166.67,93.68,1157.0601z"/>
	<path fill="#808080" stroke="#808080" stroke-width="0.0938" d="M110.23,1152.96c7.29-0.7899,14.78,1.9601,20.75,5.99   c-5.07,9.54-10.52,18.88-15.7,28.37c-1.7,3.05-3.2,6.26-5.53,8.92l-0.07-0.92C110.78,1181.23,109.88,1167.0699,110.23,1152.96z"/>
</g>
</svg>