<?xml version="1.0" encoding="UTF-8" standalone="no"?>
<!-- Created with Inkscape (http://www.inkscape.org/) -->
<svg xmlns:dc="http://purl.org/dc/elements/1.1/" xmlns:cc="http://creativecommons.org/ns#" xmlns:rdf="http://www.w3.org/1999/02/22-rdf-syntax-ns#" xmlns:svg="http://www.w3.org/2000/svg" xmlns="http://www.w3.org/2000/svg" xmlns:xlink="http://www.w3.org/1999/xlink" xmlns:sodipodi="http://sodipodi.sourceforge.net/DTD/sodipodi-0.dtd" xmlns:inkscape="http://www.inkscape.org/namespaces/inkscape" width="363.53387" height="418.18198" id="svg5916" version="1.1" inkscape:version="0.48.4 r9939" sodipodi:docname="malade.svg">
  <defs id="defs5918">
    <linearGradient id="linearGradient6786">
      <stop style="stop-color:#009400;stop-opacity:1;" offset="0" id="stop6788"/>
      <stop id="stop6794" offset="0.84090942" style="stop-color:#009400;stop-opacity:1;"/>
      <stop style="stop-color:#009400;stop-opacity:0;" offset="1" id="stop6790"/>
    </linearGradient>
    <linearGradient gradientTransform="matrix(1.7310578,0,0,1.7310578,-378.86124,-295.7113)" inkscape:collect="always" xlink:href="#linearGradient5759" id="linearGradient5765" x1="517.58484" y1="415.31161" x2="524.61292" y2="420.49017" gradientUnits="userSpaceOnUse"/>
    <linearGradient id="linearGradient5759">
      <stop style="stop-color:#d3bc5f;stop-opacity:1;" offset="0" id="stop5761"/>
      <stop style="stop-color:#ffffff;stop-opacity:1;" offset="1" id="stop5763"/>
    </linearGradient>
    <linearGradient gradientTransform="matrix(1.7310578,0,0,1.7310578,-378.86124,-295.7113)" inkscape:collect="always" xlink:href="#linearGradient5759" id="linearGradient5767" x1="495.51135" y1="418.43704" x2="499.01605" y2="423.61563" gradientUnits="userSpaceOnUse"/>
    <linearGradient id="linearGradient5798">
      <stop style="stop-color:#d3bc5f;stop-opacity:1;" offset="0" id="stop5800"/>
      <stop style="stop-color:#ffffff;stop-opacity:1;" offset="1" id="stop5802"/>
    </linearGradient>
    <linearGradient gradientTransform="matrix(1.7310578,0,0,1.7310578,-378.86124,-295.7113)" inkscape:collect="always" xlink:href="#linearGradient5759" id="linearGradient5769" x1="471.49246" y1="419.87912" x2="478.76627" y2="427.28983" gradientUnits="userSpaceOnUse"/>
    <linearGradient id="linearGradient5805">
      <stop style="stop-color:#d3bc5f;stop-opacity:1;" offset="0" id="stop5807"/>
      <stop style="stop-color:#ffffff;stop-opacity:1;" offset="1" id="stop5809"/>
    </linearGradient>
    <linearGradient inkscape:collect="always" xlink:href="#linearGradient5683" id="linearGradient5693" gradientUnits="userSpaceOnUse" x1="430.41772" y1="487.03976" x2="436.55994" y2="455.61118" gradientTransform="matrix(1.7310578,0,0,1.7310578,-379.17036,-299.1116)"/>
    <linearGradient id="linearGradient5683">
      <stop style="stop-color:#d35f5f;stop-opacity:0;" offset="0" id="stop5685"/>
      <stop style="stop-color:#efc6c6;stop-opacity:1;" offset="1" id="stop5687"/>
    </linearGradient>
    <linearGradient id="linearGradient5617">
      <stop style="stop-color:#d38d5f;stop-opacity:1;" offset="0" id="stop5619"/>
      <stop style="stop-color:#b36531;stop-opacity:1;" offset="1" id="stop5621"/>
    </linearGradient>
    <linearGradient id="linearGradient5820">
      <stop style="stop-color:#d38d5f;stop-opacity:1;" offset="0" id="stop5822"/>
      <stop style="stop-color:#b36531;stop-opacity:1;" offset="1" id="stop5824"/>
    </linearGradient>
    <linearGradient gradientTransform="matrix(1.7310578,0,0,1.7310578,-378.86124,-295.7113)" inkscape:collect="always" xlink:href="#linearGradient5775" id="linearGradient5781" x1="494.4115" y1="402.41638" x2="494.82852" y2="406.64639" gradientUnits="userSpaceOnUse"/>
    <linearGradient id="linearGradient5775">
      <stop style="stop-color:#d35f5f;stop-opacity:1;" offset="0" id="stop5777"/>
      <stop style="stop-color:#e39999;stop-opacity:1;" offset="1" id="stop5779"/>
    </linearGradient>
    <linearGradient gradientTransform="matrix(1.7310578,0,0,1.7310578,-378.86124,-295.7113)" inkscape:collect="always" xlink:href="#linearGradient5735" id="linearGradient5745" x1="395.29782" y1="409.202" x2="398.86841" y2="405.09485" gradientUnits="userSpaceOnUse"/>
    <linearGradient id="linearGradient5735">
      <stop style="stop-color:#d3bc5f;stop-opacity:1;" offset="0" id="stop5737"/>
      <stop style="stop-color:#887525;stop-opacity:1;" offset="1" id="stop5739"/>
    </linearGradient>
    <linearGradient gradientTransform="matrix(1.7310578,0,0,1.7310578,-378.86124,-295.7113)" inkscape:collect="always" xlink:href="#linearGradient5735" id="linearGradient5743" x1="416.49768" y1="415.90289" x2="418.02911" y2="412.42075" gradientUnits="userSpaceOnUse"/>
    <linearGradient id="linearGradient5835">
      <stop style="stop-color:#d3bc5f;stop-opacity:1;" offset="0" id="stop5837"/>
      <stop style="stop-color:#887525;stop-opacity:1;" offset="1" id="stop5839"/>
    </linearGradient>
    <linearGradient gradientTransform="matrix(1.7310578,0,0,1.7310578,-378.86124,-295.7113)" inkscape:collect="always" xlink:href="#linearGradient5735" id="linearGradient5741" x1="439.20874" y1="418.4299" x2="439.19763" y2="413.96561" gradientUnits="userSpaceOnUse"/>
    <linearGradient id="linearGradient5842">
      <stop style="stop-color:#d3bc5f;stop-opacity:1;" offset="0" id="stop5844"/>
      <stop style="stop-color:#887525;stop-opacity:1;" offset="1" id="stop5846"/>
    </linearGradient>
    <linearGradient gradientTransform="matrix(1.7310578,0,0,1.7310578,-378.86124,-295.7113)" inkscape:collect="always" xlink:href="#linearGradient5671" id="linearGradient5677" x1="440.31497" y1="448.06473" x2="447.15805" y2="425.74332" gradientUnits="userSpaceOnUse"/>
    <linearGradient id="linearGradient5671">
      <stop style="stop-color:#501616;stop-opacity:1;" offset="0" id="stop5673"/>
      <stop style="stop-color:#000000;stop-opacity:1;" offset="1" id="stop5675"/>
    </linearGradient>
    <linearGradient gradientTransform="matrix(1.7310578,0,0,1.7310578,-378.86125,-295.7113)" inkscape:collect="always" xlink:href="#linearGradient5703" id="linearGradient5709" x1="431.96603" y1="475.76688" x2="427.17358" y2="518.26685" gradientUnits="userSpaceOnUse"/>
    <linearGradient id="linearGradient5703">
      <stop style="stop-color:#d35f5f;stop-opacity:1;" offset="0" id="stop5705"/>
      <stop style="stop-color:#739c2b;stop-opacity:1;" offset="1" id="stop5707"/>
    </linearGradient>
    <linearGradient gradientTransform="matrix(1.7310578,0,0,1.7310578,-378.86124,-295.7113)" inkscape:collect="always" xlink:href="#linearGradient5711" id="linearGradient5725" x1="475.24857" y1="350.38931" x2="474.76157" y2="356.19769" gradientUnits="userSpaceOnUse"/>
    <linearGradient id="linearGradient5711">
      <stop style="stop-color:#216778;stop-opacity:1;" offset="0" id="stop5713"/>
      <stop style="stop-color:#aa2f5e;stop-opacity:1;" offset="1" id="stop5715"/>
    </linearGradient>
    <linearGradient gradientTransform="matrix(1.7310578,0,0,1.7310578,-378.86125,-295.7113)" inkscape:collect="always" xlink:href="#linearGradient5643" id="linearGradient5653" gradientUnits="userSpaceOnUse" x1="451.72485" y1="366.26474" x2="451.38394" y2="372.09152"/>
    <linearGradient inkscape:collect="always" id="linearGradient5643">
      <stop style="stop-color:#ffffff;stop-opacity:1;" offset="0" id="stop5645"/>
      <stop style="stop-color:#ffffff;stop-opacity:0;" offset="1" id="stop5647"/>
    </linearGradient>
    <linearGradient gradientTransform="matrix(1.7310578,0,0,1.7310578,-378.86124,-295.7113)" inkscape:collect="always" xlink:href="#linearGradient5727" id="linearGradient5733" x1="474.40994" y1="325.37" x2="480.33792" y2="304.03052" gradientUnits="userSpaceOnUse"/>
    <linearGradient id="linearGradient5727">
      <stop style="stop-color:#502d16;stop-opacity:1;" offset="0" id="stop5729"/>
      <stop style="stop-color:#b86833;stop-opacity:1;" offset="1" id="stop5731"/>
    </linearGradient>
    <linearGradient gradientTransform="matrix(1.7310578,0,0,1.7310578,-378.86124,-295.7113)" inkscape:collect="always" xlink:href="#linearGradient5627" id="linearGradient5633" x1="448.60803" y1="360.77463" x2="451.77179" y2="377.02463" gradientUnits="userSpaceOnUse"/>
    <linearGradient id="linearGradient5627">
      <stop style="stop-color:#e6e6e6;stop-opacity:1;" offset="0" id="stop5629"/>
      <stop style="stop-color:#bbc8f0;stop-opacity:1;" offset="1" id="stop5631"/>
    </linearGradient>
    <linearGradient gradientTransform="matrix(1.7310578,0,0,1.7310578,-378.86124,-295.7113)" inkscape:collect="always" xlink:href="#linearGradient5711" id="linearGradient5717" x1="451.45111" y1="334.72589" x2="439.85574" y2="353.4137" gradientUnits="userSpaceOnUse"/>
    <linearGradient id="linearGradient5873">
      <stop style="stop-color:#216778;stop-opacity:1;" offset="0" id="stop5875"/>
      <stop style="stop-color:#aa2f5e;stop-opacity:1;" offset="1" id="stop5877"/>
    </linearGradient>
    <linearGradient gradientTransform="matrix(1.7310578,0,0,1.7310578,-378.86125,-295.7113)" inkscape:collect="always" xlink:href="#linearGradient5663" id="linearGradient5669" x1="445.02798" y1="454.85645" x2="450.62405" y2="416.9993" gradientUnits="userSpaceOnUse"/>
    <linearGradient id="linearGradient5663">
      <stop style="stop-color:#782121;stop-opacity:1;" offset="0" id="stop5665"/>
      <stop style="stop-color:#280b0b;stop-opacity:1;" offset="1" id="stop5667"/>
    </linearGradient>
    <linearGradient id="linearGradient5607">
      <stop style="stop-color:#7dcf52;stop-opacity:1;" offset="0" id="stop5609"/>
      <stop id="stop5615" offset="0.73709607" style="stop-color:#d38d5f;stop-opacity:1;"/>
      <stop style="stop-color:#d38d5f;stop-opacity:1;" offset="1" id="stop5611"/>
    </linearGradient>
    <linearGradient inkscape:collect="always" xlink:href="#linearGradient5643" id="linearGradient6677" x1="445.72983" y1="276.18167" x2="443.83575" y2="301.43549" gradientUnits="userSpaceOnUse"/>
    <linearGradient inkscape:collect="always" xlink:href="#linearGradient5643" id="linearGradient6690" x1="439.41519" y1="368.59833" x2="441.8616" y2="387.34833" gradientUnits="userSpaceOnUse"/>
    <linearGradient inkscape:collect="always" xlink:href="#linearGradient5643" id="linearGradient6711" x1="411.89484" y1="246.71535" x2="402.5611" y2="274.49454" gradientUnits="userSpaceOnUse"/>
    <radialGradient inkscape:collect="always" xlink:href="#linearGradient5607" id="radialGradient6757" gradientUnits="userSpaceOnUse" gradientTransform="matrix(1.2356209,0.57857661,-0.70498996,1.505592,104.8777,-448.20285)" cx="418.99725" cy="391.71088" fx="418.99725" fy="391.71088" r="99.454002"/>
    <linearGradient inkscape:collect="always" xlink:href="#linearGradient5617" id="linearGradient6759" gradientUnits="userSpaceOnUse" gradientTransform="matrix(1.7310578,0,0,1.7310578,-378.86124,-295.7113)" x1="382.19968" y1="344.00427" x2="388.25" y2="359.18286"/>
    <linearGradient inkscape:collect="always" xlink:href="#linearGradient5617" id="linearGradient6761" gradientUnits="userSpaceOnUse" gradientTransform="matrix(1.7310578,0,0,1.7310578,-378.86124,-295.7113)" x1="528.21429" y1="372.0939" x2="514.55273" y2="383.3439"/>
    <linearGradient inkscape:collect="always" xlink:href="#linearGradient5643" id="linearGradient6763" gradientUnits="userSpaceOnUse" gradientTransform="matrix(1.7310578,0,0,1.7310578,-378.86124,-295.20622)" x1="376.73233" y1="312.64441" x2="385.67105" y2="349.27975"/>
    <linearGradient inkscape:collect="always" xlink:href="#linearGradient5643" id="linearGradient6765" gradientUnits="userSpaceOnUse" gradientTransform="matrix(1.7310578,0,0,1.7310578,-378.86124,-295.20622)" x1="548.05487" y1="355.75461" x2="526.80719" y2="374.29892"/>
    <radialGradient inkscape:collect="always" xlink:href="#linearGradient6786" id="radialGradient6792" cx="391.93918" cy="418.99655" fx="391.93918" fy="418.99655" r="154.55334" gradientUnits="userSpaceOnUse" gradientTransform="matrix(0.99999485,-0.00330803,0.00300597,0.96590906,-1.2574729,15.580534)"/>
  </defs>
  <sodipodi:namedview id="base" pagecolor="#ffffff" bordercolor="#666666" borderopacity="1.0" inkscape:pageopacity="0.0" inkscape:pageshadow="2" inkscape:zoom="0.98994949" inkscape:cx="230.21493" inkscape:cy="178.68414" inkscape:document-units="px" inkscape:current-layer="layer1" showgrid="false" fit-margin-top="0" fit-margin-left="0" fit-margin-right="0" fit-margin-bottom="0" inkscape:window-width="1871" inkscape:window-height="1056" inkscape:window-x="49" inkscape:window-y="24" inkscape:window-maximized="1"/>
  <metadata id="metadata5921">
    <rdf:RDF>
      <cc:Work rdf:about="">
        <dc:format>image/svg+xml</dc:format>
        <dc:type rdf:resource="http://purl.org/dc/dcmitype/StillImage"/>
        <dc:title/>
      </cc:Work>
    </rdf:RDF>
  </metadata>
  <g inkscape:label="Calque 1" inkscape:groupmode="layer" id="layer1" transform="translate(-207.41308,-183.375)">
    <path sodipodi:type="arc" style="fill:url(#radialGradient6792);fill-opacity:1;stroke:none" id="path6739" sodipodi:cx="391.93918" sodipodi:cy="418.99655" sodipodi:rx="154.55334" sodipodi:ry="154.55334" d="m 546.49252,418.99655 c 0,85.35746 -69.19589,154.55335 -154.55334,154.55335 -85.35746,0 -154.55335,-69.19589 -154.55335,-154.55335 0,-85.35745 69.19589,-154.55334 154.55335,-154.55334 85.35745,0 154.55334,69.19589 154.55334,154.55334 z" transform="matrix(1.0871617,0,0,1.0544652,-35.277973,-41.508538)"/>
    <path style="fill:#000000;fill-opacity:1;stroke:#ffffff;stroke-width:2;stroke-linejoin:round;stroke-miterlimit:4;stroke-opacity:1;stroke-dasharray:none" d="m 452.90625,191.65625 c -2.31936,10.73799 -0.61113,23.32406 -7.4375,32.4375 C 430.1489,202.6411 400.84984,197.2715 376.25,201.5625 c -10.01103,1.08322 -19.30429,5.34057 -27.90625,10.46875 9.65146,2.62715 21.89937,3.37801 30.1875,4.84375 -25.75342,1.83354 -51.04094,12.06431 -70.0625,29.6875 16.78749,-2.93872 33.55671,-5.46453 50.5625,-6.625 -17.17946,9.05354 -27.27258,26.98669 -32.84375,45 8.87758,-4.46942 17.22518,-9.93618 26.34375,-13.90625 -12.17588,13.04666 -23.29246,27.11253 -35.875,39.625 -1.42818,-16.96557 -4.69597,-36.93567 -20.03125,-46.9375 -8.08153,-5.50757 -20.19645,-5.24095 -26.34375,3 -8.03757,9.72298 -8.13936,23.74478 -3.9375,35.1875 2.66109,10.16962 1.46393,20.93445 -2.375,30.5625 -1.86556,7.45461 -1.69604,15.55956 1.09375,22.75 -13.72884,8.00293 -31.22812,7.97576 -43.02119,19.48517 -10.66353,9.69074 -11.8801,25.16924 -13.41631,38.67108 -1.46942,21.118 4.61736,43.7094 20.92586,57.95711 21.89863,20.96972 51.31203,31.7277 79.75726,40.30745 6.23459,1.76372 12.79076,3.03495 18.94188,4.42294 -0.3808,10.46926 -5.39084,19.82574 -9.09375,29.375 -6.01172,23.22693 11.03778,49.36626 34.90625,52.625 18.89864,4.84056 42.77573,3.68397 55.625,-12.9375 10.80294,-15.826 14.96197,-35.93723 15.28125,-54.53125 31.45868,6.68551 66.93464,9.86226 95.78125,-6.875 16.12654,-9.66062 26.9412,-26.20942 34.375,-43.09375 8.47674,-19.508 9.54329,-42.51492 0.6875,-62.15625 -3.98562,-9.57581 -9.7847,-18.49138 -17.0625,-25.90625 1.64704,-11.60981 8.61284,-21.38874 16.78125,-29.34375 8.1257,-10.45818 11.46135,-28.23361 0.15625,-37.78125 -13.07886,-8.52064 -30.00532,-1.46826 -39.61336,8.98836 -5.37089,5.15419 -10.04283,12.46541 -13.98039,17.91789 -2.73764,-14.46152 -3.95917,-29.25667 -5.6875,-43.78125 0.35686,-2.53349 3.53869,7.1938 4.74388,9.48952 1.45128,3.70122 3.18737,7.23586 4.94362,10.82298 2.43467,-4.96239 5.44611,-11.15352 7.59375,-15.40625 1.85086,6.94281 3.35748,5.70266 4.90625,-0.53125 2.27449,-5.90505 0.89242,-14.76455 0.90625,-19.28125 4.10683,5.24659 4.72172,2.07817 4.03125,-3 C 523.07821,276.925 519.39909,262.095 508.6875,252.75 c 4.07798,-0.61574 11.98034,2.29245 13.39055,0.9341 -8.01471,-12.88309 -22.27437,-21.5559 -37.20305,-23.4341 5.39721,-10.20349 1.40894,-22.1011 0.25,-32.8125 -3.94016,10.58211 -8.85348,21.61232 -18.6875,28 1.70854,-14.88168 -7.71474,-27.68323 -12.59375,-41.0625 -0.3125,2.42708 -0.625,4.85417 -0.9375,7.28125 z" id="path5515" inkscape:connector-curvature="0"/>
    <path style="fill:url(#radialGradient6757);fill-opacity:1;stroke:none" d="m 411.52894,251.62755 c -18.92924,4.1523 -33.33158,19.8888 -47.17133,32.72781 -0.73213,-5.47407 -2.42944,-11.65857 -0.54096,-17.0401 -8.19704,7.61304 -15.23668,15.6256 -20.50221,22.39556 -15.30053,19.67212 -51.58795,50.73119 -64.26552,62.53446 -12.6776,11.80327 -30.13095,13.93606 -46.3058,21.36775 -16.17485,7.43167 -19.70396,31.50227 -18.39249,51.1744 1.31148,19.6721 5.2566,43.30087 58.15272,67.78173 20.89936,9.67242 40.80126,15.07883 57.2872,18.12201 0.19201,-5.57084 -0.99614,-11.12726 -2.017,-14.799 -19.88454,-4.23031 -38.53689,-9.76404 -56.62258,-19.2812 -23.65377,-11.11685 -48.01089,-31.6104 -47.55,-60.10016 -1.64769,-19.70498 16.83561,-35.33427 35.59488,-35.43259 0.48618,-0.0391 0.9736,-0.0509 1.46058,-0.054 0.48698,-0.003 0.97356,0.002 1.46058,0 25.91366,5.84973 49.01883,21.24927 74.54367,28.94112 24.99902,6.54321 53.31016,9.27747 77.9517,-0.1622 16.35916,-10.68013 34.09409,-20.52664 53.82508,-23.80205 21.48099,-5.94545 44.08997,2.69332 59.01825,18.44659 17.92668,16.31396 22.46145,44.02236 11.73874,65.7261 -10.91586,26.0281 -37.51677,41.85802 -65.07696,44.35836 -17.75759,2.99391 -35.55897,2.33589 -53.12183,-0.43277 0.68164,3.39177 1.16798,6.87237 1.46058,10.33225 17.94364,3.98943 41.50879,7.8928 61.61484,5.24727 33.22402,-4.37158 50.78607,-16.7503 66.37524,-52.47269 13.75496,-31.51932 2.56569,-58.9487 -12.1174,-77.03207 -12.94324,-15.94062 -30.0601,-21.13379 -42.51911,-22.88242 l 10.00768,-2.00154 c -11.91376,-13.0484 -12.20143,-51.72378 -16.55324,-79.62866 -2.81408,-2.41956 -6.18043,-4.4972 -10.27816,-5.95051 -0.38159,2.7408 0.38451,6.25141 0.1082,12.11741 2.56617,2.62707 4.16535,4.54402 4.16535,4.54402 0,0 -21.72836,-13.97185 -26.29044,-16.12047 -4.56208,-2.14862 -8.66084,-3.5293 -13.14522,-3.08345 -11.36247,1.27891 -31.6459,17.95973 -31.6459,17.95973 0,0 14.59661,-19.95938 32.18686,-21.42184 -5.30753,-3.49532 -10.01473,-7.65587 -12.2256,-13.90256 -2.20471,3.26003 -2.97025,4.71009 -9.08805,14.98447 0.0919,-7.96742 -0.5582,-32.87568 -11.52235,-33.16058 z m 47.06313,18.55477 c -0.81448,4.14814 -0.40368,10.86303 -0.91963,16.06638 8.16002,3.47628 15.41319,9.63556 20.12355,14.28123 -6.31562,-9.52353 -10.62881,-23.02712 -19.20392,-30.34761 z m -57.34129,4.54403 c 2.47127,-0.0734 4.92699,0.61974 6.81604,2.27201 9.14873,11.39168 1.00715,27.30919 -0.75734,39.86843 -1.15802,3.5141 -2.14603,7.09659 -3.02935,10.71092 0.10161,0.22308 0.22758,0.42163 0.32457,0.64915 2.62758,-2.06374 5.56056,-3.81982 8.65529,-5.30137 4.31337,-10.41629 12.70933,-18.93805 24.82986,-19.14983 0.60286,-0.0474 1.18652,-0.054 1.78516,-0.054 1.7959,-6e-5 3.59064,0.18792 5.35546,0.54095 14.31765,3.86422 24.09765,15.49132 29.80665,28.94112 7.27165,9.19691 11.34596,21.43692 12.00921,32.8901 -20.88201,-3.90088 -43.46328,-5.39226 -62.85903,4.59813 -9.59434,7.59799 -21.22109,-1.67695 -25.69539,-10.81912 -11.71523,10.46241 -28.16392,13.44477 -43.49283,12.55017 -6.9591,0.39069 -13.73541,-1.64161 -19.4744,-5.30136 -0.0156,-0.005 -0.0384,0.005 -0.054,0 -5.7388,-2.1219 -11.13574,-5.27284 -16.06638,-9.08806 -6.49109,-3.68782 -11.8734,-12.76381 -4.8686,-18.77115 2.03977,-1.72782 4.02267,-3.51424 6.00461,-5.30137 3.16709,-10.77715 12.36769,-17.38782 22.82832,-21.15136 0.0289,-0.0258 0.0793,-0.0282 0.10819,-0.054 4.2745,-3.83486 8.62726,-7.59605 13.25341,-11.08959 14.06744,-9.31586 26.68094,-22.83907 43.43873,-26.88549 0.35091,-0.0424 0.72888,-0.0436 1.08192,-0.054 z" id="path5313" inkscape:connector-curvature="0" sodipodi:nodetypes="cccssssscccccccccccccccssscccccczcccccccccccccccccscccccccccccccccccc"/>
    <path inkscape:connector-curvature="0" style="fill:url(#linearGradient5669);fill-opacity:1;stroke:none" d="m 260.60233,384.48624 c -12.10136,0.0961 -33.94909,7.38033 -33.53924,31.97047 0.43716,26.22949 17.69715,45.90779 58.09862,62.96723 13.13941,5.54809 29.66232,9.4784 37.43413,11.08959 4.74151,-4.25614 9.93984,-8.99167 15.41723,-12.76655 -2.84966,-2.46995 -5.29246,-5.40722 -7.08651,-9.08806 -6.06541,-13.31652 -1.35639,-28.0848 8.38481,-37.97508 -8.20816,-0.30228 -12.6245,-7.16784 -13.84847,-14.49761 -5.69254,4.52831 -14.95642,4.91894 -21.96279,3.7326 -11.45085,-0.88371 -12.61123,-14.11098 -11.19778,-23.04471 0.0312,-0.39709 0.077,-0.79302 0.10819,-1.1901 -13.35262,-5.82076 -24.87049,-10.73069 -29.53617,-11.08959 -0.71038,-0.0547 -1.46526,-0.1146 -2.27202,-0.10819 z m 240.67113,27.9674 c 1.05529,1.77092 1.43465,3.87447 1.40649,6.1128 0.57282,-1.9274 1.48036,-3.70694 2.70478,-5.30137 -1.37289,-0.46146 -2.7434,-0.77617 -4.11127,-0.81143 z m -87.20203,1.2442 c -4.16763,1.68144 -8.6506,2.92533 -13.30751,3.78669 -0.12187,2.08421 -0.6309,4.5662 -0.48686,6.11279 -0.47625,7.22925 -5.36297,11.23691 -11.41416,13.09113 -0.29949,1.77705 -0.98212,3.54642 -2.10973,5.19317 -6.3762,7.8244 4.97013,13.92982 11.68464,10.49454 12.18338,-3.66188 -1.07424,-20.78087 10.27816,-25.5331 5.90296,-2.62401 11.85989,-2.12638 17.0401,0.32457 0.45359,-1.78209 1.17483,-3.4616 2.10972,-4.97679 -1.92606,-0.471 -3.81997,-1.23843 -5.73413,-2.38021 -1.95055,-1.4414 -6.1062,-3.8838 -8.06023,-6.11279 z m 51.55306,1.94744 c -0.81067,0.0261 -1.62351,0.0708 -2.4343,0.1622 1.68522,2.17194 2.38353,4.93258 2.54249,7.89795 1.13996,-2.87849 2.79241,-5.49232 4.8686,-7.73567 -1.65852,-0.29298 -3.3211,-0.37789 -4.97679,-0.32457 z m 36.40631,7.89795 c -0.82078,3.75648 -2.24736,7.5002 -3.35392,10.44044 -3.3119,12.59275 -17.02584,19.95321 -29.42799,16.76962 -4.09828,-0.89433 -6.15946,-3.50577 -6.97832,-6.76194 -3.08991,7.78579 -11.02038,12.19482 -19.31212,13.03703 1.26259,15.86973 -7.91074,31.59933 -22.77423,38.13736 -1.56472,0.59268 -3.16113,1.01719 -4.7604,1.40649 2.02177,4.54918 3.5846,9.27835 4.7604,14.11894 25.87461,4.46156 67.91922,3.08196 90.55597,-12.00921 24.918,-16.61201 35.44441,-46.35659 28.88702,-68.2145 -0.0749,-0.24979 -0.13727,-0.50898 -0.21638,-0.75734 -0.1075,0.9476 -0.25398,1.88028 -0.37867,2.75887 -0.44604,12.7006 -14.27404,18.45312 -25.37081,16.06638 -11.07855,-1.32519 -12.74436,-14.08601 -11.41417,-23.0988 -0.10559,-0.64516 -0.18879,-1.26898 -0.21638,-1.89334 z" id="path5315"/>
    <path inkscape:connector-curvature="0" style="fill:url(#linearGradient5717);fill-opacity:1;stroke:none" d="m 400.76392,278.18847 c -1.93652,0.16756 -4.0958,0.86167 -6.22099,1.73105 -5.20515,2.1294 -27.96659,17.81922 -43.49283,30.61809 4.17159,-0.95499 8.35795,-1.51533 12.27969,-1.78515 14.42974,-1.38978 30.58423,2.45812 38.73242,14.76808 3.35107,-12.66682 7.05484,-28.44976 6.70785,-35.2162 -0.42503,-8.28821 -3.74582,-10.48445 -8.00614,-10.11587 z m -80.92695,60.69521 c -2.25182,2.09953 -4.04201,4.09954 -5.03089,6.27509 -1.64219,3.61282 4.3031,8.86677 11.30597,13.19931 -4.13946,-5.57392 -6.5619,-12.33692 -6.27508,-19.4744 z" id="path5317"/>
    <path inkscape:connector-curvature="0" style="fill:#000000;stroke:none" d="m 453.12842,371.71968 c -6.78308,-0.0453 -14.62898,0.74188 -22.39556,3.40802 -7.63829,2.62211 -13.5806,6.06565 -18.71706,9.41263 -2.22367,-3.27803 -6.64595,-9.21558 -9.03396,-8.81757 -3.2787,0.54644 -1.52787,11.33919 -0.21639,13.41569 0.25061,0.3968 0.64823,0.63689 1.08192,0.81144 -5.20517,3.36064 -10.13071,5.99262 -16.12048,6.38327 -14.21941,0.92735 -26.88549,-10.06177 -26.88549,-10.06177 0,0 15.8762,18.00522 32.02457,13.30751 17.00146,-4.9459 28.09879,-21.20546 54.52832,-24.4512 15.75534,-1.93487 25.37082,-0.91962 25.37082,-0.91962 0,0 -8.33157,-2.41292 -19.63669,-2.4884 z m -61.23617,2.10973 c -0.14714,-0.0177 -0.29743,0.005 -0.48686,0.054 -3.82514,0.9836 -11.93376,5.06788 -10.9273,8.38481 0.98651,3.25119 8.24926,1.6927 9.84539,0.32457 1.43442,-1.2295 3.77564,-8.49878 1.56877,-8.76348 z" id="path5319"/>
    <path style="fill:url(#linearGradient5633);fill-opacity:1;stroke:none" d="m 402.99605,334.51404 c 0,0 -3.27869,-20.76501 -29.94535,-22.29505 -26.66663,-1.53007 -44.37154,9.83604 -48.52454,20.10926 -4.153,10.27322 1.53006,34.53549 28.1967,36.50271 26.66665,1.96721 39.99997,-7.21311 46.9945,-15.08196 0,0 3.06011,12.89617 16.39343,16.83059 0,0 18.82769,-9.57384 33.22401,-10.71038 16.61201,-1.31147 33.66119,2.18579 33.66119,2.18579 0,0 -3.2787,-34.31691 -31.4754,-39.56281 -28.19669,-5.24588 -40.21854,4.80874 -48.52454,12.02185 z" id="path5330" inkscape:connector-curvature="0" sodipodi:nodetypes="csssccscsc"/>
    <path style="fill:url(#linearGradient5733);fill-opacity:1;stroke:none" d="m 456.9714,204.67261 c 0,0 -0.47881,9.95167 -4.05717,18.2302 -1.92474,4.45292 -5.52397,7.64719 -8.22252,9.57491 -4.01091,-6.62062 -14.25772,-20.25552 -32.72781,-24.50529 -24.69943,-5.68304 -46.79266,1.73106 -46.79266,1.73106 0,0 23.78124,1.42184 33.86382,7.46519 9.52064,5.7065 12.71246,12.44198 12.71246,12.44198 0,0 -13.34951,-9.87176 -36.08174,-7.24881 -22.73222,2.62295 -45.87303,15.30904 -45.87303,15.30904 0,0 29.93515,-4.34083 38.67832,-3.02935 8.74316,1.31147 14.6599,5.68004 14.6599,5.68004 0,0 -18.15908,-1.75029 -30.61809,10.9273 -12.45899,12.67757 -15.95819,21.8546 -15.95819,21.8546 0,0 19.22645,-10.9229 27.75102,-11.36006 8.5246,-0.43716 11.14369,-0.21638 11.14369,-0.21638 0,0 -7.18372,3.04171 -8.27662,7.1947 -1.09289,4.153 -0.21639,8.33072 -0.21639,8.33072 0,0 28.83486,-28.44987 44.79113,-28.88703 15.95626,-0.43716 14.17303,25.15444 14.17303,25.15444 l 6.81604,-13.57799 c 0,0 2.80116,13.15099 9.35853,17.95973 6.55737,4.80874 11.84693,7.62747 11.84693,7.62747 l 1.94744,-21.20546 c 0,0 9.16768,4.82027 12.00921,9.62901 2.84153,4.80874 8.11434,15.74181 8.11434,15.74181 0,0 1.66844,-13.03289 -3.031,-20.51925 4.42621,4.20766 5.58874,7.49733 6.0079,9.91543 0.5453,3.14569 0.26883,7.73675 0.26883,7.73675 0,0 12.06468,2.84647 17.31058,10.27816 5.2459,7.43169 10.00768,19.04164 10.00768,19.04164 0,0 5.453,-8.91803 4.48993,-21.09727 2.65527,3.33362 3.6244,7.51928 3.6244,7.51928 0,0 0.009,-4.36993 -0.86553,-10.9273 -0.87432,-6.55739 -7.68157,-18.98754 -7.68157,-18.98754 l 12.27969,11.79283 c 0,0 0.43138,-5.01605 -4.8145,-17.25648 -5.2459,-12.24043 -27.10187,-20.7727 -27.10187,-20.7727 l 22.50375,1.08191 c 0,0 -8.54985,-8.30435 -19.04164,-10.9273 -10.4918,-2.62295 -20.98908,2.59659 -20.98908,2.59659 0,0 6.12956,-4.54759 9.8454,-9.57492 3.71585,-5.02732 3.91805,-7.61201 3.29982,-12.71245 -3.70941,7.72794 -7.63095,9.05958 -11.90102,12.65836 -4.2808,3.60783 -15.30904,8.76348 -15.30904,8.76348 0,0 5.65673,-6.30706 6.43737,-13.95665 0.90962,-8.91339 -4.38174,-19.4744 -4.38174,-19.4744 z" id="path5332" inkscape:connector-curvature="0" sodipodi:nodetypes="cscscscscscscscscsccsccsccscscccsccsccscscscsc"/>
    <path style="fill:url(#linearGradient5653);fill-opacity:1;stroke:none" d="m 370.5245,319.03061 c -14.7591,0.0765 -35.30617,2.74136 -40.24709,19.14983 -1.38557,16.13976 16.02144,26.54323 30.61808,24.07252 13.93331,0.14541 28.34817,-5.30012 37.16365,-16.49914 0.9731,-15.19249 -12.51769,-28.16738 -27.53464,-26.72321 z m 64.42781,8.81758 c -11.84613,0.53692 -22.80767,6.53474 -30.99675,14.65989 1.54755,7.4252 3.80623,19.23971 12.98293,20.01536 17.33547,-8.87164 37.88955,-11.77476 57.2872,-8.87167 -3.88986,-15.80039 -19.13763,-27.14939 -35.3785,-25.80358 -1.29639,-0.0829 -2.59849,-0.0829 -3.89488,0 z" id="path5635" inkscape:connector-curvature="0"/>
    <path inkscape:connector-curvature="0" style="fill:url(#linearGradient5725);fill-opacity:1;stroke:none" d="m 439.60453,307.18369 c -2.63275,0.0405 -5.45399,0.52935 -8.43891,1.51467 -6.50421,2.14701 -10.56492,7.08693 -13.14522,12.1715 9.86883,-3.57439 21.10565,-4.37655 31.42952,-2.21792 6.72019,0.63329 12.60025,3.0889 17.58106,6.76195 -0.39486,-0.59457 -0.81956,-1.15943 -1.2442,-1.73106 -6.53011,-8.79052 -14.7737,-16.67476 -26.18225,-16.49914 z" id="path5345"/>
    <path transform="matrix(1.7310578,0,0,1.7310578,-378.86125,-295.7113)" sodipodi:type="arc" style="fill:#000000;fill-opacity:1;stroke:none" id="path5368" sodipodi:cx="441.42856" sodipodi:cy="367.04968" sodipodi:rx="7.4107141" sodipodi:ry="5.1339288" d="m 448.83927,367.04968 c 0,2.83539 -3.31789,5.13393 -7.41071,5.13393 -4.09283,0 -7.41072,-2.29854 -7.41072,-5.13393 0,-2.83539 3.31789,-5.13393 7.41072,-5.13393 4.09282,0 7.41071,2.29854 7.41071,5.13393 z"/>
    <path d="m 448.83927,367.04968 c 0,2.83539 -3.31789,5.13393 -7.41071,5.13393 -4.09283,0 -7.41072,-2.29854 -7.41072,-5.13393 0,-2.83539 3.31789,-5.13393 7.41072,-5.13393 4.09282,0 7.41071,2.29854 7.41071,5.13393 z" sodipodi:ry="5.1339288" sodipodi:rx="7.4107141" sodipodi:cy="367.04968" sodipodi:cx="441.42856" id="path5370" style="fill:#ffffff;stroke:none" sodipodi:type="arc" transform="matrix(0.82376092,0,0,0.78575081,18.940723,49.347245)"/>
    <path d="m 448.83927,367.04968 c 0,2.83539 -3.31789,5.13393 -7.41071,5.13393 -4.09283,0 -7.41072,-2.29854 -7.41072,-5.13393 0,-2.83539 3.31789,-5.13393 7.41072,-5.13393 4.09282,0 7.41071,2.29854 7.41071,5.13393 z" sodipodi:ry="5.1339288" sodipodi:rx="7.4107141" sodipodi:cy="367.04968" sodipodi:cx="441.42856" id="path5372" style="fill:#000000;stroke:none" sodipodi:type="arc" transform="matrix(1.0564671,0,0,1.073407,-51.32506,-47.520205)"/>
    <path transform="matrix(0.46203552,0,0,0.46944403,209.15131,172.77319)" sodipodi:type="arc" style="fill:#ffffff;stroke:none" id="path5374" sodipodi:cx="441.42856" sodipodi:cy="367.04968" sodipodi:rx="7.4107141" sodipodi:ry="5.1339288" d="m 448.83927,367.04968 c 0,2.83539 -3.31789,5.13393 -7.41071,5.13393 -4.09283,0 -7.41072,-2.29854 -7.41072,-5.13393 0,-2.83539 3.31789,-5.13393 7.41072,-5.13393 4.09282,0 7.41071,2.29854 7.41071,5.13393 z"/>
    <path style="fill:url(#linearGradient5709);fill-opacity:1;stroke:none" d="m 330.56334,490.29041 c 1.5456,-0.30911 19.16529,-22.41102 33.38468,-14.06484 14.21941,8.34617 12.36471,39.87614 12.36471,39.87614 0,0 5.56412,-14.52851 2.16382,-28.74792 0,0 13.60116,-8.9644 23.49293,-3.70941 9.89175,5.255 20.71086,35.2394 16.38322,61.51438 -4.32765,26.27499 -12.67381,51.31351 -46.0585,49.76792 -33.38468,-1.5456 -44.82204,-15.14676 -48.22232,-34.00293 -3.4003,-18.85617 8.34617,-24.42028 9.58263,-42.34908 1.23648,-17.92883 -3.09117,-28.28426 -3.09117,-28.28426 z" id="path5376" inkscape:connector-curvature="0" sodipodi:nodetypes="csccsssssc"/>
    <path inkscape:connector-curvature="0" style="fill:url(#linearGradient5677);fill-opacity:1;stroke:none" d="m 362.19379,424.08418 c -3.3253,5.53563 -11.33374,7.0918 -18.23021,6.92423 -5.5323,4.55161 -10.15466,11.22347 -11.84692,20.7727 -2.01684,11.38073 3.0304,19.05283 8.97986,24.01843 4.68409,-2.8289 9.52818,-4.80553 14.38942,-4.9768 9.33277,-0.79606 16.75802,6.29081 19.85307,14.44352 9.87153,-7.28469 27.32045,-10.87811 34.94573,1.62286 1.38782,2.21243 2.63761,4.48796 3.78669,6.81604 1.05636,-0.20803 2.03099,-0.48514 2.75887,-0.81143 8.9644,-4.01853 23.79432,-14.18849 22.55785,-33.97201 -0.0381,-0.60907 -0.10819,-1.19175 -0.1622,-1.78515 -1.55958,-0.0403 -3.08818,-0.1944 -4.59813,-0.48686 -12.26824,-1.40791 -11.92929,-15.68873 -9.41262,-24.72167 -0.007,-0.42678 0.0337,-0.82925 0.054,-1.2442 -3.04945,-1.54943 -6.46279,-2.23819 -10.16997,-1.89334 -13.29206,1.23647 -5.5332,10.36316 -8.00614,19.63668 -2.47294,9.27352 -17.03866,10.03695 -22.44966,5.24727 -6.21882,-5.50474 -1.76484,-10.65817 0.1622,-16.06638 -4.14214,0.62259 -8.48545,0.44073 -12.1715,-0.27048 -7.49825,-0.60128 -10.07342,-6.7341 -10.44044,-13.25341 z" id="path5378"/>
    <path style="fill:#d3bc5f;stroke:none" d="m 430.7174,423.21192 c 0,0 11.12823,-11.59191 21.79279,-9.11897 10.66454,2.47294 9.89175,7.26426 9.58263,12.21014 -0.30911,4.94589 -1.70014,21.63822 -11.12822,25.03852 -9.42809,3.4003 -17.92881,3.09117 -22.10191,-1.54559 -4.17308,-4.63676 1.85471,-26.5841 1.85471,-26.5841 z" id="path5401" inkscape:connector-curvature="0"/>
    <path inkscape:connector-curvature="0" id="path5403" d="m 471.58338,419.33754 c 0,0 11.55879,-10.91915 20.51382,-8.58974 8.95498,2.32942 7.52944,6.84267 6.48589,11.5015 -1.04357,4.65884 -4.87019,20.38241 -13.65983,23.58536 -8.78965,3.20296 -16.1874,2.91177 -19.11824,-1.45588 -2.93085,-4.36765 5.77836,-25.04124 5.77836,-25.04124 z" style="fill:#d3bc5f;stroke:none"/>
    <path inkscape:connector-curvature="0" style="fill:#d3bc5f;stroke:none" d="m 521.93797,408.0178 c -8.52297,0.52886 -15.36314,8.87167 -15.36314,8.87167 0,0 -3.00548,20.62956 1.40648,24.99215 4.41195,4.3626 12.33414,4.65982 20.66451,1.46058 7.19607,-2.76363 7.66192,-14.85485 7.46518,-21.09727 -2.42,-4.90938 -5.56857,-9.4998 -9.25034,-13.63208 -0.38864,-0.10438 -0.76641,-0.22763 -1.1901,-0.32457 -1.27106,-0.29083 -2.51502,-0.34602 -3.73259,-0.27048 z" id="path5405"/>
    <path inkscape:connector-curvature="0" style="fill:url(#linearGradient5741);fill-opacity:1;stroke:none" d="m 397.08542,418.13367 c -10.16098,1.44493 -20.95163,1.30863 -31.05085,0.48686 -0.49351,4.68835 -0.64885,11.22366 2.16382,13.19932 4.53247,3.18369 12.70162,3.4166 21.25956,1.08191 7.08726,-1.93351 7.75671,-10.08054 7.62747,-14.76809 z" id="path5407"/>
    <path inkscape:connector-curvature="0" style="fill:url(#linearGradient5743);fill-opacity:1;stroke:none" d="m 328.60045,410.77668 c 0.28612,4.70259 1.30594,12.00201 4.70631,14.11894 5.1138,3.18369 13.29023,3.36251 21.42184,1.02781 3.9446,-1.13256 5.3085,-4.3785 5.57184,-7.84385 -4.27445,-0.46047 -8.38746,-1.04072 -12.1715,-1.62287 -5.26021,-0.80927 -12.0695,-2.92836 -19.52849,-5.68003 z" id="path5409"/>
    <path inkscape:connector-curvature="0" style="fill:url(#linearGradient5745);fill-opacity:1;stroke:none" d="m 295.76444,397.1446 c -0.28057,2.57977 -1.2922,14.40934 2.97526,17.25648 4.77183,3.18369 12.87717,3.36251 21.25955,1.02781 3.18949,-0.88836 4.98342,-3.09606 5.89642,-5.68003 -9.72806,-3.70869 -20.28999,-8.30324 -30.13123,-12.60426 z" id="path5411"/>
    <path inkscape:connector-curvature="0" style="fill:url(#linearGradient5781);fill-opacity:1;stroke:none" d="m 482.77278,387.73197 c -17.76003,0.5713 -42.44822,8.61411 -58.58548,20.44812 -2.00268,1.46863 -4.17114,2.76311 -6.43738,3.89488 2.89617,2.9235 6.97861,6.04882 12.33379,7.03242 0.0509,0.009 0.11096,-0.009 0.1622,0 4.27234,-4.62741 10.67007,-7.56382 16.87781,-8.70938 3.704,-0.43777 7.41958,0.36738 10.81912,1.78515 0.51196,0.1841 0.95424,0.42569 1.40648,0.64915 2.93113,-0.71853 5.52162,-1.08115 7.46519,-0.70324 2.14201,0.4165 4.49777,0.75645 6.92423,0.97372 4.1857,-3.3132 9.33284,-5.46731 14.71399,-6.1128 2.64317,-0.28654 5.1885,0.4808 7.62747,1.40648 0.80441,0.29459 1.52711,0.63786 2.16383,1.02782 1.34934,-0.50026 2.86767,-0.67397 5.08498,-0.1622 1.45838,0.33655 3.04571,0.84461 4.59812,1.35239 3.74779,-3.35202 8.80091,-5.54046 13.79437,-6.05871 0.27136,-0.0251 0.54142,0.007 0.81143,0 -9.10957,-8.37238 -20.01316,-14.16841 -29.2657,-16.06638 -2.13114,-0.43716 -4.47753,-0.69039 -7.03242,-0.75733 -1.11776,-0.0293 -2.2781,-0.0381 -3.46211,0 z m -33.10648,12.1715 c 5.38242,-0.12896 10.16997,4.00307 10.16997,4.00307 0,0 -6.67853,-1.86444 -11.52236,-1.08191 -4.84383,0.78251 -11.63054,3.73259 -11.63054,3.73259 0,0 6.08842,-5.76303 11.90102,-6.54556 0.36328,-0.049 0.72308,-0.0995 1.08191,-0.10819 z" id="path5413"/>
    <path inkscape:connector-curvature="0" style="fill:url(#linearGradient6759);fill-opacity:1;stroke:none" d="m 283.64704,265.31372 c -10.28724,0.0995 -13.3983,12.49608 -14.6058,19.25802 -1.54558,8.65529 6.47601,22.85924 4.00307,34.29659 -2.47294,11.43735 -7.0788,21.97051 -3.6785,31.86228 0.41894,1.21871 0.89044,2.29709 1.35239,3.29983 13.01338,-8.79852 23.80729,-21.32399 35.86535,-31.42952 1.79677,-1.49962 3.522,-3.08179 5.24727,-4.65222 -0.69749,-14.36998 -3.85034,-41.69969 -17.74334,-49.44334 -4.12478,-2.29907 -7.56001,-3.21951 -10.44044,-3.19164 z m -7.46519,14.93038 c 0,0 12.31833,5.07724 14.17304,21.15136 1.85471,16.0741 -2.00154,31.7 -2.00154,31.7 0,0 -0.45594,-17.93655 -0.91962,-26.12816 -4.01853,1.08191 -9.25034,14.71399 -9.25034,14.71399 0,0 1.21328,-17.15601 7.08652,-19.4744 -0.30912,-3.86396 0.34003,-9.75265 -9.08806,-21.96279 z" id="path5491"/>
    <path style="fill:url(#linearGradient6761);fill-opacity:1;stroke:none" d="m 540.33046,327.14495 c -15.43412,0.53006 -30.22646,22.01085 -37.65051,34.67525 2.07529,5.84574 4.98061,11.23354 9.19624,15.7959 2.12321,0.73333 4.15731,1.59491 6.1669,2.54249 1.96355,-5.79913 5.34098,-14.27698 10.54863,-22.07099 8.98938,-13.45392 22.34146,-12.33378 22.34146,-12.33378 -13.96298,6.5583 -16.08275,12.0666 -18.12201,15.36314 4.16673,4.74429 -2.59658,20.55631 -2.59658,20.55631 0,0 1.56653,-14.45911 -1.51468,-17.25649 -2.63218,4.48517 -6.36761,11.15897 -9.25034,16.39096 5.2632,2.64005 10.11727,5.99597 14.49761,9.89948 0.66242,-3.00468 1.28967,-6.07459 2.10973,-9.14214 3.02206,-11.30466 16.62705,-20.31864 19.20392,-28.72475 2.01315,-6.56728 4.94151,-19.01643 -4.16536,-23.80204 -2.54993,-1.33998 -6.04554,-2.05537 -10.76501,-1.89334 z" id="path5500" inkscape:connector-curvature="0" sodipodi:nodetypes="ccccsccccccsssc"/>
    <path style="fill:url(#linearGradient5693);fill-opacity:1;stroke:none" d="m 356.20464,477.91698 c -7.05145,1.54097 -16.93018,6.64404 -17.36467,13.74027 4.5865,18.53146 -0.17121,37.82249 -8.22253,54.58242 -4.03409,18.72968 12.1606,36.68669 30.78037,37.38003 16.28225,3.9433 37.96425,-0.70951 43.11416,-18.44658 10.44436,-24.76344 11.5537,-56.77607 -5.78822,-78.54675 -4.86779,-2.56119 -15.69505,-1.05311 -12.55017,6.49146 0.60701,13.74479 -4.60799,27.06061 -13.57799,37.38003 -6.54359,-16.69946 1.25052,-38.32037 -12.38788,-51.66125 -1.17573,-0.67894 -2.63379,-1.14913 -4.00307,-0.91963 z" id="path5679" inkscape:connector-curvature="0"/>
    <path style="fill:url(#linearGradient5769);fill-opacity:1;stroke:none" d="m 447.88115,417.32224 c -7.98947,1.55537 -16.29232,6.78798 -15.85,15.90409 -1.02259,5.60733 -3.91953,16.72948 5.08498,16.82372 9.27086,1.42329 19.1115,-3.5689 20.06945,-13.52389 0.63954,-5.92724 5.29484,-17.16017 -3.84078,-18.66297 -1.76788,-0.48121 -3.61614,-0.83852 -5.46365,-0.54095 z" id="path5747" inkscape:connector-curvature="0"/>
    <path style="fill:url(#linearGradient5767);fill-opacity:1;stroke:none" d="m 489.04787,413.91422 c -10.04649,1.01132 -17.34775,9.18054 -18.7235,19.02396 -1.34272,3.89185 -4.00302,12.24969 3.14398,11.54003 10.24227,1.35935 18.10724,-6.90836 19.96126,-16.44505 1.24305,-4.47241 5.61706,-13.42977 -2.21792,-13.90256 -0.69367,-0.18444 -1.45092,-0.34921 -2.16382,-0.21638 z" id="path5749" inkscape:connector-curvature="0"/>
    <path style="fill:url(#linearGradient5765);fill-opacity:1;stroke:none" d="m 522.15435,411.47992 c -8.20432,0.76932 -14.77939,7.82829 -13.09113,16.44505 -0.84508,6.0596 0.0213,14.78289 8.06024,14.06484 7.37313,0.93323 15.66737,-3.05014 15.20085,-11.63054 2.07812,-7.25104 -3.07484,-15.56505 -8.92576,-18.87935 -0.40647,-0.0995 -0.8356,-0.0545 -1.2442,0 z" id="path5751" inkscape:connector-curvature="0"/>
    <path style="fill:url(#linearGradient6677);fill-opacity:1;stroke:none" d="m 413.78374,308.13229 c 0.88388,-0.25253 16.54125,-18.43528 32.07234,-19.31916 8.96481,-0.5102 37.88072,20.58185 37.88072,20.58185 l -11.61675,8.46003 c 0,0 -18.43529,-15.9099 -29.67323,-15.53109 -11.23795,0.3788 -15.40483,1.38896 -18.43529,4.16688 -3.03046,2.77792 -8.83883,7.95495 -8.83883,7.95495 z" id="path6661" inkscape:connector-curvature="0" sodipodi:nodetypes="csccsscc"/>
    <path style="fill:url(#linearGradient6690);fill-opacity:1;stroke:none" d="m 468.6875,375.5625 c -10.96795,0.0472 -20.82819,1.99694 -27.5,3.28125 -17.46628,3.36222 -44.19495,24.23984 -52.78125,25.25 C 379.81996,405.1039 361.125,394.75 361.125,394.75 c 0,0 -2.49856,10.04086 -4.78125,19.34375 19.54006,3.01986 39.92786,2.74956 58.28125,-4.28125 16.35916,-10.68013 34.08151,-20.53709 53.8125,-23.8125 15.65388,-4.33264 31.90073,-0.92279 45.34375,7.34375 l 4.1875,-5.90625 c 0,0 -10.37722,-4.29299 -28.8125,-9.34375 -6.91323,-1.89404 -13.88798,-2.55955 -20.46875,-2.53125 z" id="path6679" inkscape:connector-curvature="0"/>
    <path style="fill:url(#linearGradient6711);fill-opacity:1;stroke:none" d="m 410.46875,253.5 c -11.60612,0.22971 -46.6982,33.28393 -47.1875,33.40625 l 5.6875,0.25 4.40625,-1.5 4.9375,-0.0312 c 6.74468,-4.78727 13.81123,-8.90418 21.84375,-10.84375 0.35091,-0.0424 0.74071,-0.0521 1.09375,-0.0625 2.47127,-0.0734 4.92345,0.62898 6.8125,2.28125 2.1008,2.61585 3.27978,5.47108 3.84375,8.46875 L 421.5,285.4063 c 0,0 0.35407,-29.7922 -10,-31.8125 -0.32356,-0.0631 -0.65686,-0.10116 -1.03125,-0.0937 z" id="path6692" inkscape:connector-curvature="0"/>
    <path style="fill:url(#linearGradient6763);fill-opacity:1;stroke:none" d="m 283.40625,267.84375 c -0.2955,0.004 -0.58026,0.007 -0.875,0.0312 -8.51938,1.55163 -10.9216,12.3822 -11.6875,19.78125 1.1322,12.35628 7.75949,24.9281 2.875,37.4375 -2.01652,8.30203 -5.88436,18.9039 -1.75,26.125 13.49599,-10.06383 24.78223,-22.89138 37.8125,-33.59375 -1.37812,-15.52539 -2.49137,-33.30124 -14,-45 -3.45026,-2.69884 -7.9425,-4.83823 -12.375,-4.78125 z M 276.1875,280.25 c 0,0 12.30154,5.08213 14.15625,21.15625 1.85471,16.0741 -2,31.6875 -2,31.6875 0,0 -0.44257,-17.93339 -0.90625,-26.125 -4.01853,1.08191 -9.25,14.71875 -9.25,14.71875 0,0 1.22051,-17.15036 7.09375,-19.46875 -0.30912,-3.86396 0.33434,-9.75861 -9.09375,-21.96875 z" id="path6713" inkscape:connector-curvature="0"/>
    <path style="fill:url(#linearGradient6765);fill-opacity:1;stroke:none" d="m 540.4375,329.65625 c -13.67219,1.44582 -22.75913,14.29202 -30.25,24.5625 -2.36498,3.90221 -7.18282,8.18896 -3.5,12.5625 2.50568,4.25908 4.62776,11.00496 10.78125,9.9375 0.57014,0.0614 1.13878,0.17485 1.6875,0.3125 2.03868,-5.49746 5.10017,-12.44605 9.4375,-18.9375 8.98938,-13.45392 22.34375,-12.34375 22.34375,-12.34375 -13.96298,6.5583 -16.08574,12.07846 -18.125,15.375 4.16673,4.74429 -2.59375,20.5625 -2.59375,20.5625 0,0 1.54996,-14.48387 -1.53125,-17.28125 -2.15173,3.66649 -4.97351,8.70411 -7.53125,13.3125 4.50087,1.88107 8.24535,5.86146 11.3125,8.5 2.37603,-14.06497 16.31383,-21.85427 21.1875,-34.5 2.2032,-6.80771 3.55981,-17.59046 -4.375,-20.84375 -2.83124,-1.11597 -5.82359,-1.32789 -8.84375,-1.21875 z" id="path6715" inkscape:connector-curvature="0"/>
  </g>
</svg>