<?xml version="1.0" encoding="UTF-8"?>
<!DOCTYPE svg PUBLIC "-//W3C//DTD SVG 1.1//EN" "http://www.w3.org/Graphics/SVG/1.1/DTD/svg11.dtd">
<svg version="1.1" xmlns="http://www.w3.org/2000/svg" xmlns:xlink="http://www.w3.org/1999/xlink" x="0" y="0" width="1216.579" height="1266.881" viewBox="0, 0, 1216.579, 1266.881">
  <g id="Layer_1">
    <path d="M896.363,360.851 C875.027,366.939 275.755,424.947 275.755,526.931 C275.755,628.899 275.763,608.507 313.635,620.163 C351.507,631.819 934.243,660.955 942.987,625.995 C951.723,591.027 937.155,349.195 896.363,360.851" fill="#789EC7" id="path833"/>
    <path d="M896.363,360.851 C875.027,366.939 275.755,424.947 275.755,526.931 C275.755,628.899 275.763,608.507 313.635,620.163 C351.507,631.819 934.243,660.955 942.987,625.995 C951.723,591.027 937.155,349.195 896.363,360.851 z" fill-opacity="0" stroke="#6E5E4E" stroke-width="8" id="path835"/>
    <path d="M1170.419,1130.691 L93.707,1115.715 L54.579,583.883 L1182.083,583.883 L1170.419,1130.691" fill="#C3A877" id="path837"/>
    <path d="M93.707,1115.715 L54.579,583.883 L42.987,637.979 L82.131,1150.491 L92.259,1122.963" fill="#D9BC87" id="path839"/>
    <path d="M1170.419,1130.691 L93.707,1115.715 L82.131,1150.491 L1170.419,1158.715 L1170.419,1130.691" fill="#AF9270" id="path841"/>
    <path d="M67.763,1029.227 C76.643,1035.451 88.939,1037.491 92.267,1036.635 C111.323,1031.691 364.579,978.747 364.579,978.747 L344.075,913.387 L53.867,959.115 C53.867,959.115 51.755,1011.491 67.763,1029.227" fill="#6CB692" id="path843"/>
    <path d="M345.811,933.787 L351.131,970.035 L89.899,1025.547 C69.707,1024.171 59.371,1015.667 61.379,986.155 C61.379,986.155 329.147,926.403 345.811,933.787" fill="#E7F0F3" id="path845"/>
    <path d="M294.203,683.739 L33.715,728.387 C16.427,730.323 -1.613,743.131 0.115,763.539 C1.843,783.939 59.163,1018.771 59.163,1018.771 C60.747,1023.099 63.939,1026.555 67.763,1029.227 C64.459,1009.771 71.827,993.107 97.107,988.595 C119.883,984.523 332.843,940.699 356.675,934.523 L294.203,683.739" fill="#6EAE8E" id="path847"/>
    <path d="M94.363,989.139 C71.299,994.355 64.579,1010.491 67.763,1029.227 C63.939,1026.555 60.747,1023.099 59.163,1018.771 C59.163,1018.771 1.843,783.939 0.115,763.539 C-1.613,743.131 16.427,730.323 33.715,728.387 L94.363,989.139" fill="#99B68B" id="path849"/>
    <path d="M75.787,1003.771 L347.171,944.275 M74.043,1014.067 L347.427,955.739 M83.003,1019.867 L347.899,964.091" fill-opacity="0" stroke="#D4DEE6" stroke-width="8" id="path851"/>
    <path d="M591.643,83.523 C597.635,86.627 680.499,171.715 705.939,180.211" fill-opacity="0" stroke="#6E5E4E" stroke-width="8" id="path853"/>
    <path d="M538.251,665.163 L375.987,888.899 L769.355,942.995 L836.971,688.523 L538.251,665.163" fill="#FFFFFE" id="path855"/>
    <path d="M769.355,942.995 L774.283,974.915 C774.283,974.915 773.043,981.067 748.459,979.835 C723.875,978.603 690.683,972.459 690.683,972.459 L686.995,934.355 L769.355,942.995" fill="#D36D54" id="path857"/>
    <path d="M774.283,974.915 L840.659,721.683 L836.971,688.523 L769.355,942.995 L774.283,974.915" fill="#E0E4E5" id="path859"/>
    <path d="M544.803,865.075 L751.003,899.883 M635.859,853.027 L749.667,874.443 M665.315,831.603 L752.339,847.667 M499.283,792.771 L593.011,804.819 M522.043,772.683 L590.331,780.723" fill-opacity="0" stroke="#6E5E4E" stroke-width="8" id="path861"/>
    <path d="M663.979,791.427 L773.771,802.139 M772.435,780.723 L693.435,761.979" fill-opacity="0" stroke="#6E5E4E" stroke-width="8" stroke-linejoin="bevel" id="path863"/>
    <path d="M777.787,757.955 L651.923,741.883 M784.483,741.883 L708.163,731.179 M792.515,724.475 L717.531,709.763" fill-opacity="0" stroke="#6E5E4E" stroke-width="8" id="path865"/>
    <path d="M375.987,888.899 L769.355,942.995 C742.315,978.603 679.627,1153.163 710.355,1263.803 C680.843,1272.411 379.675,1260.099 331.731,1261.339 C314.523,1191.275 308.371,949.099 375.987,888.899" fill="#F2EDC2" id="path867"/>
    <path d="M260.139,1003.931 C247.683,1010.155 56.211,986.803 56.211,986.803 L109.659,880.427 L265.331,892.891 L271.555,897.043 L280.371,915.195 L260.139,1003.931" fill="#FFFFFE" id="path869"/>
    <path d="M87.347,898.083 L56.211,986.803 C56.211,986.803 247.683,1010.155 260.139,1003.931 C260.139,1003.931 274.147,915.195 274.147,902.747 C274.147,890.291 96.683,873.171 96.683,873.171 z" fill-opacity="0" stroke="#6E5E4E" stroke-width="8" id="path871"/>
    <path d="M56.211,986.803 L90.843,885.851 L107.931,890.955 L82.179,989.219 L56.211,986.803" fill="#CCC5BE" id="path873"/>
    <path d="M87.347,898.083 L56.211,986.803" fill-opacity="0" stroke="#6E5E4E" stroke-width="8" id="path875"/>
    <path d="M260.139,1003.931 C247.683,1010.155 56.211,986.803 56.211,986.803 L59.331,1016.387 L267.731,1037.363 L260.139,1003.931" fill="#FFFFFE" id="path877"/>
    <path d="M260.139,1003.931 C247.683,1010.155 56.211,986.803 56.211,986.803 L59.331,1016.387 L267.731,1037.363 z" fill-opacity="0" stroke="#6E5E4E" stroke-width="8" stroke-linejoin="bevel" id="path879"/>
    <path d="M274.147,902.747 C274.147,915.195 260.139,1003.931 260.139,1003.931 L267.731,1037.363 C267.731,1037.363 288.387,932.851 288.387,922.467 L274.147,902.747" fill="#E0DAD3" id="path881"/>
    <path d="M274.147,902.747 C274.147,915.195 260.139,1003.931 260.139,1003.931 L267.731,1037.363 C267.731,1037.363 288.387,932.851 288.387,922.467 z" fill-opacity="0" stroke="#6E5E4E" stroke-width="8" id="path883"/>
    <path d="M108.883,891.323 L95.531,941.755 L125.203,944.731 L135.587,892.795 L108.883,891.323" fill="#3E7DB4" id="path885"/>
    <path d="M108.883,891.323 L95.531,941.755 L125.203,944.731 L135.587,892.795 z" fill-opacity="0" stroke="#6E5E4E" stroke-width="8" stroke-linejoin="bevel" id="path887"/>
    <path d="M125.203,944.731 L95.531,941.755 C94.051,952.131 92.563,977.363 97.019,981.803 C101.467,986.259 126.683,953.619 125.203,944.731" fill="#F8EAC1" id="path889"/>
    <path d="M125.203,944.731 L95.531,941.755 C94.051,952.131 92.563,977.363 97.019,981.803 C101.467,986.259 126.683,953.619 125.203,944.731 z" fill-opacity="0" stroke="#6E5E4E" stroke-width="8" stroke-linejoin="bevel" id="path891"/>
    <path d="M111.227,970.947 C105.163,978.363 99.011,983.803 97.019,981.803 C95.363,980.147 91.427,974.875 94.203,970.027 C98.499,962.523 109.123,963.043 111.227,970.947" fill="#3E7DB4" id="path893"/>
    <path d="M111.227,970.947 C105.163,978.363 99.011,983.803 97.019,981.803 C95.363,980.147 91.427,974.875 94.203,970.027 C98.499,962.523 109.123,963.043 111.227,970.947 z" fill-opacity="0" stroke="#6E5E4E" stroke-width="8" stroke-linejoin="bevel" id="path895"/>
    <path d="M212.723,855.715 L181.571,941.755 C188.995,934.339 214.059,948.707 214.211,949.163 L245.363,867.579 C246.843,860.163 224.595,852.747 212.723,855.715" fill="#15A748" id="path897"/>
    <path d="M212.723,855.715 L181.571,941.755 C188.995,934.339 214.059,948.707 214.211,949.163 L245.363,867.579 C246.843,860.163 224.595,852.747 212.723,855.715 z" fill-opacity="0" stroke="#6E5E4E" stroke-width="8" stroke-linejoin="bevel" id="path899"/>
    <path d="M214.211,949.163 C214.059,948.707 188.995,934.339 181.571,941.755 C177.123,953.619 172.675,989.227 181.571,986.259 C190.475,983.291 209.763,959.547 214.211,949.163" fill="#F8EAC1" id="path901"/>
    <path d="M214.211,949.163 C214.059,948.707 188.995,934.339 181.571,941.755 C177.123,953.619 172.675,989.227 181.571,986.259 C190.475,983.291 209.763,959.547 214.211,949.163 z" fill-opacity="0" stroke="#6E5E4E" stroke-width="8" stroke-linejoin="bevel" id="path903"/>
    <path d="M196.179,974.307 C190.731,980.243 185.259,985.035 181.571,986.259 C176.939,987.803 175.931,978.883 176.643,968.307 C180.091,962.523 195.955,968.291 196.179,974.307" fill="#15A748" id="path905"/>
    <path d="M196.179,974.307 C190.731,980.243 185.259,985.035 181.571,986.259 C176.939,987.803 175.931,978.883 176.643,968.307 C180.091,962.523 195.955,968.291 196.179,974.307 z" fill-opacity="0" stroke="#6E5E4E" stroke-width="8" stroke-linejoin="bevel" id="path907"/>
    <path d="M236.467,897.251 L229.043,932.851 C236.467,934.339 260.195,938.787 260.195,938.787 L269.099,895.763 C269.099,895.763 240.915,889.835 236.467,897.251" fill="#FFE511" id="path909"/>
    <path d="M236.467,897.251 L229.043,932.851 C236.467,934.339 260.195,938.787 260.195,938.787 L269.099,895.763 C269.099,895.763 240.915,889.835 236.467,897.251 z" fill-opacity="0" stroke="#6E5E4E" stroke-width="8" stroke-linejoin="bevel" id="path911"/>
    <path d="M260.195,938.787 C260.195,938.787 236.467,934.339 229.043,932.851 C226.075,938.787 224.595,978.851 232.011,983.291 C240.915,983.291 258.715,950.659 260.195,938.787" fill="#F8EAC1" id="path913"/>
    <path d="M260.195,938.787 C260.195,938.787 236.467,934.339 229.043,932.851 C226.075,938.787 224.595,978.851 232.011,983.291 C240.915,983.291 258.715,950.659 260.195,938.787 z" fill-opacity="0" stroke="#6E5E4E" stroke-width="8" stroke-linejoin="bevel" id="path915"/>
    <path d="M245.179,971.299 C240.443,978.195 235.531,983.291 232.011,983.291 C229.627,981.859 228.155,976.747 227.371,970.259 C230.523,962.523 245.003,966.715 245.179,971.299" fill="#FFE511" id="path917"/>
    <path d="M245.179,971.299 C240.443,978.195 235.531,983.291 232.011,983.291 C229.627,981.859 228.155,976.747 227.371,970.259 C230.523,962.523 245.003,966.715 245.179,971.299 z" fill-opacity="0" stroke="#6E5E4E" stroke-width="8" stroke-linejoin="bevel" id="path919"/>
    <path d="M97.899,859.275 L81.123,901.187 L277.755,923.939 L283.483,885.619 L97.899,859.275" fill="#EFE8AD" id="path921"/>
    <path d="M283.483,885.619 L277.755,923.939 L287.627,954.507 L295.235,907.251 L283.483,885.619" fill="#D7D383" id="path923"/>
    <path d="M154.003,726.603 L90.459,865.387 L283.483,893.411 L305.003,742.171 L154.003,726.603" fill="#EFA68E" id="path925"/>
    <path d="M305.003,742.171 L283.483,893.411 L294.379,927.651 L316.115,763.771 L305.003,742.171" fill="#CFB2A9" id="path927"/>
    <path d="M175.931,915.347 L264.939,732.883 C266.427,719.523 245.651,713.587 232.307,721.011 C227.851,731.403 143.299,906.443 143.299,906.443 C150.715,900.507 174.451,906.443 175.931,915.347" fill="#9E9182" id="path929"/>
    <path d="M169.707,909.115 L258.715,726.651 C260.195,713.307 239.427,707.371 226.075,714.779 C221.627,725.163 137.067,900.211 137.067,900.211 C144.491,894.283 168.219,900.227 169.707,909.115" fill="#E16049" id="path931"/>
    <path d="M169.707,909.115 L258.715,726.651 C260.195,713.307 239.427,707.371 226.075,714.779 C221.627,725.163 137.067,900.211 137.067,900.211 C144.491,894.283 168.219,900.227 169.707,909.115 z" fill-opacity="0" stroke="#6E5E4E" stroke-width="8" id="path933"/>
    <path d="M169.707,909.115 C168.219,900.227 144.491,894.283 137.067,900.211 C134.099,906.147 125.195,932.859 134.099,944.731 C143.003,947.691 166.739,919.507 169.707,909.115" fill="#F8EAC1" id="path935"/>
    <path d="M169.707,909.115 C168.219,900.227 144.491,894.283 137.067,900.211 C134.099,906.147 125.195,932.859 134.099,944.731 C143.003,947.691 166.739,919.507 169.707,909.115 z" fill-opacity="0" stroke="#6E5E4E" stroke-width="8" stroke-linejoin="bevel" id="path937"/>
    <path d="M130.283,928.283 C130.043,934.563 130.979,940.555 134.099,944.731 C138.555,946.203 146.715,939.899 154.131,931.931 C151.907,925.427 136.851,920.747 130.283,928.283" fill="#E16049" id="path939"/>
    <path d="M130.283,928.283 C130.043,934.563 130.979,940.555 134.099,944.731 C138.555,946.203 146.715,939.899 154.131,931.931 C151.907,925.427 136.851,920.747 130.283,928.283 z" fill-opacity="0" stroke="#6E5E4E" stroke-width="8" stroke-linejoin="bevel" id="path941"/>
    <path d="M203.851,531.963 C184.147,599.659 164.523,672.971 177.739,680.291 C190.939,687.603 348.899,734.195 405.107,735.315 C416.843,772.619 433.795,779.883 491.555,756.635 C501.091,769.619 516.371,791.891 542.395,776.563 C549.963,782.083 566.843,783.731 576.131,777.987 C583.771,789.115 591.435,802.131 598.779,790.795 C606.123,779.459 613.203,749.403 605.419,727.027 C620.579,739.931 639.299,739.683 639.203,732.187 C639.099,724.699 634.811,683.555 630.971,676.107 C627.107,668.675 573.803,603.819 467.907,668.923 C439.715,661.803 317.211,605.371 304.027,599.931 C307.675,592.387 320.187,547.267 320.187,547.267 L203.851,531.963" fill="#F9D8B2" id="path943"/>
    <path d="M1000.187,396.219 C1005.811,405.579 1018.923,480.499 1018.923,510.467 L902.803,508.595 C897.187,504.843 876.579,428.059 874.699,413.075 C893.435,396.219 972.099,375.611 1000.187,396.219" fill="#F9D8B2" id="path947"/>
    <path d="M1000.187,396.219 C1005.811,405.579 1018.923,480.499 1018.923,510.467 L902.803,508.595 C897.187,504.843 876.579,428.059 874.699,413.075 C893.435,396.219 972.099,375.611 1000.187,396.219 z" fill-opacity="0" stroke="#6E5E4E" stroke-width="8" id="path949"/>
    <path d="M1007.683,592.715 C990.835,617.067 968.355,624.555 955.251,594.595 C936.515,632.059 908.419,613.323 908.419,583.355 C908.419,583.355 900.931,607.707 885.955,617.075 C870.971,626.435 859.723,598.339 859.723,566.499 C839.467,602.819 794.755,575.139 807.291,561.219 C824.139,542.491 850.363,515.931 870.971,508.435 C900.931,459.747 1065.739,485.963 1063.875,547.771 C1063.595,557.131 1046.539,592.267 1030.155,602.091 C1020.795,607.707 1011.435,602.091 1007.683,592.715" fill="#F9D8B2" id="path951"/>
    <path d="M1007.683,592.715 C990.835,617.067 968.355,624.555 955.251,594.595 C936.515,632.059 908.419,613.323 908.419,583.355 C908.419,583.355 900.931,607.707 885.955,617.075 C870.971,626.435 859.723,598.339 859.723,566.499 C839.467,602.819 794.755,575.139 807.291,561.219 C824.139,542.491 850.363,515.931 870.971,508.435 C900.931,459.747 1065.739,485.963 1063.875,547.771 C1063.595,557.131 1046.539,592.267 1030.155,602.091 C1020.795,607.707 1011.435,602.091 1007.683,592.715 z M968.355,540.283 C966.483,545.899 955.251,587.099 955.251,594.595 M1026.411,547.771 C1026.411,547.771 1007.683,588.971 1007.683,592.715 M921.531,517.803 C914.043,527.163 904.267,558.027 908.419,583.355" fill-opacity="0" stroke="#6E5E4E" stroke-width="8" id="path953"/>
    <path d="M298.283,740.667 C298.283,740.667 285.451,779.443 289.979,788.355 C331.235,796.915 369.811,795.355 378.091,793.883 C386.371,792.419 397.611,761.275 371.947,754.355 C346.291,747.435 298.283,740.667 298.283,740.667" fill="#FFFFFE" id="path955"/>
    <path d="M298.283,740.667 C298.283,740.667 285.451,779.443 289.979,788.355 C331.235,796.915 369.811,795.355 378.091,793.883 C386.371,792.419 397.611,761.275 371.947,754.355 C346.291,747.435 298.283,740.667 298.283,740.667 z" fill-opacity="0" stroke="#6E5E4E" stroke-width="8" id="path957"/>
    <path d="M371.179,753.699 C397.011,759.947 386.571,791.371 378.331,793.059 C370.099,794.739 331.571,797.291 290.107,789.779 L288.307,808.491 C315.115,818.099 364.395,817.491 371.099,815.531 C377.795,813.579 438.067,778.483 371.179,753.699" fill="#FFFFFE" id="path959"/>
    <path d="M371.179,753.699 C397.011,759.947 386.571,791.371 378.331,793.059 C370.099,794.739 331.571,797.291 290.107,789.779 L288.307,808.491 C315.115,818.099 364.395,817.491 371.099,815.531 C377.795,813.579 438.067,778.483 371.179,753.699 z" fill-opacity="0" stroke="#6E5E4E" stroke-width="8" id="path961"/>
    <path d="M269.251,370.915 C256.139,378.403 199.955,434.587 179.347,548.835 C192.459,580.675 254.267,606.891 317.939,586.291 C317.939,586.291 325.435,522.611 332.923,500.139 C338.547,490.779 385.371,331.579 269.251,370.915" fill="#789EC7" id="path963"/>
    <path d="M269.251,370.915 C256.139,378.403 199.955,434.587 179.347,548.835 C192.459,580.675 254.267,606.891 317.939,586.291 C317.939,586.291 325.435,522.611 332.923,500.139 C338.547,490.779 385.371,331.579 269.251,370.915 z" fill-opacity="0" stroke="#6E5E4E" stroke-width="8" id="path965"/>
    <path d="M1021.579,452.147 C1017.835,429.675 991.611,300.443 916.691,304.195 C841.779,307.939 860.515,416.563 877.363,485.859 C896.091,470.883 984.123,448.403 1021.579,452.147" fill="#789EC7" id="path967"/>
    <path d="M1021.579,452.147 C1017.835,429.675 991.611,300.443 916.691,304.195 C841.779,307.939 860.515,416.563 877.363,485.859 C896.091,470.883 984.123,448.403 1021.579,452.147 z" fill-opacity="0" stroke="#6E5E4E" stroke-width="8" stroke-linejoin="bevel" id="path969"/>
    <path d="M342.667,339.459 C337.987,348.211 333.371,360.987 329.611,376.419 C303.291,484.403 318.747,722.371 643.371,622.851 C931.339,534.571 829.179,274.499 824.643,267.467 C824.643,267.467 816.003,222.043 812.347,220.139 C808.699,218.243 427.723,241.883 427.723,241.883 L342.667,339.459" fill="#F9D8B2" id="path971"/>
    <path d="M342.667,339.459 C337.987,348.211 333.371,360.987 329.611,376.419 C303.291,484.403 318.747,722.371 643.371,622.851 C931.339,534.571 829.179,274.499 824.643,267.467 C824.643,267.467 816.003,222.043 812.347,220.139 C808.699,218.243 427.723,241.883 427.723,241.883 z" fill-opacity="0" stroke="#6E5E4E" stroke-width="8" id="path973"/>
    <path d="M315.763,439.595 C289.091,422.019 239.243,415.955 262.291,499.059 C281.051,566.707 341.899,520.427 341.899,520.427" fill="#F9D8B2" id="path975"/>
    <path d="M315.763,439.595 C289.091,422.019 239.243,415.955 262.291,499.059 C281.051,566.707 341.899,520.427 341.899,520.427" fill-opacity="0" stroke="#6E5E4E" stroke-width="8" id="path977"/>
    <g id="g983">
      <path d="M464.899,354.243 C462.203,363.963 399.475,427.403 361.811,444.747 C357.883,443.291 363.955,361.603 368.315,349.819 L373.499,328.523 C373.499,328.523 325.411,480.555 317.947,474.075 C301.819,464.555 260.763,351.459 278.627,254.195 C296.283,158.035 379.611,-60.301 630.219,25.115 C662.515,-23.669 964.691,-17.413 868.387,373.819 C865.931,365.523 846.611,366.235 837.091,347.931 C823.579,321.915 818.547,275.155 812.643,261.259 C803.331,239.307 557.803,308.203 557.803,308.203 C548.467,343.147 521.731,391.307 482.019,406.995 L481.235,348.675 L464.899,354.243" fill="#8A715C" id="path979"/>
      <path d="M464.899,354.243 C462.203,363.963 399.475,427.403 361.811,444.747 C357.883,443.291 363.955,361.603 368.315,349.819 L373.499,328.523 C373.499,328.523 325.411,480.555 317.947,474.075 C301.819,464.555 260.763,351.459 278.627,254.195 C296.283,158.035 379.611,-60.301 630.219,25.115 C662.515,-23.669 964.691,-17.413 868.387,373.819 C865.931,365.523 846.611,366.235 837.091,347.931 C823.579,321.915 818.547,275.155 812.643,261.259 C803.331,239.307 557.803,308.203 557.803,308.203 C548.467,343.147 521.731,391.307 482.019,406.995 L481.235,348.675 z M572.371,440.371 C570.699,459.403 569.867,468.915 557.451,475.931 C557.451,475.931 577.491,486.915 587.643,476.371 M435.179,487.731 C460.403,494.371 502.811,485.931 514.819,475.179" fill-opacity="0" stroke="#6E5E4E" stroke-width="8" id="path981"/>
    </g>
    <path d="M655.915,421.939 C676.811,423.403 709.267,427.363 750.459,390.787" fill-opacity="0" stroke="#6E5E4E" stroke-width="8" id="path987"/>
    <path d="M631.955,204.619 C620.387,233.178 512.691,302.655 483.027,308.667" fill-opacity="0" stroke="#6E5E4E" stroke-width="8" id="path991"/>
    <path d="M839.667,352.483 C856.451,316.723 906.691,328.139 902.723,377.571 C898.747,426.995 840.203,442.875 832.347,439.971" fill="#F9D8B2" id="path997"/>
    <path d="M839.667,352.483 C856.451,316.723 906.691,328.139 902.723,377.571 C898.747,426.995 840.203,442.875 832.347,439.971" fill-opacity="0" stroke="#6E5E4E" stroke-width="8" id="path999"/>
    <path d="M503.843,515.595 C509.283,532.267 486.987,551.643 454.059,558.867 C421.139,566.091 390.043,558.435 384.627,541.763 C379.203,525.091 401.499,505.707 434.403,498.491 C467.355,491.259 498.435,498.915 503.843,515.595" fill="#F5C19E" id="path1001"/>
    <path d="M807.219,429.939 C812.643,446.611 790.347,465.979 757.419,473.211 C724.499,480.435 693.403,472.771 687.987,456.099 C682.563,439.427 704.867,420.051 737.771,412.827 C770.723,405.603 801.803,413.259 807.219,429.939" fill="#F5C19E" id="path1003"/>
    <path d="M871.339,1111.067 C870.995,1114.651 872.723,1115.587 877.523,1116.323 C923.659,1115.267 1179.891,1113.491 1182.139,1112.827 C1195.355,1106.195 1196.427,1096.259 1196.091,1089.075 C1196.827,1068.163 1185.315,1062.979 1185.315,1062.979 L872.371,1069.635 L871.339,1111.067" fill="#7EA986" id="path1005"/>
    <path d="M865.251,1071.003 C920.515,1069.387 1175.003,1068.227 1180.499,1068.915 C1187.907,1071.075 1194.299,1077.955 1196.091,1089.075 L1192.027,1037.963 L864.179,1048.043 L859.075,1059.915 C858.043,1063.203 860.099,1070.139 865.251,1071.003" fill="#7EA986" id="path1007"/>
    <path d="M1175.523,1065.827 C1194.467,1068.019 1185.371,1099.331 1178.787,1101.491 C1172.219,1103.643 899.403,1107.043 885.747,1105.651 C885.691,1105.635 885.643,1105.635 885.595,1105.635 L884.771,1068.891 L1175.523,1065.827" fill="#E7F0F3" id="path1009"/>
    <path d="M851.459,1024.099 L832.971,728.435 L1149.243,728.659 L1216.579,1027.307 L851.611,1022.211" fill="#FFF799" id="path1011"/>
    <path d="M1214.811,1050.075 L840.403,1045.691 L851.611,1022.211 L1216.579,1027.307 L1214.811,1050.075" fill="#F2D776" id="path1013"/>
    <path d="M851.611,1022.211 L833.115,726.539 L823.971,764.107 L840.547,1043.803 L852.667,1022.035" fill="#FCD98E" id="path1015"/>
    <path d="M1215.779,1007.819 L844.747,1001.163 L867.475,702.635 L1176.611,709.219 L1215.779,1007.819" fill="#CCE3C2" id="path1017"/>
    <path d="M1215.779,1030.643 L844.747,1023.979 L844.747,1001.163 L1215.779,1007.819 L1215.779,1030.643" fill="#ABD4A5" id="path1019"/>
    <path d="M876.027,989.507 C876.027,989.507 1197.283,993.555 1200.547,992.611 C1203.819,991.651 1208.171,986.899 1208.171,983.091 C1208.171,979.291 1202.723,924.131 1202.723,924.131 C1202.723,924.131 874.123,913.675 866.499,919.387 C858.891,925.091 831.403,976.195 876.027,989.507" fill="#EA8A6F" id="path1021"/>
    <path d="M857.795,914.619 C850.179,941.259 843.659,972.635 877.387,978.339 L1194.027,981.195 L1190.755,933.643 L857.795,914.619" fill="#F7F4E4" id="path1023"/>
    <path d="M1185.315,698.763 L1212.515,930.787 C1212.515,930.787 1215.787,941.259 1200.547,942.203 C1185.315,943.147 881.731,938.403 881.731,938.403 C867.595,937.443 856.339,947.931 855.627,961.219 C854.531,981.195 868.683,987.851 877.387,988.795 C866.499,989.755 844.747,981.195 842.563,953.619 C840.387,926.043 833.859,720.635 833.859,720.635 C837.123,713.979 839.299,697.811 869.763,695.899 C900.235,694.003 1185.315,698.763 1185.315,698.763" fill="#EA8A6F" id="path1025"/>
    <path d="M881.731,938.403 C867.595,937.443 856.339,947.931 855.627,961.219 C854.531,981.195 868.683,987.851 877.387,988.795 C866.499,989.755 844.747,981.195 842.563,953.619 C840.387,926.043 833.859,720.635 833.859,720.635 C837.123,713.979 839.299,697.811 869.763,695.899 C870.931,695.835 872.451,695.771 874.331,695.715 L881.731,938.403" fill="#C47660" id="path1027"/>
    <path d="M893.859,872.539 C929.635,868.459 1145.835,871.187 1158.283,871.187 C1170.715,871.187 1192.499,872.539 1194.043,891.579 C1191.843,904.163 1179.875,913.683 1161.379,915.571 C1142.883,917.475 881.731,912.723 881.731,912.723 C878.475,912.723 873.027,907.971 874.123,901.315 C875.203,894.651 869.763,685.443 869.763,685.443 C870.859,681.643 878.475,679.747 878.475,679.747 L887.179,652.155 L893.859,872.539" fill="#54B7DC" id="path1029"/>
    <path d="M1171.523,908.315 C1179.307,903.947 1183.755,899.459 1185.091,891.835 C1183.539,872.811 1165.875,872.075 1153.435,872.075 C1140.995,872.075 931.395,864.707 895.627,868.779 L887.179,652.155 L878.475,679.747 C878.475,679.747 876.563,680.211 874.531,681.163 L886.091,903.211 C886.091,903.211 1154.251,913.259 1171.523,908.315" fill="#F7F4E4" id="path1031"/>
    <path d="M902.955,876.107 L1172.267,881.819 M902.955,886.099 L1172.267,891.803 M902.955,896.091 L1172.267,901.779 M878.475,950.291 L1191.843,951.715 M876.843,957.419 L1190.219,964.555 M881.731,970.259 L1188.587,974.539" fill-opacity="0" stroke="#F0E5CA" stroke-width="8" id="path1033"/>
    <path d="M887.355,638.747 L893.859,872.539 C929.635,868.459 1145.835,871.187 1158.283,871.187 C1170.715,871.187 1192.499,872.539 1194.043,891.579 C1195.611,890.211 1183.163,672.723 1183.163,672.723 C1184.715,655.051 1166.059,641.459 1156.715,640.099 C1147.387,638.739 894.795,631.243 894.795,631.243 C894.795,631.243 887.651,630.307 887.355,638.747" fill="#79C1E0" id="path1035"/>
    <path d="M1158.283,871.187 C1170.715,871.187 1192.499,872.539 1194.043,891.579 C1195.611,890.211 1183.163,672.723 1183.163,672.723 C1184.715,655.051 1166.059,641.459 1156.715,640.099 C1155.803,639.963 1152.523,639.771 1147.355,639.531 L1158.283,871.187" fill="#858A95" id="path1037"/>
    <path d="M723.859,784.059 L700.267,783.339 L703.451,804.835 L680.099,807.547 L758.059,839.955 L723.859,784.059" fill="#F8EAC1" id="path1039"/>
    <path d="M723.859,784.059 L700.267,783.339 L703.451,804.835 L680.099,807.547 L758.059,839.955 z" fill-opacity="0" stroke="#6E5E4E" stroke-width="8" stroke-linejoin="bevel" id="path1041"/>
    <path d="M623.595,685.523 C638.627,689.067 657.555,703.787 659.731,726.243 C661.907,748.699 628.011,736.027 624.043,719.227 C620.075,702.427 623.595,685.523 623.595,685.523" fill="#F9D8B2" id="path1043"/>
    <path d="M623.595,685.523 C638.627,689.067 657.555,703.787 659.731,726.243 C661.907,748.699 628.011,736.027 624.043,719.227 C620.075,702.427 623.595,685.523 623.595,685.523 z" fill-opacity="0" stroke="#6E5E4E" stroke-width="8" id="path1045"/>
    <path d="M479.963,590.035 L723.859,784.059 L700.267,783.339 L703.451,804.835 L680.099,807.547 L452.379,623.131 C452.259,611.227 463.259,591.651 479.963,590.035" fill="#DBC582" id="path1047"/>
    <path d="M479.963,590.035 L723.859,784.059 L700.267,783.339 L703.451,804.835 L680.099,807.547 L452.379,623.131 C452.259,611.227 463.259,591.651 479.963,590.035 z" fill-opacity="0" stroke="#6E5E4E" stroke-width="8" stroke-linejoin="bevel" id="path1049"/>
    <path d="M741.667,813.147 L758.059,839.955 L730.347,828.427 L730.163,811.515 L741.667,813.147" fill="#6E5E4E" id="path1051"/>
    <path d="M741.667,813.147 L758.059,839.955 L730.347,828.427 L730.163,811.515 z" fill-opacity="0" stroke="#6E5E4E" stroke-width="8" stroke-linejoin="bevel" id="path1053"/>
    <path d="M177.739,680.291 C190.939,687.603 348.899,734.195 405.107,735.315 C416.843,772.619 433.795,779.883 491.555,756.635 C501.091,769.619 516.371,791.891 542.395,776.563 C549.963,782.083 566.843,783.731 576.131,777.987 C583.771,789.115 591.435,802.131 598.779,790.795 C606.123,779.459 613.203,749.403 605.419,727.027 C620.579,739.931 639.299,739.683 639.203,732.187 C639.099,724.699 634.811,683.555 630.971,676.107 C627.107,668.675 573.803,603.819 467.907,668.923 C439.715,661.803 317.211,605.371 304.027,599.931 C304.443,599.075 304.971,597.739 305.579,596.043" fill="#F9D8B2" id="path1055"/>
    <path d="M177.739,680.291 C190.939,687.603 348.899,734.195 405.107,735.315 C416.843,772.619 433.795,779.883 491.555,756.635 C501.091,769.619 516.371,791.891 542.395,776.563 C549.963,782.083 566.843,783.731 576.131,777.987 C583.771,789.115 591.435,802.131 598.779,790.795 C606.123,779.459 613.203,749.403 605.419,727.027 C620.579,739.931 639.299,739.683 639.203,732.187 C639.099,724.699 634.811,683.555 630.971,676.107 C627.107,668.675 573.803,603.819 467.907,668.923 C439.715,661.803 317.211,605.371 304.027,599.931 C304.443,599.075 304.971,597.739 305.579,596.043 M480.075,738.067 L491.555,756.635 M517.323,722.571 L542.395,776.563 M552.755,710.867 L577.603,747.995 M570.059,744.355 C570.059,744.355 568.515,768.731 576.131,777.987 M558.075,688.323 C565.563,688.219 599.643,715.867 605.419,727.027 M591.907,697.235 L575.003,693.715 M591.779,687.867 C591.779,687.867 593.851,702.819 599.619,713.987" fill-opacity="0" stroke="#6E5E4E" stroke-width="8" id="path1057"/>
    <path d="M609.283,594.707 C613.091,586.403 629.843,573.315 644.683,575.931 C655.579,577.835 682.811,602.651 660.971,608.091 C643.651,612.411 638.299,605.995 626.499,608.507 C614.699,611.011 606.363,601.067 609.283,594.707" fill="#E5765B" id="path1059"/>
    <path d="M871.459,543.627 C871.459,543.627 859.459,557.219 859.459,573.219" fill-opacity="0" stroke="#6E5E4E" stroke-width="8" id="path1061"/>
  </g>
</svg>