<?xml version="1.0" encoding="UTF-8" standalone="no"?>
<!-- Created with Inkscape (http://www.inkscape.org/) -->
<svg xmlns:inkscape="http://www.inkscape.org/namespaces/inkscape" xmlns:rdf="http://www.w3.org/1999/02/22-rdf-syntax-ns#" xmlns="http://www.w3.org/2000/svg" xmlns:cc="http://creativecommons.org/ns#" xmlns:dc="http://purl.org/dc/elements/1.1/" xmlns:sodipodi="http://sodipodi.sourceforge.net/DTD/sodipodi-0.dtd" xmlns:svg="http://www.w3.org/2000/svg" xmlns:ns1="http://sozi.baierouge.fr" xmlns:xlink="http://www.w3.org/1999/xlink" id="svg2" sodipodi:docname="smilies_good_15_new.svg" inkscape:export-filename="/home/qubodup/LÖVE&amp;HÄTE/smilies_all_15_new.png" viewBox="0 0 79 47" sodipodi:version="0.32" inkscape:export-xdpi="90" version="1.0" inkscape:output_extension="org.inkscape.output.svg.inkscape" inkscape:export-ydpi="90" inkscape:version="0.46">
  <defs id="defs5">
    <filter id="filter3368" height="2.68" width="2.68" y="-0.84" x="-0.84" inkscape:collect="always">
      <feGaussianBlur id="feGaussianBlur3370" stdDeviation="0.70000004" inkscape:collect="always"/>
    </filter>
  </defs>
  <sodipodi:namedview id="base" inkscape:showpageshadow="true" inkscape:zoom="1" borderopacity="1" inkscape:current-layer="svg2" inkscape:cx="8.9579978" inkscape:guide-bbox="true" borderlayer="true" showgrid="false" showguides="true" bordercolor="#dfdfdf" inkscape:window-x="0" guidetolerance="10.0" objecttolerance="10.0" inkscape:window-y="25" inkscape:window-width="1280" inkscape:pageopacity="0.0" inkscape:pageshadow="2" pagecolor="#ffffff" gridtolerance="10.0" inkscape:cy="53.289774" inkscape:window-height="951">
    <inkscape:grid id="grid2384" enabled="true" originy="-0.5px" originx="-0.5px" visible="true" type="xygrid" empspacing="16"/>
  </sodipodi:namedview>
  <rect id="rect3225" style="fill:#ecf3f7" inkscape:export-ydpi="90" inkscape:export-filename="/home/qubodup/rect32252v.png" height="49" width="81" inkscape:export-xdpi="90" y="-1" x="-1"/>
  <path id="path2386" sodipodi:rx="7" sodipodi:ry="7" style="stroke-linejoin:round;stroke:#000000;stroke-linecap:round;fill:#fffa72" sodipodi:type="arc" d="m14.5 8.5a7 7 0 1 1 -14 0 7 7 0 1 1 14 0z" transform="translate(32,-1)" sodipodi:cy="8.5" sodipodi:cx="7.5"/>
  <path id="path3158" sodipodi:nodetypes="cscc" style="stroke-linejoin:round;stroke:#000000;stroke-linecap:round;fill:#ffffff" d="m34.5 7.5c0 3.312 2.24 5 5 5s5-1.688 5-5h-10z"/>
  <path id="path3163" sodipodi:nodetypes="cc" style="stroke-linejoin:round;stroke:#000000;stroke-linecap:round;fill:none" d="m35.5 5.5c0-2 3-2 3 0"/>
  <path id="path3165" sodipodi:nodetypes="cc" style="stroke-linejoin:round;stroke:#000000;stroke-linecap:round;fill:none" d="m40.5 5.5c0-2 3-2 3 0"/>
  <path id="path3173" sodipodi:nodetypes="cccc" style="stroke-linejoin:round;stroke:#000000;stroke-linecap:round;fill:none" d="m41.5 12v-4.5m-4 0v4.5"/>
  <path id="path2384" sodipodi:rx="7" sodipodi:ry="7" style="stroke-linejoin:round;stroke:#000000;stroke-linecap:round;fill:#fffa72" sodipodi:type="arc" d="m14.5 8.5a7 7 0 1 1 -14 0 7 7 0 1 1 14 0z" transform="translate(0,-1)" sodipodi:cy="8.5" sodipodi:cx="7.5"/>
  <path id="path3156" sodipodi:nodetypes="csc" style="stroke-linejoin:round;stroke:#000000;stroke-linecap:round;fill:none" d="m3.5 7.5c0 3 2 4 4 4s4-1 4-4"/>
  <path id="path3172" sodipodi:rx="1" sodipodi:ry="1" style="stroke-linejoin:round;stroke:#000000;stroke-linecap:round;fill:#000000" sodipodi:type="arc" d="m21.5 4.5a1 1 0 1 1 -2 0 1 1 0 1 1 2 0z" transform="translate(-15)" sodipodi:cy="4.5" sodipodi:cx="20.5"/>
  <path id="path3174" sodipodi:rx="1" sodipodi:ry="1" style="stroke-linejoin:round;stroke:#000000;stroke-linecap:round;fill:#000000" sodipodi:type="arc" d="m21.5 4.5a1 1 0 1 1 -2 0 1 1 0 1 1 2 0z" transform="translate(-11)" sodipodi:cy="4.5" sodipodi:cx="20.5"/>
  <path id="path3176" sodipodi:rx="7" sodipodi:ry="7" style="stroke-linejoin:round;stroke:#000000;stroke-linecap:round;fill:#fffa72" sodipodi:type="arc" d="m14.5 8.5a7 7 0 1 1 -14 0 7 7 0 1 1 14 0z" transform="translate(32,31)" sodipodi:cy="8.5" sodipodi:cx="7.5"/>
  <path id="path3178" sodipodi:rx="1" sodipodi:ry="1" style="stroke-linejoin:round;stroke:#000000;stroke-linecap:round;fill:#000000" sodipodi:type="arc" d="m21.5 4.5a1 1 0 1 1 -2 0 1 1 0 1 1 2 0z" transform="translate(17,32)" sodipodi:cy="4.5" sodipodi:cx="20.5"/>
  <path id="path3180" sodipodi:rx="1" sodipodi:ry="1" style="stroke-linejoin:round;stroke:#000000;stroke-linecap:round;fill:#000000" sodipodi:type="arc" d="m21.5 4.5a1 1 0 1 1 -2 0 1 1 0 1 1 2 0z" transform="translate(21,32)" sodipodi:cy="4.5" sodipodi:cx="20.5"/>
  <path id="path3182" sodipodi:nodetypes="cc" style="stroke-linejoin:round;stroke:#000000;stroke-linecap:round;fill:#ff8d72" d="m35.5 41.5h8"/>
  <path id="path3184" sodipodi:rx="7" sodipodi:ry="7" style="stroke-linejoin:round;stroke:#000000;stroke-linecap:round;fill:#fffa72" sodipodi:type="arc" d="m14.5 8.5a7 7 0 1 1 -14 0 7 7 0 1 1 14 0z" transform="translate(16,-1)" sodipodi:cy="8.5" sodipodi:cx="7.5"/>
  <path id="path3186" sodipodi:nodetypes="czsz" style="stroke-linejoin:round;stroke:#000000;stroke-linecap:round;fill:#ffffff" d="m27.5 7.5h-8c0 3 2 4 4 4s4-1 4-4z"/>
  <path id="path3188" sodipodi:rx="1" sodipodi:ry="1" style="stroke-linejoin:round;stroke:#000000;stroke-linecap:round;fill:#000000" sodipodi:type="arc" d="m21.5 4.5a1 1 0 1 1 -2 0 1 1 0 1 1 2 0z" transform="translate(1)" sodipodi:cy="4.5" sodipodi:cx="20.5"/>
  <path id="path3190" sodipodi:rx="1" sodipodi:ry="1" style="stroke-linejoin:round;stroke:#000000;stroke-linecap:round;fill:#000000" sodipodi:type="arc" d="m21.5 4.5a1 1 0 1 1 -2 0 1 1 0 1 1 2 0z" transform="translate(5)" sodipodi:cy="4.5" sodipodi:cx="20.5"/>
  <path id="path3267" sodipodi:rx="7" sodipodi:ry="7" style="stroke-linejoin:round;stroke:#000000;stroke-linecap:round;fill:#fffa72" sodipodi:type="arc" d="m14.5 8.5a7 7 0 1 1 -14 0 7 7 0 1 1 14 0z" inkscape:export-ydpi="90" inkscape:export-filename="/home/qubodup/LÖVE&amp;HÄTE/path3277.png" transform="translate(48,-1)" sodipodi:cy="8.5" sodipodi:cx="7.5" inkscape:export-xdpi="90"/>
  <path id="path3269" style="stroke-linejoin:round;stroke:#000000;stroke-linecap:round;fill:none" d="m51.5 6.5c0 4 2 5 4 5s4-1 4-4" inkscape:export-ydpi="90" sodipodi:nodetypes="csc" inkscape:export-filename="/home/qubodup/LÖVE&amp;HÄTE/path3277.png" inkscape:export-xdpi="90"/>
  <path id="path3273" sodipodi:rx="1" sodipodi:ry="1" style="stroke-linejoin:round;stroke:#000000;stroke-linecap:round;fill:#000000" sodipodi:type="arc" d="m21.5 4.5a1 1 0 1 1 -2 0 1 1 0 1 1 2 0z" inkscape:export-ydpi="90" inkscape:export-filename="/home/qubodup/LÖVE&amp;HÄTE/path3277.png" transform="translate(37)" sodipodi:cy="4.5" sodipodi:cx="20.5" inkscape:export-xdpi="90"/>
  <path id="path3277" style="stroke-linejoin:round;stroke:#000000;stroke-linecap:round;fill:#ecf3f7" d="m54.5 4.5h-2" inkscape:export-ydpi="90" sodipodi:nodetypes="cc" inkscape:export-xdpi="90"/>
  <path id="path3279" sodipodi:rx="7" sodipodi:ry="7" style="stroke-linejoin:round;stroke:#000000;stroke-linecap:round;fill:#fffa72" sodipodi:type="arc" d="m14.5 8.5a7 7 0 1 1 -14 0 7 7 0 1 1 14 0z" transform="translate(32,15)" sodipodi:cy="8.5" sodipodi:cx="7.5"/>
  <path id="path3281" sodipodi:nodetypes="csc" style="stroke-linejoin:round;stroke:#000000;stroke-linecap:round;fill:none" d="m35.5 26.5c0-2 2-3 4-3s4 1 4 3"/>
  <path id="path3283" sodipodi:rx="1" sodipodi:ry="1" style="stroke-linejoin:round;stroke:#000000;stroke-linecap:round;fill:#000000" sodipodi:type="arc" d="m21.5 4.5a1 1 0 1 1 -2 0 1 1 0 1 1 2 0z" transform="translate(17,16)" sodipodi:cy="4.5" sodipodi:cx="20.5"/>
  <path id="path3285" sodipodi:rx="1" sodipodi:ry="1" style="stroke-linejoin:round;stroke:#000000;stroke-linecap:round;fill:#000000" sodipodi:type="arc" d="m21.5 4.5a1 1 0 1 1 -2 0 1 1 0 1 1 2 0z" transform="translate(21,16)" sodipodi:cy="4.5" sodipodi:cx="20.5"/>
  <path id="path3287" sodipodi:rx="7" sodipodi:ry="7" style="stroke-linejoin:round;stroke:#000000;stroke-linecap:round;fill:#fffa72" sodipodi:type="arc" d="m14.5 8.5a7 7 0 1 1 -14 0 7 7 0 1 1 14 0z" transform="translate(0,31)" sodipodi:cy="8.5" sodipodi:cx="7.5"/>
  <path id="path3291" sodipodi:rx="1" sodipodi:ry="1" style="stroke-linejoin:round;stroke:#000000;stroke-linecap:round;fill:#000000" sodipodi:type="arc" d="m21.5 4.5a1 1 0 1 1 -2 0 1 1 0 1 1 2 0z" transform="translate(-15,32)" sodipodi:cy="4.5" sodipodi:cx="20.5"/>
  <path id="path3293" sodipodi:rx="1.53125" sodipodi:ry="1.453125" style="stroke-linejoin:round;stroke:#000000;stroke-linecap:round;stroke-width:.99445;fill:#000000" sodipodi:type="arc" d="m22.031 4.5a1.5312 1.4531 0 1 1 -3.062 0 1.5312 1.4531 0 1 1 3.062 0z" transform="matrix(.97959 0 0 1.0323 -10.582 31.855)" sodipodi:cy="4.5" sodipodi:cx="20.5"/>
  <path id="path3299" sodipodi:nodetypes="csssc" style="stroke-linejoin:round;stroke:#000000;stroke-linecap:round;fill:#ffffff" d="m10.5 42.5c0 1-1.344 2-3 2s-3-1-3-2c0-1.656 1.344-3 3-3s3 1.344 3 3z"/>
  <path id="path3310" sodipodi:rx="7" sodipodi:ry="7" style="stroke-linejoin:round;stroke:#000000;stroke-linecap:round;fill:#fffa72" sodipodi:type="arc" d="m14.5 8.5a7 7 0 1 1 -14 0 7 7 0 1 1 14 0z" transform="translate(48,31)" sodipodi:cy="8.5" sodipodi:cx="7.5"/>
  <path id="path3322" sodipodi:rx="1.53125" sodipodi:ry="1.453125" style="stroke-linejoin:round;stroke:#000000;stroke-linecap:round;stroke-width:.99445;fill:#000000" sodipodi:type="arc" d="m22.031 4.5a1.5312 1.4531 0 1 1 -3.062 0 1.5312 1.4531 0 1 1 3.062 0z" transform="matrix(.97959 0 0 1.0323 33.418 31.855)" sodipodi:cy="4.5" sodipodi:cx="20.5"/>
  <path id="path3324" sodipodi:nodetypes="cc" style="stroke-linejoin:round;stroke:#000000;stroke-linecap:round;fill:#404040" d="m54.5 42.5h2"/>
  <path id="path3326" sodipodi:rx="1" sodipodi:ry="1" style="stroke-linejoin:round;stroke:#000000;stroke-linecap:round;fill:#000000" sodipodi:type="arc" d="m21.5 4.5a1 1 0 1 1 -2 0 1 1 0 1 1 2 0z" transform="translate(37,32)" sodipodi:cy="4.5" sodipodi:cx="20.5"/>
  <path id="path3328" sodipodi:rx="7" sodipodi:ry="7" style="stroke-linejoin:round;stroke:#000000;stroke-linecap:round;fill:#fffa72" sodipodi:type="arc" d="m14.5 8.5a7 7 0 1 1 -14 0 7 7 0 1 1 14 0z" transform="translate(16,15)" sodipodi:cy="8.5" sodipodi:cx="7.5"/>
  <path id="path3330" sodipodi:rx="1" sodipodi:ry="1" style="stroke-linejoin:round;stroke:#000000;stroke-linecap:round;fill:#000000" sodipodi:type="arc" d="m21.5 4.5a1 1 0 1 1 -2 0 1 1 0 1 1 2 0z" transform="translate(0,17)" sodipodi:cy="4.5" sodipodi:cx="20.5"/>
  <path id="path3334" sodipodi:nodetypes="ccc" style="stroke-linejoin:round;stroke:#000000;stroke-linecap:round;fill:none" d="m19.5 26.5c1-2 3-3 4-1s3 1 4-1"/>
  <path id="path3338" sodipodi:rx="1.53125" sodipodi:ry="1.453125" style="stroke-linejoin:round;stroke:#000000;stroke-linecap:round;stroke-width:.99445;fill:#000000" sodipodi:type="arc" d="m22.031 4.5a1.5312 1.4531 0 1 1 -3.062 0 1.5312 1.4531 0 1 1 3.062 0z" transform="matrix(.97959 0 0 1.0323 5.4184 15.855)" sodipodi:cy="4.5" sodipodi:cx="20.5"/>
  <path id="path3340" sodipodi:rx="7" sodipodi:ry="7" style="stroke-linejoin:round;stroke:#000000;stroke-linecap:round;fill:#fffa72" sodipodi:type="arc" d="m14.5 8.5a7 7 0 1 1 -14 0 7 7 0 1 1 14 0z" transform="translate(16,31)" sodipodi:cy="8.5" sodipodi:cx="7.5"/>
  <path id="path3344" sodipodi:rx="1" sodipodi:ry="1" style="stroke-linejoin:round;stroke:#000000;stroke-linecap:round;fill:#000000" sodipodi:type="arc" d="m21.5 4.5a1 1 0 1 1 -2 0 1 1 0 1 1 2 0z" transform="translate(1,32)" sodipodi:cy="4.5" sodipodi:cx="20.5"/>
  <path id="path3346" sodipodi:rx="1" sodipodi:ry="1" style="stroke-linejoin:round;stroke:#000000;stroke-linecap:round;fill:#000000" sodipodi:type="arc" d="m21.5 4.5a1 1 0 1 1 -2 0 1 1 0 1 1 2 0z" transform="translate(5,32)" sodipodi:cy="4.5" sodipodi:cx="20.5"/>
  <path id="path3348" sodipodi:rx="1.471264" sodipodi:ry="1.4712645" style="stroke-linejoin:round;stroke:#000000;stroke-linecap:round;stroke-width:1.4713;fill:#000000" sodipodi:type="arc" d="m39.971 25.5a1.4713 1.4713 0 1 1 -2.942 0 1.4713 1.4713 0 1 1 2.942 0z" transform="matrix(.67969 0 0 .67969 -2.668 25.168)" sodipodi:cy="25.5" sodipodi:cx="38.5"/>
  <path id="path3350" sodipodi:rx="1" sodipodi:ry="1" style="filter:url(#filter3368);fill:#cc0000" sodipodi:type="arc" d="m36.5 23.5a1 1 0 1 1 -2 0 1 1 0 1 1 2 0z" transform="translate(-16,17)" sodipodi:cy="23.5" sodipodi:cx="35.5"/>
  <path id="path3372" sodipodi:rx="1" sodipodi:ry="1" style="filter:url(#filter3368);fill:#cc0000" sodipodi:type="arc" d="m36.5 23.5a1 1 0 1 1 -2 0 1 1 0 1 1 2 0z" transform="translate(-8,17)" sodipodi:cy="23.5" sodipodi:cx="35.5"/>
  <path id="path3374" sodipodi:rx="7" sodipodi:ry="7" style="stroke-linejoin:round;stroke:#000000;stroke-linecap:round;fill:#fffa72" sodipodi:type="arc" d="m14.5 8.5a7 7 0 1 1 -14 0 7 7 0 1 1 14 0z" transform="translate(0,15)" sodipodi:cy="8.5" sodipodi:cx="7.5"/>
  <path id="path3378" sodipodi:rx="1" sodipodi:ry="1" style="stroke-linejoin:round;stroke:#000000;stroke-linecap:round;fill:#000000" sodipodi:type="arc" d="m21.5 4.5a1 1 0 1 1 -2 0 1 1 0 1 1 2 0z" transform="translate(-15,16)" sodipodi:cy="4.5" sodipodi:cx="20.5"/>
  <path id="path3380" sodipodi:rx="1" sodipodi:ry="1" style="stroke-linejoin:round;stroke:#000000;stroke-linecap:round;fill:#000000" sodipodi:type="arc" d="m21.5 4.5a1 1 0 1 1 -2 0 1 1 0 1 1 2 0z" transform="translate(-11,16)" sodipodi:cy="4.5" sodipodi:cx="20.5"/>
  <path id="path3384" sodipodi:nodetypes="cccc" style="stroke-linejoin:round;stroke:#6b1a6f;stroke-linecap:round;fill:#fda7ff" d="m6.5 24.5v3c0 1 4 1 4 0v-3"/>
  <path id="path3386" style="stroke-linejoin:round;stroke:#6b1a6f;stroke-linecap:round;fill:none" d="m8.5 24.5v2"/>
  <path id="path3382" style="stroke-linejoin:round;stroke:#000000;stroke-linecap:round;fill:none" d="m3.5 24.5h8"/>
  <path id="path3393" sodipodi:rx="7" sodipodi:ry="7" style="stroke-linejoin:round;stroke:#000000;stroke-linecap:round;fill:#fffa72" sodipodi:type="arc" d="m14.5 8.5a7 7 0 1 1 -14 0 7 7 0 1 1 14 0z" transform="translate(64,15)" sodipodi:cy="8.5" sodipodi:cx="7.5"/>
  <path id="path3411" sodipodi:nodetypes="csc" style="stroke-linejoin:round;stroke:#000000;stroke-linecap:round;fill:none" d="m67.5 26.5c0-1 2-2 4-2s4 1 4 2"/>
  <path id="path3421" sodipodi:nodetypes="cc" style="stroke-linejoin:round;stroke:#000000;stroke-linecap:round;fill:#ffffff" d="m68.5 18.5l3 1"/>
  <path id="path3423" sodipodi:nodetypes="cc" style="stroke-linejoin:round;stroke:#000000;stroke-linecap:round;fill:#ffffff" d="m71.5 19.5l3-1"/>
  <path id="path3431" sodipodi:rx="1" sodipodi:ry="1" style="stroke-linejoin:round;stroke:#000000;stroke-linecap:round;fill:#000000" sodipodi:type="arc" d="m21.5 4.5a1 1 0 1 1 -2 0 1 1 0 1 1 2 0z" transform="translate(49,17)" sodipodi:cy="4.5" sodipodi:cx="20.5"/>
  <path id="path3433" sodipodi:rx="1" sodipodi:ry="1" style="stroke-linejoin:round;stroke:#000000;stroke-linecap:round;fill:#000000" sodipodi:type="arc" d="m21.5 4.5a1 1 0 1 1 -2 0 1 1 0 1 1 2 0z" transform="translate(53,17)" sodipodi:cy="4.5" sodipodi:cx="20.5"/>
  <path id="path3435" sodipodi:rx="7" sodipodi:ry="7" style="stroke-linejoin:round;stroke:#000000;stroke-linecap:round;fill:#fffa72" sodipodi:type="arc" d="m14.5 8.5a7 7 0 1 1 -14 0 7 7 0 1 1 14 0z" transform="translate(48,15)" sodipodi:cy="8.5" sodipodi:cx="7.5"/>
  <path id="path3466" sodipodi:nodetypes="cc" style="stroke-linejoin:round;stroke:#00cfff;stroke-linecap:round;stroke-width:2;fill:none" d="m59.5 22.5c0-1-0.938-1-1.938-1"/>
  <path id="path3456" sodipodi:nodetypes="ccc" style="stroke-linejoin:round;stroke:#000000;stroke-linecap:round;fill:none" d="m58.5 19.5l-2 2h3"/>
  <path id="path3462" sodipodi:nodetypes="cc" style="stroke-linejoin:round;stroke:#00cfff;stroke-linecap:round;stroke-width:2;fill:none" d="m53.562 21.5c-1 0-2.062 0-2.062 1"/>
  <path id="path3458" sodipodi:nodetypes="ccc" style="stroke-linejoin:round;stroke:#000000;stroke-linecap:round;fill:none" d="m52.5 19.5l2 2h-3"/>
  <path id="path3460" sodipodi:nodetypes="ccccc" style="stroke-linejoin:round;stroke:#000000;stroke-linecap:round;fill:#ffffff" d="m52.5 23.5c-1 1-1 3 0 4 2-1 4-1 6 0 1-1 1-3 0-4-2 1-4 1-6 0z"/>
  <path id="path3521" sodipodi:rx="7" sodipodi:ry="7" style="stroke-linejoin:round;stroke:#000000;stroke-linecap:round;fill:#fffa72" sodipodi:type="arc" d="m14.5 8.5a7 7 0 1 1 -14 0 7 7 0 1 1 14 0z" transform="translate(64,-1)" sodipodi:cy="8.5" sodipodi:cx="7.5"/>
  <path id="path3523" sodipodi:nodetypes="csc" style="stroke-linejoin:round;stroke:#000000;stroke-linecap:round;fill:none" d="m67.5 7.5c0 1 2 2 4 2s4-1 4-2"/>
  <path id="path3529" sodipodi:nodetypes="cc" style="stroke-linejoin:round;stroke:#000000;stroke-linecap:round;fill:#c1c1c1" d="m65.5 4.5h12"/>
  <path id="path3541" sodipodi:nodetypes="ccccc" style="stroke-linejoin:round;stroke:#000000;stroke-linecap:round;fill:#000000" d="m72.5 3.5v2h2v-2h-2z"/>
  <path id="path3543" sodipodi:nodetypes="ccccc" style="stroke-linejoin:round;stroke:#000000;stroke-linecap:round;fill:#000000" d="m68.5 3.5v2h2v-2h-2z"/>
  <path id="path3590" sodipodi:rx="7" sodipodi:ry="7" style="stroke-linejoin:round;stroke:#000000;stroke-linecap:round;fill:#fffa72" sodipodi:type="arc" d="m14.5 8.5a7 7 0 1 1 -14 0 7 7 0 1 1 14 0z" transform="translate(64,31)" sodipodi:cy="8.5" sodipodi:cx="7.5"/>
  <path id="path3594" sodipodi:rx="1" sodipodi:ry="1" style="stroke-linejoin:round;stroke:#000000;stroke-linecap:round;fill:#000000" sodipodi:type="arc" d="m21.5 4.5a1 1 0 1 1 -2 0 1 1 0 1 1 2 0z" transform="translate(49,31)" sodipodi:cy="4.5" sodipodi:cx="20.5"/>
  <path id="path3596" sodipodi:rx="1" sodipodi:ry="1" style="stroke-linejoin:round;stroke:#000000;stroke-linecap:round;fill:#000000" sodipodi:type="arc" d="m21.5 4.5a1 1 0 1 1 -2 0 1 1 0 1 1 2 0z" transform="translate(53,31)" sodipodi:cy="4.5" sodipodi:cx="20.5"/>
  <path id="path3598" sodipodi:nodetypes="cc" style="stroke-linejoin:round;stroke:#000000;stroke-linecap:round;fill:#404040" d="m72.5 42.5h2"/>
  <metadata>
    <rdf:RDF>
      <cc:Work>
        <dc:format>image/svg+xml</dc:format>
        <dc:type rdf:resource="http://purl.org/dc/dcmitype/StillImage"/>
        <cc:license rdf:resource="http://creativecommons.org/licenses/publicdomain/"/>
        <dc:publisher>
          <cc:Agent rdf:about="http://openclipart.org/">
            <dc:title>Openclipart</dc:title>
          </cc:Agent>
        </dc:publisher>
        <dc:title>15 small smilies</dc:title>
        <dc:date>2008-07-10T19:25:49</dc:date>
        <dc:description>doing this for LÖVE: http://love2d.org/forum/viewtopic.php?f=3&amp;t=53 should be able to replace a phpbb icon set In this set I took out the ugly smilies and replaced some colors.</dc:description>
        <dc:source>https://openclipart.org/detail/17694/15-small-smilies-by-qubodup</dc:source>
        <dc:creator>
          <cc:Agent>
            <dc:title>qubodup</dc:title>
          </cc:Agent>
        </dc:creator>
        <dc:subject>
          <rdf:Bag>
            <rdf:li>cartoon</rdf:li>
            <rdf:li>emoticons</rdf:li>
            <rdf:li>forum</rdf:li>
            <rdf:li>forums</rdf:li>
            <rdf:li>icon</rdf:li>
            <rdf:li>icons</rdf:li>
            <rdf:li>small</rdf:li>
            <rdf:li>smilies</rdf:li>
            <rdf:li>smily</rdf:li>
            <rdf:li>tiny</rdf:li>
          </rdf:Bag>
        </dc:subject>
      </cc:Work>
      <cc:License rdf:about="http://creativecommons.org/licenses/publicdomain/">
        <cc:permits rdf:resource="http://creativecommons.org/ns#Reproduction"/>
        <cc:permits rdf:resource="http://creativecommons.org/ns#Distribution"/>
        <cc:permits rdf:resource="http://creativecommons.org/ns#DerivativeWorks"/>
      </cc:License>
    </rdf:RDF>
  </metadata>
</svg>