<?xml version="1.0" encoding="UTF-8"?>
<!DOCTYPE svg PUBLIC "-//W3C//DTD SVG 1.1//EN" "http://www.w3.org/Graphics/SVG/1.1/DTD/svg11.dtd">
<svg version="1.1" xmlns="http://www.w3.org/2000/svg" xmlns:xlink="http://www.w3.org/1999/xlink" x="0" y="0" width="708.609" height="637.123" viewBox="0, 0, 708.609, 637.123">
  <g id="Layer_1">
    <path d="M455.374,635.932 C445.688,631.547 439.53,625.221 430.086,609.954 C426.967,604.912 423.868,600.623 423.201,600.424 C422.533,600.225 418.106,599.529 413.362,598.877 C401.052,597.187 401.79,597.507 399.099,592.689 C397.773,590.315 396.23,587.851 395.672,587.212 C395.113,586.574 392.965,582.941 390.899,579.138 C388.832,575.334 385.849,570.456 384.269,568.298 C378.03,559.773 370.696,546.108 361.835,526.498 C356.232,514.1 348.371,492.412 339.814,465.748 C336.041,453.991 331.302,439.39 329.283,433.3 C327.264,427.211 325.612,421.216 325.612,419.98 C325.612,418.743 325.072,414.444 324.411,410.427 C323.75,406.41 323.174,399.916 323.131,395.998 C323.063,389.8 323.309,388.319 325.014,384.622 C326.092,382.285 327.765,379.885 328.731,379.289 C329.697,378.693 333.862,377.449 337.987,376.526 C342.112,375.603 349.706,373.728 354.862,372.36 C360.019,370.992 365.288,369.66 366.571,369.399 C369.06,368.893 370.612,366.575 370.612,363.368 C370.612,361.62 370.403,361.551 364.456,361.34 L358.299,361.122 L357.323,357.747 C356.787,355.891 356.399,351.841 356.461,348.747 C356.823,330.862 356.503,323.548 355.313,322.56 C354.528,321.908 352.889,322.163 348.386,323.637 C334.79,328.087 316.938,330.755 300.867,330.737 C291.6,330.726 270.952,329.284 258.766,327.795 C250.563,326.792 226.022,324.949 212.737,324.337 C205.894,324.023 197.275,324.243 187.987,324.972 C180.15,325.587 171.712,326.14 169.237,326.201 C160.437,326.418 131.581,330.294 103.612,335.015 C95.156,336.442 84.187,338.243 79.237,339.018 C74.287,339.792 66.694,341.101 62.362,341.926 C50.779,344.132 11.803,348.766 5.032,348.742 C3.647,348.736 3.278,347.675 1.461,338.451 C0.233,332.216 -0.283,327.992 0.152,327.723 C0.547,327.479 6.947,325.838 14.374,324.077 C26.48,321.207 30.112,319.825 30.112,318.089 C30.112,316.889 22.638,306.233 20.264,304.048 C14.092,298.37 10.512,296.247 7.106,296.247 C2.934,296.247 2.281,294.847 4.516,290.694 C8.785,282.759 25.879,265.618 36.668,258.453 C48.201,250.794 68.657,240.672 82.001,236.022 C83.122,235.632 83.018,235.127 81.07,231.531 C74.646,219.671 69.865,196.52 69.884,177.372 C69.898,164.033 72.826,139.536 75.398,131.247 C81.137,112.756 94.06,97.239 119.225,78.625 C144.462,59.957 152.088,53.575 162.001,42.83 C166.97,37.444 171.145,33.809 176.322,30.362 C180.342,27.687 183.942,25.497 184.322,25.497 C184.703,25.497 186.334,24.6 187.948,23.504 C189.561,22.408 194.955,19.679 199.935,17.44 C225.03,6.156 253.876,-0.006 281.588,0 C297.873,0.003 308.662,0.987 323.362,3.81 C338.556,6.727 340.354,7.236 344.362,9.743 C355.923,16.976 373.755,22.509 391.339,24.321 C397.058,24.911 411.187,25.6 422.737,25.853 C454.53,26.549 461.211,27.139 469.64,29.995 C489.711,36.797 503.966,44.072 518.068,54.711 C527.609,61.908 529.952,64.499 532.161,70.288 C534.218,75.681 534.262,78.747 532.281,78.747 C531.742,78.747 529.824,78.226 528.019,77.588 C526.214,76.95 523.894,76.322 522.862,76.192 C521.831,76.062 516.094,73.997 510.112,71.602 C504.131,69.208 498.056,66.993 496.612,66.68 C479.388,62.948 471.783,61.704 472.987,62.817 C473.4,63.198 475.729,63.937 478.164,64.458 C485.575,66.045 499.527,71.104 508.237,75.363 C524.033,83.085 533.258,90.005 548.373,105.468 C561.267,118.658 564.169,123.017 565.625,131.376 L566.495,136.372 L574.866,140.685 C582.672,144.706 597.833,154.023 605.187,159.318 C634.102,180.14 645.665,191.669 662.791,216.747 C671.072,228.875 677.341,243.72 684.417,267.96 C690.919,290.232 694.104,305.871 696.212,325.872 C697.111,334.406 697.281,334.989 699.493,337.122 C702.975,340.481 707.118,350.354 708.208,357.891 C709.165,364.51 708.584,368.844 704.561,385.122 C703.949,387.597 702.838,392.491 702.091,395.997 C700.383,404.018 691.805,423.444 683.975,437.025 C675.689,451.397 654.414,466.987 634.237,473.473 C615.325,479.552 597.156,482.907 564.618,486.327 C537.773,489.149 533.301,489.662 528.862,490.427 C526.594,490.818 512.366,491.163 497.245,491.193 L469.753,491.247 L469.251,487.31 C468.975,485.144 467.965,478.141 467.007,471.747 C466.049,465.354 465.049,458.569 464.785,456.67 L464.304,453.218 L457.771,452.737 C454.177,452.472 449.425,452.033 447.21,451.762 L443.183,451.267 L443.562,454.195 C446.431,476.351 446.48,477.249 445.982,498.764 C445.264,529.82 446.969,542.958 452.41,548.293 C455.916,551.731 458.362,559.173 458.362,566.404 C458.362,569.983 458.797,572.409 459.785,574.345 C461.443,577.596 467.522,583.356 473.797,587.622 C484.12,594.641 490.621,603.118 490.605,609.539 C490.596,613.212 486.74,620.089 484.417,620.574 C474.338,622.679 473.729,622.953 473.913,625.293 C474.18,628.69 469.251,635.37 465.855,636.215 C460.713,637.495 458.705,637.441 455.374,635.932 z" fill="#000000" id="path6629"/>
    <path d="M465.539,628.899 C467.565,625.807 467.744,619.082 465.98,612.277 C462.804,600.023 460.665,594.384 457.703,590.451 C455.814,587.943 454.579,585.375 454.276,583.326 C454.016,581.564 453.151,576.241 452.354,571.498 C451.557,566.754 450.7,560.911 450.449,558.514 C450.124,555.407 449.633,554.025 448.74,553.702 C448.051,553.452 446.117,552.281 444.442,551.098 L441.396,548.947 L440.494,529.66 C439.998,519.052 439.586,500.248 439.579,487.873 C439.572,475.498 439.262,463.01 438.889,460.123 C438.517,457.235 438.009,452.51 437.759,449.623 C436.851,439.104 432.679,416.643 430.387,409.936 C428.38,404.063 428.062,402.087 428.083,395.623 C428.097,391.402 428.805,384.187 429.704,379.123 C430.582,374.173 431.535,366.949 431.823,363.071 L432.345,356.019 L429.041,356.473 C427.224,356.722 417.975,357.302 408.487,357.761 C399,358.22 388.2,358.826 384.487,359.109 L377.737,359.623 L377.551,363.748 C377.448,366.016 376.857,375.47 376.238,384.757 C374.399,412.342 374.948,424.916 378.791,443.248 C383.15,464.035 386.945,475.322 401.234,509.998 C410.299,531.994 413.999,541.383 414.463,543.561 C414.85,545.382 415.489,546.12 416.985,546.477 C420.029,547.203 420.862,548.185 420.862,551.045 C420.862,556.837 424.062,577.22 425.705,581.89 C426.669,584.63 428.235,589.91 429.187,593.623 C430.518,598.818 431.712,601.495 434.375,605.248 C436.277,607.929 439.105,612.113 440.659,614.545 C448.454,626.746 461.876,634.49 465.539,628.899 z" fill="#FFE0BD" id="path6627"/>
    <path d="M481.048,614.099 C485.858,610.712 484.404,605.759 476.22,597.652 C472.94,594.402 469.654,591.421 468.919,591.028 C467.649,590.348 467.653,590.566 468.992,595.342 C469.768,598.109 471.279,603.748 472.349,607.873 C473.42,611.998 474.676,615.618 475.142,615.918 C476.227,616.618 478.441,615.935 481.048,614.099 z" fill="#FFE0BD" id="path6625"/>
    <path d="M420.216,592.453 C416.605,578.086 415.004,569.891 414.114,561.211 C413.515,555.361 412.835,553.055 409.693,546.211 C403.506,532.735 387.341,494.814 384.825,487.873 C375.735,462.796 372.28,449.401 370.025,430.498 C369.341,424.755 369.453,404.181 370.245,390.373 C371.1,375.451 371.118,376.103 369.863,376.289 C367.807,376.593 356.126,379.33 345.488,382.001 C339.713,383.45 334.086,384.83 332.983,385.066 C330.864,385.522 329.44,388.394 329.197,392.699 C329.057,395.201 330.07,408.457 330.501,409.754 C330.66,410.232 330.975,411.888 331.201,413.435 C331.428,414.982 331.8,417.513 332.03,419.06 C333.811,431.076 344.052,465.454 352.282,487.044 C354.185,492.037 357.089,499.666 358.734,503.998 C360.38,508.329 362.243,513.054 362.875,514.498 C363.506,515.941 365.515,521.13 367.339,526.028 C370.833,535.409 375.023,543.734 382.489,556.127 C384.973,560.25 390.44,569.575 394.637,576.85 C399.477,585.239 402.896,590.364 403.982,590.859 C404.924,591.288 407.673,591.997 410.091,592.435 C419.406,594.12 420.636,594.122 420.216,592.452 z" fill="#FFE0BD" id="path6623"/>
    <path d="M496.987,483.801 C503.851,483.442 512.354,483.464 516.853,483.852 C521.94,484.29 526.046,484.262 528.478,483.771 C530.546,483.353 534.094,482.82 536.362,482.587 C538.631,482.354 544.2,481.703 548.737,481.141 C553.275,480.579 559.687,479.912 562.987,479.659 C569.856,479.133 591.771,476.643 600.112,475.441 C613.487,473.514 639.809,465.797 647.737,461.479 C654.937,457.558 665.497,449.837 670.318,444.968 C681.747,433.428 691.85,414.987 696.532,397.123 C700.109,383.471 701.362,374.794 701.362,363.671 C701.362,353.249 701.266,352.499 699.834,351.732 C697.501,350.484 695.948,351.411 693.524,355.5 C690.207,361.096 680.176,367.108 671.737,368.558 C670.087,368.841 666.206,369.877 663.112,370.86 C652.88,374.11 636.827,377.999 627.414,379.509 C615.538,381.415 584.542,381.626 572.305,379.885 C540.711,375.391 520.774,369.64 486.862,355.241 C481.225,352.847 479.864,351.859 475.104,346.703 C472.142,343.496 468.599,338.766 467.229,336.191 C463.41,329.017 462.695,329.719 461.701,341.621 C461.16,348.098 458.769,354.076 456.163,355.471 C455.364,355.898 451.84,356.248 448.331,356.248 C444.822,356.248 441.745,356.581 441.492,356.99 C441.24,357.398 442.44,360.52 444.159,363.927 C452.25,379.966 460.902,403.798 465.463,422.609 C469.974,441.21 474.038,469.184 474.101,482.06 L474.112,484.498 L479.55,484.463 C482.541,484.443 490.387,484.146 496.987,483.801 z" fill="#0057EF" id="path6621"/>
    <path d="M462.862,442.953 C462.862,441.553 461.823,436.406 460.553,431.515 C459.283,426.624 457.914,421.273 457.511,419.623 C455.324,410.672 448.029,388.59 446.003,384.788 C445.442,383.734 443.721,380.088 442.179,376.685 C440.637,373.282 439.118,370.498 438.804,370.498 C438.185,370.498 438.07,370.999 436.202,381.878 L434.956,389.133 L437.618,405.128 C439.083,413.925 440.833,425.029 441.508,429.803 C442.183,434.577 443.031,438.964 443.392,439.553 C443.884,440.353 457.375,444.523 462.3,445.398 C462.609,445.453 462.862,444.352 462.862,442.953 z" fill="#FFE0BD" id="path6619"/>
    <path d="M626.286,371.176 C641.496,369.118 645.939,368.091 661.237,363.099 C677.58,357.767 683.66,355.08 687.754,351.382 L690.862,348.573 L690.862,341.348 C690.86,325.872 687.487,301.884 683.043,285.748 C677.956,267.278 667.649,238.814 661.315,225.748 C658.316,219.56 656.017,216.461 644.42,202.971 C630.332,186.585 614.962,173.131 596.362,160.906 C583.553,152.486 568.575,143.998 566.527,143.998 C566.181,143.998 563.955,148.807 561.58,154.685 C557.407,165.012 553.358,172.232 550.237,174.91 C549.412,175.618 548.552,176.209 548.325,176.223 C548.098,176.236 541.855,171.672 534.45,166.08 C517.78,153.49 504.831,146.815 493.746,145.099 L490.505,144.598 L492.157,147.86 C493.065,149.654 494.396,151.966 495.114,152.998 C497.755,156.792 504.934,171.763 507.563,178.961 C510.332,186.544 512.491,198.212 511.855,202.164 C511.152,206.529 510.085,207.635 504.936,209.334 C502.214,210.232 499.566,211.122 499.051,211.312 C498.536,211.502 492.292,205.947 485.176,198.968 C461.374,175.624 438.053,157.729 420.487,149.332 C407.536,143.141 393.943,138.805 383.772,137.621 L379.306,137.101 L382.014,140.099 C391.79,150.92 400.283,168.514 401.719,180.92 C402.284,185.8 401.577,185.387 413.737,187.94 C417.037,188.633 420.75,189.419 421.987,189.688 C423.808,190.082 424.28,190.608 424.462,192.44 C424.637,194.217 424.279,194.922 422.8,195.714 C421.479,196.421 420.625,196.491 419.951,195.948 C417.891,194.29 411.359,193.534 405.376,194.263 C394.949,195.532 393.102,196.22 388.716,200.473 C382.894,206.118 380.208,212.179 373.224,235.424 C372.555,237.653 372.202,240.254 372.441,241.204 C372.68,242.155 372.051,245.776 371.043,249.252 C368.641,257.543 367.161,266.774 365.736,282.373 C364.208,299.091 362.522,314.885 361.593,321.19 C361.182,323.978 361.019,327.522 361.231,329.065 C361.442,330.609 361.747,336.598 361.908,342.373 L362.201,352.873 L363.969,352.71 C392.315,350.112 405.567,349.398 426.857,349.319 L450.573,349.231 L454.17,340.552 C456.148,335.778 458.366,330.391 459.1,328.581 L460.434,325.289 L454.336,313.384 C450.982,306.837 447.81,300.667 447.288,299.675 C446.55,298.27 446.535,297.44 447.221,295.934 C448.444,293.25 449.667,293.501 452.927,297.105 C457.081,301.697 458.525,304.018 466.79,319.381 C475.147,334.915 478.655,339.911 485.466,345.979 C491.255,351.135 494.33,352.669 505.392,355.917 C518.529,359.776 548.039,367.189 554.016,368.133 C590.337,373.868 602.585,374.384 626.286,371.176 z" fill="#FED90F" id="path6617"/>
    <path d="M23.997,341.219 C31.279,340.378 54.45,336.866 75.487,333.414 C139.783,322.863 153.758,321.041 177.112,320.161 C186.806,319.796 198.112,319.164 202.237,318.757 C212.497,317.745 222.299,317.841 238.237,319.109 C245.662,319.7 256.462,320.536 262.237,320.966 C268.012,321.396 277.277,322.085 282.825,322.498 C296.107,323.485 314.662,323.45 324.271,322.42 C332.696,321.517 342.858,319.065 348.474,316.581 C350.443,315.71 352.492,314.998 353.029,314.998 C354.706,314.998 356.362,312.735 356.362,310.444 C356.362,308.877 355.997,308.248 355.088,308.248 C354.387,308.248 348.734,309.929 342.525,311.984 C316.519,320.593 312.288,321.748 306.738,321.748 C303.639,321.748 296.241,320.684 288.959,319.192 C258.983,313.048 224.743,311.861 166.237,314.937 C158.4,315.349 144.056,315.891 134.362,316.141 C113.828,316.67 104.311,317.759 49.237,325.88 C36.862,327.705 22.819,329.582 18.03,330.051 C13.241,330.52 8.879,331.178 8.336,331.514 C7.526,332.014 7.52,333.073 8.299,337.436 C8.821,340.357 9.588,342.748 10.003,342.748 C10.418,342.748 16.715,342.06 23.997,341.219 z" fill="#0057EF" id="path6615"/>
    <path d="M86.737,313.624 C122.02,310.634 167.196,307.637 202.987,305.912 C223.509,304.923 245.669,305.415 257.737,307.126 C281.138,310.443 284.462,310.724 301.237,310.797 C315.637,310.86 319.479,310.641 324.487,309.47 C333.146,307.446 341.935,304.197 346.996,301.149 C349.418,299.691 352.335,298.498 353.479,298.498 C356.101,298.498 356.795,297.171 357.407,290.998 C357.672,288.316 357.997,285.616 358.128,284.998 C358.525,283.13 359.301,277.375 359.746,272.998 C359.977,270.729 360.267,268.366 360.392,267.748 C360.516,267.129 360.871,264.935 361.181,262.873 C361.492,260.81 361.872,258.31 362.026,257.317 C362.18,256.324 362.509,253.961 362.758,252.067 C363.006,250.172 363.347,247.574 363.515,246.292 L363.82,243.961 L356.154,243.081 C347.826,242.126 346.792,242.055 319.612,240.604 C287.799,238.905 248.422,239.661 229.237,242.339 C226.35,242.743 206.269,243.244 184.612,243.453 C162.956,243.663 135.956,244.114 124.612,244.457 C113.269,244.799 100.781,244.83 96.862,244.524 C75.96,242.896 52.447,251.45 36.112,266.625 C33.844,268.733 29.727,272.225 26.965,274.386 C21.102,278.97 11.947,288.612 12.328,289.802 C12.472,290.253 14.423,291.711 16.664,293.041 C25.792,298.461 32.875,306.496 35.016,313.858 L36.11,317.623 L43.424,317.149 C47.446,316.888 66.937,315.301 86.737,313.624 z" fill="#FFFFFF" id="path6613"/>
    <path d="M304.448,304.31 C300.012,292.887 297.862,286.905 297.862,285.979 C297.862,285.178 298.742,284.972 301.425,285.144 L304.987,285.373 L305.496,289.498 C305.776,291.766 306.217,295.417 306.476,297.609 C306.735,299.801 307.068,301.995 307.217,302.484 C308.394,306.356 308.353,307.498 307.038,307.498 C306.141,307.498 305.269,306.424 304.448,304.31 z" fill="#000000" id="path6611"/>
    <path d="M48.604,291.126 C46.623,288.937 47.106,287.56 50.175,286.657 C53.227,285.759 57.516,285.423 81.487,284.206 C90.15,283.766 110.518,282.412 126.751,281.197 C173.739,277.679 220.266,276.511 244.987,278.228 C256.237,279.009 279.238,281.815 281.619,282.696 C282.99,283.204 282.71,283.408 279.786,284.032 C277.372,284.547 273.88,284.478 268.161,283.802 C249.669,281.617 161.284,282.797 127.612,285.678 C122.869,286.084 114.6,286.626 109.237,286.884 C103.875,287.141 88.945,288.509 76.06,289.924 C63.175,291.34 52.005,292.498 51.239,292.498 C50.472,292.498 49.286,291.88 48.604,291.126 z" fill="#000000" id="path6609"/>
    <path d="M321.862,277.641 C321.862,276.24 324.431,270.748 325.086,270.748 C325.51,270.748 327.404,269.787 329.297,268.613 C331.189,267.438 336.112,264.53 340.237,262.149 C344.362,259.769 349.45,256.679 351.542,255.284 C355.935,252.356 356.362,252.253 356.362,254.13 C356.362,255.07 353.423,257.439 347.175,261.536 C342.122,264.848 334.359,269.933 329.925,272.834 C325.491,275.736 321.862,277.899 321.862,277.641 z" fill="#000000" id="path6607"/>
    <path d="M366.034,234.143 C367.354,231.677 372.032,216.438 372.64,212.623 C372.968,210.56 373.203,206.126 373.162,202.77 C373.093,197.236 372.836,196.221 370.41,191.895 C368.938,189.27 366.663,186.11 365.355,184.873 C364.046,183.635 362.329,181.366 361.539,179.831 L360.103,177.038 L362.003,175.793 C363.863,174.575 363.984,174.615 367.557,177.628 C370.704,180.282 371.339,180.554 372.137,179.593 C372.782,178.816 372.888,177.396 372.486,174.925 C371.502,168.877 371.618,166.934 372.976,166.663 C373.851,166.489 374.819,167.695 376.271,170.769 C378.159,174.768 378.356,176.054 378.686,186.56 C378.931,194.359 379.314,197.991 379.891,197.976 C380.357,197.964 383.654,195.628 387.22,192.784 C393.517,187.761 393.71,187.514 393.982,184.098 C394.383,179.054 392.071,170.203 388.519,163.184 C385.775,157.762 382.441,152.531 381.069,151.498 C380.796,151.291 380.024,150.11 379.355,148.873 C377.458,145.365 374.975,142.794 372.112,141.374 C368.548,139.606 366.112,137.269 366.112,135.617 C366.112,134.864 365.859,134.255 365.55,134.265 C365.241,134.274 357.9,134.759 349.237,135.342 C333.939,136.372 333.445,136.361 332.016,134.958 C330.585,133.552 330.58,133.382 331.829,128.695 C333.533,122.3 333.455,120.405 331.257,114.798 C326.963,103.84 320.623,95.542 312.366,90.073 C305.649,85.624 301.307,84.373 292.613,84.383 C283.763,84.394 277.124,85.975 274.613,88.67 C272.206,91.253 271.383,95.64 271.9,103.123 C272.248,108.147 272.75,110.4 273.865,111.935 C274.689,113.069 276.106,115.017 277.015,116.262 L278.666,118.527 L277.149,120.045 C275.846,121.348 275.32,121.443 273.434,120.716 C268.822,118.94 258.263,117.029 252.971,117.014 C246.378,116.994 239.269,118.675 235.478,121.148 C228.519,125.689 223.348,139.026 223.274,152.623 C223.242,158.523 223.646,160.694 226.481,169.873 C228.265,175.648 229.983,181.048 230.299,181.873 C230.78,183.128 228.669,212.406 227.012,227.441 L226.537,231.76 L268.387,231.566 L310.238,231.373 L312.016,227.623 C315.002,221.327 322.567,209.461 326.096,205.535 C327.932,203.493 332.203,199.866 335.586,197.475 C341.368,193.389 341.977,193.136 345.727,193.271 C350.783,193.454 355.38,196.05 358.969,200.751 C361.391,203.923 361.613,204.638 361.613,209.276 C361.613,215.172 359.526,222.593 356.711,226.714 C355.476,228.52 353.352,230.218 350.879,231.375 C348.738,232.376 347.156,233.254 347.363,233.327 C347.569,233.399 351.45,233.866 355.988,234.365 C360.525,234.863 364.479,235.322 364.774,235.384 C365.069,235.447 365.636,234.888 366.035,234.143 z" fill="#FFE0BD" id="path6605"/>
    <path d="M254.854,223.781 C253.196,222.883 252.822,222.262 253.18,220.999 C255.875,211.478 255.703,196.141 252.815,188.427 C251.168,184.026 251.137,183.652 252.319,182.469 C253.502,181.286 253.695,181.314 255.384,182.901 C256.376,183.832 258.323,186.831 259.712,189.565 C261.99,194.048 262.263,195.276 262.502,202.079 C262.797,210.518 261.826,216.104 259.135,221.435 C258.146,223.394 257.259,224.984 257.162,224.968 C257.066,224.951 256.027,224.417 254.854,223.781 z" fill="#000000" id="path6603"/>
    <path d="M317.655,126.708 C315.959,125.988 313.837,124.366 312.938,123.104 L311.304,120.81 L313.218,117.779 C314.923,115.078 315.452,114.748 318.073,114.748 C323.915,114.748 325.633,116.331 325.981,122.038 C326.104,124.055 325.685,124.747 323.433,126.236 C320.772,127.995 320.698,128.002 317.655,126.708 z" fill="#000000" id="path6601"/>
    <path d="M292.06,116.334 C288.863,114.739 288.503,113.319 290.298,109.385 C291.117,107.591 291.995,104.819 292.249,103.226 C292.872,99.329 295.543,96.748 298.953,96.748 C300.416,96.748 301.612,96.947 301.612,97.191 C301.612,97.435 300.431,99.014 298.987,100.701 C296.062,104.119 295.852,105.637 297.467,111.706 C299.051,117.658 297.453,119.024 292.06,116.334 z" fill="#000000" id="path6599"/>
    <path d="M348.5,223.386 C353.131,219.32 354.925,213.55 353.362,207.746 C352.447,204.349 349.407,200.695 347.904,201.186 C347.08,201.455 344.631,209.626 341.834,221.435 L340.813,225.748 L343.312,225.748 C345.045,225.748 346.634,225.024 348.5,223.386 z" fill="#FFFFFF" id="path6597"/>
    <path d="M224.347,206.81 C224.338,205.057 223.848,196.848 223.258,188.568 C222.346,175.784 221.888,172.73 220.216,168.318 C217.226,160.425 215.362,154.521 215.362,152.942 C215.362,151.595 213.03,146.304 206.205,132.164 C202.993,125.512 201.626,124.322 196.154,123.413 C193.574,122.985 192.609,123.215 190.237,124.824 C188.678,125.882 186.546,126.748 185.498,126.748 C182.308,126.748 175.193,135.144 170.521,144.422 C167.484,150.454 161.287,165.922 161.73,166.365 C161.922,166.557 163.111,165.907 164.371,164.919 C165.878,163.738 167.78,160.628 169.925,155.841 C174.535,145.552 181.106,137.422 187.42,134.195 C192.039,131.835 198.701,131.69 201.14,133.897 C203.237,135.795 206.121,140.732 207.961,145.576 C208.76,147.678 210.555,151.81 211.95,154.76 C213.346,157.709 215.033,162.239 215.699,164.825 C216.366,167.412 217.907,172.228 219.124,175.528 C220.963,180.516 221.463,183.392 222.088,192.576 C222.501,198.651 222.844,205.057 222.851,206.81 C222.857,208.563 223.2,209.998 223.612,209.998 C224.025,209.998 224.355,208.563 224.347,206.81 z" fill="#FFFFFF" id="path6595"/>
    <path d="M503.066,185.24 C500.479,176.222 496.283,167.504 490.255,158.623 C482.27,146.857 477.389,142.491 476.068,145.934 C475.072,148.53 475.653,151.274 477.577,153.054 C478.657,154.054 482.367,158.296 485.821,162.48 C492.886,171.039 498.69,181.603 502.252,192.39 L504.487,199.157 L504.718,195.479 C504.862,193.168 504.248,189.361 503.066,185.24 z" fill="#FFFFFF" id="path6593"/>
    <path d="M166.435,181.791 C168.801,180.284 172.036,177.885 173.624,176.46 C175.211,175.034 177.462,173.536 178.626,173.13 C183.402,171.466 181.745,167.304 176.288,167.258 C175.628,167.252 171.942,169.144 168.097,171.462 C161.532,175.42 160.886,175.65 157.485,175.247 C154.284,174.868 153.862,174.983 153.862,176.232 C153.862,177.01 153.187,177.861 152.362,178.123 C150.28,178.784 150.423,181.787 152.605,183.217 C156.707,185.905 160.606,185.503 166.435,181.791 z" fill="#FFFFFF" id="path6591"/>
    <path d="M76.967,164.248 C77.557,161.979 78.932,156.241 80.023,151.498 C84.757,130.909 91.574,118.517 105.639,104.935 C114.423,96.452 122.217,91.213 138.862,82.6 C147.408,78.179 151.032,75.073 153.862,69.748 C157.488,62.923 170.467,49.772 179.335,43.938 C185.925,39.602 200.367,32.611 204.112,31.944 C205.556,31.687 209.437,30.155 212.737,28.54 C216.795,26.554 221.652,24.991 227.737,23.713 C232.687,22.673 240.723,20.954 245.595,19.894 C250.467,18.833 254.765,18.158 255.147,18.394 C255.528,18.63 260.376,18.131 265.919,17.285 C277.929,15.453 276.862,15.493 276.862,16.873 C276.862,18.245 276.434,18.247 285.112,16.818 C301.159,14.174 328.626,19.111 353.458,29.103 C356.499,30.326 363.206,32.931 368.362,34.891 C373.519,36.851 378.133,38.765 378.616,39.144 C379.1,39.524 379.727,41.205 380.01,42.882 L380.525,45.929 L388.131,45.413 C396.095,44.872 419.005,41.98 429.792,40.154 C435.583,39.174 436.772,39.206 444.417,40.552 C466.068,44.363 481.749,49.009 494.244,55.313 C500.606,58.523 516.23,65.466 522.862,68.03 C523.481,68.27 522.469,66.862 520.612,64.902 C505.517,48.964 484.401,38.789 454.612,33.098 C435.907,29.525 436.962,29.557 420.862,32.09 C412.819,33.355 400.883,34.954 394.338,35.643 C381.214,37.025 380.813,36.941 380.054,32.674 C379.527,29.716 378.67,29.063 372.112,26.626 C369.019,25.476 363.45,23.374 359.737,21.955 C349.217,17.934 331.812,12.071 325.612,10.461 C313.357,7.276 297.193,6.075 285.402,7.473 C279.389,8.185 277.328,8.195 276.51,7.516 C275.705,6.848 274.106,6.833 269.966,7.454 C266.953,7.906 261.787,8.397 258.487,8.545 C255.187,8.694 250.428,9.359 247.911,10.023 C245.394,10.687 237.969,12.233 231.411,13.457 C221.715,15.267 218.367,16.24 213.487,18.668 C210.187,20.31 205.136,22.377 202.262,23.263 C191.397,26.61 178.352,34.056 169.302,42.075 C163.844,46.912 154.667,57.664 153.396,60.711 C151.627,64.953 147.982,68.138 140.737,71.775 C112.9,85.75 95.475,101.816 86.403,121.873 C82.997,129.404 82.128,132.147 79.509,143.623 C79.039,145.685 78.024,149.362 77.255,151.793 C76.45,154.335 75.708,159.435 75.508,163.793 C75.316,167.962 75.325,170.698 75.528,169.873 C75.73,169.048 76.378,166.516 76.967,164.248 z" fill="#FFFFFF" id="path6589"/>
    <path d="M557.39,131.099 C556.129,122.97 553.708,118.722 545.88,110.904 C534.754,99.792 523.565,90.976 513.15,85.114 C494.38,74.551 479.891,69.515 462.487,67.505 C456.393,66.801 454.759,66.345 453.766,65.069 L452.544,63.5 L448.516,65.039 C446.3,65.885 441.45,67.679 437.737,69.024 C430.681,71.582 428.346,73.328 428.386,76.018 C428.419,78.211 430.096,80.248 431.87,80.248 C432.677,80.248 437.662,78.528 442.948,76.426 C452.892,72.472 452.611,72.492 454.492,75.588 C454.866,76.203 458.059,76.81 463.283,77.259 C472.85,78.081 477.603,79.148 488.286,82.876 C504.676,88.594 517.755,96.385 535.077,110.745 C550.403,123.452 555.944,130.509 557.253,138.986 L557.737,142.123 L557.974,139.252 C558.104,137.673 557.841,134.004 557.39,131.099 z" fill="#FFFFFF" id="path6587"/>
    <path d="M264.774,107.766 C264.725,106.45 264.427,104.36 264.112,103.123 C263.672,101.39 263.52,102.046 263.451,105.979 C263.395,109.214 263.637,110.916 264.112,110.623 C264.525,110.368 264.823,109.082 264.774,107.766 z" fill="#FFFFFF" id="path6574"/>
  </g>
</svg>