<?xml version="1.0" encoding="UTF-8" standalone="no"?>
<!-- Created with Inkscape (http://www.inkscape.org/) -->
<svg xmlns:inkscape="http://www.inkscape.org/namespaces/inkscape" xmlns:rdf="http://www.w3.org/1999/02/22-rdf-syntax-ns#" xmlns="http://www.w3.org/2000/svg" xmlns:sodipodi="http://sodipodi.sourceforge.net/DTD/sodipodi-0.dtd" xmlns:i="http://ns.adobe.com/AdobeIllustrator/10.0/" xmlns:cc="http://web.resource.org/cc/" xmlns:xlink="http://www.w3.org/1999/xlink" xmlns:dc="http://purl.org/dc/elements/1.1/" xmlns:svg="http://www.w3.org/2000/svg" xmlns:ns1="http://sozi.baierouge.fr" id="svg1343" sodipodi:docname="TheresaKnott_Motobike.svg" sodipodi:modified="true" xml:space="preserve" sodipodi:version="0.32" version="1.0" inkscape:output_extension="org.inkscape.output.svg.inkscape" inkscape:version="0.45" viewBox="0 0 451.519 455.202" sodipodi:docbase="C:\Documents and Settings\Molumen\Desktop"><sodipodi:namedview id="base" bordercolor="#666666" inkscape:pageshadow="2" guidetolerance="10.0" pagecolor="#ffffff" gridtolerance="10.0" inkscape:zoom="0.82820375" objecttolerance="10.0" borderopacity="1.0" inkscape:current-layer="svg1343" inkscape:cx="278.00225" inkscape:cy="240.32699" inkscape:window-y="232" inkscape:window-x="330" inkscape:window-height="735" inkscape:pageopacity="0.0" inkscape:window-width="868"/><defs id="defs2655"><linearGradient id="linearGradient31995"><stop id="stop31997" style="stop-color:#999699" offset="0"/><stop id="stop31999" style="stop-color:#020000" offset="1"/></linearGradient><linearGradient id="linearGradient20133"><stop id="stop20135" style="stop-color:#ffffff" offset="0"/><stop id="stop22780" style="stop-color:#ffffff;stop-opacity:.41237" offset=".5"/><stop id="stop20137" style="stop-color:#ffffff;stop-opacity:0" offset="1"/></linearGradient><linearGradient id="linearGradient7742"><stop id="stop7744" style="stop-color:#ffffff" offset="0"/><stop id="stop7746" style="stop-color:#96939e" offset="1"/></linearGradient>
	<radialGradient id="radialGradient2604" fx="241.67" fy="270.95" xlink:href="#linearGradient31995" gradientUnits="userSpaceOnUse" cy="272.23" cx="247.99" gradientTransform="matrix(.26382 .12238 -.14730 .44933 304.84 117.74)" r="8.833" inkscape:collect="always"/><radialGradient id="radialGradient2607" fx="315.69" fy="266.79" xlink:href="#linearGradient31995" gradientUnits="userSpaceOnUse" cy="273.72" cx="318.7" gradientTransform="matrix(2.2601 .40330 -.068650 .38196 -381.03 36.079)" r="13.662" inkscape:collect="always"/><radialGradient id="radialGradient2610" fx="244.65" fy="269.77" xlink:href="#linearGradient31995" gradientUnits="userSpaceOnUse" cy="272.12" cx="247.93" gradientTransform="matrix(1.3009 .49860 -.29782 2.4148 66.203 -523.3)" r="8.833" inkscape:collect="always"/><radialGradient id="radialGradient2613" fx="316.16" fy="237.75" xlink:href="#linearGradient31995" gradientUnits="userSpaceOnUse" cy="245.33" cx="320.17" gradientTransform="matrix(.98672 0 0 1.3801 5.9938 -97.848)" r="10.516" inkscape:collect="always"/><linearGradient id="linearGradient2616" y2="190.08" gradientUnits="userSpaceOnUse" x2="334.83" gradientTransform="matrix(.98672 0 0 .98319 5.9938 .040932)" y1="190.08" x1="256.3" inkscape:collect="always"><stop id="stop31829" style="stop-color:#303232" offset="0"/><stop id="stop31831" style="stop-color:#ffffff" offset="1"/></linearGradient><linearGradient id="linearGradient2619" y2="188.02" xlink:href="#linearGradient7742" spreadMethod="reflect" gradientUnits="userSpaceOnUse" x2="377.52" gradientTransform="matrix(.98672 0 0 .98319 5.9938 .040932)" y1="219.25" x1="340.4" inkscape:collect="always"/><linearGradient id="linearGradient2622" y2="321.06" xlink:href="#linearGradient7742" spreadMethod="reflect" gradientUnits="userSpaceOnUse" x2="269.95" gradientTransform="matrix(.98672 0 0 .98319 5.9938 .040932)" y1="269.31" x1="159.02" inkscape:collect="always"/><linearGradient id="linearGradient2671" y2="175.31" xlink:href="#linearGradient7742" spreadMethod="reflect" gradientUnits="userSpaceOnUse" x2="215.68" gradientTransform="matrix(.98672 0 0 .98319 5.9938 .040932)" y1="169.69" x1="203.11" inkscape:collect="always"/><linearGradient id="linearGradient2724" y2="253.01" xlink:href="#linearGradient7742" gradientUnits="userSpaceOnUse" x2="263.7" gradientTransform="matrix(.98672 0 0 .98319 5.9938 .040932)" y1="268.83" x1="209.76" inkscape:collect="always"/><linearGradient id="linearGradient2728" y2="261.99" xlink:href="#linearGradient7742" gradientUnits="userSpaceOnUse" x2="293.11" gradientTransform="matrix(.98672 0 0 .98319 5.9938 .040932)" y1="261.99" x1="215.09" inkscape:collect="always"/><linearGradient id="linearGradient2731" y2="85.088" gradientUnits="userSpaceOnUse" x2="279.06" gradientTransform="matrix(.98672 0 0 .98319 5.9938 .040932)" y1="85.088" x1="243.02" inkscape:collect="always"><stop id="stop2613" style="stop-color:#373936" offset="0"/><stop id="stop2615" style="stop-color:#373936;stop-opacity:0" offset="1"/></linearGradient><linearGradient id="linearGradient2734" y2="34.3" xlink:href="#linearGradient7742" spreadMethod="reflect" gradientUnits="userSpaceOnUse" x2="183.69" gradientTransform="matrix(.98672 0 0 .98319 5.9938 .040932)" y1="21.704" x1="187" inkscape:collect="always"/><radialGradient id="radialGradient2737" xlink:href="#linearGradient20133" gradientUnits="userSpaceOnUse" cy="26.079" cx="4.768" gradientTransform="matrix(.32090 -.40405 .36267 -.036290 320.57 143.09)" r="70.461" inkscape:collect="always"/><radialGradient id="radialGradient2740" xlink:href="#linearGradient20133" gradientUnits="userSpaceOnUse" cy="26.079" cx="4.768" gradientTransform="matrix(.57298 -.055122 -.052562 .15813 338.89 120.81)" r="70.461" inkscape:collect="always"/><radialGradient id="radialGradient2743" xlink:href="#linearGradient20133" gradientUnits="userSpaceOnUse" cy="26.079" cx="4.768" gradientTransform="matrix(.52653 -.23183 0 .16658 359.96 116.05)" r="70.461" inkscape:collect="always"/><radialGradient id="radialGradient2746" xlink:href="#linearGradient20133" gradientUnits="userSpaceOnUse" cy="26.079" cx="4.768" gradientTransform="matrix(.15695 -.011527 -.045816 .059484 297.07 11.116)" r="70.461" inkscape:collect="always"/><radialGradient id="radialGradient2749" xlink:href="#linearGradient20133" gradientUnits="userSpaceOnUse" cy="26.079" cx="4.768" gradientTransform="matrix(.11746 -.10436 0 .074983 268.84 27.775)" r="70.461" inkscape:collect="always"/><radialGradient id="radialGradient2752" xlink:href="#linearGradient20133" gradientUnits="userSpaceOnUse" cy="26.079" cx="4.768" gradientTransform="matrix(.12556 -.34831 .14105 .019348 387.94 156.64)" r="70.461" inkscape:collect="always"/><radialGradient id="radialGradient2755" xlink:href="#linearGradient20133" gradientUnits="userSpaceOnUse" cy="26.079" cx="4.768" gradientTransform="matrix(.52653 -.23183 0 .16658 95.753 119.04)" r="70.461" inkscape:collect="always"/><linearGradient id="linearGradient2775" y2="166.12" xlink:href="#linearGradient7742" spreadMethod="reflect" gradientUnits="userSpaceOnUse" x2="169.53" gradientTransform="matrix(.98672 0 0 .98319 5.9938 .040932)" y1="161.3" x1="156.89" inkscape:collect="always"/><linearGradient id="linearGradient2778" y2="79.198" xlink:href="#linearGradient7742" spreadMethod="reflect" gradientUnits="userSpaceOnUse" x2="251.44" gradientTransform="matrix(.98672 0 0 .98319 5.9938 .040932)" y1="75.183" x1="242.01" inkscape:collect="always"/><linearGradient id="linearGradient2781" y2="29.211" xlink:href="#linearGradient7742" spreadMethod="reflect" gradientUnits="userSpaceOnUse" x2="240.6" gradientTransform="matrix(.98672 0 0 .98319 5.9938 .040932)" y1="15.962" x1="239.19" inkscape:collect="always"/><radialGradient id="radialGradient2784" fx="433.25" fy="120.62" xlink:href="#linearGradient7742" gradientUnits="userSpaceOnUse" cy="109.97" cx="423.87" gradientTransform="matrix(1.0586 -.080050 .043273 .56813 -29.212 82.832)" r="24.632" inkscape:collect="always"/></defs>
	<g id="g2786" transform="translate(-5.9951 6.3472)"><path id="path27199" style="fill-rule:evenodd;fill:url(#radialGradient2784)" d="m402.94 102.86l0.84 5.87 10.09 7.81 2.24 8.93 2.24 1.12 19.33-14.23c7.76-1.36 14.1-2.52 12.33-2.52l-1.4-3.07-33.34-3.35-12.33-0.56z"/><path id="path25431" style="fill-rule:evenodd;fill:url(#linearGradient2781)" d="m237.36 27.577s1.58-4.342 5.94-6.316 36.45-9.869 39.62-9.869 41.2-1.5787 41.2-1.5787l0.79 7.8947-55.07 2.764s-8.32 1.973-11.49 2.763c-3.17 0.789-9.5 5.526-9.5 5.526l-11.49-1.184z"/><path id="path24546" style="fill-rule:evenodd;stroke:#000000;stroke-width:.98496px;fill:url(#linearGradient2778)" d="m230.62 104.55l11.49 5.13 25.36-68.287 0.39-14.211-13.86-1.579-5.55 3.948-17.83 74.999z"/><path id="path23663" style="fill-rule:evenodd;fill:url(#linearGradient2775)" d="m170.8 128.63l-29.71 73.82 18.22 4.34 25.36-67.89-13.87-10.27z"/><path id="path8703" style="fill-rule:evenodd;fill:#c53034" d="m403.73 105.79s-21.89 9.62-25.75 19.24-16.73 63.49-20.59 68.62-6.44 13.46-6.44 13.46 1.47 20.63 0.65 30.78c11.68 3.41 16.73 4.49 16.73 4.49s-6.44-28.85-3.22-33.34 6.44-7.06 6.44-7.06 4.37-0.16 23.17 0.64c16.25-14.42 36.04-35.27 41.83-58.35 5.79-23.09 1.93-32.71 1.93-32.71s-14.16 5.13-18.02 10.26-4.53 4.06-4.53 4.06 0.67-5.98-3.84-10.47c-4.5-4.49-9.01-9.62-8.36-9.62z"/><path id="path8623" style="fill-rule:evenodd;fill:#7d0000" d="m134.26 120.16s25.87-7 33.27-4.42c7.39 2.58 35.85 15.1 39.92 19.15 4.06 4.05 25.87 25.42 28.09 32.41 2.22 7 10.35 53.41 10.35 53.41l-2.96 2.21s-20.04-4.41-21.81-5.53c-4.06-2.57-11.09-19.52-10.72-26.15s-11.09-27.99-14.41-32.04c-3.33-4.05-21.07-27.62-31.79-32.41s-29.2-5.89-29.94-6.63z"/><path id="path5804" style="fill-rule:evenodd;fill:#c53034" d="m63.272 141.7c1.239-4.22 28.961-29.49 48.268-35.91 19.31-6.41 53.42-10.258 71.44-1.92 18.02 8.34 42.28 24.18 52.13 44.16 8.24 16.74 12.6 45.24 12.23 57.16-0.29 8.97-1.93 18.6-1.93 18.6s-4.87-6.13-9.02-33.35c-1.19-7.84-2.73-25.89-19.86-44.7-17.67-19.39-46.16-29.72-55.8-29.22-21.49 1.1-42.11 9.15-53.05 14.28-10.942 5.13-34.837 18.68-40.642 16.12-3.767-1.67-4.904-1.33-3.766-5.22z"/><path id="path8699" style="fill-rule:evenodd;fill:#343034" d="m281.21 87.446s4.83 8.248 4.83 14.434v13.75s4.83-10.31 8.97-9.63c4.14 0.69 5.52-1.37 13.1 6.19 7.59 7.56 29.45 23.11 28.1 25.6-2.79 5.09-8.78 4.97-8.78 4.97s-11.04-6.52-14.49-8.58-7.59-2.75-7.59-2.75l22.08 24.75s21.88 40.47 21.88 47.35c0 6.87 3.3 10.05 8.82 1.11 5.52-8.93 14.82-49.15 16.89-61.52s8.63-20.43 18.98-27.31c10.35-6.87 14.82-11.87 8.61-13.93-6.21-2.063-28.97-0.69-28.97-0.69s-40.27 9.7-48.54 8.32c-8.28-1.37-28.88-15.806-31.64-19.242-2.76-3.437-10.87-3.509-12.25-2.822z"/><path id="path8705" style="fill-rule:evenodd;stroke:#000000;stroke-width:.98496px;fill:#c53034" d="m173.29 101.08l17.56-60.266s19.51-11.178 31.7-11.664 28.29 0.486 30.24 3.402 4.39 4.374 2.44 9.72-26.34 68.528-26.34 68.528l-3.9 4.37-26.34-3.89-25.36-10.2z"/><path id="path8707" style="fill-rule:evenodd;fill:#d23034" d="m268.08 26.421c-2.99 4.165-3.35 2.975-7.27 5.477-1.64 2.545-3.23 8.077 0.12 11.354 1.44 1.403 8.88-1.818 8.88-1.818s11.76-13.256 18.59-18.602c8.51-1.996 22.02-2.926 22.02-2.926s-4.31-0.957-4.47-3.878c-0.26-4.867 3.42-7.7757 3.42-7.7757s-13.09-2.1746-23.41 2.3677c-10.33 4.542-12.08 7.706-17.88 15.801z"/><path id="path9582" style="fill-rule:evenodd;stroke:#000000;stroke-width:.98496px;fill:#e02f2c" d="m328.81 7.3757s-1.38-3.7802-3.11-3.7802c-1.72 0-3.1 7.9035-3.1 10.654 0 2.748 1.72 9.277 4.48 9.277s2.76-3.436 4.49-3.78c1.72-0.344 25.86-3.093 27.59-3.436 1.72-0.344 5.51-2.406 4.82-3.781-0.69-1.374-3.44-6.8726-3.44-6.8726l-31.73 1.7183z"/><path id="path10457" style="fill-rule:evenodd;stroke:#000000;stroke-width:.98496px;fill:#bc2526" d="m186.71 19.403s-2.76-2.062-4.48-2.062-4.83 2.062-4.83 2.062l-14.48 1.375s-2.07-2.406-3.45-2.406-5.18 3.437-5.18 5.155 2.42 9.279 3.8 9.279 5.52-2.062 5.52-2.062l13.45-1.031s1.38 3.093 2.76 3.093 5.17 0 6.55-1.719c1.38-1.718-1.73-2.405-1.73-2.405s-3.44-0.687-3.79-2.749c-0.34-2.062 1.04-4.124 2.41-4.468 1.38-0.343 4.14-1.718 3.45-2.062z"/><path id="path11334" style="color:#000000;fill:#9b2526" d="m363.29 10.125c0 2.971-1.33 5.404-3 5.496-1.68 0.091-3.09-2.193-3.2-5.158-0.1-2.9649 1.14-5.539 2.81-5.813 1.67-0.2741 3.17 1.8512 3.37 4.7995"/><path id="path11336" style="fill-rule:evenodd;fill:#af0e0c" d="m247.17 210.66c15.48 0.87 32.97 3.61 36.36 2.76 3.4-0.84 8.65-3.6 9.5-7.83s-6.06-7.4-6.06-7.4l-21.64-53.05s-3.72 0.37-3.72-3.01c0-3.39 5.09-11 7.64-15.24 2.55-4.23 3.39-8.46 3.39-8.46s-15.28-3.38-19.53-3.38c-4.24 0-13.58 4.23-13.58 4.23l3.39-8.46-11.04-6.77-6.79 11.84-26.11-4.01 18.47 15.01 4.24-7.61s7.87 2.21 12.11 5.59c4.25 3.39 0.63 3.72 0.63 3.72l-6.09 11.11s13.73 17.66 13.73 26.96c0 9.31 5.17 18.92 5.1 44z"/><path id="path13090" style="fill:#ff3000" d="m166.12 99.62c-22.79-1.56-43.01 1.13-62.26 10.58-10.127 5.07-21.151 12.64-29.347 20.33-4.736 4.63-12.909 10.67-10.518 15.05 6.933-1.36 9.151-6.44 16.93-13.21 13.384-11.65 28.415-21.53 46.465-23.76 11.7-2.11 21.12-2.35 35.52-1.59 3.3 0.18 13.24 0.62 14.43-2.66-1.47-0.59-9.71-4.89-11.22-4.74z"/><path id="path13969" style="fill:#ff0000" d="m224.44 30.212c-9.22 0.518-19.72 1.875-27.65 7.447-4.07 3.245-8.51 8.852-8.85 14.42-1.6 3.96-3.57 8.045-4.41 12.372-1.04 5.262-3.76 10.037-4.29 15.412-0.66 5.065-1.47 10.258-4.21 14.681-2.38 4.349 2.1 10.216 6.8 7.396 5.48-2.611 6.56-9.294 7.56-14.648 1.58-7.924 8.09-29.192 8.12-32.403 1.81-3.999 3.69-9.917 9.65-12.208 8.46-3.25 19.19-3.051 28.52-0.3 4.51 1.758 1.24 8.776 6.35 9.526 6.06 0.616 9.75-6.917 7.26-11.911-2.56-4.78-4.56-5.448-11.93-8.688-5.23-1.835-9.08-0.793-12.92-1.096z"/><path id="path14848" style="fill:#ff0000" d="m174.58 22.833c-1.89-0.191-3.77 0.158-5.64 0.333-2.63 0.133-5.26-0.045-7.89 0.068-1.05-0.062-1.69-1.039-2.68-1.264-1.13-0.303 0.59-0.876 0.88-1.288 0.65-0.488 1.31-0.972 2.03-1.356-0.12 0.925-0.86 1.627-1.06 2.538-0.35 1.059-0.44 2.179-0.57 3.28-1.41 0.782-2.82 1.564-4.22 2.347 0.22-1.797 0.27-3.708 1.18-5.322 0.96-1.629 2.71-2.486 4.25-3.459 1.08-0.586 1.86 0.585 2.7 1.047 0.86 0.593 1.91 0.271 2.88 0.345 2.21-0.016 4.43 0.109 6.63-0.102 1.35-0.211 2.71-0.301 4.07-0.299 0.52-0.083 1.7-0.064 0.73 0.466-1.1 0.888-2.19 1.777-3.29 2.666z"/><path id="path15725" style="fill:#ff0000" d="m307.93 8.4435c-2.38 1.9125-5.37 3.2015-8.48 2.9035-3.91-0.359-8.15 0.371-12.02 1.303-5.58 0.839-9.49 5.979-11.92 9.195-2.88 2.093-4.84 6.484-7.46 8.91-3.4 3.451-6.95 3.034-8.36 3.486 0.56-1.052 2.33-2.815 1.29-2.408 2.6-1.552 3.82-3.868 6.31-5.574 2.56-1.964 5.44-3.707 7.11-6.569 1.24-1.821 3.12-3.063 4.35-4.904 1.17-1.884 3.32-2.676 5.1-3.868 2.3-1.4709 4.19-1.3102 6.88-1.6401 6.3-0.3918 6.87-0.4448 11.82-1.0675 1.39 0.2216 3.74-0.7094 4.56 0.0963-0.93 0.8118-0.74 0.7776 0.82 0.1368z"/><path id="path16601" style="fill:#ff0000" d="m356.13 7.9683c-2.62 0.2957-5.26 0.0938-7.87 0.3925-2.09-0.0001-4.18 0.1549-6.2 0.7532-4.46 1.252-19.16-2.7604-18.29-4.5007-0.13-1.3514 2.24-1.0157 3.84 0.7283 1.21 1.4628 25.8 4.1575-1.23 4.5719-1.33 2.8215-1.53 4.6355-0.82 7.5205 0.09 1.201 1.72 2.891 2.4 5.029-0.94 0.637-2.38 1.386-2.92-0.146-1.07-1.395-1.53-3.145-1.58-4.904-0.24-2.725-0.61-5.343-0.29-8.0331-0.88-3.6385 2.02-4.6794 4.22-5.3974 1.79 0.4887 0.41 3.7561 2.67 4.0664 1.42 0.4144 2.92-0.8134 4.37-0.6763 3.54 0.0644 6.52-0.3954 10.28-0.6717 1.81-0.4798 3.94-0.0694 5.78-0.1418 2.38-0.2794 4.79 0.0049 7.16-0.3567 1.59-0.0892-0.92 1.1292-1.38 1.6592l-0.14 0.1067z"/><path id="path18376" style="fill:#dd0000" d="m180.93 103.39c4.17 1.72 8.12 4.14 12 6.59 3.63 2.03 7.59 3.03 11.52 4.13 5.07 1.75 8.26 6.33 12.3 9.42 2.86 3.59 7.47 5.47 9.76 9.62 2.81 4.21 5.4 9.48 6.71 14.53 2.22 4.92 3.39 8.96 6.06 13.74 2.11 4.2 5.67 22.44 7.83 26.63 2.03 5.89-2.77 33.13-1.4 29.33-0.3-5.59-5.44-30.84-6.45-37.47-1.92-4.41-3.48-17.6-8.09-27.58-7.43-10.01-12.71-21.18-16.78-23.8-3.61-3.46-7.07-7.11-11.21-10.01-3.69-2.49-20.8-10.31-25.96-11.59-1.01-1.08 2.47-2.22 3.4-3.32l0.22-0.16 0.09-0.06z"/><path id="path18379" style="fill:#ee0000" d="m430.52 115.05c-5.1 3.98-8.41 7.17-13.1 11.67-5.7-8.84-10.35-12.23-16.03-10.57-10.28 1.59-19.69 13.03-22.75 22.43-6.28 12.35-5.55 31.25-10.99 43.93-2.01 7.51-6.49 17.61-9.14 24.89 4.98-2.66 10.99-8.82 13.18-14.79 4.4-13.44 9.62-26.62 13.78-40.14 3.68-7.36 5.48-15.76 10.82-22.21 5.14 0.58 14.1 6.35 19.66 4.84 10.08-3.18 11.32-11.64 20.58-16.32 5.02-2.83 0.05-6.6-3.46-5.27-0.88 0.46-1.72 1-2.55 1.54z"/><path id="path19258" style="color:#000000;fill:url(#radialGradient2755)" d="m135.36 105.95c0 6.34-15.92 18.54-35.954 27.56-20.036 9.02-36.938 11.59-38.171 5.8-1.234-5.79 13.648-17.83 33.607-27.21 19.958-9.37 37.778-12.68 40.238-7.47"/><path id="path20145" style="color:#000000;fill:url(#radialGradient2752)" d="m401.06 130.94c5.37 0.73 5.97 11.87 1.36 25.15-4.61 13.27-12.77 23.89-18.43 23.97-5.65 0.08-6.75-10.4-2.49-23.67 4.27-13.28 12.36-24.54 18.27-25.43"/><path id="path21022" style="opacity:.89326;color:#000000;fill:url(#radialGradient2749)" d="m277.68 21.88c0 2.854-3.55 8.349-8.02 12.407-4.47 4.059-8.25 5.215-8.52 2.61-0.28-2.605 3.04-8.028 7.5-12.247 4.45-4.219 8.43-5.708 8.97-3.363"/><path id="path21026" style="opacity:.69101;color:#000000;fill:url(#radialGradient2746)" d="m307.68 11.8c-1.74 2.264-7.92 4.468-13.94 4.976-6.03 0.509-9.73-0.862-8.35-3.095 1.37-2.234 7.32-4.5216 13.43-5.1674 6.11-0.6459 10.17 0.5841 9.17 2.7774"/><path id="path21903" style="opacity:.12921;color:#000000;fill:url(#radialGradient2743)" d="m399.57 102.96c0 6.34-15.92 18.54-35.95 27.56-20.04 9.02-36.94 11.58-38.17 5.8-1.24-5.79 13.64-17.84 33.6-27.21 19.96-9.373 37.78-12.682 40.24-7.47"/><path id="path22782" style="opacity:.19663;color:#000000;fill:url(#radialGradient2740)" d="m380.62 120.79c-2 6.02-20.96 12.62-42.83 14.9-21.86 2.28-38.72-0.57-38.06-6.45 0.65-5.88 18.58-12.66 40.49-15.3 21.9-2.65 39.86-0.2 40.55 5.51"/><path id="path22786" style="opacity:.25843;color:#000000;fill:url(#radialGradient2737)" d="m354.17 111.74c13.81-1.38 15.42 9.71 3.63 25.04s-32.7 29.37-47.23 31.69c-14.54 2.33-17.43-7.9-6.54-23.09 10.89-15.18 31.63-29.85 46.83-33.11"/><path id="path26316" style="fill-rule:evenodd;fill:url(#linearGradient2734)" d="m215.57 31.525s0.79-5.527-1.98-7.106c-2.78-1.579-11.1-5.526-19.81-5.132-8.72 0.395-13.08 4.343-13.08 4.343l2.38 5.131s5.15-0.789 9.51 0.79 5.94 2.763 8.32 3.947c2.38 1.185 14.26-1.973 14.66-1.973z"/><path id="path2601" style="fill-rule:evenodd;fill:url(#linearGradient2731)" d="m269.48 114.31l11.38-28.811-0.45-8.553-8.2-5.402 0.46-4.952-2.28-7.64-6.82-5.865s-6.37 14.856-8.19 18.907c-1.82 4.052-4.1 11.704-4.1 11.704l-5 15.306 23.2 15.306z"/><path id="path1702" style="fill-rule:evenodd;stroke:#000000;stroke-width:.98496px;fill:url(#linearGradient2728)" d="m219.57 236.47l74.31 10.58 0.84 24.54-23.35 7.19-42.46-16.08-10.19-13.11 0.85-13.12z"/><path id="path2585" style="fill-rule:evenodd;stroke:#000000;stroke-width:.98496px;fill:#373936" d="m245.59 222.92l1.5-3.59h4.2l18.31 23.63s-0.9 22.14 0 24.53c0.91 2.4 3.91 14.66 3.91 14.66s-8.71-22.14-8.71-25.73-0.9-10.47-0.9-10.47l-18.31-23.03z"/><path id="path2589" style="fill-rule:evenodd;stroke:#000000;stroke-width:.98496px;fill:url(#linearGradient2724)" d="m235.98 222.32l9.91 0.6 18.31 22.73s0 22.74 5.4 30.22c5.41 7.48 15.62 14.36 15.62 14.36l-44.14-8.97s-9.01-13.47-9.91-17.36-4.5-21.24-4.5-21.24l9.31-20.34z"/><path id="path30950" style="color:#000000;fill:#303232" d="m367.3 203.15c-4.69 14.75-4.18 20.34 1.54 39.34-25.53-16.75-34.24 9.52-35.87 33.32 2.74 73.03 22.77 83.26 56.56 83.68 35.22 0.45 55.59-42.09 57.68-86.04l-0.15-27.11c-1.99-23.43-9.54-45.38-21.61-51.41-22.07-11-16.41-5.47-29.38 6.36-9.91 0.53-28.13 1.86-28.77 1.86zm30.86 13.94c11.86-0.35 20.29-2.15 25.74 14.67l1.8 6.66c6.91 31.1-2.77 69.74-23.84 88.43-18.65 16.54-31.77-7.67-34.1-20.57-5.88-32.5-3.03-47.42 13.96-76.96 4.64-8.06 9.78-12.03 16.44-12.23z"/><path id="path30064" style="color:#000000;fill:#303232" d="m108.67 195.57c-46.636 0.01-94.556 51.8-100.24 116.88-7.4596 85.89 37.203 126.68 98.61 126.68 61.41 0 102.53-56.67 106.17-116.76l2.68-30.66c-6.95-64.08-45.69-92.92-103.85-96.05-1.12-0.06-2.25-0.09-3.37-0.09zm14.53 34.84c20.69-0.47 39.88 11.97 49.37 34.97l3.14 9.09c12.04 42.53-4.84 95.36-41.57 120.91-32.51 22.62-64.934 8.49-78.532-28.12-15.327-41.26-0.794-86.75 31.079-118.37 10.058-9.98 24.903-18.21 36.513-18.48z"/><line id="line1424" style="stroke-linejoin:bevel;stroke:#000000;stroke-width:1.6725;fill:none" x1="114.9" i:knockout="Off" y1="405.61" x2="114.87" y2="405.55"/><line id="line1490" style="stroke-linejoin:bevel;stroke:#000000;stroke-width:.69518;fill:none" x1="160.26" i:knockout="Off" y1="432.04" x2="160.24" y2="432.03"/><line id="line1540" style="stroke-linejoin:bevel;stroke:#000000;stroke-width:1.6725;fill:none" x1="159.41" i:knockout="Off" y1="354.7" x2="159.32" y2="355.01"/><path id="path1558" style="stroke-linejoin:bevel;stroke:#000000;stroke-width:1.6725;fill:none" d="m165.76 347.48l-0.09 0.31m6.44-7.53l-0.09 0.31"/><line id="line1598" style="stroke-linejoin:bevel;stroke:#000000;stroke-width:1.6725;fill:none" x1="159.35" i:knockout="Off" y1="355.06" x2="159.32" y2="355.01"/><path id="path1602" style="stroke-linejoin:bevel;stroke:#000000;stroke-width:1.6725;fill:none" d="m184.81 325.82l-0.09 0.31m6.45-7.53l-0.1 0.31"/><line id="line1630" style="stroke-linejoin:bevel;stroke:#000000;stroke-width:1.6725;fill:none" x1="165.7" i:knockout="Off" y1="347.84" x2="165.67" y2="347.79"/><line id="line1652" style="stroke-linejoin:bevel;stroke:#000000;stroke-width:1.6725;fill:none" x1="172.05" i:knockout="Off" y1="340.62" x2="172.02" y2="340.57"/><line id="line1702" style="stroke-linejoin:bevel;stroke:#000000;stroke-width:1.6725;fill:none" x1="184.75" i:knockout="Off" y1="326.18" x2="184.72" y2="326.13"/><polyline id="polyline1776" style="stroke-linejoin:bevel;stroke:#000000;stroke-width:.7058;fill:none" points="66.923 434.09 66.923 434.09 66.387 434.23" transform="matrix(.98672 0 0 .98319 5.9938 2.4342)" i:knockout="Off"/><polyline id="polyline1778" style="stroke-linejoin:bevel;stroke:#000000;stroke-width:1.698;fill:none" points="67.109 434.09 67.109 434.09 66.573 434.23" transform="matrix(.98672 0 0 .98319 5.9938 2.4342)" i:knockout="Off"/><path id="path1782" style="stroke-linejoin:bevel;stroke:#000000;stroke-width:.69518;fill:none" d="m72.623 429.2l-0.256 0.06m0.414-0.02l-0.255 0.06"/><path id="path2026" style="stroke-linejoin:bevel;stroke:#000000;stroke-width:1.6725;fill:none" d="m251.1 272.78l-0.05-0.01c-0.03 0-0.06 0.01-0.09 0.01"/><path id="path2150" style="stroke-linejoin:bevel;stroke:#000000;stroke-width:1.6725;fill:none" d="m71.5 429.36l0.078-0.01c0.035 0 0.07 0 0.106 0.01"/><path id="path2262" style="stroke-linejoin:bevel;stroke:#000000;stroke-width:1.6725;fill:none" d="m71.542 428.04c-0.059-0.04-0.117-0.08-0.179-0.12-0.05-0.03-0.102-0.05-0.155-0.08m0.335 0.2c-0.031-0.03-0.062-0.07-0.103-0.09l-0.018-0.01"/><path id="path2302" style="stroke-linejoin:bevel;stroke:#000000;stroke-width:1.6725;fill:none" d="m185.68 324.83c0.04-0.01 0.08-0.03 0.12-0.04 0.04-0.02 0.08-0.03 0.13-0.04 0.04-0.02 0.08-0.04 0.13-0.05"/><path id="path2310" style="stroke-linejoin:bevel;stroke:#000000;stroke-width:1.6725;fill:none" d="m172.98 339.27c0.04-0.01 0.08-0.03 0.12-0.04 0.04-0.02 0.08-0.03 0.13-0.05 0.04-0.01 0.08-0.03 0.12-0.04"/><path id="path2314" style="stroke-linejoin:bevel;stroke:#000000;stroke-width:1.6725;fill:none" d="m166.63 346.49c0.04-0.01 0.08-0.03 0.12-0.04 0.04-0.02 0.08-0.03 0.13-0.05 0.04-0.01 0.08-0.03 0.12-0.04"/><path id="path2318" style="stroke-linejoin:bevel;stroke:#000000;stroke-width:1.6725;fill:none" d="m160.28 353.71c0.04-0.01 0.08-0.03 0.12-0.04 0.04-0.02 0.08-0.03 0.12-0.04 0.05-0.02 0.09-0.04 0.13-0.05"/><path id="path2322" style="stroke-linejoin:bevel;stroke:#000000;stroke-width:1.6725;fill:none" d="m147.58 368.15c0.04-0.01 0.08-0.03 0.12-0.04 0.04-0.02 0.08-0.03 0.12-0.05 0.05-0.01 0.09-0.02 0.13-0.04"/><path id="path2326" style="stroke-linejoin:bevel;stroke:#000000;stroke-width:1.6725;fill:none" d="m134.88 382.59c0.04-0.01 0.08-0.03 0.12-0.04s0.08-0.03 0.12-0.04c0.05-0.02 0.09-0.03 0.13-0.05"/><path id="path2338" style="stroke-linejoin:bevel;stroke:#000000;stroke-width:1.6725;fill:none" d="m115.83 404.25c0.04-0.01 0.08-0.03 0.12-0.04 0.04-0.02 0.08-0.03 0.12-0.04 0.05-0.02 0.09-0.03 0.13-0.05"/><path id="path2414" style="stroke-linejoin:bevel;stroke:#000000;stroke-width:1.6725;fill:none" d="m173.55 339.98c0.07-0.11 0.14-0.22 0.15-0.34 0.02-0.1 0-0.22-0.06-0.3-0.07-0.09-0.18-0.15-0.28-0.2m-0.37 0.66c0.06 0.02 0.11 0.04 0.17 0.06s0.13 0.04 0.19 0.06 0.13 0.04 0.2 0.06m-0.56-0.18c0.06-0.06 0.11-0.13 0.14-0.21 0.02-0.06 0.02-0.13-0.01-0.19-0.02-0.05-0.08-0.09-0.14-0.13"/><path id="path2418" style="stroke-linejoin:bevel;stroke:#000000;stroke-width:1.6725;fill:none" d="m166.64 347.02c0.05 0.02 0.11 0.04 0.17 0.06s0.13 0.04 0.19 0.06 0.13 0.04 0.2 0.06m-0.56-0.18c0.05-0.06 0.11-0.13 0.14-0.21 0.02-0.06 0.02-0.13-0.01-0.19-0.02-0.05-0.08-0.09-0.14-0.13"/><path id="path2422" style="stroke-linejoin:bevel;stroke:#000000;stroke-width:1.6725;fill:none" d="m160.85 354.42c0.07-0.11 0.14-0.22 0.15-0.34 0.02-0.1 0-0.22-0.06-0.31-0.07-0.08-0.18-0.14-0.29-0.19m-0.36 0.66c0.06 0.02 0.11 0.04 0.17 0.06s0.13 0.04 0.19 0.06 0.13 0.04 0.2 0.06m-0.56-0.18c0.06-0.06 0.11-0.12 0.14-0.21 0.02-0.06 0.02-0.13-0.01-0.19-0.02-0.05-0.08-0.09-0.14-0.13"/><path id="path2436" style="stroke-linejoin:bevel;stroke:#000000;stroke-width:1.6725;fill:none" d="m148.15 368.86c0.07-0.11 0.14-0.22 0.15-0.34 0.02-0.1 0-0.22-0.06-0.3-0.07-0.09-0.18-0.15-0.29-0.2m-0.36 0.66c0.06 0.02 0.11 0.04 0.17 0.06s0.12 0.04 0.19 0.06c0.06 0.02 0.13 0.04 0.2 0.06m-0.56-0.18c0.05-0.06 0.11-0.12 0.14-0.21 0.02-0.06 0.02-0.13-0.01-0.19-0.02-0.05-0.08-0.09-0.14-0.13"/><path id="path2482" style="stroke-linejoin:bevel;stroke:#000000;stroke-width:.41880;fill:none" d="m116.39 404.96c0.07-0.11 0.14-0.22 0.16-0.34 0.02-0.1 0-0.22-0.06-0.3-0.07-0.09-0.18-0.15-0.29-0.2m-0.37 0.66l0.18 0.06c0.06 0.02 0.12 0.04 0.19 0.06 0.06 0.02 0.13 0.04 0.19 0.06"/><path id="path2484" style="stroke-linejoin:bevel;stroke:#000000;stroke-width:1.6725;fill:none" d="m115.83 404.78c0.06-0.06 0.12-0.13 0.15-0.2 0.02-0.07 0.02-0.14-0.01-0.2-0.03-0.05-0.08-0.09-0.14-0.13"/><path id="path2486" style="stroke-linejoin:bevel;stroke:#000000;stroke-width:.41880;fill:none" d="m160.03 419.76c-0.01 0.06-0.02 0.11-0.03 0.17 0 0.06-0.01 0.11-0.02 0.17 0 0.06-0.01 0.12-0.01 0.19 0.16 0 0.32 0.01 0.48-0.01 0.18-0.03 0.35-0.09 0.51-0.18 0.14-0.08 0.27-0.19 0.4-0.29m-0.39-0.37c0.04 0.04 0.08 0.08 0.13 0.11 0.04 0.04 0.09 0.08 0.13 0.12 0.04 0.05 0.09 0.09 0.13 0.13"/><path id="path2504" style="fill:none" d="m234.1 269.68l7.28 11.56 17.56 3.63 26.5 4.95 6.29 0.33 12.25-1.32 10.27-0.99s10.27-1.98 10.6-1.98-83.47-22.12-83.47-22.12l-7.28 5.94z"/><path id="path2506" style="fill:none" d="m212.64 277.45l3.37 30.16-2.95 25.97-12.19 36.02-11.35 19.68-23.54 28.06-26.9 17.18-36.15 5.86-29.842-6.28s-21.437-8.38-21.437-8.8 23.958-29.32 23.958-29.32l21.017 11.31 18.074-2.93 19.34-8.8 11.77-9.63s10.93-13.82 11.35-13.82 10.08-16.34 10.08-16.34l7.15-17.17 3.36-15.91 34.89-45.24z"/><path id="path2508" style="stroke:#000000;stroke-width:.69518;stroke-linecap:round;fill:none" d="m97.896 408.14c36.924 9.62 77.204-21.94 89.954-70.49 12.75-48.56-6.85-95.73-43.78-105.36"/><path id="path2510" style="stroke:#000000;stroke-width:1.6725;stroke-linecap:round;fill:none" d="m144.07 232.29c-36.92-9.63-77.195 21.93-89.947 70.49-12.751 48.56 6.847 95.73 43.774 105.36"/><path id="path2512" d="m184.35 270.56c-8.52-20.49-23.44-33.02-40.49-37.46l0.43-1.62c17.17 4.48 31.96 18.05 40.54 38.7l-0.48 0.38"/><path id="path2514" d="m98.109 407.33c18.291 4.77 37.581-0.27 53.711-12.9l0.24 0.57c-16.43 12.87-35.74 18.8-54.376 13.94l0.425-1.61"/><path id="path2518" style="stroke:#000000;stroke-width:.69518;stroke-linecap:round;fill:none" d="m151.78 202.96c-49.25-12.84-102.96 29.25-119.96 94.01-17.009 64.75 9.128 127.66 58.374 140.5"/><path id="path2520" d="m151.56 203.77c-24.45-6.38-50.18 0.48-71.736 17.38l-0.236-0.57c21.862-17.13 47.612-24.89 72.402-18.43l-0.43 1.62"/><path id="path2524" style="stroke:#000000;stroke-width:1.6725;stroke-linecap:round;fill:none" d="m70.39 432.54c1.417 0.36 2.837 0.69 4.059 0.93m59.031-235.03c-0.52-0.15-1.04-0.29-1.48-0.41-49.248-12.84-102.96 29.24-119.97 94-17.014 64.75 9.116 127.66 58.359 140.5m0.749 0.2l19.795 4.93m40.317-239.82l19.79 4.93m-59.074 203.44c35.484 4.09 70.864-27.26 82.684-71.85 12.02-45.77-4.7-90.3-37.84-103.43m-78.914 140.34l51.224-37.54m-9.1-3.34l-46.502 28.17m-2.731-15.29l61.213-41.53m-61.724 28.19l54.054 4.28m-3.83-14.33l-27.296 74.06m-8.614-10.38l61.3-42.67m-14.37 0.48l-27.796 60.76m9.843 4.68l17.953-65.44m-5.75 65.4l23.48-54.42m-13.42 52.52l-9.58-51.09m22.04 47.27l-5.75-43.93m15.33 39.15l-6.23-37.24m19.17 29.6l-6.23-41.06m15.81 31.04l-23.96-19.1m31.15 6.21l-23-18.14m-68.997-85.94l28.747 72.57m-37.687-61.45l46.317 49.99m-52.544-37.94l57.814 21.71m-63.504-5.95l63.504 5.95m-66.712 8.95l57.602 18.26m-25.045-82.89l40.855 44.7m-27.558-54.95l22.768 71.18m-11.79-76.74l9.4 89.63m1.77-92.97l-9.44 95.83m20.42-96.94l-10.36 81.19m12.29-81.16l3.04 80.68m10.6-78.44l-27.84 73.67m35.93-66.36l-27.79 64.92m36.42-55.85l-48.4 46.31"/><path id="path2526" style="stroke:#000000;stroke-width:1.6725;stroke-linecap:round;fill:#ffffff" d="m119.73 368.07c18.1 4.72 37.83-10.75 44.08-34.54s-3.36-46.91-21.45-51.62c-18.09-4.72-37.83 10.74-44.074 34.54-6.248 23.79 3.354 46.9 21.444 51.62"/><path id="path28300" style="color:#000000;stroke:#140000;stroke-width:.77778;fill:#857979" d="m164.93 329.76c-3.49 23.54-20.92 40.62-39.35 38.58-18.44-2.05-31.225-22.48-28.871-46.15 2.353-23.67 18.991-42.01 37.571-41.42 18.59 0.58 32.39 19.89 31.18 43.59"/><path id="path2528" style="stroke:#000000;stroke-width:.69518;stroke-linecap:round;fill:none" d="m146.71 283.47c-16.84-0.55-32.84 14.62-38.36 35.36-5.71 21.73 1.8 42.89 17.1 50.06"/><polygon id="polygon2530" style="fill:#ffffff" points="148.27 283.15 141 311.02 105.49 330.65" transform="matrix(.98672 0 0 .98319 5.9938 2.4342)"/><polyline id="polyline2532" style="stroke:#000000;stroke-width:.7058;stroke-linecap:round;fill:none" points="148.27 283.15 141 311.02 105.49 330.65" transform="matrix(.98672 0 0 .98319 5.9938 2.4342)" i:knockout="Off"/><polygon id="polygon2534" style="fill:#ffffff" points="137.77 317.88 130.91 336.86 142.62 346.55 156.75 347.36" transform="matrix(.98672 0 0 .98319 5.9938 2.4342)"/><polyline id="polyline2536" style="stroke:#000000;stroke-width:.7058;stroke-linecap:round;fill:none" points="137.77 317.88 130.91 336.86 142.62 346.55 156.75 347.36" transform="matrix(.98672 0 0 .98319 5.9938 2.4342)" i:knockout="Off"/><polygon id="polygon2538" style="fill:#ffffff" points="185.82 233.48 152.71 315.46" transform="matrix(.98672 0 0 .98319 5.9938 2.4342)"/><line id="line2540" style="stroke:#000000;stroke-width:.69518;stroke-linecap:round;fill:none" x1="189.35" i:knockout="Off" y1="231.99" x2="156.68" y2="312.59"/><path id="path2542" style="stroke:#000000;stroke-width:1.6725;stroke-linecap:round;fill:none" d="m64.83 145.71s0 5.05 18.752-2.53c18.748-7.57 53.758-33.28 86.668-25.25 24.83 6.06 53.72 27.78 61.83 52.02 8.11 24.23 6.58 49.48 13.68 52.51m-180.93-76.75c-4.054-3.03-1.52-6.57 10.643-16.67s55.747-48.477 118.6-19.69c62.84 28.78 55.24 112.1 51.69 113.12m0-0.01s-15.2-0.5-21.79-3.53-7.1-5.05-10.65-19.19c-3.54-14.14-22.1-79.56-79.88-79.05"/><path id="path2544" style="stroke:#000000;stroke-width:1.6725;stroke-linecap:round;fill:url(#linearGradient2671)" d="m234.61 125.51l-42.07 113.62s-9.21-34.43-9.16-31.35l37.55-87.83s6.08-4.54 13.68 5.56"/><polyline id="polyline2548" style="stroke:#000000;stroke-width:1.698;stroke-linecap:round;fill:none" points="179.77 208.85 149.89 278.71 138.98 279.52 128.48 309 104.66 327.17" transform="matrix(.98672 0 0 .98319 5.9938 2.4342)" i:knockout="Off"/><path id="path2550" style="stroke:#000000;stroke-width:.69518;stroke-linecap:round;fill:none" d="m109.27 324.1s-0.8 20.25 3.58 24.62"/><path id="path2552" style="stroke:#000000;stroke-width:1.6725;stroke-linecap:round;fill:none" d="m112.85 348.72c4.38 4.36 53.79 3.97 53.79 3.97l2.39-5.96-7.17-7.54 5.18-4.77 1.59-21.83 26.3-67.89-1.2-31.37s-0.79-2.38-10.35-5.55"/><polygon id="polygon2554" style="fill:#ffffff" points="137.66 201.26 164.99 130.86" transform="matrix(.98672 0 0 .98319 5.9938 2.4342)"/><line id="line2556" style="stroke:#000000;stroke-width:1.6725;stroke-linecap:round;fill:none" x1="141.82" i:knockout="Off" y1="200.31" x2="168.79" y2="131.09"/><polygon id="polygon2558" style="fill:#ffffff" points="155.46 206.64 178.66 143.28" transform="matrix(.98672 0 0 .98319 5.9938 2.4342)"/><path id="path2560" style="stroke:#000000;stroke-width:1.6725;stroke-linecap:round;fill:none" d="m159.39 205.6l22.89-62.29m-55.47 87.82l-32.984 86.21s-0.956 9.05 2.869 12.39m69.945 22.96l8.25 3.79m-7.85-22.06l13.8 4.83m-12.44-16.16l15.14 3.77m-15.14-3.77l13.52-11.31m-9.19-5.93l9.19-7.54m8.52-255.6c6.82-14.951 71.95-22.086 65.47-1.699-6.48 20.386-27.28 71.019-27.28 71.019s0.34 7.13-28.65-0.34m-9.54-68.98l-16.03 58.44m68.2 11.21l-5.12 13.94-3.41 2.37m8.53-16.31s-0.34-4.41-9.55-7.47m8.19 5.1l23.87-65.242"/><path id="path2562" style="stroke:#000000;stroke-width:2.792;stroke-linecap:round;fill:none" d="m192.95 22.598c23.85 8.756 22.59 97.562-43.31 253.29m36.87-254.96c0 1.251 29.66-5.211 29.66 9.173"/><path id="path2564" style="stroke:#000000;stroke-width:1.6725;stroke-linecap:round;fill:none" d="m310.08 20.28l-18.96 1.543s-3.87 0.772-8.9 6.555c-5.03 5.784-11.61 15.038-20.51 14.652m47.36-35.172l-20.4 1.7422s-1.36 0.1839-3.72 1.2023c-2.37 1.027-6.94 3.39-12.18 9.412l-1.95 2.292c-2.21 2.617-4.61 5.868-7.67 7.666-0.3 0.172-0.58 0.369-0.91 0.406"/><path id="path2566" style="stroke:#000000;stroke-width:.69518;stroke-linecap:round;fill:none" d="m263.15 30.171c-4.92 2.062-7.4 13.597 1.97 14.577"/><path id="path2568" style="stroke:#000000;stroke-width:1.6725;stroke-linecap:round;fill:none" d="m309.07 7.8575c-5.57 2.3985-4.79 12.038 1.01 12.422m-3.48-9.254l15.48-0.77m-15.05 8.065l16.22-1.055m6.18-9.3239c-0.77-5.7841-7.74-8.483-6.96 5.7829m0.22 0.359s3.26 17.379 8.29 5.04m-21.91-11.266s2-0.9537 2.64 2.5545m-1.09 10.14c0.06 0 1.34-0.446 1.6-1.913m15-11.206l32.24-2.4934m-31.2 14.13l32.57-3.119m0 0.001c4.79-0.389 2.93-10.621-1.37-11.011"/><path id="path2570" style="stroke:#000000;stroke-width:.69518;stroke-linecap:round;fill:none" d="m359.46 4.9394c-3.27 3.4431-2.34 9.5526 1.37 11.011m-33.01-4.717c-1.43 1.9-1.19 3.563-0.48 4.989"/><path id="path2572" style="stroke:#000000;stroke-width:1.6725;stroke-linecap:round;fill:none" d="m281.15 12.212s-42.27 3.879-43.66 16.347m34.86-7.845c-0.34 0.053-0.68 0.108-1.02 0.164-7.28 1.194-16.94 3.169-23.26 6.447-1.49 0.772-2.84 1.429-3.42 2.459m-60.42-8.475s18.98-3.027 23.92 10.214m-22.68-2.496s1.55-0.228 3.75-0.197c2.76 0.039 6.75 0.296 9.58 2.602 0.85 0.685 1.54 1.604 1.99 2.812m-16.56-12.935c-4.18 0.757-2.52 7.914 1.24 7.718m1.04-8.097c-2.28-5.674-9.86-3.723-9.86 3.866 0 7.651 6.18 11.934 12.57 4.034m-12.35 1.535l-14.74 1.311c-0.53 2.887-7.37 1.837-6.85-6.297 0.53-8.133 6.59-7.084 7.38-5.51s14.74-0.262 14.74-0.262m89.36 7.756s-15.16-4.007-17.64 2.466m-3.36 192.63l18.34 23.28s0 44.47 27.7 43.96 45.15-9.2 45.15-9.2m-51.82 9.2c-0.51 0-42.58-8.69-42.58-8.69s-13.85-10.22-15.39-38.33l8.79-20.29m-7.76 15.68l-8.21-1.02-0.51 12.78 9.74 12.27m42.07 15.85l24.63-6.65-0.52-23-25.14-5.62"/><path id="path2574" style="stroke:#000000;stroke-width:.69518;stroke-linecap:round;fill:none" d="m270.26 242.68s-3.6 21.46 2.05 32.2m17.44-25.05l1.03 21.47"/><path id="path2576" style="stroke:#000000;stroke-width:1.6725;stroke-linecap:round;fill:none" d="m270.26 242.68l-18.99-23.52-4.6 0.36m10.11 6.78l27.84 4.11s9.75 0.51 14.36-3.07c4.62-3.58 2.06-29.14 2.06-29.14l-19.31-16.08m5.97 17.11c0.51 0-21.55-52.66-21.55-52.66s-8.72-4.6 1.03-16.86c9.74-12.27 10.26-36.809 4.1-41.408m-18.47-7.158l22.54 17.202m-29.21 0.178c0 0.513 26.44 19.406 26.44 19.406s-24.14-6.52-31.05 0.53m33.85 91.5s-3.8-37.24-5.59-54.67m-1.59 52.63l-8.2-80.77m1.02 78.72l-8.21-81.28m0.52 81.28l-7.7-83.83m-1.77 50.33c-1.85-18.03-5.41-52.89-5.41-52.89m32.83-31.179l2.3-4.911s9.69 3.864 11.36 11.59c1.66 7.73 3.04 11.31 1.66 19.04 0 0 7.75-12.14 14.4-6.9 6.64 5.25 32.4 26.77 32.4 26.77s7.2 4.97 0 7.73c0 0-2.77 4.14-10.52-1.11-7.76-5.24-16.9-16.83-34.07-1.93m-9.41-51.051c7.2-1.379 10.52-1.104 17.72 6.348 7.2 7.453 21.6 18.493 37.94 16.003 16.34-2.48 31.02-5.52 37.95-7.72 6.92-2.212 18.55-1.66 26.03-0.83s9.97 6.07-3.05 13.24c-13.01 7.18-16.89 13.8-20.22 26.49-3.32 12.7-11.07 64.58-23.26 68.17m17.17-6.63l23.82-0.82s2.49 0.55 7.48-4.14c4.98-4.69 45.97-46.36 37.39-84.72m-33.79-3.87s10.52 4.42 10.52 11.87 3.32 6.35 5.54 1.93c2.22-4.41 9.14-9.11 25.76-12.42 6.92-0.27 12.18-5.79-40.71-7.72"/><path id="path2578" style="stroke:#000000;stroke-width:.69518;stroke-linecap:round;fill:none" d="m284.66 117.89c0 0.27-2.77 11.03-11.91 17.1"/><path id="path2580" style="stroke:#000000;stroke-width:1.6725;stroke-linecap:round;fill:none" d="m279.4 87.529s4.15-7.174 0.27-10.762c-3.88-3.587-17.45-14.626-25.75-1.379"/><path id="path2582" style="stroke:#000000;stroke-width:2.792;stroke-linecap:round;fill:none" d="m262.78 52.76s13.29 4.691 9.97 17.385"/><path id="path2584" style="stroke:#000000;stroke-width:1.6725;stroke-linecap:round;fill:none" d="m306.51 131.87s34.75 36.9 40.7 61.96c5.94 25.06 5.48 39.18 3.65 47.83m2.29-4.55c1.37 0.45 15.55 5.01 15.55 5.01m0.98-39.52c-5.1 3.07-9.67 14.46-0.98 39.52"/><line id="line2586" style="stroke:#000000;stroke-width:.69518;stroke-linecap:round;fill:none" x1="365.95" i:knockout="Off" y1="206.13" x2="362.75" y2="197.47"/><path id="path28303" style="color:#000000;stroke:#140000;stroke-width:.46403;fill:#857979" d="m431.61 273.61c0 19.76-14.51 35.19-29.71 31.3-15.04-3.84-20.69-10.26-20.69-30.02 0-19.75 5.75-33.05 21.33-31.3 22.83 2.57 27.07 7.55 28.85 25.62"/><path id="path2588" style="stroke:#000000;stroke-width:1.6725;stroke-linecap:round;fill:none" d="m350.86 241.66l62.19 23.24 6.4 5.01h8.23l2.74 7.75-6.86 6.37-71.78-22.32-5.95-1.37v6.38s-8.68 6.38-8.23 6.38c0.46 0-0.65 7.4-0.65 7.4"/><path id="path2590" style="stroke:#000000;stroke-width:.69518;stroke-linecap:round;fill:none" d="m347.21 256.7l2.74-10.94m1.83 11.85l2.74-10.93"/><path id="path2592" style="stroke:#000000;stroke-width:1.6725;stroke-linecap:round;fill:none" d="m288.81 138.58c26.39 29.28 50.62 56.16 51.99 76.66 1.38 20.5-8.23 28.7-6.4 34.17s-1.37 13.67-4.57 16.86"/><path id="path2594" style="stroke:#000000;stroke-width:.69518;stroke-linecap:round;fill:none" d="m291.15 136.49c18.65 20.7 36.21 40.23 45.56 57.18 4.22 7.65 6.79 14.82 7.23 21.36 0.88 13.12-2.49 21.46-4.85 27.27-0.87 2.15-1.63 3.85-1.76 5.32-0.03 0.29-0.03 0.55 0.06 0.8 0.68 2.04 0.84 4.4 0.56 6.79-0.49 4.25-2.35 8.63-4.43 11.53m9.62-15.45c1.48 0.27 3.06-1.57 3.54-4.12 0.47-2.55-0.34-4.83-1.81-5.11-1.48-0.27-3.06 1.57-3.54 4.12-0.47 2.55 0.34 4.84 1.81 5.11"/><path id="path2612" style="stroke:#000000;stroke-width:.69518;stroke-linecap:round;fill:none" d="m317.12 273.54c-5.02 0-2.51 2.51-7.3 4.33-4.8 1.82-2.29 2.5-2.74 4.32-0.46 1.82-2.74 3.64-2.97 1.13-0.23-2.5-2.51-2.72-6.62-2.27-4.11 0.46-14.15-1.36-10.96-6.14m34.02 0.23c-4.11 1.36-2.74 3.18-7.31 4.32-4.56 1.13-3.19 4.55-2.05 5.68"/><path id="path31940" style="stroke:#000000;stroke-width:1.114;stroke-linecap:round;fill:none" d="m287.7 199.23s4.55-0.67 4.75 4.46c0.21 5.14-4.74 8.84-5.77 8.02s-1.45 3.9-13.41 1.64-24.74-3.7-23.92-3.29"/><path id="path2618" style="stroke:#000000;stroke-width:1.6725;stroke-linecap:round;fill:none" d="m319.5 175.46c-2.75-3.2-7.66-0.41-7.57 7.55 0.09 7.78 5.5 5.03 3.21 10.06s14.69 5.94 14.69 5.94l-0.23 30.64m80.23 75.06c9.34 1.49 19.01-10.37 21.6-26.49s-2.89-30.4-12.23-31.89"/><path id="path2620" style="stroke:#000000;stroke-width:.69518;stroke-linecap:round;fill:none" d="m419.2 246.33c-6.69-1.07-13.55 4.71-17.93 14.17m-4.06 15.34c-1.51 15.13 4.01 27.46 12.62 28.87"/><path id="path2622" d="m419.07 247.15c-4.54-0.72-9.3 1.43-13.1 6.09l-0.2-0.53c4.02-4.93 8.76-7.97 13.56-7.21l-0.26 1.65"/><path id="path2624" d="m399.42 294.04c2.36 6.15 6.26 9.17 10.54 9.85l-0.27 1.65c-4.38-0.7-8.22-4.77-10.63-11.07l0.36-0.43"/><path id="path2626" style="stroke:#000000;stroke-width:1.6725;stroke-linecap:round;fill:none" d="m419.2 246.33l-19.53-2.34m10.16 60.72l-17.19-3.5"/><path id="path2628" style="stroke:#000000;stroke-width:.69518;stroke-linecap:round;fill:none" d="m406.67 244.83c-1.52-1.13-3.13-1.79-4.66-2.01"/><path id="path2630" style="stroke:#000000;stroke-width:1.6725;stroke-linecap:round;fill:none" d="m402.01 242.82c-6.09-0.97-12.32 3.74-16.7 11.72m-5.29 17.8c-1.51 15.12 4.01 27.45 12.62 28.87"/><path id="path2632" d="m406.56 245.15c-1.5-1.11-3.17-1.29-4.68-1.5l0.27-1.65c1.54 0.22 3.09 1.37 4.63 2.51l-0.22 0.64"/><path id="path2634" style="stroke:#000000;stroke-width:.69518;stroke-linecap:round;fill:none" d="m391.47 334.29c18.21 2.48 36.64-22.35 41.17-55.46 4.53-33.1-6.56-61.95-24.77-64.42"/><path id="path2636" style="stroke:#000000;stroke-width:1.6725;stroke-linecap:round;fill:none" d="m407.87 214.41c-14.11-1.92-28.36 12.56-36.3 34.99m-4.36 17.11c-0.2 1.18-0.38 2.35-0.52 3.36-4.53 33.11 6.56 61.95 24.77 64.42"/><path id="path2638" d="m428.62 235.36c-4.81-12.51-12.47-18.98-20.86-20.12l0.23-1.66c8.48 1.16 16.1 8.68 20.96 21.33l-0.33 0.45"/><path id="path2640" d="m391.58 333.47c8.98 1.22 18.16-3.93 25.51-13.83l0.2 0.53c-7.56 10.17-16.71 16.21-25.94 14.95l0.23-1.65"/><path id="path2642" style="stroke:#000000;stroke-width:1.6725;stroke-linecap:round;fill:none" d="m381.94 330.18c11.32 0.18 22.34-9.78 30.03-25.35m9.08-58.03c-2.15-15.46-7.87-26.79-15.37-32.56m-6.79 88.53l-21.49 21.79m15.24 7.79v-31.14m3.12 1.56l10.94 21.02m0-17.91l-5.86 21.02m-20.31-39.31l0.39 39.7m3.12-29.97l-12.5 13.23m25.4-66.56l-5.86-23.35m4.29-2.73c0 0.39-10.06 36.63-10.06 36.63m-3.61-22.23c0.39 0.39 10.16 13.24 10.16 13.24m5.08-1.56l11.32-27.25m-6.64-1.16c0.39 0 5.05 29.25 5.05 29.25m-4.66-2.01l17.97-16.34m-5.86-5.84l-2.73 25.3m-23.43 113.96c25.99 3.53 52.31-31.91 58.77-79.15 6.47-47.25-9.36-88.42-35.35-91.95"/><path id="path2644" style="stroke:#000000;stroke-width:.69518;stroke-linecap:round;fill:none" d="m411.38 188.8c-0.68-0.09-1.36-0.16-1.94-0.19m-28.78 13.61c-6.38 6.64-11.87 15.11-16.09 24.24m-11.23 36.7c-0.28 1.68-0.54 3.36-0.73 4.8-6.47 47.25 9.36 88.41 35.35 91.94"/><path id="path2646" d="m358.28 330.1c6.88 17.88 17.8 27.34 29.79 28.98l-0.22 1.65c-12.09-1.64-22.97-12.16-29.9-30.18l0.33-0.45"/><path id="path2648" style="stroke:#000000;stroke-width:.69518;stroke-linecap:round;fill:none" d="m370.62 357.72c0.1 0.02 0.21 0.03 0.3 0.04"/><path id="path2650" style="stroke:#000000;stroke-width:1.6725;stroke-linecap:round;fill:none" d="m333.91 281.82c-1.33 41.46 14.37 72.66 36.71 75.9m0.26 0.03l17.34 2.19"/><path id="path2516" style="stroke:#000000;stroke-width:1.6725;stroke-linecap:round;fill:none" d="m90.194 437.47c49.246 12.84 102.96-29.25 119.96-94.01 17.01-64.75-9.13-127.66-58.37-140.5"/><path id="path2546" style="fill:#ffffff" d="m183.38 207.78l-29.49 68.68-10.76 0.79-12.19 28.2-21.67 18.65s-0.8 20.25 3.58 24.62c4.39 4.36 53.79 3.97 53.79 3.97l2.39-5.96-7.17-7.54 5.18-4.77 1.59-21.83 26.3-67.89-1.19-31.37c-0.01 0-0.8-2.38-10.36-5.55z"/><path id="path28082" style="fill-rule:evenodd;stroke:#000000;stroke-width:.98496px;fill:url(#linearGradient2622)" d="m182.92 207.84l11.6 4.82 0.92 31.8-26.04 66.68-2.74 24.48-4.2 4.19 7.16 7.32-2.17 6.29-53.7-2.29-3.66-8.85-1.42-18.35 22.31-19.14 12.12-27.9 10.79-0.25 29.03-68.8z"/><path id="path28308" style="fill-rule:evenodd;fill:url(#linearGradient2619)" d="m428.44 270.71l-9.53 0.47-6.72-6.14-62.03-22.32s2.64-21.22-1.28-37.41-17.89-49.32-35.86-65.32c-8.36-7.44-36.77-42.884-60.37-57.187-6.76 10.183-1.9 7.122-5.04 15.317 24.17 18.62 35.54 30.56 64.85 66.43 29.63 36.26 30.6 43.93 28.29 63.92-1.4 12.15-6.37 16.19-5.95 21.39 0.35 4.35 2.15 6.92-3.57 14.34-5.73 7.43 2.09 15.09-21.71 15.16-2.8 0.01-0.49 1.84 3.91 7.45 10.82-0.8 22.48-6.63 22.48-6.63l1.76-7.88 7.04-6.06v-7.34l77.31 24.95 6.81-5.5-0.39-7.64z"/><path id="path31849" style="fill-rule:evenodd;fill:url(#linearGradient2616)" d="m336.38 137.16s-36.67-30.91-37.74-31.22c-1.29-0.38-4.39-0.55-5.85 0.97-1.26 1.3-4.56 5.4-4.56 5.4l-1.22 0.15-0.08-5.55s-0.97-13.609-2.92-16.039-10.18-7.157-10.18-7.157l-2.25 4.425s1.57 0.788 2.67 4.19 1.46 1.944 0.98 9.231c-0.49 7.29-1.95 20.41-4.39 23.33s-9.27 13.12-8.78 15.07c0.49 1.94 4.88 7.29 4.88 7.29l13.94 33.82 20.94 16.96s0.18 23.15-0.31 26.07c-0.48 2.92-3.53 5.51-7.43 6s-35.19-2.66-35.19-2.66l11.7 15.06 24.15 5.35 0.48 22.35-23.89 8.26s11.4 10.97 14.81 10.48c3.41-0.48 25.94 0.29 28.11-2.21 2.22-2.58-5.86-3.89-4.39-5.84 1.46-1.94 11.21-0.48 14.63-2.43 3.41-1.94 9.75-7.77 9.27-10.2-0.49-2.43-19.03-5.83-19.03-5.83l2.93-6.32s5-1.58 8.78-4.13 0.91-2.01 5.85-7.53c0.31-6.26 2.2-15.56 2.2-15.56h-5.37s-0.18-20.41-0.24-30.13c-8.6 0.73-14.63-3.89-14.63-3.89s1.76-1.7 1.46-3.88c-0.15-1.07-4.22-2.81-4.15-8.27 0.1-7.39 1.59-7.3 2.86-8.44 2.02-2.07 4.64 0 4.64 0l-30.72-36.39s11.76-7.65 16.64-7.65 18.05 9.72 18.05 9.72 1.54 3.26 4.87 2.91c7.55-0.79 8.48-5.71 8.48-5.71z"/><path id="path32005" style="fill-rule:evenodd;stroke:#000000;stroke-width:.98496px;fill:url(#radialGradient2613)" d="m314.21 243.11s3.37-6.91 8.32-9.87c4.96-2.96 9.91-5.52 11.1-4.54 1.18 0.99-0.99 8.49-0.99 10.86s0 6.71-1.99 7.89c-1.98 1.19-6.14 7.9-7.32 7.9-1.19 0-5.75 1.18-5.75 1.18l-3.37-13.42z"/><path id="path31967" style="color:#000000;fill:url(#radialGradient2610)" d="m316.29 259.51c-1.95 7.9-7.38 13.38-12.13 12.23s-7.03-8.49-5.09-16.4c1.93-7.9 7.36-13.39 12.11-12.25 4.76 1.15 7.05 8.48 5.11 16.39"/><path id="path31981" style="fill-rule:evenodd;stroke:#000000;stroke-width:.98496px;fill:url(#radialGradient2607)" d="m315.6 263.05s-2.18 4.34-3.37 5.72-4.75 3.35-4.75 3.35l22.58 3.16s2.58-1.38 3.17-3.35c0.59-1.98 0-6.12-1.78-6.32-1.79-0.2-16.44-2.37-15.85-2.56z"/><path id="path31991" style="color:#000000;fill:url(#radialGradient2604)" d="m332.49 271.43c-0.7 2.14-2.28 3.44-3.56 2.92s-1.8-2.66-1.17-4.84c0.62-2.17 2.17-3.6 3.48-3.21 1.32 0.38 1.94 2.43 1.4 4.63"/><g id="g31950" transform="matrix(.98672 0 0 .98319 5.9938 .040932)"><g id="g31928" transform="translate(-.74146 .49430)"><path id="path2596" style="stroke:#000000;stroke-width:1.698;stroke-linecap:round;fill:none" d="m328.62 279.14c1.49 0.28 3.1-1.59 3.58-4.18 0.48-2.6-0.34-4.92-1.83-5.2"/><path id="path2598" style="stroke:#000000;stroke-width:.7058;stroke-linecap:round;fill:none" d="m330.37 269.76c-1.5-0.28-3.11 1.6-3.59 4.19s0.34 4.92 1.84 5.2"/><path id="path2600" d="m330.21 270.6c-0.61-0.12-1.39-0.17-1.92 0.45l-0.19-0.54c0.76-0.9 1.54-1.75 2.42-1.58l-0.31 1.67"/><path id="path2602" d="m327.14 277.19c0.34 0.94 0.99 1 1.63 1.12l-0.31 1.67c-0.74-0.14-1.31-1.26-1.69-2.35l0.37-0.44"/><path id="path2604" style="stroke:#000000;stroke-width:1.698;stroke-linecap:round;fill:none" d="m330.37 269.76l-16.67-2.22m14.92 11.6l-23.72-3.04m-2.08 0.46c4.8 1.18 10.34-4.6 12.38-12.9 2.05-8.31-0.18-15.99-4.98-17.17"/><g id="g31923"><path id="path2606" style="stroke:#000000;stroke-width:.7058;stroke-linecap:round;fill:none" d="m310.22 246.49c-4.79-1.19-10.34 4.59-12.38 12.89-2.04 8.31 0.19 16 4.98 17.18"/><path id="path2608" d="m310.02 247.31c-2.26-0.56-4.82 0.14-6.94 2.35l-0.16-0.56c2.36-2.46 4.98-4.06 7.51-3.44l-0.41 1.65"/><path id="path2610" d="m297.97 270.44c0.95 3.27 2.88 4.76 5.05 5.29l-0.4 1.65c-2.27-0.56-4.06-3.1-5.05-6.53l0.4-0.41"/></g><path id="path2614" style="stroke:#000000;stroke-width:1.698;stroke-linecap:round;fill:none" d="m316.24 260.13s6.71-0.69 8.79-3.23c2.08-2.55 6.25-8.56 6.25-8.56l2.08-15.5s-2.78-3.24-12.26 4.39c-9.49 7.64-8.33 9.49-8.1 10.88"/></g><path id="path2616" style="stroke:#000000;stroke-width:1.131;stroke-linecap:round;fill:none" d="m329.77 237.74l-0.79 5.45s-2.68 4.58-2.29 0.56c0.4-4.03 0.55-5.45 0.63-6.32s2.45-2.37 2.45 0.31"/><path id="path31946" style="stroke:#000000;stroke-width:1.131;stroke-linecap:round;fill:none" d="m322.43 239.48c-1.11 1.03-2.29 1.11-1.11 3 1.19 1.9 2.69 4.35 2.92 1.27 0.24-3.08-0.08-5.29-1.81-4.27"/><path id="path31944" style="stroke:#000000;stroke-width:1.131;stroke-linecap:round;fill:none" d="m320.77 246.98c0 2.37-0.63 3.4-1.98 3.16-1.34-0.23-1.26-0.71-1.1-2.45 0.16-1.73 0.95-2.05 1.74-1.89s1.26 0.31 1.34 1.18"/><path id="path31942" style="stroke:#000000;stroke-width:1.131;stroke-linecap:round;fill:none" d="m318.48 256.46c0.69 0.12 1.4-0.59 1.57-1.6 0.18-1-0.25-1.91-0.94-2.03s-1.4 0.59-1.57 1.59c-0.18 1.01 0.24 1.92 0.94 2.04"/></g><path id="path2619" style="stroke:#ffffff;stroke-width:.98496px;fill:#f1ffff" d="m278.95 90.064c3.37 8.47 3.32 17.606 2.53 24.026-0.21 2.61-1.97 6.86-2.04 8.33 1.41-1.91 5.12-4.24 5.3-5.78-3.95-3.26 0.49-22.329-5.79-26.576zm19.73 22.826c7.58 1.76 14.53 6.66 19 13.47 1.85-0.11 5.54 5.59 8.3 3.9-7.8-7.16-14.74-15.33-27.3-17.37z"/></g><metadata><rdf:RDF><cc:Work><dc:format>image/svg+xml</dc:format><dc:type rdf:resource="http://purl.org/dc/dcmitype/StillImage"/><cc:license rdf:resource="http://creativecommons.org/licenses/publicdomain/"/><dc:publisher><cc:Agent rdf:about="http://openclipart.org/"><dc:title>Openclipart</dc:title></cc:Agent></dc:publisher><dc:title>Motobike</dc:title><dc:date>2006-10-15T14:34:47</dc:date><dc:description>I removed the bike from the stand and added some colour.\n\nHmm the shine on the seat has come out very much lighter than it looked in inkscape. I wonder why?</dc:description><dc:source>https://openclipart.org/detail/629/motobike-by-theresaknott</dc:source><dc:creator><cc:Agent><dc:title>TheresaKnott</dc:title></cc:Agent></dc:creator><dc:subject><rdf:Bag><rdf:li>bike</rdf:li><rdf:li>motobike</rdf:li><rdf:li>remix</rdf:li><rdf:li>vehicle</rdf:li></rdf:Bag></dc:subject></cc:Work><cc:License rdf:about="http://creativecommons.org/licenses/publicdomain/"><cc:permits rdf:resource="http://creativecommons.org/ns#Reproduction"/><cc:permits rdf:resource="http://creativecommons.org/ns#Distribution"/><cc:permits rdf:resource="http://creativecommons.org/ns#DerivativeWorks"/></cc:License></rdf:RDF></metadata></svg>