<?xml version="1.0" encoding="UTF-8"?>
<!DOCTYPE svg PUBLIC "-//W3C//DTD SVG 1.1//EN" "http://www.w3.org/Graphics/SVG/1.1/DTD/svg11.dtd">
<svg version="1.1" xmlns="http://www.w3.org/2000/svg" xmlns:xlink="http://www.w3.org/1999/xlink" x="0" y="0" width="445.478" height="602.971" viewBox="0, 0, 445.478, 602.971">
  <g id="Layer_1">
    <path d="M401.98,602.971 L43.498,602.971 C19.574,602.971 0,583.397 0,559.473 L0,64.498 C0,40.574 19.574,21 43.498,21 L401.98,21 C425.904,21 445.478,40.574 445.478,64.498 L445.478,559.473 C445.478,583.397 425.904,602.971 401.98,602.971" fill="#515258" id="path833"/>
    <path d="M401.98,581.971 L43.498,581.971 C19.574,581.971 0,562.397 0,538.473 L0,43.498 C0,19.574 19.574,-0 43.498,-0 L401.98,-0 C425.904,-0 445.478,19.574 445.478,43.498 L445.478,538.473 C445.478,562.397 425.904,581.971 401.98,581.971" fill="#606267" id="path835"/>
    <path d="M396.739,132.895 L48.739,132.895 C42.139,132.895 36.739,127.495 36.739,120.895 L36.739,52.895 C36.739,46.295 42.139,40.895 48.739,40.895 L396.739,40.895 C403.339,40.895 408.739,46.295 408.739,52.895 L408.739,120.895 C408.739,127.495 403.339,132.895 396.739,132.895" fill="#C2C7D3" id="path837"/>
    <path d="M397.761,117.895 L47.717,117.895 C41.679,117.895 36.739,112.955 36.739,106.917 L36.739,51.873 C36.739,45.835 41.679,40.895 47.717,40.895 L397.761,40.895 C403.799,40.895 408.739,45.835 408.739,51.873 L408.739,106.917 C408.739,112.955 403.799,117.895 397.761,117.895" fill="#CFD5E0" id="path839"/>
    <path d="M108.574,256.645 L47.631,256.645 C41.628,256.645 36.716,251.733 36.716,245.73 L36.716,184.787 C36.716,178.784 41.628,173.872 47.631,173.872 L108.574,173.872 C114.577,173.872 119.489,178.784 119.489,184.787 L119.489,245.73 C119.489,251.733 114.577,256.645 108.574,256.645" fill="#E3E4E4" id="path841"/>
    <path d="M106.272,249.783 L46.75,249.783 C41.107,249.783 36.489,245.165 36.489,239.522 L36.489,184.398 C36.489,178.755 41.107,174.137 46.75,174.137 L106.272,174.137 C111.916,174.137 116.533,178.755 116.533,184.398 L116.533,239.522 C116.533,245.165 111.916,249.783 106.272,249.783" fill="#FEFEFE" id="path843"/>
    <path d="M82.242,196.962 L60.695,196.962 L60.695,188.252 L93.703,188.252 L93.703,195.849 L73.138,234.095 L61.743,234.095 z" fill="#373535" id="path845"/>
    <path d="M206.81,256.645 L145.867,256.645 C139.864,256.645 134.952,251.733 134.952,245.73 L134.952,184.787 C134.952,178.784 139.864,173.872 145.867,173.872 L206.81,173.872 C212.813,173.872 217.725,178.784 217.725,184.787 L217.725,245.73 C217.725,251.733 212.813,256.645 206.81,256.645" fill="#E3E4E4" id="path847"/>
    <path d="M204.508,249.783 L144.986,249.783 C139.343,249.783 134.725,245.165 134.725,239.522 L134.725,184.398 C134.725,178.755 139.343,174.137 144.986,174.137 L204.508,174.137 C210.152,174.137 214.769,178.755 214.769,184.398 L214.769,239.522 C214.769,245.165 210.152,249.783 204.508,249.783" fill="#FEFEFE" id="path849"/>
    <path d="M181.296,201.416 L181.296,201.285 C181.296,198.469 178.873,195.915 174.747,195.915 C170.621,195.915 168.198,198.403 168.198,201.219 L168.198,201.35 C168.198,204.56 170.752,206.982 174.747,206.982 C178.742,206.982 181.296,204.625 181.296,201.416 M182.671,220.736 L182.671,220.604 C182.671,217.068 179.331,214.972 174.747,214.972 C170.163,214.972 166.822,217.068 166.822,220.604 L166.822,220.736 C166.822,223.879 169.77,226.433 174.747,226.433 C179.724,226.433 182.671,223.945 182.671,220.736 M157.065,221.521 L157.065,221.391 C157.065,215.824 159.619,212.549 164.465,210.323 C160.928,208.162 158.636,205.214 158.636,200.302 L158.636,200.171 C158.636,193.164 165.054,187.597 174.747,187.597 C184.44,187.597 190.858,193.099 190.858,200.171 L190.858,200.302 C190.858,205.214 188.566,208.162 185.029,210.323 C189.679,212.746 192.429,215.693 192.429,221.128 L192.429,221.259 C192.429,229.773 184.898,234.75 174.747,234.75 C164.596,234.75 157.065,229.511 157.065,221.521" fill="#373535" id="path851"/>
    <path d="M302.317,256.645 L241.374,256.645 C235.371,256.645 230.459,251.733 230.459,245.73 L230.459,184.787 C230.459,178.784 235.371,173.872 241.374,173.872 L302.317,173.872 C308.32,173.872 313.232,178.784 313.232,184.787 L313.232,245.73 C313.232,251.733 308.32,256.645 302.317,256.645" fill="#E3E4E4" id="path853"/>
    <path d="M300.015,249.783 L240.493,249.783 C234.85,249.783 230.232,245.165 230.232,239.522 L230.232,184.398 C230.232,178.755 234.85,174.137 240.493,174.137 L300.015,174.137 C305.659,174.137 310.276,178.755 310.276,184.398 L310.276,239.522 C310.276,245.165 305.659,249.783 300.015,249.783" fill="#FEFEFE" id="path855"/>
    <path d="M278.113,203.25 L278.113,203.119 C278.113,199.059 275.1,196.111 270.057,196.111 C265.081,196.111 262.264,198.993 262.264,203.054 L262.264,203.185 C262.264,207.245 265.277,210.06 270.255,210.06 C275.231,210.06 278.113,207.18 278.113,203.25 M253.292,229.446 L258.597,221.784 C261.937,224.469 264.753,225.713 268.617,225.713 C274.249,225.713 277.261,221.457 277.917,215.3 C275.69,217.2 272.612,218.444 268.617,218.444 C258.663,218.444 252.245,212.943 252.245,203.642 L252.245,203.512 C252.245,194.278 259.383,187.467 269.73,187.467 C275.886,187.467 279.489,188.973 282.96,192.444 C286.234,195.719 288.395,200.696 288.395,209.732 L288.395,209.865 C288.395,224.731 281.387,234.882 268.355,234.882 C261.675,234.882 257.156,232.655 253.292,229.446" fill="#373535" id="path857"/>
    <path d="M397.824,256.645 L336.881,256.645 C330.878,256.645 325.966,251.733 325.966,245.73 L325.966,184.787 C325.966,178.784 330.878,173.872 336.881,173.872 L397.824,173.872 C403.827,173.872 408.739,178.784 408.739,184.787 L408.739,245.73 C408.739,251.733 403.827,256.645 397.824,256.645" fill="#E3E4E4" id="path859"/>
    <path d="M395.749,249.518 L336.227,249.518 C330.584,249.518 325.966,244.9 325.966,239.257 L325.966,184.133 C325.966,178.49 330.584,173.872 336.227,173.872 L395.749,173.872 C401.393,173.872 406.01,178.49 406.01,184.133 L406.01,239.257 C406.01,244.9 401.393,249.518 395.749,249.518" fill="#FEFEFE" id="path861"/>
    <path d="M347.411,208.748 L384.566,208.748 L384.566,218.31 L347.411,218.31 z" fill="#373535" id="path863"/>
    <path d="M108.574,353.971 L47.631,353.971 C41.628,353.971 36.716,349.059 36.716,343.056 L36.716,282.113 C36.716,276.11 41.628,271.198 47.631,271.198 L108.574,271.198 C114.577,271.198 119.489,276.11 119.489,282.113 L119.489,343.056 C119.489,349.059 114.577,353.971 108.574,353.971" fill="#E3E4E4" id="path865"/>
    <path d="M106.272,347.109 L46.75,347.109 C41.107,347.109 36.489,342.491 36.489,336.848 L36.489,281.724 C36.489,276.081 41.107,271.463 46.75,271.463 L106.272,271.463 C111.916,271.463 116.533,276.081 116.533,281.724 L116.533,336.848 C116.533,342.491 111.916,347.109 106.272,347.109" fill="#FEFEFE" id="path867"/>
    <path d="M80.015,313.346 L80.015,299.069 L67.834,313.346 z M80.015,321.533 L57.617,321.533 L55.98,314.394 L81.128,285.25 L89.642,285.25 L89.642,313.346 L95.798,313.346 L95.798,321.533 L89.642,321.533 L89.642,331.421 L80.015,331.421 z" fill="#373535" id="path869"/>
    <path d="M206.81,353.971 L145.867,353.971 C139.864,353.971 134.952,349.059 134.952,343.056 L134.952,282.113 C134.952,276.11 139.864,271.198 145.867,271.198 L206.81,271.198 C212.813,271.198 217.725,276.11 217.725,282.113 L217.725,343.056 C217.725,349.059 212.813,353.971 206.81,353.971" fill="#E3E4E4" id="path871"/>
    <path d="M204.508,347.109 L144.986,347.109 C139.343,347.109 134.725,342.491 134.725,336.848 L134.725,281.724 C134.725,276.081 139.343,271.463 144.986,271.463 L204.508,271.463 C210.152,271.463 214.769,276.081 214.769,281.724 L214.769,336.848 C214.769,342.491 210.152,347.109 204.508,347.109" fill="#FEFEFE" id="path873"/>
    <path d="M156.933,325.331 L163.024,318.06 C166.495,321.205 169.9,323.038 173.961,323.038 C178.676,323.038 181.623,320.747 181.623,316.685 L181.623,316.555 C181.623,312.625 178.283,310.334 173.502,310.334 C170.621,310.334 168.001,311.119 165.84,312.036 L160.011,308.172 L161.321,285.577 L189.482,285.577 L189.482,294.42 L169.966,294.42 L169.442,302.344 C171.276,301.886 172.913,301.558 175.467,301.558 C184.374,301.558 191.512,305.881 191.512,316.227 L191.512,316.359 C191.512,326.051 184.636,332.207 174.092,332.207 C166.757,332.207 161.387,329.588 156.933,325.331" fill="#373535" id="path875"/>
    <path d="M302.317,353.971 L241.374,353.971 C235.371,353.971 230.459,349.059 230.459,343.056 L230.459,282.113 C230.459,276.11 235.371,271.198 241.374,271.198 L302.317,271.198 C308.32,271.198 313.232,276.11 313.232,282.113 L313.232,343.056 C313.232,349.059 308.32,353.971 302.317,353.971" fill="#E3E4E4" id="path877"/>
    <path d="M300.015,347.109 L240.493,347.109 C234.85,347.109 230.232,342.491 230.232,336.848 L230.232,281.724 C230.232,276.081 234.85,271.463 240.493,271.463 L300.015,271.463 C305.659,271.463 310.276,276.081 310.276,281.724 L310.276,336.848 C310.276,342.491 305.659,347.109 300.015,347.109" fill="#FEFEFE" id="path879"/>
    <path d="M278.244,316.817 L278.244,316.686 C278.244,312.822 275.231,310.006 270.255,310.006 C265.277,310.006 262.395,312.756 262.395,316.621 L262.395,316.752 C262.395,320.616 265.408,323.563 270.386,323.563 C275.363,323.563 278.244,320.747 278.244,316.817 M257.55,327.296 C254.209,323.956 252.113,319.044 252.113,309.94 L252.113,309.809 C252.113,295.664 258.532,284.792 272.22,284.792 C278.44,284.792 282.501,286.626 286.561,289.835 L281.257,297.629 C278.244,295.337 275.821,293.961 271.891,293.961 C266.194,293.961 263.312,298.546 262.657,304.57 C264.95,303.064 267.635,301.624 272.153,301.624 C281.257,301.624 288.265,306.666 288.265,316.227 L288.265,316.359 C288.265,325.724 280.733,332.208 270.778,332.208 C264.819,332.208 260.759,330.505 257.55,327.296" fill="#373535" id="path881"/>
    <path d="M397.824,353.971 L336.881,353.971 C330.878,353.971 325.966,349.059 325.966,343.056 L325.966,282.113 C325.966,276.11 330.878,271.198 336.881,271.198 L397.824,271.198 C403.827,271.198 408.739,276.11 408.739,282.113 L408.739,343.056 C408.739,349.059 403.827,353.971 397.824,353.971" fill="#E3E4E4" id="path883"/>
    <path d="M395.522,347.109 L336,347.109 C330.357,347.109 325.739,342.491 325.739,336.848 L325.739,281.724 C325.739,276.081 330.357,271.463 336,271.463 L395.522,271.463 C401.166,271.463 405.783,276.081 405.783,281.724 L405.783,336.848 C405.783,342.491 401.166,347.109 395.522,347.109" fill="#FEFEFE" id="path885"/>
    <path d="M360.456,313.608 L348.602,296.319 L359.277,296.319 L365.826,306.535 L372.441,296.319 L382.854,296.319 L371,313.412 L383.378,331.421 L372.703,331.421 L365.63,320.485 L358.557,331.421 L348.143,331.421 z" fill="#373535" id="path887"/>
    <path d="M360.683,193.678 L371.292,193.678 L371.292,204.157 L360.683,204.157 z" fill="#373535" id="path889"/>
    <path d="M360.683,224.345 L371.292,224.345 L371.292,234.824 L360.683,234.824 z" fill="#373535" id="path891"/>
    <path d="M108.574,452.207 L47.631,452.207 C41.628,452.207 36.716,447.295 36.716,441.292 L36.716,380.349 C36.716,374.346 41.628,369.434 47.631,369.434 L108.574,369.434 C114.577,369.434 119.489,374.346 119.489,380.349 L119.489,441.292 C119.489,447.295 114.577,452.207 108.574,452.207" fill="#E3E4E4" id="path893"/>
    <path d="M106.272,445.345 L46.75,445.345 C41.107,445.345 36.489,440.727 36.489,435.084 L36.489,379.96 C36.489,374.317 41.107,369.699 46.75,369.699 L106.272,369.699 C111.916,369.699 116.533,374.317 116.533,379.96 L116.533,435.084 C116.533,440.727 111.916,445.345 106.272,445.345" fill="#FEFEFE" id="path895"/>
    <path d="M74.35,393.704 L66.36,395.669 L64.265,387.417 L77.428,383.487 L84.305,383.487 L84.305,429.658 L74.35,429.658 z" fill="#373535" id="path897"/>
    <path d="M206.81,452.207 L145.867,452.207 C139.864,452.207 134.952,447.295 134.952,441.292 L134.952,380.349 C134.952,374.346 139.864,369.434 145.867,369.434 L206.81,369.434 C212.813,369.434 217.725,374.346 217.725,380.349 L217.725,441.292 C217.725,447.295 212.813,452.207 206.81,452.207" fill="#E3E4E4" id="path899"/>
    <path d="M204.508,445.345 L144.986,445.345 C139.343,445.345 134.725,440.727 134.725,435.084 L134.725,379.96 C134.725,374.317 139.343,369.699 144.986,369.699 L204.508,369.699 C210.152,369.699 214.769,374.317 214.769,379.96 L214.769,435.084 C214.769,440.727 210.152,445.345 204.508,445.345" fill="#FEFEFE" id="path901"/>
    <path d="M157.556,421.668 L172.815,409.158 C178.513,404.444 180.74,401.956 180.74,398.157 C180.74,394.293 178.185,392.197 174.584,392.197 C171.047,392.197 168.624,394.162 165.219,398.353 L158.145,392.655 C162.664,386.5 167.052,383.16 175.239,383.16 C184.735,383.16 191.022,388.727 191.022,397.306 L191.022,397.437 C191.022,405.099 187.093,408.897 178.972,415.184 L171.506,420.947 L191.48,420.947 L191.48,429.658 L157.556,429.658 z" fill="#373535" id="path903"/>
    <path d="M302.317,452.207 L241.374,452.207 C235.371,452.207 230.459,447.295 230.459,441.292 L230.459,380.349 C230.459,374.346 235.371,369.434 241.374,369.434 L302.317,369.434 C308.32,369.434 313.232,374.346 313.232,380.349 L313.232,441.292 C313.232,447.295 308.32,452.207 302.317,452.207" fill="#E3E4E4" id="path905"/>
    <path d="M300.015,445.345 L240.493,445.345 C234.85,445.345 230.232,440.727 230.232,435.084 L230.232,379.96 C230.232,374.317 234.85,369.699 240.493,369.699 L300.015,369.699 C305.659,369.699 310.276,374.317 310.276,379.96 L310.276,435.084 C310.276,440.727 305.659,445.345 300.015,445.345" fill="#FEFEFE" id="path907"/>
    <path d="M252.408,422.519 L259.35,415.905 C262.494,419.441 265.768,421.406 270.419,421.406 C274.217,421.406 276.902,419.245 276.902,415.839 L276.902,415.708 C276.902,411.975 273.562,409.879 267.929,409.879 L263.738,409.879 L262.167,403.461 L273.103,392.459 L255.094,392.459 L255.094,383.814 L286.071,383.814 L286.071,391.411 L274.478,402.479 C280.7,403.527 286.791,406.801 286.791,415.315 L286.791,415.446 C286.791,424.091 280.504,430.444 270.287,430.444 C262.036,430.444 256.338,427.169 252.408,422.519" fill="#373535" id="path909"/>
    <path d="M397.824,452.207 L336.881,452.207 C330.878,452.207 325.966,447.295 325.966,441.292 L325.966,380.349 C325.966,374.346 330.878,369.434 336.881,369.434 L397.824,369.434 C403.827,369.434 408.739,374.346 408.739,380.349 L408.739,441.292 C408.739,447.295 403.827,452.207 397.824,452.207" fill="#E3E4E4" id="path911"/>
    <path d="M395.522,445.345 L336,445.345 C330.357,445.345 325.739,440.727 325.739,435.084 L325.739,379.96 C325.739,374.317 330.357,369.699 336,369.699 L395.522,369.699 C401.166,369.699 405.783,374.317 405.783,379.96 L405.783,435.084 C405.783,440.727 401.166,445.345 395.522,445.345" fill="#FEFEFE" id="path913"/>
    <path d="M350.239,402.998 L381.282,402.998 L381.282,412.56 L350.239,412.56 z" fill="#373535" id="path915"/>
    <path d="M108.574,545.895 L47.631,545.895 C41.628,545.895 36.716,540.983 36.716,534.98 L36.716,474.037 C36.716,468.034 41.628,463.122 47.631,463.122 L108.574,463.122 C114.577,463.122 119.489,468.034 119.489,474.037 L119.489,534.98 C119.489,540.983 114.577,545.895 108.574,545.895" fill="#E3E4E4" id="path917"/>
    <path d="M106.272,539.033 L46.75,539.033 C41.107,539.033 36.489,534.415 36.489,528.772 L36.489,473.648 C36.489,468.005 41.107,463.387 46.75,463.387 L106.272,463.387 C111.916,463.387 116.533,468.005 116.533,473.648 L116.533,528.772 C116.533,534.415 111.916,539.033 106.272,539.033" fill="#FEFEFE" id="path919"/>
    <path d="M86.531,500.554 L86.531,500.423 C86.531,492.106 82.47,485.819 76.447,485.819 C70.421,485.819 66.49,491.909 66.49,500.292 L66.49,500.423 C66.49,508.806 70.486,515.028 76.576,515.028 C82.667,515.028 86.531,508.871 86.531,500.554 M56.143,500.554 L56.143,500.423 C56.143,487.128 64.395,476.715 76.576,476.715 C88.692,476.715 96.878,486.997 96.878,500.292 L96.878,500.423 C96.878,513.718 88.692,524.131 76.447,524.131 C64.199,524.131 56.143,513.849 56.143,500.554" fill="#373535" id="path921"/>
    <path d="M206.81,545.895 L145.867,545.895 C139.864,545.895 134.952,540.983 134.952,534.98 L134.952,474.037 C134.952,468.034 139.864,463.122 145.867,463.122 L206.81,463.122 C212.813,463.122 217.725,468.034 217.725,474.037 L217.725,534.98 C217.725,540.983 212.813,545.895 206.81,545.895" fill="#E3E4E4" id="path923"/>
    <path d="M204.508,539.033 L144.986,539.033 C139.343,539.033 134.725,534.415 134.725,528.772 L134.725,473.648 C134.725,468.005 139.343,463.387 144.986,463.387 L204.508,463.387 C210.152,463.387 214.769,468.005 214.769,473.648 L214.769,528.772 C214.769,534.415 210.152,539.033 204.508,539.033" fill="#FEFEFE" id="path925"/>
    <path d="M169.442,512.867 L180.051,512.867 L180.051,523.346 L169.442,523.346 z" fill="#373535" id="path927"/>
    <path d="M302.317,545.895 L241.374,545.895 C235.371,545.895 230.459,540.983 230.459,534.98 L230.459,474.037 C230.459,468.034 235.371,463.122 241.374,463.122 L302.317,463.122 C308.32,463.122 313.232,468.034 313.232,474.037 L313.232,534.98 C313.232,540.983 308.32,545.895 302.317,545.895" fill="#E3E4E4" id="path929"/>
    <path d="M300.015,539.033 L240.493,539.033 C234.85,539.033 230.232,534.415 230.232,528.772 L230.232,473.648 C230.232,468.005 234.85,463.387 240.493,463.387 L300.015,463.387 C305.659,463.387 310.276,468.005 310.276,473.648 L310.276,528.772 C310.276,534.415 305.659,539.033 300.015,539.033" fill="#FEFEFE" id="path931"/>
    <path d="M265.604,504.811 L253.75,504.811 L253.75,495.774 L265.604,495.774 L265.604,483.985 L274.903,483.985 L274.903,495.774 L286.757,495.774 L286.757,504.811 L274.903,504.811 L274.903,516.6 L265.604,516.6 z" fill="#373535" id="path933"/>
    <path d="M397.824,545.895 L336.881,545.895 C330.878,545.895 325.966,540.983 325.966,534.98 L325.966,474.037 C325.966,468.034 330.878,463.122 336.881,463.122 L397.824,463.122 C403.827,463.122 408.739,468.034 408.739,474.037 L408.739,534.98 C408.739,540.983 403.827,545.895 397.824,545.895" fill="#DE8239" id="path935"/>
    <path d="M395.522,539.033 L336,539.033 C330.357,539.033 325.739,534.415 325.739,528.772 L325.739,473.648 C325.739,468.005 330.357,463.387 336,463.387 L395.522,463.387 C401.166,463.387 405.783,468.005 405.783,473.648 L405.783,528.772 C405.783,534.415 401.166,539.033 395.522,539.033" fill="#F69634" id="path937"/>
    <path d="M350.239,504.288 L381.282,504.288 L381.282,513.325 L350.239,513.325 z M350.239,487.26 L381.282,487.26 L381.282,496.297 L350.239,496.297 z" fill="#373535" id="path939"/>
    <path d="M383.421,89.135 C385.44,90.811 386.465,91.769 386.5,92.008 L386.5,111.711 C386.465,111.951 385.44,112.909 383.421,114.585 C381.402,112.909 380.376,111.951 380.343,111.711 L380.343,92.008 C380.376,91.769 381.402,90.811 383.421,89.135 M383.421,60.811 C385.44,62.488 386.465,63.446 386.5,63.685 L386.5,83.388 C386.465,83.628 385.44,84.586 383.421,86.261 C381.402,84.586 380.376,83.628 380.343,83.388 L380.343,63.685 C380.376,63.446 381.402,62.488 383.421,60.811 M359.613,112.738 L379.317,112.738 C379.556,112.772 380.514,113.798 382.19,115.816 C380.514,117.835 379.556,118.861 379.317,118.895 L359.613,118.895 C359.373,118.861 358.415,117.835 356.74,115.816 C358.415,113.798 359.373,112.772 359.613,112.738 M359.613,56.501 L379.317,56.501 C379.556,56.536 380.514,57.562 382.19,59.58 C380.514,61.599 379.556,62.625 379.317,62.658 L359.613,62.658 C359.373,62.625 358.415,61.599 356.74,59.58 C358.415,57.562 359.373,56.536 359.613,56.501 M355.509,88.929 C357.526,90.606 358.553,91.564 358.587,91.803 L358.587,111.506 C358.553,111.746 357.526,112.704 355.509,114.38 C353.489,112.704 352.463,111.746 352.43,111.506 L352.43,91.803 C352.463,91.564 353.489,90.606 355.509,88.929 M355.509,60.811 C357.526,62.488 358.553,63.446 358.587,63.685 L358.587,83.388 C358.553,83.628 357.526,84.586 355.509,86.261 C353.489,84.586 352.463,83.628 352.43,83.388 L352.43,63.685 C352.463,63.446 353.489,62.488 355.509,60.811" fill="#373535" id="path941"/>
  </g>
</svg>