<?xml version="1.0" encoding="UTF-8" standalone="no"?>
<svg xmlns:dc="http://purl.org/dc/elements/1.1/" xmlns:cc="http://creativecommons.org/ns#" xmlns:rdf="http://www.w3.org/1999/02/22-rdf-syntax-ns#" xmlns:svg="http://www.w3.org/2000/svg" xmlns="http://www.w3.org/2000/svg" xmlns:xlink="http://www.w3.org/1999/xlink" xmlns:sodipodi="http://sodipodi.sourceforge.net/DTD/sodipodi-0.dtd" xmlns:inkscape="http://www.inkscape.org/namespaces/inkscape" version="1.1" id="svg89546" viewBox="0 0 503.1496 471.25984" height="133mm" width="142mm" inkscape:version="0.91 r13725" sodipodi:docname="PerplexedAfricanMaledesk.svg">
  <sodipodi:namedview pagecolor="#ffffff" bordercolor="#666666" borderopacity="1" objecttolerance="10" gridtolerance="10" guidetolerance="10" inkscape:pageopacity="0" inkscape:pageshadow="2" inkscape:window-width="1916" inkscape:window-height="1035" id="namedview4229" showgrid="false" inkscape:zoom="1.0587842" inkscape:cx="251.5748" inkscape:cy="232.99778" inkscape:window-x="4" inkscape:window-y="1" inkscape:window-maximized="1" inkscape:current-layer="g90481"/>
  <defs id="defs89548">
    <linearGradient id="linearGradient88087">
      <stop id="stop88089" offset="0" style="stop-color:#d99387;stop-opacity:1;"/>
      <stop id="stop88091" offset="1" style="stop-color:#d99387;stop-opacity:0;"/>
    </linearGradient>
    <radialGradient gradientUnits="userSpaceOnUse" gradientTransform="matrix(1,0,0,0.78294133,0,40.442698)" r="22.999807" fy="186.3215" fx="265.16998" cy="186.3215" cx="265.16998" id="radialGradient88093" xlink:href="#linearGradient88087"/>
    <radialGradient gradientUnits="userSpaceOnUse" gradientTransform="matrix(1,0,0,0.78294153,0,55.112774)" r="23.00108" fy="253.9075" fx="96.312012" cy="253.9075" cx="96.312012" id="radialGradient88095" xlink:href="#linearGradient88087"/>
    <clipPath id="Clip_1-3">
      <path d="m 0.06,0.93 548.409,0 0,506.07 -548.409,0 z" id="path88473"/>
    </clipPath>
  </defs>
  <metadata id="metadata89551">
    <rdf:RDF>
      <cc:Work rdf:about="">
        <dc:format>image/svg+xml</dc:format>
        <dc:type rdf:resource="http://purl.org/dc/dcmitype/StillImage"/>
        <dc:title/>
        <dc:creator>
          <cc:Agent>
            <dc:title>j4p4n</dc:title>
          </cc:Agent>
        </dc:creator>
        <cc:license rdf:resource="http://creativecommons.org/publicdomain/zero/1.0/"/>
      </cc:Work>
      <cc:License rdf:about="http://creativecommons.org/publicdomain/zero/1.0/">
        <cc:permits rdf:resource="http://creativecommons.org/ns#Reproduction"/>
        <cc:permits rdf:resource="http://creativecommons.org/ns#Distribution"/>
        <cc:permits rdf:resource="http://creativecommons.org/ns#DerivativeWorks"/>
      </cc:License>
    </rdf:RDF>
  </metadata>
  <g transform="translate(-99.473465,-287.60079)" id="layer1">
    <g transform="matrix(0.7,0,0,0.7,123.70056,445.10421)" id="Layer_1">
      <g id="g88150">
        <g transform="matrix(1.3,0,0,1.3,-29.488135,-210.87651)" id="g90481">
          <g id="g4231">
            <path transform="matrix(1.4285714,0,0,1.4285714,-176.71509,-635.86316)" id="path90478" d="m 121.02076,789.3746 64.14502,-47.4995 289.71756,1.05608 32.73844,46.11543 -14.43308,3.16823 -363.64306,3.52027 z" style="fill:#afa180;fill-opacity:1;fill-rule:evenodd;stroke:none;stroke-width:1px;stroke-linecap:butt;stroke-linejoin:miter;stroke-opacity:1"/>
            <path style="fill:#84bf43" d="m 262.41219,345.32594 2.65257,9.93038 0.53856,13.70293 0.3369,25.72997 2.99923,0.43773 0.74024,5.92774 3.70508,11.11328 -8.15039,15.55859 -16.11133,17.24219 12.5332,0 c 12.789,0 23.15625,-10.37506 23.15625,-23.16406 l 0,-53.61719 c 0,-12.789 -8.75389,-22.86156 -21.54289,-22.86156 z m -122.45129,46.70523 -10.3066,22.35945 -14.34766,19.12891 c 4.0229,6.84788 11.46026,11.44922 19.97461,11.44922 l 20.54883,0 z" id="path16195"/>
            <path style="fill:#f6c395" d="m 260.664,431.891 -32.562,-0.016 0,-28.148 32.562,0 0,28.164" id="path16197"/>
            <path style="fill:#8f6958;fill-opacity:1" d="m 83.805,423.446 30.875,10.343 8.968,-26.679 -30.875,-10.367 -8.968,26.703" id="path16199"/>
            <path style="fill:#00a2db;fill-opacity:0.52941179" d="m 255.906,329.774 c 6.797,10.867 10.188,22.398 10.188,36.648 0,14.235 0.672,35.953 0.672,35.953 l -38.664,1.352 27.804,-73.953" id="path16201"/>
            <path style="fill:#00a3da" d="m 271.357,394.238 -43.508,1.351 0.505,16.275 43.508,-1.351" id="path16203"/>
            <path style="fill:#00a3da;fill-opacity:0.531" d="m 125.68,329.774 c -9.907,8.14 -16.789,18 -21.328,31.508 -4.532,13.484 -12.086,33.851 -12.086,33.851 l 40.492,17.914 12.797,-36.765 -19.875,-46.508" id="path16205"/>
            <path style="fill:#00a3da" d="m 84.713,401.176 49.711,19.453 5.933,-15.163 -49.711,-19.453" id="path16207"/>
            <path d="m 150.422,313.414 -24.742,16.36 c 0,0 6.078,39.344 25.062,102.117 l 79.399,0 25.765,-102.117 c 0,0 -11.734,-10.071 -23.804,-16.36 l -81.68,0" id="path16209" style="opacity:1;fill:#00a3da;fill-opacity:0.531"/>
            <path style="fill:#006b8f" d="m 159.914,297.813 c 22.727,-4.672 45,-3.477 62.695,0.015 l -4.679,17.024 -50.219,-0.016 -7.797,-17.023" id="path16211"/>
            <path d="m 204.375,312.813 -13.578,29.18 -12.899,-29.18 0,-31.211 26.461,0 0.016,31.211 z" id="path16213" style="fill:#8f6958;fill-opacity:1"/>
            <path style="fill:#0087b4" d="m 186.148,309.891 5.586,32.086 0,44.117 -4.945,-0.016 0,-41.39 -8.891,-31.875 8.25,-2.922" id="path16215"/>
            <path style="fill:#0087b4" d="m 196.375,309.891 -5.555,32.086 -0.007,44.117 4.929,-0.016 0,-41.367 8.891,-31.898 -8.258,-2.922" id="path16217"/>
            <path style="fill:#00a3da" d="m 159.914,297.813 26.234,12.078 -12.328,30.047 -23.398,-26.524 9.492,-15.601" id="path16219"/>
            <path style="fill:#00a3da" d="m 222.609,297.828 -26.234,12.063 12.32,30.062 23.407,-26.539 -9.493,-15.586" id="path16221"/>
            <g id="g16231" style="fill:#b68a77;fill-opacity:1">
              <path d="m 289.305,115.657 c 3.031,-16.313 24.625,-19.235 36.398,-4.047 11.805,15.203 -0.43,53.304 -33.687,53.32 l -2.711,-49.273" id="path16223" style="fill:#b68a77;fill-opacity:1"/>
              <path d="m 30.094,219.422 c -13.446,-9.726 -31.102,3.047 -29.156,22.172 1.992,19.117 37.14,38.25 61.179,15.367 L 30.094,219.422" id="path16225" style="fill:#b68a77;fill-opacity:1"/>
              <path d="M 208.102,288.399 C 131.836,318.922 57.398,312.094 23.625,227.735 -1.977,163.766 37.07,82.141 113.32,51.602 c 76.242,-30.516 160.821,1.64 186.422,65.609 33.766,84.383 -15.414,140.672 -91.64,171.188" id="path16229" style="fill:#b68a77;fill-opacity:1"/>
              <circle style="opacity:1;fill:#493b30;fill-opacity:1;fill-rule:evenodd;stroke:none;stroke-width:3.54330707;stroke-linecap:round;stroke-linejoin:round;stroke-miterlimit:4;stroke-dasharray:none;stroke-opacity:1" id="path88097" cx="19.633327" cy="208.79567" r="20.374208"/>
              <circle r="20.374208" cy="193.97806" cx="38.155334" id="circle88099" style="opacity:1;fill:#493b30;fill-opacity:1;fill-rule:evenodd;stroke:none;stroke-width:3.54330707;stroke-linecap:round;stroke-linejoin:round;stroke-miterlimit:4;stroke-dasharray:none;stroke-opacity:1"/>
              <circle style="opacity:1;fill:#493b30;fill-opacity:1;fill-rule:evenodd;stroke:none;stroke-width:3.54330707;stroke-linecap:round;stroke-linejoin:round;stroke-miterlimit:4;stroke-dasharray:none;stroke-opacity:1" id="circle88101" cx="17.410686" cy="181.38309" r="20.374208"/>
              <circle r="20.374208" cy="168.04724" cx="35.932693" id="circle88103" style="opacity:1;fill:#493b30;fill-opacity:1;fill-rule:evenodd;stroke:none;stroke-width:3.54330707;stroke-linecap:round;stroke-linejoin:round;stroke-miterlimit:4;stroke-dasharray:none;stroke-opacity:1"/>
              <circle style="opacity:1;fill:#493b30;fill-opacity:1;fill-rule:evenodd;stroke:none;stroke-width:3.54330707;stroke-linecap:round;stroke-linejoin:round;stroke-miterlimit:4;stroke-dasharray:none;stroke-opacity:1" id="circle88105" cx="22.596848" cy="145.07996" r="20.374208"/>
              <circle r="20.374208" cy="151.007" cx="58.899982" id="circle88107" style="opacity:1;fill:#493b30;fill-opacity:1;fill-rule:evenodd;stroke:none;stroke-width:3.54330707;stroke-linecap:round;stroke-linejoin:round;stroke-miterlimit:4;stroke-dasharray:none;stroke-opacity:1"/>
              <circle style="opacity:1;fill:#493b30;fill-opacity:1;fill-rule:evenodd;stroke:none;stroke-width:3.54330707;stroke-linecap:round;stroke-linejoin:round;stroke-miterlimit:4;stroke-dasharray:none;stroke-opacity:1" id="circle88109" cx="46.305016" cy="122.11267" r="20.374208"/>
              <circle r="20.374208" cy="126.55795" cx="66.308784" id="circle88111" style="opacity:1;fill:#493b30;fill-opacity:1;fill-rule:evenodd;stroke:none;stroke-width:3.54330707;stroke-linecap:round;stroke-linejoin:round;stroke-miterlimit:4;stroke-dasharray:none;stroke-opacity:1"/>
              <circle style="opacity:1;fill:#493b30;fill-opacity:1;fill-rule:evenodd;stroke:none;stroke-width:3.54330707;stroke-linecap:round;stroke-linejoin:round;stroke-miterlimit:4;stroke-dasharray:none;stroke-opacity:1" id="circle88113" cx="55.19558" cy="94.700104" r="20.374208"/>
              <circle r="20.374208" cy="102.10891" cx="80.385513" id="circle88115" style="opacity:1;fill:#493b30;fill-opacity:1;fill-rule:evenodd;stroke:none;stroke-width:3.54330707;stroke-linecap:round;stroke-linejoin:round;stroke-miterlimit:4;stroke-dasharray:none;stroke-opacity:1"/>
              <circle style="opacity:1;fill:#493b30;fill-opacity:1;fill-rule:evenodd;stroke:none;stroke-width:3.54330707;stroke-linecap:round;stroke-linejoin:round;stroke-miterlimit:4;stroke-dasharray:none;stroke-opacity:1" id="circle88117" cx="77.421989" cy="71.732819" r="20.374208"/>
              <circle r="20.374208" cy="97.663628" cx="115.94776" id="circle88119" style="opacity:1;fill:#493b30;fill-opacity:1;fill-rule:evenodd;stroke:none;stroke-width:3.54330707;stroke-linecap:round;stroke-linejoin:round;stroke-miterlimit:4;stroke-dasharray:none;stroke-opacity:1"/>
              <circle style="opacity:1;fill:#493b30;fill-opacity:1;fill-rule:evenodd;stroke:none;stroke-width:3.54330707;stroke-linecap:round;stroke-linejoin:round;stroke-miterlimit:4;stroke-dasharray:none;stroke-opacity:1" id="circle88121" cx="103.3528" cy="81.364258" r="20.374208"/>
              <circle r="20.374208" cy="70.251053" cx="124.09745" id="circle88123" style="opacity:1;fill:#493b30;fill-opacity:1;fill-rule:evenodd;stroke:none;stroke-width:3.54330707;stroke-linecap:round;stroke-linejoin:round;stroke-miterlimit:4;stroke-dasharray:none;stroke-opacity:1"/>
              <circle style="opacity:1;fill:#493b30;fill-opacity:1;fill-rule:evenodd;stroke:none;stroke-width:3.54330707;stroke-linecap:round;stroke-linejoin:round;stroke-miterlimit:4;stroke-dasharray:none;stroke-opacity:1" id="circle88125" cx="108.53896" cy="63.58313" r="20.374208"/>
              <circle r="20.374208" cy="49.506405" cx="137.43329" id="circle88127" style="opacity:1;fill:#493b30;fill-opacity:1;fill-rule:evenodd;stroke:none;stroke-width:3.54330707;stroke-linecap:round;stroke-linejoin:round;stroke-miterlimit:4;stroke-dasharray:none;stroke-opacity:1"/>
              <circle style="opacity:1;fill:#493b30;fill-opacity:1;fill-rule:evenodd;stroke:none;stroke-width:3.54330707;stroke-linecap:round;stroke-linejoin:round;stroke-miterlimit:4;stroke-dasharray:none;stroke-opacity:1" id="circle88129" cx="160.40057" cy="62.101372" r="20.374208"/>
              <circle r="20.374208" cy="41.356724" cx="166.32762" id="circle88131" style="opacity:1;fill:#493b30;fill-opacity:1;fill-rule:evenodd;stroke:none;stroke-width:3.54330707;stroke-linecap:round;stroke-linejoin:round;stroke-miterlimit:4;stroke-dasharray:none;stroke-opacity:1"/>
              <circle style="opacity:1;fill:#493b30;fill-opacity:1;fill-rule:evenodd;stroke:none;stroke-width:3.54330707;stroke-linecap:round;stroke-linejoin:round;stroke-miterlimit:4;stroke-dasharray:none;stroke-opacity:1" id="circle88133" cx="195.96283" cy="48.765526" r="20.374208"/>
              <circle r="20.374208" cy="42.097603" cx="224.11629" id="circle88135" style="opacity:1;fill:#493b30;fill-opacity:1;fill-rule:evenodd;stroke:none;stroke-width:3.54330707;stroke-linecap:round;stroke-linejoin:round;stroke-miterlimit:4;stroke-dasharray:none;stroke-opacity:1"/>
              <circle style="opacity:1;fill:#493b30;fill-opacity:1;fill-rule:evenodd;stroke:none;stroke-width:3.54330707;stroke-linecap:round;stroke-linejoin:round;stroke-miterlimit:4;stroke-dasharray:none;stroke-opacity:1" id="circle88137" cx="222.63452" cy="65.064896" r="20.374208"/>
              <circle r="20.374208" cy="56.174332" cx="248.56534" id="circle88139" style="opacity:1;fill:#493b30;fill-opacity:1;fill-rule:evenodd;stroke:none;stroke-width:3.54330707;stroke-linecap:round;stroke-linejoin:round;stroke-miterlimit:4;stroke-dasharray:none;stroke-opacity:1"/>
              <circle style="opacity:1;fill:#493b30;fill-opacity:1;fill-rule:evenodd;stroke:none;stroke-width:3.54330707;stroke-linecap:round;stroke-linejoin:round;stroke-miterlimit:4;stroke-dasharray:none;stroke-opacity:1" id="circle88141" cx="253.7515" cy="72.473701" r="20.374208"/>
              <circle r="20.374208" cy="87.291306" cx="275.97791" id="circle88143" style="opacity:1;fill:#493b30;fill-opacity:1;fill-rule:evenodd;stroke:none;stroke-width:3.54330707;stroke-linecap:round;stroke-linejoin:round;stroke-miterlimit:4;stroke-dasharray:none;stroke-opacity:1"/>
              <circle style="opacity:1;fill:#493b30;fill-opacity:1;fill-rule:evenodd;stroke:none;stroke-width:3.54330707;stroke-linecap:round;stroke-linejoin:round;stroke-miterlimit:4;stroke-dasharray:none;stroke-opacity:1" id="circle88145" cx="284.12759" cy="109.51772" r="20.374208"/>
            </g>
            <path style="fill:#1a1919" d="m 84.719,214.899 c -4.047,-10.117 -0.36,-21.133 8.297,-24.586 8.656,-3.461 18.953,1.945 22.984,12.039 4.047,10.07 0.305,21.07 -8.344,24.539 -8.648,3.461 -18.906,-1.922 -22.937,-11.992" id="path16233"/>
            <path style="fill:#1a1919" d="m 246.688,150.055 c -4.04,-10.094 -14.336,-15.5 -22.977,-12.062 -8.625,3.46 -12.352,14.492 -8.32,24.578 4.039,10.07 14.328,15.476 22.968,12.031 8.633,-3.469 12.36,-14.484 8.329,-24.547" id="path16235"/>
            <path d="m 158.251,199.129 0.361,-0.014 -0.361,0.013 0,0.001 0.361,-0.014 -0.361,0.013 c 0.001,0.038 0.012,0.369 0.012,0.962 0.001,2.614 -0.212,10.317 -2.337,20.435 l -0.578,2.751 2.278,1.647 c 0.24,0.173 1.327,0.926 3.195,1.652 1.866,0.724 4.525,1.416 7.816,1.416 2.933,0.002 6.353,-0.556 10.069,-2.05 2.22,-0.89 3.297,-3.412 2.407,-5.631 -0.891,-2.22 -3.412,-3.298 -5.632,-2.407 -2.722,1.089 -4.989,1.424 -6.844,1.427 -2.076,-0.001 -3.654,-0.432 -4.683,-0.83 -0.513,-0.199 -0.886,-0.39 -1.101,-0.511 -0.107,-0.06 -0.175,-0.103 -0.201,-0.119 l -0.012,-0.008 -1.038,1.564 1.1,-1.521 -0.062,-0.043 -1.038,1.564 1.1,-1.521 -2.538,3.509 4.238,0.89 c 2.28,-10.866 2.521,-19.14 2.522,-22.214 0,-0.797 -0.017,-1.244 -0.019,-1.297 -0.092,-2.39 -2.105,-4.252 -4.495,-4.159 -2.39,0.093 -4.252,2.106 -4.159,4.495" id="path16237" style="fill:#8f6958;fill-opacity:1"/>
            <path d="m 101.679,235.899 c 7.804,0 14.397,3.304 16.759,9.172 3.453,8.625 -3.618,19.601 -15.836,24.507 -3.947,1.586 -7.95,2.338 -11.676,2.338 -7.806,0 -14.401,-3.297 -16.739,-9.135 -3.461,-8.648 3.641,-19.664 15.868,-24.562 3.932,-1.573 7.915,-2.32 11.624,-2.32 z" id="path16239" style="opacity:0.39200003;fill:url(#radialGradient88095);fill-opacity:1"/>
            <path d="m 270.577,168.314 c 7.809,0 14.388,3.293 16.72,9.163 3.445,8.625 -3.609,19.617 -15.86,24.531 -3.943,1.573 -7.94,2.321 -11.663,2.321 -7.796,-0.001 -14.385,-3.283 -16.727,-9.141 -3.461,-8.649 3.633,-19.672 15.836,-24.547 3.96,-1.578 7.967,-2.327 11.694,-2.327 z" id="path16241" style="opacity:0.39200003;fill:url(#radialGradient88093);fill-opacity:1"/>
            <path style="fill:#1a1919" d="m 197.48,106.518 c 1.86,-3.051 4.543,-5.322 7.774,-6.87 3.225,-1.544 6.992,-2.332 10.832,-2.33 3.356,-0.001 6.76,0.599 9.88,1.763 3.123,1.163 5.956,2.885 8.227,5.096 1.185,1.154 3.08,1.128 4.234,-0.057 1.154,-1.185 1.128,-3.081 -0.057,-4.234 -2.941,-2.862 -6.496,-4.994 -10.313,-6.417 -3.819,-1.422 -7.907,-2.139 -11.971,-2.14 -4.648,0.002 -9.275,0.938 -13.415,2.915 -4.136,1.973 -7.791,5.022 -10.307,9.16 -0.86,1.413 -0.412,3.255 1.001,4.115 1.413,0.86 3.255,0.412 4.115,-1.001" id="path16243"/>
            <path d="m 88.82,462.555 c 27.578,-26.297 78.899,-16.031 95.571,0.633 l 0,-44.555 c -12.735,-12.742 -51.914,-20.578 -72.977,-0.492 L 88.82,462.555" id="path16253" style="fill:#fcfcf4;fill-opacity:1;stroke:#d1cece;stroke-opacity:1"/>
            <path style="fill:#e0dad3" d="m 88.82,471 c 27.578,-26.304 78.899,-16.047 95.571,0.641 l 0,-8.453 c -16.672,-16.664 -67.993,-26.93 -95.571,-0.633 l 0,8.445" id="path16255"/>
            <path d="m 279.969,462.555 c -27.578,-26.297 -78.899,-16.031 -95.578,0.633 l 0,-44.555 c 12.734,-12.742 51.914,-20.578 72.976,-0.492 l 22.602,44.414" id="path16257" style="fill:#fcfcf4;fill-opacity:1;stroke:#d1cece;stroke-opacity:1"/>
            <path style="fill:#e0dad3" d="m 279.969,471 c -27.578,-26.304 -78.899,-16.047 -95.578,0.641 l 0,-8.453 c 16.679,-16.664 68,-26.93 95.578,-0.633 l 0,8.445" id="path16259"/>
            <path d="m 242.719,421.532 c 1.515,-5.508 -1.696,-11.243 -7.211,-12.75 -5.516,-1.555 -11.242,1.679 -12.781,7.211 -1.539,5.515 1.703,11.226 7.226,12.75 5.516,1.554 11.235,-1.688 12.766,-7.211" id="path16261" style="fill:#8f6958;fill-opacity:1"/>
            <path d="m 293.898,430.586 c 3.54,-12.726 -6.25,-26.57 -21.867,-30.89 -15.617,-4.336 -31.14,2.453 -34.679,15.187 -3.532,12.711 6.265,26.555 21.875,30.891 15.625,4.32 31.148,-2.469 34.671,-15.188" id="path16263" style="fill:#b68a77;fill-opacity:1"/>
            <path style="fill:#bfb141;fill-opacity:1" d="m 138.898,481.805 c 1.969,-3.32 4.977,-5.148 6.758,-4.094 L 51.445,421.86 c -1.758,-1.063 -4.781,0.789 -6.758,4.086 -1.968,3.328 -2.117,6.875 -0.359,7.914 l 94.195,55.836 c -1.75,-1.039 -1.601,-4.571 0.375,-7.891" id="path16265"/>
            <path style="fill:#edd3ae" d="m 155.359,491.571 c 0.539,-0.899 0.204,-1.391 -1.101,-3.078 -2.688,-3.477 -8.602,-10.782 -8.602,-10.782 -1.781,-1.054 -4.789,0.774 -6.758,4.094 -1.976,3.32 -2.125,6.852 -0.375,7.891 0,0 9.282,1.687 13.618,2.382 2.086,0.329 2.695,0.391 3.218,-0.507" id="path16267"/>
            <path style="fill:#746056" d="m 147.453,491.289 c 1.742,0.305 3.43,0.586 4.688,0.789 2.086,0.329 2.695,0.391 3.218,-0.507 0.539,-0.899 0.204,-1.391 -1.101,-3.078 -0.789,-1 -1.828,-2.344 -2.938,-3.727 -1.015,0.594 -1.992,1.547 -2.726,2.789 -0.735,1.258 -1.11,2.578 -1.141,3.734" id="path16269"/>
            <path d="m 301.164,435.953 95.766,17.415 c 3.609,5.804 2.429,15.476 -0.477,19.351 l -95.289,-17.414 0,-19.352" id="path16271" style="fill:#fcfcf4;fill-opacity:1;stroke:#e0dad3;stroke-opacity:1"/>
            <path style="fill:#d38b8c" d="m 478.688,414.36 c 4.835,6.281 1.929,14.508 1.929,14.508 l -84.164,43.851 c 2.906,-3.875 4.086,-13.547 0.477,-19.351 l 81.758,-39.008" id="path16273"/>
            <path style="fill:#ad7375" d="m 478.688,414.36 -81.758,39.008 -95.766,-17.415 94.313,-28.851 83.211,7.258" id="path16275"/>
            <path style="fill:#8a8b8a" d="m 301.018,441.593 90.453,16.445 0.292,-1.607 -90.453,-16.445" id="path16277"/>
            <path style="fill:#8a8b8a" d="m 301.018,448.367 90.453,16.445 0.292,-1.608 -90.453,-16.445" id="path16279"/>
            <path style="fill:#8a8b8a" d="m 301.018,451.195 90.453,16.453 0.292,-1.608 -90.453,-16.453" id="path16281"/>
            <path style="fill:#45a497" d="m 304.594,417.078 0,11.118 97.711,15.047 0,-11.665 -97.711,-14.5" id="path16283"/>
            <path d="m 402.305,443.243 69.172,-21.329 0,-11.132 -69.172,20.796 0,11.665" id="path16285" style="fill:#fcfcf4;fill-opacity:1;stroke:#e0dad3;stroke-opacity:1"/>
            <path style="fill:#337b70" d="m 471.477,410.782 -69.172,20.796 -97.711,-14.5 76.906,-17.421 89.977,11.125" id="path16287"/>
            <path d="m 400.859,429.164 64.329,-21.765 0,-9.188 -64.329,19.344 0,11.609" id="path16289" style="fill:#fcfcf4;fill-opacity:1;stroke:#e0dad3;stroke-opacity:1"/>
            <path style="fill:#0073a2" d="m 400.859,429.164 -93.359,-16.445 0,-9.187 93.359,14.023 0,11.609" id="path16291"/>
            <path style="fill:#006791" d="m 307.5,403.532 93.359,14.023 64.329,-19.344 -92.391,-13.75 -65.297,19.071" id="path16293"/>
            <path d="m 172.626,253.926 c 2.477,-3.064 6.662,-6.767 11.926,-9.595 5.274,-2.842 11.6,-4.842 18.567,-4.84 2.115,0 4.293,0.183 6.533,0.585 2.342,0.421 4.581,-1.136 5.002,-3.478 0.421,-2.341 -1.136,-4.581 -3.478,-5.002 -2.75,-0.494 -5.443,-0.722 -8.057,-0.722 -8.631,0.002 -16.347,2.472 -22.655,5.872 -6.317,3.414 -11.251,7.725 -14.528,11.751 -1.499,1.847 -1.217,4.56 0.631,6.059 1.847,1.5 4.56,1.217 6.059,-0.63" id="path16295" style="fill:#c64934;fill-opacity:1"/>
            <g id="g16301">
              <path style="fill:#1a1919" d="m 105.028,141.396 0.163,0.073 -0.163,-0.074 0,10e-4 0.163,0.073 -0.163,-0.074 c -0.077,0.176 -2.818,6.173 -9.188,13.247 -6.375,7.08 -16.336,15.23 -30.98,19.921 -1.575,0.504 -2.443,2.19 -1.938,3.765 0.504,1.575 2.19,2.443 3.765,1.938 16.085,-5.149 27.036,-14.216 33.932,-21.983 6.901,-7.774 9.793,-14.258 9.884,-14.46 0.67,-1.512 -0.012,-3.281 -1.524,-3.951 -1.512,-0.67 -3.281,0.012 -3.951,1.524" id="path16297"/>
              <path style="fill:#c7bb9e" d="m -3.94,491.68 552.409,0 0,15.32 -552.409,0 z" id="path16299"/>
            </g>
            <path d="m 108.828,330.86 c 0,0 -7.226,-5.617 -25.461,-9.196 -11.023,-2.156 -15.32,-8.164 -15.32,-14.296 0,-6.125 1.023,-19.399 1.023,-28.594 0,-9.188 13.274,-6.125 13.274,2.047 0,8.164 1.023,19.398 1.023,19.398 27.571,2.047 53.039,-2.562 53.039,22.469 0,10.211 -13.281,72.508 -17.367,93.953 -4.078,21.445 -54.117,15.312 -39.211,-15.594 11.516,-23.859 29,-70.187 29,-70.187" id="path16303" style="fill:#b68a77;fill-opacity:1"/>
            <path d="m 72.338,278.774 c 0,-0.649 0.1,-1.088 0.209,-1.374 0.176,-0.425 0.321,-0.555 0.557,-0.711 0.235,-0.144 0.634,-0.272 1.19,-0.272 0.488,-10e-4 1.078,0.104 1.66,0.327 0.877,0.331 1.711,0.923 2.259,1.624 0.551,0.711 0.856,1.47 0.863,2.453 0.001,4.213 0.261,9.108 0.519,12.978 0.258,3.867 0.516,6.698 0.518,6.717 l 0.251,2.757 2.761,0.205 c 7.019,0.52 13.825,0.615 20.032,0.861 4.654,0.182 8.97,0.451 12.751,1.016 2.835,0.422 5.366,1.011 7.509,1.814 1.609,0.602 2.998,1.32 4.172,2.164 1.76,1.275 3.062,2.799 4.019,4.901 0.949,2.101 1.53,4.839 1.53,8.454 0,1.805 1.463,3.268 3.268,3.268 1.805,0 3.268,-1.463 3.268,-3.268 0,-3.404 -0.432,-6.421 -1.313,-9.092 -0.768,-2.335 -1.89,-4.398 -3.313,-6.15 -1.244,-1.534 -2.711,-2.824 -4.326,-3.889 -2.831,-1.866 -6.09,-3.056 -9.617,-3.874 -5.295,-1.219 -11.245,-1.615 -17.598,-1.871 -6.35,-0.251 -13.099,-0.346 -19.898,-0.852 l -0.242,3.259 3.254,-0.296 c 0,-10e-4 -0.015,-0.167 -0.042,-0.485 -0.097,-1.112 -0.339,-4.028 -0.557,-7.539 -0.219,-3.509 -0.411,-7.623 -0.41,-11.078 0.002,-1.675 -0.398,-3.256 -1.075,-4.619 -1.02,-2.052 -2.615,-3.61 -4.398,-4.668 -1.791,-1.055 -3.793,-1.646 -5.845,-1.653 -1.026,0.001 -2.069,0.154 -3.083,0.513 -1.517,0.528 -2.975,1.575 -3.952,3.072 -0.986,1.493 -1.461,3.334 -1.457,5.308 0,1.804 1.464,3.268 3.268,3.268 1.805,0 3.268,-1.464 3.268,-3.268" id="path16305" style="fill:#8f6958;fill-opacity:1"/>
            <path style="fill:#e05541" d="m 320.764,23.276 c -0.283,-0.583 -0.255,-0.756 -0.261,-0.759 l -0.065,0 0.064,0.01 10e-4,-0.01 -0.065,0 0.064,0.01 -0.015,-0.003 0.015,0.005 0,-0.002 -0.015,-0.003 0.015,0.005 c 0.004,-0.015 0.081,-0.251 0.497,-0.684 0.306,-0.318 0.792,-0.719 1.449,-1.118 0.981,-0.601 2.34,-1.186 3.894,-1.59 1.555,-0.408 3.3,-0.64 5.047,-0.638 1.505,-10e-4 3.009,0.169 4.412,0.506 1.404,0.337 2.703,0.837 3.849,1.481 l 0.004,0.003 c 2.301,1.289 4.065,3.118 5.241,5.095 1.183,1.963 1.697,4.06 1.682,5.483 10e-4,0.682 -0.104,1.199 -0.215,1.516 -0.083,0.241 -0.163,0.372 -0.216,0.446 -0.091,0.106 -0.088,0.123 -0.318,0.241 -0.229,0.105 -0.761,0.297 -1.862,0.3 l -0.151,-10e-4 -0.003,0 c -0.454,-0.008 -0.9,-0.011 -1.338,-0.011 -4.193,0.006 -7.622,0.313 -10.77,1.118 -2.348,0.603 -4.569,1.541 -6.493,2.869 -1.441,0.986 -2.67,2.173 -3.619,3.347 -1.434,1.776 -2.264,3.425 -2.9,4.69 -0.632,1.281 -1.08,2.231 -1.55,3.023 -2.462,4.18 -1.069,9.565 3.111,12.027 4.18,2.462 9.565,1.069 12.027,-3.111 1.191,-2.038 1.907,-3.696 2.388,-4.602 0.357,-0.696 0.551,-0.943 0.564,-0.954 l 0.002,-0.002 -0.296,-0.272 0.254,0.31 0.042,-0.038 -0.296,-0.272 0.254,0.31 -0.248,-0.302 0.229,0.317 0.019,-0.015 -0.248,-0.302 0.229,0.317 -0.034,-0.047 0.031,0.049 0.003,-0.002 -0.034,-0.047 0.031,0.049 c 0.01,-0.006 0.088,-0.057 0.322,-0.145 0.345,-0.13 1.048,-0.331 2.2,-0.485 1.149,-0.156 2.735,-0.263 4.782,-0.262 0.34,0 0.692,0.003 1.058,0.009 l -0.011,0 0.008,0 c 0.145,0.002 0.291,0.004 0.437,0.004 2.898,10e-4 5.726,-0.483 8.327,-1.53 1.948,-0.781 3.752,-1.88 5.295,-3.226 2.325,-2.018 4.019,-4.563 5.063,-7.207 1.05,-2.652 1.493,-5.404 1.494,-8.109 -0.015,-5.03 -1.489,-9.968 -4.153,-14.468 -2.67,-4.487 -6.61,-8.551 -11.74,-11.431 l 0.005,0.002 c -2.69,-1.511 -5.518,-2.567 -8.359,-3.249 -2.843,-0.681 -5.702,-0.99 -8.509,-0.991 -3.298,0.001 -6.524,0.426 -9.595,1.237 -2.303,0.61 -4.52,1.439 -6.614,2.51 -3.132,1.611 -6.035,3.758 -8.343,6.723 -1.147,1.481 -2.131,3.176 -2.823,5.061 -0.694,1.881 -1.082,3.952 -1.08,6.056 -0.005,2.955 0.763,5.912 2.099,8.583 2.161,4.344 7.434,6.114 11.777,3.953 4.344,-2.161 6.114,-7.433 3.954,-11.777" id="path16307"/>
            <path style="fill:#e05541" d="m 314.547,84.987 c 2.776,0 5.491,-1.125 7.454,-3.088 1.962,-1.962 3.087,-4.678 3.087,-7.453 0,-2.776 -1.125,-5.491 -3.087,-7.454 -1.963,-1.963 -4.678,-3.088 -7.454,-3.088 -2.776,0 -5.491,1.125 -7.454,3.088 -1.963,1.963 -3.087,4.678 -3.087,7.454 0,2.775 1.124,5.491 3.087,7.453 1.963,1.963 4.678,3.088 7.454,3.088" id="path16309"/>
          </g>
        </g>
      </g>
    </g>
  </g>
</svg>