<?xml version="1.0" encoding="UTF-8" standalone="no"?>
<!-- Created with Inkscape (http://www.inkscape.org/) -->
<svg xmlns:dc="http://purl.org/dc/elements/1.1/" xmlns:cc="http://creativecommons.org/ns#" xmlns:rdf="http://www.w3.org/1999/02/22-rdf-syntax-ns#" xmlns:svg="http://www.w3.org/2000/svg" xmlns="http://www.w3.org/2000/svg" xmlns:sodipodi="http://sodipodi.sourceforge.net/DTD/sodipodi-0.dtd" xmlns:inkscape="http://www.inkscape.org/namespaces/inkscape" id="svg2" version="1.1" inkscape:version="0.91 r13725" xml:space="preserve" width="706.5976" height="810" viewBox="0 0 706.5976 810" sodipodi:docname="publicdomainq-grandfather-physical-training.svg" inkscape:export-filename="/media/sdb1/_GRAFIKA/Publicdomainq/lidi/publicdomainq-grandfather-physical-training.png" inkscape:export-xdpi="88.984169" inkscape:export-ydpi="88.984169"><title id="title7699">Grandfather - physical training</title><metadata id="metadata8"><rdf:RDF><cc:Work rdf:about=""><dc:format>image/svg+xml</dc:format><dc:type rdf:resource="http://purl.org/dc/dcmitype/StillImage"/><dc:title>Grandfather - physical training</dc:title><cc:license rdf:resource="http://creativecommons.org/publicdomain/zero/1.0/"/><dc:subject><rdf:Bag><rdf:li>man</rdf:li><rdf:li>male</rdf:li><rdf:li>senior</rdf:li><rdf:li>old</rdf:li><rdf:li>physical</rdf:li><rdf:li>training</rdf:li><rdf:li>exercise</rdf:li><rdf:li>health</rdf:li><rdf:li>sport</rdf:li><rdf:li>train</rdf:li><rdf:li>sweat</rdf:li><rdf:li>dumbbell</rdf:li><rdf:li>muscle</rdf:li><rdf:li>age</rdf:li><rdf:li>publicdomainq.net</rdf:li></rdf:Bag></dc:subject><dc:description>This image was adapted from a picture posted to publicdomainq.net. All of the images on these sites are in the public domain i.e. CC0. This site is only in Japanese but can be easily navigated with Google Translate.</dc:description></cc:Work><cc:License rdf:about="http://creativecommons.org/publicdomain/zero/1.0/"><cc:permits rdf:resource="http://creativecommons.org/ns#Reproduction"/><cc:permits rdf:resource="http://creativecommons.org/ns#Distribution"/><cc:permits rdf:resource="http://creativecommons.org/ns#DerivativeWorks"/></cc:License></rdf:RDF></metadata><defs id="defs6"><clipPath clipPathUnits="userSpaceOnUse" id="clipPath58"><path d="M 248.324,1461.59 C 126.266,1426.93 127.109,1220.15 127.109,1220.15 128.004,1110.01 139.297,920.891 208.629,851.066 277.488,781.75 343.082,748.82 400.598,733.75 c 0,0 71.066,-21.051 138.136,4.621 56.399,18.891 119.641,56.09 183.711,129.902 70.293,80.997 62.305,300.467 54.805,400.977 -2.207,29.79 -19.727,63.35 -27.156,71.62 -108.156,120.31 -110.422,196.84 -110.422,196.84 l -14.07,-18.1 c -25.891,-27.68 -74.395,-55.98 -164.289,-72.31 0,0 28.632,110.96 53.828,131.22 0,0 -108.278,-147.61 -291.328,-187.67 0,0 4.953,25.09 18.875,58.15 l 5.636,12.59 z" id="path60" inkscape:connector-curvature="0"/></clipPath><linearGradient x1="0" y1="0" x2="1" y2="0" gradientUnits="userSpaceOnUse" gradientTransform="matrix(-1.44e-5,329.108,329.108,1.44e-5,454.57,998.091)" spreadMethod="pad" id="linearGradient62"><stop style="stop-opacity:1;stop-color:#fcd0b4" offset="0" id="stop64"/><stop style="stop-opacity:1;stop-color:#f7918c" offset="1" id="stop66"/></linearGradient></defs><sodipodi:namedview pagecolor="#ffffff" bordercolor="#666666" borderopacity="1" objecttolerance="10" gridtolerance="10" guidetolerance="10" inkscape:pageopacity="0" inkscape:pageshadow="2" inkscape:window-width="1920" inkscape:window-height="1125" id="namedview4" showgrid="false" inkscape:zoom="0.97716411" inkscape:cx="586.74537" inkscape:cy="372.01425" inkscape:window-x="0" inkscape:window-y="0" inkscape:window-maximized="1" inkscape:current-layer="svg2" fit-margin-top="5" fit-margin-left="5" fit-margin-bottom="5" fit-margin-right="5"/><g id="g12" transform="matrix(0.47891913,0,0,-0.47891913,4.9811272,804.99695)"><path d="m 1167.97,19.4492 -10.71,146.3598 -860.44,0 -10.711,-146.3598 881.861,0" style="fill:#fbc8ad;fill-opacity:1;fill-rule:nonzero;stroke:none" id="path14" inkscape:connector-curvature="0"/><path d="m 300.582,181.359 -5,-50 117.914,-60.4098 13.75,110.4098 -126.664,0" style="fill:#e59686;fill-opacity:1;fill-rule:nonzero;stroke:none" id="path16" inkscape:connector-curvature="0"/><path d="m 1153.91,181.359 5,-50 -118.75,-60.4098 -12.91,110.4098 126.66,0" style="fill:#e59686;fill-opacity:1;fill-rule:nonzero;stroke:none" id="path18" inkscape:connector-curvature="0"/><path d="m 1036.68,19.4492 6.23,105.1528 4.5,15.328 c 99.13,12.05 151.38,46.89 151.38,46.89 0,0 -45.68,211.34 -60.29,264.961 -21.11,77.508 -190.254,145.231 -285.293,162.5 l -252.93,-0.109 C 505.121,596.84 336.656,529.129 315.582,451.781 300.973,398.16 255.293,186.82 255.293,186.82 c 0,0 52.25,-34.84 151.387,-46.89 l 3.742,-9.371 -6.926,-111.1098 633.184,0" style="fill:#4f4c4c;fill-opacity:1;fill-rule:nonzero;stroke:none" id="path20" inkscape:connector-curvature="0"/><path d="m 855.531,611.969 c 0,-25.18 -57.519,-45.578 -128.488,-45.578 -70.969,0 -128.488,20.398 -128.488,45.578 l 1.722,2.203 c 38.418,7.008 64.883,10.109 64.883,10.109 l 0.774,-0.742 1.726,24.492 118.762,0 1.582,-22.48 0.918,-1.27 c 0,0 26.191,-3.062 64.285,-10 l 2.324,-2.312" style="fill:#fbc8ad;fill-opacity:1;fill-rule:nonzero;stroke:none" id="path22" inkscape:connector-curvature="0"/><path d="m 657.035,642.41 141.875,2.078 0,-25.828 c 0,0 -20.019,-18.07 -86.25,-29.379 -76.875,-13.121 -112.5,23.328 -112.5,23.328 l 54.797,6.672 2.078,23.129" style="fill:#e59686;fill-opacity:1;fill-rule:nonzero;stroke:none" id="path24" inkscape:connector-curvature="0"/><path d="m 373.496,344.609 c 0,0 66.664,186.332 260,234.672" style="fill:none;stroke:#ffffff;stroke-width:10;stroke-linecap:butt;stroke-linejoin:miter;stroke-miterlimit:10;stroke-dasharray:none;stroke-opacity:1" id="path26" inkscape:connector-curvature="0"/><path d="m 1081.83,344.609 c 0,0 -66.67,186.332 -259.998,234.672" style="fill:none;stroke:#ffffff;stroke-width:10;stroke-linecap:butt;stroke-linejoin:miter;stroke-miterlimit:10;stroke-dasharray:none;stroke-opacity:1" id="path28" inkscape:connector-curvature="0"/><path d="m 327.66,1152.21 c 0,0 -29.164,116.66 -2.5,221.66 23.895,94.08 113.336,118.34 120,133.34 54.582,122.83 233.332,158.33 381.66,155 112.09,-2.52 105,-98.34 105,-98.34 70,-11.66 168.34,-81.66 197.1,-190 27.8,-104.71 -0.01,-221.66 -0.01,-221.66 l -5.41,-23.34 -780.004,-13.34 -15.836,36.68" style="fill:#a3a1a1;fill-opacity:1;fill-rule:nonzero;stroke:none" id="path30" inkscape:connector-curvature="0"/><path d="m 338.359,1342.97 c 27.586,88.9 105.75,124.15 129.707,137.57 54.579,122.84 233.329,158.33 381.664,155 32.383,-0.73 54.778,-9.27 70.313,-21.01 -12.754,23.45 -39.051,46.46 -93.223,47.68 -148.328,3.33 -327.078,-32.17 -381.66,-155 -6.664,-15 -96.105,-39.26 -120,-133.34 -26.664,-105 2.5,-221.66 2.5,-221.66 0,0 -21.41,87.3 10.699,190.76" style="fill:#dad9d9;fill-opacity:1;fill-rule:nonzero;stroke:none" id="path32" inkscape:connector-curvature="0"/><path d="m 355.16,1133.87 c 0,0 -14.422,30.2 -43.75,8.75 -51.25,-37.5 -75.836,-160.425 -26.25,-240.839 42.887,-69.551 78.75,-52.914 78.75,-52.914" style="fill:#fbc8ad;fill-opacity:1;fill-rule:nonzero;stroke:none" id="path34" inkscape:connector-curvature="0"/><path d="m 361.402,1017.19 c 8.075,-39.686 23.133,-89.842 2.52,-98.319 -9.328,-3.828 -40,-8.75 -60,65 -10.586,39.039 -12.609,99.269 8.008,107.749 20.633,8.47 41.394,-34.76 49.472,-74.43" style="fill:#e59686;fill-opacity:1;fill-rule:nonzero;stroke:none" id="path36" inkscape:connector-curvature="0"/><path d="m 1098.92,1133.87 c 0,0 14.42,30.2 43.75,8.75 51.25,-37.5 75.83,-160.425 26.25,-240.839 -42.88,-69.551 -78.75,-52.914 -78.75,-52.914" style="fill:#fbc8ad;fill-opacity:1;fill-rule:nonzero;stroke:none" id="path38" inkscape:connector-curvature="0"/><path d="m 1092.68,1017.19 c -8.08,-39.686 -23.13,-89.842 -2.52,-98.319 9.33,-3.828 40,-8.75 60,65 10.59,39.039 12.61,99.269 -8.01,107.749 -20.63,8.47 -41.39,-34.76 -49.47,-74.43" style="fill:#e59686;fill-opacity:1;fill-rule:nonzero;stroke:none" id="path40" inkscape:connector-curvature="0"/><path d="M 1094.14,1137.6 C 1106.3,991.156 1103.7,821.207 1054.3,762.203 991.488,687.191 904.496,640.969 727.043,640.969 c -177.457,0 -264.453,46.222 -327.258,121.234 -49.859,59.559 -52.047,232.168 -39.488,379.527 l 0.426,2.2 c 17.351,148.78 84.066,161.42 101.101,202.85 18.332,44.58 -9.91,76.44 8.336,101.67 33.75,46.67 71.664,40 71.664,40 115,-41.67 287.086,-17.08 350.836,32.92 0,0 43.75,0 91.262,-72.92 16.998,-26.09 -8.762,-61.24 8.328,-101.67 16.04,-37.92 83.76,-58.22 100.33,-211.96 l 1.56,2.78" style="fill:#fbc8ad;fill-opacity:1;fill-rule:nonzero;stroke:none" id="path42" inkscape:connector-curvature="0"/><path d="m 532.41,1036.11 c 0,-19.41 -30.097,-35.14 -67.234,-35.14 -37.129,0 -67.238,15.73 -67.238,35.14 0,19.41 30.109,35.15 67.238,35.15 37.137,0 67.234,-15.74 67.234,-35.15" style="fill:#f6807f;fill-opacity:1;fill-rule:nonzero;stroke:none" id="path44" inkscape:connector-curvature="0"/><path d="m 1065.75,1037.78 c 0,-19.41 -30.1,-35.15 -67.238,-35.15 -37.129,0 -67.239,15.74 -67.239,35.15 0,19.41 30.11,35.15 67.239,35.15 37.138,0 67.238,-15.74 67.238,-35.15" style="fill:#f6807f;fill-opacity:1;fill-rule:nonzero;stroke:none" id="path46" inkscape:connector-curvature="0"/><path d="m 860.336,923.031 c 0,0 6.848,-187.343 -135.031,-187.343 -141.883,0 -133.453,187.343 -133.453,187.343 0,0 56.191,-14.5 133.453,-14.5 77.258,0 135.031,14.5 135.031,14.5" style="fill:#ed5f70;fill-opacity:1;fill-rule:nonzero;stroke:none" id="path48" inkscape:connector-curvature="0"/><path d="m 726.824,880.066 c 52.321,0 97.711,-18.66 120.692,-46.046 14.375,45.23 12.82,89.011 12.82,89.011 0,0 -57.773,-14.5 -135.031,-14.5 -77.262,0 -133.453,14.5 -133.453,14.5 0,0 -1.989,-45.125 12.714,-91.074 22.391,28.488 68.661,48.109 122.258,48.109" style="fill:#cf484f;fill-opacity:1;fill-rule:nonzero;stroke:none" id="path50" inkscape:connector-curvature="0"/><path d="m 493.496,1216.78 c 0,0 -3.328,45.01 10,53.34 13.328,8.33 126.664,23.33 173.328,13.33 0,0 -154.992,-41.67 -183.328,-66.67" style="fill:#918f90;fill-opacity:1;fill-rule:nonzero;stroke:none" id="path52" inkscape:connector-curvature="0"/><path d="m 954.32,1216.78 c 0,0 3.34,45.01 -10,53.34 -13.32,8.33 -126.66,23.33 -173.32,13.33 0,0 154.992,-41.67 183.32,-66.67" style="fill:#918f90;fill-opacity:1;fill-rule:nonzero;stroke:none" id="path54" inkscape:connector-curvature="0"/><path d="m 545.16,953.453 c 7.5,0 17.375,-19.14 1.25,-23.75 -26.25,-7.5 -50.57,-36.66 -61.25,-78.336 -8.328,-32.504 -27.5,-12.914 -26.25,4.586 1.25,17.5 3.75,52.5 22.5,68.75 18.75,16.25 41.25,28.75 63.75,28.75" style="fill:#e59686;fill-opacity:1;fill-rule:nonzero;stroke:none" id="path56" inkscape:connector-curvature="0"/><path d="m 893.91,953.453 c -7.5,0 -17.371,-19.14 -1.25,-23.75 26.25,-7.5 50.567,-36.66 61.25,-78.336 8.332,-32.504 27.5,-12.914 26.25,4.586 -1.25,17.5 -3.75,52.5 -22.5,68.75 -18.75,16.25 -41.25,28.75 -63.75,28.75" style="fill:#e59686;fill-opacity:1;fill-rule:nonzero;stroke:none" id="path58" inkscape:connector-curvature="0"/><path d="m 935.277,1561.33 c 0,0 68.203,-16.45 112.173,-57.89 62.95,-59.34 75.25,-116.51 75.25,-116.51 0,0 -60.06,89.73 -114.34,118.68 -50.837,27.12 -73.083,55.72 -73.083,55.72" style="fill:#dad9d9;fill-opacity:1;fill-rule:nonzero;stroke:none" id="path60-3" inkscape:connector-curvature="0"/><path d="m 1142.79,1301.64 c 0,0 -21.34,-73.43 -67.35,-76.72 l 18.7,-87.32 34.77,14.61 c 0,0 18.11,108.63 13.88,149.43" style="fill:#727070;fill-opacity:1;fill-rule:nonzero;stroke:none" id="path62" inkscape:connector-curvature="0"/><path d="m 312.922,1301.64 c 0,0 15.402,-90.96 60.316,-73.43 L 359,1139.48 l -33.371,12.73 c 0,0 -16.582,108.63 -12.707,149.43" style="fill:#727070;fill-opacity:1;fill-rule:nonzero;stroke:none" id="path64" inkscape:connector-curvature="0"/><path d="m 780.434,714.945 c 5.175,-4.812 -15.887,-29.609 -51.95,-29.609 -36.058,0 -57.113,24.797 -51.937,29.609 4.562,5.43 26.32,-4.687 51.937,-4.121 25.641,-0.566 47.379,9.551 51.95,4.121" style="fill:#e59686;fill-opacity:1;fill-rule:nonzero;stroke:none" id="path66" inkscape:connector-curvature="0"/><path d="m 892.66,1521.37 c 0,0 10.059,62.24 -91.269,37.98 -62.575,-14.99 -80.911,-92.5 -254.981,-66.32 0,0 21.25,-22.5 108.75,-25 87.5,-2.5 161.66,18.62 180,23.75 31.25,8.75 57.5,29.59 57.5,29.59" style="fill:#727070;fill-opacity:1;fill-rule:nonzero;stroke:none" id="path68" inkscape:connector-curvature="0"/><path d="M 655.289,623.012 C 601.172,615.629 342.055,548.961 315.582,451.781 300.973,398.16 255.293,186.82 255.293,186.82 c 0,0 46.98,-34.238 146.117,-46.289" style="fill:none;stroke:#231f20;stroke-width:16;stroke-linecap:round;stroke-linejoin:round;stroke-miterlimit:10;stroke-dasharray:none;stroke-opacity:1" id="path70" inkscape:connector-curvature="0"/><path d="M 373.188,339.281 414.543,38.1016" style="fill:none;stroke:#231f20;stroke-width:16;stroke-linecap:round;stroke-linejoin:round;stroke-miterlimit:10;stroke-dasharray:none;stroke-opacity:1" id="path72" inkscape:connector-curvature="0"/><path d="M 296.82,165.809 286.109,24.2813" style="fill:none;stroke:#231f20;stroke-width:16;stroke-linecap:round;stroke-linejoin:round;stroke-miterlimit:10;stroke-dasharray:none;stroke-opacity:1" id="path74" inkscape:connector-curvature="0"/><path d="m 800.238,622.801 c 57.11,-7.871 312.012,-74.672 338.262,-171.02 14.61,-53.621 60.29,-264.961 60.29,-264.961 0,0 -45.74,-32.988 -144.88,-45.039" style="fill:none;stroke:#231f20;stroke-width:16;stroke-linecap:round;stroke-linejoin:round;stroke-miterlimit:10;stroke-dasharray:none;stroke-opacity:1" id="path76" inkscape:connector-curvature="0"/><path d="M 1080.89,339.281 1036.68,24.2813" style="fill:none;stroke:#231f20;stroke-width:16;stroke-linecap:round;stroke-linejoin:round;stroke-miterlimit:10;stroke-dasharray:none;stroke-opacity:1" id="path78" inkscape:connector-curvature="0"/><path d="M 1157.26,165.809 1167.97,24.2813" style="fill:none;stroke:#231f20;stroke-width:16;stroke-linecap:round;stroke-linejoin:round;stroke-miterlimit:10;stroke-dasharray:none;stroke-opacity:1" id="path80" inkscape:connector-curvature="0"/><path d="M 656.809,642.059 652.66,605.531" style="fill:none;stroke:#231f20;stroke-width:16;stroke-linecap:round;stroke-linejoin:round;stroke-miterlimit:10;stroke-dasharray:none;stroke-opacity:1" id="path82" inkscape:connector-curvature="0"/><path d="m 803.285,603.66 -5.82,37.711" style="fill:none;stroke:#231f20;stroke-width:16;stroke-linecap:round;stroke-linejoin:round;stroke-miterlimit:10;stroke-dasharray:none;stroke-opacity:1" id="path84" inkscape:connector-curvature="0"/><path d="m 855.531,608.711 c 0,-25.18 -57.519,-45.582 -128.488,-45.582 -70.969,0 -128.488,20.402 -128.488,45.582" style="fill:none;stroke:#231f20;stroke-width:16;stroke-linecap:round;stroke-linejoin:round;stroke-miterlimit:10;stroke-dasharray:none;stroke-opacity:1" id="path86" inkscape:connector-curvature="0"/><path d="m 355.16,1133.87 c 0,0 -14.422,30.2 -43.75,8.75 -51.25,-37.5 -75.836,-160.425 -26.25,-240.839 42.887,-69.551 78.75,-52.914 78.75,-52.914" style="fill:none;stroke:#231f20;stroke-width:16;stroke-linecap:round;stroke-linejoin:round;stroke-miterlimit:10;stroke-dasharray:none;stroke-opacity:1" id="path88" inkscape:connector-curvature="0"/><path d="m 312.035,1093.87 c 0,0 21.875,26.25 41.875,-75" style="fill:none;stroke:#231f20;stroke-width:14;stroke-linecap:round;stroke-linejoin:round;stroke-miterlimit:10;stroke-dasharray:none;stroke-opacity:1" id="path90" inkscape:connector-curvature="0"/><path d="m 1098.92,1133.87 c 0,0 14.42,30.2 43.75,8.75 51.25,-37.5 75.83,-160.425 26.25,-240.839 -42.88,-69.551 -78.75,-52.914 -78.75,-52.914" style="fill:none;stroke:#231f20;stroke-width:16;stroke-linecap:round;stroke-linejoin:round;stroke-miterlimit:10;stroke-dasharray:none;stroke-opacity:1" id="path92" inkscape:connector-curvature="0"/><path d="m 1142.05,1093.87 c 0,0 -21.88,26.25 -41.88,-75" style="fill:none;stroke:#231f20;stroke-width:14;stroke-linecap:round;stroke-linejoin:round;stroke-miterlimit:10;stroke-dasharray:none;stroke-opacity:1" id="path94" inkscape:connector-curvature="0"/><path d="m 493.496,1216.78 c 0,0 -3.328,45.01 10,53.34 13.328,8.33 126.664,23.33 173.328,13.33 0,0 -154.992,-41.67 -183.328,-66.67 z" style="fill:none;stroke:#231f20;stroke-width:12;stroke-linecap:round;stroke-linejoin:round;stroke-miterlimit:10;stroke-dasharray:none;stroke-opacity:1" id="path96" inkscape:connector-curvature="0"/><path d="m 658.496,1135.12 c 0,0 -20,45 -55,45 -35,0 -68.336,-91.67 -68.336,-91.67" style="fill:none;stroke:#231f20;stroke-width:20;stroke-linecap:round;stroke-linejoin:round;stroke-miterlimit:10;stroke-dasharray:none;stroke-opacity:1" id="path98" inkscape:connector-curvature="0"/><path d="m 860.336,923.031 c 0,0 6.848,-187.343 -135.031,-187.343 -141.883,0 -133.453,187.343 -133.453,187.343 0,0 56.191,-14.5 133.453,-14.5 77.258,0 135.031,14.5 135.031,14.5 z" style="fill:none;stroke:#231f20;stroke-width:16;stroke-linecap:round;stroke-linejoin:round;stroke-miterlimit:10;stroke-dasharray:none;stroke-opacity:1" id="path100" inkscape:connector-curvature="0"/><path d="m 672.113,1010.27 c 0,0 22.532,-22.551 53.496,-22.551 l 1.692,0 c 30.976,0 53.496,22.551 53.496,22.551" style="fill:#e59686;fill-opacity:1;fill-rule:nonzero;stroke:none" id="path102" inkscape:connector-curvature="0"/><path d="m 672.113,1010.27 c 0,0 22.532,-22.551 53.496,-22.551 l 1.692,0 c 30.976,0 53.496,22.551 53.496,22.551" style="fill:none;stroke:#231f20;stroke-width:20;stroke-linecap:round;stroke-linejoin:round;stroke-miterlimit:10;stroke-dasharray:none;stroke-opacity:1" id="path104" inkscape:connector-curvature="0"/><path d="m 954.32,1216.78 c 0,0 3.34,45.01 -10,53.34 -13.32,8.33 -126.66,23.33 -173.32,13.33 0,0 154.992,-41.67 183.32,-66.67 z" style="fill:none;stroke:#231f20;stroke-width:12;stroke-linecap:round;stroke-linejoin:round;stroke-miterlimit:10;stroke-dasharray:none;stroke-opacity:1" id="path106" inkscape:connector-curvature="0"/><path d="m 789.32,1135.12 c 0,0 20,45 55,45 35,0 68.34,-91.67 68.34,-91.67" style="fill:none;stroke:#231f20;stroke-width:20;stroke-linecap:round;stroke-linejoin:round;stroke-miterlimit:10;stroke-dasharray:none;stroke-opacity:1" id="path108" inkscape:connector-curvature="0"/><path d="m 1128.91,1152.21 c 0,0 27.81,116.95 0.01,221.66 -28.76,108.34 -127.1,178.34 -197.1,190 0,0 7.09,95.82 -105,98.34 -148.328,3.33 -327.078,-32.17 -381.66,-155 -6.664,-15 -96.105,-39.26 -120,-133.34 -26.664,-105 2.5,-221.66 2.5,-221.66" style="fill:none;stroke:#231f20;stroke-width:16;stroke-linecap:round;stroke-linejoin:round;stroke-miterlimit:10;stroke-dasharray:none;stroke-opacity:1" id="path110" inkscape:connector-curvature="0"/><path d="M 1094.14,1137.6 C 1106.3,991.156 1103.7,821.207 1054.3,762.203 991.488,687.191 904.496,640.969 727.043,640.969 c -177.457,0 -264.453,46.222 -327.258,121.234 -49.859,59.559 -52.047,232.168 -39.488,379.527 l 0.426,2.2 c 17.351,148.78 84.066,161.42 101.101,202.85 18.332,44.58 -9.91,76.44 8.336,101.67 33.75,46.67 71.664,40 71.664,40 115,-41.67 287.086,-17.08 350.836,32.92 0,0 43.75,0 91.262,-72.92 16.998,-26.09 -8.762,-61.24 8.328,-101.67 16.04,-37.92 83.76,-58.22 100.33,-211.96 l 1.56,2.78 z" style="fill:none;stroke:#231f20;stroke-width:16;stroke-linecap:round;stroke-linejoin:round;stroke-miterlimit:10;stroke-dasharray:none;stroke-opacity:1" id="path112" inkscape:connector-curvature="0"/><path d="m 542.66,954.703 c 0,0 -90,-7.5 -82.5,-107.5" style="fill:none;stroke:#231f20;stroke-width:16;stroke-linecap:round;stroke-linejoin:round;stroke-miterlimit:10;stroke-dasharray:none;stroke-opacity:1" id="path114" inkscape:connector-curvature="0"/><path d="m 897.66,954.703 c 0,0 90,-7.5 82.5,-107.5" style="fill:none;stroke:#231f20;stroke-width:16;stroke-linecap:round;stroke-linejoin:round;stroke-miterlimit:10;stroke-dasharray:none;stroke-opacity:1" id="path116" inkscape:connector-curvature="0"/><path d="m 498.496,1127.21 -53.336,11.66" style="fill:none;stroke:#231f20;stroke-width:14;stroke-linecap:round;stroke-linejoin:round;stroke-miterlimit:10;stroke-dasharray:none;stroke-opacity:1" id="path118" inkscape:connector-curvature="0"/><path d="m 500.16,1102.21 -53.336,-11.67" style="fill:none;stroke:#231f20;stroke-width:14;stroke-linecap:round;stroke-linejoin:round;stroke-miterlimit:10;stroke-dasharray:none;stroke-opacity:1" id="path120" inkscape:connector-curvature="0"/><path d="m 948.5,1127.21 53.33,11.66" style="fill:none;stroke:#231f20;stroke-width:14;stroke-linecap:round;stroke-linejoin:round;stroke-miterlimit:10;stroke-dasharray:none;stroke-opacity:1" id="path122" inkscape:connector-curvature="0"/><path d="m 946.832,1102.21 53.328,-11.67" style="fill:none;stroke:#231f20;stroke-width:14;stroke-linecap:round;stroke-linejoin:round;stroke-miterlimit:10;stroke-dasharray:none;stroke-opacity:1" id="path124" inkscape:connector-curvature="0"/><path d="m 351.91,920.176 c 0,0 -9.465,14.867 -27.039,16.222 -17.57,1.352 -24.336,40.551 -21.629,58.125" style="fill:none;stroke:#231f20;stroke-width:14;stroke-linecap:round;stroke-linejoin:round;stroke-miterlimit:10;stroke-dasharray:none;stroke-opacity:1" id="path126" inkscape:connector-curvature="0"/><path d="m 1100.78,920.176 c 0,0 9.46,14.867 27.04,16.222 17.57,1.352 24.33,40.551 21.62,58.125" style="fill:none;stroke:#231f20;stroke-width:14;stroke-linecap:round;stroke-linejoin:round;stroke-miterlimit:10;stroke-dasharray:none;stroke-opacity:1" id="path128" inkscape:connector-curvature="0"/><path d="m 209.164,667.27 c -8.152,-13.141 -25.414,-17.18 -38.562,-9.051 -13.129,8.152 -17.184,25.41 -9.043,38.562 8.168,13.137 70.019,59.797 70.019,59.797 0,0 -14.277,-76.172 -22.414,-89.308" style="fill:#b5e7fa;fill-opacity:1;fill-rule:nonzero;stroke:none" id="path130" inkscape:connector-curvature="0"/><path d="m 209.164,667.27 c -8.152,-13.141 -25.414,-17.18 -38.562,-9.051 -13.129,8.152 -17.184,25.41 -9.043,38.562 8.168,13.137 70.019,59.797 70.019,59.797 0,0 -14.277,-76.172 -22.414,-89.308 z" style="fill:none;stroke:#51ade5;stroke-width:16;stroke-linecap:round;stroke-linejoin:round;stroke-miterlimit:10;stroke-dasharray:none;stroke-opacity:1" id="path132" inkscape:connector-curvature="0"/><path d="m 50.8242,878.023 c -13.125,-8.183 -30.3906,-4.16 -38.5898,8.934 -8.16799,13.125 -4.16799,30.391 8.9531,38.586 13.1289,8.172 89.2425,22.656 89.2425,22.656 0,0 -46.4964,-61.992 -59.6058,-70.176" style="fill:#b5e7fa;fill-opacity:1;fill-rule:nonzero;stroke:none" id="path134" inkscape:connector-curvature="0"/><path d="m 50.8242,878.023 c -13.125,-8.183 -30.3906,-4.16 -38.5898,8.934 -8.16799,13.125 -4.16799,30.391 8.9531,38.586 13.1289,8.172 89.2425,22.656 89.2425,22.656 0,0 -46.4964,-61.992 -59.6058,-70.176 z" style="fill:none;stroke:#51ade5;stroke-width:16;stroke-linecap:round;stroke-linejoin:round;stroke-miterlimit:10;stroke-dasharray:none;stroke-opacity:1" id="path136" inkscape:connector-curvature="0"/><path d="m 1245.43,667.27 c 8.16,-13.141 25.41,-17.18 38.57,-9.051 13.13,8.152 17.18,25.41 9.04,38.562 -8.17,13.137 -70.02,59.797 -70.02,59.797 0,0 14.28,-76.172 22.41,-89.308" style="fill:#b5e7fa;fill-opacity:1;fill-rule:nonzero;stroke:none" id="path138" inkscape:connector-curvature="0"/><path d="m 1245.43,667.27 c 8.16,-13.141 25.41,-17.18 38.57,-9.051 13.13,8.152 17.18,25.41 9.04,38.562 -8.17,13.137 -70.02,59.797 -70.02,59.797 0,0 14.28,-76.172 22.41,-89.308 z" style="fill:none;stroke:#51ade5;stroke-width:16;stroke-linecap:round;stroke-linejoin:round;stroke-miterlimit:10;stroke-dasharray:none;stroke-opacity:1" id="path140" inkscape:connector-curvature="0"/><path d="m 1403.77,878.023 c 13.13,-8.183 30.4,-4.16 38.6,8.934 8.16,13.125 4.16,30.391 -8.96,38.586 -13.13,8.172 -89.24,22.656 -89.24,22.656 0,0 46.5,-61.992 59.6,-70.176" style="fill:#b5e7fa;fill-opacity:1;fill-rule:nonzero;stroke:none" id="path142" inkscape:connector-curvature="0"/><path d="m 1403.77,878.023 c 13.13,-8.183 30.4,-4.16 38.6,8.934 8.16,13.125 4.16,30.391 -8.96,38.586 -13.13,8.172 -89.24,22.656 -89.24,22.656 0,0 46.5,-61.992 59.6,-70.176 z" style="fill:none;stroke:#51ade5;stroke-width:16;stroke-linecap:round;stroke-linejoin:round;stroke-miterlimit:10;stroke-dasharray:none;stroke-opacity:1" id="path144" inkscape:connector-curvature="0"/><path d="m 201.43,461.332 c 0,0 -6.66,39.406 20.918,46.816 31.086,8.391 69.957,4.434 124.531,4.872 26.594,0.218 28.976,-48.782 -25.594,-66.899" style="fill:#fbc8ad;fill-opacity:1;fill-rule:nonzero;stroke:none" id="path146" inkscape:connector-curvature="0"/><path d="m 201.43,461.332 c 0,0 -6.66,39.406 20.918,46.816 31.086,8.391 69.957,4.434 124.531,4.872 26.594,0.218 28.976,-48.782 -25.594,-66.899" style="fill:none;stroke:#231f20;stroke-width:16;stroke-linecap:round;stroke-linejoin:round;stroke-miterlimit:10;stroke-dasharray:none;stroke-opacity:1" id="path148" inkscape:connector-curvature="0"/><path d="m 228.676,292.5 c 0,0 6.484,-109.891 14.82,-203.2187 5.082,-56.9102 54.234,-88.17974 115,-80.00005 C 445.16,20.9492 450.16,87.6094 426.824,159.281 402.016,235.48 388.145,281.629 388.145,281.629" style="fill:#fbc8ad;fill-opacity:1;fill-rule:nonzero;stroke:none" id="path150" inkscape:connector-curvature="0"/><path d="m 228.676,292.5 c 0,0 6.484,-109.891 14.82,-203.2187 5.082,-56.9102 54.234,-88.17974 115,-80.00005 C 445.16,20.9492 450.16,87.6094 426.824,159.281 402.016,235.48 388.145,281.629 388.145,281.629" style="fill:none;stroke:#231f20;stroke-width:16;stroke-linecap:round;stroke-linejoin:round;stroke-miterlimit:10;stroke-dasharray:none;stroke-opacity:1" id="path152" inkscape:connector-curvature="0"/><path d="m 496.793,468.582 c -7.727,1.02 -17.273,-3.641 -21.211,-10.363 l -12.363,-21.117 c -3.942,-6.711 -13.489,-11.383 -21.215,-10.364 l -284.68,37.711 c -7.73,1.02 -14.711,8.211 -15.523,15.973 l -2.246,21.59 c -0.809,7.75 -7.793,14.937 -15.524,15.949 l -70.3708,9.328 C 45.9336,528.309 38.7695,522.828 37.75,515.09 L 17.0352,358.801 C 16.0156,351.07 21.5,343.91 29.2266,342.891 l 70.3711,-9.321 c 7.7303,-1.031 16.3433,4.09 19.1403,11.371 l 7.805,20.27 c 2.797,7.277 11.41,12.391 19.141,11.367 l 284.675,-37.707 c 7.731,-1.019 15.735,-8.019 17.786,-15.531 l 6.433,-23.629 c 2.055,-7.52 10.055,-14.512 17.785,-15.539 l 63.606,-8.41 c 7.726,-1.032 14.89,4.449 15.91,12.179 l 20.703,156.289 c 1.023,7.739 -4.461,14.899 -12.187,15.918 l -63.602,8.434" style="fill:#5fb26f;fill-opacity:1;fill-rule:nonzero;stroke:none" id="path154" inkscape:connector-curvature="0"/><path d="m 116.367,411.441 -81.7498,10.7 13.1953,102.507 81.7505,-10.699 -13.196,-102.508" style="fill:#7dd089;fill-opacity:1;fill-rule:nonzero;stroke:none" id="path156" inkscape:connector-curvature="0"/><path d="m 557.438,353.82 -81.75,10.711 13.195,102.508 81.746,-10.707 -13.191,-102.512" style="fill:#7dd089;fill-opacity:1;fill-rule:nonzero;stroke:none" id="path158" inkscape:connector-curvature="0"/><path d="m 496.793,468.582 c -7.727,1.02 -17.273,-3.641 -21.211,-10.363 l -12.363,-21.117 c -3.942,-6.711 -13.489,-11.383 -21.215,-10.364 l -284.68,37.711 c -7.73,1.02 -14.711,8.211 -15.523,15.973 l -2.246,21.59 c -0.809,7.75 -7.793,14.937 -15.524,15.949 l -70.3708,9.328 C 45.9336,528.309 38.7695,522.828 37.75,515.09 L 17.0352,358.801 C 16.0156,351.07 21.5,343.91 29.2266,342.891 l 70.3711,-9.321 c 7.7303,-1.031 16.3433,4.09 19.1403,11.371 l 7.805,20.27 c 2.797,7.277 11.41,12.391 19.141,11.367 l 284.675,-37.707 c 7.731,-1.019 15.735,-8.019 17.786,-15.531 l 6.433,-23.629 c 2.055,-7.52 10.055,-14.512 17.785,-15.539 l 63.606,-8.41 c 7.726,-1.032 14.89,4.449 15.91,12.179 l 20.703,156.289 c 1.023,7.739 -4.461,14.899 -12.187,15.918 l -63.602,8.434 z" style="fill:none;stroke:#231f20;stroke-width:16;stroke-linecap:round;stroke-linejoin:round;stroke-miterlimit:10;stroke-dasharray:none;stroke-opacity:1" id="path160" inkscape:connector-curvature="0"/><path d="m 423.188,315.84 c 8.613,14.23 4.101,97.711 -12.723,126.441 -13.918,23.821 -43.781,10.707 -43.781,10.707 -17.442,23.942 -54.434,4.282 -54.434,4.282 -29.48,29.429 -59.988,6.949 -59.988,6.949 -11.282,26.051 -42.578,24.332 -55.489,2.453 -10.656,-18.082 -33.125,-90.871 -27.793,-126.973 2.071,-14.027 20.575,-59.699 116.915,-66.57 96.328,-6.879 128.484,28.172 137.293,42.711" style="fill:#fbc8a6;fill-opacity:1;fill-rule:nonzero;stroke:none" id="path162" inkscape:connector-curvature="0"/><path d="m 423.188,315.84 c 8.613,14.23 4.101,97.711 -12.723,126.441 -13.918,23.821 -43.781,10.707 -43.781,10.707 -17.442,23.942 -54.434,4.282 -54.434,4.282 -29.48,29.429 -59.988,6.949 -59.988,6.949 -11.282,26.051 -42.578,24.332 -55.489,2.453 -10.656,-18.082 -33.125,-90.871 -27.793,-126.973 2.071,-14.027 20.575,-59.699 116.915,-66.57 96.328,-6.879 128.484,28.172 137.293,42.711 z" style="fill:none;stroke:#231f20;stroke-width:16;stroke-linecap:round;stroke-linejoin:round;stroke-miterlimit:10;stroke-dasharray:none;stroke-opacity:1" id="path164" inkscape:connector-curvature="0"/><path d="M 252.262,464.219 224.059,340.262" style="fill:none;stroke:#231f20;stroke-width:16;stroke-linecap:round;stroke-linejoin:round;stroke-miterlimit:10;stroke-dasharray:none;stroke-opacity:1" id="path166" inkscape:connector-curvature="0"/><path d="M 312.25,457.27 294.586,338.789" style="fill:none;stroke:#231f20;stroke-width:16;stroke-linecap:round;stroke-linejoin:round;stroke-miterlimit:10;stroke-dasharray:none;stroke-opacity:1" id="path168" inkscape:connector-curvature="0"/><path d="m 366.684,452.988 -4.512,-123.16" style="fill:none;stroke:#231f20;stroke-width:16;stroke-linecap:round;stroke-linejoin:round;stroke-miterlimit:10;stroke-dasharray:none;stroke-opacity:1" id="path170" inkscape:connector-curvature="0"/></g></svg>