<?xml version="1.0" encoding="UTF-8" standalone="no"?>
<!-- Created with Inkscape (http://www.inkscape.org/) -->
<svg xmlns:dc="http://purl.org/dc/elements/1.1/" xmlns:cc="http://creativecommons.org/ns#" xmlns:rdf="http://www.w3.org/1999/02/22-rdf-syntax-ns#" xmlns:svg="http://www.w3.org/2000/svg" xmlns="http://www.w3.org/2000/svg" xmlns:sodipodi="http://sodipodi.sourceforge.net/DTD/sodipodi-0.dtd" xmlns:inkscape="http://www.inkscape.org/namespaces/inkscape" width="159.12073mm" height="119.6824mm" viewBox="0 0 159.12073 119.6824" version="1.1" id="svg8" inkscape:version="0.91 r13725" sodipodi:docname="emoticon-doodles-colour.svg">
  <title id="title828">Emoticon Doodles</title>
  <defs id="defs2"/>
  <sodipodi:namedview id="base" pagecolor="#ffffff" bordercolor="#666666" borderopacity="1.0" inkscape:pageopacity="0.0" inkscape:pageshadow="2" inkscape:zoom="1.2799227" inkscape:cx="320.53797" inkscape:cy="207.92086" inkscape:document-units="mm" inkscape:current-layer="layer1" showgrid="false" fit-margin-top="0" fit-margin-left="0" fit-margin-right="0" fit-margin-bottom="0" inkscape:window-width="1916" inkscape:window-height="1035" inkscape:window-x="9" inkscape:window-y="4" inkscape:window-maximized="0"/>
  <metadata id="metadata5">
    <rdf:RDF>
      <cc:Work rdf:about="">
        <dc:format>image/svg+xml</dc:format>
        <dc:type rdf:resource="http://purl.org/dc/dcmitype/StillImage"/>
        <dc:title>Emoticon Doodles</dc:title>
        <cc:license rdf:resource="http://creativecommons.org/publicdomain/zero/1.0/"/>
        <dc:description>remix by j4p4n</dc:description>
      </cc:Work>
      <cc:License rdf:about="http://creativecommons.org/publicdomain/zero/1.0/">
        <cc:permits rdf:resource="http://creativecommons.org/ns#Reproduction"/>
        <cc:permits rdf:resource="http://creativecommons.org/ns#Distribution"/>
        <cc:permits rdf:resource="http://creativecommons.org/ns#DerivativeWorks"/>
      </cc:License>
    </rdf:RDF>
  </metadata>
  <g inkscape:label="Layer 1" inkscape:groupmode="layer" id="layer1" transform="translate(380.9345,-0.94333157)">
    <g id="g138743">
      <ellipse ry="17.295309" rx="17.149967" cy="103.03975" cx="-362.76715" id="ellipse138605" style="opacity:1;fill:#a4e335;fill-opacity:1;fill-rule:evenodd;stroke:none;stroke-width:2;stroke-linecap:round;stroke-linejoin:round;stroke-miterlimit:4;stroke-dasharray:none;stroke-opacity:1"/>
      <path inkscape:connector-curvature="0" id="path138618" d="m -358.84301,107.83593 1.16271,3.05211 1.45338,0.87203 1.45339,-1.16271 -0.29068,-2.90677 z" style="fill:#d67874;fill-opacity:1;fill-rule:evenodd;stroke:none;stroke-width:0.28222221px;stroke-linecap:butt;stroke-linejoin:miter;stroke-opacity:1"/>
      <path sodipodi:nodetypes="ssssssscsssssscsssssccsssscccccccsssccccsccccccccscccsssssssscsccsscccccccscsscsscscccscscscscc" inkscape:connector-curvature="0" id="path826" d="m -364.94727,120.53428 c -4.96789,-0.51929 -10.69513,-3.87989 -13.31114,-7.81064 -1.07832,-1.62024 -1.97236,-3.70442 -2.36936,-5.5234 -0.35611,-1.63167 -0.40931,-4.25826 -0.12191,-6.01956 0.50037,-3.066522 1.82382,-6.158133 3.73976,-8.736163 0.83058,-1.117614 2.64499,-2.930932 3.78298,-3.780728 2.42587,-1.811504 5.5591,-3.059613 8.71023,-3.469681 1.46435,-0.190563 2.01038,-0.173221 2.30317,0.07315 0.17803,0.149801 0.38006,0.214301 0.79948,0.255229 3.10723,0.303205 5.2299,0.88171 7.46305,2.03396 1.36314,0.703354 2.11447,1.229806 3.33664,2.337971 3.33118,3.020462 5.21054,6.339919 5.92441,10.464122 1.38648,8.01003 -3.00827,15.92843 -10.4845,18.89086 -2.70855,1.07325 -6.73415,1.60252 -9.77281,1.28488 z m 4.26024,-1.32363 c 2.86471,-0.29389 5.71827,-1.25345 7.7922,-2.62026 3.31034,-2.18166 5.74934,-5.6924 6.63896,-9.55623 0.43879,-1.90582 0.45493,-5.28067 0.0343,-7.17048 -1.04672,-4.702529 -4.52663,-9.114486 -8.82853,-11.193136 -2.88993,-1.396395 -6.46385,-1.91242 -9.98902,-1.442269 -0.88783,0.118408 -1.20696,0.07326 -1.28805,-0.182229 -0.049,-0.154287 -0.0993,-0.169696 -0.41377,-0.126591 -0.51963,0.07122 -2.09616,0.664442 -3.13186,1.178455 -5.1136,2.537883 -8.77678,7.726761 -9.62298,13.63092 -0.27841,1.94253 -0.24416,3.47578 0.11619,5.20241 0.99419,4.76367 4.61005,8.8564 9.71352,10.99456 2.97901,1.24809 5.63405,1.62801 8.97906,1.28485 z m 3.45665,-7.33442 c -0.77845,-0.38791 -1.43632,-1.40093 -1.71069,-2.6342 l -0.135,-0.60676 -6.27659,-0.0496 c -4.44761,-0.0352 -6.35562,-0.0777 -6.54776,-0.1461 -0.29874,-0.10631 -0.43345,-0.29348 -0.43345,-0.60228 0,-0.44384 -0.20573,-0.42987 6.37503,-0.4327 6.94972,-0.003 8.29302,-0.0771 12.09852,-0.66732 1.56504,-0.24273 2.10636,-0.27148 2.28714,-0.12144 0.13419,0.11136 0.17538,0.63159 0.0639,0.80692 -0.0987,0.15517 -0.46956,0.26724 -1.33208,0.40248 -1.2028,0.18861 -1.25515,0.21909 -1.25692,0.73186 -0.003,0.92389 -0.1506,1.85428 -0.35811,2.26039 -0.56935,1.11427 -1.75472,1.5667 -2.77398,1.05878 z m 1.23834,-1.1591 c 0.47661,-0.24647 0.7985,-1.45367 0.57123,-2.14233 l -0.1014,-0.30722 -0.88305,0.0568 c -0.48567,0.0312 -1.01852,0.0801 -1.18411,0.10863 l -0.30106,0.0519 0.14318,0.54835 c 0.38746,1.48388 1.00199,2.07346 1.75521,1.68395 z m -16.15759,-7.37653 c -0.41534,-0.29091 -0.22936,-0.65306 1.24555,-2.42541 0.35343,-0.42471 0.6426,-0.80385 0.6426,-0.84254 0,-0.0387 -0.35013,-0.371529 -0.77807,-0.739667 -1.07679,-0.926328 -1.32067,-1.215874 -1.25476,-1.489729 0.104,-0.432099 0.54091,-0.550633 0.99929,-0.271101 0.13825,0.08431 0.6016,0.457196 1.02967,0.828649 0.42808,0.371456 0.80401,0.67537 0.83542,0.67537 0.0314,0 0.32222,-0.278116 0.64627,-0.618038 0.32405,-0.339922 0.6784,-0.676504 0.78744,-0.747944 0.33918,-0.222241 0.80188,0.06052 0.80188,0.49004 0,0.280816 -0.15441,0.527598 -0.77689,1.241693 -0.34511,0.395884 -0.38815,0.482247 -0.29582,0.593497 0.0594,0.0716 0.53355,0.43367 1.05362,0.8046 0.99678,0.71095 1.17963,0.89541 1.17963,1.19002 0,0.25432 -0.4644,0.63134 -0.69333,0.56287 -0.18627,-0.0557 -1.69537,-1.04742 -2.23256,-1.46715 -0.17308,-0.13523 -0.32437,-0.23205 -0.3362,-0.21516 -0.20355,0.29059 -1.85437,2.18016 -2.04433,2.34001 -0.29624,0.24926 -0.54287,0.27668 -0.80941,0.09 z m 15.02177,-0.53102 c -0.0941,-0.0381 -0.46715,-0.39899 -0.82895,-0.80197 -1.15307,-1.2843 -1.17073,-1.30121 -1.30516,-1.24963 -0.0704,0.027 -0.41781,0.3899 -0.77205,0.8064 -0.35424,0.41651 -0.75151,0.81284 -0.88282,0.88074 -0.21308,0.11018 -0.26021,0.1094 -0.43835,-0.007 -0.46738,-0.30624 -0.32912,-0.71769 0.66347,-1.97449 0.34453,-0.43623 0.62641,-0.819137 0.62641,-0.850912 0,-0.03178 -0.18082,-0.268009 -0.40183,-0.524961 -0.69548,-0.808641 -1.0074,-1.260968 -1.0074,-1.460945 0,-0.25459 0.43392,-0.623815 0.66278,-0.563964 0.19366,0.05065 0.73178,0.576048 1.20903,1.180457 0.17871,0.226339 0.34831,0.403802 0.37689,0.394378 0.0286,-0.0094 0.37597,-0.39674 0.77198,-0.860691 0.396,-0.46395 0.80962,-0.902259 0.91914,-0.974022 0.27469,-0.179982 0.58667,-0.163246 0.79242,0.0425 0.29878,0.298772 0.11318,0.668611 -0.99183,1.976425 -0.3247,0.384304 -0.59037,0.747095 -0.59037,0.806209 0,0.05911 0.36482,0.528046 0.81071,1.042086 1.40233,1.61661 1.43076,1.67766 0.95547,2.05152 -0.23135,0.18198 -0.30835,0.1939 -0.56954,0.0882 z" style="fill:#000000;stroke-width:1"/>
    </g>
    <g id="g138724">
      <ellipse style="opacity:1;fill:#e3e335;fill-opacity:1;fill-rule:evenodd;stroke:none;stroke-width:2;stroke-linecap:round;stroke-linejoin:round;stroke-miterlimit:4;stroke-dasharray:none;stroke-opacity:1" id="ellipse138594" cx="-363.34851" cy="61.76355" rx="17.149967" ry="17.295309"/>
      <path sodipodi:nodetypes="csscsssssccsscccsssccssscsssssscccssscsssssssccccssccsccsssscsssssc" style="fill:#000000;stroke-width:1" d="m -366.24104,79.090538 c -3.89324,-0.473933 -6.92324,-1.908328 -9.7471,-4.614262 -2.62582,-2.516164 -4.1737,-5.318045 -4.77381,-8.641265 -0.17618,-0.975661 -0.19757,-3.956302 -0.0369,-5.139532 0.41492,-3.055202 1.4725,-6.054782 3.05423,-8.662595 1.58538,-2.613829 4.24193,-5.159726 6.73706,-6.456436 1.66078,-0.8631 3.16978,-1.339144 5.13953,-1.621364 4.6115,-0.660719 7.31376,-0.351389 10.52775,1.205127 4.80299,2.326056 8.33147,6.921167 9.66947,12.592474 0.23444,0.993699 0.23468,0.997847 0.23563,3.937542 9.4e-4,2.546796 -0.0195,3.037616 -0.1513,3.64741 -0.76575,3.544151 -2.00997,6.0376 -4.10605,8.228593 -2.7552,2.879963 -6.49641,4.699569 -11.11886,5.407855 -1.04898,0.160732 -4.4642,0.23398 -5.42967,0.116453 z m 4.55927,-1.239779 c 3.38458,-0.251814 7.12406,-1.72443 9.58054,-3.77284 0.77069,-0.64266 1.96979,-1.888266 2.51095,-2.608326 1.22756,-1.633398 2.12511,-3.711996 2.63894,-6.111419 0.17745,-0.828654 0.1907,-1.082188 0.18959,-3.626497 -10e-4,-2.713854 -0.003,-2.742791 -0.2312,-3.64741 -0.1265,-0.501519 -0.29926,-1.136325 -0.38391,-1.410681 -1.81753,-5.890802 -6.83258,-10.497178 -12.43976,-11.426063 -1.60651,-0.266132 -4.27483,-0.244501 -5.46489,0.0443 -0.20859,0.05062 -0.80824,0.09953 -1.33256,0.108686 -0.86935,0.01519 -1.02481,0.04313 -1.76536,0.317348 -2.52605,0.935376 -4.2536,2.065138 -6.08017,3.976232 -1.86524,1.95154 -3.34113,4.439955 -4.24597,7.158878 -1.59643,4.797064 -1.41867,9.311722 0.50707,12.878136 1.4614,2.706458 4.14374,5.301854 6.93646,6.711614 1.28104,0.646671 3.33501,1.259955 4.70384,1.404499 0.95382,0.100722 3.54496,0.102602 4.87643,0.0035 z m -2.44543,-2.29429 c -1.23764,-0.143733 -3.61564,-0.840517 -4.98846,-1.461681 -0.96689,-0.437498 -2.59785,-1.401906 -3.45966,-2.045754 -1.3153,-0.982632 -2.90985,-2.827167 -3.56395,-4.122674 -0.81727,-1.618685 -1.32815,-3.740343 -1.33251,-5.533797 -0.002,-0.773209 0.12107,-1.033918 0.4876,-1.033918 0.4245,0 0.52633,0.227348 0.60396,1.348443 0.12568,1.814818 0.50344,3.263152 1.22481,4.695941 1.46296,2.905782 5.22854,5.583105 9.27849,6.596996 2.62094,0.656148 5.25515,0.596905 7.52959,-0.169339 3.83901,-1.293342 6.81529,-4.409541 7.7173,-8.080111 0.40321,-1.640789 0.44032,-3.648068 0.10267,-5.55247 -0.20268,-1.143105 -0.21458,-1.602231 -0.0459,-1.770906 0.30808,-0.30808 0.69088,-0.230468 0.90494,0.183473 0.13995,0.27064 0.40093,1.28356 0.55851,2.167704 0.1622,0.910134 0.14044,3.407847 -0.0381,4.375993 -0.53122,2.879997 -2.10186,5.573725 -4.27099,7.324945 -2.17184,1.753416 -4.79976,2.840881 -7.38241,3.054923 -0.93892,0.07782 -2.74338,0.08988 -3.32585,0.02224 z m -3.40589,-16.432335 c -0.34433,-0.10435 -0.62276,-0.319826 -0.86506,-0.66947 -0.19709,-0.284395 -0.22125,-0.385574 -0.18796,-0.787013 0.0643,-0.774958 0.5339,-1.235377 1.2601,-1.235377 0.82458,0 1.5409,0.64465 1.5409,1.386738 0,0.364679 -0.0962,0.582662 -0.40388,0.915096 -0.40161,0.43392 -0.80908,0.552162 -1.3441,0.390026 z m 6.79276,-0.699898 c -0.3073,-0.213231 -0.65131,-0.794157 -0.65131,-1.099831 0,-0.292644 0.1804,-0.723629 0.40503,-0.967625 0.30044,-0.326337 0.60583,-0.469249 1.00274,-0.469249 0.82065,0 1.36923,0.56805 1.36923,1.417818 0,0.792757 -0.45951,1.249454 -1.3065,1.298496 -0.44649,0.02585 -0.55849,0.0013 -0.81919,-0.179609 z" id="path138562" inkscape:connector-curvature="0"/>
    </g>
    <g id="g138705">
      <ellipse ry="17.295309" rx="16.568613" cy="18.59795" cx="-363.49387" id="path138592" style="opacity:1;fill:#e3e335;fill-opacity:1;fill-rule:evenodd;stroke:none;stroke-width:2;stroke-linecap:round;stroke-linejoin:round;stroke-miterlimit:4;stroke-dasharray:none;stroke-opacity:1"/>
      <ellipse ry="2.4707584" rx="2.3980889" cy="20.196676" cx="-375.48428" id="path138633" style="opacity:0.32699998;fill:#d47373;fill-opacity:1;fill-rule:evenodd;stroke:none;stroke-width:2;stroke-linecap:round;stroke-linejoin:round;stroke-miterlimit:4;stroke-dasharray:none;stroke-opacity:1"/>
      <ellipse style="opacity:0.32699998;fill:#d47373;fill-opacity:1;fill-rule:evenodd;stroke:none;stroke-width:2;stroke-linecap:round;stroke-linejoin:round;stroke-miterlimit:4;stroke-dasharray:none;stroke-opacity:1" id="ellipse138635" cx="-353.10214" cy="18.452612" rx="2.3980889" ry="2.4707584"/>
      <path inkscape:connector-curvature="0" id="path138564" d="m -367.19434,36.331774 c -3.92268,-0.757541 -7.34877,-2.613809 -9.44515,-5.117429 -0.95877,-1.145006 -1.58087,-2.110996 -2.28802,-3.552804 -0.90947,-1.85432 -1.56204,-3.976652 -1.8734,-6.09283 -0.1534,-1.042609 -0.12931,-4.619553 0.0386,-5.735394 0.59361,-3.944078 2.49831,-7.6507593 5.20216,-10.1237781 1.62071,-1.4823406 3.97385,-2.681402 6.62497,-3.3758113 0.66109,-0.1731613 1.63097,-0.4640758 2.15529,-0.6464797 1.80949,-0.6295047 3.68682,-0.86316553 5.50344,-0.684985 2.86124,0.2806411 5.92185,1.3616424 8.34014,2.945723 2.89498,1.8963375 4.68464,4.2257647 5.60862,7.3002131 0.28988,0.964564 0.58213,2.644704 0.69724,4.008455 0.12483,1.478991 0.055,4.971431 -0.12617,6.312057 -0.61341,4.538651 -2.13514,7.809298 -4.90708,10.546773 -1.82228,1.799626 -3.64337,2.894964 -6.09609,3.666635 -1.8801,0.591513 -2.25676,0.636463 -5.62138,0.670832 -2.6764,0.02732 -3.1166,0.01335 -3.8132,-0.121177 z m 6.23516,-1.093349 c 2.18817,-0.189187 4.60185,-1.047108 6.50009,-2.3104 3.42019,-2.276159 5.69092,-6.157807 6.37297,-10.894151 0.42923,-2.980622 0.2733,-7.621969 -0.33252,-9.898128 -0.52769,-1.982594 -1.34686,-3.4505696 -2.73322,-4.8980172 -1.9545,-2.0406089 -4.55279,-3.5421301 -7.54187,-4.3583467 -1.47113,-0.4017152 -2.28045,-0.5002814 -4.06569,-0.4951401 -1.30875,0.00376 -1.72156,0.036043 -2.44183,0.1909039 -0.92964,0.1998801 -2.04711,0.5902443 -3.00841,1.0509364 -0.64213,0.3077359 -0.85547,0.3395083 -1.27091,0.189281 -0.23118,-0.083597 -0.35447,-0.06571 -0.91774,0.1331301 -2.04976,0.7235876 -4.1284,2.1278679 -5.51225,3.7239481 -4.87309,5.6204545 -5.25207,14.8744345 -0.87863,21.4546935 0.86292,1.298339 2.31113,2.782804 3.45481,3.541272 1.61931,1.073905 3.882,1.995916 5.9328,2.417519 1.43581,0.295176 4.07076,0.357549 6.4424,0.152499 z m -4.59187,-5.504237 c -3.24126,-0.545475 -6.34604,-2.390287 -8.00969,-4.759234 -0.65481,-0.932416 -0.73105,-1.393255 -0.25547,-1.544197 0.27497,-0.08727 0.52027,0.09785 1.10151,0.83129 1.77187,2.235846 4.13407,3.6713 6.98148,4.24247 1.02825,0.206259 3.20812,0.205617 4.15888,-0.0013 1.52814,-0.33245 2.86196,-0.949131 3.96946,-1.835243 1.07743,-0.862047 1.72335,-1.669056 2.55542,-3.19274 0.83767,-1.533927 0.93949,-1.670337 1.22532,-1.641585 0.1515,0.01523 0.31176,0.108576 0.40739,0.237276 0.14998,0.201829 0.15108,0.232085 0.0226,0.621716 -0.0743,0.225262 -0.29753,0.747716 -0.49614,1.161014 -1.5437,3.212366 -4.441,5.343648 -7.99873,5.883967 -0.95316,0.144757 -2.7915,0.142996 -3.66204,-0.0035 z m -10.41568,-6.880927 c -0.21301,-0.270794 -0.22161,-0.359788 -0.0574,-0.594179 0.0884,-0.126197 0.27862,-0.202597 0.67738,-0.272035 0.33401,-0.05816 0.81756,-0.232016 1.21616,-0.437241 0.61974,-0.319081 0.67534,-0.33306 0.87692,-0.220474 0.14588,0.08148 0.22331,0.20244 0.24033,0.375454 0.059,0.599988 -0.98083,1.254902 -2.11605,1.332712 -0.64232,0.04403 -0.66099,0.03992 -0.83731,-0.184237 z m 21.71639,-1.852835 c -0.80656,-0.287283 -1.0279,-0.55719 -0.84704,-1.03289 0.10603,-0.27888 0.36455,-0.29129 1.04975,-0.05039 0.48351,0.169988 1.24821,0.184337 1.74613,0.03277 0.26378,-0.0803 0.54286,0.227692 0.50992,0.562733 -0.0395,0.402035 -0.42668,0.585613 -1.30522,0.618902 -0.54044,0.02049 -0.81579,-0.01081 -1.15354,-0.131122 z m -17.82169,-2.912898 c -0.36362,-0.08597 -0.8066,-0.523622 -0.9742,-0.96249 -0.18074,-0.473243 -0.13275,-1.603822 0.0872,-2.054093 0.18282,-0.374298 0.73487,-0.759001 1.20256,-0.838017 0.64905,-0.109654 1.39478,0.278232 1.63354,0.849675 0.14216,0.340226 0.23662,1.461324 0.15831,1.87878 -0.0635,0.338252 -0.52115,0.900179 -0.8875,1.089629 -0.2463,0.127363 -0.76944,0.143022 -1.2199,0.03652 z m 14.45214,-1.202652 c -0.41945,-0.148375 -0.913,-0.670084 -1.02894,-1.087646 -0.0491,-0.176743 -0.0886,-0.638428 -0.0879,-1.025963 0.002,-0.848249 0.16608,-1.276291 0.62469,-1.626092 0.28302,-0.215868 0.37564,-0.239062 0.95463,-0.239062 0.59366,0 0.66481,0.01908 0.95975,0.257475 0.51448,0.41584 0.62969,0.689243 0.67265,1.596253 0.0218,0.460272 -0.002,0.944487 -0.0553,1.142309 -0.15657,0.577208 -0.90884,1.115333 -1.54223,1.103199 -0.0912,-0.0019 -0.31501,-0.05596 -0.49738,-0.120473 z" style="fill:#000000;stroke-width:1" sodipodi:nodetypes="cssscssssssscsssccsssssssssssssssscsssscsscccssccccssccscccssccccccccsccccccccsssscccc"/>
    </g>
    <g id="g138711">
      <path sodipodi:nodetypes="sssss" inkscape:connector-curvature="0" id="ellipse138615" d="m -306.23042,19.760658 c -0.43602,12.313371 -8.03619,17.295308 -17.94933,17.295309 -9.91314,-1e-6 -17.94933,-7.743374 -17.94933,-17.295309 0,-9.551935 8.03619,-17.2953083 17.94933,-17.2953088 9.91314,5e-7 18.28735,7.7493568 17.94933,17.2953088 z" style="opacity:1;fill:#da7774;fill-opacity:1;fill-rule:evenodd;stroke:none;stroke-width:2;stroke-linecap:round;stroke-linejoin:round;stroke-miterlimit:4;stroke-dasharray:none;stroke-opacity:1"/>
      <path sodipodi:nodetypes="sssscsssssssssssssscssssssccssscccssssccscsccscccscssscssssssscssscsccscsscsscccscssscccccccscscsscccccccsccc" style="fill:#000000;stroke-width:1" d="m -325.70506,37.818147 c -2.50128,-0.189949 -5.52278,-1.166453 -7.97749,-2.578199 -1.6832,-0.968045 -2.66173,-1.711408 -3.9672,-3.013783 -2.15934,-2.154213 -3.55988,-4.55274 -4.43149,-7.58925 -0.43962,-1.531511 -0.5166,-2.221415 -0.51813,-4.643208 -10e-4,-2.062359 0.0121,-2.261327 0.21935,-3.25271 0.46776,-2.237569 1.49467,-4.748908 2.68673,-6.570425 2.31425,-3.5362777 5.99518,-6.1051745 10.32895,-7.2085083 1.67371,-0.4261093 2.51805,-0.5459177 4.3677,-0.6197515 4.59225,-0.1833156 8.10301,0.3500417 10.6125,1.6122594 2.71122,1.363682 5.18712,4.0136469 6.82382,7.3035524 1.31608,2.645432 1.77946,4.576653 1.85292,7.722309 0.14344,6.143235 -1.25716,10.390793 -4.55986,13.828498 -0.49096,0.511025 -1.14376,1.133913 -1.45067,1.384191 -2.33376,1.903108 -5.13726,3.054071 -8.51929,3.49754 -1.17917,0.15462 -4.18705,0.224751 -5.46784,0.127485 z m 3.52307,-0.999542 c 1.95079,-0.112167 3.02922,-0.281205 4.60071,-0.72114 3.96185,-1.109105 7.17388,-3.767473 8.99097,-7.44116 1.29232,-2.612744 1.84419,-5.237247 1.8477,-8.78694 0.002,-2.549387 -0.21282,-4.025681 -0.86302,-5.916758 -1.38624,-4.0318094 -4.21322,-7.4193666 -7.62178,-9.1331561 -1.40257,-0.7051995 -3.58207,-1.2850264 -5.62266,-1.4958378 -1.37323,-0.1418652 -4.7867,-0.051335 -6.20181,0.1644796 -4.09364,0.6243133 -7.42447,2.3034479 -10.1094,5.0963432 -1.14127,1.1871589 -1.90566,2.3115031 -2.76895,4.0728461 -1.38063,2.816866 -1.804,4.85266 -1.70671,8.206831 0.0373,1.284641 0.0849,1.74313 0.25818,2.48687 1.07304,4.604496 3.57149,8.155311 7.46703,10.612194 1.53252,0.966547 3.71574,1.910903 5.46657,2.364577 1.95705,0.507112 3.65968,0.640549 6.26317,0.490851 z m -6.09283,-7.988397 c -0.87538,-0.27757 -1.59461,-0.907927 -2.01648,-1.767305 l -0.2125,-0.432861 -0.5184,0.497791 c -0.84053,0.807118 -1.63972,1.052913 -2.55671,0.786336 -0.87217,-0.253549 -1.7079,-1.302794 -1.96424,-2.466072 -0.13338,-0.605271 -0.17709,-0.648786 -0.54833,-0.545865 -0.41019,0.113718 -1.36268,0.02713 -1.74215,-0.158351 -0.35051,-0.171332 -0.42527,-0.381745 -0.2173,-0.611556 0.12402,-0.137037 0.26028,-0.159626 0.96293,-0.159626 0.74438,0 0.863,-0.02246 1.31031,-0.24828 0.92217,-0.465507 1.32714,-1.102604 1.32714,-2.087843 0,-0.725007 0.5524,-0.983043 0.8551,-0.399434 0.1155,0.222692 0.14043,0.405754 0.10724,0.787511 -0.0709,0.814954 -0.26664,1.247286 -0.8401,1.855182 l -0.51819,0.549307 0.1993,0.69029 c 0.39507,1.368479 0.9227,2.00502 1.65985,2.002495 0.58484,-0.0019 1.34357,-0.560317 1.91401,-1.408419 0.36942,-0.549226 0.55496,-0.69289 0.81168,-0.628455 0.22102,0.05547 0.39568,0.366133 0.7407,1.317441 0.21359,0.588935 0.60756,1.053866 1.12331,1.325637 0.40647,0.214186 0.51622,0.235654 1.04025,0.20348 0.44134,-0.0271 0.6935,-0.09457 1.02233,-0.273538 0.51942,-0.282706 0.76088,-0.552974 1.10029,-1.23158 0.31999,-0.639778 0.45897,-0.79588 0.70856,-0.79588 0.31811,0 0.47386,0.124007 0.93208,0.742117 0.7012,0.945872 1.30039,1.330274 2.07356,1.330274 0.51847,0 1.08574,-0.255022 1.50919,-0.678481 0.35599,-0.355988 0.50729,-0.673885 0.64981,-1.365352 0.2408,-1.168273 0.57358,-1.272143 1.57306,-0.491001 0.79429,0.620773 1.11398,0.74952 1.86515,0.751143 0.55806,0.0013 0.73702,-0.03483 1.12914,-0.227398 1.0586,-0.519873 1.67512,-1.375036 1.68023,-2.330624 0.003,-0.560606 -0.10495,-0.825889 -0.61388,-1.508474 l -0.31354,-0.420523 -0.64071,0.124051 c -0.55888,0.108209 -0.69926,0.10898 -1.09921,0.006 -0.59017,-0.151888 -0.85996,-0.459731 -0.66269,-0.756144 0.11826,-0.177707 0.18324,-0.190822 0.94554,-0.190822 0.72353,0 0.87743,-0.02719 1.32567,-0.23435 0.76224,-0.352257 1.14375,-0.789041 1.42691,-1.633621 0.22562,-0.672976 0.24628,-0.702878 0.5031,-0.728174 0.42426,-0.04179 0.52796,0.104083 0.49064,0.690192 -0.0372,0.584542 -0.33197,1.255143 -0.74802,1.701856 -0.5308,0.569926 -0.5217,0.521783 -0.18222,0.964169 0.55174,0.718998 0.63508,1.003768 0.5995,2.048347 -0.0291,0.854951 -0.0513,0.958768 -0.30487,1.429818 -0.8776,1.630012 -2.91426,2.548485 -4.48889,2.024345 -0.29635,-0.09865 -0.75574,-0.311542 -1.02087,-0.473102 -0.26513,-0.161559 -0.49325,-0.280631 -0.50692,-0.264606 -0.0137,0.01604 -0.086,0.215652 -0.16071,0.443614 -0.42075,1.283851 -1.79735,2.193875 -3.16252,2.090628 -0.77989,-0.05898 -1.33107,-0.328596 -2.07684,-1.01589 -0.31581,-0.291043 -0.59966,-0.530688 -0.63078,-0.532542 -0.0311,-0.0019 -0.0794,0.0684 -0.10721,0.156117 -0.0279,0.08772 -0.19694,0.310264 -0.37577,0.494542 -0.90041,0.927807 -2.3339,1.377705 -3.35653,1.053439 z m -0.14356,-8.841373 c -0.17015,-0.08983 -0.36152,-0.265377 -0.42527,-0.390089 -0.25531,-0.499492 -0.79895,-2.350177 -0.79895,-2.719847 0,-0.338221 0.0401,-0.426379 0.32183,-0.708145 0.28872,-0.288718 0.36482,-0.321828 0.7397,-0.321828 0.33436,0 0.47172,0.04531 0.68731,0.226721 0.31381,0.264048 0.73824,1.134921 0.98223,2.015372 0.29971,1.081533 0.189,1.597107 -0.4084,1.901876 -0.40608,0.207168 -0.70046,0.206081 -1.09845,-0.0041 z m 5.837,-0.660814 c -0.16892,-0.102983 -0.33954,-0.313485 -0.44219,-0.545526 l -0.16713,-0.377835 0.17824,-1.1328 c 0.098,-0.623041 0.21564,-1.276837 0.26134,-1.45288 0.17028,-0.655798 0.88114,-1.00688 1.53393,-0.757578 0.57594,0.219953 0.69317,0.435774 0.69278,1.275351 -3.1e-4,0.865146 -0.20307,2.182443 -0.39684,2.579311 -0.26549,0.543787 -1.10302,0.751619 -1.66013,0.411957 z" id="path138566" inkscape:connector-curvature="0"/>
    </g>
    <g id="g138728">
      <ellipse ry="17.077301" rx="17.149967" cy="62.417572" cx="-323.5257" id="ellipse138596" style="opacity:1;fill:#e3e335;fill-opacity:1;fill-rule:evenodd;stroke:none;stroke-width:2;stroke-linecap:round;stroke-linejoin:round;stroke-miterlimit:4;stroke-dasharray:none;stroke-opacity:1"/>
      <path inkscape:connector-curvature="0" id="path138620" d="m -331.81001,69.902519 c 0.58135,0 16.56861,-1.744063 16.56861,-1.744063 l -1.01737,1.889402 -3.05211,2.906776 -4.65084,1.308049 -3.48813,-1.017371 -2.90677,-1.162711 -1.45339,-1.308049 z" style="fill:#d67874;fill-opacity:1;fill-rule:evenodd;stroke:none;stroke-width:0.28222221px;stroke-linecap:butt;stroke-linejoin:miter;stroke-opacity:1"/>
      <path inkscape:connector-curvature="0" id="path138624" d="m -334.28077,67.141085 1.8894,2.906773 17.58599,-2.180079 1.16271,-3.197454 -10.02837,1.598727 z" style="fill:#f6f0f0;fill-opacity:1;fill-rule:evenodd;stroke:none;stroke-width:0.28222221px;stroke-linecap:butt;stroke-linejoin:miter;stroke-opacity:1"/>
      <path inkscape:connector-curvature="0" id="path138568" d="m -327.11428,79.930672 c -3.84954,-0.439979 -7.56519,-2.362738 -9.94649,-5.147064 -1.87411,-2.191285 -3.41096,-5.315307 -4.03521,-8.202536 -0.1676,-0.77517 -0.1881,-1.097155 -0.18738,-2.942797 9.4e-4,-2.31477 0.0812,-2.961886 0.58654,-4.725053 0.58309,-2.034518 1.68777,-4.413128 2.87552,-6.191584 3.00827,-4.504377 7.01498,-7.190575 12.03335,-8.067473 1.76517,-0.308441 6.39344,-0.233545 7.90698,0.127954 4.14488,0.98998 8.1092,4.280427 10.23684,8.496741 0.83389,1.652494 1.37987,3.337121 1.71862,5.302781 0.24699,1.433248 0.30467,4.024368 0.12271,5.512561 -0.57525,4.704651 -2.64939,8.911088 -5.62515,11.40804 -1.04973,0.880823 -2.0395,1.515507 -3.46812,2.223924 -1.45403,0.721015 -2.65027,1.155177 -4.42602,1.606373 -2.22562,0.565502 -2.58259,0.610991 -5.01519,0.639085 -1.2082,0.01394 -2.45785,-0.0045 -2.777,-0.04095 z m 4.22768,-1.334272 c 4.22269,-0.363909 8.6623,-2.303627 11.27958,-4.928173 2.07411,-2.079885 3.73851,-5.795048 4.17776,-9.325338 0.11579,-0.930573 0.11378,-3.77893 -0.003,-4.883385 -0.28406,-2.676449 -1.62286,-5.834036 -3.43001,-8.089788 -2.0972,-2.617785 -5.20815,-4.520269 -8.45938,-5.173291 -0.45593,-0.09157 -1.61232,-0.245516 -2.56977,-0.342093 -1.50166,-0.151471 -1.85469,-0.162528 -2.56976,-0.08047 -5.11999,0.587519 -9.33828,3.215884 -12.28249,7.65307 -1.47786,2.227251 -2.65234,5.156874 -3.06351,7.641582 -0.23215,1.402829 -0.21282,3.917762 0.0398,5.18098 0.46678,2.334045 1.64436,4.966972 3.05174,6.823341 1.94807,2.569564 4.32282,4.18073 7.3678,4.998755 2.12485,0.570828 4.08262,0.729838 6.46167,0.524813 z m -2.73556,-3.945923 c -0.61943,-0.07355 -1.30411,-0.228945 -2.02869,-0.460435 -3.15815,-1.008969 -5.18028,-2.702744 -6.58388,-5.514792 l -0.3822,-0.765721 -0.63689,0.01964 c -0.60911,0.0188 -0.64228,0.01021 -0.76053,-0.196925 -0.1024,-0.179362 -0.1059,-0.25944 -0.0204,-0.465899 0.0568,-0.137119 0.1925,-0.289966 0.30157,-0.339659 0.52342,-0.238486 2.45509,-0.480183 6.75373,-0.845047 4.21663,-0.357903 5.52295,-0.516451 9.20142,-1.116784 4.36299,-0.712049 5.73025,-0.889487 6.94883,-0.901796 0.92246,-0.0093 1.03325,0.0053 1.13981,0.150587 0.19704,0.268632 0.14525,0.588954 -0.1331,0.823169 -0.21671,0.182351 -0.43638,0.255354 -0.98412,0.327048 -0.0639,0.0084 -0.18743,0.239022 -0.27455,0.512576 -0.23566,0.740042 -1.07207,2.435603 -1.60652,3.256717 -2.08555,3.204229 -5.04823,5.095607 -8.58943,5.483499 -0.76323,0.0836 -1.79983,0.09854 -2.34506,0.0338 z m 2.98611,-1.398004 c 1.90471,-0.389625 3.65695,-1.300545 4.99235,-2.595315 0.57229,-0.554875 1.56375,-1.734521 1.50371,-1.789121 -0.0176,-0.01604 -0.40509,0.03924 -0.86102,0.122841 -1.09983,0.201666 -3.53395,0.508164 -6.88034,0.866358 -2.30867,0.247118 -5.64278,0.64815 -6.98396,0.840041 -0.19377,0.02773 -0.3505,0.07347 -0.34828,0.101665 0.009,0.115137 0.95229,0.822686 1.5853,1.189157 2.17681,1.260235 4.74355,1.724367 6.99224,1.264374 z m -6.72388,-4.016429 c 1.38963,-0.181101 4.08606,-0.499411 5.99208,-0.707359 5.18191,-0.565349 7.73178,-0.996345 8.13897,-1.375697 0.19045,-0.177441 0.5407,-0.824688 0.71765,-1.326226 0.0877,-0.248474 0.0886,-0.318191 0.005,-0.350368 -0.11638,-0.04466 -1.95935,0.21632 -4.23535,0.599757 -4.03125,0.679138 -5.64385,0.872846 -10.77215,1.293946 -2.00371,0.16453 -3.67254,0.317329 -3.7085,0.339552 -0.0819,0.05062 0.41084,1.032971 0.75407,1.50336 0.15113,0.207115 0.324,0.352304 0.41948,0.352304 0.0893,0 1.29937,-0.148169 2.68899,-0.329269 z m -3.86403,-7.707067 c -0.23379,-0.183901 -0.34984,-0.509405 -0.27061,-0.759041 0.0664,-0.20927 0.45409,-0.397711 1.59361,-0.774628 0.52673,-0.174227 0.91121,-0.344102 0.88281,-0.390054 -0.0277,-0.04478 -0.47547,-0.36097 -0.9951,-0.702656 -0.51963,-0.341686 -0.98217,-0.691116 -1.02787,-0.776511 -0.2244,-0.419286 0.0156,-0.912226 0.4442,-0.912226 0.47053,0 3.02452,1.557123 3.33752,2.034831 0.10623,0.162136 0.1138,0.25094 0.0395,0.463966 -0.25031,0.718045 -0.84888,1.108598 -2.49513,1.628006 -1.17843,0.371807 -1.26238,0.382284 -1.50897,0.188313 z m 13.74896,-2.49541 c -0.70662,-0.118584 -0.89435,-0.49145 -0.54057,-1.073645 0.44964,-0.739936 1.76884,-2.155286 2.00887,-2.155286 0.1605,0 0.53099,0.307627 0.58842,0.488586 0.0662,0.208553 -0.0496,0.482135 -0.3965,0.936558 -0.16101,0.21093 -0.2707,0.40555 -0.24377,0.432485 0.0269,0.02694 0.48107,0.05119 1.00918,0.05391 1.65579,0.0085 1.99641,0.127894 1.99641,0.699669 0,0.445052 -0.1592,0.565058 -0.84001,0.633221 -0.80023,0.08012 -3.07078,0.0703 -3.58203,-0.01551 z" style="fill:#000000;stroke-width:1" sodipodi:nodetypes="csscsssssssssscccsscscssssssscccsscccccssccsccssccsscssccsscscccsscssccccscscsccscccssccccsscc"/>
    </g>
    <g id="g138748">
      <path sodipodi:nodetypes="sssss" inkscape:connector-curvature="0" id="ellipse138602" d="m -306.95707,103.11241 c 0,9.5118 -7.19028,17.22264 -16.05993,17.22264 -8.86965,0 -16.05993,-7.71084 -16.05993,-17.22264 0,-9.511802 7.48095,-15.623915 16.05993,-17.222639 8.71954,-1.624919 16.05993,7.710837 16.05993,17.222639 z" style="opacity:1;fill:#e3e335;fill-opacity:1;fill-rule:evenodd;stroke:none;stroke-width:2;stroke-linecap:round;stroke-linejoin:round;stroke-miterlimit:4;stroke-dasharray:none;stroke-opacity:1"/>
      <path sodipodi:nodetypes="cssssssssscssscccssscssscsssssccscccssscscscccccssccccsscssccscccscssccssc" style="fill:#000000;stroke-width:1" d="m -326.7222,120.54382 c -1.34974,-0.1712 -3.23392,-0.73077 -4.3454,-1.2905 -2.82554,-1.42292 -5.08373,-3.73301 -6.54266,-6.69304 -1.25226,-2.54073 -1.78513,-5.19425 -1.70902,-8.51037 0.0725,-3.15809 0.65087,-5.449817 2.08939,-8.278814 1.88674,-3.710486 4.84716,-6.805816 8.04445,-8.411082 0.91375,-0.458772 3.89374,-1.629532 4.85189,-1.906188 2.66286,-0.768873 5.62833,-0.368627 8.82891,1.191627 2.93577,1.431168 5.51657,3.748427 7.20703,6.471091 1.24774,2.009617 2.02774,4.1434 2.40576,6.581344 0.21548,1.389662 0.25792,4.189512 0.0861,5.678352 -0.36661,3.17617 -1.29097,5.88353 -2.7507,8.05655 -0.93376,1.39003 -2.94998,3.3604 -4.3766,4.27707 -2.1723,1.3958 -5.16991,2.5112 -7.391,2.75017 -1.11051,0.11947 -5.64829,0.1789 -6.39812,0.0838 z m 4.37442,-1.24477 c 2.82172,-0.19934 4.8828,-0.72291 6.89711,-1.75203 2.26996,-1.15973 4.5319,-3.12918 5.76289,-5.01769 1.20221,-1.84435 2.02405,-4.23699 2.38695,-6.94912 0.15594,-1.16548 0.17834,-3.68502 0.0431,-4.84613 -0.42283,-3.629674 -1.85286,-6.711103 -4.32793,-9.325849 -3.08772,-3.261968 -8.16925,-5.359173 -11.46672,-4.732438 -0.84834,0.16124 -2.40258,0.584489 -3.04831,0.830115 -0.30879,0.117456 -0.64452,0.213581 -0.74606,0.213622 -0.24646,8.5e-5 -2.15387,0.934759 -3.08598,1.512202 -1.58203,0.980082 -3.75989,3.201381 -5.04944,5.150157 -1.26497,1.911623 -2.41403,4.620662 -2.8174,6.642331 -0.68251,3.42076 -0.2063,7.7582 1.18137,10.76015 0.93021,2.01231 2.43592,3.86295 4.20568,5.1691 2.49604,1.84216 5.91435,2.6388 10.06475,2.34558 z m -0.72959,-6.75965 c -1.30748,-0.65155 -1.94585,-2.66857 -1.26619,-4.0008 0.40536,-0.79459 1.17187,-1.25877 2.18061,-1.32052 0.57069,-0.0349 0.68997,-0.0152 1.09095,0.18102 0.89843,0.43956 1.46622,1.33854 1.52341,2.41206 0.0487,0.91407 -0.16748,1.48488 -0.80306,2.12047 -0.80839,0.80839 -1.85487,1.04173 -2.72572,0.60777 z m -9.30445,-8.03798 c -0.50722,-0.61115 0.96951,-2.67114 2.43353,-3.39469 0.55399,-0.2738 0.74585,-0.32517 1.32884,-0.35577 0.79557,-0.0418 1.54966,0.12069 2.12484,0.45774 0.48366,0.28342 1.50324,1.31623 1.69196,1.71392 0.13455,0.28355 0.13573,0.32447 0.0147,0.50925 -0.16241,0.24788 -0.46745,0.33328 -0.71575,0.20039 -0.10294,-0.0551 -0.50353,-0.39817 -0.89021,-0.76239 -0.82921,-0.78107 -1.09766,-0.91104 -1.87953,-0.90999 -1.10434,0.002 -1.95283,0.48687 -2.60245,1.48877 -0.66248,1.02171 -0.81495,1.18153 -1.12721,1.18153 -0.1495,0 -0.3199,-0.0579 -0.37868,-0.12876 z m 18.25565,-1.56416 c -0.97854,-0.99916 -1.3035,-1.16733 -2.25312,-1.16599 -0.56528,9.4e-4 -0.77233,0.037 -1.04703,0.18315 -0.3026,0.16099 -0.48756,0.33159 -1.24956,1.15255 -0.25439,0.27407 -0.62429,0.26214 -0.85212,-0.0275 -0.22437,-0.28525 -0.17281,-0.51163 0.2419,-1.06205 1.11733,-1.48296 2.94487,-1.92559 4.57789,-1.10875 0.84095,0.42065 1.85798,1.51828 2.0097,2.16896 0.0416,0.17823 0.008,0.27576 -0.15193,0.4352 -0.11302,0.11302 -0.27418,0.20549 -0.35813,0.20549 -0.084,0 -0.49687,-0.35149 -0.9176,-0.78107 z m -8.61917,-2.1675 c -0.24975,-0.17493 -0.52281,-0.73618 -0.84412,-1.735036 -0.32969,-1.024906 -0.41558,-1.73296 -0.21934,-1.80826 0.33513,-0.128606 0.38078,-0.04797 0.85519,1.510472 0.35389,1.162546 0.29083,1.208313 0.60692,-0.440521 0.2366,-1.234202 0.34431,-1.477309 0.6395,-1.443391 0.20604,0.02369 0.23244,0.06278 0.25527,0.377939 0.0284,0.392883 -0.25709,2.198409 -0.45086,2.850887 -0.11553,0.38901 -0.4242,0.81803 -0.58858,0.81803 -0.0375,0 -0.15181,-0.0585 -0.25398,-0.13012 z" id="path138570" inkscape:connector-curvature="0"/>
    </g>
    <g id="g138715">
      <ellipse style="opacity:1;fill:#e3e335;fill-opacity:1;fill-rule:evenodd;stroke:none;stroke-width:2;stroke-linecap:round;stroke-linejoin:round;stroke-miterlimit:4;stroke-dasharray:none;stroke-opacity:1" id="ellipse138598" cx="-282.54016" cy="20.342012" rx="17.004629" ry="17.149971"/>
      <path sodipodi:nodetypes="ccccccccccc" inkscape:connector-curvature="0" id="path138626" d="m -293.8766,23.684807 c 7.50917,-0.08142 15.01833,-0.646034 22.5275,-1.889404 l 0.14534,0.726694 -1.74407,4.650839 -3.7788,2.761436 -6.39491,1.744063 -4.06948,-0.87203 -4.06949,-2.761437 -1.59872,-2.325419 -0.58136,-1.16271 z" style="fill:#f6f0f0;fill-opacity:1;fill-rule:evenodd;stroke:none;stroke-width:0.28222221px;stroke-linecap:butt;stroke-linejoin:miter;stroke-opacity:1"/>
      <path inkscape:connector-curvature="0" id="path138572" d="m -283.65303,37.815089 c -2.33683,-0.209549 -4.96181,-0.900299 -6.90427,-1.81682 -4.71995,-2.227048 -8.22855,-6.725258 -9.37994,-12.02557 -0.22482,-1.034967 -0.22365,-5.260613 0.002,-6.30007 0.86518,-3.989798 2.94468,-7.7368773 5.86652,-10.5709692 1.4594,-1.4155781 2.5382,-2.168441 4.34063,-3.0292035 2.3998,-1.1460406 5.23415,-1.7321305 8.41391,-1.7398378 2.11039,-0.00511 3.22833,0.2447801 5.01519,1.1210481 2.74066,1.3440095 5.80562,4.1726405 7.7721,7.1728314 0.72974,1.113332 2.01545,3.720364 2.4938,5.056635 0.86839,2.425916 1.09237,3.95222 1.02519,6.985885 -0.0495,2.235304 -0.11943,2.671862 -0.71187,4.443782 -1.77336,5.303959 -6.05691,8.916373 -12.20141,10.28973 -1.65686,0.370325 -4.17849,0.55183 -5.7316,0.412559 z m 3.93109,-1.416584 c 2.81647,-0.30194 6.15348,-1.694245 8.40914,-3.508556 2.37559,-1.910768 4.12702,-4.857854 4.70829,-7.922502 0.19096,-1.006782 0.25161,-3.050941 0.13282,-4.476366 -0.26318,-3.15807 -1.84297,-7.015587 -4.17567,-10.196164 -0.73428,-1.0011804 -2.84773,-3.1015524 -3.94209,-3.9177126 -1.46847,-1.0951533 -3.3132,-2.0292014 -4.71646,-2.3880939 -0.51952,-0.1328733 -0.91768,-0.1600557 -2.34429,-0.1600557 -1.60173,0 -1.77399,0.015007 -2.53578,0.220928 -0.97211,0.2627764 -1.50278,0.3287431 -1.62902,0.2025025 -0.32675,-0.3267536 -2.51438,0.3751312 -4.31003,1.3828407 -3.04007,1.706079 -6.01926,5.208958 -7.50304,8.821964 -2.31456,5.635904 -1.59947,11.250516 2.03245,15.958155 2.38335,3.089261 6.15609,5.223226 10.43296,5.901171 1.16552,0.184751 4.07305,0.228513 5.44072,0.08189 z m -4.63046,-4.304066 c -2.06761,-0.217808 -3.9616,-0.903918 -5.4484,-1.973724 -0.81086,-0.58344 -1.85968,-1.6766 -2.44225,-2.545506 -0.55188,-0.823143 -1.67734,-3.113787 -1.73271,-3.526599 -0.0771,-0.574435 -0.12418,-0.565703 4.86914,-0.901828 1.34498,-0.09054 2.7998,-0.184992 3.23293,-0.209899 4.11604,-0.23671 5.99292,-0.414007 9.69879,-0.916174 1.16261,-0.15754 2.85586,-0.386586 3.76276,-0.508985 l 1.64892,-0.222548 0.19551,0.227291 c 0.23048,0.267955 0.23606,0.378258 0.0679,1.342512 -0.65259,3.742239 -3.87334,7.223199 -7.88239,8.519238 -2.03488,0.657834 -4.13398,0.909654 -5.97021,0.716222 z m 2.53291,-1.400684 c 0.0991,-0.06275 0.0879,-0.249971 -0.0744,-1.244813 -0.10506,-0.64403 -0.21811,-1.187695 -0.2512,-1.208148 -0.0331,-0.02046 -0.65242,0.01761 -1.3763,0.08456 -0.72387,0.06696 -1.38141,0.122189 -1.4612,0.122728 -0.11843,9.4e-4 -0.14507,0.0761 -0.14507,0.41004 0,0.382575 0.17045,1.363657 0.29177,1.679338 0.0297,0.07719 0.11603,0.156798 0.19193,0.176899 0.26568,0.07036 2.7089,0.05254 2.82444,-0.02061 z m 2.8155,-0.495889 c 0.39748,-0.133167 0.99146,-0.362301 1.31997,-0.509185 0.69436,-0.310478 0.69068,-0.298111 0.44313,-1.488303 -0.14573,-0.700741 -0.14788,-0.704488 -0.38995,-0.681952 -0.5581,0.05195 -3.00522,0.455532 -3.0937,0.510213 -0.0714,0.04411 -0.0492,0.373809 0.0865,1.285296 l 0.18245,1.225968 0.36448,-0.04996 c 0.20046,-0.02748 0.68969,-0.158912 1.08716,-0.29208 z m -7.20751,-0.02873 c -0.003,-0.148178 -0.0503,-0.567836 -0.10424,-0.932575 l -0.098,-0.663167 -1.28426,-0.02061 c -0.70635,-0.01134 -1.3381,0.01397 -1.40389,0.05623 -0.201,0.129117 0.0137,0.444259 0.54105,0.794317 0.40434,0.268387 2.09741,1.032056 2.2934,1.034453 0.0342,3.13e-4 0.0594,-0.120473 0.0559,-0.268648 z m 11.56027,-2.580057 c 0.42402,-0.412599 0.71172,-0.751919 0.65522,-0.772732 -0.0872,-0.03211 -2.08918,0.370397 -2.16555,0.43538 -0.0375,0.03188 0.14543,1.201793 0.20225,1.29373 0.0795,0.128615 0.53638,-0.205432 1.30808,-0.956378 z m -12.07035,-0.254 c 0.071,-0.07095 -0.48419,-2.892207 -0.59174,-3.007269 -0.0722,-0.0773 -0.33577,-0.08175 -1.13028,-0.01911 -0.56983,0.04493 -1.08268,0.09844 -1.13967,0.118922 -0.057,0.02049 -0.103,0.159642 -0.10224,0.309249 0.002,0.397213 0.30464,2.470757 0.37024,2.536808 0.13124,0.132159 2.46762,0.18747 2.59369,0.0614 z m -3.79427,-0.269507 c 0,-0.403087 -0.34616,-2.385916 -0.43561,-2.495175 -0.0659,-0.08049 -0.26355,-0.09312 -0.79997,-0.05116 -0.39186,0.03067 -0.72415,0.06558 -0.73843,0.0776 -0.0143,0.01203 0.13058,0.333464 0.32191,0.71432 0.63417,1.262383 1.17016,1.977352 1.48236,1.977352 0.12898,0 0.16974,-0.05353 0.16974,-0.22294 z m 7.12417,0.129189 c 0.52699,-0.05156 0.98915,-0.121726 1.02704,-0.155917 0.0379,-0.03419 -0.046,-0.700374 -0.18652,-1.480407 -0.14047,-0.780033 -0.25539,-1.443152 -0.25539,-1.473603 0,-0.06496 -2.77415,0.02936 -3.04261,0.103457 -0.1435,0.03961 -0.17481,0.09748 -0.14592,0.269716 0.11532,0.68737 0.46704,2.562205 0.50378,2.685438 0.0531,0.178068 0.65408,0.192755 2.09962,0.05132 z m 4.07877,-0.575942 c 0.83437,-0.140367 1.54604,-0.273131 1.58147,-0.295028 0.0354,-0.0219 0.0644,-0.179048 0.0644,-0.349221 0,-0.506256 -0.2527,-2.285655 -0.33668,-2.370717 -0.049,-0.04963 -0.51974,-0.02547 -1.27456,0.0654 -1.78132,0.214468 -2.20196,0.299681 -2.20196,0.446077 0,0.196574 0.41772,2.613978 0.46486,2.690268 0.0577,0.09333 -9.4e-4,0.09972 1.70245,-0.186781 z m 4.98244,-0.947529 c 0.16251,-0.04182 0.22796,-0.11144 0.22796,-0.242468 0,-0.270246 -0.41917,-2.14869 -0.49811,-2.232193 -0.0651,-0.06882 -2.04813,0.144635 -2.1331,0.229601 -0.0424,0.04238 0.29595,2.528837 0.35769,2.628735 0.0291,0.04707 1.29276,-0.189948 2.04556,-0.383675 z m 1.84106,-1.13906 c 0.34366,-0.748395 0.54219,-1.332981 0.54219,-1.596566 0,-0.176163 -0.0294,-0.196537 -0.22796,-0.157844 -0.12538,0.02444 -0.41448,0.07039 -0.64244,0.102122 -0.39956,0.05562 -0.41553,0.06812 -0.44359,0.347257 -0.0338,0.336622 0.31402,1.906025 0.42248,1.906025 0.0403,0 0.19753,-0.270447 0.34932,-0.600994 z m -20.30607,-6.646452 c -0.8515,-0.317922 -1.04822,-1.34035 -0.38989,-2.0263 0.34135,-0.355669 0.36496,-0.361597 2.04667,-0.513839 0.54649,-0.04947 1.15557,-0.06566 1.35351,-0.03598 0.44043,0.06605 0.95765,0.50203 1.0972,0.924872 0.13189,0.399616 -0.0317,0.962731 -0.38121,1.312246 -0.31591,0.315901 -0.5516,0.360309 -2.23416,0.420965 -0.9066,0.03268 -1.23309,0.01476 -1.49212,-0.08196 z m 14.87475,-1.421259 c -0.36738,-0.238128 -0.59373,-0.653488 -0.60049,-1.101936 -0.0119,-0.788943 0.38628,-1.060235 2.22198,-1.513884 1.30401,-0.322255 1.92089,-0.352038 2.24744,-0.108508 0.58607,0.437069 0.76016,1.079739 0.45468,1.678521 -0.24117,0.472757 -0.59775,0.63354 -1.97017,0.888377 -1.5936,0.295909 -2.08871,0.329028 -2.35344,0.15743 z" style="fill:#000000;stroke-width:1" sodipodi:nodetypes="csscsssssssssccssssssssssssssscsscssssccsscccccccscscccccccccccccccsccccccccccccsccccccccsscccccscccccccsscscccsscccssscscsscsscccscccssscsc"/>
    </g>
    <g id="g138734">
      <ellipse style="opacity:1;fill:#7eba6c;fill-opacity:1;fill-rule:evenodd;stroke:none;stroke-width:2;stroke-linecap:round;stroke-linejoin:round;stroke-miterlimit:4;stroke-dasharray:none;stroke-opacity:1" id="ellipse138613" cx="-282.68552" cy="62.635582" rx="17.149967" ry="17.295309"/>
      <path id="path138628" d="m -276.58118,60.600811 -1.01754,3.488088 3.1976,1.017544 0.7265,-3.34312 0.14552,-0.580982 -2.32558,-0.291042 -0.7265,-0.290488 z m -9.59225,4.36011 -3.34312,2.180057 2.03509,3.488091 2.47054,-1.162513 -1.16251,-3.488091 0,-1.017544 z" style="fill:#f6f0f0;fill-opacity:1;fill-rule:evenodd;stroke:none;stroke-width:0.28222221px;stroke-linecap:butt;stroke-linejoin:miter;stroke-opacity:1" inkscape:connector-curvature="0"/>
      <path sodipodi:nodetypes="cssssssssssscccsssssssccssssccccssscssscssssccsscsscscccsccsscsccssccscscccccsccccscscsscc" style="fill:#000000;stroke-width:1" d="m -285.08618,79.919199 c -4.51673,-0.547826 -8.41245,-2.64462 -11.29552,-6.079596 -1.77218,-2.111413 -3.02851,-4.753135 -3.61822,-7.608068 -0.32722,-1.584187 -0.37233,-4.772967 -0.0912,-6.447907 0.86392,-5.147336 3.40601,-9.219253 7.42658,-11.895852 2.21443,-1.474207 5.33758,-2.725309 7.63208,-3.057332 1.17372,-0.169844 3.57464,-0.342708 4.62989,-0.333346 2.18269,0.01936 4.57123,0.837208 6.93233,2.373647 3.8525,2.506953 6.6959,6.687547 7.99329,11.752343 0.59445,2.32063 0.78335,5.349564 0.46309,7.426002 -1.04059,6.747221 -5.85139,11.902939 -12.48736,13.382688 -1.70167,0.379455 -2.86839,0.506677 -4.93229,0.537829 -1.09422,0.01651 -2.28792,-0.0062 -2.65266,-0.05041 z m 5.05663,-1.277413 c 3.39913,-0.443877 6.23947,-1.574525 8.33153,-3.316522 1.0254,-0.853816 2.33162,-2.267915 2.95227,-3.196076 1.0652,-1.592979 1.8872,-3.567856 2.2673,-5.447272 0.36489,-1.804194 0.30613,-4.854812 -0.13114,-6.809246 -0.86012,-3.844308 -2.37359,-6.822815 -4.71591,-9.28085 -2.21804,-2.327613 -4.77541,-3.846463 -7.57421,-4.498404 -0.90158,-0.210009 -3.2277,-0.299289 -4.24184,-0.162806 -0.51554,0.06938 -0.81825,0.0695 -1.16919,3.13e-4 -0.57544,-0.11321 -1.21338,0.0091 -2.84783,0.546209 -5.29937,1.741317 -9.13229,5.222996 -10.86152,9.866185 -0.89662,2.407516 -1.35004,5.564589 -1.12507,7.833639 0.7174,7.235828 5.71704,12.901681 12.61357,14.294347 0.57282,0.11567 1.41213,0.245726 1.86516,0.289013 1.08168,0.10335 3.38884,0.0443 4.63688,-0.118675 z m -8.28186,-7.687968 c -0.15,-0.152013 -0.42208,-0.630635 -0.62438,-1.098367 -0.66289,-1.532708 -0.93957,-2.113842 -1.0064,-2.113842 -0.13893,0 -1.39176,1.069835 -2.1842,1.865155 -1.18376,1.188064 -1.40902,1.312387 -1.66632,0.919698 -0.11586,-0.176824 -0.11703,-0.231972 -0.0104,-0.487245 0.0662,-0.15832 0.38305,-0.586049 0.70421,-0.950512 1.92252,-2.18175 4.98612,-3.946521 8.31662,-4.79076 1.67322,-0.424138 2.65415,-0.547092 4.82542,-0.604832 l 2.0622,-0.05484 0.51521,-1.51259 c 0.28337,-0.831923 0.58637,-1.59186 0.67335,-1.688747 0.15275,-0.170147 0.20623,-0.174612 1.56738,-0.130855 1.4788,0.04754 2.16127,0.168364 2.31191,0.409303 0.10493,0.167829 -0.0921,1.19225 -0.55937,2.907973 l -0.2894,1.062723 0.38096,0.222159 c 0.95395,0.556298 1.90918,1.243125 2.44453,1.757659 0.52885,0.508286 0.57767,0.582565 0.52387,0.796932 -0.14173,0.564663 -0.43281,0.583164 -1.09564,0.06964 -1.58127,-1.225078 -2.29675,-1.630202 -3.71686,-2.104576 -1.58845,-0.530604 -2.26445,-0.623443 -4.55927,-0.626159 -1.51723,-0.0019 -2.21228,0.0329 -2.928,0.146161 -0.96145,0.152144 -2.72104,0.567391 -2.952,0.696646 -0.11141,0.06234 -0.0551,0.286779 0.41237,1.644176 0.64191,1.863841 0.72662,2.198747 0.62428,2.467943 -0.0774,0.203502 -0.61802,0.471962 -2.35827,1.171011 -0.91125,0.366049 -1.07345,0.36905 -1.41183,0.02613 z m 1.63474,-1.233074 c 0.46443,-0.188068 0.89292,-0.387105 0.95219,-0.442304 0.0878,-0.08177 0.0518,-0.26798 -0.19422,-1.005112 -0.49293,-1.476842 -0.78837,-2.18963 -0.90755,-2.18963 -0.16037,0 -1.90652,0.885376 -2.02304,1.025775 -0.0777,0.09366 0.006,0.361618 0.41008,1.305244 0.615,1.437795 0.72112,1.64797 0.8321,1.64797 0.0473,0 0.466,-0.153874 0.93044,-0.341943 z m 12.02752,-5.647267 c 0.15884,-0.246184 0.75624,-2.532867 0.68129,-2.607813 -0.032,-0.03204 -0.51854,-0.07358 -1.0811,-0.09231 l -1.02285,-0.03405 -0.39093,1.172991 c -0.21501,0.645145 -0.36994,1.227694 -0.34428,1.294554 0.027,0.07044 0.16104,0.124351 0.31866,0.128196 0.14961,0.0036 0.49583,0.07384 0.76939,0.155992 0.69944,0.210037 0.92536,0.206328 1.06982,-0.01754 z m -12.91637,-6.155379 c -0.42102,-0.147464 -0.62486,-0.35867 -0.70985,-0.735512 -0.12618,-0.55944 -0.0181,-0.927756 0.37972,-1.294488 0.39775,-0.366631 0.69441,-0.422769 1.10691,-0.209461 0.40498,0.20943 0.58368,0.512613 0.58164,0.986859 -0.004,0.996274 -0.57849,1.525768 -1.35842,1.252602 z m 6.26121,-0.983945 c -0.41415,-0.149823 -0.67328,-0.492214 -0.67328,-0.889568 0,-0.640486 0.38113,-1.032047 0.98906,-1.016106 0.40018,0.0105 0.64041,0.145274 0.83877,0.47059 0.31332,0.513863 0.1365,1.100012 -0.41702,1.382399 -0.37167,0.18961 -0.36113,0.188858 -0.73753,0.05269 z" id="path138574" inkscape:connector-curvature="0"/>
    </g>
    <g id="g138752">
      <ellipse ry="17.295309" rx="16.495943" cy="102.74907" cx="-283.48489" id="ellipse138611" style="opacity:1;fill:#e36f35;fill-opacity:1;fill-rule:evenodd;stroke:none;stroke-width:2;stroke-linecap:round;stroke-linejoin:round;stroke-miterlimit:4;stroke-dasharray:none;stroke-opacity:1"/>
      <path inkscape:connector-curvature="0" id="path138576" d="m -286.4348,120.4942 c -1.68192,-0.25954 -3.69272,-0.98221 -5.09985,-1.83286 -1.49708,-0.90503 -3.37106,-2.55094 -4.66036,-4.09319 -2.05909,-2.46306 -3.35353,-5.49685 -3.90426,-9.15046 -0.20586,-1.36574 -0.21031,-4.33279 -0.009,-5.683196 0.53307,-3.567272 1.63564,-6.052567 3.85279,-8.684538 1.50526,-1.786881 2.84672,-2.867328 4.72802,-3.808087 1.21551,-0.607814 1.86212,-0.833558 4.43454,-1.548216 2.0256,-0.562745 2.73671,-0.663314 4.24444,-0.600273 4.15493,0.173709 8.80979,2.420637 11.63359,5.615601 1.86898,2.114643 3.39905,5.142017 4.16477,8.240327 0.13556,0.548496 0.2663,1.071872 0.29054,1.163062 0.10824,0.40716 0.17899,3.47986 0.11741,5.09966 -0.0626,1.64755 -0.0894,1.86434 -0.358,2.89977 -0.85009,3.27713 -2.14531,5.51922 -4.50147,7.79219 -2.40856,2.32354 -5.03566,3.72582 -8.21398,4.38443 -1.58863,0.3292 -5.2027,0.43988 -6.71967,0.20578 z m 4.95675,-1.27864 c 4.32516,-0.53662 7.96449,-2.61033 10.53985,-6.00568 1.47402,-1.94333 2.53607,-4.6075 2.79932,-7.02214 0.11032,-1.01197 0.1116,-3.99738 0.002,-5.03918 -0.23216,-2.209773 -1.5145,-5.558408 -2.95792,-7.724199 -2.45296,-3.680527 -6.77827,-6.260702 -11.37888,-6.787853 -0.9499,-0.108843 -2.30305,-0.06536 -2.69555,0.0866 -0.13677,0.05296 -0.60798,0.168346 -1.04712,0.256404 -0.43914,0.08807 -0.96138,0.217926 -1.16054,0.288561 -0.19915,0.07064 -0.74815,0.182909 -1.21999,0.249483 -1.31629,0.185728 -2.5113,0.74572 -4.07441,1.909318 -2.61792,1.948829 -4.45084,4.46598 -5.43997,7.470714 -0.79588,2.417695 -1.08795,4.859472 -0.85695,7.164262 0.39086,3.89988 1.58138,7.04024 3.61393,9.53283 0.61879,0.75885 1.93936,2.08278 2.6846,2.69143 1.98168,1.6185 4.10785,2.55755 6.54715,2.89165 0.97223,0.13317 3.69695,0.15534 4.64433,0.0378 z m -5.93209,-3.05964 c -0.52163,-0.20905 -0.49818,-0.88395 0.07,-2.01442 0.7056,-1.4039 1.79728,-2.498 3.15455,-3.16156 2.50832,-1.22632 4.29327,-0.91451 6.35797,1.11068 1.07662,1.05601 1.34221,1.54617 1.00375,1.85247 -0.33765,0.30556 -0.52322,0.20183 -1.77825,-0.99415 -1.11566,-1.06314 -1.80609,-1.4424 -2.73434,-1.50198 -2.0786,-0.13339 -4.58136,1.69412 -5.24792,3.83204 -0.11461,0.36756 -0.23473,0.70948 -0.26694,0.75981 -0.0867,0.13546 -0.36665,0.19413 -0.55883,0.11711 z m -3.5684,-16.414006 c -0.26688,-0.107963 -0.61501,-0.570986 -0.61441,-0.81717 9.4e-4,-0.243363 0.21375,-0.612664 0.46203,-0.800529 0.33599,-0.254226 0.95626,-0.09339 1.16011,0.300812 0.25592,0.494911 0.0972,1.02647 -0.38016,1.273334 -0.26695,0.138046 -0.3754,0.145574 -0.62757,0.04355 z m 11.27229,-1.113379 c -0.49196,-0.49196 -0.34017,-1.23522 0.30496,-1.493356 0.65443,-0.261852 1.23689,0.134355 1.23689,0.841372 0,0.310411 -0.0455,0.415616 -0.28184,0.651984 -0.23105,0.231054 -0.34459,0.281844 -0.63001,0.281844 -0.28541,0 -0.39895,-0.05079 -0.63,-0.281844 z" style="fill:#000000;stroke-width:1" sodipodi:nodetypes="cssscssssssccssscccsscsscccssssssscccssssscccccccsccccssscss"/>
    </g>
    <g id="g138720">
      <ellipse ry="17.149971" rx="17.077297" cy="19.179298" cx="-242.49936" id="ellipse138609" style="opacity:1;fill:#b881d3;fill-opacity:1;fill-rule:evenodd;stroke:none;stroke-width:2;stroke-linecap:round;stroke-linejoin:round;stroke-miterlimit:4;stroke-dasharray:none;stroke-opacity:1"/>
      <path sodipodi:nodetypes="cssscsssssssccssscssssscsssccccscsscsscsssscssscccscccssccsccssscsccccccc" style="fill:#000000;stroke-width:1" d="m -245.29626,36.39332 c -2.88764,-0.326252 -5.87629,-1.590604 -8.28957,-3.506908 -0.9085,-0.721417 -2.4047,-2.245233 -3.06926,-3.12595 -1.67029,-2.213519 -2.70232,-4.752608 -3.16115,-7.777275 -0.17765,-1.171117 -0.19894,-3.900098 -0.0395,-5.056635 0.56156,-4.072263 2.2185,-7.8510083 4.72538,-10.7764353 2.89349,-3.3765883 6.45572,-4.9811121 11.52736,-5.19222741 3.1941,-0.13296099 6.14497,0.64353151 9.06082,2.38426221 5.01193,2.9920672 8.39886,7.6254215 9.62707,13.1699215 0.44032,1.987732 0.50033,5.023061 0.13359,6.756 -0.41304,1.951673 -1.25067,3.977306 -2.27974,5.513109 -2.81686,4.203937 -7.92973,6.994987 -13.96591,7.623834 -0.94776,0.09873 -3.34994,0.09216 -4.26913,-0.01169 z m 4.28106,-1.317297 c 2.22191,-0.226665 4.66445,-0.915955 6.57186,-1.854593 4.30565,-2.118794 7.11188,-5.598842 8.10916,-10.056272 0.15365,-0.686781 0.1811,-1.065559 0.18175,-2.5083 0.001,-2.50972 -0.24157,-4.06242 -0.91686,-5.865451 -1.15418,-3.081611 -3.03016,-5.7821244 -5.50249,-7.920936 -2.68671,-2.3242797 -5.724,-3.7425898 -8.91128,-4.1612644 -1.17456,-0.1542878 -3.95385,-0.1784468 -5.05664,-0.043951 -2.50923,0.3060221 -4.6112,1.3649791 -6.66108,3.3558129 -3.45007,3.3506842 -5.48268,8.1984155 -5.48307,13.0769795 0,4.716249 1.35636,8.275549 4.30182,11.285575 2.66848,2.726994 5.71778,4.299319 9.10028,4.692434 0.8522,0.09904 3.29554,0.09902 4.26655,-3.4e-5 z m -3.08509,-4.886337 c -4.52315,-0.520784 -8.03844,-3.91176 -8.937,-8.620975 -0.0913,-0.478723 -0.1908,-1.032868 -0.221,-1.231432 l -0.0549,-0.361023 -0.52968,0.05672 c -0.93035,0.09963 -1.4152,-0.193793 -1.1542,-0.698517 0.1325,-0.256213 0.12829,-0.254511 1.32705,-0.536516 0.31843,-0.07491 0.77161,-0.224399 1.00707,-0.332198 0.70655,-0.32347 0.9051,-0.340492 1.14722,-0.09837 0.11526,0.115253 0.20955,0.288721 0.20955,0.385486 0,0.172986 -0.2809,0.501297 -0.63682,0.744294 l -0.18089,0.123502 0.24273,1.117668 c 0.3066,1.411762 0.4873,1.952425 0.95881,2.868746 1.28072,2.488938 3.2486,4.157483 5.68401,4.819399 0.41313,0.112283 0.87775,0.142129 2.22173,0.142712 1.47659,6.26e-4 1.7936,-0.02309 2.41824,-0.180954 2.7585,-0.697194 5.18551,-2.476455 6.24089,-4.575264 0.88581,-1.761578 0.99878,-3.705654 0.33198,-5.712946 -0.35865,-1.079676 -0.50801,-1.303082 -0.95094,-1.422349 -0.44722,-0.120422 -0.59364,-0.289225 -0.56323,-0.649287 0.0314,-0.371894 0.14431,-0.408755 1.28589,-0.419902 0.46546,-0.0045 1.11827,-0.04847 1.45068,-0.0976 0.83422,-0.123318 1.0603,-0.03441 1.0603,0.416957 0,0.36571 -0.12407,0.486878 -0.67836,0.662493 l -0.30532,0.09674 0.24527,0.546676 c 0.55909,1.246098 0.78942,3.039825 0.57856,4.505654 -0.66947,4.654086 -5.18039,8.269539 -10.58472,8.483547 -0.54184,0.02146 -1.26764,0.0065 -1.6129,-0.03326 z m -3.13193,-6.141154 c -0.69399,-0.346787 -1.09979,-0.901302 -1.21324,-1.657852 -0.0702,-0.467748 0.0449,-0.914307 0.36616,-1.420817 0.67411,-1.062964 2.46507,-1.15183 3.33125,-0.165294 0.7714,0.878568 0.68518,2.205214 -0.19213,2.956156 -0.68996,0.590573 -1.4861,0.690543 -2.29204,0.287807 z m 7.48997,-2.182368 c -0.39604,-0.176025 -0.85388,-0.699607 -1.03494,-1.183528 -0.41219,-1.101657 -0.0198,-2.25741 0.93277,-2.747635 0.30854,-0.15878 0.517,-0.201819 0.96399,-0.199018 0.90192,0.0056 1.64475,0.420275 2.02145,1.128323 0.23933,0.449877 0.26111,1.60651 0.0379,2.016653 -0.1963,0.360798 -0.70813,0.8509 -1.03269,0.988849 -0.34291,0.145753 -1.55768,0.14341 -1.88853,-0.0036 z" id="path138578" inkscape:connector-curvature="0"/>
    </g>
    <g id="g138739">
      <ellipse style="opacity:1;fill:#8199d3;fill-opacity:1;fill-rule:evenodd;stroke:none;stroke-width:2;stroke-linecap:round;stroke-linejoin:round;stroke-miterlimit:4;stroke-dasharray:none;stroke-opacity:1" id="ellipse138607" cx="-242.71736" cy="61.618206" rx="16.423273" ry="17.149971"/>
      <path inkscape:connector-curvature="0" id="path138584" d="m -244.95502,79.090234 c -7.32461,-0.772542 -13.45441,-5.993305 -14.71668,-12.534226 -1.18357,-6.133122 0.87533,-12.618781 5.48775,-17.286726 2.19373,-2.220146 4.94084,-3.865723 7.6857,-4.603901 1.04432,-0.280848 3.67827,-0.840965 4.55233,-0.968064 1.06151,-0.154356 2.91606,-0.05996 3.91968,0.199511 3.60795,0.932779 7.02472,3.573843 9.5605,7.389994 2.21573,3.334478 3.22912,6.571476 3.21804,10.279063 -0.009,2.887053 -0.59118,5.261509 -1.89663,7.730711 -0.87301,1.651248 -1.82672,2.880524 -3.49096,4.499614 -1.10704,1.077006 -1.59687,1.468649 -2.88821,2.309234 -3.47842,2.264241 -7.73234,3.374947 -11.43152,2.98479 z m 3.88644,-1.444174 c 3.50469,-0.527498 7.09996,-2.383375 9.74905,-5.032463 2.2389,-2.238901 3.78321,-5.062744 4.38711,-8.022021 0.22507,-1.102901 0.308,-3.371331 0.17336,-4.741655 -0.27194,-2.767646 -1.56457,-5.869718 -3.56864,-8.564108 -0.80023,-1.075885 -2.98147,-3.246848 -3.94344,-3.924868 -0.90851,-0.640342 -2.57024,-1.46076 -3.85495,-1.903243 l -0.9536,-0.328442 -2.23788,0.06948 c -1.91034,0.05931 -2.38955,0.101007 -3.27408,0.284865 -5.54545,1.152683 -9.7491,4.536016 -12.36,9.948001 -1.68102,3.484482 -2.20433,7.330438 -1.47762,10.859334 0.40365,1.960067 1.38735,4.070471 2.60817,5.595456 1.03543,1.293417 2.97828,2.954088 4.49841,3.845072 1.51604,0.888591 4.13953,1.758423 6.15077,2.039328 0.72422,0.101147 3.07793,0.02961 4.10334,-0.124736 z m 1.50144,-7.342168 c -0.11808,-0.09288 -0.44762,-0.511541 -0.73233,-0.930369 -0.62407,-0.918067 -1.25079,-1.555091 -1.83077,-1.860878 -0.38997,-0.20561 -0.51235,-0.226962 -1.30087,-0.226962 -0.75539,0 -0.92517,0.02682 -1.28488,0.202947 -0.57289,0.280513 -1.24064,0.93443 -1.58741,1.55452 -0.28641,0.512147 -0.61394,0.853748 -0.81856,0.853748 -0.24944,0 -0.47654,-0.300452 -0.47654,-0.63047 0,-0.40377 0.15872,-0.726498 0.74152,-1.507734 0.79699,-1.068369 1.80872,-1.650038 3.01837,-1.735354 1.81412,-0.127952 3.20555,0.634824 4.34413,2.381436 0.77059,1.182096 0.87041,1.691316 0.38113,1.944336 -0.22028,0.113912 -0.25602,0.110349 -0.45379,-0.04522 z m 3.91727,-5.003958 c -1.02548,-0.26038 -1.73194,-1.150414 -1.72803,-2.177095 0.003,-0.815223 0.46028,-1.560366 1.20016,-1.95605 0.43557,-0.232944 1.40103,-0.248314 1.9635,-0.03127 0.43398,0.167465 0.92697,0.660425 1.12345,1.123401 0.20882,0.492038 0.17494,1.138248 -0.0897,1.710684 -0.28323,0.612662 -0.4806,0.829711 -0.99049,1.089245 -0.5444,0.277104 -1.02711,0.355791 -1.47889,0.241077 z m -15.16945,-0.501554 c -0.43813,-0.140467 -0.98876,-0.646332 -1.25813,-1.15585 -0.13826,-0.261532 -0.17805,-0.48392 -0.1798,-1.005128 -0.002,-0.602297 0.0229,-0.709949 0.24863,-1.075452 0.35127,-0.568689 0.89448,-0.891175 1.57403,-0.934446 0.967,-0.06157 1.70361,0.33265 2.14834,1.149762 0.44051,0.809384 0.26054,1.983174 -0.38773,2.528656 -0.63831,0.537101 -1.43539,0.720072 -2.14534,0.492458 z" style="fill:#000000;stroke-width:1" sodipodi:nodetypes="ssssssscssssssssssscsssssssscssssssssssscccsscssccscccscss"/>
    </g>
    <g id="g138756">
      <ellipse ry="17.149971" rx="18.312677" cy="103.18508" cx="-240.9733" id="ellipse138600" style="opacity:1;fill:#e3e335;fill-opacity:1;fill-rule:evenodd;stroke:none;stroke-width:2;stroke-linecap:round;stroke-linejoin:round;stroke-miterlimit:4;stroke-dasharray:none;stroke-opacity:1"/>
      <path inkscape:connector-curvature="0" id="path138622" d="m -248.96694,107.25457 5.08685,-0.29068 0.29068,3.77881 -0.87203,2.6161 -1.16271,0.72669 -1.30805,0.58136 -1.59872,-2.47076 -0.43602,-1.8894 0.14534,-1.88941 z" style="fill:#d67874;fill-opacity:1;fill-rule:evenodd;stroke:none;stroke-width:0.28222221px;stroke-linecap:butt;stroke-linejoin:miter;stroke-opacity:1"/>
      <path sodipodi:nodetypes="cssscssssssssssccsssccscscsscssccscsccccssscssccccscccscccccccccccccccscssccccsscccc" style="fill:#000000;stroke-width:1" d="m -244.09007,120.53387 c -2.50241,-0.2613 -5.34137,-1.2067 -7.73689,-2.57644 -3.19452,-1.8266 -5.25032,-3.86565 -6.56717,-6.51369 -0.75842,-1.52508 -1.3704,-3.55424 -1.53052,-5.07476 -0.10933,-1.03824 -0.10804,-3.82299 0.002,-4.90077 0.22679,-2.215738 1.15911,-4.983283 2.33768,-6.939356 1.46052,-2.423983 4.29674,-5.223768 6.90022,-6.811545 1.44012,-0.878295 3.24001,-1.636566 4.72505,-1.990615 0.36474,-0.08696 1.33462,-0.261676 2.15529,-0.388274 1.96246,-0.30272 3.84857,-0.314416 5.18097,-0.03211 3.39638,0.719602 7.45706,2.509212 9.70833,4.278619 0.91317,0.71772 2.3516,2.204766 3.10637,3.211376 2.33941,3.120003 3.76728,7.043928 3.98021,10.937935 0.14532,2.65778 -0.79342,6.04535 -2.33211,8.4157 -1.51237,2.32984 -3.39202,3.97561 -6.25613,5.47773 -4.15773,2.18057 -9.582,3.33346 -13.67358,2.9062 z m 4.59651,-1.68111 c 3.20076,-0.46823 6.48668,-1.56676 9.05283,-3.02651 3.41785,-1.94423 5.64304,-4.85128 6.59906,-8.62118 0.25938,-1.02283 0.26397,-1.07444 0.25863,-2.90647 -0.005,-1.6997 -0.0258,-1.96442 -0.23471,-2.98425 -1.00527,-4.907114 -3.68966,-8.958339 -7.47128,-11.275506 -1.99891,-1.224825 -5.61339,-2.662425 -7.8162,-3.108768 -0.55358,-0.112176 -0.81147,-0.119495 -1.60172,-0.04547 -0.51805,0.04853 -1.66931,0.089 -2.55837,0.08995 -2.26094,0.0025 -3.00384,0.18257 -5.26387,1.276502 -3.29811,1.596406 -6.21133,4.26907 -7.90371,7.251073 -1.41949,2.501154 -2.11622,5.242689 -2.11967,8.340539 -0.002,1.74317 0.1,2.66021 0.4594,4.13235 0.98826,4.04808 3.38243,6.81341 7.86462,9.08384 1.89866,0.96176 3.96189,1.61882 5.7198,1.82153 0.43313,0.0499 0.89942,0.1066 1.03619,0.12589 0.48818,0.0689 3.16467,-0.0344 3.979,-0.15352 z m -7.65122,-4.27988 c -0.95453,-0.47698 -1.62759,-1.49286 -2.06718,-3.12009 -0.19346,-0.71614 -0.22011,-0.97214 -0.22431,-2.1551 l -0.005,-1.34242 -1.63442,-0.0254 c -1.86738,-0.0289 -1.95548,-0.0576 -1.85332,-0.60218 0.075,-0.39955 0.21367,-0.4452 1.78837,-0.58864 10.66565,-0.97155 11.61261,-1.07088 13.80213,-1.44775 1.63218,-0.28094 2.46002,-0.4619 5.30533,-1.15969 2.48585,-0.60964 2.80169,-0.65749 3.02227,-0.45787 0.23218,0.21013 0.29401,0.58997 0.13543,0.83199 -0.15448,0.23576 -0.56844,0.37526 -2.82612,0.95233 -3.86252,0.9873 -5.76897,1.32105 -9.8859,1.73062 -0.83239,0.0828 -1.53416,0.1713 -1.5595,0.19663 -0.0254,0.0253 9.4e-4,0.28309 0.0581,0.57278 0.13313,0.67335 0.13642,2.82711 0.006,3.63529 -0.13195,0.81488 -0.62307,1.81917 -1.15025,2.35214 -0.87669,0.88631 -1.93624,1.11461 -2.91139,0.62733 z m 1.4673,-1.19297 c 0.67335,-0.3482 1.22059,-1.3913 1.32531,-2.5262 0.082,-0.88869 -0.0138,-2.55044 -0.17484,-3.03205 l -0.11085,-0.33158 -0.4481,0.0194 c -0.24646,0.0107 -0.47612,0.048 -0.51036,0.0829 -0.0342,0.0349 -0.0243,0.74731 0.022,1.58309 0.0775,1.39717 0.0727,1.53244 -0.0597,1.67864 -0.27885,0.30812 -0.77557,0.15445 -0.94551,-0.29252 -0.037,-0.0974 -0.0944,-0.71646 -0.12755,-1.37564 -0.0331,-0.65918 -0.0943,-1.26379 -0.13587,-1.34358 -0.0816,-0.1564 -0.30166,-0.17829 -0.92866,-0.0923 l -0.3846,0.0527 9.4e-4,1.12855 c 0.003,2.99309 1.18562,5.11672 2.4776,4.44861 z m 1.22313,-11.33048 c -0.084,-0.0489 -0.20579,-0.21559 -0.27052,-0.37051 -0.10182,-0.24369 -0.10165,-0.32004 0.001,-0.5663 0.12359,-0.29579 0.48856,-0.54433 0.79933,-0.54433 0.20951,0 0.74189,0.50264 0.74189,0.70045 0,0.2102 -0.22693,0.60124 -0.43245,0.7452 -0.21187,0.14839 -0.61587,0.16547 -0.83948,0.0355 z m 4.04064,-0.68534 c -0.21387,-0.21387 -0.28184,-0.35228 -0.28184,-0.57391 0,-0.34229 0.28746,-0.72943 0.65454,-0.881478 0.34723,-0.143826 0.79142,0.07834 1.00888,0.504588 0.14671,0.2876 0.15146,0.34725 0.0473,0.5964 -0.27993,0.66999 -0.94772,0.83561 -1.42893,0.3544 z" id="path138588" inkscape:connector-curvature="0"/>
    </g>
  </g>
</svg>