<?xml version="1.0" encoding="UTF-8"?>
<!DOCTYPE svg PUBLIC "-//W3C//DTD SVG 1.1//EN" "http://www.w3.org/Graphics/SVG/1.1/DTD/svg11.dtd">
<svg version="1.1" xmlns="http://www.w3.org/2000/svg" xmlns:xlink="http://www.w3.org/1999/xlink" x="0" y="0" width="171" height="296" viewBox="0, 0, 171, 296">
  <g id="ãƒ_x00ac_ã_x201a__x00a4_ãƒ_x00a4_ãƒ_x00bc__x0020_1">
    <path d="M153.25,241.923 C153.466,238.683 154.834,234.651 159.514,231.915 C159.514,231.915 152.026,231.915 148.57,235.659 C148.57,235.659 143.098,226.443 146.554,224.067 C146.554,224.067 141.874,227.091 140.795,235.731 C126.251,230.043 106.307,226.515 84.276,226.515 C63.397,226.515 44.461,229.683 30.133,234.867 C29.917,232.635 30.277,230.115 31.933,227.811 C31.933,227.811 27.326,230.547 26.102,234.003 C26.102,234.003 26.894,228.603 22.214,225.507 C22.214,225.507 23.006,232.491 21.854,234.003 C21.854,234.003 19.118,229.755 12.566,228.963 C12.566,228.963 16.67,233.067 19.478,239.547 C9.47,244.947 3.566,251.571 3.566,258.843 C3.566,276.699 39.709,291.099 84.276,291.099 C128.843,291.099 164.986,276.627 164.986,258.843 C164.986,252.723 160.666,246.963 153.25,242.067 z" fill="#D2E396"/>
    <g>
      <g>
        <g>
          <g>
            <path d="M73.62,224.859 C73.62,224.859 62.317,241.995 61.957,248.187 C61.957,248.187 64.261,252.003 61.453,256.683 C58.645,261.363 52.597,257.691 50.293,257.331 C47.989,256.971 44.317,258.195 42.661,257.979 C41.005,257.835 37.981,255.963 36.685,255.675 C35.317,255.315 32.941,254.019 33.661,252.507 C34.453,250.923 36.613,251.211 36.613,251.211 C36.613,251.211 36.253,249.555 36.685,249.339 C37.621,248.763 38.989,248.979 38.989,248.979 C38.989,248.979 39.061,247.755 39.925,247.323 C40.573,246.963 42.085,247.899 42.085,247.899 C42.085,247.899 45.757,249.051 47.125,249.411 C48.421,249.771 51.949,248.547 52.453,247.107 C52.957,245.595 56.485,231.411 55.477,226.731 L73.836,224.931 z" fill="#FEE0C8"/>
            <path d="M73.62,224.859 C73.62,224.859 62.317,241.995 61.957,248.187 C61.957,248.187 64.261,252.003 61.453,256.683 C58.645,261.363 52.597,257.691 50.293,257.331 C47.989,256.971 44.317,258.195 42.661,257.979 C41.005,257.835 37.981,255.963 36.685,255.675 C35.317,255.315 32.941,254.019 33.661,252.507 C34.453,250.923 36.613,251.211 36.613,251.211 C36.613,251.211 36.253,249.555 36.685,249.339 C37.621,248.763 38.989,248.979 38.989,248.979 C38.989,248.979 39.061,247.755 39.925,247.323 C40.573,246.963 42.085,247.899 42.085,247.899 C42.085,247.899 45.757,249.051 47.125,249.411 C48.421,249.771 51.949,248.547 52.453,247.107 C52.957,245.595 56.485,231.411 55.477,226.731 L73.836,224.931 z" fill-opacity="0" stroke="#454545" stroke-width="2.501" stroke-linejoin="round"/>
          </g>
          <path d="M38.413,252.363 C38.413,252.363 37.693,251.787 36.613,251.283" fill-opacity="0" stroke="#454545" stroke-width="2.501" stroke-linecap="round" stroke-linejoin="round"/>
          <path d="M40.429,250.275 C40.429,250.275 39.709,249.411 38.917,249.051" fill-opacity="0" stroke="#454545" stroke-width="2.501" stroke-linecap="round" stroke-linejoin="round"/>
        </g>
        <g>
          <g>
            <path d="M95.364,217.803 C95.364,217.803 106.019,223.707 116.099,222.195 C126.179,220.683 128.051,219.603 128.051,219.603 C128.051,219.603 128.339,226.155 127.547,228.099 C126.827,230.043 126.611,233.427 127.331,233.571 C127.979,233.715 128.699,233.571 128.915,233.355 C128.915,233.355 129.275,235.155 130.643,235.371 C132.083,235.515 132.443,234.723 132.443,234.723 C132.443,234.723 134.099,235.803 135.827,234.723 C137.555,233.643 137.195,230.547 137.195,230.547 C137.195,230.547 139.067,228.603 139.643,224.931 C140.075,222.195 139.283,218.883 138.635,217.083 C137.987,215.283 137.627,212.907 138.059,211.395 C138.491,209.883 137.915,204.34 133.451,204.412 C130.139,204.484 127.331,209.163 125.171,209.523 C123.011,209.883 108.899,210.675 104.22,208.299 L101.268,206.139 L92.412,216.363 L95.22,217.875 z" fill="#FEE0C8"/>
            <path d="M95.364,217.803 C95.364,217.803 106.019,223.707 116.099,222.195 C126.179,220.683 128.051,219.603 128.051,219.603 C128.051,219.603 128.339,226.155 127.547,228.099 C126.827,230.043 126.611,233.427 127.331,233.571 C127.979,233.715 128.699,233.571 128.915,233.355 C128.915,233.355 129.275,235.155 130.643,235.371 C132.083,235.515 132.443,234.723 132.443,234.723 C132.443,234.723 134.099,235.803 135.827,234.723 C137.555,233.643 137.195,230.547 137.195,230.547 C137.195,230.547 139.067,228.603 139.643,224.931 C140.075,222.195 139.283,218.883 138.635,217.083 C137.987,215.283 137.627,212.907 138.059,211.395 C138.491,209.883 137.915,204.34 133.451,204.412 C130.139,204.484 127.331,209.163 125.171,209.523 C123.011,209.883 108.899,210.675 104.22,208.299 L101.268,206.139 L92.412,216.363 L95.22,217.875 z" fill-opacity="0" stroke="#454545" stroke-width="2.501" stroke-linejoin="round"/>
          </g>
          <path d="M131.867,231.987 C131.867,231.987 131.939,234.435 132.515,234.795" fill-opacity="0" stroke="#454545" stroke-width="2.501" stroke-linecap="round" stroke-linejoin="round"/>
          <path d="M128.987,231.123 C128.987,231.123 128.555,232.851 128.843,233.427" fill-opacity="0" stroke="#454545" stroke-width="2.501" stroke-linecap="round" stroke-linejoin="round"/>
        </g>
        <g>
          <g>
            <path d="M39.925,206.716 L49.573,228.243 C49.573,228.243 59.077,229.107 66.564,227.235 C74.052,225.435 80.388,220.251 80.388,220.251 L84.42,223.059 C84.42,223.059 95.22,219.387 103.068,210.027 C110.987,200.668 115.091,192.676 115.091,192.676 C115.091,192.676 101.412,178.852 95.076,174.82 L39.925,206.644 z" fill="#82AAD9"/>
            <path d="M39.925,206.716 L49.573,228.243 C49.573,228.243 59.077,229.107 66.564,227.235 C74.052,225.435 80.388,220.251 80.388,220.251 L84.42,223.059 C84.42,223.059 95.22,219.387 103.068,210.027 C110.987,200.668 115.091,192.676 115.091,192.676 C115.091,192.676 101.412,178.852 95.076,174.82 L39.925,206.644 z" fill-opacity="0" stroke="#454545" stroke-width="2.501" stroke-linejoin="round"/>
          </g>
          <path d="M80.46,220.251 L66.205,211.395 C66.205,211.395 72.972,211.755 74.484,213.051 C75.996,214.275 80.46,220.323 80.46,220.323 z" fill="#949595"/>
          <path d="M66.205,211.323 C66.205,211.323 72.972,211.683 74.484,212.979 C75.996,214.203 80.46,220.251 80.46,220.251" fill-opacity="0" stroke="#454545" stroke-width="2.501" stroke-linecap="round" stroke-linejoin="round"/>
          <path d="M78.732,217.947 C78.732,217.947 89.1,211.035 95.364,205.06 C105.155,195.7 106.739,184.9 106.739,184.9" fill-opacity="0" stroke="#454545" stroke-width="2.501" stroke-linecap="round" stroke-linejoin="round"/>
          <path d="M77.004,216.579 C77.004,216.579 61.597,224.715 46.981,221.547" fill-opacity="0" stroke="#454545" stroke-width="2.501" stroke-linecap="round" stroke-linejoin="round"/>
        </g>
        <g>
          <path d="M115.883,192.46 L106.235,185.548 C106.235,185.548 100.98,200.668 94.86,205.708 C88.74,210.675 79.236,217.227 79.236,217.227 L84.348,223.707 C84.348,223.707 99.468,214.707 103.5,210.171 C107.531,205.636 115.883,192.388 115.883,192.388 z" fill="#FFFFFF"/>
          <path d="M79.452,220.611 L77.22,217.011 C77.22,217.011 57.853,224.787 48.205,222.483 L49.861,228.243 C49.861,228.243 60.085,229.899 66.204,227.883 C72.324,225.867 79.452,220.611 79.452,220.611 z" fill="#FFFFFF"/>
          <path d="M71.46,218.307 L66.637,211.323 L73.116,212.115 L76.068,214.635 L76.644,216.003 z" fill="#798E9A"/>
          <path d="M76.212,222.771 L71.46,220.251 L77.94,217.155 L80.388,219.387 z" fill="#D7D7D7"/>
          <g>
            <path d="M93.636,182.524 L95.652,183.748" fill-opacity="0" stroke="#454545" stroke-width="1.5" stroke-linecap="round" stroke-linejoin="round"/>
            <path d="M97.668,184.9 L99.756,186.124" fill-opacity="0" stroke="#454545" stroke-width="1.5" stroke-linecap="round" stroke-linejoin="round"/>
            <path d="M101.628,187.852 L103.715,189.076" fill-opacity="0" stroke="#454545" stroke-width="1.5" stroke-linecap="round" stroke-linejoin="round"/>
            <path d="M89.028,188.5 L98.1,185.548" fill-opacity="0" stroke="#454545" stroke-width="1.5" stroke-linecap="round" stroke-linejoin="round"/>
          </g>
          <g>
            <path d="M39.925,206.715 L49.645,228.243" fill-opacity="0" stroke="#454545" stroke-width="2.501" stroke-linecap="round" stroke-linejoin="round"/>
            <path d="M49.645,228.243 C49.645,228.243 59.149,229.107 66.636,227.235 C74.124,225.435 80.46,220.251 80.46,220.251" fill-opacity="0" stroke="#454545" stroke-width="2.501" stroke-linecap="round" stroke-linejoin="round"/>
            <path d="M80.46,220.251 L84.492,223.059" fill-opacity="0" stroke="#454545" stroke-width="2.501" stroke-linecap="round" stroke-linejoin="round"/>
            <path d="M84.492,223.059 C84.492,223.059 95.292,219.387 103.14,210.027 C111.059,200.668 115.163,192.676 115.163,192.676 C115.163,192.676 101.484,178.852 95.148,174.82" fill-opacity="0" stroke="#454545" stroke-width="2.501" stroke-linecap="round" stroke-linejoin="round"/>
            <path d="M95.148,174.892 L39.925,206.716" fill-opacity="0" stroke="#454545" stroke-width="2.501" stroke-linecap="round" stroke-linejoin="round"/>
            <path d="M66.205,211.323 C66.205,211.323 72.972,211.683 74.484,212.979 C75.996,214.203 80.46,220.251 80.46,220.251" fill-opacity="0" stroke="#454545" stroke-width="2.501" stroke-linecap="round" stroke-linejoin="round"/>
            <path d="M78.732,217.947 C78.732,217.947 89.1,211.035 95.364,205.06 C105.155,195.7 106.739,184.9 106.739,184.9" fill-opacity="0" stroke="#454545" stroke-width="2.501" stroke-linecap="round" stroke-linejoin="round"/>
            <path d="M77.004,216.579 C77.004,216.579 61.597,224.715 46.981,221.547" fill-opacity="0" stroke="#454545" stroke-width="2.501" stroke-linecap="round" stroke-linejoin="round"/>
          </g>
        </g>
        <g>
          <path d="M39.925,206.715 L49.645,228.243" fill-opacity="0" stroke="#454545" stroke-width="2.501" stroke-linecap="round" stroke-linejoin="round"/>
          <path d="M49.645,228.243 C49.645,228.243 59.149,229.107 66.636,227.235 C74.124,225.435 80.46,220.251 80.46,220.251" fill-opacity="0" stroke="#454545" stroke-width="2.501" stroke-linecap="round" stroke-linejoin="round"/>
          <path d="M80.46,220.251 L84.492,223.059" fill-opacity="0" stroke="#454545" stroke-width="2.501" stroke-linecap="round" stroke-linejoin="round"/>
          <path d="M84.492,223.059 C84.492,223.059 95.292,219.387 103.14,210.027 C111.059,200.668 115.163,192.676 115.163,192.676 C115.163,192.676 101.484,178.852 95.148,174.82" fill-opacity="0" stroke="#454545" stroke-width="2.501" stroke-linecap="round" stroke-linejoin="round"/>
          <path d="M95.148,174.892 L39.925,206.715" fill-opacity="0" stroke="#454545" stroke-width="2.501" stroke-linecap="round" stroke-linejoin="round"/>
          <path d="M66.205,211.323 C66.205,211.323 72.972,211.683 74.484,212.979 C75.996,214.203 80.46,220.251 80.46,220.251" fill-opacity="0" stroke="#454545" stroke-width="2.501" stroke-linecap="round" stroke-linejoin="round"/>
          <path d="M78.732,217.947 C78.732,217.947 89.1,211.035 95.364,205.06 C105.155,195.7 106.739,184.9 106.739,184.9" fill-opacity="0" stroke="#454545" stroke-width="2.501" stroke-linecap="round" stroke-linejoin="round"/>
          <path d="M77.004,216.579 C77.004,216.579 61.597,224.715 46.981,221.547" fill-opacity="0" stroke="#454545" stroke-width="2.501" stroke-linecap="round" stroke-linejoin="round"/>
        </g>
      </g>
      <path d="M131.075,143.644 L67.572,64.301 L70.812,61.709 L134.315,141.052 z" fill="#454545"/>
      <g>
        <path d="M90.108,88.781 C90.108,88.781 93.492,88.565 93.492,86.549 C93.492,84.533 93.276,81.653 93.348,81.293 C93.492,80.933 90.612,78.917 89.82,78.269 C89.1,77.621 88.452,76.037 87.444,76.109 C86.436,76.253 85.068,76.829 84.06,77.837 C83.052,78.845 82.332,81.581 82.332,81.581 L83.052,85.325 L90.036,88.709 z" fill="#FEE0C8"/>
        <path d="M90.108,88.781 C90.108,88.781 93.492,88.565 93.492,86.549 C93.492,84.533 93.276,81.653 93.348,81.293 C93.492,80.933 90.612,78.917 89.82,78.269 C89.1,77.621 88.452,76.037 87.444,76.109 C86.436,76.253 85.068,76.829 84.06,77.837 C83.052,78.845 82.332,81.581 82.332,81.581 L83.052,85.325 L90.036,88.709 z" fill-opacity="0" stroke="#454545" stroke-width="2.501" stroke-linejoin="round"/>
      </g>
      <g>
        <path d="M92.772,96.844 C92.772,96.844 91.044,84.389 77.652,77.549 C64.261,70.637 54.613,75.173 52.021,77.549 C49.429,79.925 49.429,81.581 49.429,81.581 L89.82,102.244 L92.772,96.916 z" fill="#FFDC9E"/>
        <path d="M92.772,96.844 C92.772,96.844 91.044,84.389 77.652,77.549 C64.261,70.637 54.613,75.173 52.021,77.549 C49.429,79.925 49.429,81.581 49.429,81.581 L89.82,102.244 L92.772,96.916 z" fill-opacity="0" stroke="#454545" stroke-width="2.501" stroke-linejoin="round"/>
      </g>
      <g>
        <path d="M72.972,142.204 C72.972,142.204 98.316,150.34 106.667,139.396 C114.515,129.1 110.843,111.028 92.844,96.916 C74.844,82.733 56.485,76.109 35.965,77.045 C17.174,77.981 4.286,94.036 11.99,109.876 C19.622,125.572 34.309,131.548 44.821,135.22 C55.333,138.892 71.676,141.7 72.972,142.204 z" fill="#FFDC9E"/>
        <path d="M106.955,136.804 C106.955,136.804 96.012,138.316 93.492,136.588 C90.972,134.932 91.836,127.804 91.836,127.804 C91.836,127.804 88.668,134.212 85.428,135.58 C82.26,136.948 76.356,139.612 76.356,139.612 L75.276,140.476 L75.708,141.484 L82.116,142.996 C82.116,142.996 87.948,144.652 90.972,144.652 C93.996,144.652 103.572,142.06 104.579,140.908 C105.587,139.756 106.955,136.804 106.955,136.804 z" fill="#E7BD76"/>
        <g>
          <path d="M72.972,142.204 C72.972,142.204 98.316,150.34 106.667,139.396 C114.515,129.1 110.843,111.028 92.844,96.916 C74.844,82.733 56.485,76.109 35.965,77.045 C17.174,77.981 4.286,94.036 11.99,109.876 C19.622,125.572 34.309,131.548 44.821,135.22 C55.333,138.892 71.676,141.7 72.972,142.204" fill-opacity="0" stroke="#454545" stroke-width="2.501" stroke-linecap="round" stroke-linejoin="round"/>
          <g>
            <path d="M28.55,94.468 C28.55,94.468 22.142,87.701 15.95,87.125" fill-opacity="0" stroke="#454545" stroke-width="1.5" stroke-linecap="round" stroke-linejoin="round"/>
            <path d="M24.302,98.932 C23.942,98.716 18.686,93.964 12.278,92.164" fill-opacity="0" stroke="#454545" stroke-width="1.5" stroke-linecap="round" stroke-linejoin="round"/>
            <path d="M19.694,100.66 C19.694,100.66 24.806,89.645 30.061,86.261" fill-opacity="0" stroke="#454545" stroke-width="1.5" stroke-linecap="round" stroke-linejoin="round"/>
            <path d="M15.086,96.916 C15.086,96.916 18.326,88.061 23.438,84.821" fill-opacity="0" stroke="#454545" stroke-width="1.5" stroke-linecap="round" stroke-linejoin="round"/>
          </g>
        </g>
      </g>
      <g>
        <path d="M33.445,158.404 C33.445,158.404 26.606,153.22 26.462,144.22 C26.318,135.22 28.981,128.02 28.981,128.02 L39.997,135.652 L41.005,146.668 L33.517,158.332 z" fill="#FEE0C8"/>
        <path d="M33.445,158.404 C33.445,158.404 26.606,153.22 26.462,144.22 C26.318,135.22 28.981,128.02 28.981,128.02 L39.997,135.652 L41.005,146.668 L33.517,158.332 z" fill-opacity="0" stroke="#454545" stroke-width="2.501" stroke-linejoin="round"/>
      </g>
      <path d="M91.62,94.972 C91.62,94.972 88.668,86.189 82.548,82.301 C82.548,82.301 84.42,87.341 82.548,87.629 C82.404,87.629 82.044,87.773 81.828,87.701 C81.324,87.557 88.38,91.876 91.62,94.972 z" fill="#E7BD76"/>
      <path d="M23.726,112.468 L29.197,104.476 C29.197,104.476 28.046,102.46 26.246,102.388 C24.518,102.316 20.774,107.356 23.654,112.468 z" fill="#FEE0C8"/>
      <path d="M29.197,104.404 C29.197,104.404 28.046,102.388 26.246,102.316 C24.518,102.244 20.774,107.284 23.654,112.396" fill-opacity="0" stroke="#454545" stroke-width="2.501" stroke-linecap="round" stroke-linejoin="round"/>
      <path d="M75.636,155.884 C75.636,155.884 74.988,151.06 74.988,147.244" fill-opacity="0" stroke="#454545" stroke-width="2.501" stroke-linecap="round" stroke-linejoin="round"/>
      <g>
        <path d="M38.269,142.708 C38.269,142.708 30.277,161.212 32.077,178.852 C33.877,196.492 37.261,202.828 40.573,206.5 C40.573,206.5 51.733,214.347 66.564,205.636 C81.396,196.996 93.564,184.612 94.932,175.468 C94.932,175.468 86.796,164.956 82.908,158.98 C79.092,153.004 70.092,139.612 70.092,139.612 L38.269,142.636 z" fill="#FFFFFF"/>
        <path d="M38.269,142.708 C38.269,142.708 30.277,161.212 32.077,178.852 C33.877,196.492 37.261,202.828 40.573,206.5 C40.573,206.5 51.733,214.347 66.564,205.636 C81.396,196.996 93.564,184.612 94.932,175.468 C94.932,175.468 86.796,164.956 82.908,158.98 C79.092,153.004 70.092,139.612 70.092,139.612 L38.269,142.636 z" fill-opacity="0" stroke="#454545" stroke-width="2.501" stroke-linejoin="round"/>
      </g>
      <g>
        <path d="M76.068,138.82 C76.068,138.82 89.1,135.436 91.332,128.164 C93.564,120.892 93.852,116.644 88.668,107.5 C83.556,98.356 73.908,90.148 63.901,87.125 C53.893,84.101 46.549,83.093 43.381,85.973 C40.285,88.853 34.597,98.572 34.597,98.572 L62.101,122.116 L75.996,138.748 z" fill="#626262"/>
        <path d="M76.068,138.82 C76.068,138.82 89.1,135.436 91.332,128.164 C93.564,120.892 93.852,116.644 88.668,107.5 C83.556,98.356 73.908,90.148 63.901,87.125 C53.893,84.101 46.549,83.093 43.381,85.973 C40.285,88.853 34.597,98.572 34.597,98.572 L62.101,122.116 L75.996,138.748 z" fill-opacity="0" stroke="#454545" stroke-width="2.501" stroke-linejoin="round"/>
      </g>
      <path d="M72.252,60.917 L66.349,66.101 L62.821,62.069 L68.724,56.885 z" fill="#454545"/>
      <g>
        <path d="M68.724,56.885 C68.724,56.885 87.948,52.421 92.7,51.701 C97.452,50.981 123.227,43.925 120.707,28.445 C118.187,12.965 105.947,3.461 89.46,4.685 C72.972,5.909 62.173,6.701 55.189,7.205 C50.437,7.565 27.398,12.389 27.398,12.389 L62.389,55.013 L68.652,56.957 z" fill="#FFFFFF"/>
        <path d="M68.724,56.885 C68.724,56.885 87.948,52.421 92.7,51.701 C97.452,50.981 123.227,43.925 120.707,28.445 C118.187,12.965 105.947,3.461 89.46,4.685 C72.972,5.909 62.173,6.701 55.189,7.205 C50.437,7.565 27.398,12.389 27.398,12.389 L62.389,55.013 L68.652,56.957 z" fill-opacity="0" stroke="#454545" stroke-width="2.501"/>
      </g>
      <g>
        <path d="M66.204,60.485 C58.933,67.253 43.381,62.357 31.573,49.541 C19.766,36.725 16.022,20.885 23.366,14.117 C30.637,7.349 46.189,12.245 57.997,25.061 C69.804,37.877 73.548,53.717 66.204,60.485 z" fill="#FFFFFF"/>
        <path d="M66.204,60.485 C58.933,67.253 43.381,62.357 31.573,49.541 C19.766,36.725 16.022,20.885 23.366,14.117 C30.637,7.349 46.189,12.245 57.997,25.061 C69.804,37.877 73.548,53.717 66.204,60.485 z" fill-opacity="0" stroke="#454545" stroke-width="4.001"/>
      </g>
      <g>
        <g>
          <path d="M44.533,86.405 C44.533,86.405 31.933,94.036 28.621,105.772 C28.621,105.772 20.918,112.756 23.654,125.644 C26.39,138.532 38.629,144.004 44.749,145.156 C44.749,145.156 38.341,156.244 39.781,167.044 C39.781,167.044 49.501,168.844 53.461,165.676 C53.461,165.676 52.957,160.276 55.189,154.732 C56.989,150.268 59.005,148.684 60.949,147.388 C60.949,147.388 72.828,140.98 75.348,139.252 C77.868,137.524 82.26,130.396 82.476,127.516 C82.476,127.516 88.884,124.492 88.956,122.044 C89.1,119.524 87.3,117.796 84.348,118.66 C84.348,118.66 78.948,97.42 71.1,92.524 C71.1,92.524 62.461,96.268 60.589,101.02 C60.589,101.02 58.213,93.748 59.077,92.02 C59.077,92.02 52.165,99.796 52.165,101.164 C52.165,101.164 49.429,94.684 50.437,91.876 C50.437,91.876 43.669,93.604 41.941,94.612 C41.941,94.612 42.805,89.501 44.533,86.333 z" fill="#FEE0C8"/>
          <path d="M44.533,86.405 C44.533,86.405 31.933,94.036 28.621,105.772 C28.621,105.772 20.918,112.756 23.654,125.644 C26.39,138.532 38.629,144.004 44.749,145.156 C44.749,145.156 38.341,156.244 39.781,167.044 C39.781,167.044 49.501,168.844 53.461,165.676 C53.461,165.676 52.957,160.276 55.189,154.732 C56.989,150.268 59.005,148.684 60.949,147.388 C60.949,147.388 72.828,140.98 75.348,139.252 C77.868,137.524 82.26,130.396 82.476,127.516 C82.476,127.516 88.884,124.492 88.956,122.044 C89.1,119.524 87.3,117.796 84.348,118.66 C84.348,118.66 78.948,97.42 71.1,92.524 C71.1,92.524 62.461,96.268 60.589,101.02 C60.589,101.02 58.213,93.748 59.077,92.02 C59.077,92.02 52.165,99.796 52.165,101.164 C52.165,101.164 49.429,94.684 50.437,91.876 C50.437,91.876 43.669,93.604 41.941,94.612 C41.941,94.612 42.805,89.501 44.533,86.333 z" fill-opacity="0" stroke="#454545" stroke-width="2.501" stroke-linejoin="round"/>
        </g>
        <path d="M51.373,145.228 C51.373,145.228 46.405,145.66 43.093,144.868" fill-opacity="0" stroke="#454545" stroke-width="2.501" stroke-linecap="round" stroke-linejoin="round"/>
        <path d="M45.973,154.804 C45.973,154.804 48.493,149.044 44.821,145.228" fill-opacity="0" stroke="#454545" stroke-width="2.501" stroke-linecap="round" stroke-linejoin="round"/>
      </g>
      <g>
        <path d="M69.3,101.308 C69.3,101.308 69.372,99.004 68.004,98.5 C66.565,97.996 65.701,99.58 65.485,100.156" fill-opacity="0" stroke="#454545" stroke-width="1.5" stroke-linecap="round" stroke-linejoin="round"/>
        <path d="M45.541,97.132 C45.541,97.132 45.613,94.828 44.173,94.324 C42.733,93.82 41.581,96.484 41.437,97.06" fill-opacity="0" stroke="#454545" stroke-width="1.5" stroke-linecap="round" stroke-linejoin="round"/>
        <path d="M67.86,111.748 C67.86,113.692 66.565,115.204 64.909,115.204 C63.253,115.204 61.957,113.62 61.957,111.748 C61.957,109.804 63.253,108.292 64.909,108.292 C66.565,108.292 67.86,109.876 67.86,111.748 z" fill="#454545"/>
        <path d="M42.301,107.932 C42.301,109.876 41.149,111.388 39.709,111.388 C38.269,111.388 37.117,109.876 37.117,107.932 C37.117,105.988 38.269,104.476 39.709,104.476 C41.149,104.476 42.301,106.06 42.301,107.932 z" fill="#454545"/>
        <path d="M51.157,115.852 C51.157,115.852 50.149,112.684 48.493,112.468 C46.837,112.252 46.189,114.268 45.829,115.492" fill-opacity="0" stroke="#454545" stroke-width="1.5" stroke-linecap="round" stroke-linejoin="round"/>
        <g>
          <g>
            <path d="M66.852,121.324 C66.852,121.324 53.461,125.572 47.629,123.556 C41.725,121.54 39.277,119.452 36.901,116.932 C36.901,116.932 38.845,134.428 52.165,134.428 C63.397,134.428 66.061,125.14 66.924,121.324 z" fill="#F9BCB1"/>
            <path d="M66.852,121.324 C66.852,121.324 53.461,125.572 47.629,123.556 C41.725,121.54 39.277,119.452 36.901,116.932 C36.901,116.932 38.845,134.428 52.165,134.428 C63.397,134.428 66.061,125.14 66.924,121.324 z" fill-opacity="0" stroke="#454545" stroke-width="1.5" stroke-linejoin="round"/>
          </g>
          <path d="M68.796,121.108 C68.796,121.756 68.292,122.26 67.644,122.26 C66.996,122.26 66.493,121.756 66.493,121.108 C66.493,120.46 66.996,119.956 67.644,119.956 C68.292,119.956 68.796,120.46 68.796,121.108 z" fill="#454545"/>
          <path d="M37.693,116.86 C37.693,117.508 37.189,118.012 36.541,118.012 C35.893,118.012 35.389,117.508 35.389,116.86 C35.389,116.212 35.893,115.708 36.541,115.708 C37.189,115.708 37.693,116.212 37.693,116.86 z" fill="#454545"/>
          <path d="M43.885,131.116 C43.885,131.116 45.253,124.924 50.581,124.204 C50.581,124.204 39.997,120.964 37.477,118.084 C37.477,118.084 38.917,128.308 43.885,131.116 z" fill="#454545"/>
        </g>
      </g>
      <g>
        <path d="M74.988,147.172 C74.988,147.172 75.348,136.012 78.228,129.388 C81.108,122.764 95.004,104.98 98.964,104.116 C98.964,104.116 105.587,106.348 107.747,105.268 C109.835,104.116 110.123,100.66 109.763,100.3 C109.763,100.3 110.411,97.564 109.763,96.412 C109.115,95.26 108.395,94.252 108.395,94.252 C108.395,94.252 108.755,91.66 106.667,90.869 C104.507,90.149 100.764,90.653 99.18,92.596 C97.524,94.612 96.084,96.34 95.436,96.628 C94.788,96.844 83.916,101.452 75.924,113.476 C69.084,123.7 59.941,141.052 59.725,151.996 C59.509,163.012 64.693,169.132 69.444,169.996 C74.196,170.86 83.052,166.756 82.836,159.772 L75.06,147.172 z" fill="#FEE0C8"/>
        <path d="M74.988,147.172 C74.988,147.172 75.348,136.012 78.228,129.388 C81.108,122.764 95.004,104.98 98.964,104.116 C98.964,104.116 105.587,106.348 107.747,105.268 C109.835,104.116 110.123,100.66 109.763,100.3 C109.763,100.3 110.411,97.564 109.763,96.412 C109.115,95.26 108.395,94.252 108.395,94.252 C108.395,94.252 108.755,91.66 106.667,90.869 C104.507,90.149 100.764,90.653 99.18,92.596 C97.524,94.612 96.084,96.34 95.436,96.628 C94.788,96.844 83.916,101.452 75.924,113.476 C69.084,123.7 59.941,141.052 59.725,151.996 C59.509,163.012 64.693,169.132 69.444,169.996 C74.196,170.86 83.052,166.756 82.836,159.772 L75.06,147.172 z" fill-opacity="0" stroke="#454545" stroke-width="2.501" stroke-linejoin="round"/>
      </g>
      <path d="M34.957,115.06 C34.957,117.508 32.941,119.524 30.493,119.524 C28.046,119.524 26.03,117.508 26.03,115.06 C26.03,112.612 28.046,110.596 30.493,110.596 C32.941,110.596 34.957,112.612 34.957,115.06 z" fill="#FFFFFF"/>
      <path d="M75.78,190.444 C75.78,190.444 62.893,197.212 56.125,198.652 C49.357,200.092 39.781,199.732 39.781,200.236 C39.781,200.74 50.509,204.484 58.717,201.964 C66.924,199.444 75.78,191.596 75.78,190.444 z" fill="#D2E2EB"/>
      <path d="M87.084,39.677 C87.084,39.677 80.1,28.445 75.348,21.821 C70.524,15.197 65.197,11.885 63.613,11.093 C62.029,10.301 73.404,8.213 75.924,9.293 C83.916,12.893 93.852,27.725 94.356,31.253 C94.86,34.853 90.612,42.485 87.156,39.677 z" fill="#CBE4F0"/>
      <g>
        <path d="M61.525,15.269 C61.525,15.269 77.22,22.973 84.852,35.429" fill-opacity="0" stroke="#7C7C7D" stroke-width="1.5" stroke-linecap="round" stroke-linejoin="round"/>
        <path d="M69.876,11.309 C69.876,11.309 85.572,19.445 93.852,32.477" fill-opacity="0" stroke="#7C7C7D" stroke-width="1.5" stroke-linecap="round" stroke-linejoin="round"/>
        <path d="M77.724,8.789 C77.724,8.789 93.924,14.981 100.548,27.653" fill-opacity="0" stroke="#7C7C7D" stroke-width="1.5" stroke-linecap="round" stroke-linejoin="round"/>
        <path d="M99.396,14.477 C99.396,14.477 83.916,22.829 78.588,35.789" fill-opacity="0" stroke="#7C7C7D" stroke-width="1.5" stroke-linecap="round" stroke-linejoin="round"/>
        <path d="M86.58,8.645 C86.58,8.645 72.108,19.013 69.732,28.157" fill-opacity="0" stroke="#7C7C7D" stroke-width="1.5" stroke-linecap="round" stroke-linejoin="round"/>
      </g>
    </g>
  </g>
</svg>