<?xml version="1.0" encoding="UTF-8"?>
<!DOCTYPE svg PUBLIC "-//W3C//DTD SVG 1.1//EN" "http://www.w3.org/Graphics/SVG/1.1/DTD/svg11.dtd">
<svg version="1.1" id="Layer_1" xmlns:rdf="http://www.w3.org/1999/02/22-rdf-syntax-ns#" xmlns:cc="http://creativecommons.org/ns#" xmlns:dc="http://purl.org/dc/elements/1.1/" xmlns:svg="http://www.w3.org/2000/svg" xmlns:inkscape="http://www.inkscape.org/namespaces/inkscape" xmlns:sodipodi="http://sodipodi.sourceforge.net/DTD/sodipodi-0.dtd" inkscape:version="0.91 r13725" sodipodi:docname="Seamless Alhambra Triangle.svg" xmlns="http://www.w3.org/2000/svg" xmlns:xlink="http://www.w3.org/1999/xlink" x="0px" y="0px" viewBox="356.2397 0 1847.5206 1600" enable-background="new 356.2397 0 1847.5206 1600" xml:space="preserve">
<sodipodi:namedview id="namedview1054" borderopacity="1" showgrid="false" inkscape:zoom="1.3662041" pagecolor="#ffffff" bordercolor="#666666" inkscape:cy="312.35338" inkscape:cx="334.30433" inkscape:window-height="480" inkscape:current-layer="Layer_1" inkscape:window-width="640" inkscape:pageopacity="0" inkscape:pageshadow="2" objecttolerance="10" guidetolerance="10" gridtolerance="10">
	</sodipodi:namedview>
<g>
	<line id="line104" fill="none" x1="1941.0577" y1="1516.1434" x2="1941.0577" y2="1516.1436"/>
	<line id="line112" fill="none" x1="1885.0255" y1="1539.3528" x2="1885.0255" y2="1539.3529"/>
	<line id="line278" fill="none" x1="1999.7875" y1="1414.421" x2="1999.7875" y2="1414.421"/>
	<line id="line286" fill="none" x1="1991.8713" y1="1354.2909" x2="1991.8713" y2="1354.2909"/>
	<line id="line454" fill="none" x1="560.2126" y1="1414.421" x2="560.2126" y2="1414.421"/>
	<line id="line462" fill="none" x1="568.1287" y1="1354.2909" x2="568.1287" y2="1354.2909"/>
	<line id="line628" fill="none" x1="618.9422" y1="1516.1434" x2="618.9422" y2="1516.1436"/>
	<line id="line636" fill="none" x1="674.9744" y1="1539.3528" x2="674.9744" y2="1539.3529"/>
	<line id="line804" fill="none" x1="1338.7294" y1="269.4351" x2="1338.7296" y2="269.4351"/>
	<line id="line812" fill="none" x1="1386.8455" y1="306.3557" x2="1386.8457" y2="306.3557"/>
	<polygon fill="#FFFFFF" points="1868.6143,1420.4907 1885.0256,1427.2885 1896.4321,1422.5637 1896.432,1422.5637    1894.8206,1410.3232 1880.7278,1399.5095 1873.2898,1409.2026  "/>
	<polygon fill="#FFFFFF" points="1954.3551,1456.0057 1924.6465,1443.6998 1917.8486,1460.1113 1924.6465,1476.5229    1962.6362,1460.7869  "/>
	<polygon fill="#FFFFFF" points="1904.1389,1427.0133 1908.2351,1436.902 1924.6465,1443.6998 1926.2664,1439.7886  "/>
	<polygon fill="#FFFFFF" points="1312.903,1569.6774 1340.7286,1569.6774 1396.7607,1513.6453 1323.5513,1543.9696  "/>
	<polygon fill="#FFFFFF" points="2070.3003,1569.6774 2143.5044,1599.9998 2143.5146,1599.9998 2169.2175,1589.3533    2149.5415,1569.6774  "/>
	<polygon fill="#FFFFFF" points="2149.5415,1569.6774 2151.2402,1569.6774 2150.3911,1568.2063 2147.2212,1567.3568  "/>
	<polygon fill="#FFFFFF" points="1845.4052,1443.6998 1861.8164,1436.902 1868.6143,1420.4907 1828.9934,1404.0792  "/>
	<polygon fill="#FFFFFF" points="1845.4052,1443.6998 1805.7842,1460.1113 1845.4052,1476.5229 1852.2028,1460.1113  "/>
	<polygon fill="#FFFFFF" points="1845.4052,1476.5229 1828.9934,1516.1436 1868.6143,1499.7321 1861.8164,1483.3206  "/>
	<polygon fill="#FFFFFF" points="1868.6143,1499.7321 1885.0256,1539.3528 1901.4374,1499.7321 1885.0256,1492.9344  "/>
	<polygon fill="#FFFFFF" points="1588.8331,1499.7321 1605.2446,1539.3528 1621.6563,1499.7321 1605.2446,1492.9344  "/>
	<polygon fill="#FFFFFF" points="1588.8331,1499.7321 1582.0354,1483.3206 1565.6235,1476.5229 1549.2124,1516.1436  "/>
	<polygon fill="#FFFFFF" points="1516.9758,1216.8923 1516.9758,1203.4844 1528.5873,1196.7805 1496.8828,1188.2854    1492.5984,1155.7432 1474.6958,1179.0742 1463.4418,1206.244 1493.7664,1193.6831  "/>
	<polygon fill="#FFFFFF" points="1583.0204,1241.6154 1592.1973,1207.3669 1624.7393,1203.0825 1598.6992,1183.1012    1607.1942,1151.397 1578.7688,1167.8085 1552.7288,1147.827 1557.0127,1180.3691 1528.5874,1196.7805 1560.2917,1205.2755    1563.6,1230.4031 1540.1849,1240.1018 1516.9758,1216.8926 1516.9758,1249.7153 1486.6512,1262.2762 1516.9758,1274.8369    1516.9758,1307.6598 1540.1852,1284.4507 1570.5093,1297.0115 1557.9487,1266.6871  "/>
	<polygon fill="#FFFFFF" points="1367.7888,1278.6876 1351.3774,1318.3083 1390.998,1301.8972 1384.2002,1285.4856  "/>
	<polygon fill="#FFFFFF" points="1374.5867,1262.2762 1367.7888,1245.865 1328.168,1262.2762 1367.7888,1278.6876  "/>
	<polygon fill="#FFFFFF" points="1588.8331,1420.4907 1605.2446,1427.2885 1621.6563,1420.4907 1605.2446,1380.8699  "/>
	<polygon fill="#FFFFFF" points="1565.6235,1443.6998 1582.0354,1436.902 1588.8331,1420.4907 1549.2124,1404.0789  "/>
	<polygon fill="#FFFFFF" points="1628.4541,1483.3206 1621.6563,1499.7321 1661.277,1516.1436 1644.8655,1476.5229  "/>
	<polygon fill="#FFFFFF" points="1775.4597,1414.7278 1745.1351,1445.0521 1760.1943,1460.1113 1745.1351,1475.1704    1730.0757,1460.1113 1745.1351,1445.0521 1714.8108,1414.7278 1714.8108,1447.5505 1684.4863,1460.1113 1714.8108,1472.6722    1714.8108,1505.4951 1745.1353,1475.1704 1775.4597,1505.4951 1775.4597,1472.6722 1805.7842,1460.1113 1775.4597,1447.5505  "/>
	<polygon fill="#FFFFFF" points="1565.6235,1476.5229 1572.4219,1460.1113 1565.6235,1443.6998 1526.0032,1460.1113  "/>
	<polygon fill="#FFFFFF" points="1638.0676,1460.1113 1644.8655,1476.5229 1684.4863,1460.1113 1644.8655,1443.6998  "/>
	<polygon fill="#FFFFFF" points="1621.6563,1420.4907 1628.4541,1436.902 1644.8655,1443.6998 1661.277,1404.0789  "/>
	<polygon fill="#FFFFFF" points="1559.861,1569.6774 1590.1833,1599.9998 1590.1877,1599.9998 1605.2446,1584.9426    1620.3018,1599.9998 1620.3058,1599.9998 1650.6282,1569.6774 1617.8054,1569.6774 1605.2446,1539.3528 1592.6838,1569.6774  "/>
	<polygon fill="#FFFFFF" points="1549.2124,1516.1436 1518.8881,1528.7041 1495.6787,1505.4951 1495.6787,1538.318    1419.9702,1569.6774 1501.9165,1569.6774 1514.4766,1599.9998 1514.478,1599.9998 1527.0378,1569.6775 1559.861,1569.6774    1536.6516,1546.4681  "/>
	<polygon fill="#FFFFFF" points="1297.8435,1526.7922 1297.8435,1447.5508 1280,1490.6284 1262.1566,1447.5508 1262.1566,1526.7922    1206.1244,1470.76 1236.4487,1543.9696 1262.1564,1554.6179 1262.1564,1526.7922 1280,1544.6357 1297.8436,1526.7922    1297.8436,1554.6179 1323.5513,1543.9696 1353.8757,1470.76  "/>
	<polygon fill="#FFFFFF" points="1447.0303,1278.6876 1486.6509,1262.2762 1447.0303,1245.865 1440.2324,1262.2762  "/>
	<polygon fill="#FFFFFF" points="1447.0303,1278.6876 1430.6188,1285.4856 1423.821,1301.8972 1463.4418,1318.3083  "/>
	<polygon fill="#FFFFFF" points="1447.0303,1245.865 1463.4418,1206.244 1423.821,1222.6555 1430.6188,1239.0669  "/>
	<polygon fill="#FFFFFF" points="1493.7664,1330.8691 1463.4418,1318.3083 1476.0027,1348.6331 1452.7935,1371.842    1495.6787,1371.842 1495.6787,1350.5452 1516.9758,1350.5452 1516.9758,1307.66  "/>
	<polygon fill="#FFFFFF" points="1526.0032,1460.1113 1495.6787,1447.5505 1495.6787,1414.7275 1472.4692,1437.937    1442.1448,1425.376 1454.7058,1455.7004 1396.7607,1513.6453 1472.4692,1482.2859 1495.6787,1505.4951 1495.6787,1472.6722  "/>
	<path fill="#FFFFFF" d="M1452.7935,1371.842h-32.823l-12.5608-30.3243l16.4114-39.6205l-16.4114-6.7979l-16.4116,6.7979   l16.4115,39.6205l-12.5608,30.3243h-32.823l-23.2092-23.209l12.5609-30.3247l-30.3246,12.5608l-23.2092-23.2094v-32.8229   l30.3243-12.5607l-30.3243-12.5609v-32.823l23.2092-23.2092l30.3246,12.5609l-12.5609-30.3246l23.209-23.209l-39.0604-0.0002   v-17.7637l-12.5608-12.5605l-12.5608,12.5605v17.7637H1280.08l-0.08,0.0797l-0.08-0.0797h-17.7634v-17.7637l-12.5609-12.5605   l-12.5608,12.5605v17.7637l-39.0607,0.0002l23.2092,23.209l-12.5609,30.3246l30.3246-12.5609l23.2092,23.2092v32.823   l-30.3243,12.5609l30.3243,12.5607v32.8229l-23.2092,23.2094l-30.3246-12.5608l12.5609,30.3247l-23.2094,23.209h-32.8229   l-12.5608-30.3243l16.4115-39.6205l-16.4116-6.7979l-16.4114,6.7979l16.4114,39.6205l-12.5608,30.3243h-32.823l23.2095,23.2097   l-12.5609,30.3242l30.3243-12.5607l57.9449,57.9447l-31.3595-75.7084l23.2092-23.2094h32.8229l31.3596,75.7085v-81.9463   l17.8434-7.391l17.8435,7.391v81.9463l31.3595-75.7085h32.8228l23.2094,23.2094l-31.3594,75.7084l57.9448-57.9447l30.3242,12.5607   l-12.5605-30.3242L1452.7935,1371.842z M1262.1566,1177.8318h17.7637l0.0797-0.0797l0.0797,0.0797h17.7638v39.0605L1280,1234.7361   l-17.8434-17.8438V1177.8318z M1282.5784,1262.2762l-2.5784,2.5782l-2.5784-2.5782l2.5784-2.5782L1282.5784,1262.2762z    M1297.8435,1340.4829L1280,1347.874l-17.8434-7.3911l-0.0002-32.8229L1280,1289.8164l17.8436,17.8436L1297.8435,1340.4829z"/>
	<polygon fill="#FFFFFF" points="1549.2124,1404.0789 1536.6516,1373.7544 1559.861,1350.5452 1516.9758,1350.5452    1516.9758,1371.842 1495.6787,1371.842 1495.6787,1414.7275 1518.8878,1391.5183  "/>
	<polygon fill="#FFFFFF" points="1647.5048,1278.8455 1679.4558,1237.2056 1711.1604,1245.7009 1694.7489,1217.2751    1714.7303,1191.2351 1682.1881,1195.5194 1665.7769,1167.0939 1657.2813,1198.7981 1624.7393,1203.0825 1650.7794,1223.0638    1637.3966,1273.0098 1600.834,1309.5723 1570.5093,1297.0115 1583.0701,1327.3359 1559.861,1350.5452 1592.6838,1350.5452    1605.2446,1380.8699 1617.8054,1350.5452 1650.6284,1350.5452 1627.4189,1327.3359  "/>
	<polygon fill="#FFFFFF" points="1714.8108,1544.5559 1714.8108,1505.4951 1691.6013,1528.7041 1661.277,1516.1436    1673.8376,1546.4681 1650.6284,1569.6774 1689.6892,1569.6774 1689.6892,1587.441 1702.2479,1599.9998 1702.2521,1599.9998    1714.8108,1587.441 1714.8108,1569.6774 1732.5745,1569.6774 1745.1351,1557.1167 1732.5745,1544.5559  "/>
	<polygon fill="#FFFFFF" points="1885.0256,1539.3528 1872.4648,1569.6774 1839.6421,1569.6774 1869.9644,1599.9998    1869.9685,1599.9998 1885.0256,1584.9426 1900.083,1599.9998 1900.087,1599.9998 1930.4094,1569.6774 1897.5864,1569.6774  "/>
	<polygon fill="#FFFFFF" points="1828.9934,1516.1436 1798.6688,1528.7041 1775.4597,1505.4951 1775.4597,1544.5559    1757.696,1544.5559 1745.1351,1557.1167 1757.696,1569.6774 1775.4597,1569.6774 1775.4597,1587.441 1788.0181,1599.9998    1788.0225,1599.9998 1800.5812,1587.441 1800.5812,1569.6774 1839.6421,1569.6774 1816.4325,1546.4681  "/>
	<polygon fill="#FFFFFF" points="1994.5918,1505.4951 2011.2393,1488.8477 1994.5918,1479.2363  "/>
	<polygon fill="#FFFFFF" points="1994.5918,1505.4951 1971.3823,1528.7041 1941.0577,1516.1434 1924.6465,1476.5229    1908.2351,1483.3206 1901.4374,1499.7321 1941.0577,1516.1436 1953.6189,1546.4678 1930.4094,1569.6774 1963.2327,1569.6774    1975.7922,1599.9998 1975.7942,1599.9998 1988.354,1569.6774 2070.3003,1569.6774 1994.5918,1538.318  "/>
	<polygon fill="#FFFFFF" points="1321.0529,1589.3533 1346.7557,1599.9998 1346.7656,1599.9998 1419.9702,1569.6774    1340.7288,1569.6774  "/>
	<polygon fill="#FFFFFF" points="1384.2002,1239.0669 1390.998,1222.6555 1351.3774,1206.244 1367.7888,1245.865  "/>
	<polygon fill="#FFFFFF" points="1407.4097,1229.4534 1423.821,1222.6555 1407.4097,1183.0345 1390.998,1222.6555  "/>
	<polygon fill="#FFFFFF" points="1914.751,1425.6163 1904.1392,1427.0133 1926.2664,1439.7886 1928.8438,1436.4301  "/>
	<polygon fill="#FFFFFF" points="1928.8438,1436.4301 1954.3551,1456.0057 1962.6362,1460.7866 1957.2692,1420.0186    1939.6576,1422.3372  "/>
	<polygon fill="#FFFFFF" points="1745.9846,867.7535 1732.0717,843.6558 1715.1323,865.7316 1725.4753,944.2952  "/>
	<polygon fill="#FFFFFF" points="2177.2688,1575.4081 2173.6372,1547.8256 2173.6323,1547.8169 2110.7703,1499.5811    2150.3911,1568.2063  "/>
	<polygon fill="#FFFFFF" points="1965.7644,1388.3142 1991.8713,1354.2908 1949.353,1359.8887 1951.6716,1377.5004  "/>
	<polygon fill="#FFFFFF" points="1949.353,1359.8887 1943.7552,1317.3702 1917.6484,1351.3936 1931.741,1362.2073  "/>
	<polygon fill="#FFFFFF" points="1846.7046,1373.4025 1880.7278,1399.5095 1891.5415,1385.4165 1889.2229,1367.8052    1906.8345,1365.4863 1917.6484,1351.3936 1883.6251,1325.2865 1889.2229,1367.8049  "/>
	<polygon fill="#FFFFFF" points="1811.781,1135.2029 1825.8738,1146.0166 1851.9807,1111.9934 1809.4624,1117.5911  "/>
	<polygon fill="#FFFFFF" points="1809.4624,1117.5911 1803.8647,1075.0728 1777.7578,1109.0959 1791.8506,1119.9099  "/>
	<polygon fill="#FFFFFF" points="1395.5289,1094.6813 1386.5518,1128.1844 1362.026,1152.7102 1394.8488,1152.7102    1407.4097,1183.0345 1419.9705,1152.7102 1429.032,1152.7102 1424.5011,1144.8627 1444.4825,1118.8225 1411.9403,1123.1064  "/>
	<polygon fill="#FFFFFF" points="1507.5101,1036.6833 1473.4871,1010.5764 1479.0847,1053.0948 1496.6963,1050.776  "/>
	<polygon fill="#FFFFFF" points="1521.6028,1047.4971 1539.2146,1045.1785 1533.6169,1002.6602 1507.5101,1036.6833  "/>
	<polygon fill="#FFFFFF" points="1757.2488,1185.6372 1754.9301,1168.0259 1740.8372,1157.2119 1714.7303,1191.2351  "/>
	<polygon fill="#FFFFFF" points="1740.8372,1157.2119 1751.6511,1143.1191 1749.3325,1125.5073 1706.814,1131.105  "/>
	<polygon fill="#FFFFFF" points="1817.3787,1177.7212 1859.8969,1172.1235 1825.8738,1146.0166 1815.0602,1160.1096  "/>
	<polygon fill="#FFFFFF" points="1798.8351,1269.1929 1840.2592,1280.2925 1845.7711,1259.7209 1866.3424,1265.2333    1860.8306,1285.8048 1840.2592,1280.2925 1829.1597,1321.7164 1857.585,1305.3052 1883.6251,1325.2865 1879.3411,1292.7444    1907.7665,1276.3329 1866.3424,1265.2335 1877.442,1223.8093 1849.0166,1240.2209 1822.9763,1220.2395 1827.2605,1252.7816  "/>
	<polygon fill="#FFFFFF" points="1829.1597,1321.7164 1800.7339,1338.1279 1774.6938,1318.1467 1778.9781,1350.6888    1775.4597,1352.7202 1775.4597,1356.7832 1745.1353,1369.3439 1714.8108,1356.7832 1714.8108,1317.7046 1748.6538,1298.1655    1774.6938,1318.1467 1770.4095,1285.6047 1798.8351,1269.1929 1767.1306,1260.698 1762.8462,1228.1558 1742.8647,1254.1958    1711.1604,1245.7009 1727.5717,1274.1262 1700.4812,1309.4314 1683.4514,1350.5452 1650.6284,1350.5452 1673.8376,1373.7544    1661.277,1404.0789 1691.6013,1391.5183 1714.8105,1414.7273 1714.8108,1381.9045 1745.1351,1369.3439 1775.4595,1381.9045    1775.4597,1414.7278 1775.4597,1414.7275 1798.6688,1391.5183 1828.9934,1404.0789 1817.8596,1377.2 1846.7046,1373.4025    1820.6643,1353.4209  "/>
	<polygon fill="#FFFFFF" points="1766.9441,1123.1888 1777.7578,1109.0959 1743.7349,1082.9893 1749.3325,1125.5073  "/>
	<polygon fill="#FFFFFF" points="1817.3787,1177.7212 1799.7671,1180.0397 1788.9531,1194.1327 1822.9763,1220.2395  "/>
	<polygon fill="#FFFFFF" points="1788.9531,1194.1327 1774.8601,1183.3186 1757.2488,1185.6372 1762.8462,1228.1558  "/>
	<polygon fill="#FFFFFF" points="1541.5332,1062.79 1555.6262,1073.604 1581.7329,1039.5808 1539.2146,1045.1785  "/>
	<polygon fill="#FFFFFF" points="1803.8647,1075.0728 1823.8462,1049.0325 1855.5508,1057.5276 1839.1392,1029.1021    1859.1191,1003.0638 1859.1182,1003.0623 1826.5784,1007.3464 1785.6052,936.3788 1796.3015,1017.6239 1767.8762,1034.0354    1799.5807,1042.5308  "/>
	<polygon fill="#FFFFFF" points="1851.9807,1111.9934 1884.5232,1107.7092 1900.9343,1136.1345 1912.0331,1094.7134    1912.031,1094.71 1891.4626,1089.1985 1896.9739,1068.6304 1896.9718,1068.6265 1855.5508,1057.5276 1871.9619,1085.9532  "/>
	<polygon fill="#FFFFFF" points="1957.2692,1420.0186 1999.7875,1414.4209 1965.7644,1388.3142 1954.9504,1402.407  "/>
	<polygon fill="#FFFFFF" points="1715.1323,865.7316 1711.5002,838.1438 1687.4021,852.0566 1666.8931,928.598  "/>
	<polygon fill="#FFFFFF" points="1518.7056,1121.7197 1504.6125,1110.906 1487.001,1113.2246 1492.5986,1155.7432  "/>
	<polygon fill="#FFFFFF" points="1671.7239,1027.7332 1697.7642,1047.7145 1689.269,1079.4192 1717.6946,1063.0077    1743.7349,1082.9893 1739.4506,1050.4469 1767.8762,1034.0354 1736.1716,1025.54 1725.4753,944.2952 1704.266,1023.449  "/>
	<polygon fill="#FFFFFF" points="1674.272,1135.3893 1706.814,1131.105 1680.7738,1111.1235 1689.269,1079.4192    1652.1293,1100.8619 1662.7778,1119.3057 1644.3339,1129.9539 1665.7769,1167.0939  "/>
	<polygon fill="#FFFFFF" points="1877.442,1223.8093 1911.2697,1204.2788 1920.1515,1219.6627 1937.3098,1224.2603    1941.9075,1207.1021 1933.0256,1191.718 1948.4094,1182.8364 1953.0063,1165.6809 1953.0043,1165.6775 1935.8486,1161.0806    1920.4647,1169.9624 1900.9343,1136.1346 1892.439,1167.8391 1859.8969,1172.1235 1885.9373,1192.105  "/>
	<polygon fill="#FFFFFF" points="1991.8713,1354.2908 2024.4135,1350.0066 2040.8248,1378.4324 2051.9236,1337.011    2051.9214,1337.0073 2031.3529,1331.496 2036.8643,1310.9275 2036.8623,1310.9241 1995.4413,1299.8252 2011.8527,1328.2507  "/>
	<polygon fill="#FFFFFF" points="1941.5942,1256.8025 1907.7666,1276.3329 1939.4709,1284.8279 1943.7552,1317.3702    1963.7367,1291.3301 1995.4413,1299.8252 1975.9109,1265.9976 1991.2946,1257.116 1995.8914,1239.9603 1995.8892,1239.9565    1978.7338,1235.3596 1963.3499,1244.2415 1954.468,1228.8577 1937.3098,1224.2603 1932.7124,1241.4188  "/>
	<polygon fill="#FFFFFF" points="2011.2393,1488.8477 2017.3325,1466.1067 1994.5918,1479.2362  "/>
	<polygon fill="#FFFFFF" points="1999.7875,1414.4209 2025.8278,1434.4021 2017.3325,1466.1067 2045.7581,1449.6954    2110.7703,1499.5811 2069.7974,1428.6134 2089.7771,1402.5751 2089.7764,1402.5737 2057.2366,1406.8579 2040.8248,1378.4324    2032.3298,1410.1367  "/>
	<polygon fill="#FFFFFF" points="1775.2581,857.8121 1753.1863,840.876 1745.9846,867.7537 1785.6052,936.3788 1775.2631,857.8206     "/>
	<polygon fill="#FFFFFF" points="1481.4033,1070.7064 1479.0847,1053.0948 1436.5662,1058.6924 1470.5896,1084.7993  "/>
	<polygon fill="#FFFFFF" points="1487.001,1113.2246 1484.6823,1095.613 1470.5896,1084.7993 1444.4825,1118.8225  "/>
	<polygon fill="#FFFFFF" points="663.5678,1422.5637 674.9744,1427.2885 691.3857,1420.4907 686.7101,1409.2026 679.2722,1399.5095    665.1794,1410.3232  "/>
	<polygon fill="#FFFFFF" points="605.6448,1456.0057 631.1564,1436.4301 620.3425,1422.3372 602.7308,1420.0186 597.3635,1460.7866     "/>
	<polygon fill="#FFFFFF" points="827.9283,843.6558 814.0154,867.7535 834.5246,944.2952 844.8677,865.7316  "/>
	<polygon fill="#FFFFFF" points="409.609,1568.2063 408.7597,1569.6774 410.4584,1569.6774 412.7789,1567.3568  "/>
	<polygon fill="#FFFFFF" points="386.3676,1547.8169 386.3626,1547.8256 382.7312,1575.4081 409.609,1568.2063 449.2297,1499.5811     "/>
	<polygon fill="#FFFFFF" points="670.777,1367.8052 668.4585,1385.4165 679.2722,1399.5095 713.2953,1373.4025 670.777,1367.8049    676.3746,1325.2865 642.3515,1351.3936 653.1654,1365.4863  "/>
	<polygon fill="#FFFFFF" points="610.6472,1359.8887 628.2588,1362.2073 642.3515,1351.3936 616.2448,1317.3702 610.647,1359.8887    568.1287,1354.2908 594.2357,1388.3142 608.3284,1377.5004  "/>
	<polygon fill="#FFFFFF" points="750.5377,1117.5911 708.0192,1111.9934 734.1262,1146.0166 748.2189,1135.2029  "/>
	<polygon fill="#FFFFFF" points="750.5377,1117.5911 768.1493,1119.9099 782.2422,1109.0959 756.1353,1075.0728  "/>
	<polygon fill="#FFFFFF" points="1085.3042,1179.0742 1067.4016,1155.7432 1063.1172,1188.2854 1031.4128,1196.7805    1043.0244,1203.4844 1043.0244,1216.8923 1066.2336,1193.6831 1096.5582,1206.244 1085.304,1179.0743  "/>
	<path fill="#FFFFFF" d="M1236.5249,1091.178l-0.51,0.8833h1.02v17.7637l12.5608,12.561l12.5609-12.561v-17.7637h17.7634   l0.08-0.0798l0.08,0.0798h17.7635v17.7637l12.5608,12.561l12.5608-12.561v-17.7637h1.02l-0.51-0.8833l15.3838-8.8818   l4.5974-17.1584l-17.1582-4.5975l-15.3839,8.882l-8.8818-15.3838l-0.109-0.0293l0.0293-0.1091l-8.8818-15.3835l15.3838-8.882   l4.5977-17.1584l-17.1584-4.5975l-15.3839,8.8818l-0.5099-0.8836l-0.51,0.8836l-15.3838-8.8818l-17.1584,4.5975l4.5977,17.1584   l15.3838,8.882l-8.8818,15.3835l0.0293,0.1091l-0.1091,0.0293l-8.8817,15.3838l-15.3839-8.882l-17.1584,4.5975l4.5977,17.1584   L1236.5249,1091.178z M1279.6941,1066.49l0.1093-0.0293l0.1967-0.3408l0.1965,0.3408l0.1094,0.0293l-0.0293,0.1091l0.1968,0.3407   h-0.3934l-0.08,0.08l-0.08-0.08h-0.3934l0.1968-0.3407L1279.6941,1066.49z"/>
	<polygon fill="#FFFFFF" points="976.9796,1241.6154 1002.0513,1266.6871 989.4907,1297.0115 1019.8148,1284.4507    1043.0242,1307.6598 1043.0242,1274.8369 1073.3489,1262.2762 1043.0242,1249.7153 1043.0242,1216.8926 1019.8151,1240.1018    996.4001,1230.4031 999.7083,1205.2755 1031.4126,1196.7805 1002.9871,1180.3691 1007.2715,1147.827 981.2313,1167.8085    952.8058,1151.397 961.3009,1183.1012 935.2606,1203.0825 967.8027,1207.3669  "/>
	<polygon fill="#FFFFFF" points="1080.9153,1053.0948 1086.5129,1010.5764 1052.4899,1036.6833 1063.3037,1050.776  "/>
	<polygon fill="#FFFFFF" points="819.1629,1157.2119 805.0699,1168.0259 802.7514,1185.6372 845.2696,1191.2351  "/>
	<polygon fill="#FFFFFF" points="810.6678,1125.5073 808.349,1143.1191 819.1629,1157.2119 853.186,1131.105  "/>
	<polygon fill="#FFFFFF" points="744.9401,1160.1096 734.1262,1146.0166 700.1031,1172.1235 742.6213,1177.7212  "/>
	<polygon fill="#FFFFFF" points="730.8405,1321.7164 719.7408,1280.2925 699.1696,1285.8048 693.6575,1265.2333 714.2288,1259.7209    719.7408,1280.2925 761.165,1269.1929 732.7394,1252.7816 737.0237,1220.2395 710.9835,1240.2209 682.558,1223.8093    693.6575,1265.2335 652.2336,1276.3329 680.6589,1292.7444 676.3746,1325.2865 702.4151,1305.3052  "/>
	<polygon fill="#FFFFFF" points="730.8405,1321.7164 730.8407,1321.7166 730.8406,1321.7164  "/>
	<polygon fill="#FFFFFF" points="782.2422,1109.0959 793.0559,1123.1888 810.6678,1125.5073 816.2651,1082.9893  "/>
	<polygon fill="#FFFFFF" points="760.2329,1180.0397 742.6213,1177.7212 737.0237,1220.2395 771.0469,1194.1327  "/>
	<polygon fill="#FFFFFF" points="802.7514,1185.6372 785.1396,1183.3186 771.0469,1194.1327 797.1538,1228.1558  "/>
	<polygon fill="#FFFFFF" points="1018.4667,1062.79 1020.7853,1045.1785 978.267,1039.5808 1004.3738,1073.604  "/>
	<polygon fill="#FFFFFF" points="756.1353,1075.0728 760.4196,1042.5308 792.1239,1034.0354 763.6984,1017.6239 774.3948,936.3788    733.4216,1007.3464 700.8817,1003.0623 700.8809,1003.0638 720.8608,1029.1021 704.4493,1057.5276 736.1538,1049.0325  "/>
	<polygon fill="#FFFFFF" points="704.4493,1057.5276 663.0282,1068.6265 663.026,1068.6304 668.5374,1089.1985 647.9691,1094.71    647.9669,1094.7134 659.0657,1136.1345 675.4772,1107.7092 708.0192,1111.9934 688.038,1085.9532  "/>
	<polygon fill="#FFFFFF" points="605.0494,1402.407 594.2357,1388.3142 560.2126,1414.4209 602.7308,1420.0186  "/>
	<polygon fill="#FFFFFF" points="912.8381,854.6856 959.0664,860.7715 890.4412,821.1506 866.0667,827.6821 872.5978,852.0566    941.223,891.6773  "/>
	<polygon fill="#FFFFFF" points="872.5978,852.0566 848.4998,838.1438 844.8677,865.7316 893.1069,928.598  "/>
	<polygon fill="#FFFFFF" points="1007.2715,1147.8267 1041.2947,1121.7197 1030.4807,1107.6271 1012.8691,1105.3083    1015.1877,1087.6969 1004.374,1073.604 970.3506,1099.7109 1012.8691,1105.3086  "/>
	<polygon fill="#FFFFFF" points="1041.2947,1121.7197 1067.4014,1155.7432 1072.999,1113.2246 1055.3873,1110.906  "/>
	<polygon fill="#FFFFFF" points="853.186,1131.105 885.7283,1135.3893 894.2234,1167.0939 915.6659,1129.9539 897.2222,1119.3057    907.8708,1100.8619 870.731,1079.4192 879.2263,1111.1235  "/>
	<polygon fill="#FFFFFF" points="816.2651,1082.9893 842.3056,1063.0077 870.731,1079.4192 862.2358,1047.7145 888.2761,1027.7332    855.7339,1023.449 834.5246,944.2952 823.8284,1025.54 792.1239,1034.0354 820.5494,1050.4469  "/>
	<polygon fill="#FFFFFF" points="648.7303,1204.2788 682.558,1223.8093 674.0628,1192.105 700.1031,1172.1235 667.5608,1167.8391    659.0657,1136.1346 639.5352,1169.9624 624.1514,1161.0806 606.996,1165.6775 606.9938,1165.6809 611.5907,1182.8364    626.9744,1191.718 618.0925,1207.1021 622.6901,1224.2603 639.8485,1219.6627  "/>
	<polygon fill="#FFFFFF" points="568.1287,1354.2908 548.1475,1328.2507 564.559,1299.8252 596.2633,1291.3301 616.2448,1317.3702    620.5291,1284.8279 652.2334,1276.3329 618.4058,1256.8025 627.2877,1241.4188 622.6901,1224.2603 605.5319,1228.8577    596.65,1244.2415 581.2662,1235.3596 564.1108,1239.9565 564.1086,1239.9603 568.7053,1257.116 584.0892,1265.9976    564.5588,1299.8252 523.1377,1310.9241 523.1357,1310.9275 528.6471,1331.496 508.0784,1337.0073 508.0764,1337.011    519.1752,1378.4324 535.5867,1350.0066  "/>
	<polygon fill="#FFFFFF" points="542.6674,1466.1067 548.7608,1488.8477 565.4083,1479.2362  "/>
	<polygon fill="#FFFFFF" points="542.6674,1466.1067 534.1723,1434.4021 560.2126,1414.4209 527.6703,1410.1367 519.1752,1378.4324    502.7634,1406.8579 470.2238,1402.5737 470.2229,1402.5751 490.2028,1428.6134 449.2297,1499.5811 514.2419,1449.6954  "/>
	<polygon fill="#FFFFFF" points="806.8134,840.876 784.742,857.8121 784.737,857.8206 774.3948,936.3788 814.0154,867.7537  "/>
	<polygon fill="#FFFFFF" points="1078.5968,1070.7064 1089.4104,1084.7993 1123.4336,1058.6924 1080.9153,1053.0948  "/>
	<polygon fill="#FFFFFF" points="1075.3177,1095.613 1072.999,1113.2246 1115.5175,1118.8225 1089.4104,1084.7993  "/>
	<polygon fill="#FFFFFF" points="635.3535,1443.6998 605.6448,1456.0057 597.3637,1460.7869 635.3535,1476.5229 642.1514,1460.1113     "/>
	<polygon fill="#FFFFFF" points="635.3535,1443.6998 651.765,1436.902 655.8609,1427.0133 645.2491,1425.6163 631.1564,1436.4301    633.7334,1439.7886  "/>
	<polygon fill="#FFFFFF" points="1219.2715,1569.6774 1247.0973,1569.6774 1236.4487,1543.9696 1163.2393,1513.6453  "/>
	<polygon fill="#FFFFFF" points="390.7825,1589.3533 416.4854,1599.9998 416.4955,1599.9998 489.6998,1569.6774 410.4584,1569.6774     "/>
	<polygon fill="#FFFFFF" points="691.3857,1499.7321 731.0066,1516.1436 714.5949,1476.5229 698.1836,1483.3206  "/>
	<polygon fill="#FFFFFF" points="658.5627,1499.7321 674.9744,1539.3528 691.3857,1499.7321 674.9744,1492.9344  "/>
	<polygon fill="#FFFFFF" points="707.7972,1460.1113 714.5949,1476.5229 754.2158,1460.1113 714.5949,1443.6998  "/>
	<polygon fill="#FFFFFF" points="714.5949,1443.6998 731.0066,1404.0792 691.3857,1420.4907 698.1836,1436.902  "/>
	<polygon fill="#FFFFFF" points="954.7552,1492.9344 938.3439,1499.7321 954.7552,1539.3528 971.1669,1499.7321  "/>
	<polygon fill="#FFFFFF" points="971.1669,1499.7321 1010.7876,1516.1436 994.3762,1476.5229 977.9646,1483.3206  "/>
	<polygon fill="#FFFFFF" points="1197.9741,1152.7102 1173.4482,1128.1843 1164.4709,1094.6813 1148.0596,1123.1064    1115.5175,1118.8225 1135.499,1144.8627 1130.968,1152.7102 1140.0295,1152.7102 1152.5903,1183.0345 1165.1512,1152.7102  "/>
	<polygon fill="#FFFFFF" points="1175.7996,1285.4856 1169.002,1301.8972 1208.6226,1318.3083 1192.2113,1278.6876  "/>
	<polygon fill="#FFFFFF" points="1185.4133,1262.2762 1192.2113,1278.6876 1231.832,1262.2762 1192.2113,1245.865  "/>
	<polygon fill="#FFFFFF" points="938.3439,1420.4907 954.7552,1427.2885 971.1669,1420.4907 954.7552,1380.8699  "/>
	<polygon fill="#FFFFFF" points="971.1669,1420.4907 977.9646,1436.902 994.3762,1443.6998 1010.7876,1404.0789  "/>
	<polygon fill="#FFFFFF" points="915.1345,1476.5229 898.723,1516.1436 938.3439,1499.7321 931.546,1483.3206  "/>
	<polygon fill="#FFFFFF" points="845.1893,1414.7278 814.8649,1445.0521 829.9242,1460.1113 814.8649,1475.1704 799.8056,1460.1113    814.8649,1445.0521 784.5403,1414.7278 784.5403,1447.5505 754.2158,1460.1113 784.5403,1472.6722 784.5403,1505.4951    814.8647,1475.1704 845.1893,1505.4951 845.1893,1472.6722 875.5138,1460.1113 845.1893,1447.5505  "/>
	<polygon fill="#FFFFFF" points="859.5188,1309.4314 832.4281,1274.1262 848.8396,1245.7009 817.1353,1254.1958 797.1538,1228.1558    792.8695,1260.698 761.1652,1269.1929 789.5905,1285.6047 785.3062,1318.1467 811.3463,1298.1655 845.1893,1317.7046    845.1893,1356.7832 814.8647,1369.3439 784.5403,1356.7832 784.5403,1352.7202 781.0219,1350.6888 785.3062,1318.1467    759.2662,1338.1279 730.8407,1321.7166 739.3358,1353.4209 713.2955,1373.4025 742.1403,1377.2 731.0066,1404.0789    761.3309,1391.5183 784.5403,1414.7275 784.5403,1414.7278 784.5406,1381.9045 814.8649,1369.3439 845.1893,1381.9045    845.1895,1414.7273 868.3984,1391.5183 898.723,1404.0789 886.1624,1373.7544 909.3716,1350.5452 876.5486,1350.5452  "/>
	<polygon fill="#FFFFFF" points="987.5782,1460.1113 994.3762,1476.5229 1033.9968,1460.1113 994.3762,1443.6998  "/>
	<polygon fill="#FFFFFF" points="915.1345,1476.5229 921.9324,1460.1113 915.1345,1443.6998 875.5138,1460.1113  "/>
	<polygon fill="#FFFFFF" points="915.1345,1443.6998 931.546,1436.902 938.3439,1420.4907 898.723,1404.0789  "/>
	<polygon fill="#FFFFFF" points="954.7552,1539.3528 942.1945,1569.6774 909.3718,1569.6774 939.6939,1599.9998 939.6983,1599.9998    954.7552,1584.9426 969.8123,1599.9998 969.8167,1599.9998 1000.139,1569.6774 967.3163,1569.6774  "/>
	<polygon fill="#FFFFFF" points="1010.7874,1516.1436 1023.3485,1546.4681 1000.139,1569.6774 1032.9622,1569.6775    1045.522,1599.9998 1045.5237,1599.9998 1058.0835,1569.6774 1140.0298,1569.6774 1064.3213,1538.318 1064.3213,1505.4951    1041.1121,1528.7041  "/>
	<polygon fill="#FFFFFF" points="1112.9697,1278.6876 1096.5582,1318.3083 1136.179,1301.8972 1129.3811,1285.4856  "/>
	<polygon fill="#FFFFFF" points="1119.7673,1262.2762 1112.9697,1245.865 1073.3489,1262.2762 1112.9697,1278.6876  "/>
	<polygon fill="#FFFFFF" points="1136.179,1222.6555 1096.5582,1206.244 1112.9697,1245.865 1129.3811,1239.0669  "/>
	<polygon fill="#FFFFFF" points="1117.8551,1425.376 1087.5308,1437.937 1064.3213,1414.7275 1064.3213,1447.5505    1033.9968,1460.1113 1064.3213,1472.6722 1064.3213,1505.4951 1087.5308,1482.2859 1163.2393,1513.6453 1105.2943,1455.7004  "/>
	<polygon fill="#FFFFFF" points="1043.0244,1371.842 1043.0244,1350.5452 1000.139,1350.5452 1023.3485,1373.7544    1010.7876,1404.0789 1041.1122,1391.5183 1064.3213,1414.7275 1064.3213,1371.842  "/>
	<polygon fill="#FFFFFF" points="1096.5582,1318.3083 1066.2336,1330.8691 1043.0244,1307.66 1043.0244,1350.5452    1064.3213,1350.5452 1064.3213,1371.842 1107.2065,1371.842 1083.9973,1348.6331  "/>
	<polygon fill="#FFFFFF" points="989.4907,1297.0115 959.1661,1309.5723 922.6033,1273.0098 909.2206,1223.0638 935.2606,1203.0825    902.7188,1198.7981 894.2234,1167.0939 877.812,1195.5194 845.2696,1191.2351 865.2511,1217.2751 848.8396,1245.7009    880.5441,1237.2056 912.4952,1278.8455 932.5808,1327.3359 909.3716,1350.5452 942.1945,1350.5452 954.7552,1380.8699    967.3163,1350.5452 1000.139,1350.5452 976.9299,1327.3359  "/>
	<polygon fill="#FFFFFF" points="845.1893,1505.4951 845.1893,1544.5559 827.4255,1544.5559 814.8649,1557.1167 827.4255,1569.6774    845.1893,1569.6774 845.1893,1587.441 857.7479,1599.9998 857.7521,1599.9998 870.3107,1587.441 870.3107,1569.6774    909.3716,1569.6774 886.1624,1546.4681 898.723,1516.1436 868.3984,1528.7041  "/>
	<polygon fill="#FFFFFF" points="784.5403,1544.5559 784.5403,1505.4951 761.3309,1528.7041 731.0066,1516.1436 743.5674,1546.4681    720.358,1569.6774 759.4189,1569.6774 759.4189,1587.441 771.9775,1599.9998 771.9817,1599.9998 784.5403,1587.441    784.5403,1569.6774 802.3041,1569.6774 814.8649,1557.1167 802.3041,1544.5559  "/>
	<polygon fill="#FFFFFF" points="674.9744,1539.3528 662.4136,1569.6774 629.5906,1569.6774 659.913,1599.9998 659.9171,1599.9998    674.9744,1584.9426 690.0316,1599.9998 690.0356,1599.9998 720.358,1569.6774 687.535,1569.6774  "/>
	<polygon fill="#FFFFFF" points="548.7608,1488.8477 565.4083,1505.4951 565.4083,1479.2363  "/>
	<polygon fill="#FFFFFF" points="618.9422,1516.1436 658.5627,1499.7321 651.765,1483.3206 635.3535,1476.5229 618.9422,1516.1434    588.6177,1528.7041 565.4083,1505.4951 565.4083,1538.318 489.6998,1569.6774 571.6461,1569.6774 584.2059,1599.9998    584.2078,1599.9998 596.7674,1569.6774 629.5906,1569.6774 606.3813,1546.4678  "/>
	<polygon fill="#FFFFFF" points="1140.03,1569.6774 1213.2343,1599.9998 1213.2443,1599.9998 1238.9471,1589.3533    1219.2712,1569.6774  "/>
	<polygon fill="#FFFFFF" points="1175.7996,1239.0669 1192.2113,1245.865 1208.6226,1206.244 1169.002,1222.6555  "/>
	<polygon fill="#FFFFFF" points="1169.002,1222.6555 1152.5903,1183.0345 1136.179,1222.6555 1152.5903,1229.4534  "/>
	<polygon fill="#FFFFFF" points="1292.1135,379.9995 1289.7949,362.3879 1280,354.8719 1270.2053,362.3879 1267.8865,379.9995    1280,381.5945  "/>
	<polygon fill="#FFFFFF" points="1284.1971,319.8698 1284.1974,319.8696 1284.1971,319.8696  "/>
	<polygon fill="#FFFFFF" points="1699.1687,786.6663 1685.256,762.5685 1608.7144,742.0592 1671.5811,790.2984  "/>
	<polygon fill="#FFFFFF" points="1280.8495,62.116 1320.4702,130.7412 1310.1279,52.1831 1310.1227,52.1742 1288.051,35.2383    1280.8494,62.116 1280,60.645 1279.1505,62.116 1280,65.286  "/>
	<polygon fill="#FFFFFF" points="1323.8181,388.4946 1357.8412,414.6016 1352.2434,372.0833 1394.7618,366.4856 1360.7388,340.3789    1349.9248,354.4717 1352.2434,372.0834 1334.6318,374.4019 1323.8179,388.4946 1309.7251,377.6812 1292.1135,379.9995    1297.7112,422.5181  "/>
	<polygon fill="#FFFFFF" points="1344.3271,311.9534 1346.6458,329.5652 1360.7388,340.3789 1386.8455,306.3557  "/>
	<polygon fill="#FFFFFF" points="1500.6289,582.6763 1526.7361,548.6531 1484.2178,554.2507 1486.5363,571.8623  "/>
	<polygon fill="#FFFFFF" points="1280,894.5792 1275.4691,902.4267 1242.927,898.1424 1262.9083,924.1827 1246.4969,952.6082    1280,943.6309 1313.5029,952.6082 1297.0916,924.1827 1317.073,898.1424 1284.5308,902.4267  "/>
	<polygon fill="#FFFFFF" points="1291.6117,786.3268 1280,793.0306 1268.3884,786.3268 1276.8835,818.0311 1250.8435,838.0126    1280,841.851 1309.1565,838.0126 1283.1165,818.0311  "/>
	<polygon fill="#FFFFFF" points="1417.4027,867.0171 1419.7214,884.6287 1462.2395,879.0311 1462.2395,879.0308 1428.2164,852.9241     "/>
	<polygon fill="#FFFFFF" points="1419.7212,884.6287 1402.1096,886.9472 1391.2958,901.0402 1425.3191,927.1469  "/>
	<polygon fill="#FFFFFF" points="1432.004,622.2972 1429.6853,604.6854 1415.5925,593.8717 1389.4856,627.8948  "/>
	<polygon fill="#FFFFFF" points="1463.7085,630.7924 1449.6157,619.9785 1432.004,622.2972 1437.6016,664.8155  "/>
	<polygon fill="#FFFFFF" points="1466.606,556.5696 1484.2178,554.2507 1478.6199,511.7325 1452.5132,545.7556  "/>
	<polygon fill="#FFFFFF" points="1333.7,463.5554 1375.124,474.655 1380.6361,454.0837 1401.2074,459.5957 1395.6953,480.167    1375.124,474.655 1364.0244,516.0789 1392.4497,499.6675 1418.49,519.6489 1414.2058,487.1066 1442.6313,470.6951    1401.2073,459.5955 1412.3068,418.1716 1383.8815,434.583 1357.8412,414.6016 1362.1252,447.1439  "/>
	<polygon fill="#FFFFFF" points="1492.134,614.381 1474.5222,616.6994 1463.7085,630.7924 1497.7317,656.8991  "/>
	<polygon fill="#FFFFFF" points="1441.6995,559.8486 1452.5132,545.7556 1418.49,519.6489 1424.0879,562.1671  "/>
	<polygon fill="#FFFFFF" points="1415.5925,593.8717 1426.4065,579.7787 1424.0879,562.1671 1381.5695,567.7646  "/>
	<polygon fill="#FFFFFF" points="1428.2166,852.9241 1454.3234,818.901 1411.8052,824.4986 1414.1237,842.1102  "/>
	<polygon fill="#FFFFFF" points="1575.6897,572.7944 1586.7886,531.3733 1586.7864,531.3696 1566.2178,525.8583 1571.7292,505.29    1571.7273,505.2864 1530.3062,494.1876 1546.7175,522.6129 1526.7361,548.6531 1559.2783,544.3691  "/>
	<polygon fill="#FFFFFF" points="1534.6523,608.7832 1500.6289,582.6763 1489.8154,596.7692 1492.134,614.381 1534.6521,608.7832    1560.6926,628.7645 1552.1973,660.4691 1580.6228,644.0575 1645.635,693.9434 1604.6621,622.9757 1624.6421,596.9374    1624.6412,596.936 1592.1016,601.2199 1575.6897,572.7944 1567.1947,604.499  "/>
	<polygon fill="#FFFFFF" points="1344.3271,311.9534 1338.7297,269.4351 1358.7109,243.3948 1390.4154,251.8899 1374.0039,223.4641    1393.9841,197.4261 1393.983,197.4246 1361.4434,201.7087 1320.47,130.741 1331.1663,211.9861 1302.7407,228.3977    1334.4453,236.8928 1338.7295,269.4351 1312.6227,303.4583 1326.7155,314.2719  "/>
	<rect x="1669.5585" y="821.1505" fill="#FFFFFF" width="0.0001" height="0.0003"/>
	<polygon fill="#FFFFFF" points="1647.1619,854.6856 1618.7773,891.6773 1687.4021,852.0566 1693.9333,827.6821 1669.5587,821.1507    1600.9336,860.7715  "/>
	<polygon fill="#FFFFFF" points="1669.5586,821.1506 1693.6566,807.2378 1671.5811,790.2984 1593.0173,800.6415  "/>
	<polygon fill="#FFFFFF" points="1411.8052,824.4986 1406.2075,781.9803 1380.1006,816.0034 1394.1934,826.8171  "/>
	<polygon fill="#FFFFFF" points="1369.2866,830.0962 1380.1006,816.0034 1346.0774,789.8965 1351.675,832.415  "/>
	<polygon fill="#FFFFFF" points="1343.1799,864.1193 1353.9938,850.0266 1351.675,832.415 1309.1565,838.0126  "/>
	<path fill="#FFFFFF" d="M1425.3188,927.1469l4.2843,32.5423l-28.4254,16.4113l-31.7045-8.4951l-4.2843-32.5421l-19.9814,26.0402   l-31.7043-8.4951l19.5303,33.8274l-15.3838,8.8818l-4.5974,17.1584l17.1582,4.5976l15.3838-8.8818l8.8818,15.3839l0.1091,0.0291   l-0.0293,0.1091l8.8818,15.3839l-15.3837,8.8818l-4.5978,17.1582l17.1584,4.5977l15.3838-8.8818l19.5304,33.8275l8.4952-31.7043   l32.542-4.2843l-26.0403-19.9814l8.4954-31.7046l-33.8276,19.5305l-8.8818-15.384l-0.109-0.0291l0.0292-0.1091l-8.8816-15.3835   l33.8274-19.5305l24.3746,6.5311l-6.5311,24.3746l28.4255-16.4113l26.0403,19.9814l-4.2845-32.5422l28.4258-16.4116   l-24.3749-6.5311l6.5313-24.3748l-28.4255,16.4114L1425.3188,927.1469z M1450.6921,971.0947l-3.5222-0.9437l0.9438-3.5222   l3.5222,0.9438L1450.6921,971.0947z"/>
	<polygon fill="#FFFFFF" points="1497.7317,656.8991 1502.0157,689.4414 1473.5905,705.8528 1505.2949,714.348 1509.5791,746.8903    1489.5979,772.9304 1457.8933,764.4352 1436.4507,727.2953 1473.5905,705.8528 1441.886,697.3577 1437.6016,664.8155    1417.6201,690.8557 1385.9158,682.3605 1407.3584,719.5002 1425.802,708.8519 1436.4507,727.2956 1418.0068,737.9439    1407.3584,719.5002 1370.2188,740.9429 1401.9231,749.438 1406.2073,781.9803 1426.1887,755.9401 1457.8931,764.4352    1474.3047,792.8607 1454.3231,818.901 1486.8655,814.6168 1503.2769,843.0422 1494.7817,874.7468 1462.2395,879.0308    1462.2397,879.0311 1462.2395,879.0311 1488.2798,899.0123 1479.7847,930.7169 1508.2102,914.3053 1523.5327,926.0628    1526.0537,945.2113 1497.6283,961.6227 1529.3326,970.1181 1533.6169,1002.6602 1553.5984,976.6199 1585.3027,985.1153    1601.7141,1013.5406 1581.7329,1039.5808 1614.2753,1035.2969 1630.6865,1063.7222 1622.1914,1095.4266 1589.6492,1099.7109    1615.6897,1119.6921 1607.1942,1151.3967 1644.3339,1129.9539 1633.6855,1111.5103 1652.1293,1100.8619 1630.6868,1063.7222    1639.1821,1032.0176 1671.7239,1027.7332 1645.6838,1007.752 1666.8931,928.598 1617.0074,993.6102 1585.3029,985.1151    1568.8915,956.6896 1618.7773,891.6773 1547.8098,932.6504 1532.4873,920.893 1529.9662,901.7447 1600.9336,860.7715    1519.6887,871.4675 1503.2771,843.0421 1511.7722,811.3377 1593.0173,800.6415 1513.8633,779.4324 1509.5792,746.8901    1529.5605,720.85 1608.7144,742.0592 1543.7021,692.1736 1552.1973,660.4691 1523.772,676.8805  "/>
	<polygon fill="#FFFFFF" points="1544.8124,1087.6969 1547.1309,1105.3083 1529.5192,1107.6271 1518.7056,1121.7197    1552.7288,1147.8267 1547.1309,1105.3086 1589.6492,1099.7109 1555.626,1073.604  "/>
	<polygon fill="#FFFFFF" points="1389.4856,627.8948 1356.9436,632.179 1340.532,603.7535 1332.0369,635.4579 1280,642.3086    1227.9631,635.4579 1219.468,603.7535 1203.0565,632.179 1170.5144,627.8948 1190.4956,653.9351 1174.0844,682.3605    1205.7889,673.8654 1225.7701,699.9055 1230.0544,667.3634 1280,653.9805 1329.9456,667.3634 1334.2299,699.9055    1354.2112,673.8654 1385.9158,682.3605 1369.5044,653.9351  "/>
	<polygon fill="#FFFFFF" points="1476.4589,451.1647 1442.6313,470.6951 1474.3359,479.1902 1478.6199,511.7325 1498.6016,485.6924    1530.3059,494.1874 1510.7756,460.3599 1526.1594,451.478 1530.7561,434.3223 1530.7542,434.3188 1513.5989,429.7222    1498.2148,438.604 1489.333,423.2202 1472.1748,418.6226 1467.577,435.781  "/>
	<polygon fill="#FFFFFF" points="1386.8455,306.3557 1419.3877,302.0714 1435.7993,330.4969 1446.8979,289.0759 1446.8959,289.0721    1426.3274,283.5608 1431.8387,262.9924 1431.8365,262.9889 1390.4154,251.8899 1406.8269,280.3154  "/>
	<polygon fill="#FFFFFF" points="1394.7618,366.4858 1420.8021,386.467 1412.307,418.1716 1446.1345,398.6414 1455.0164,414.025    1472.1748,418.6226 1476.7723,401.4641 1467.8905,386.0806 1483.2742,377.1987 1487.8711,360.0432 1487.8689,360.0396    1470.7134,355.4426 1455.3297,364.3245 1435.7993,330.4969 1427.304,362.2015  "/>
	<polygon fill="#FFFFFF" points="1712.1335,769.7704 1708.5022,742.1878 1708.4973,742.1791 1645.6353,693.9434 1685.256,762.5683     "/>
	<polygon fill="#FFFFFF" points="1377.2031,890.2263 1359.5913,892.5448 1365.189,935.0633 1391.2958,901.0402  "/>
	<polygon fill="#FFFFFF" points="1343.1799,864.1193 1317.073,898.1424 1359.5913,892.5448 1357.2727,874.9332  "/>
	<polygon fill="#FFFFFF" points="1275.8029,319.8696 1273.4843,337.4813 1280,345.9729 1286.516,337.4813 1284.1971,319.8698    1280,320.4221  "/>
	<polygon fill="#FFFFFF" points="1275.8029,319.8696 1280,287.9885 1284.1974,319.8696 1301.8091,317.5509 1312.6227,303.4583    1280,278.426 1247.3773,303.4583 1258.1909,317.5509  "/>
	<polygon fill="#FFFFFF" points="874.7441,762.5685 860.8312,786.6663 888.419,790.2984 951.2856,742.0592  "/>
	<polygon fill="#FFFFFF" points="1279.1505,62.116 1271.9487,35.2383 1249.8772,52.1742 1249.8721,52.1831 1239.5298,130.7412  "/>
	<polygon fill="#FFFFFF" points="1215.6729,311.9534 1173.1545,306.3557 1199.2612,340.3789 1213.3542,329.5652  "/>
	<polygon fill="#FFFFFF" points="1262.2888,422.5181 1267.8865,379.9995 1250.2749,377.6812 1236.1821,388.4946 1225.3682,374.4019    1207.7566,372.0834 1210.0752,354.4717 1199.2612,340.3789 1165.2383,366.4856 1207.7566,372.0833 1202.1588,414.6016    1236.1819,388.4946  "/>
	<polygon fill="#FFFFFF" points="1073.4636,571.8623 1075.7822,554.2507 1033.264,548.6531 1059.3708,582.6763  "/>
	<polygon fill="#FFFFFF" points="1059.3708,582.6763 1025.3477,608.7832 1067.866,614.381 1070.1846,596.7692  "/>
	<polygon fill="#FFFFFF" points="1189.7815,740.9429 1218.2068,757.3542 1213.9227,789.8965 1239.9628,769.915 1268.3884,786.3265    1259.8931,754.6222 1280,739.1936 1300.1071,754.6222 1291.6117,786.3265 1320.0371,769.915 1346.0774,789.8965 1341.793,757.3542    1370.2185,740.9429 1338.5139,732.4476 1334.2299,699.9055 1314.2485,725.9456 1280,716.7687 1245.7513,725.9456    1225.7701,699.9055 1221.4861,732.4476  "/>
	<polygon fill="#FFFFFF" points="1140.2788,884.6287 1134.6809,927.1469 1168.7041,901.0402 1157.8904,886.9472  "/>
	<polygon fill="#FFFFFF" points="1142.5973,867.0171 1131.7834,852.9241 1097.7603,879.0308 1097.7605,879.0311 1097.7603,879.0311    1140.2788,884.6287  "/>
	<polygon fill="#FFFFFF" points="1144.4075,593.8717 1130.3147,604.6854 1127.996,622.2972 1170.5144,627.8948  "/>
	<polygon fill="#FFFFFF" points="1127.996,622.2972 1110.3844,619.9785 1096.2914,630.7924 1122.3984,664.8155  "/>
	<polygon fill="#FFFFFF" points="1107.4868,545.7556 1081.3799,511.7325 1075.7822,554.2507 1093.3939,556.5696  "/>
	<polygon fill="#FFFFFF" points="1195.9758,516.0789 1184.876,474.655 1164.3047,480.167 1158.7926,459.5957 1179.364,454.0837    1184.876,474.655 1226.3,463.5554 1197.8745,447.1439 1202.1588,414.6016 1176.1185,434.583 1147.6931,418.1716    1158.7926,459.5955 1117.3687,470.6951 1145.7942,487.1066 1141.51,519.6489 1167.5502,499.6675  "/>
	<polygon fill="#FFFFFF" points="1280,494.5591 1283.5186,492.5276 1309.5587,512.509 1305.2744,479.9669 1333.7,463.5554    1301.9954,455.0601 1297.7112,422.5181 1280,445.5996 1262.2888,422.5181 1258.0046,455.0601 1226.3,463.5554 1254.7256,479.9669    1250.4413,512.509 1276.4816,492.5276  "/>
	<polygon fill="#FFFFFF" points="1280,581.1365 1324.1206,575.3281 1340.532,603.7535 1349.0271,572.0492 1381.5695,567.7646    1355.5292,547.7832 1364.0243,516.0791 1335.5989,532.4905 1309.5587,512.509 1313.843,545.051 1280,564.5901 1246.1572,545.051    1250.4413,512.509 1224.4012,532.4905 1195.9758,516.0791 1204.4708,547.7832 1178.4307,567.7646 1210.9729,572.0492    1219.468,603.7535 1235.8795,575.3281  "/>
	<polygon fill="#FFFFFF" points="1085.4778,616.6994 1067.866,614.381 1062.2683,656.8991 1096.2914,630.7924  "/>
	<polygon fill="#FFFFFF" points="1107.4868,545.7556 1118.3005,559.8486 1135.9124,562.1671 1141.51,519.6489  "/>
	<polygon fill="#FFFFFF" points="1135.9124,562.1671 1133.5935,579.7787 1144.4075,593.8717 1178.4307,567.7646  "/>
	<polygon fill="#FFFFFF" points="1148.1948,824.4986 1105.6766,818.901 1131.7834,852.9241 1145.8763,842.1102  "/>
	<polygon fill="#FFFFFF" points="1025.3477,608.7832 992.8056,604.499 984.3102,572.7944 967.8985,601.2199 935.3588,596.936    935.358,596.9374 955.3381,622.9757 914.3649,693.9434 979.3773,644.0575 1007.8026,660.4691 999.3074,628.7645  "/>
	<polygon fill="#FFFFFF" points="1033.264,548.6531 1013.2824,522.6129 1029.6938,494.1876 988.2727,505.2864 988.2708,505.29    993.782,525.8583 973.2137,531.3696 973.2115,531.3733 984.3102,572.7944 1000.7217,544.3691  "/>
	<polygon fill="#FFFFFF" points="888.419,790.2984 866.3432,807.2378 890.4412,821.1506 966.9825,800.6415  "/>
	<polygon fill="#FFFFFF" points="1148.1951,824.4986 1165.8065,826.8171 1179.8994,816.0034 1153.7927,781.9803  "/>
	<polygon fill="#FFFFFF" points="1179.8994,816.0034 1190.7131,830.0962 1208.325,832.415 1213.9226,789.8965  "/>
	<polygon fill="#FFFFFF" points="1208.325,832.415 1206.0063,850.0266 1216.8201,864.1193 1250.8433,838.0126  "/>
	<path fill="#FFFFFF" d="M1050.4207,746.8901l-4.2841,32.5423l-79.1541,21.2091l81.2452,10.6962l8.4951,31.7043l-16.4116,28.4255   l-81.2449-10.696l70.9675,40.9731l-2.5211,19.1483l-15.3224,11.7574l-70.9677-40.9731l49.8858,65.0123l-16.4115,28.4255   l-31.7045,8.4952l-49.8856-65.0123l21.2092,79.1541l-26.04,19.9811l32.5419,4.2844l8.4954,31.7046l-21.4425,37.1398   l18.4437,10.6483l-10.6486,18.4436l37.1399,21.4429l-8.4952-31.7046l26.04-19.9812l-32.5421-4.2843l-8.4951-31.7045   l16.4115-28.4253l32.5421,4.2839l-19.9812-26.0402l16.4115-28.4253l31.7043-8.4954l19.9813,26.0403l-5.5977,42.5182l17.6119,2.3186   l14.0927-10.8137l-26.1068-34.0231l4.2843-32.5421l31.7046-8.4954l28.4255,16.4116l-4.2845,32.5422l26.0403-19.9814   l28.4255,16.4113l-6.5313-24.3746l24.3746-6.5311l33.8276,19.5305l-8.882,15.3835l0.0294,0.1091l-0.109,0.0291l-8.8818,15.384   l-33.8276-19.5305l8.4951,31.7046l-26.0403,19.9814l32.5422,4.2843l8.4951,31.7043l19.5305-33.8275l15.3839,8.8818l17.1581-4.5977   l-4.5974-17.1582l-15.3838-8.8818l8.8818-15.3839l-0.0293-0.1091l0.1091-0.0291l8.8818-15.3839l15.3837,8.8818l17.1583-4.5976   l-4.5975-17.1584l-15.3837-8.8818l19.5303-33.8274l-31.7043,8.4951l-19.9814-26.0402l-4.2843,32.5421l-31.7043,8.4951   l-28.4255-16.4113l4.2843-32.5423l-26.0403,19.9814l-28.4255-16.4114l6.5311,24.3748l-24.3748,6.5311l-28.4254-16.4114   l2.521-19.1485l15.3224-11.7575l28.4257,16.4116l-8.4951-31.7046l26.04-19.9812v-0.0002l-32.542-4.284l-8.4951-31.7046   l16.4114-28.4255l32.5424,4.2842l-19.9814-26.0403l16.4113-28.4255l-31.7046,8.4951l-19.9812-26.0401l4.2841-32.5422   l31.7046-8.4952l-28.4253-16.4114l4.2841-32.5423l-26.0403,19.9814l-28.4255-16.4114l8.4954,31.7045l-65.0123,49.8856   l79.1538-21.2092L1050.4207,746.8901z M1111.8862,966.6288l0.9438,3.5222l-3.5222,0.9437l-0.9437-3.5221L1111.8862,966.6288z"/>
	<polygon fill="#FFFFFF" points="1153.7927,781.9803 1158.077,749.438 1189.7813,740.9429 1152.6417,719.5002 1141.9932,737.9439    1123.5493,727.2956 1134.198,708.8519 1152.6417,719.5002 1174.0844,682.3605 1142.3799,690.8557 1122.3984,664.8155    1118.114,697.3577 1086.4095,705.8528 1123.5493,727.2953 1102.1067,764.4352 1133.8113,755.9401  "/>
	<polygon fill="#FFFFFF" points="1117.3687,470.6951 1083.541,451.1647 1092.423,435.781 1087.8252,418.6226 1070.667,423.2202    1061.7852,438.604 1046.4012,429.7222 1029.2458,434.3188 1029.2439,434.3223 1033.8406,451.478 1049.2242,460.3599    1029.6941,494.1874 1061.3984,485.6924 1081.3799,511.7325 1085.6641,479.1902  "/>
	<polygon fill="#FFFFFF" points="1173.1545,306.3557 1153.1731,280.3154 1169.5846,251.8899 1128.1633,262.9889 1128.1614,262.9924    1133.6726,283.5608 1113.1042,289.0721 1113.1021,289.0759 1124.2007,330.4969 1140.6122,302.0714  "/>
	<polygon fill="#FFFFFF" points="1113.8655,398.6414 1147.6931,418.1716 1139.1979,386.467 1165.2383,366.4858 1132.696,362.2015    1124.2007,330.4969 1104.6704,364.3245 1089.2866,355.4426 1072.1311,360.0396 1072.1289,360.0432 1076.7258,377.1987    1092.1096,386.0806 1083.2275,401.4641 1087.8252,418.6226 1104.9836,414.025  "/>
	<polygon fill="#FFFFFF" points="1257.2595,228.3977 1280,241.5271 1302.7407,228.3977 1280,222.3042  "/>
	<polygon fill="#FFFFFF" points="1221.2704,269.4351 1215.6729,311.9534 1233.2847,314.2719 1247.3773,303.4583 1221.2705,269.4351    1225.5547,236.8928 1257.2592,228.3977 1228.8337,211.9861 1239.5298,130.741 1198.5566,201.7087 1166.0168,197.4246    1166.016,197.4261 1185.9961,223.4641 1169.5846,251.8899 1201.2891,243.3948  "/>
	<polygon fill="#FFFFFF" points="914.3647,693.9434 851.5027,742.1791 851.4977,742.1878 847.8665,769.7704 874.7441,762.5683  "/>
	<polygon fill="#FFFFFF" points="1182.797,890.2263 1168.7041,901.0402 1194.811,935.0633 1200.4086,892.5448  "/>
	<polygon fill="#FFFFFF" points="1202.7274,874.9332 1200.4086,892.5448 1242.927,898.1424 1216.8201,864.1193  "/>
	<polygon fill="#D18913" points="1605.2446,1539.3528 1617.8054,1569.6774 1650.6282,1569.6774 1650.6284,1569.6774    1673.8376,1546.4681 1661.277,1516.1436 1621.6563,1499.7321  "/>
	<polygon fill="#D18913" points="1549.2124,1404.0789 1518.8878,1391.5183 1495.6787,1414.7275 1495.6787,1447.5505    1526.0032,1460.1113 1565.6235,1443.6998  "/>
	<polygon fill="#D18913" points="1661.277,1404.0789 1673.8376,1373.7544 1650.6284,1350.5452 1617.8054,1350.5452    1605.2446,1380.8699 1621.6563,1420.4907  "/>
	<polygon fill="#D18913" points="1714.8105,1414.7273 1691.6013,1391.5183 1661.277,1404.0789 1644.8655,1443.6998    1684.4863,1460.1113 1714.8108,1447.5505 1714.8108,1414.7278 1714.8105,1414.7275  "/>
	<polygon fill="#D18913" points="1661.277,1516.1436 1691.6013,1528.7041 1714.8108,1505.4951 1714.8108,1472.6722    1684.4863,1460.1113 1644.8655,1476.5229  "/>
	<polygon fill="#D18913" points="1605.2446,1380.8699 1592.6838,1350.5452 1559.861,1350.5452 1536.6516,1373.7544    1549.2124,1404.0789 1588.8331,1420.4907  "/>
	<polygon fill="#D18913" points="1549.2124,1516.1436 1536.6516,1546.4681 1559.861,1569.6774 1592.6838,1569.6774    1605.2446,1539.3528 1588.8331,1499.7321  "/>
	<polygon fill="#D18913" points="1526.0032,1460.1113 1495.6787,1472.6722 1495.6787,1505.4951 1518.8881,1528.7041    1549.2124,1516.1436 1565.6235,1476.5229  "/>
	<polygon fill="#D18913" points="1884.5232,1107.7092 1851.9807,1111.9934 1825.8738,1146.0166 1859.8969,1172.1235    1892.439,1167.8391 1900.9343,1136.1346 1900.9343,1136.1345  "/>
	<polygon fill="#D18913" points="1743.7349,1082.9893 1717.6946,1063.0077 1689.269,1079.4192 1680.7738,1111.1235    1706.814,1131.105 1749.3325,1125.5073  "/>
	<polygon fill="#D18913" points="1714.7303,1191.2351 1694.7489,1217.2751 1711.1604,1245.7009 1742.8647,1254.1958    1762.8462,1228.1558 1757.2488,1185.6372  "/>
	<polygon fill="#D18913" points="1762.8462,1228.1558 1767.1306,1260.698 1798.8351,1269.1929 1827.2605,1252.7816    1822.9763,1220.2395 1788.9531,1194.1327  "/>
	<polygon fill="#D18913" points="1822.9763,1220.2395 1849.0166,1240.2209 1877.442,1223.8093 1885.9373,1192.105    1859.8969,1172.1235 1817.3787,1177.7212  "/>
	<polygon fill="#D18913" points="1706.814,1131.105 1674.272,1135.3893 1665.7769,1167.0939 1682.1881,1195.5194    1714.7303,1191.2351 1740.8372,1157.2119  "/>
	<polygon fill="#D18913" points="1803.8647,1075.0728 1799.5807,1042.5308 1767.8762,1034.0354 1739.4506,1050.4469    1743.7349,1082.9893 1777.7578,1109.0959  "/>
	<polygon fill="#D18913" points="1851.9807,1111.9934 1871.9619,1085.9532 1855.5508,1057.5276 1823.8462,1049.0325    1803.8647,1075.0728 1809.4624,1117.5911  "/>
	<polygon fill="#D18913" points="708.0192,1111.9934 675.4772,1107.7092 659.0657,1136.1345 659.0657,1136.1346 667.5608,1167.8391    700.1031,1172.1235 734.1262,1146.0166  "/>
	<polygon fill="#D18913" points="853.186,1131.105 879.2263,1111.1235 870.731,1079.4192 842.3056,1063.0077 816.2651,1082.9893    810.6678,1125.5073  "/>
	<polygon fill="#D18913" points="865.2511,1217.2751 845.2696,1191.2351 802.7514,1185.6372 797.1538,1228.1558 817.1353,1254.1958    848.8396,1245.7009  "/>
	<polygon fill="#D18913" points="737.0237,1220.2395 732.7394,1252.7816 761.165,1269.1929 761.1652,1269.1929 792.8695,1260.698    797.1538,1228.1558 771.0469,1194.1327  "/>
	<polygon fill="#D18913" points="700.1031,1172.1235 674.0628,1192.105 682.558,1223.8093 710.9835,1240.2209 737.0237,1220.2395    742.6213,1177.7212  "/>
	<polygon fill="#D18913" points="845.2696,1191.2351 877.812,1195.5194 894.2234,1167.0939 885.7283,1135.3893 853.186,1131.105    819.1629,1157.2119  "/>
	<polygon fill="#D18913" points="816.2651,1082.9893 820.5494,1050.4469 792.1239,1034.0354 760.4196,1042.5308 756.1353,1075.0728    782.2422,1109.0959  "/>
	<polygon fill="#D18913" points="756.1353,1075.0728 736.1538,1049.0325 704.4493,1057.5276 688.038,1085.9532 708.0192,1111.9934    750.5377,1117.5911  "/>
	<polygon fill="#D18913" points="898.723,1516.1436 886.1624,1546.4681 909.3716,1569.6774 909.3718,1569.6774 942.1945,1569.6774    954.7552,1539.3528 938.3439,1499.7321  "/>
	<polygon fill="#D18913" points="1010.7876,1404.0789 994.3762,1443.6998 1033.9968,1460.1113 1064.3213,1447.5505    1064.3213,1414.7275 1041.1122,1391.5183  "/>
	<polygon fill="#D18913" points="954.7552,1380.8699 942.1945,1350.5452 909.3716,1350.5452 886.1624,1373.7544 898.723,1404.0789    938.3439,1420.4907  "/>
	<polygon fill="#D18913" points="898.723,1404.0789 868.3984,1391.5183 845.1895,1414.7273 845.1895,1414.7275 845.1893,1414.7278    845.1893,1447.5505 875.5138,1460.1113 915.1345,1443.6998  "/>
	<polygon fill="#D18913" points="875.5138,1460.1113 845.1893,1472.6722 845.1893,1505.4951 868.3984,1528.7041 898.723,1516.1436    915.1345,1476.5229  "/>
	<polygon fill="#D18913" points="1010.7876,1404.0789 1023.3485,1373.7544 1000.139,1350.5452 967.3163,1350.5452    954.7552,1380.8699 971.1669,1420.4907  "/>
	<polygon fill="#D18913" points="1010.7876,1516.1436 971.1669,1499.7321 954.7552,1539.3528 967.3163,1569.6774    1000.139,1569.6774 1023.3485,1546.4681 1010.7874,1516.1436 1041.1121,1528.7041 1064.3213,1505.4951 1064.3213,1472.6722    1033.9968,1460.1113 994.3762,1476.5229  "/>
	<polygon fill="#D18913" points="1526.7361,548.6531 1546.7175,522.6129 1530.3062,494.1876 1530.3059,494.1876 1530.3059,494.1874    1498.6016,485.6924 1478.6199,511.7325 1484.2178,554.2507  "/>
	<polygon fill="#D18913" points="1497.7317,656.8991 1463.7085,630.7924 1437.6016,664.8155 1441.886,697.3577 1473.5905,705.8528    1502.0157,689.4414  "/>
	<polygon fill="#D18913" points="1381.5695,567.7646 1349.0271,572.0492 1340.532,603.7535 1356.9436,632.179 1389.4856,627.8948    1415.5925,593.8717  "/>
	<polygon fill="#D18913" points="1418.49,519.6489 1392.4497,499.6675 1364.0244,516.0789 1364.0243,516.0791 1355.5292,547.7832    1381.5695,567.7646 1424.0879,562.1671  "/>
	<polygon fill="#D18913" points="1478.6199,511.7325 1474.3359,479.1902 1442.6313,470.6951 1414.2058,487.1066 1418.49,519.6489    1452.5132,545.7556  "/>
	<polygon fill="#D18913" points="1389.4856,627.8948 1369.5044,653.9351 1385.9158,682.3605 1417.6201,690.8557 1437.6016,664.8155    1432.004,622.2972  "/>
	<rect x="1534.6521" y="608.7832" fill="#D18913" width="0.0002" height="0"/>
	<polygon fill="#D18913" points="1534.6523,608.7832 1567.1947,604.499 1575.6897,572.7944 1559.2783,544.3691 1526.7361,548.6531    1500.6289,582.6763  "/>
	<polygon fill="#D18913" points="1497.7317,656.8991 1523.772,676.8805 1552.1973,660.4691 1560.6926,628.7645 1534.6521,608.7832    1492.134,614.381  "/>
	<polygon fill="#D18913" points="1081.3799,511.7325 1061.3984,485.6924 1029.6941,494.1874 1029.6941,494.1876 1029.6938,494.1876    1013.2824,522.6129 1033.264,548.6531 1075.7822,554.2507  "/>
	<polygon fill="#D18913" points="1062.2683,656.8991 1057.9843,689.4414 1086.4095,705.8528 1118.114,697.3577 1122.3984,664.8155    1096.2914,630.7924  "/>
	<polygon fill="#D18913" points="1178.4307,567.7646 1144.4075,593.8717 1170.5144,627.8948 1203.0565,632.179 1219.468,603.7535    1210.9729,572.0492  "/>
	<polygon fill="#D18913" points="1178.4307,567.7646 1204.4708,547.7832 1195.9758,516.0791 1195.9758,516.0789 1167.5502,499.6675    1141.51,519.6489 1135.9124,562.1671  "/>
	<polygon fill="#D18913" points="1141.51,519.6489 1145.7942,487.1066 1117.3687,470.6951 1085.6641,479.1902 1081.3799,511.7325    1107.4868,545.7556  "/>
	<polygon fill="#D18913" points="1122.3984,664.8155 1142.3799,690.8557 1174.0844,682.3605 1190.4956,653.9351 1170.5144,627.8948    1127.996,622.2972  "/>
	<polygon fill="#D18913" points="1033.264,548.6531 1000.7217,544.3691 984.3102,572.7944 992.8056,604.499 1025.3477,608.7832    1059.3708,582.6763  "/>
	<polygon fill="#D18913" points="1025.3477,608.7832 999.3074,628.7645 1007.8026,660.4691 1036.228,676.8805 1062.2683,656.8991    1067.866,614.381  "/>
	<line id="line978" fill="none" x1="1221.2706" y1="269.4351" x2="1221.2704" y2="269.4351"/>
	<line id="line986" fill="none" x1="1173.1545" y1="306.3557" x2="1173.1545" y2="306.3557"/>
	<polygon fill="#098A5B" points="1775.4597,1505.4951 1775.4597,1505.4951 1798.6688,1528.7041 1828.9934,1516.1436    1845.4052,1476.5229 1805.7842,1460.1113 1775.4597,1472.6722  "/>
	<polygon fill="#098A5B" points="1839.6421,1569.6774 1872.4648,1569.6774 1885.0256,1539.3528 1868.6143,1499.7321    1828.9934,1516.1436 1816.4325,1546.4681  "/>
	<polygon fill="#098A5B" points="1924.6465,1476.5229 1941.0577,1516.1434 1971.3823,1528.7041 1994.5918,1505.4951    1994.5918,1479.2363 1962.6362,1460.7869  "/>
	<polygon fill="#098A5B" points="1930.4094,1569.6774 1953.6189,1546.4678 1941.0577,1516.1436 1901.4374,1499.7321    1885.0256,1539.3528 1897.5864,1569.6774  "/>
	<polygon fill="#098A5B" points="1407.4097,1341.5177 1419.9705,1371.842 1452.7935,1371.842 1476.0027,1348.6331    1463.4418,1318.3083 1423.821,1301.8972  "/>
	<rect x="1407.4095" y="1341.5176" fill="#098A5B" width="0.0002" height="0.0001"/>
	<polygon fill="#098A5B" points="1351.3774,1318.3083 1338.8165,1348.6331 1362.0258,1371.842 1394.8488,1371.842    1407.4095,1341.5177 1390.998,1301.8972  "/>
	<polygon fill="#098A5B" points="1486.6509,1262.2762 1447.0303,1278.6876 1463.4418,1318.3083 1493.7664,1330.8691    1516.9758,1307.66 1516.9758,1307.6598 1516.9758,1274.8369 1486.6512,1262.2762 1516.9758,1249.7153 1516.9758,1216.8926    1516.9758,1216.8923 1493.7664,1193.6831 1463.4418,1206.244 1447.0303,1245.865  "/>
	<polygon fill="#098A5B" points="1351.3774,1206.244 1321.0529,1193.6831 1297.8436,1216.8923 1297.8436,1249.7153    1328.168,1262.2762 1367.7888,1245.865  "/>
	<polygon fill="#098A5B" points="1328.168,1262.2762 1297.8436,1274.8369 1297.8436,1307.6598 1321.0529,1330.8691    1351.3774,1318.3083 1367.7888,1278.6876  "/>
	<polygon fill="#098A5B" points="1407.4097,1183.0345 1394.8488,1152.7102 1362.026,1152.7102 1362.0258,1152.7104    1362.0255,1152.7104 1338.8165,1175.9194 1351.3774,1206.244 1390.998,1222.6555  "/>
	<polygon fill="#098A5B" points="1907.7666,1276.3329 1907.7665,1276.3329 1879.3411,1292.7444 1883.6251,1325.2865    1917.6484,1351.3936 1943.7552,1317.3702 1939.4709,1284.8279  "/>
	<polygon fill="#098A5B" points="1995.4413,1299.8252 1963.7367,1291.3301 1943.7552,1317.3702 1949.353,1359.8887    1991.8713,1354.2908 2011.8527,1328.2507  "/>
	<polygon fill="#098A5B" points="1828.9934,1404.0789 1798.6688,1391.5183 1775.4597,1414.7275 1775.4597,1414.7278    1775.4597,1447.5505 1805.7842,1460.1113 1845.4052,1443.6998 1828.9934,1404.0792 1868.6143,1420.4907 1873.2898,1409.2026    1880.7278,1399.5095 1846.7046,1373.4025 1817.8596,1377.2  "/>
	<polygon fill="#098A5B" points="1829.1597,1321.7164 1820.6643,1353.4209 1846.7046,1373.4025 1889.2229,1367.8049    1883.6251,1325.2865 1857.585,1305.3052  "/>
	<polygon fill="#098A5B" points="1962.6362,1460.7866 1994.5918,1479.2362 2017.3325,1466.1067 2025.8278,1434.4021    1999.7875,1414.4209 1957.2692,1420.0186  "/>
	<polygon fill="#098A5B" points="1926.2664,1439.7886 1924.6465,1443.6998 1954.3551,1456.0057 1928.8438,1436.4301  "/>
	<polygon fill="#098A5B" points="2040.8248,1378.4324 2024.4135,1350.0066 1991.8713,1354.2908 1965.7644,1388.3142    1999.7875,1414.4209 2032.3298,1410.1367  "/>
	<polygon fill="#098A5B" points="1552.7288,1147.8267 1518.7056,1121.7197 1492.5986,1155.7432 1487.001,1113.2246    1444.4825,1118.8225 1424.5011,1144.8627 1429.032,1152.7102 1419.9705,1152.7102 1407.4097,1183.0345 1423.821,1222.6555    1463.4418,1206.244 1474.6958,1179.0742 1492.5984,1155.7432 1496.8828,1188.2854 1528.5873,1196.7805 1528.5874,1196.7805    1557.0127,1180.3691 1552.7288,1147.827 1578.7688,1167.8085 1607.1942,1151.397 1607.1942,1151.3967 1615.6897,1119.6921    1589.6492,1099.7109 1547.1309,1105.3086  "/>
	<polygon fill="#098A5B" points="1581.7329,1039.5808 1601.7141,1013.5406 1585.3027,985.1153 1553.5984,976.6199    1533.6169,1002.6602 1539.2146,1045.1785  "/>
	<polygon fill="#098A5B" points="1581.7329,1039.5808 1555.6262,1073.604 1555.626,1073.604 1589.6492,1099.7109    1622.1914,1095.4266 1630.6865,1063.7222 1614.2753,1035.2969  "/>
	<polygon fill="#098A5B" points="1473.4871,1010.5764 1507.5101,1036.6833 1533.6169,1002.6602 1529.3326,970.1181    1497.6283,961.6227 1469.2025,978.0343 1473.4871,1010.5765 1447.4468,990.5951 1419.0212,1007.0063 1410.5259,1038.7109    1436.5662,1058.6924 1479.0847,1053.0948  "/>
	<polygon fill="#098A5B" points="1436.5662,1058.6924 1404.0242,1062.9767 1395.5289,1094.681 1395.5289,1094.6813    1411.9403,1123.1064 1444.4825,1118.8225 1470.5896,1084.7993  "/>
	<polygon fill="#098A5B" points="652.2336,1276.3329 652.2334,1276.3329 620.5291,1284.8279 616.2448,1317.3702 642.3515,1351.3936    676.3746,1325.2865 680.6589,1292.7444  "/>
	<polygon fill="#098A5B" points="564.559,1299.8252 548.1475,1328.2507 568.1287,1354.2908 610.647,1359.8887 616.2448,1317.3702    596.2633,1291.3301  "/>
	<polygon fill="#098A5B" points="542.6674,1466.1067 565.4083,1479.2362 597.3635,1460.7866 602.7308,1420.0186 560.2126,1414.4209    534.1723,1434.4021  "/>
	<polygon fill="#098A5B" points="519.1752,1378.4324 527.6703,1410.1367 560.2126,1414.4209 594.2357,1388.3142 568.1287,1354.2908    535.5867,1350.0066  "/>
	<polygon fill="#098A5B" points="1004.3738,1073.604 978.267,1039.5808 945.725,1035.2969 929.3135,1063.7222 937.8086,1095.4266    970.3506,1099.7109 1004.374,1073.604  "/>
	<polygon fill="#098A5B" points="1026.3829,1002.6602 1006.4017,976.6199 974.6973,985.1153 958.2858,1013.5406 978.267,1039.5808    1020.7853,1045.1785  "/>
	<polygon fill="#098A5B" points="1140.9788,1007.0063 1112.5532,990.5951 1086.5129,1010.5765 1090.7975,978.0343    1062.3719,961.6227 1030.6674,970.1181 1026.3831,1002.6602 1052.4899,1036.6833 1086.5129,1010.5764 1080.9153,1053.0948    1123.4336,1058.6924 1149.4739,1038.7109  "/>
	<polygon fill="#098A5B" points="1164.4709,1094.6813 1164.4709,1094.681 1155.9758,1062.9767 1123.4336,1058.6924    1089.4104,1084.7993 1115.5175,1118.8225 1148.0596,1123.1064  "/>
	<polygon fill="#098A5B" points="731.0066,1516.1436 761.3309,1528.7041 784.5403,1505.4951 784.5403,1505.4951 784.5403,1472.6722    754.2158,1460.1113 714.5949,1476.5229  "/>
	<polygon fill="#098A5B" points="674.9744,1539.3528 687.535,1569.6774 720.358,1569.6774 743.5674,1546.4681 731.0066,1516.1436    691.3857,1499.7321  "/>
	<polygon fill="#098A5B" points="731.0066,1404.0789 742.1403,1377.2 713.2955,1373.4025 739.3358,1353.4209 730.8406,1321.7164    730.8405,1321.7164 702.4151,1305.3052 676.3746,1325.2865 670.777,1367.8049 713.2953,1373.4025 679.2722,1399.5095    686.7101,1409.2026 691.3857,1420.4907 731.0066,1404.0792 714.5949,1443.6998 754.2158,1460.1113 784.5403,1447.5505    784.5403,1414.7278 784.5403,1414.7275 761.3309,1391.5183  "/>
	<polygon fill="#098A5B" points="635.3535,1476.5229 597.3637,1460.7869 565.4083,1479.2363 565.4083,1505.4951 588.6177,1528.7041    618.9422,1516.1434  "/>
	<polygon fill="#098A5B" points="633.7334,1439.7886 631.1564,1436.4301 605.6448,1456.0057 635.3535,1443.6998  "/>
	<polygon fill="#098A5B" points="618.9422,1516.1436 606.3813,1546.4678 629.5906,1569.6774 662.4136,1569.6774 674.9744,1539.3528    658.5627,1499.7321  "/>
	<polygon fill="#098A5B" points="1152.5903,1183.0345 1140.0295,1152.7102 1130.968,1152.7102 1135.499,1144.8627    1115.5175,1118.8225 1072.999,1113.2246 1067.4014,1155.7432 1041.2947,1121.7197 1007.2715,1147.8267 1012.8691,1105.3086    970.3506,1099.7109 944.3106,1119.6921 952.8058,1151.3967 952.8058,1151.397 981.2313,1167.8085 1007.2715,1147.827    1002.9871,1180.3691 1031.4126,1196.7805 1031.4128,1196.7805 1063.1172,1188.2854 1067.4016,1155.7432 1085.3041,1179.0741    1085.304,1179.0742 1096.5582,1206.244 1136.179,1222.6555  "/>
	<rect x="1152.5903" y="1341.5176" fill="#098A5B" width="0.0001" height="0.0002"/>
	<polygon fill="#098A5B" points="1096.5582,1318.3083 1083.9973,1348.6331 1107.2065,1371.842 1140.0295,1371.842    1152.5903,1341.5177 1136.179,1301.8972  "/>
	<polygon fill="#098A5B" points="1096.5582,1206.244 1066.2336,1193.6831 1043.0244,1216.8923 1043.0242,1216.8926    1043.0242,1249.7153 1073.3489,1262.2762 1112.9697,1245.865  "/>
	<polygon fill="#098A5B" points="1152.5905,1341.5177 1165.1512,1371.842 1197.9741,1371.842 1221.1835,1348.6331    1208.6226,1318.3083 1169.002,1301.8972  "/>
	<polygon fill="#098A5B" points="1073.3489,1262.2762 1043.0242,1274.8369 1043.0242,1307.6598 1043.0244,1307.6598    1043.0244,1307.66 1066.2336,1330.8691 1096.5582,1318.3083 1112.9697,1278.6876  "/>
	<polygon fill="#098A5B" points="1208.6226,1318.3083 1238.9471,1330.8691 1262.1564,1307.6598 1262.1564,1274.8369    1231.832,1262.2762 1192.2113,1278.6876  "/>
	<polygon fill="#098A5B" points="1208.6226,1206.244 1192.2113,1245.865 1231.832,1262.2762 1262.1564,1249.7153    1262.1564,1216.8923 1238.9471,1193.6831  "/>
	<polygon fill="#098A5B" points="1208.6226,1206.244 1221.1835,1175.9194 1197.9742,1152.7104 1197.9741,1152.7104    1197.9741,1152.7102 1165.1512,1152.7102 1152.5903,1183.0345 1169.002,1222.6555  "/>
	<polygon fill="#098A5B" points="1412.3068,418.1716 1412.307,418.1716 1420.8021,386.467 1394.7618,366.4858 1427.304,362.2015    1435.7993,330.4969 1419.3877,302.0714 1386.8455,306.3557 1360.7388,340.3789 1394.7618,366.4856 1352.2434,372.0833    1357.8412,414.6016 1383.8815,434.583  "/>
	<polygon fill="#098A5B" points="1297.7112,422.5181 1292.1135,379.9995 1280,381.5945 1267.8865,379.9995 1262.2888,422.5181    1280,445.5996  "/>
	<polygon fill="#098A5B" points="1333.7,463.5554 1362.1252,447.1439 1357.8412,414.6016 1323.8181,388.4946 1297.7112,422.5181    1301.9954,455.0601  "/>
	<polygon fill="#098A5B" points="1390.4154,251.8899 1358.7109,243.3948 1338.7297,269.4351 1344.3271,311.9534 1386.8455,306.3557    1406.8269,280.3154  "/>
	<polygon fill="#098A5B" points="1309.1565,838.0126 1280,841.851 1250.8435,838.0126 1276.8835,818.0311 1268.3884,786.3268    1268.3884,786.3265 1239.9628,769.915 1213.9227,789.8965 1218.2068,757.3542 1189.7815,740.9429 1189.7813,740.9429    1158.077,749.438 1153.7927,781.9803 1179.8994,816.0034 1213.9226,789.8965 1208.325,832.415 1250.8433,838.0126    1216.8201,864.1193 1242.927,898.1424 1275.4691,902.4267 1280,894.5792 1284.5308,902.4267 1317.073,898.1424 1343.1799,864.1193     "/>
	<polygon fill="#098A5B" points="1346.0774,789.8965 1320.0371,769.915 1291.6117,786.3265 1291.6117,786.3268 1283.1165,818.0311    1309.1565,838.0126 1351.675,832.415  "/>
	<polygon fill="#098A5B" points="1406.2075,781.9803 1411.8052,824.4986 1454.3234,818.901 1428.2166,852.9241 1428.2164,852.9241    1462.2395,879.0308 1494.7817,874.7468 1503.2769,843.0422 1486.8655,814.6168 1454.3231,818.901 1474.3047,792.8607    1457.8931,764.4352 1426.1887,755.9401 1406.2073,781.9803 1401.9231,749.438 1370.2188,740.9429 1370.2185,740.9429    1341.793,757.3542 1346.0774,789.8965 1380.1006,816.0034  "/>
	<polygon fill="#098A5B" points="1401.1777,976.1005 1429.6031,959.6892 1425.3188,927.1469 1451.3591,947.1283 1479.7847,930.7169    1488.2798,899.0123 1462.2395,879.0311 1419.7212,884.6287 1425.3191,927.1469 1391.2958,901.0402 1365.189,935.0633    1369.4733,967.6053  "/>
	<polygon fill="#098A5B" points="1313.5029,952.6082 1313.5032,952.6082 1313.5032,952.6084 1345.2075,961.1035 1365.189,935.0633    1359.5913,892.5448 1317.073,898.1424 1297.0916,924.1827  "/>
	<polygon fill="#098A5B" points="1165.2383,366.4858 1139.1979,386.467 1147.6931,418.1716 1176.1185,434.583 1202.1588,414.6016    1207.7566,372.0833 1165.2383,366.4856 1199.2612,340.3789 1173.1545,306.3557 1140.6122,302.0714 1124.2007,330.4969    1132.696,362.2015  "/>
	<polygon fill="#098A5B" points="1226.3,463.5554 1258.0046,455.0601 1262.2888,422.5181 1236.1819,388.4946 1202.1588,414.6016    1197.8745,447.1439  "/>
	<polygon fill="#098A5B" points="1280,278.426 1312.6227,303.4583 1338.7295,269.4351 1334.4453,236.8928 1302.7407,228.3977    1280,241.5271 1257.2595,228.3977 1257.2592,228.3977 1225.5547,236.8928 1221.2705,269.4351 1247.3773,303.4583  "/>
	<polygon fill="#098A5B" points="1275.8029,319.8696 1280,320.4221 1284.1974,319.8696 1280,287.9885  "/>
	<polygon fill="#098A5B" points="1221.2704,269.4351 1201.2891,243.3948 1169.5846,251.8899 1153.1731,280.3154 1173.1545,306.3557    1215.6729,311.9534  "/>
	<polygon fill="#098A5B" points="1102.1067,764.4352 1085.6954,792.8607 1105.6769,818.901 1073.1345,814.6168 1056.7231,843.0422    1065.2183,874.7468 1097.7603,879.0308 1131.7834,852.9241 1105.6766,818.901 1148.1948,824.4986 1148.1951,824.4986    1153.7927,781.9803 1133.8113,755.9401  "/>
	<polygon fill="#098A5B" points="1134.6809,927.1469 1140.2788,884.6287 1097.7603,879.0311 1071.7202,899.0123 1080.2153,930.7169    1108.6409,947.1283 1134.6812,927.1469 1130.3969,959.6892 1158.8224,976.1005 1190.5267,967.6053 1194.811,935.0633    1168.7041,901.0402  "/>
	<polygon fill="#098A5B" points="1194.811,935.0633 1214.7925,961.1035 1246.4968,952.6084 1246.4968,952.6082 1246.4969,952.6082    1262.9083,924.1827 1242.927,898.1424 1200.4086,892.5448  "/>
	<polygon points="1975.7942,1599.9998 2143.5044,1599.9998 2070.3003,1569.6774 1988.354,1569.6774  "/>
	<polygon points="1419.9702,1569.6774 1346.7656,1599.9998 1514.4766,1599.9998 1501.9165,1569.6774  "/>
	<polygon points="1495.6787,1505.4951 1472.4692,1482.2859 1396.7607,1513.6453 1340.7286,1569.6774 1340.7288,1569.6774    1419.9702,1569.6774 1495.6787,1538.318  "/>
	<polygon points="1442.1448,1425.376 1411.8206,1412.8153 1353.8757,1470.76 1323.5513,1543.9696 1396.7607,1513.6453    1454.7058,1455.7004  "/>
	<polygon points="1362.0258,1371.8423 1329.203,1371.8423 1297.8435,1447.5508 1297.8435,1526.7922 1353.8757,1470.76    1385.2351,1395.0516  "/>
	<polygon points="1280,1358.2135 1262.1566,1365.6045 1262.1566,1447.5508 1280,1490.6284 1297.8435,1447.5508 1297.8435,1365.6045     "/>
	<polygon points="1711.1604,1245.7009 1679.4558,1237.2056 1647.5048,1278.8455 1627.4189,1327.3359 1650.6284,1350.5452    1683.4514,1350.5452 1700.4812,1309.4314 1727.5717,1274.1262  "/>
	<polygon points="1650.7794,1223.0638 1624.7393,1203.0825 1592.1973,1207.3669 1583.0204,1241.6154 1557.9487,1266.6871    1570.5093,1297.0115 1600.834,1309.5723 1637.3966,1273.0098  "/>
	<polygon points="1560.2917,1205.2755 1528.5874,1196.7805 1528.5873,1196.7805 1516.9758,1203.4844 1516.9758,1216.8923    1516.9758,1216.8926 1540.1849,1240.1018 1563.6,1230.4031  "/>
	<polygon points="1748.6538,1298.1655 1714.8108,1317.7046 1714.8108,1356.7832 1745.1353,1369.3439 1775.4597,1356.7832    1775.4597,1352.7202 1778.9781,1350.6888 1774.6938,1318.1467  "/>
	<polygon points="2110.7703,1499.5811 2045.7581,1449.6954 2017.3325,1466.1067 2011.2393,1488.8477 1994.5918,1505.4951    1994.5918,1538.318 2070.3003,1569.6774 2149.5415,1569.6774 2147.2212,1567.3568 2150.3911,1568.2063  "/>
	<polygon points="2089.7771,1402.5751 2069.7974,1428.6134 2110.7703,1499.5811 2173.6323,1547.8169  "/>
	<polygon points="1785.6052,936.3788 1826.5784,1007.3464 1859.1182,1003.0623 1775.2631,857.8206  "/>
	<polygon points="1745.9846,867.7535 1725.4753,944.2952 1736.1716,1025.54 1767.8762,1034.0354 1796.3015,1017.6239    1785.6052,936.3788 1745.9846,867.7537  "/>
	<polygon points="1666.8931,928.598 1645.6838,1007.752 1671.7239,1027.7332 1704.266,1023.449 1725.4753,944.2952    1715.1323,865.7316  "/>
	<polygon points="1618.7773,891.6773 1568.8915,956.6896 1585.3029,985.1151 1617.0074,993.6102 1666.8931,928.598    1687.4021,852.0566  "/>
	<polygon points="880.5441,1237.2056 848.8396,1245.7009 832.4281,1274.1262 859.5188,1309.4314 876.5486,1350.5452    909.3716,1350.5452 932.5808,1327.3359 912.4952,1278.8455  "/>
	<polygon points="967.8027,1207.3669 935.2606,1203.0825 909.2206,1223.0638 922.6033,1273.0098 959.1661,1309.5723    989.4907,1297.0115 1002.0513,1266.6871 976.9796,1241.6154  "/>
	<polygon points="1031.4126,1196.7805 999.7083,1205.2755 996.4001,1230.4031 1019.8151,1240.1018 1043.0242,1216.8926    1043.0244,1216.8923 1043.0244,1203.4844 1031.4128,1196.7805  "/>
	<polygon points="785.3062,1318.1467 781.0219,1350.6888 784.5403,1352.7202 784.5403,1356.7832 814.8647,1369.3439    845.1893,1356.7832 845.1893,1317.7046 811.3463,1298.1655  "/>
	<polygon points="470.2229,1402.5751 386.3676,1547.8169 449.2297,1499.5811 490.2028,1428.6134  "/>
	<polygon points="792.1239,1034.0354 823.8284,1025.54 834.5246,944.2952 814.0154,867.7535 814.0154,867.7537 774.3948,936.3788    763.6984,1017.6239  "/>
	<polygon points="700.8817,1003.0623 733.4216,1007.3464 774.3948,936.3788 784.737,857.8206  "/>
	<polygon points="974.6971,985.1151 991.1086,956.6896 941.2228,891.6773 1012.1904,932.6504 1027.5128,920.893 1030.0339,901.7447    959.0664,860.7715 912.8381,854.6856 941.223,891.6773 872.5978,852.0566 893.1069,928.598 942.9926,993.6102  "/>
	<polygon points="888.2761,1027.7332 914.3161,1007.752 893.1069,928.598 844.8677,865.7316 834.5246,944.2952 855.7339,1023.449     "/>
	<polygon points="489.6998,1569.6774 416.4955,1599.9998 584.2059,1599.9998 571.6461,1569.6774  "/>
	<polygon points="565.4083,1505.4951 548.7608,1488.8477 542.6674,1466.1067 514.2419,1449.6954 449.2297,1499.5811    409.609,1568.2063 412.7789,1567.3568 410.4584,1569.6774 489.6998,1569.6774 565.4083,1538.318  "/>
	<polygon points="1064.3213,1505.4951 1064.3213,1538.318 1140.0298,1569.6774 1058.0835,1569.6774 1045.5237,1599.9998    1213.2343,1599.9998 1140.03,1569.6774 1219.2712,1569.6774 1219.2715,1569.6774 1163.2393,1513.6453 1087.5308,1482.2859  "/>
	<polygon points="1117.8551,1425.376 1105.2943,1455.7004 1163.2393,1513.6453 1236.4487,1543.9696 1206.1244,1470.76    1148.1794,1412.8153  "/>
	<polygon points="1197.9741,1371.8423 1174.7649,1395.0516 1206.1244,1470.76 1262.1566,1526.7922 1262.1566,1447.5508    1230.797,1371.8423  "/>
	<polygon points="1324.1206,575.3281 1280,581.1365 1235.8795,575.3281 1219.468,603.7535 1227.9631,635.4579 1280,642.3086    1332.0369,635.4579 1340.532,603.7535  "/>
	<polygon points="1334.2299,699.9055 1329.9456,667.3634 1280,653.9805 1230.0544,667.3634 1225.7701,699.9055 1245.7513,725.9456    1280,716.7687 1314.2485,725.9456  "/>
	<polygon points="1313.843,545.051 1309.5587,512.509 1283.5186,492.5276 1280,494.5591 1276.4816,492.5276 1250.4413,512.509    1246.1572,545.051 1280,564.5901  "/>
	<polygon points="1685.256,762.5683 1645.6353,693.9434 1708.4973,742.1791 1624.6421,596.9374 1604.6621,622.9757    1645.635,693.9434 1580.6228,644.0575 1552.1973,660.4691 1543.7021,692.1736 1608.7144,742.0592 1685.256,762.5685  "/>
	<polygon points="1600.9336,860.7715 1529.9662,901.7447 1532.4873,920.893 1547.8098,932.6504 1618.7773,891.6773    1647.1619,854.6856  "/>
	<polygon points="1593.0173,800.6415 1511.7722,811.3377 1503.2771,843.0421 1519.6887,871.4675 1600.9336,860.7715    1669.5588,821.1506  "/>
	<polygon points="1608.7144,742.0592 1529.5605,720.85 1509.5792,746.8901 1513.8633,779.4324 1593.0173,800.6415    1671.5811,790.2984  "/>
	<polygon points="1280,793.0306 1291.6117,786.3268 1291.6117,786.3265 1300.1071,754.6222 1280,739.1936 1259.8931,754.6222    1268.3884,786.3265 1268.3884,786.3268  "/>
	<polygon points="1239.5298,130.741 1228.8337,211.9861 1257.2592,228.3977 1257.2595,228.3977 1280,222.3042 1302.7407,228.3977    1331.1663,211.9861 1320.47,130.741 1361.4434,201.7087 1393.983,197.4246 1310.1279,52.1831 1320.4702,130.7412 1280.8495,62.116    1280,65.286 1279.1505,62.116 1239.5298,130.7412 1249.8721,52.1831 1166.0168,197.4246 1198.5566,201.7087  "/>
	<polygon points="1007.8026,660.4691 979.3773,644.0575 914.3649,693.9434 955.3381,622.9757 935.358,596.9374 851.5027,742.1791    914.3647,693.9434 874.7441,762.5683 874.7441,762.5685 951.2856,742.0592 1016.2979,692.1736  "/>
	<polygon points="1050.4207,746.8901 1030.4395,720.85 951.2856,742.0592 888.419,790.2984 966.9825,800.6415 1046.1366,779.4324     "/>
	<polygon points="1056.7229,843.0421 1048.2278,811.3377 966.9825,800.6415 890.4412,821.1506 959.0664,860.7715    1040.3113,871.4675  "/>
	
		<rect x="1734.5062" y="1449.4681" transform="matrix(0.7071 0.7071 -0.7071 0.7071 1543.6068 -806.3528)" fill="#6F3D59" width="21.2966" height="21.2967"/>
	<polygon fill="#6F3D59" points="1745.1351,1369.3439 1714.8108,1381.9045 1714.8105,1414.7273 1714.8105,1414.7275    1714.8108,1414.7278 1745.1351,1445.0521 1775.4597,1414.7278 1775.4595,1381.9045  "/>
	<polygon fill="#6F3D59" points="1714.8108,1505.4951 1714.8108,1544.5559 1732.5745,1544.5559 1745.1351,1557.1167    1757.696,1544.5559 1775.4597,1544.5559 1775.4597,1505.4951 1775.4597,1505.4951 1745.1353,1475.1704  "/>
	<polygon fill="#6F3D59" points="1869.9685,1599.9998 1900.083,1599.9998 1885.0256,1584.9426  "/>
	<polygon fill="#6F3D59" points="1930.4094,1569.6774 1900.087,1599.9998 1975.7922,1599.9998 1963.2327,1569.6774  "/>
	<polygon fill="#6F3D59" points="1800.5812,1569.6774 1800.5812,1587.441 1788.0225,1599.9998 1869.9644,1599.9998    1839.6421,1569.6774  "/>
	<polygon fill="#6F3D59" points="1429.5842,1395.0518 1442.1448,1425.376 1472.4692,1437.937 1495.6787,1414.7275    1495.6787,1371.842 1452.7935,1371.842  "/>
	<polygon fill="#6F3D59" points="1583.0701,1327.3359 1570.5093,1297.0115 1540.1852,1284.4507 1516.9758,1307.6598    1516.9758,1307.66 1516.9758,1350.5452 1559.861,1350.5452  "/>
	<rect x="1495.6787" y="1350.5452" fill="#6F3D59" width="21.2969" height="21.2969"/>
	<polygon fill="#6F3D59" points="1297.8435,1177.8318 1280.0797,1177.8318 1280,1177.7521 1279.9203,1177.8318 1262.1566,1177.8318    1262.1566,1216.8923 1280,1234.7361 1297.8435,1216.8923  "/>
	<polygon fill="#6F3D59" points="1689.6892,1569.6774 1650.6284,1569.6774 1650.6282,1569.6774 1620.3058,1599.9998    1702.2479,1599.9998 1689.6892,1587.441  "/>
	<polygon fill="#6F3D59" points="1590.1877,1599.9998 1620.3018,1599.9998 1605.2446,1584.9426  "/>
	<polygon fill="#6F3D59" points="1527.0378,1569.6775 1514.478,1599.9998 1590.1833,1599.9998 1559.861,1569.6774  "/>
	<polygon fill="#6F3D59" points="1360.6147,1069.7354 1343.4563,1065.1377 1338.8589,1082.2961 1323.4751,1091.178    1323.9851,1092.0613 1322.9651,1092.0613 1322.9651,1109.825 1310.4043,1122.386 1322.9651,1134.9465 1322.9651,1152.7102    1362.0255,1152.7104 1362.0258,1152.7104 1362.026,1152.7102 1386.5518,1128.1846 1386.5518,1128.1846 1386.5518,1128.1844    1386.552,1128.1842 1386.5519,1128.1841 1395.5289,1094.6813 1395.5289,1094.681 1375.9985,1060.8535  "/>
	<polygon fill="#6F3D59" points="1800.7339,1338.1279 1829.1597,1321.7164 1840.2507,1280.324 1860.7712,1285.822    1866.2827,1265.2515 1845.7122,1259.7397 1840.209,1280.2791 1798.8351,1269.1929 1770.4095,1285.6047 1774.6938,1318.1467  "/>
	<polygon fill="#6F3D59" points="1920.1515,1219.6627 1911.2697,1204.2788 1877.442,1223.8093 1866.3424,1265.2335    1907.7665,1276.3329 1907.7666,1276.3329 1941.5942,1256.8025 1932.7124,1241.4188 1937.3098,1224.2603  "/>
	<polygon fill="#6F3D59" points="2036.8643,1310.9275 2031.3529,1331.496 2051.9214,1337.0073  "/>
	<polygon fill="#6F3D59" points="2051.9236,1337.011 2040.8248,1378.4324 2057.2366,1406.8579 2089.7764,1402.5737  "/>
	<polygon fill="#6F3D59" points="1995.8914,1239.9603 1991.2946,1257.116 1975.9109,1265.9976 1995.4413,1299.8252    2036.8623,1310.9241  "/>
	<polygon fill="#6F3D59" points="1689.269,1079.4192 1697.7642,1047.7145 1671.7239,1027.7332 1639.1821,1032.0176    1630.6868,1063.7222 1652.1293,1100.8619  "/>
	<polygon fill="#6F3D59" points="1607.1942,1151.397 1598.6992,1183.1012 1624.7393,1203.0825 1657.2813,1198.7981    1665.7769,1167.0939 1644.3412,1129.9666 1662.749,1119.3385 1652.1006,1100.8955 1633.6575,1111.5439 1644.2986,1129.9742    1607.1942,1151.3967  "/>
	<polygon fill="#6F3D59" points="1523.5327,926.0628 1508.2102,914.3053 1479.7847,930.7169 1473.2534,955.0916 1497.6283,961.6227    1526.0537,945.2113  "/>
	
		<rect x="1447.5797" y="967.0385" transform="matrix(-0.2588 0.9659 -0.9659 -0.2588 2760.4165 -180.3576)" fill="#6F3D59" width="3.6464" height="3.6465"/>
	<polygon fill="#6F3D59" points="1900.9343,1136.1346 1920.4647,1169.9624 1935.8486,1161.0806 1953.0043,1165.6775    1912.0331,1094.7134 1900.9343,1136.1345  "/>
	<polygon fill="#6F3D59" points="1912.031,1094.71 1896.9739,1068.6304 1891.4626,1089.1985  "/>
	<polygon fill="#6F3D59" points="1896.9718,1068.6265 1859.1191,1003.0638 1839.1392,1029.1021 1855.5508,1057.5276  "/>
	
		<rect x="696.0234" y="1262.1453" transform="matrix(0.2588 0.9659 -0.9659 0.2588 1753.2064 260.7893)" fill="#6F3D59" width="21.2963" height="21.2962"/>
	<polygon fill="#6F3D59" points="730.8405,1321.7164 759.2662,1338.1279 785.3062,1318.1467 789.5905,1285.6047 761.1652,1269.1929    761.165,1269.1929 719.7408,1280.2925  "/>
	<polygon fill="#6F3D59" points="652.2334,1276.3329 652.2336,1276.3329 693.6575,1265.2335 682.558,1223.8093 648.7303,1204.2788    639.8485,1219.6627 622.6901,1224.2603 627.2877,1241.4188 618.4058,1256.8025  "/>
	<polygon fill="#6F3D59" points="508.0784,1337.0073 528.6471,1331.496 523.1357,1310.9275  "/>
	<polygon fill="#6F3D59" points="470.2238,1402.5737 502.7634,1406.8579 519.1752,1378.4324 508.0764,1337.011  "/>
	<polygon fill="#6F3D59" points="564.1086,1239.9603 523.1377,1310.9241 564.5588,1299.8252 584.0892,1265.9976 568.7053,1257.116     "/>
	<polygon fill="#6F3D59" points="907.8708,1100.8619 929.3133,1063.7222 920.8179,1032.0176 888.2761,1027.7332 862.2358,1047.7145    870.731,1079.4192  "/>
	<polygon fill="#6F3D59" points="902.7188,1198.7981 935.2606,1203.0825 961.3009,1183.1012 952.8058,1151.397 952.8058,1151.3967    915.6659,1129.9539 894.2234,1167.0939  "/>
	
		<rect x="901.0917" y="1104.7739" transform="matrix(0.5 -0.866 0.866 0.5 -510.1173 1347.2803)" fill="#6F3D59" width="21.2965" height="21.2964"/>
	
		<rect x="1108.7738" y="967.0385" transform="matrix(-0.9659 0.2588 -0.2588 -0.9659 2434.1028 1617.2838)" fill="#6F3D59" width="3.6465" height="3.6464"/>
	<polygon fill="#6F3D59" points="1183.6882,1011.1529 1183.7972,1011.1238 1183.7678,1011.0147 1192.6498,995.6312    1158.8221,976.1006 1134.4475,982.6318 1140.9788,1007.0063 1174.8064,1026.5369  "/>
	<polygon fill="#6F3D59" points="639.5352,1169.9624 659.0657,1136.1346 659.0657,1136.1345 647.9669,1094.7134 606.996,1165.6775    624.1514,1161.0806  "/>
	<polygon fill="#6F3D59" points="663.026,1068.6304 647.9691,1094.71 668.5374,1089.1985  "/>
	<polygon fill="#6F3D59" points="720.8608,1029.1021 700.8809,1003.0638 663.0282,1068.6265 704.4493,1057.5276  "/>
	<polygon fill="#6F3D59" points="1279.92,1066.9398 1280,1067.0198 1280.08,1066.9398 1280.4734,1066.9398 1280.2766,1066.5991    1280.3059,1066.49 1280.1965,1066.4607 1280,1066.1199 1279.8033,1066.4607 1279.6941,1066.49 1279.7234,1066.5991    1279.5266,1066.9398  "/>
	<polygon fill="#6F3D59" points="1237.0349,1092.0613 1236.0149,1092.0613 1236.5249,1091.178 1221.1411,1082.2961    1216.5435,1065.1377 1199.3854,1069.7354 1184.0015,1060.8535 1164.4709,1094.681 1164.4709,1094.6813 1173.4481,1128.1841    1173.448,1128.1842 1173.4482,1128.1843 1173.4482,1128.1846 1173.4482,1128.1844 1197.9741,1152.7102 1197.9741,1152.7104    1197.9742,1152.7104 1237.0349,1152.7102 1237.0349,1134.9465 1249.5957,1122.386 1237.0349,1109.825  "/>
	<polygon fill="#6F3D59" points="814.8649,1369.3439 784.5406,1381.9045 784.5403,1414.7278 814.8594,1445.0466 799.8096,1460.0966    814.8686,1475.1556 829.9276,1460.0967 814.874,1445.043 845.1893,1414.7278 845.1895,1414.7275 845.1895,1414.7273    845.1893,1381.9045  "/>
	<polygon fill="#6F3D59" points="784.5403,1505.4951 784.5403,1505.4951 784.5403,1544.5559 802.3041,1544.5559 814.8649,1557.1167    827.4255,1544.5559 845.1893,1544.5559 845.1893,1505.4951 814.8647,1475.1704  "/>
	<polygon fill="#6F3D59" points="659.9171,1599.9998 690.0316,1599.9998 674.9744,1584.9426  "/>
	<polygon fill="#6F3D59" points="596.7674,1569.6774 584.2078,1599.9998 659.913,1599.9998 629.5906,1569.6774  "/>
	<polygon fill="#6F3D59" points="759.4189,1569.6774 720.358,1569.6774 690.0356,1599.9998 771.9775,1599.9998 759.4189,1587.441     "/>
	<polygon fill="#6F3D59" points="1064.3213,1371.842 1064.3213,1414.7275 1087.5308,1437.937 1117.8551,1425.376    1130.416,1395.0518 1107.2065,1371.842  "/>
	<polygon fill="#6F3D59" points="1043.0244,1307.6598 1043.0242,1307.6598 1019.8148,1284.4507 989.4907,1297.0115    976.9299,1327.3359 1000.139,1350.5452 1043.0244,1350.5452 1043.0244,1307.66  "/>
	<rect x="1043.0244" y="1350.5452" fill="#6F3D59" width="21.2969" height="21.2969"/>
	<polygon fill="#6F3D59" points="1262.1564,1307.66 1262.1566,1340.4829 1280,1347.874 1297.8435,1340.4829 1297.8436,1307.66    1280,1289.8164  "/>
	
		<rect x="1278.1769" y="1260.4531" transform="matrix(-0.7071 -0.7071 0.7071 -0.7071 1292.5541 3059.9368)" fill="#6F3D59" width="3.6463" height="3.6463"/>
	<polygon fill="#6F3D59" points="909.3716,1569.6774 870.3107,1569.6774 870.3107,1587.441 857.7521,1599.9998 939.6939,1599.9998    909.3718,1569.6774  "/>
	<polygon fill="#6F3D59" points="939.6983,1599.9998 969.8123,1599.9998 954.7552,1584.9426  "/>
	<polygon fill="#6F3D59" points="1000.139,1569.6774 969.8167,1599.9998 1045.522,1599.9998 1032.9622,1569.6775  "/>
	
		<rect x="1377.5016" y="456.4435" transform="matrix(0.2588 -0.9659 0.9659 0.2588 577.709 1687.0588)" fill="#6F3D59" width="21.2961" height="21.2963"/>
	<polygon fill="#6F3D59" points="1335.5989,532.4905 1364.0243,516.0791 1364.0244,516.0789 1375.124,474.655 1333.7,463.5554    1305.2744,479.9669 1309.5587,512.509  "/>
	<polygon fill="#6F3D59" points="1476.4589,451.1647 1467.577,435.781 1472.1748,418.6226 1455.0164,414.025 1446.1345,398.6414    1412.307,418.1716 1412.3068,418.1716 1401.2073,459.5955 1442.6313,470.6951  "/>
	<polygon fill="#6F3D59" points="1446.8959,289.0721 1431.8387,262.9924 1426.3274,283.5608  "/>
	<polygon fill="#6F3D59" points="1431.8365,262.9889 1393.9841,197.4261 1374.0039,223.4641 1390.4154,251.8899  "/>
	<polygon fill="#6F3D59" points="1455.3297,364.3245 1470.7134,355.4426 1487.8689,360.0396 1446.8979,289.0759 1435.7993,330.4969     "/>
	<polygon fill="#6F3D59" points="1436.4507,727.2953 1457.8933,764.4352 1489.5979,772.9304 1509.5791,746.8903 1505.2949,714.348    1473.5905,705.8528  "/>
	<polygon fill="#6F3D59" points="1334.2299,699.9055 1338.5139,732.4476 1370.2185,740.9429 1370.2188,740.9429 1407.3584,719.5002    1385.9158,682.3605 1354.2112,673.8654  "/>
	
		<rect x="1411.2749" y="712.7225" transform="matrix(0.5 0.866 -0.866 0.5 1337.3917 -869.7347)" fill="#6F3D59" width="21.2965" height="21.2964"/>
	<polygon fill="#6F3D59" points="1367.3503,995.6312 1376.2319,1011.0147 1376.2028,1011.1238 1376.3118,1011.1529    1385.1936,1026.5369 1419.0212,1007.0063 1425.5524,982.6318 1401.1777,976.1006  "/>
	<polygon fill="#6F3D59" points="1530.3059,494.1876 1530.3062,494.1876 1571.7273,505.2864 1530.7561,434.3223 1526.1594,451.478    1510.7756,460.3599 1530.3059,494.1874  "/>
	<polygon fill="#6F3D59" points="1586.7864,531.3696 1571.7292,505.29 1566.2178,525.8583  "/>
	<polygon fill="#6F3D59" points="1592.1016,601.2199 1624.6412,596.936 1586.7886,531.3733 1575.6897,572.7944  "/>
	<polygon fill="#6F3D59" points="1246.4968,952.6082 1246.4968,952.6084 1226.9666,986.4358 1242.3502,995.3176 1246.9478,1012.476    1264.1062,1007.8785 1279.49,1016.7603 1280,1015.8767 1280.5099,1016.7603 1295.8938,1007.8785 1313.0522,1012.476    1317.6497,995.3176 1333.0334,986.4358 1313.5032,952.6084 1313.5032,952.6082 1313.5029,952.6082 1280,943.6309    1246.4969,952.6082  "/>
	<polygon fill="#6F3D59" points="1179.3945,454.0785 1158.8237,459.5901 1164.3354,480.1609 1184.8765,474.6572 1195.9758,516.0789    1195.9758,516.0791 1224.4012,532.4905 1250.4413,512.509 1254.7256,479.9669 1226.3,463.5554 1184.9055,474.6471  "/>
	<polygon fill="#6F3D59" points="1117.3687,470.6951 1158.7926,459.5955 1147.6931,418.1716 1113.8655,398.6414 1104.9836,414.025    1087.8252,418.6226 1092.423,435.781 1083.541,451.1647  "/>
	<polygon fill="#6F3D59" points="1128.1614,262.9924 1113.1042,289.0721 1133.6726,283.5608  "/>
	<polygon fill="#6F3D59" points="1185.9961,223.4641 1166.016,197.4261 1128.1633,262.9889 1169.5846,251.8899  "/>
	<polygon fill="#6F3D59" points="1104.6704,364.3245 1124.2007,330.4969 1113.1021,289.0759 1072.1311,360.0396 1089.2866,355.4426     "/>
	<polygon fill="#6F3D59" points="1102.1067,764.4352 1123.5493,727.2953 1086.4095,705.8528 1054.705,714.348 1050.4209,746.8903    1070.4021,772.9304  "/>
	<polygon fill="#6F3D59" points="1152.6467,719.5031 1189.7813,740.9429 1189.7815,740.9429 1221.4861,732.4476 1225.7701,699.9055    1205.7889,673.8654 1174.0844,682.3605 1152.6547,719.4778 1134.2166,708.8322 1123.5681,727.2754 1142.0112,737.9238  "/>
	<polygon fill="#6F3D59" points="1036.4673,926.0628 1033.9463,945.2113 1062.3717,961.6227 1086.7465,955.0916 1080.2153,930.7169    1051.7897,914.3053  "/>
	<polygon fill="#6F3D59" points="1029.6941,494.1876 1029.6941,494.1874 1049.2242,460.3599 1033.8406,451.478 1029.2439,434.3223    988.2727,505.2864 1029.6938,494.1876  "/>
	<polygon fill="#6F3D59" points="988.2708,505.29 973.2137,531.3696 993.782,525.8583  "/>
	<polygon fill="#6F3D59" points="984.3102,572.7944 973.2115,531.3733 935.3588,596.936 967.8985,601.2199  "/>
	<polygon fill="#0065F0" points="1340.7288,1569.6774 1340.7286,1569.6774 1312.903,1569.6774 1323.5513,1543.9696    1297.8436,1554.6179 1297.8436,1526.7922 1280,1544.6357 1262.1564,1526.7922 1262.1564,1554.6179 1236.4487,1543.9696    1247.0973,1569.6774 1219.2715,1569.6774 1219.2712,1569.6774 1238.9471,1589.3533 1213.2443,1599.9998 1280,1599.9998    1346.7557,1599.9998 1321.0529,1589.3533  "/>
	<polygon fill="#0065F0" points="1280.08,1092.0613 1280,1091.9814 1279.92,1092.0613 1262.1566,1092.0613 1262.1566,1109.825    1249.5957,1122.386 1262.1566,1134.9465 1262.1566,1152.7102 1279.92,1152.7102 1280,1152.7899 1280.08,1152.7102    1297.8435,1152.7102 1297.8435,1134.9465 1310.4043,1122.386 1297.8435,1109.825 1297.8435,1092.0613  "/>
	<polygon fill="#0065F0" points="1775.4597,1569.6774 1757.696,1569.6774 1745.1351,1557.1167 1732.5745,1569.6774    1714.8108,1569.6774 1714.8108,1587.441 1702.2521,1599.9998 1788.0181,1599.9998 1775.4597,1587.441  "/>
	<polygon fill="#0065F0" points="1628.4541,1436.902 1621.6563,1420.4907 1605.2446,1427.2885 1588.8331,1420.4907    1582.0354,1436.902 1565.6235,1443.6998 1572.4219,1460.1113 1565.6235,1476.5229 1582.0354,1483.3206 1588.8331,1499.7321    1605.2446,1492.9344 1621.6563,1499.7321 1628.4541,1483.3206 1644.8655,1476.5229 1638.0676,1460.1113 1644.8655,1443.6998  "/>
	<polygon fill="#0065F0" points="1430.6188,1239.0669 1423.821,1222.6555 1407.4097,1229.4534 1390.998,1222.6555    1384.2002,1239.0669 1367.7888,1245.865 1374.5867,1262.2762 1367.7888,1278.6876 1384.2002,1285.4856 1390.998,1301.8972    1407.4097,1295.0994 1423.821,1301.8972 1430.6188,1285.4856 1447.0303,1278.6876 1440.2324,1262.2762 1447.0303,1245.865  "/>
	<polygon fill="#0065F0" points="2173.6372,1547.8256 2177.2688,1575.4081 2150.3911,1568.2063 2151.2402,1569.6774    2149.5415,1569.6774 2169.2175,1589.3533 2143.5146,1599.9998 2203.76,1599.9998 2203.7603,1600 2203.7603,1599.9998    2203.7603,1599.9995  "/>
	<polygon fill="#0065F0" points="1711.5002,838.1438 1715.1323,865.7316 1732.0717,843.6558 1745.9846,867.7535 1745.9846,867.7537    1753.1863,840.876 1775.2581,857.8121 1741.8801,800 1708.5022,742.1878 1712.1335,769.7704 1685.256,762.5683 1685.256,762.5685    1699.1687,786.6663 1671.5811,790.2984 1693.6566,807.2378 1669.5586,821.1506 1693.9333,827.6821 1687.4021,852.0566  "/>
	<polygon fill="#0065F0" points="1354.5852,1023.6047 1354.4761,1023.5756 1345.5942,1008.1918 1330.2104,1017.0736    1313.0522,1012.476 1308.4546,1029.6344 1293.0708,1038.5164 1301.9526,1053.8999 1301.9233,1054.009 1302.0323,1054.0383    1310.9142,1069.4221 1326.2981,1060.5402 1343.4563,1065.1377 1348.0541,1047.9795 1363.4377,1039.0977 1354.5559,1023.7138  "/>
	<polygon fill="#0065F0" points="1951.6716,1377.5004 1949.353,1359.8887 1931.741,1362.2073 1917.6484,1351.3936    1906.8345,1365.4863 1889.2229,1367.8052 1891.5415,1385.4165 1880.7278,1399.5095 1894.8206,1410.3232 1896.432,1422.5637    1896.4321,1422.5637 1885.0256,1427.2885 1868.6143,1420.4907 1861.8164,1436.902 1845.4052,1443.6998 1852.2028,1460.1113    1845.4052,1476.5229 1861.8164,1483.3206 1868.6143,1499.7321 1885.0256,1492.9344 1901.4374,1499.7321 1908.2351,1483.3206    1924.6465,1476.5229 1917.8486,1460.1113 1924.6465,1443.6998 1908.2351,1436.902 1904.1389,1427.0133 1899.001,1424.0469    1904.1392,1427.0133 1914.751,1425.6163 1928.8438,1436.4301 1939.6576,1422.3372 1957.2692,1420.0186 1954.9504,1402.407    1965.7644,1388.3142  "/>
	<polygon fill="#0065F0" points="1948.4094,1182.8364 1933.0256,1191.718 1941.9075,1207.1021 1937.3098,1224.2603    1954.468,1228.8577 1963.3499,1244.2415 1978.7338,1235.3596 1995.8892,1239.9565 1953.0063,1165.6809  "/>
	<polygon fill="#0065F0" points="1811.781,1135.2029 1809.4624,1117.5911 1791.8506,1119.9099 1777.7578,1109.0959    1766.9441,1123.1888 1749.3325,1125.5073 1751.6511,1143.1191 1740.8372,1157.2119 1754.9301,1168.0259 1757.2488,1185.6372    1774.8601,1183.3186 1788.9531,1194.1327 1799.7671,1180.0397 1817.3787,1177.7212 1815.0602,1160.1096 1825.8738,1146.0166  "/>
	<polygon fill="#0065F0" points="1539.2146,1045.1785 1521.6028,1047.4971 1507.5101,1036.6833 1496.6963,1050.776    1479.0847,1053.0948 1481.4033,1070.7064 1470.5896,1084.7993 1484.6823,1095.613 1487.001,1113.2246 1504.6125,1110.906    1518.7056,1121.7197 1529.5192,1107.6271 1547.1309,1105.3083 1544.8124,1087.6969 1555.626,1073.604 1555.6262,1073.604    1541.5332,1062.79  "/>
	<polygon fill="#0065F0" points="1233.7019,1060.5402 1249.0858,1069.4221 1257.9675,1054.0383 1258.0767,1054.009    1258.0474,1053.8999 1266.9292,1038.5164 1251.5454,1029.6344 1246.9478,1012.476 1229.7894,1017.0736 1214.4058,1008.1918    1205.5239,1023.5756 1205.4148,1023.6047 1205.4441,1023.7138 1196.5623,1039.0977 1211.946,1047.9795 1216.5435,1065.1377  "/>
	<polygon fill="#0065F0" points="605.5319,1228.8577 622.6901,1224.2603 618.0925,1207.1021 626.9744,1191.718 611.5907,1182.8364    606.9938,1165.6809 564.1108,1239.9565 581.2662,1235.3596 596.65,1244.2415  "/>
	<polygon fill="#0065F0" points="802.7514,1185.6372 805.0699,1168.0259 819.1629,1157.2119 808.349,1143.1191 810.6678,1125.5073    793.0559,1123.1888 782.2422,1109.0959 768.1493,1119.9099 750.5377,1117.5911 748.2189,1135.2029 734.1262,1146.0166    744.9401,1160.1096 742.6213,1177.7212 760.2329,1180.0397 771.0469,1194.1327 785.1396,1183.3186  "/>
	<polygon fill="#0065F0" points="1080.9153,1053.0948 1063.3037,1050.776 1052.4899,1036.6833 1038.3972,1047.4971    1020.7853,1045.1785 1018.4667,1062.79 1004.3738,1073.604 1004.374,1073.604 1015.1877,1087.6969 1012.8691,1105.3083    1030.4807,1107.6271 1041.2947,1121.7197 1055.3873,1110.906 1072.999,1113.2246 1075.3177,1095.613 1089.4104,1084.7993    1078.5968,1070.7064  "/>
	<polygon fill="#0065F0" points="410.4584,1569.6774 408.7597,1569.6774 409.609,1568.2063 382.7312,1575.4081 386.3626,1547.8256    356.2399,1599.9995 356.2397,1599.9998 356.2398,1599.9998 356.2397,1600 356.2401,1599.9998 416.4854,1599.9998    390.7825,1589.3533  "/>
	<polygon fill="#0065F0" points="698.1836,1436.902 691.3857,1420.4907 674.9744,1427.2885 663.5678,1422.5637 665.1794,1410.3232    679.2722,1399.5095 668.4585,1385.4165 670.777,1367.8052 653.1654,1365.4863 642.3515,1351.3936 628.2588,1362.2073    610.6472,1359.8887 608.3284,1377.5004 594.2357,1388.3142 605.0494,1402.407 602.7308,1420.0186 620.3425,1422.3372    631.1564,1436.4301 645.2491,1425.6163 655.8609,1427.0133 651.765,1436.902 635.3535,1443.6998 642.1514,1460.1113    635.3535,1476.5229 651.765,1483.3206 658.5627,1499.7321 674.9744,1492.9344 691.3857,1499.7321 698.1836,1483.3206    714.5949,1476.5229 707.7972,1460.1113 714.5949,1443.6998  "/>
	<polygon fill="#0065F0" points="845.1893,1569.6774 827.4255,1569.6774 814.8649,1557.1167 802.3041,1569.6774 784.5403,1569.6774    784.5403,1587.441 771.9817,1599.9998 857.7479,1599.9998 845.1893,1587.441  "/>
	<polygon fill="#0065F0" points="977.9646,1436.902 971.1669,1420.4907 954.7552,1427.2885 938.3439,1420.4907 931.546,1436.902    915.1345,1443.6998 921.9324,1460.1113 915.1345,1476.5229 931.546,1483.3206 938.3439,1499.7321 954.7552,1492.9344    971.1669,1499.7321 977.9646,1483.3206 994.3762,1476.5229 987.5782,1460.1113 994.3762,1443.6998  "/>
	<polygon fill="#0065F0" points="1175.7996,1239.0669 1169.002,1222.6555 1152.5903,1229.4534 1136.179,1222.6555    1129.3811,1239.0669 1112.9697,1245.865 1119.7673,1262.2762 1112.9697,1278.6876 1129.3811,1285.4856 1136.179,1301.8972    1152.5903,1295.0994 1169.002,1301.8972 1175.7996,1285.4856 1192.2113,1278.6876 1185.4133,1262.2762 1192.2113,1245.865  "/>
	<polygon fill="#0065F0" points="1472.1748,418.6226 1489.333,423.2202 1498.2148,438.604 1513.5989,429.7222 1530.7542,434.3188    1487.8711,360.0432 1483.2742,377.1987 1467.8905,386.0806 1476.7723,401.4641  "/>
	<polygon fill="#0065F0" points="1492.134,614.381 1489.8154,596.7692 1500.6289,582.6763 1486.5363,571.8623 1484.2178,554.2507    1466.606,556.5696 1452.5132,545.7556 1441.6995,559.8486 1424.0879,562.1671 1426.4065,579.7787 1415.5925,593.8717    1429.6853,604.6854 1432.004,622.2972 1449.6157,619.9785 1463.7085,630.7924 1474.5222,616.6994  "/>
	<polygon fill="#0065F0" points="1353.9938,850.0266 1343.1799,864.1193 1357.2727,874.9332 1359.5913,892.5448 1377.2031,890.2263    1391.2958,901.0402 1402.1096,886.9472 1419.7214,884.6287 1417.4027,867.0171 1428.2164,852.9241 1428.2166,852.9241    1414.1237,842.1102 1411.8052,824.4986 1394.1934,826.8171 1380.1006,816.0034 1369.2866,830.0962 1351.675,832.415  "/>
	<polygon fill="#0065F0" points="1279.1505,62.116 1280,60.645 1280.8494,62.116 1288.051,35.2383 1310.1227,52.1742 1280,0    1249.8772,52.1742 1271.9487,35.2383  "/>
	<polygon fill="#0065F0" points="866.3432,807.2378 888.419,790.2984 860.8312,786.6663 874.7441,762.5685 874.7441,762.5683    847.8665,769.7704 851.4977,742.1878 818.1199,800 784.742,857.8121 806.8134,840.876 814.0154,867.7537 814.0154,867.7535    827.9283,843.6558 844.8677,865.7316 848.4998,838.1438 872.5978,852.0566 866.0667,827.6821 890.4412,821.1506  "/>
	<polygon fill="#0065F0" points="1207.7566,372.0834 1225.3682,374.4019 1236.1821,388.4946 1250.2749,377.6812 1267.8865,379.9995    1270.2053,362.3879 1280,354.8719 1289.7949,362.3879 1292.1135,379.9995 1309.7251,377.6812 1323.8179,388.4946    1334.6318,374.4019 1352.2434,372.0834 1349.9248,354.4717 1360.7388,340.3789 1346.6458,329.5652 1344.3271,311.9534    1326.7155,314.2719 1312.6227,303.4583 1301.8091,317.5509 1284.1971,319.8696 1286.516,337.4813 1280,345.9729    1273.4843,337.4813 1275.8029,319.8696 1258.1909,317.5509 1247.3773,303.4583 1233.2847,314.2719 1215.6729,311.9534    1213.3542,329.5652 1199.2612,340.3789 1210.0752,354.4717  "/>
	<polygon fill="#0065F0" points="1061.7852,438.604 1070.667,423.2202 1087.8252,418.6226 1083.2275,401.4641 1092.1096,386.0806    1076.7258,377.1987 1072.1289,360.0432 1029.2458,434.3188 1046.4012,429.7222  "/>
	<polygon fill="#0065F0" points="1130.3147,604.6854 1144.4075,593.8717 1133.5935,579.7787 1135.9124,562.1671 1118.3005,559.8486    1107.4868,545.7556 1093.3939,556.5696 1075.7822,554.2507 1073.4636,571.8623 1059.3708,582.6763 1070.1846,596.7692    1067.866,614.381 1085.4778,616.6994 1096.2914,630.7924 1110.3844,619.9785 1127.996,622.2972  "/>
	<polygon fill="#0065F0" points="1142.5973,867.0171 1140.2788,884.6287 1157.8904,886.9472 1168.7041,901.0402 1182.797,890.2263    1200.4086,892.5448 1202.7274,874.9332 1216.8201,864.1193 1206.0063,850.0266 1208.325,832.415 1190.7131,830.0962    1179.8994,816.0034 1165.8065,826.8171 1148.1951,824.4986 1148.1948,824.4986 1145.8763,842.1102 1131.7834,852.9241  "/>
</g>
</svg>