<?xml version="1.0" encoding="UTF-8" standalone="no"?>
<svg xmlns:dc="http://purl.org/dc/elements/1.1/" xmlns:cc="http://creativecommons.org/ns#" xmlns:rdf="http://www.w3.org/1999/02/22-rdf-syntax-ns#" xmlns:svg="http://www.w3.org/2000/svg" xmlns="http://www.w3.org/2000/svg" xmlns:xlink="http://www.w3.org/1999/xlink" xmlns:sodipodi="http://sodipodi.sourceforge.net/DTD/sodipodi-0.dtd" xmlns:inkscape="http://www.inkscape.org/namespaces/inkscape" xml:space="preserve" width="1001px" height="1447px" version="1.1" style="shape-rendering:geometricPrecision; text-rendering:geometricPrecision; image-rendering:optimizeQuality; fill-rule:evenodd; clip-rule:evenodd" viewBox="0 0 490.87 709.15" id="svg16" sodipodi:docname="triangel.svg" inkscape:version="1.0.2 (e86c870879, 2021-01-15, custom)"><metadata id="metadata20"><rdf:RDF><cc:Work rdf:about=""><dc:format>image/svg+xml</dc:format><dc:type rdf:resource="http://purl.org/dc/dcmitype/StillImage"/></cc:Work></rdf:RDF></metadata><sodipodi:namedview pagecolor="#ffffff" bordercolor="#666666" borderopacity="1" objecttolerance="10" gridtolerance="10" guidetolerance="10" inkscape:pageopacity="0" inkscape:pageshadow="2" inkscape:window-width="1920" inkscape:window-height="1017" id="namedview18" showgrid="false" inkscape:zoom="0.58742225" inkscape:cx="500.5" inkscape:cy="723.5" inkscape:window-x="-8" inkscape:window-y="-8" inkscape:window-maximized="1" inkscape:current-layer="svg16"/>
 <defs id="defs4"><linearGradient inkscape:collect="always" id="linearGradient865"><stop style="stop-color:#929191;stop-opacity:1;" offset="0" id="stop861"/><stop style="stop-color:#929191;stop-opacity:0;" offset="1" id="stop863"/></linearGradient>
  <style type="text/css" id="style2">
   <![CDATA[
    .str0 {stroke:black;stroke-width:6.13;stroke-miterlimit:22.9256}
    .str1 {stroke:black;stroke-width:1.16;stroke-miterlimit:22.9256}
    .fil1 {fill:black}
    .fil0 {fill:white}
   ]]>
  </style>
 
  
  
  
  
  
 <linearGradient inkscape:collect="always" xlink:href="#linearGradient865" id="linearGradient867" x1="-0.0054890999" y1="314.92679" x2="490.83239" y2="314.92679" gradientUnits="userSpaceOnUse"/></defs>
 <path class="fil0 str0" d="m 3.42,462.53 c 9.81,24.3 22.67,19.81 29.41,15.93 L 225.82,165.39 c 12.46,-21.65 21.24,-21.24 33.7,-0.62 l 185.64,306.34 c 11.64,18.38 -4.9,23.89 -12.87,25.73 L 50.6,495.62 c -14.71,10 -7.97,29.81 0,31.85 l 399.46,-0.61 c 21.65,-4.7 45.13,-15.52 35.53,-56.36 L 263.81,113.31 c -9.7,-13.48 -28.59,-15.62 -42.89,0 z" id="path7" style="fill:url(#linearGradient867);fill-opacity:1"/><polygon class="fil0 str0" points="434.48,705.17 283.88,447.23 300.7,439.22 452.9,696.36 " id="polygon9" style="fill:#241f1c"/><rect class="fil0 str0" transform="matrix(-0.86169577,0.50742526,0.50742526,0.86169577,0,0)" width="36.666077" height="141.9832" rx="5.6480184" ry="5.6480184" id="rect11" x="-44.624695" y="385.53479" style="fill:#cf6b2f;fill-opacity:1"/><rect class="fil1 str1" x="241.55" y="0.57999998" width="4.29" height="160.21001" rx="1.27" ry="3.51" id="rect13"/>
</svg>