<?xml version="1.0" encoding="UTF-8"?>
<!DOCTYPE svg PUBLIC "-//W3C//DTD SVG 1.1//EN" "http://www.w3.org/Graphics/SVG/1.1/DTD/svg11.dtd">
<svg version="1.1" id="Layer_1" xmlns="http://www.w3.org/2000/svg" xmlns:xlink="http://www.w3.org/1999/xlink" x="0px" y="0px" viewBox="0 0 1930 1671.429" style="enable-background:new 0 0 1930 1671.429;" xml:space="preserve">
<style type="text/css">
	.st0{fill:url(#SVGID_1_);}
	.st1{fill:url(#SVGID_2_);}
	.st2{fill:url(#SVGID_3_);}
	.st3{fill:url(#SVGID_4_);}
	.st4{fill:url(#SVGID_5_);}
	.st5{fill:url(#SVGID_6_);}
	.st6{fill:url(#SVGID_7_);}
	.st7{fill:url(#SVGID_8_);}
	.st8{fill:url(#SVGID_9_);}
	.st9{fill:url(#SVGID_10_);}
	.st10{fill:url(#SVGID_11_);}
	.st11{fill:url(#SVGID_12_);}
	.st12{fill:url(#SVGID_13_);}
	.st13{fill:url(#SVGID_14_);}
	.st14{fill:url(#SVGID_15_);}
	.st15{fill:url(#SVGID_16_);}
	.st16{fill:url(#SVGID_17_);}
	.st17{fill:url(#SVGID_18_);}
	.st18{fill:url(#SVGID_19_);}
	.st19{fill:url(#SVGID_20_);}
	.st20{fill:url(#SVGID_21_);}
	.st21{fill:url(#SVGID_22_);}
	.st22{fill:url(#SVGID_23_);}
	.st23{fill:url(#SVGID_24_);}
	.st24{fill:url(#SVGID_25_);}
	.st25{fill:url(#SVGID_26_);}
	.st26{fill:url(#SVGID_27_);}
	.st27{fill:url(#SVGID_28_);}
	.st28{fill:url(#SVGID_29_);}
	.st29{fill:url(#SVGID_30_);}
	.st30{fill:url(#SVGID_31_);}
	.st31{fill:url(#SVGID_32_);}
	.st32{fill:url(#SVGID_33_);}
	.st33{fill:url(#SVGID_34_);}
	.st34{fill:url(#SVGID_35_);}
	.st35{fill:url(#SVGID_36_);}
	.st36{fill:url(#SVGID_37_);}
	.st37{fill:url(#SVGID_38_);}
	.st38{fill:url(#SVGID_39_);}
	.st39{fill:url(#SVGID_40_);}
</style>
<g>
	<linearGradient id="SVGID_1_" gradientUnits="userSpaceOnUse" x1="964.9872" y1="35.7255" x2="965.0126" y2="35.7255">
		<stop offset="0" style="stop-color:#5652C7"/>
		<stop offset="0.5112" style="stop-color:#802109"/>
		<stop offset="1" style="stop-color:#47F141"/>
	</linearGradient>
	<path class="st0" d="M965,35.714l-0.013,0.022c0.009,0,0.017,0,0.025,0L965,35.714z"/>
	<linearGradient id="SVGID_2_" gradientUnits="userSpaceOnUse" x1="964.4709" y1="1106.8011" x2="964.5385" y2="1106.8011">
		<stop offset="0" style="stop-color:#37E9F9"/>
		<stop offset="0.5337" style="stop-color:#7F440D"/>
		<stop offset="1" style="stop-color:#6CF222"/>
	</linearGradient>
	<path class="st1" d="M964.476,1106.759c-0.002,0.016-0.003,0.031-0.005,0.047c0.022,0.012,0.045,0.024,0.068,0.036   C964.518,1106.815,964.497,1106.787,964.476,1106.759z"/>
	<linearGradient id="SVGID_3_" gradientUnits="userSpaceOnUse" x1="964.8775" y1="1107.4485" x2="965.5269" y2="1107.4485">
		<stop offset="0" style="stop-color:#8FC752"/>
		<stop offset="0.5112" style="stop-color:#363180"/>
		<stop offset="1" style="stop-color:#F19441"/>
	</linearGradient>
	<path class="st2" d="M964.878,1107.289c0.118,0.155,0.237,0.308,0.355,0.463c0.031,0.004,0.062,0.008,0.093,0.012   c0.067-0.022,0.134-0.046,0.201-0.068c-0.033-0.122-0.065-0.246-0.098-0.368c-0.118-0.065-0.234-0.131-0.352-0.196   C965.01,1107.184,964.944,1107.237,964.878,1107.289z"/>
	<linearGradient id="SVGID_4_" gradientUnits="userSpaceOnUse" x1="963.5305" y1="1108.0139" x2="964.3773" y2="1108.0139">
		<stop offset="0" style="stop-color:#1FF626"/>
		<stop offset="0.4888" style="stop-color:#C80054"/>
		<stop offset="0.9944" style="stop-color:#75F222"/>
	</linearGradient>
	<path class="st3" d="M964.377,1107.682c-0.282,0.221-0.566,0.442-0.847,0.665c0.196-0.064,0.395-0.125,0.591-0.189   c0.083-0.155,0.171-0.308,0.254-0.463C964.376,1107.691,964.377,1107.686,964.377,1107.682z"/>
	<linearGradient id="SVGID_5_" gradientUnits="userSpaceOnUse" x1="964.7745" y1="1106.708" x2="965.3254" y2="1106.708">
		<stop offset="0" style="stop-color:#DAD521"/>
		<stop offset="0.5225" style="stop-color:#75ED30"/>
		<stop offset="1" style="stop-color:#97F023"/>
	</linearGradient>
	<path class="st4" d="M965.077,1107.132c0.083-0.065,0.165-0.13,0.248-0.195c-0.059-0.217-0.116-0.436-0.174-0.654   c-0.125,0.229-0.252,0.457-0.377,0.686C964.875,1107.025,964.977,1107.077,965.077,1107.132z"/>
	<linearGradient id="SVGID_6_" gradientUnits="userSpaceOnUse" x1="964.4758" y1="1105.8314" x2="965.1516" y2="1105.8314">
		<stop offset="0.05" style="stop-color:#FFF200"/>
		<stop offset="0.5337" style="stop-color:#0E58A8"/>
		<stop offset="1" style="stop-color:#A93E89"/>
	</linearGradient>
	<path class="st5" d="M964.774,1106.97c0.125-0.229,0.252-0.457,0.377-0.686c-0.141-0.53-0.284-1.058-0.423-1.59   c-0.084,0.689-0.174,1.378-0.253,2.066c0.021,0.028,0.042,0.056,0.063,0.083C964.617,1106.886,964.696,1106.927,964.774,1106.97z"/>
	<linearGradient id="SVGID_7_" gradientUnits="userSpaceOnUse" x1="964.3759" y1="1107.6842" x2="964.3876" y2="1107.6842">
		<stop offset="0.05" style="stop-color:#007DFF"/>
		<stop offset="0.5337" style="stop-color:#A80E38"/>
		<stop offset="1" style="stop-color:#A9913E"/>
	</linearGradient>
	<path class="st6" d="M964.388,1107.673c-0.004,0.003-0.007,0.005-0.01,0.008c0,0.004-0.001,0.009-0.001,0.013   C964.38,1107.688,964.384,1107.681,964.388,1107.673z"/>
	<linearGradient id="SVGID_8_" gradientUnits="userSpaceOnUse" x1="964.3815" y1="1107.2252" x2="964.7153" y2="1107.2252">
		<stop offset="0" style="stop-color:#A90093"/>
		<stop offset="0" style="stop-color:#954937"/>
		<stop offset="0.5056" style="stop-color:#A58735"/>
		<stop offset="1" style="stop-color:#DAD521"/>
	</linearGradient>
	<path class="st7" d="M964.715,1107.078c-0.059-0.078-0.118-0.157-0.177-0.235c-0.023-0.012-0.045-0.024-0.068-0.036   c-0.032,0.278-0.058,0.556-0.089,0.834c0.008,0.001,0.015,0.002,0.022,0.003C964.506,1107.454,964.612,1107.267,964.715,1107.078z"/>
	<linearGradient id="SVGID_9_" gradientUnits="userSpaceOnUse" x1="964.3773" y1="1107.6613" x2="964.4039" y2="1107.6613">
		<stop offset="0" style="stop-color:#F9D837"/>
		<stop offset="0.5337" style="stop-color:#552F7F"/>
		<stop offset="1" style="stop-color:#F26522"/>
	</linearGradient>
	<path class="st8" d="M964.404,1107.644c-0.007-0.001-0.015-0.002-0.022-0.003c-0.001,0.014-0.003,0.027-0.004,0.041   c0.004-0.003,0.007-0.005,0.01-0.008C964.393,1107.664,964.398,1107.654,964.404,1107.644z"/>
	<linearGradient id="SVGID_10_" gradientUnits="userSpaceOnUse" x1="965.0771" y1="1107.1329" x2="965.4291" y2="1107.1329">
		<stop offset="0" style="stop-color:#DAD521"/>
		<stop offset="1" style="stop-color:#7C00A8"/>
	</linearGradient>
	<path class="st9" d="M965.429,1107.328c-0.035-0.13-0.069-0.261-0.104-0.391c-0.083,0.064-0.165,0.13-0.248,0.195   C965.195,1107.197,965.312,1107.264,965.429,1107.328z"/>
	<linearGradient id="SVGID_11_" gradientUnits="userSpaceOnUse" x1="964.3876" y1="1107.6587" x2="964.4223" y2="1107.6587">
		<stop offset="0" style="stop-color:#1FF626"/>
		<stop offset="0.4888" style="stop-color:#C80054"/>
		<stop offset="0.9944" style="stop-color:#75F222"/>
	</linearGradient>
	<path class="st10" d="M964.388,1107.673c0.011-0.009,0.023-0.018,0.035-0.027c-0.006-0.001-0.012-0.002-0.018-0.002   C964.398,1107.654,964.393,1107.664,964.388,1107.673z"/>
	<linearGradient id="SVGID_12_" gradientUnits="userSpaceOnUse" x1="965.4291" y1="1107.5123" x2="965.8757" y2="1107.5123">
		<stop offset="0" style="stop-color:#264BA0"/>
		<stop offset="1" style="stop-color:#F2981F"/>
	</linearGradient>
	<path class="st11" d="M965.876,1107.578c-0.149-0.082-0.297-0.168-0.447-0.25c0.033,0.122,0.064,0.246,0.098,0.368   C965.644,1107.658,965.759,1107.617,965.876,1107.578z"/>
	<linearGradient id="SVGID_13_" gradientUnits="userSpaceOnUse" x1="965.3261" y1="1107.7452" x2="965.5529" y2="1107.7452">
		<stop offset="0" style="stop-color:#3BA2FF"/>
		<stop offset="0.0645" style="stop-color:#54AAEB"/>
		<stop offset="0.1334" style="stop-color:#67B1DD"/>
		<stop offset="0.2044" style="stop-color:#72B5D4"/>
		<stop offset="0.28" style="stop-color:#76B6D1"/>
		<stop offset="0.67" style="stop-color:#9193A3"/>
		<stop offset="0.89" style="stop-color:#A46A73"/>
		<stop offset="1" style="stop-color:#B1334D"/>
	</linearGradient>
	<path class="st12" d="M965.553,1107.794c-0.009-0.032-0.017-0.065-0.026-0.098c-0.067,0.022-0.134,0.046-0.201,0.068   C965.402,1107.775,965.477,1107.784,965.553,1107.794z"/>
	<linearGradient id="SVGID_14_" gradientUnits="userSpaceOnUse" x1="1790.3113" y1="1612.9718" x2="1888.7605" y2="1612.9718">
		<stop offset="0" style="stop-color:#264BA0"/>
		<stop offset="1" style="stop-color:#F2981F"/>
	</linearGradient>
	<path class="st13" d="M1888.76,1635.714c0,0-9.69-16.783-26.261-45.485c-23.065,16.051-46.848,31.03-72.188,45.485   C1850.816,1635.714,1888.76,1635.714,1888.76,1635.714z"/>
	<linearGradient id="SVGID_15_" gradientUnits="userSpaceOnUse" x1="964.7153" y1="1107.1294" x2="965.0771" y2="1107.1294">
		<stop offset="0" style="stop-color:#FFF33B"/>
		<stop offset="0.0662" style="stop-color:#F6D955"/>
		<stop offset="0.1346" style="stop-color:#EFC768"/>
		<stop offset="0.205" style="stop-color:#EBBC73"/>
		<stop offset="0.28" style="stop-color:#EAB877"/>
		<stop offset="0.67" style="stop-color:#DA9087"/>
		<stop offset="0.89" style="stop-color:#CD6C8F"/>
		<stop offset="1" style="stop-color:#BE2F92"/>
	</linearGradient>
	<path class="st14" d="M965.077,1107.132c-0.101-0.055-0.202-0.108-0.303-0.163c-0.02,0.036-0.04,0.072-0.059,0.108   c0.054,0.071,0.108,0.141,0.162,0.212C964.944,1107.237,965.01,1107.184,965.077,1107.132z"/>
	<linearGradient id="SVGID_16_" gradientUnits="userSpaceOnUse" x1="964.4039" y1="1107.3619" x2="964.8775" y2="1107.3619">
		<stop offset="0" style="stop-color:#A90093"/>
		<stop offset="0" style="stop-color:#954937"/>
		<stop offset="0.5056" style="stop-color:#A58735"/>
		<stop offset="1" style="stop-color:#DAD521"/>
	</linearGradient>
	<path class="st15" d="M964.715,1107.078c-0.103,0.189-0.209,0.377-0.311,0.566c0.006,0.001,0.012,0.002,0.018,0.002   c0.152-0.119,0.303-0.239,0.455-0.357C964.824,1107.218,964.769,1107.149,964.715,1107.078z"/>
	<linearGradient id="SVGID_17_" gradientUnits="userSpaceOnUse" x1="964.4223" y1="1107.5206" x2="965.233" y2="1107.5206">
		<stop offset="0" style="stop-color:#51F321"/>
		<stop offset="1" style="stop-color:#C80054"/>
	</linearGradient>
	<path class="st16" d="M964.422,1107.646c0.27,0.035,0.54,0.07,0.811,0.106c-0.118-0.155-0.237-0.308-0.355-0.463   C964.725,1107.408,964.574,1107.527,964.422,1107.646z"/>
	<linearGradient id="SVGID_18_" gradientUnits="userSpaceOnUse" x1="964.5385" y1="1106.9602" x2="964.7745" y2="1106.9602">
		<stop offset="0" style="stop-color:#3452C6"/>
		<stop offset="1" style="stop-color:#A98A2E"/>
	</linearGradient>
	<path class="st17" d="M964.539,1106.843c0.059,0.078,0.118,0.157,0.177,0.235c0.02-0.036,0.04-0.072,0.059-0.108   C964.696,1106.927,964.617,1106.886,964.539,1106.843z"/>
	<linearGradient id="SVGID_19_" gradientUnits="userSpaceOnUse" x1="485.7802" y1="1354.2023" x2="964.4709" y2="1354.2023">
		<stop offset="0" style="stop-color:#F37121"/>
		<stop offset="1" style="stop-color:#0080C8"/>
	</linearGradient>
	<path class="st18" d="M636.09,1405.275c12.226-104.478,62.242-202.287,155.605-260.083c2.223-1.111,3.334-1.111,5.557-2.223   c1.111-1.111,3.334-2.223,4.446-3.334c3.334-1.111,6.669-3.334,10.003-5.557c30.01-14.449,60.019-24.452,92.252-27.787   c20.143-2.014,40.286-1.284,60.428,1.35c0.031-0.278,0.057-0.556,0.089-0.834c-45.306-24.713-94.63-36.003-144.989-33.86   c-83.36,4.446-161.162,45.57-217.847,110.035c-2.223,2.223-3.334,2.223-5.557,4.446   c-107.474,125.871-130.591,293.912-94.355,448.287c82.255,0,92.515,0,164.512,0C639.048,1562.11,626.883,1484.457,636.09,1405.275z   "/>
	<linearGradient id="SVGID_20_" gradientUnits="userSpaceOnUse" x1="325.1289" y1="1319.4913" x2="964.4758" y2="1319.4913">
		<stop offset="0.05" style="stop-color:#A6CE39"/>
		<stop offset="0.5337" style="stop-color:#552F7F"/>
		<stop offset="1" style="stop-color:#DA2128"/>
	</linearGradient>
	<path class="st19" d="M596.077,1187.427c2.223-2.223,3.334-2.223,5.557-4.446c56.685-64.465,134.487-105.589,217.847-110.035   c50.359-2.143,99.683,9.147,144.989,33.86c0.002-0.016,0.003-0.031,0.005-0.047c-2.033-2.686-4.047-5.43-6.061-8.249   c-1.111-1.111-3.334-2.223-4.446-3.334c-77.802-93.363-207.844-111.147-316.768-73.357   c-173.389,61.131-278.978,230.073-304.542,409.019c-10.067,69.752-9.886,137.642-0.386,204.876c73.132,0,84.725,0,169.448,0   C465.486,1481.34,488.603,1313.298,596.077,1187.427z"/>
	<linearGradient id="SVGID_21_" gradientUnits="userSpaceOnUse" x1="633.0482" y1="1370.4254" x2="964.3815" y2="1370.4254">
		<stop offset="0" style="stop-color:#9300AB"/>
		<stop offset="1" style="stop-color:#94EC2F"/>
	</linearGradient>
	<path class="st20" d="M801.698,1579.775c-1.111-2.223-1.111-5.557-2.223-7.78c-40.013-86.694-52.239-184.503-23.341-276.755   c27.787-87.806,93.363-161.162,183.392-185.615c1.347-0.414,2.675-0.847,4.004-1.279c0.281-0.223,0.564-0.443,0.847-0.665   c0.002-0.014,0.003-0.027,0.004-0.041c-20.143-2.634-40.286-3.365-60.428-1.35c-32.233,3.334-62.242,13.338-92.252,27.787   c-3.334,2.223-6.669,4.446-10.003,5.557c-1.111,1.112-3.334,2.223-4.446,3.334c-2.223,1.111-3.334,1.111-5.557,2.223   c-93.363,57.796-143.379,155.605-155.605,260.083c-9.207,79.183,2.958,156.835,30.145,230.44c73.224,0,126.473,0,167.315,0   c-5.758-9.225-11.352-18.574-17.402-28.153C810.59,1598.67,807.256,1588.667,801.698,1579.775z"/>
	<linearGradient id="SVGID_22_" gradientUnits="userSpaceOnUse" x1="153.5689" y1="1268.9043" x2="964.7289" y2="1268.9043">
		<stop offset="0" style="stop-color:#007DFF"/>
		<stop offset="0.5" style="stop-color:#28F584"/>
		<stop offset="1" style="stop-color:#5845BE"/>
	</linearGradient>
	<path class="st21" d="M332.66,1430.839c25.564-178.946,131.153-347.889,304.542-409.019   c108.924-37.79,238.965-20.006,316.768,73.357c1.112,1.111,3.334,2.223,4.446,3.334c2.014,2.819,4.028,5.563,6.061,8.249   c0.079-0.688,0.169-1.377,0.253-2.066c-0.249-0.953-0.517-1.887-0.757-2.849c-5.557-17.783-13.338-34.455-21.118-51.127   c-2.223-3.334-3.334-6.669-5.557-10.003c-27.787-44.459-63.354-77.803-108.924-101.143   c-135.988-70.054-296.796-36.015-416.056,53.419c-78.397,135.787-151.247,261.968-248.178,429.856   c-11.438,70.3-13.385,141.932-6.851,212.869c38.442,0,99.464,0,174.986,0C322.774,1568.48,322.592,1500.59,332.66,1430.839z"/>
	<linearGradient id="SVGID_23_" gradientUnits="userSpaceOnUse" x1="41.2395" y1="1529.2802" x2="164.1393" y2="1529.2802">
		<stop offset="0" style="stop-color:#F37121"/>
		<stop offset="1" style="stop-color:#0080C8"/>
	</linearGradient>
	<path class="st22" d="M164.139,1422.846c-48.001,83.14-122.9,212.869-122.9,212.869s90.554,0,116.049,0   C150.755,1564.777,152.702,1493.146,164.139,1422.846z"/>
	<linearGradient id="SVGID_24_" gradientUnits="userSpaceOnUse" x1="760.27" y1="1372.0304" x2="1031.4285" y2="1372.0304">
		<stop offset="0" style="stop-color:#B5C634"/>
		<stop offset="1" style="stop-color:#A92E91"/>
	</linearGradient>
	<path class="st23" d="M861.717,1347.479c-3.334-58.908,7.78-117.815,40.013-170.054c17.625-26.902,37.59-49.918,61.8-69.078   c-1.329,0.432-2.658,0.864-4.004,1.279c-90.029,24.452-155.605,97.809-183.392,185.615   c-28.898,92.252-16.672,190.061,23.341,276.755c1.111,2.223,1.111,5.557,2.223,7.78c5.557,8.892,8.892,18.895,14.449,27.787   c6.05,9.579,11.644,18.928,17.402,28.153c32.087,0,131.451,0,131.451,0s24.862,0,66.429,0c-2.115-1.587-4.226-3.187-6.326-4.812   C932.851,1559.768,870.609,1460.848,861.717,1347.479z"/>
	<linearGradient id="SVGID_25_" gradientUnits="userSpaceOnUse" x1="412.317" y1="939.9261" x2="967.5733" y2="939.9261">
		<stop offset="0" style="stop-color:#FFF33B"/>
		<stop offset="0.0401" style="stop-color:#FEE72E"/>
		<stop offset="0.1171" style="stop-color:#FED51B"/>
		<stop offset="0.1964" style="stop-color:#FDCA10"/>
		<stop offset="0.2809" style="stop-color:#FDC70C"/>
		<stop offset="0.6685" style="stop-color:#F3903F"/>
		<stop offset="0.8876" style="stop-color:#ED683C"/>
		<stop offset="1" style="stop-color:#E93E3A"/>
	</linearGradient>
	<path class="st24" d="M828.373,939.571c45.57,23.341,81.137,56.685,108.924,101.143c2.223,3.334,3.334,6.669,5.557,10.003   c7.78,16.672,15.56,33.344,21.118,51.127c0.24,0.961,0.508,1.896,0.757,2.849c0.116-0.949,0.228-1.898,0.355-2.849   c4.446-24.452,2.223-47.793-1.112-72.245c-3.334-18.895-10.003-36.678-15.56-54.462c-3.334-7.78-6.669-14.449-10.003-21.118   c-11.115-21.118-23.341-41.124-40.013-57.796c-1.111-1.111-2.223-3.334-3.334-5.557c-53.35-57.796-121.15-93.363-200.064-107.812   c-54.854-10.017-108.479-9.995-160.525-1.444c-3.968,6.872-31.353,54.304-31.353,54.304s-62.119,107.594-90.803,157.275   C531.578,903.556,692.385,869.516,828.373,939.571z"/>
	<linearGradient id="SVGID_26_" gradientUnits="userSpaceOnUse" x1="962.7258" y1="1273.6196" x2="1688.5122" y2="1273.6196">
		<stop offset="0" style="stop-color:#A02632"/>
		<stop offset="1" style="stop-color:#1FF246"/>
	</linearGradient>
	<path class="st25" d="M1565.275,1184.093c-35.567,31.121-72.245,58.908-114.481,78.914c-2.223,1.111-4.446,3.334-6.669,4.446   c-53.351,25.564-110.035,41.124-168.943,44.459c-35.567,2.223-68.911-2.223-104.478-10.003c-4.446-1.111-7.78-2.223-12.226-3.334   c-51.127-16.672-98.92-42.236-134.487-84.471c-1.112-1.111-3.334-2.223-4.446-3.334c-10.003-12.226-17.783-23.341-26.675-36.678   c-2.223-3.334-3.334-6.669-5.557-10.003c-9.013-18.026-16.204-36.067-21.608-55.719c-0.148-0.194-0.297-0.387-0.446-0.581   c-0.308,0.102-0.618,0.202-0.926,0.303c-5.243,47.752,2.603,93.465,19.645,137.134c1.111,1.111,2.223,3.334,3.334,4.446   c41.124,93.363,127.819,153.382,226.739,177.834c24.452,5.557,46.682,8.892,71.134,11.115c20.006,1.111,41.124,1.111,61.131,0   c35.567-2.223,68.911-8.892,103.366-17.783c2.223-1.112,5.557-2.223,7.78-3.334c88.704-25.344,164.997-69.505,231.049-128.627   c-27.844-48.228-56.293-97.503-83.692-144.958C1592.423,1157.96,1579.537,1171.258,1565.275,1184.093z"/>
	<linearGradient id="SVGID_27_" gradientUnits="userSpaceOnUse" x1="875.205" y1="589.067" x2="1429.0786" y2="589.067">
		<stop offset="0" style="stop-color:#FFF200"/>
		<stop offset="0.5" style="stop-color:#F5AE28"/>
		<stop offset="1" style="stop-color:#6FBE45"/>
	</linearGradient>
	<path class="st26" d="M1084.01,322.707c2.223,2.223,4.446,5.557,6.669,7.78c56.685,50.016,101.144,105.589,137.822,171.166   c5.557,11.115,11.115,21.118,16.672,32.233c18.895,38.901,31.121,77.803,41.124,121.15c13.337,62.242,14.449,121.15,3.334,183.392   c-12.226,63.354-36.678,117.815-77.802,167.831c-60.019,72.245-147.825,113.369-241.188,102.255   c-1.388-0.208-2.776-0.408-4.164-0.598c1.019,0.566,2.038,1.13,3.052,1.71c13.338,7.78,26.675,13.338,41.124,18.895   c11.115,3.334,21.118,5.557,32.232,7.78c11.115,2.223,22.229,4.446,33.344,5.557c53.35,3.334,106.701-8.892,154.494-33.344   c40.013-21.118,73.357-47.793,103.366-81.137c47.984-55.021,78.654-119.619,94.988-187.854c-1.443-2.498-2.198-3.807-2.198-3.807   S968.114,41.109,966.041,37.518c-0.319-0.151-0.638-0.307-0.958-0.457c0.319,0.15,0.638,0.307,0.958,0.457   c-0.005-0.008-1.028-1.781-1.029-1.781c-0.008,0-0.017,0-0.025,0c-0.005,0.009-61.66,106.797-89.782,155.507   C949.839,223.821,1020.239,267.438,1084.01,322.707z"/>
	<linearGradient id="SVGID_28_" gradientUnits="userSpaceOnUse" x1="861.1501" y1="1371.936" x2="1862.4995" y2="1371.936">
		<stop offset="0" style="stop-color:#FFF200"/>
		<stop offset="0.5" style="stop-color:#F5AE28"/>
		<stop offset="1" style="stop-color:#6FBE45"/>
	</linearGradient>
	<path class="st27" d="M1607.511,1534.205c-114.481,48.905-237.854,67.799-363.449,40.013   c-48.905-11.115-92.252-27.787-135.599-52.239c-23.341-13.338-42.236-28.898-63.354-45.57c-2.223-1.111-2.223-3.334-4.446-5.557   c-57.796-51.127-96.698-117.815-107.812-194.506c-9.086-59.563,3.838-117.29,31.27-168.187c-0.196,0.064-0.395,0.125-0.591,0.189   c-24.21,19.16-44.175,42.176-61.8,69.078c-32.233,52.239-43.347,111.147-40.013,170.054   c8.892,113.37,71.134,212.29,163.385,283.424c2.1,1.626,4.21,3.225,6.326,4.812c160.454,0,569.82,0,758.883,0   c25.341-14.455,49.123-29.434,72.188-45.485c-20.666-35.794-52.036-90.129-88.666-153.575c-9.476,7.366-19.02,14.494-29.612,21.97   C1699.762,1489.746,1655.304,1513.087,1607.511,1534.205z"/>
	<linearGradient id="SVGID_29_" gradientUnits="userSpaceOnUse" x1="929.9684" y1="1347.5953" x2="1773.8333" y2="1347.5953">
		<stop offset="0" style="stop-color:#8FC752"/>
		<stop offset="0.5112" style="stop-color:#363180"/>
		<stop offset="1" style="stop-color:#F19441"/>
	</linearGradient>
	<path class="st28" d="M1449.683,1420.835c-34.455,8.892-67.799,15.561-103.366,17.783c-20.006,1.111-41.124,1.111-61.131,0   c-24.452-2.223-46.682-5.557-71.134-11.115c-98.92-24.452-185.615-84.471-226.739-177.834c-1.111-1.111-2.223-3.334-3.334-4.446   c-17.042-43.669-24.888-89.382-19.645-137.134c-0.07,0.023-0.142,0.045-0.212,0.068c-27.432,50.897-40.356,108.625-31.27,168.187   c11.115,76.691,50.016,143.379,107.812,194.506c2.223,2.223,2.223,4.446,4.446,5.557c21.118,16.672,40.013,32.232,63.354,45.57   c43.347,24.452,86.694,41.124,135.599,52.239c125.596,27.787,248.968,8.892,363.449-40.013   c47.793-21.118,92.252-44.458,136.71-75.58c10.592-7.477,20.136-14.605,29.612-21.97c-26.389-45.707-55.507-96.141-85.321-147.781   c-66.052,59.121-142.345,103.283-231.049,128.627C1455.24,1418.612,1451.906,1419.724,1449.683,1420.835z"/>
	<linearGradient id="SVGID_30_" gradientUnits="userSpaceOnUse" x1="965.5269" y1="1107.7467" x2="966.477" y2="1107.7467">
		<stop offset="0" style="stop-color:#66C7FF"/>
		<stop offset="0.0296" style="stop-color:#63BEF9"/>
		<stop offset="0.1097" style="stop-color:#5EABEC"/>
		<stop offset="0.1921" style="stop-color:#5AA0E4"/>
		<stop offset="0.28" style="stop-color:#599CE1"/>
		<stop offset="0.67" style="stop-color:#7524B3"/>
		<stop offset="0.89" style="stop-color:#7E2161"/>
		<stop offset="1" style="stop-color:#923B2E"/>
	</linearGradient>
	<path class="st29" d="M965.527,1107.696c0.009,0.032,0.017,0.065,0.026,0.098c0.308,0.041,0.616,0.079,0.924,0.121   c-0.201-0.112-0.4-0.226-0.601-0.337C965.759,1107.617,965.644,1107.658,965.527,1107.696z"/>
	<linearGradient id="SVGID_31_" gradientUnits="userSpaceOnUse" x1="965.5529" y1="1025.5554" x2="1521.4878" y2="1025.5554">
		<stop offset="0" style="stop-color:#4052D2"/>
		<stop offset="0.5169" style="stop-color:#00C1FF"/>
		<stop offset="0.95" style="stop-color:#7D00AA"/>
	</linearGradient>
	<path class="st30" d="M965.705,1108.368c8.82,11.501,18.082,21.942,29.388,32.378c12.226,11.115,25.564,20.006,40.013,30.01   c35.567,22.229,73.357,33.344,114.481,38.901c40.013,4.446,78.914,1.111,117.815-8.892c8.892-3.334,16.672-4.446,25.564-7.78   c14.449-5.557,28.898-12.226,43.347-18.895c6.669-2.223,12.226-5.557,18.895-8.892c2.223-1.111,3.334-3.334,5.557-4.446   c4.446-2.223,8.892-3.334,12.226-6.669c4.446-3.334,7.78-5.557,12.226-7.78c14.449-10.003,26.675-20.006,40.013-31.121   c37.79-34.455,68.911-70.022,95.586-114.481c0.226-0.373,0.446-0.748,0.671-1.122c-47.789-82.773-83.444-144.529-92.409-160.057   c-16.334,68.236-47.005,132.833-94.988,187.854c-30.01,33.344-63.354,60.019-103.366,81.137   c-47.793,24.452-101.143,36.678-154.494,33.344c-11.115-1.111-22.229-3.334-33.344-5.557c-11.115-2.223-21.118-4.446-32.232-7.78   c-14.449-5.557-27.787-11.115-41.124-18.895c-1.014-0.58-2.034-1.144-3.052-1.71c-0.308-0.042-0.616-0.08-0.924-0.121   C965.605,1107.984,965.653,1108.178,965.705,1108.368z"/>
	<linearGradient id="SVGID_32_" gradientUnits="userSpaceOnUse" x1="965.2596" y1="1108.0663" x2="965.7053" y2="1108.0663">
		<stop offset="0.05" style="stop-color:#3948CE"/>
		<stop offset="0.5337" style="stop-color:#7F440D"/>
		<stop offset="1" style="stop-color:#DAD521"/>
	</linearGradient>
	<path class="st31" d="M965.326,1107.765c-0.022,0.007-0.044,0.015-0.067,0.022c0.148,0.194,0.297,0.387,0.446,0.581   c-0.052-0.19-0.1-0.384-0.152-0.574C965.477,1107.784,965.402,1107.775,965.326,1107.765z"/>
	<linearGradient id="SVGID_33_" gradientUnits="userSpaceOnUse" x1="965.7053" y1="1156.0316" x2="1604.8206" y2="1156.0316">
		<stop offset="0" style="stop-color:#F37121"/>
		<stop offset="1" style="stop-color:#0080C8"/>
	</linearGradient>
	<path class="st32" d="M1425.23,1115.182c-13.338,11.115-25.564,21.118-40.013,31.121c-4.446,2.223-7.78,4.446-12.226,7.78   c-3.334,3.334-7.78,4.446-12.226,6.669c-2.223,1.111-3.334,3.334-5.557,4.446c-6.669,3.334-12.226,6.669-18.895,8.892   c-14.449,6.669-28.898,13.338-43.347,18.895c-8.892,3.334-16.672,4.446-25.564,7.78c-38.901,10.003-77.802,13.338-117.815,8.892   c-41.124-5.557-78.914-16.672-114.481-38.901c-14.449-10.003-27.787-18.895-40.013-30.01   c-11.306-10.436-20.568-20.877-29.388-32.378c5.404,19.652,12.595,37.693,21.608,55.719c2.223,3.334,3.334,6.669,5.557,10.003   c8.892,13.338,16.672,24.452,26.675,36.678c1.111,1.112,3.334,2.223,4.446,3.334c35.567,42.236,83.36,67.799,134.487,84.471   c4.446,1.111,7.78,2.223,12.226,3.334c35.567,7.78,68.911,12.226,104.478,10.003c58.908-3.334,115.592-18.895,168.943-44.459   c2.223-1.111,4.446-3.334,6.669-4.446c42.236-20.006,78.914-47.793,114.481-78.914c14.262-12.836,27.148-26.133,39.545-40.177   c-29.722-51.48-58.204-100.812-83.333-144.337c-0.225,0.374-0.445,0.749-0.671,1.122   C1494.141,1045.16,1463.02,1080.727,1425.23,1115.182z"/>
	<linearGradient id="SVGID_34_" gradientUnits="userSpaceOnUse" x1="964.3337" y1="1107.868" x2="965.2596" y2="1107.868">
		<stop offset="0" style="stop-color:#A02632"/>
		<stop offset="1" style="stop-color:#1FF246"/>
	</linearGradient>
	<path class="st33" d="M964.422,1107.646c-0.012,0.009-0.023,0.018-0.035,0.027c-0.004,0.007-0.008,0.014-0.012,0.021   c-0.015,0.132-0.028,0.263-0.042,0.395c0.308-0.101,0.618-0.201,0.926-0.303c-0.009-0.011-0.018-0.023-0.027-0.035   C964.963,1107.716,964.693,1107.682,964.422,1107.646z"/>
	<linearGradient id="SVGID_35_" gradientUnits="userSpaceOnUse" x1="965.233" y1="1107.7697" x2="965.3261" y2="1107.7697">
		<stop offset="0" style="stop-color:#007DFF"/>
		<stop offset="0.5" style="stop-color:#28F584"/>
		<stop offset="1" style="stop-color:#5845BE"/>
	</linearGradient>
	<path class="st34" d="M965.233,1107.752c0.009,0.012,0.018,0.023,0.027,0.035c0.022-0.007,0.044-0.015,0.067-0.022   C965.295,1107.76,965.264,1107.756,965.233,1107.752z"/>
	<linearGradient id="SVGID_36_" gradientUnits="userSpaceOnUse" x1="704.0983" y1="724.4681" x2="1170.0767" y2="724.4681">
		<stop offset="0" style="stop-color:#3452C6"/>
		<stop offset="1" style="stop-color:#A98A2E"/>
	</linearGradient>
	<path class="st35" d="M858.383,551.669c58.908,35.567,105.589,77.803,145.602,135.599c2.223,4.446,4.446,7.78,7.78,12.226   c21.118,36.678,37.79,71.134,47.793,112.258c12.226,52.239,13.337,101.143,0,152.271c-13.338,52.239-42.236,97.809-81.137,133.376   c-4.507,3.058-8.859,6.247-13.096,9.539c0.035,0.13,0.069,0.261,0.104,0.391c0.149,0.082,0.297,0.168,0.447,0.25   c12.07-4.026,23.577-8.615,35.886-12.402c1.111-1.112,3.334-2.223,4.446-3.334c5.557-2.223,10.003-4.446,15.561-6.669   c3.334-2.223,6.669-3.334,10.003-5.557c27.787-18.895,51.127-37.79,72.245-64.465c11.115-14.449,20.006-28.898,28.898-44.459   c48.905-94.475,46.681-203.398,10.003-300.096c-22.229-57.796-54.462-108.924-95.586-156.717c-2.223-2.223-4.446-3.334-6.669-5.557   c-4.446-4.446-6.669-8.892-11.115-13.338c-4.446-4.446-7.78-7.78-12.226-12.226c-67.468-64.354-145.385-110.826-228.786-141.4   c-39.87,69.057-42.93,74.357-84.438,146.251c3.633,0.945,7.268,1.917,10.906,2.929   C766.131,504.988,811.701,523.883,858.383,551.669z"/>
	<linearGradient id="SVGID_37_" gradientUnits="userSpaceOnUse" x1="622.3604" y1="797.2735" x2="1069.1492" y2="797.2735">
		<stop offset="0" style="stop-color:#FFF166"/>
		<stop offset="0.0782" style="stop-color:#F0E660"/>
		<stop offset="0.1758" style="stop-color:#E5DD5B"/>
		<stop offset="0.28" style="stop-color:#E1DA59"/>
		<stop offset="0.67" style="stop-color:#24B34B"/>
		<stop offset="0.89" style="stop-color:#21777E"/>
		<stop offset="1" style="stop-color:#2E3192"/>
	</linearGradient>
	<path class="st36" d="M939.52,798.415c64.465,86.694,81.137,200.064,33.344,294.538c-2.685,4.385-5.249,8.834-7.712,13.331   c0.058,0.218,0.115,0.437,0.174,0.654c4.237-3.292,8.589-6.48,13.096-9.539c38.901-35.567,67.799-81.137,81.137-133.376   c13.337-51.127,12.226-100.032,0-152.271c-10.003-41.124-26.675-75.58-47.793-112.258c-3.334-4.446-5.557-7.78-7.78-12.226   c-40.013-57.796-86.694-100.032-145.602-135.599c-46.682-27.787-92.252-46.682-143.379-61.131   c-3.638-1.013-7.273-1.985-10.906-2.929c-40.181,69.596-50.43,87.347-81.738,141.574   C745.687,638.989,861.536,692.143,939.52,798.415z"/>
	<linearGradient id="SVGID_38_" gradientUnits="userSpaceOnUse" x1="534.4724" y1="867.7336" x2="1000.3554" y2="867.7336">
		<stop offset="0" style="stop-color:#9300AB"/>
		<stop offset="1" style="stop-color:#94EC2F"/>
	</linearGradient>
	<path class="st37" d="M694.997,782.854c78.914,14.449,146.714,50.016,200.064,107.812c1.111,2.223,2.223,4.446,3.334,5.557   c16.672,16.672,28.898,36.678,40.013,57.796c3.334,6.669,6.669,13.338,10.003,21.118c5.557,17.783,12.226,35.567,15.56,54.462   c3.334,24.452,5.557,47.793,1.112,72.245c-0.127,0.951-0.238,1.899-0.355,2.849c0.139,0.532,0.281,1.061,0.423,1.59   c2.463-4.497,5.028-8.946,7.712-13.331c47.793-94.475,31.121-207.844-33.344-294.538   c-77.984-106.272-193.833-159.425-317.16-169.231c-33.664,58.307-76.766,132.963-87.888,152.227   C586.519,772.859,640.143,772.837,694.997,782.854z"/>
	<linearGradient id="SVGID_39_" gradientUnits="userSpaceOnUse" x1="964.1215" y1="1107.9263" x2="964.3759" y2="1107.9263">
		<stop offset="0" style="stop-color:#1FF626"/>
		<stop offset="0.4888" style="stop-color:#C80054"/>
		<stop offset="0.9944" style="stop-color:#75F222"/>
	</linearGradient>
	<path class="st38" d="M964.122,1108.158c0.07-0.023,0.142-0.045,0.212-0.068c0.014-0.132,0.028-0.263,0.042-0.395   C964.292,1107.85,964.205,1108.003,964.122,1108.158z"/>
	<linearGradient id="SVGID_40_" gradientUnits="userSpaceOnUse" x1="788.5366" y1="650.7785" x2="1297.2098" y2="650.7785">
		<stop offset="0.0056" style="stop-color:#00AD8E"/>
		<stop offset="0.5" style="stop-color:#DA2128"/>
		<stop offset="1" style="stop-color:#F26922"/>
	</linearGradient>
	<path class="st39" d="M1029.549,494.984c4.446,4.446,6.669,8.892,11.115,13.338c2.223,2.223,4.446,3.334,6.669,5.557   c41.124,47.793,73.357,98.92,95.586,156.717c36.678,96.698,38.901,205.621-10.003,300.096c-8.892,15.56-17.783,30.01-28.898,44.459   c-21.118,26.675-44.458,45.57-72.245,64.465c-3.334,2.223-6.669,3.334-10.003,5.557c-5.557,2.223-10.003,4.446-15.561,6.669   c-1.112,1.112-3.334,2.223-4.446,3.334c-12.309,3.787-23.816,8.376-35.886,12.402c0.201,0.111,0.401,0.225,0.601,0.337   c1.388,0.191,2.776,0.39,4.164,0.598c93.363,11.115,181.169-30.01,241.188-102.255c41.124-50.016,65.576-104.478,77.802-167.831   c11.115-62.242,10.003-121.15-3.334-183.392c-10.003-43.347-22.229-82.248-41.124-121.15   c-5.557-11.115-11.115-21.118-16.672-32.233c-36.678-65.576-81.137-121.15-137.822-171.166c-2.223-2.223-4.446-5.557-6.669-7.78   c-63.772-55.269-134.172-98.886-208.805-131.463c-27.147,47.021-45.745,79.234-86.668,150.114   c83.401,30.575,161.318,77.046,228.786,141.4C1021.768,487.204,1025.103,490.539,1029.549,494.984z"/>
</g>
</svg>