<?xml version="1.0" encoding="UTF-8" standalone="no"?>
<svg xmlns:dc="http://purl.org/dc/elements/1.1/" xmlns:cc="http://creativecommons.org/ns#" xmlns:rdf="http://www.w3.org/1999/02/22-rdf-syntax-ns#" xmlns:svg="http://www.w3.org/2000/svg" xmlns="http://www.w3.org/2000/svg" xmlns:xlink="http://www.w3.org/1999/xlink" width="156.1875" height="133.2813" id="svg2" version="1.1">
  <title id="title4284">Man</title>
  <defs id="defs4">
    <linearGradient id="linearGradient4485">
      <stop style="stop-color:#e7e7e7;stop-opacity:1;" offset="0" id="stop4487"/>
      <stop style="stop-color:#ffffff;stop-opacity:1;" offset="1" id="stop4489"/>
    </linearGradient>
    <linearGradient id="linearGradient4337">
      <stop style="stop-color:#c5c5c5;stop-opacity:1;" offset="0" id="stop4339"/>
      <stop id="stop4345" offset="0.5" style="stop-color:#ffffff;stop-opacity:0.17177914;"/>
      <stop style="stop-color:#ffffff;stop-opacity:0;" offset="1" id="stop4341"/>
    </linearGradient>
    <linearGradient id="linearGradient4066">
      <stop style="stop-color:#a38465;stop-opacity:1;" offset="0" id="stop4068"/>
      <stop style="stop-color:#000000;stop-opacity:1;" offset="1" id="stop4070"/>
    </linearGradient>
    <linearGradient xlink:href="#linearGradient4337" id="linearGradient4343" x1="242.14287" y1="567.7193" x2="300.72568" y2="567.7193" gradientUnits="userSpaceOnUse" spreadMethod="reflect" gradientTransform="translate(-102.34309,-223.0625)"/>
    <linearGradient xlink:href="#linearGradient4485" id="linearGradient4491" x1="199.75766" y1="315.70773" x2="193.25481" y2="313.18237" gradientUnits="userSpaceOnUse" gradientTransform="translate(3.3378601e-6,-0.221)"/>
    <linearGradient xlink:href="#linearGradient4485" id="linearGradient4495" gradientUnits="userSpaceOnUse" x1="199.75766" y1="315.70773" x2="193.25481" y2="313.18237" gradientTransform="matrix(1.2036183,0,0,1.0618128,-40.063689,-19.16748)"/>
    <linearGradient xlink:href="#linearGradient4485" id="linearGradient4517" gradientUnits="userSpaceOnUse" gradientTransform="matrix(1.2036183,0,0,1.0618128,-433.58126,-3.82579)" x1="199.75766" y1="315.70773" x2="193.25481" y2="313.18237"/>
    <linearGradient xlink:href="#linearGradient4485" id="linearGradient4519" gradientUnits="userSpaceOnUse" gradientTransform="translate(-393.51757,15.12069)" x1="199.75766" y1="315.70773" x2="193.25481" y2="313.18237"/>
  </defs>
  <metadata id="metadata7">
    <rdf:RDF>
      <cc:Work rdf:about="">
        <dc:format>image/svg+xml</dc:format>
        <dc:type rdf:resource="http://purl.org/dc/dcmitype/StillImage"/>
        <dc:title>Man</dc:title>
        <dc:creator>
          <cc:Agent>
            <dc:title>Jakub Jankiewicz</dc:title>
          </cc:Agent>
        </dc:creator>
        <cc:license rdf:resource="http://creativecommons.org/publicdomain/zero/1.0/"/>
      </cc:Work>
      <cc:License rdf:about="http://creativecommons.org/publicdomain/zero/1.0/">
        <cc:permits rdf:resource="http://creativecommons.org/ns#Reproduction"/>
        <cc:permits rdf:resource="http://creativecommons.org/ns#Distribution"/>
        <cc:permits rdf:resource="http://creativecommons.org/ns#DerivativeWorks"/>
      </cc:License>
    </rdf:RDF>
  </metadata>
  <path id="path3021" d="m 84.9062,11.12505 c 0,0 -29.72321,0.35268 -46.6875,9.28125 -16.96428,8.92857 -21.06697,30.53571 -18.03125,46.25 3.03571,15.71428 8.92857,20.01339 20,40.90625 11.07143,20.89285 38.88729,25.71875 44.71875,25.71875 5.83146,0 33.64732,-4.8259 44.71875,-25.71875 11.07143,-20.89286 16.96429,-25.19197 20,-40.90625 3.03572,-15.71429 -1.06697,-37.32143 -18.03125,-46.25 -16.96429,-8.92857 -46.6875,-9.28125 -46.6875,-9.28125 z" style="color:#000000;display:inline;overflow:visible;visibility:visible;fill:#e1be92;fill-opacity:1;fill-rule:nonzero;stroke:none;stroke-width:3.54330707;marker:none;enable-background:accumulate"/>
  <path style="color:#000000;display:inline;overflow:visible;visibility:visible;fill:#59341d;fill-opacity:1;fill-rule:nonzero;stroke:none;stroke-width:3.54330707;marker:none;enable-background:accumulate" d="m 70.2187,90.68755 c 6.16071,4.89889 12.1875,5.89286 14.6875,5.89286 2.5,0 8.97321,-0.26918 14.6875,-5.89286 -6.0885,1.55343 -9.7668,2.17962 -14.6875,2.17962 -4.9207,0 -9.224,-0.36359 -14.6875,-2.17962 z" id="path4477"/>
  <path id="path3002" d="m 70.2187,90.68755 c 4.28571,3.81696 12.1875,4.55357 14.6875,4.55357 2.5,0 12.36607,-1.09375 14.6875,-4.55357 -6.0885,1.05633 -9.7668,1.48214 -14.6875,1.48214 -4.9207,0 -9.224,-0.24724 -14.6875,-1.48214 z" style="color:#000000;display:inline;overflow:visible;visibility:visible;fill:#000000;fill-opacity:1;fill-rule:nonzero;stroke:none;stroke-width:3.54330707;marker:none;enable-background:accumulate"/>
  <path id="path3011" d="m 84.9062,105.37505 c -5.1755,0 -10.29736,1.92245 -13.75,4.96875 4.21415,-1.46196 8.99454,-2.5 13.75,-2.5 4.75546,0 9.53585,1.03804 13.75,2.5 -3.45264,-3.0463 -8.5745,-4.96875 -13.75,-4.96875 z" style="color:#000000;display:inline;overflow:visible;visibility:visible;fill:#000000;fill-opacity:1;fill-rule:nonzero;stroke:none;stroke-width:3.54330707;marker:none;enable-background:accumulate"/>
  <path style="color:#000000;display:inline;overflow:visible;visibility:visible;fill:#59341d;fill-opacity:1;fill-rule:nonzero;stroke:none;stroke-width:3.54330707;marker:none;enable-background:accumulate" d="m 77.54013,114.04884 c 0,0 4.74289,4.37678 7.36607,4.37678 2.62319,0 7.36606,-4.37678 7.36606,-4.37678 -4.91071,1.28446 -9.82142,1.2317 -14.73213,0 z" id="path4457"/>
  <path id="path3013" d="m 77.54013,114.04884 c 0,0 4.74289,3.12678 7.36607,3.12678 2.62319,0 7.36606,-3.12678 7.36606,-3.12678 -4.91071,0.91762 -9.82142,0.87993 -14.73213,0 z" style="color:#000000;display:inline;overflow:visible;visibility:visible;fill:#000000;fill-opacity:1;fill-rule:nonzero;stroke:none;stroke-width:3.54330707;marker:none;enable-background:accumulate"/>
  <path id="path4447" d="m 84.9062,11.12505 c 0,0 -29.72321,0.35268 -46.6875,9.28125 -16.96428,8.92857 -21.06697,30.53571 -18.03125,46.25 3.03571,15.71428 8.92857,20.01339 20,40.90625 11.07143,20.89285 38.88729,25.71875 44.71875,25.71875 5.83146,0 33.64732,-4.8259 44.71875,-25.71875 11.07143,-20.89286 16.96429,-25.19197 20,-40.90625 3.03572,-15.71429 -1.06697,-37.32143 -18.03125,-46.25 -16.96429,-8.92857 -46.6875,-9.28125 -46.6875,-9.28125 z m 15.63839,9.29018 c 0,0 6.06696,1.79465 19.28125,8.22321 2.90819,1.4148 10.72897,7.98141 14.27679,12.12054 3.21429,3.75001 6.79017,11.09375 7.14732,17.52232 0.35714,6.42857 -4.64286,14.625 -7.5,19.625 -2.85715,5 -8.9375,10.71875 -16.4375,13.21875 -7.5,2.5 -12.50893,7.50446 -13.9375,10.71875 -1.42857,3.21429 1.45089,5.35268 6.09375,9.28125 4.64286,3.92858 0.35267,11.41965 -3.21875,13.5625 -3.57143,2.14286 -17.49107,4.65625 -23.5625,4.65625 -6.07143,0 -17.86608,-3.94643 -21.4375,-7.875 -3.57143,-3.92857 -3.21875,-10.35715 -0.71875,-12.5 2.5,-2.14286 6.07589,-2.83036 3.21875,-8.1875 -2.85715,-5.35714 -20.36607,-12.52232 -26.4375,-18.59375 -6.07142,-6.07143 -5,-16.41964 -5,-23.5625 0,-7.14285 9.71292,-20.45375 24.94196,-28.17411 0,0 23.28572,-6.82589 24.71429,-6.82589 1.42857,0 18.57589,-3.20982 18.57589,-3.20982 z" style="color:#000000;display:inline;overflow:visible;visibility:visible;fill:#d4a06a;fill-opacity:1;fill-rule:nonzero;stroke:none;stroke-width:3.54330707;marker:none;enable-background:accumulate"/>
  <path id="path4450" d="m 43.2472,37.3556 c -10.29381,2.0066 -16.39728,12.12517 -23.966,19.58195 0.008,3.36944 0.31517,6.65904 0.90625,9.71875 3.03571,15.71428 8.92857,20.01339 20,40.90625 4.05537,7.65287 10.35479,13.13732 17,17.03125 -4.90759,-5.8926 -3.73969,-11.94154 -2.35073,-14.1875 1.87847,-3.03751 7.47573,-5.71875 7.47573,-5.71875 0,0 -7.46887,-6.33024 -16.4375,-10.34375 C 36.15794,89.99539 33.73656,83.9688 31.5937,78.9688 29.45084,73.9688 28.47988,62.94149 29.81245,55.06255 30.96,48.27756 36.55494,41.96442 43.2472,37.3556 Z" style="color:#000000;display:inline;overflow:visible;visibility:visible;fill:#59341d;fill-opacity:1;fill-rule:nonzero;stroke:none;stroke-width:0.2;marker:none;enable-background:accumulate"/>
  <path style="color:#000000;display:inline;overflow:visible;visibility:visible;fill:#59341d;fill-opacity:1;fill-rule:nonzero;stroke:none;stroke-width:0.2;marker:none;enable-background:accumulate" d="m 128.95683,32.05988 c 14.57952,3.97088 17.762,11.88518 21.75929,24.87767 -0.008,3.36944 -0.31517,6.65904 -0.90625,9.71875 -3.03571,15.71428 -8.92857,20.01339 -20,40.90625 -4.05537,7.65287 -10.35479,13.13732 -17,17.03125 8.0941,-8.69824 4.14096,-16.0492 -5.65808,-20.98219 0,0 0.85909,-4.36144 9.82772,-8.37495 9.71701,-4.34841 14.36882,-10.16163 17.67411,-14.48215 9.30208,-12.15922 9.70279,-22.08056 8.20982,-29.7991 -1.30681,-6.75612 -4.35721,-12.501 -13.90661,-18.89553 z" id="path4455"/>
  <path id="path4479" d="m 86.29902,48.99915 c -0.48404,-4.68774 0.69787,-9.69625 1.40762,-14.68243 -5.25501,9.01959 -12.26965,15.85518 -19.84291,20.23827 3.8074,-3.87225 6.293,-7.7445 7.07107,-11.61675 l 15.15229,-14.89975 5.91762,6.68574 c -3.92678,3.24621 -7.25571,5.17816 -9.70569,14.27492 z" style="color:#000000;display:inline;overflow:visible;visibility:visible;fill:#59341d;fill-opacity:1;fill-rule:nonzero;stroke:none;stroke-width:0.2;marker:none;enable-background:accumulate"/>
  <path id="path3030" d="M 85.81245,5e-5 C 87.39262,1.34692 89.90288,2.68443 88.3437,4.0313 82.37906,1.34546 74.57208,-0.49475 67.9062,0.25005 c 5.23025,1.25713 11.9195,1.793 13.625,4.8125 C 72.69236,1.85032 62.58879,1.46022 54.99995,2.7813 c 5.85735,1.02087 9.22198,0.0833 16.9375,4.03125 -9.6615,-2.16197 -21.77157,-3.2637 -29.03125,-1.25 5.90421,1.06498 12.78436,2.01477 14.625,3.53125 0,0 -9.09105,-2.52792 -18.6875,0.25 -8.77682,2.54066 -11.99211,0.27598 -17.875,1.71875 L 4.4687,6.8438 c 4.37665,3.2094 8.10333,7.72284 13.65625,8.53125 -4.46151,2.59626 -9.47521,-0.51529 -13.84375,-3 2.45683,3.02083 4.45679,6.04167 8.25,9.0625 -0.0288,0.0743 -0.0653,0.14415 -0.0937,0.21875 C 9.1059,21.79268 7,20.47773 2,15.6563 3.96442,21.03254 6.61554,25.01671 9.6875,27.50005 6.38036,26.08478 3.99979,24.47177 1,20.37505 c 3.03571,10 8.09375,13.1875 8.09375,13.1875 C 6.99339,33.84893 4.45869,33.78783 0,32.18755 c 3.43503,2.74645 5.39262,4.83368 9.4375,6.15625 2.47174,0.8082 3.93604,2.62632 4.875,4.875 -2.04136,-0.36567 -4.74981,-1.64757 -7.53125,-3 3.19405,4.60408 6.09554,6.96267 8.9375,8.75 0.37564,2.86101 0.4912,5.72661 0.90625,7.84375 1.21965,5.85971 3.96481,11.89115 4,11.96875 l 0,0.0312 c 1.88596,8.35679 4.75904,13.5005 9,20.5 2.85076,4.70594 6.32411,10.25174 10.5625,18.25 3.35143,6.32447 8.2479,11.152 13.59375,14.84375 -5.40617,-11.04524 0.79993,-17.50872 8.53125,-17.34375 -9.10714,-7.85715 -21.50618,-6.93168 -28.5,-18.15625 -3.77762,-6.06281 -6.01758,-14.64324 -6.34375,-21.21875 -0.30054,-6.05873 0.34845,-12.58913 3.75,-18 3.40156,-5.41088 9.06146,-9.42574 14.4375,-11.3125 7.49998,-2.63218 22.54948,-3.8804 25.53125,1.28125 3.2986,6.47549 -2.33904,10.70988 -11.125,16.375 18.73963,-6.60953 21.75531,-12.89653 28.28125,-21.71875 -1.56706,5.1366 -4.20197,11.62937 -3.28125,13.65625 3.50956,-7.3716 9.38062,-10.57963 13.625,-12.61571 6.35379,-3.048 12.90961,-4.38876 17.96703,-4.38876 5.05742,0 12.26707,2.17601 17.93887,6.53161 6.07813,4.66764 7.7778,8.37141 9.18912,12.80834 2.17272,6.83063 1.19675,16.26679 -1.15244,21.0281 -2.6912,5.4545 -6.16942,12.01907 -9.01111,15.2815 -11.03914,12.6736 -19.46917,10.56138 -26.46718,18.99778 12.16193,1.62213 13.63542,8.27286 11.25446,17.07589 4.40422,-3.43926 8.37105,-7.75112 11.21875,-13.125 5.5959,-10.56 9.844,-16.89546 13.09375,-22.59375 3.17109,-5.56493 5.407,-10.55167 6.90625,-18.3125 0.89139,-4.61424 1.17196,-9.74602 0.6875,-14.90625 -0.22141,-7.88584 -0.50013,-13.15207 -0.65625,-20.5625 -0.0201,-0.95358 0.0428,-2.01738 0.15625,-3.125 1.17904,-3.32116 2.82855,-6.86057 3.21875,-7.46875 -0.58715,-0.0261 -1.34829,0.57066 -2.1875,1.46875 0.15403,-0.70185 0.29367,-1.40949 0.46875,-2.125 0.61075,-2.49594 1.28737,-6.46338 4.875,-10.0625 -2.62921,1.13291 -5.35656,3.68897 -6.78125,5.125 0.94121,-2.43184 3.6619,-9.04712 4.0625,-11.625 -3.11387,2.40011 -6.91032,8.09381 -7.96875,8.75 0.77996,-2.10972 2.72836,-6.88476 1.5,-9.65625 -1.21974,5.27993 -4.48266,8.447 -5.78125,9.96875 0.35868,-2.45982 2.10755,-6.99176 0.78125,-11.125 -0.64947,3.61821 -2.60381,7.82176 -4,9.625 -0.90779,-1.32973 -0.40993,-4.17586 -0.75,-7.875 -0.73969,1.78559 -1.4656,3.61861 -2.40625,4.03125 -1.69643,1.25 -6.77695,0.91259 -8.5,-1.25 0.11965,-0.57376 0.67556,-1.22023 2.21875,-2.03125 -3.18181,0.44126 -6.40507,0.73712 -9.125,3.71875 -1.18821,-2.03478 0.0281,-3.57339 3.78125,-4.96875 -5.17857,-0.53571 -6.80342,1.8713 -9.78125,1.96875 C 103.76163,4.84788 95.94752,0.71123 85.8125,0 Z M 153.0312,20.5938 c 0.0304,10e-4 0.0642,-0.005 0.0937,0 0.0339,-0.12753 -0.0179,-0.11814 -0.0937,0 z" style="color:#000000;display:inline;overflow:visible;visibility:visible;fill:#000000;fill-opacity:1;fill-rule:nonzero;stroke:none;stroke-width:3.54330707;marker:none;enable-background:accumulate"/>
  <g transform="translate(-217.66526,-329.0937)" id="g4465">
    <path id="path3080" d="m 254.46128,395.88754 c 0.90494,0.68773 1.86803,1.35794 2.83493,2.87132 3.46114,3.45966 7.21691,4.07112 10.91808,5.21046 l 9.28571,0.35715 6.76652,-4.27304 c 4.05756,-4.03558 -0.72371,-2.36225 -3.93045,-2.76525 -9.29604,-1.16827 -14.43135,-2.47752 -16.03688,-1.79017 -2.92131,1.25064 -6.19452,1.18488 -9.83791,0.38953 z" style="color:#000000;display:inline;overflow:visible;visibility:visible;fill:#ffffff;fill-opacity:1;fill-rule:nonzero;stroke:none;stroke-width:0.2;marker:none;enable-background:accumulate"/>
    <path style="color:#000000;display:inline;overflow:visible;visibility:visible;fill:#59341d;fill-opacity:1;fill-rule:nonzero;stroke:none;stroke-width:0.2;marker:none;enable-background:accumulate" d="m 254.46128,395.88754 c 7.10359,-1.48286 14.19462,-3.02586 21.7245,-2.4674 5.84607,1.18491 11.43046,1.45469 17.38565,-0.70082 -1.25001,10.625 -7.71357,13.58149 -12.85715,14.64286 -5.625,1.16071 -13.30356,0.0893 -16.87499,-2.05357 -3.57143,-2.14286 -7.17509,-7.42643 -7.17509,-7.42643 3.04489,3.28708 7.17065,4.8853 11.55009,6.08714 l 9.28571,0.35715 6.76652,-4.27304 c 4.05756,-4.03558 -0.72371,-2.36225 -3.93045,-2.76525 -9.29604,-1.16827 -13.40659,-2.28511 -17.04703,-1.15882 -3.04458,0.94194 -5.18437,0.55353 -8.82776,-0.24182 z" id="path4459"/>
    <path style="color:#000000;display:inline;overflow:visible;visibility:visible;fill:#000000;fill-opacity:1;fill-rule:nonzero;stroke:none;stroke-width:3.54330707;marker:none;enable-background:accumulate" d="m 262.33051,395.28807 c 5.95262,-1.93208 9.19378,-0.47198 13.36378,0.0134 3.04308,0.35422 8.2279,1.31126 10.45118,0.79034 2.22328,-0.52091 1.29324,1.62375 -1.78966,4.05091 -3.12582,2.46097 -7.57102,3.51932 -12.77713,3.41511 -2.93653,-0.0588 -6.48622,-0.67427 -10.95726,-3.12706 -1.05924,-0.58109 -2.84737,-2.12662 -4.30609,-3.83462 -0.18656,-0.21844 -0.73781,-0.64543 -0.87317,-0.85686 2.42994,-0.35426 4.40833,0.35374 6.88835,-0.45122 z m 4.26392,9.94092 c 3.87521,0.96881 12.70449,1.58897 16.63111,-0.24221 5.42435,-2.52963 9.26312,-5.76772 10.0917,-11.02013 0.29019,-1.83953 0.98848,-2.64688 4.68255,-3.91977 l 0,-5e-5 c -2.30982,-0.63769 -6.85314,-0.0552 -10.38599,1.93981 -2.98678,1.68665 -11.66118,1.37185 -16.51286,0.50018 -9.91662,-1.78167 -14.70502,-1.67521 -18.65789,0.0825 3.23696,0.14194 5.39635,0.11543 6.62985,1.33717 -3.1829,0.0107 -5.12507,0.83314 -7.03611,3.03639 0.90661,-0.49502 1.68322,-0.80436 2.5077,-0.98574 3.59518,4.86239 8.21046,8.31197 12.04994,9.27185 z" id="path2996"/>
  </g>
  <use height="1052.3622" width="744.09448" transform="matrix(-1,0,0,1,169.81239,0)" id="use4469" xlink:href="#g4465" y="0" x="0"/>
</svg>